<svg width="552" height="552" viewBox="0 0 552 552" fill="none" xmlns="http://www.w3.org/2000/svg">
<path d="M552 422.17H0V422.446H552V422.17Z" fill="#EBEBEB"/>
<path d="M496.689 439.933H460.125V440.209H496.689V439.933Z" fill="#EBEBEB"/>
<path d="M365.666 442.936H356.072V443.212H365.666V442.936Z" fill="#EBEBEB"/>
<path d="M459.022 429.688H437.836V429.964H459.022V429.688Z" fill="#EBEBEB"/>
<path d="M105.598 431.543H57.916V431.819H105.598V431.543Z" fill="#EBEBEB"/>
<path d="M122.422 431.543H115.434V431.819H122.422V431.543Z" fill="#EBEBEB"/>
<path d="M248.565 436.202H145.143V436.478H248.565V436.202Z" fill="#EBEBEB"/>
<path d="M261.648 372.931H48.4764C46.8064 372.928 45.2059 372.263 44.026 371.081C42.8462 369.899 42.1836 368.298 42.1836 366.628V66.9689C42.1981 65.3085 42.8672 63.7209 44.0454 62.5509C45.2237 61.3809 46.8159 60.7231 48.4764 60.7202H261.648C263.32 60.7202 264.923 61.3844 266.105 62.5666C267.287 63.7488 267.952 65.3522 267.952 67.0241V366.628C267.952 368.299 267.287 369.903 266.105 371.085C264.923 372.267 263.32 372.931 261.648 372.931ZM48.4764 60.941C46.8796 60.9439 45.3493 61.5803 44.2212 62.7104C43.0932 63.8405 42.4596 65.3721 42.4596 66.9689V366.628C42.4596 368.224 43.0932 369.756 44.2212 370.886C45.3493 372.016 46.8796 372.652 48.4764 372.655H261.648C263.246 372.652 264.777 372.016 265.907 370.887C267.037 369.757 267.673 368.225 267.676 366.628V66.9689C267.673 65.3711 267.037 63.8396 265.907 62.7098C264.777 61.5799 263.246 60.9439 261.648 60.941H48.4764Z" fill="#EBEBEB"/>
<path d="M500.455 372.931H287.273C285.602 372.928 284 372.263 282.818 371.082C281.637 369.9 280.972 368.299 280.969 366.628V66.9689C280.986 65.3075 281.658 63.7199 282.838 62.5502C284.018 61.3805 285.611 60.723 287.273 60.7202H500.455C502.114 60.726 503.703 61.3851 504.879 62.5548C506.055 63.7244 506.722 65.3104 506.737 66.9689V366.628C506.737 368.296 506.076 369.896 504.898 371.077C503.721 372.259 502.123 372.926 500.455 372.931ZM287.273 60.941C285.675 60.9439 284.143 61.5799 283.013 62.7098C281.884 63.8396 281.248 65.3711 281.245 66.9689V366.628C281.248 368.225 281.884 369.757 283.013 370.887C284.143 372.016 285.675 372.652 287.273 372.655H500.455C502.053 372.652 503.584 372.016 504.714 370.887C505.844 369.757 506.48 368.225 506.483 366.628V66.9689C506.48 65.3711 505.844 63.8396 504.714 62.7098C503.584 61.5799 502.053 60.9439 500.455 60.941H287.273Z" fill="#EBEBEB"/>
<path d="M490.397 82.4136H308.844V243.509H490.397V82.4136Z" fill="#E6E6E6"/>
<path d="M485.605 86.8296H313.381V239.182H485.605V86.8296Z" fill="#F0F0F0"/>
<path d="M353.809 86.8296L313.381 238.85V167.422L334.721 86.8296H353.809Z" fill="white"/>
<path d="M368.117 86.8296L327.346 239.182H320.844L361.614 86.8296H368.117Z" fill="white"/>
<path d="M485.605 182.966V207.31L477.358 239.182H470.855L485.605 182.966Z" fill="white"/>
<path d="M373.462 84.0918H370.559V242.582H373.462V84.0918Z" fill="#E6E6E6"/>
<path d="M429.677 84.0918H426.773V242.582H429.677V84.0918Z" fill="#E6E6E6"/>
<path d="M158.016 332.359H57.916V422.126H158.016V332.359Z" fill="#F5F5F5"/>
<path d="M92.7582 332.359H57.916V422.126H92.7582V332.359Z" fill="#EBEBEB"/>
<path d="M177.932 244.437H77.832V334.203H177.932V244.437Z" fill="#EBEBEB"/>
<path d="M112.674 244.437H77.832V334.203H112.674V244.437Z" fill="#E0E0E0"/>
<path d="M158.016 154.936H57.916V244.702H158.016V154.936Z" fill="#F5F5F5"/>
<path d="M92.7582 154.936H57.916V244.702H92.7582V154.936Z" fill="#EBEBEB"/>
<path d="M266.947 332.437H166.848V422.203H266.947V332.437Z" fill="#EBEBEB"/>
<path d="M201.69 332.437H166.848V422.203H201.69V332.437Z" fill="#E0E0E0"/>
<path d="M278.031 278.065H177.932V334.291H278.031V278.065Z" fill="#F5F5F5"/>
<path d="M212.774 278.065H177.932V334.291H212.774V278.065Z" fill="#E6E6E6"/>
<path d="M234.832 189.237H170.16V279.003H234.832V189.237Z" fill="#EBEBEB"/>
<path d="M192.671 189.237H170.16V279.003H192.671V189.237Z" fill="#E0E0E0"/>
<path d="M382.547 422.291H482.646V332.525H382.547V422.291Z" fill="#F5F5F5"/>
<path d="M447.804 422.291H482.646V332.525H447.804V422.291Z" fill="#E6E6E6"/>
<path d="M362.619 334.369H462.719V261.295H362.619V334.369Z" fill="#EBEBEB"/>
<path d="M427.888 334.369H462.73V261.295H427.888V334.369Z" fill="#E0E0E0"/>
<path d="M386.113 261.295H482.646V225.525H386.113V261.295Z" fill="#F5F5F5"/>
<path d="M449.064 261.295H482.658V225.525H449.064V261.295Z" fill="#E6E6E6"/>
<path d="M276 472.026C394.219 472.026 490.054 466.431 490.054 459.529C490.054 452.627 394.219 447.032 276 447.032C157.781 447.032 61.9453 452.627 61.9453 459.529C61.9453 466.431 157.781 472.026 276 472.026Z" fill="#F5F5F5"/>
<path d="M395.077 121.385H364.353C361.591 121.385 359.352 123.624 359.352 126.386V154.251C359.352 157.013 361.591 159.252 364.353 159.252H395.077C397.839 159.252 400.078 157.013 400.078 154.251V126.386C400.078 123.624 397.839 121.385 395.077 121.385Z" fill="#059CE1"/>
<path d="M375.734 154.438C375.734 154.438 378.307 166.881 395.838 173.781C395.838 173.781 385.118 166.925 385.781 154.438H375.734Z" fill="#059CE1"/>
<path d="M370.9 139.247L376.719 147.329L388.531 133.319" stroke="white" stroke-width="3" stroke-linecap="round" stroke-linejoin="round"/>
<path d="M433.353 164.96C438.751 168.835 443.631 175.459 439.977 194.006C436.322 212.553 435.395 216.969 435.395 216.969L400.067 212.995C400.067 212.995 398.411 196.578 401.171 181.133C404.902 161.184 417.543 153.599 433.353 164.96Z" fill="#263238"/>
<path d="M397.991 267.444C397.991 267.444 386.024 331.2 382.833 357.398C378.66 391.556 361.604 441.523 361.604 441.523L368.426 443.289C368.426 443.289 392.471 400.818 397.13 362.62C416.229 323.571 417.775 275.481 417.775 275.481L397.991 267.444Z" fill="#EEC1BB"/>
<path d="M348.865 456.979C349.967 456.471 351.153 456.172 352.364 456.095C352.364 456.095 356.559 453.623 360.71 444.04H365.391C366.181 444.051 366.948 444.303 367.589 444.763C368.23 445.223 368.716 445.868 368.979 446.612C369.056 446.821 369.101 447.041 369.112 447.263C369.06 448.374 368.938 449.48 368.748 450.575C368.063 454.307 367.152 457.994 366.021 461.615L365.226 461.406L366.661 454.439C367.147 452.066 364.652 454.351 363.504 456.747C362.355 459.143 360.622 461.472 355.489 460.368C349.439 458.933 347.021 458.061 348.865 456.979Z" fill="#263238"/>
<path d="M369.156 446.701C370.039 444.437 371.165 440.386 371.165 440.386L361.152 438.995C361.152 438.995 361.152 443.918 359.297 447.142C364.53 447.12 369.156 446.701 369.156 446.701Z" fill="#263238"/>
<path d="M410.412 266.428C410.412 266.428 411.903 331.288 414.188 357.563C417.18 391.854 410.821 444.272 410.821 444.272L417.864 444.581C417.864 444.581 432.603 398.058 429.291 359.705C439.9 317.554 431.499 270.193 431.499 270.193L410.412 266.428Z" fill="#EEC1BB"/>
<path d="M399.868 459.121C400.911 458.493 402.06 458.063 403.258 457.851C403.258 457.851 407.155 454.947 410.257 444.967L414.894 444.437C415.685 444.363 416.481 444.535 417.17 444.93C417.86 445.326 418.411 445.925 418.747 446.645C418.846 446.843 418.913 447.056 418.946 447.275C419.017 448.403 419.017 449.535 418.946 450.664C418.662 454.43 418.149 458.176 417.411 461.881L416.605 461.77L417.279 454.682C417.499 452.276 415.28 454.815 414.386 457.321C413.492 459.827 411.99 462.399 406.735 461.737C400.619 460.997 398.113 460.368 399.868 459.121Z" fill="#263238"/>
<path d="M418.891 446.7C419.52 444.36 420.205 440.209 420.205 440.209L410.103 439.911C410.103 439.911 410.633 444.802 409.143 448.213C414.331 447.606 418.891 446.7 418.891 446.7Z" fill="#263238"/>
<path d="M395.443 256.802L382.316 347.572C382.316 347.572 425.063 354.196 442.175 350.321C442.175 350.321 446.382 297.914 428.519 259.793L395.443 256.802Z" fill="#263238"/>
<path d="M355.929 224.708L344.503 213.425C344.503 213.425 344.117 210.4 343.002 209.561C341.887 208.722 334.07 205.874 333.066 206.503C332.061 207.132 330.769 213.469 332.116 214.629C333.463 215.788 340.584 217.267 341.313 217.146L353.71 231.84L355.929 224.708Z" fill="#EEC1BB"/>
<path d="M396.822 204.141C391.898 206.757 374.41 231.2 371.838 232.403C369.266 233.606 349.582 217.654 349.582 217.654L346.27 223.317C346.27 223.317 362.41 246.192 371.54 245.088C380.67 243.984 398.146 224.664 398.146 224.664L396.822 204.141Z" fill="#059CE1"/>
<path opacity="0.1" d="M396.822 204.141C391.898 206.757 374.41 231.2 371.838 232.403C369.266 233.606 349.582 217.654 349.582 217.654L346.27 223.317C346.27 223.317 362.41 246.192 371.54 245.088C380.67 243.984 398.146 224.664 398.146 224.664L396.822 204.141Z" fill="white"/>
<path d="M350.664 218.261L349.295 216.969L345.707 223.041L346.999 225.525L350.664 218.261Z" fill="#059CE1"/>
<path opacity="0.2" d="M391.126 231.741C395.211 227.844 398.147 224.609 398.147 224.609L397.838 219.751L396.337 215.037C394.219 217.217 392.644 219.865 391.739 222.767C390.833 225.669 390.623 228.743 391.126 231.741Z" fill="black"/>
<path d="M395.166 255.874C393.786 231.586 394.404 218.206 395.034 211.526C395.729 204.406 396.822 204.141 396.822 204.141C396.822 204.141 404.55 203.39 411.251 203.445C416.436 203.621 421.601 204.167 426.707 205.079C431.568 205.885 436.364 207.04 441.059 208.534C440.276 210.742 439.569 212.95 438.907 214.894C438.034 217.532 437.251 219.972 436.533 222.257C435.208 226.519 434.17 230.206 433.353 233.507C431.243 241.819 430.011 250.33 429.677 258.899C429.677 258.899 438.167 281.089 439.823 297.373L411.671 300.409L407.807 284.125L403.943 300.961L388.211 295.441L395.166 255.874Z" fill="#059CE1"/>
<path opacity="0.1" d="M395.166 255.874C393.786 231.586 394.404 218.206 395.034 211.526C395.729 204.406 396.822 204.141 396.822 204.141C396.822 204.141 404.55 203.39 411.251 203.445C416.436 203.621 421.601 204.167 426.707 205.079C431.568 205.885 436.364 207.04 441.059 208.534C440.276 210.742 439.569 212.95 438.907 214.894C438.034 217.532 437.251 219.972 436.533 222.257C435.208 226.519 434.17 230.206 433.353 233.507C431.243 241.819 430.011 250.33 429.677 258.899C429.677 258.899 438.167 281.089 439.823 297.373L411.671 300.409L407.807 284.125L403.943 300.961L388.211 295.441L395.166 255.874Z" fill="white"/>
<path opacity="0.2" d="M431.985 239.458C432.36 237.603 432.802 235.627 433.343 233.507C433.685 232.16 434.06 230.747 434.447 229.246C433.343 225.481 432.239 228.429 432.239 228.429C431.554 232.067 431.468 235.792 431.985 239.458Z" fill="black"/>
<path d="M411.638 204.924C411.978 204.752 412.328 204.601 412.686 204.472C413.481 203.843 414.453 202.33 414.409 198.654C414.373 197.196 414.236 195.743 414 194.304L424.234 192.394C424.234 192.394 420.746 199.283 423.649 204.406C424.654 204.847 425.25 205.51 425.139 206.315C424.378 212.222 411.66 217.941 411.66 217.941C411.66 217.941 405.466 208.314 411.638 204.924Z" fill="#EEC1BB"/>
<path opacity="0.2" d="M414 194.304C414.231 195.732 414.364 197.174 414.397 198.621C421.308 198.621 424.234 192.394 424.234 192.394L414 194.304Z" fill="black"/>
<path d="M419.664 165.721C410.766 165.236 407.642 169.839 406.494 178.969C405.047 190.385 407.145 198.665 418.406 196.832C433.696 194.304 434.447 166.527 419.664 165.721Z" fill="#EEC1BB"/>
<path d="M412.268 178.848C411.483 180.137 410.545 181.327 409.475 182.392C409.718 182.77 410.062 183.073 410.467 183.268C410.872 183.462 411.324 183.541 411.771 183.496L412.268 178.848Z" fill="#D4827D"/>
<path d="M417.754 178.362C417.754 179.091 418.041 179.72 418.527 179.753C419.012 179.786 419.454 179.234 419.52 178.506C419.587 177.777 419.222 177.148 418.736 177.115C418.251 177.082 417.809 177.634 417.754 178.362Z" fill="#263238"/>
<path d="M418.935 177.159L417.4 176.419C417.4 176.419 418.085 177.81 418.935 177.159Z" fill="#263238"/>
<path d="M408.689 177.501C408.634 178.23 408.976 178.848 409.462 178.892C409.948 178.936 410.401 178.373 410.456 177.634C410.511 176.894 410.158 176.287 409.672 176.243C409.186 176.198 408.745 176.773 408.689 177.501Z" fill="#263238"/>
<path d="M409.871 176.298L408.336 175.547C408.336 175.547 409.02 176.949 409.871 176.298Z" fill="#263238"/>
<path d="M418.184 172.224C418.89 172.176 419.598 172.292 420.253 172.562C420.908 172.832 421.492 173.249 421.959 173.78" stroke="#263238" stroke-width="0.686238" stroke-linecap="round" stroke-linejoin="round"/>
<path d="M411.793 171.495C411.194 171.306 410.56 171.256 409.938 171.348C409.317 171.44 408.724 171.671 408.205 172.025" stroke="#263238" stroke-width="0.686238" stroke-linecap="round" stroke-linejoin="round"/>
<path d="M428.573 181.255C428.573 181.255 424.809 173.714 425.747 168.106C425.747 168.106 408.514 159.936 406.659 177.777C406.659 177.777 405.809 161.791 421.121 162.321C436.434 162.851 435.142 185.185 426.884 191.422C426.884 191.378 430.892 185.969 428.573 181.255Z" fill="#263238"/>
<path d="M427.016 183.054C427.164 182.03 427.712 181.106 428.539 180.485C429.367 179.864 430.408 179.597 431.432 179.742C434.17 180.195 435.175 185.936 428.242 186.918C427.248 187.029 426.729 186.035 427.016 183.054Z" fill="#EEC1BB"/>
<path d="M418.715 185.549C418.042 186.214 417.243 186.738 416.366 187.093C415.488 187.447 414.55 187.624 413.604 187.614" stroke="#263238" stroke-width="0.686238" stroke-linecap="round" stroke-linejoin="round"/>
<path d="M425.748 168.106C425.748 168.106 406.516 163.105 404.904 181.133" stroke="#263238" stroke-width="0.686238" stroke-linecap="round" stroke-linejoin="round"/>
<path d="M408.59 209.307C408.59 209.307 407.122 223.924 409.528 237.228C409.528 237.228 415.203 216.671 423.174 209.683L414.011 210.996L408.59 209.307Z" fill="#059CE1"/>
<path opacity="0.5" d="M408.59 209.307C408.59 209.307 407.122 223.924 409.528 237.228C409.528 237.228 415.203 216.671 423.174 209.683L414.011 210.996L408.59 209.307Z" fill="white"/>
<path d="M423.306 202.805L413.999 209.682V202.374C413.999 202.374 406.481 205.101 407.011 213.414L413.182 210.577V213.414L414.629 210.676L419.508 216.251C419.508 216.251 425.481 209.285 426.132 207.187C426.784 205.09 423.306 202.805 423.306 202.805Z" fill="#059CE1"/>
<path opacity="0.7" d="M423.306 202.805L413.999 209.682V202.374C413.999 202.374 406.481 205.101 407.011 213.414L413.182 210.577V213.414L414.629 210.676L419.508 216.251C419.508 216.251 425.481 209.285 426.132 207.187C426.784 205.09 423.306 202.805 423.306 202.805Z" fill="white"/>
<path d="M433.023 267.301L424.478 226.53C424.389 226.103 424.156 225.72 423.819 225.445C423.481 225.169 423.059 225.018 422.623 225.017H396.337C396.143 225.018 395.952 225.06 395.777 225.142C395.602 225.224 395.447 225.344 395.323 225.492C395.198 225.64 395.108 225.814 395.058 226.001C395.009 226.188 395 226.383 395.034 226.574L402.155 266.495C402.229 266.925 402.45 267.316 402.78 267.602C403.11 267.888 403.529 268.051 403.965 268.062L431.753 268.89C431.947 268.886 432.138 268.839 432.312 268.753C432.486 268.667 432.639 268.544 432.76 268.393C432.881 268.241 432.967 268.064 433.013 267.876C433.058 267.687 433.062 267.491 433.023 267.301Z" fill="#263238"/>
<path opacity="0.1" d="M433.023 267.301L424.478 226.53C424.389 226.103 424.156 225.72 423.819 225.445C423.481 225.169 423.059 225.018 422.623 225.017H396.337C396.143 225.018 395.952 225.06 395.777 225.142C395.602 225.224 395.447 225.344 395.323 225.492C395.198 225.64 395.108 225.814 395.058 226.001C395.009 226.188 395 226.383 395.034 226.574L402.155 266.495C402.229 266.925 402.45 267.316 402.78 267.602C403.11 267.888 403.529 268.051 403.965 268.062L431.753 268.89C431.947 268.886 432.138 268.839 432.312 268.753C432.486 268.667 432.639 268.544 432.76 268.393C432.881 268.241 432.967 268.064 433.013 267.876C433.058 267.687 433.062 267.491 433.023 267.301Z" fill="white"/>
<path d="M444.383 254.097L430.793 245.53C430.793 245.53 429.755 242.67 428.497 242.085C427.238 241.5 418.98 240.407 418.174 241.235C417.368 242.063 417.435 248.521 419.002 249.372C420.57 250.222 427.834 250.122 428.519 249.846L443.743 261.504L444.383 254.097Z" fill="#EEC1BB"/>
<path d="M441.059 208.534C441.059 208.534 432.227 221.429 433.474 232.469L445.254 251.966L437.338 247.925L433.75 254.682C433.75 254.682 442.858 268.713 454.45 265.401C466.042 262.089 441.059 208.534 441.059 208.534Z" fill="#059CE1"/>
<path opacity="0.1" d="M441.059 208.534C441.059 208.534 432.227 221.429 433.474 232.469L445.254 251.966L437.338 247.925L433.75 254.682C433.75 254.682 442.858 268.713 454.45 265.401C466.042 262.089 441.059 208.534 441.059 208.534Z" fill="white"/>
<path d="M438.166 247.55L433.662 255.929L432.646 253.534L436.234 246.722L438.166 247.55Z" fill="#059CE1"/>
<path d="M421.729 225.017C420.691 225.017 420.691 252.176 420.691 252.176L396.955 251.491C396.955 251.491 394.283 228.528 396.955 224.995L421.729 225.017Z" fill="white"/>
<path opacity="0.1" d="M421.729 225.017C420.691 225.017 420.691 252.176 420.691 252.176L396.955 251.491C396.955 251.491 394.283 228.528 396.955 224.995L421.729 225.017Z" fill="black"/>
<path d="M323.693 203.5L346.137 212.94C346.259 212.992 346.368 213.068 346.46 213.164C346.552 213.259 346.624 213.371 346.672 213.494C346.72 213.617 346.743 213.749 346.741 213.881C346.738 214.013 346.709 214.143 346.656 214.264C346.552 214.503 346.358 214.69 346.115 214.785C345.873 214.881 345.603 214.876 345.365 214.772L322.777 205.2L322.567 205.09L319.939 203.136L323.395 203.434C323.497 203.44 323.598 203.463 323.693 203.5Z" fill="#263238"/>
<path d="M249.227 250.023L227.423 251.966L218.68 247.031C218.68 247.031 190.638 231.41 183.352 226.475C181.144 224.962 179.079 221.673 177.302 217.809C175.81 214.495 174.527 211.092 173.46 207.619C172.963 206.062 172.521 204.572 172.146 203.203C171.307 200.255 170.788 198.047 170.645 197.451C170.651 197.403 170.651 197.355 170.645 197.307H170.7L177.611 195.099L183.385 193.267C183.385 193.267 183.65 194.636 184.102 196.722L184.5 198.566C184.621 199.096 184.743 199.67 184.875 200.244C186.332 206.669 188.573 215.435 190.196 216.87C192.813 219.177 225.712 241.6 226.882 242.185C228.053 242.77 238.529 242.185 238.529 242.185L249.227 250.023Z" fill="#ECAF9C"/>
<path d="M170.468 166.351C180.515 166.196 186.907 197.329 186.907 197.329L173.659 203.953C169.896 197.437 167.933 190.038 167.973 182.513C168.282 170.568 170.468 166.351 170.468 166.351Z" fill="#059CE1"/>
<path opacity="0.5" d="M170.468 166.351C180.515 166.196 186.907 197.329 186.907 197.329L173.659 203.953C169.896 197.437 167.933 190.038 167.973 182.513C168.282 170.568 170.468 166.351 170.468 166.351Z" fill="white"/>
<path d="M188.376 197.936L184.799 200.254L180.129 203.279L173.417 207.618L172.213 208.402L170.756 203.975L172.103 203.246L172.986 202.761L179.124 199.415L184.026 196.733L186.477 195.397L186.907 195.165L188.376 197.936Z" fill="#059CE1"/>
<path opacity="0.2" d="M180.725 208.402C180.746 211.854 179.514 215.196 177.259 217.808C175.767 214.495 174.484 211.092 173.417 207.618L172.213 208.402L170.756 203.986L172.103 203.258C171.264 200.31 170.745 198.102 170.602 197.506V197.329L172.191 185.185C174.277 188.32 176.059 191.647 177.513 195.121C178.087 196.479 178.617 197.925 179.102 199.427C179.272 199.942 179.426 200.472 179.566 201.016C179.776 201.767 179.952 202.529 180.107 203.291C180.466 204.973 180.673 206.683 180.725 208.402Z" fill="black"/>
<path d="M168.967 451.934L178.207 452.916L179.941 432.989L170.7 432.006L168.967 451.934Z" fill="#ECAF9C"/>
<path d="M122.875 451.26H131.817L132.557 430.527H123.604L122.875 451.26Z" fill="#ECAF9C"/>
<path d="M133.066 450.222H122.191C122.014 450.225 121.842 450.288 121.704 450.4C121.566 450.512 121.469 450.667 121.43 450.841L119.663 458.812C119.626 458.981 119.623 459.157 119.654 459.328C119.685 459.498 119.75 459.662 119.844 459.807C119.938 459.953 120.061 460.079 120.204 460.177C120.348 460.275 120.509 460.344 120.679 460.379C120.774 460.395 120.871 460.395 120.966 460.379C124.488 460.379 127.049 460.114 131.465 460.114C134.192 460.114 142.406 460.39 146.159 460.39C149.913 460.39 150.41 456.681 148.864 456.339C141.964 454.837 136.72 452.751 134.512 450.819C134.119 450.45 133.605 450.238 133.066 450.222Z" fill="#263238"/>
<path d="M133.683 451.47C133.64 451.459 133.6 451.435 133.571 451.402C133.541 451.368 133.523 451.327 133.517 451.282C133.512 451.243 133.519 451.203 133.537 451.168C133.554 451.132 133.582 451.103 133.617 451.084C133.937 450.874 136.829 449.096 137.823 449.615C137.936 449.664 138.031 449.747 138.096 449.851C138.161 449.956 138.193 450.077 138.187 450.2C138.209 450.406 138.181 450.615 138.104 450.807C138.027 451 137.904 451.17 137.746 451.304C137.242 451.652 136.634 451.816 136.023 451.768C135.234 451.758 134.449 451.658 133.683 451.47ZM134.29 451.172C135.336 451.527 136.477 451.468 137.481 451.006C137.585 450.911 137.666 450.792 137.716 450.66C137.766 450.528 137.784 450.385 137.768 450.245C137.768 450.079 137.69 450.002 137.624 450.002C137.544 449.956 137.451 449.937 137.359 449.946C136.267 450.153 135.225 450.569 134.29 451.172Z" fill="#059CE1"/>
<path d="M133.584 451.536C133.552 451.514 133.526 451.484 133.509 451.449C133.491 451.415 133.483 451.376 133.485 451.337C133.485 451.216 133.716 448.644 134.754 447.805C134.874 447.696 135.016 447.615 135.171 447.567C135.325 447.519 135.488 447.506 135.648 447.529C135.809 447.528 135.964 447.582 136.089 447.683C136.214 447.783 136.3 447.924 136.333 448.081C136.509 449.03 134.721 450.995 133.805 451.503H133.705C133.669 451.526 133.627 451.537 133.584 451.536ZM135.019 448.047C134.377 448.85 133.992 449.827 133.915 450.852C134.842 450.156 135.98 448.644 135.869 448.081C135.869 448.025 135.869 447.871 135.56 447.871H135.461C135.312 447.882 135.171 447.936 135.052 448.025L135.019 448.047Z" fill="#059CE1"/>
<path d="M179.179 449.946H168.305C168.128 449.947 167.956 450.007 167.818 450.117C167.68 450.227 167.583 450.381 167.543 450.553L165.776 458.524C165.704 458.867 165.771 459.224 165.961 459.518C166.151 459.811 166.45 460.018 166.792 460.092H167.09C170.601 460.026 173.162 459.816 177.589 459.816C180.305 459.816 188.519 460.103 192.272 460.103C196.026 460.103 196.523 456.383 194.988 456.04C188.088 454.539 182.844 452.463 180.636 450.52C180.237 450.157 179.719 449.953 179.179 449.946Z" fill="#263238"/>
<path d="M179.796 451.183C179.753 451.172 179.714 451.148 179.684 451.115C179.655 451.081 179.636 451.04 179.631 450.995C179.625 450.955 179.633 450.913 179.653 450.877C179.672 450.841 179.704 450.813 179.741 450.796C180.061 450.587 182.954 448.809 183.936 449.328C184.047 449.38 184.141 449.462 184.206 449.566C184.271 449.67 184.304 449.791 184.301 449.913C184.324 450.119 184.296 450.328 184.219 450.521C184.141 450.713 184.018 450.884 183.859 451.017C183.366 451.375 182.768 451.558 182.159 451.536C181.361 451.509 180.568 451.39 179.796 451.183ZM180.404 450.885C181.449 451.233 182.587 451.178 183.594 450.73C183.7 450.636 183.781 450.517 183.831 450.384C183.881 450.252 183.898 450.109 183.881 449.968C183.881 449.792 183.804 449.715 183.749 449.715C183.664 449.669 183.568 449.649 183.473 449.659C182.382 449.871 181.34 450.287 180.404 450.885Z" fill="#059CE1"/>
<path d="M179.741 451.227C179.709 451.207 179.682 451.18 179.663 451.147C179.643 451.114 179.632 451.077 179.631 451.039C179.631 450.907 179.863 448.335 180.9 447.496C181.02 447.387 181.162 447.306 181.317 447.258C181.471 447.21 181.635 447.197 181.795 447.22C181.956 447.219 182.113 447.275 182.238 447.378C182.363 447.481 182.448 447.624 182.479 447.783C182.667 448.721 180.878 450.697 179.951 451.194H179.852C179.819 451.215 179.78 451.227 179.741 451.227ZM181.176 447.738C180.53 448.538 180.144 449.517 180.072 450.543C180.989 449.847 182.126 448.335 182.015 447.783C182.015 447.716 182.015 447.562 181.706 447.562H181.607C181.448 447.573 181.297 447.635 181.176 447.738Z" fill="#059CE1"/>
<path opacity="0.2" d="M170.7 432.006L179.941 432.989L179.035 443.267L169.795 442.285L170.7 432.006Z" fill="black"/>
<path opacity="0.2" d="M123.603 430.538H132.557L132.17 441.236H123.217L123.603 430.538Z" fill="black"/>
<path d="M127.291 248.643H174.763C179.278 273.317 193.42 360.611 183.275 438.388L167.189 436.389C167.189 436.389 168.68 333.132 154.482 294.967C152.848 315.391 150.905 337.129 149.227 348.699C145.131 377.16 136.288 439.392 136.288 439.392H119.916C119.916 439.392 123.228 379.842 124.807 351.856C126.496 321.474 127.236 254.881 127.291 248.643Z" fill="#059CE1"/>
<path opacity="0.2" d="M154.561 294.967C156.901 301.659 158.677 308.535 159.871 315.523C161.196 297.341 155.885 278.065 155.885 278.065L154.561 294.967Z" fill="black"/>
<path d="M185.163 442.13L165.258 439.171L165.865 433.662L186.565 436.378L185.163 442.13Z" fill="#059CE1"/>
<path opacity="0.6" d="M185.163 442.13L165.258 439.171L165.865 433.662L186.565 436.378L185.163 442.13Z" fill="white"/>
<path d="M138.254 439.513H118.945V433.74L138.983 433.364L138.254 439.513Z" fill="#059CE1"/>
<path opacity="0.6" d="M138.254 439.513H118.945V433.74L138.983 433.364L138.254 439.513Z" fill="white"/>
<path d="M127.202 256.901L127.158 250.023L175.58 247.031L175.922 253.699L127.202 256.901Z" fill="#263238"/>
<path d="M139.457 248.279H137.271V258.358H139.457V248.279Z" fill="#059CE1"/>
<path d="M172.92 244.931L170.74 245.09L171.473 255.143L173.653 254.984L172.92 244.931Z" fill="#059CE1"/>
<path d="M175.536 247.031L127.159 250.608C127.159 246.369 127.048 241.644 126.728 236.654C126.132 227.435 124.995 217.345 123.725 207.883C121.031 187.78 117.73 170.524 117.73 170.524C140.252 164.838 170.469 166.318 170.469 166.318C178.318 195.728 175.536 247.031 175.536 247.031Z" fill="#059CE1"/>
<path opacity="0.6" d="M175.536 247.031L127.159 250.608C127.159 246.369 127.048 241.644 126.728 236.654C126.132 227.435 124.995 217.345 123.725 207.883C121.031 187.78 117.73 170.524 117.73 170.524C140.252 164.838 170.469 166.318 170.469 166.318C178.318 195.728 175.536 247.031 175.536 247.031Z" fill="white"/>
<path d="M134.92 167.51C139.336 171.474 149.967 170.016 149.967 170.016C149.967 170.016 156.591 168.184 155.234 166.097C151.303 165.457 149.404 163.624 148.61 161.273C148.173 159.821 148.038 158.296 148.212 156.79C148.273 155.949 148.383 155.112 148.543 154.284L135.295 144.503C137.073 150.961 139.192 162.829 134.92 167.51Z" fill="#ECAF9C"/>
<path opacity="0.2" d="M138.396 150.718C138.915 158.645 145.429 160.831 148.62 161.273C148.183 159.821 148.048 158.296 148.222 156.79L138.396 150.718Z" fill="black"/>
<path d="M161.183 125.669C164.396 128.716 163.06 138 156.514 142.747C149.967 147.495 149.967 124.531 149.967 124.531C149.967 124.531 159.141 123.725 161.183 125.669Z" fill="#263238"/>
<path d="M137.504 152.551C138.876 154.583 140.878 156.108 143.202 156.892C145.525 157.676 148.042 157.675 150.365 156.89C153.386 155.933 155.929 153.86 157.475 151.094C157.693 150.71 157.892 150.316 158.071 149.912C161.295 142.416 162.288 129.168 154.351 124.244C151.625 122.536 148.333 121.979 145.198 122.696C142.062 123.412 139.339 125.342 137.625 128.064C136.611 129.68 135.988 131.509 135.803 133.408C134.832 142.195 133.838 147.34 137.504 152.551Z" fill="#ECAF9C"/>
<path d="M148.654 138.1C148.488 138.795 148.808 139.447 149.283 139.524C149.758 139.601 150.221 139.082 150.387 138.42C150.552 137.757 150.221 137.073 149.769 136.996C149.316 136.918 148.786 137.382 148.654 138.1Z" fill="#263238"/>
<path d="M156.702 139.469C156.536 140.164 156.867 140.827 157.32 140.904C157.772 140.981 158.269 140.462 158.424 139.8C158.578 139.138 158.258 138.442 157.794 138.365C157.331 138.287 156.823 138.795 156.702 139.469Z" fill="#263238"/>
<path d="M154.084 139.38C154.563 141.687 155.358 143.916 156.447 146.004C155.898 146.272 155.297 146.416 154.687 146.425C154.076 146.435 153.471 146.31 152.914 146.06L154.084 139.38Z" fill="#DE5753"/>
<path d="M146.599 135.063C146.675 135.085 146.754 135.089 146.831 135.073C146.908 135.058 146.98 135.024 147.041 134.975C147.418 134.599 147.878 134.317 148.385 134.152C148.891 133.987 149.429 133.944 149.955 134.026C150.009 134.039 150.065 134.041 150.119 134.033C150.174 134.024 150.226 134.005 150.274 133.976C150.321 133.948 150.362 133.91 150.394 133.865C150.427 133.821 150.45 133.77 150.463 133.716C150.487 133.608 150.468 133.495 150.41 133.401C150.353 133.306 150.261 133.237 150.154 133.209C149.494 133.087 148.815 133.123 148.172 133.315C147.529 133.507 146.941 133.849 146.456 134.313C146.379 134.393 146.336 134.5 146.336 134.611C146.336 134.722 146.379 134.829 146.456 134.909C146.493 134.969 146.542 135.022 146.599 135.063Z" fill="#263238"/>
<path d="M151.126 149.592C150.082 149.575 149.057 149.305 148.14 148.806C147.222 148.306 146.44 147.591 145.86 146.722C145.844 146.697 145.834 146.669 145.829 146.639C145.824 146.61 145.826 146.58 145.833 146.551C145.84 146.522 145.853 146.495 145.871 146.471C145.889 146.447 145.911 146.428 145.937 146.413C145.986 146.383 146.044 146.374 146.1 146.386C146.155 146.398 146.204 146.432 146.235 146.479C146.791 147.27 147.523 147.92 148.374 148.378C149.225 148.836 150.171 149.089 151.137 149.118C151.194 149.118 151.248 149.139 151.289 149.178C151.331 149.217 151.355 149.271 151.358 149.327C151.355 149.382 151.332 149.434 151.294 149.473C151.255 149.512 151.203 149.534 151.148 149.537L151.126 149.592Z" fill="#263238"/>
<path d="M160.632 137.282C160.706 137.326 160.79 137.349 160.875 137.349C160.981 137.315 161.07 137.243 161.125 137.147C161.181 137.051 161.198 136.938 161.173 136.83C161.002 136.178 160.675 135.578 160.222 135.08C159.768 134.582 159.201 134.201 158.568 133.97C158.462 133.939 158.349 133.951 158.252 134.002C158.155 134.054 158.082 134.142 158.049 134.246C158.017 134.353 158.028 134.468 158.08 134.567C158.131 134.666 158.219 134.741 158.325 134.776C158.819 134.974 159.26 135.285 159.613 135.683C159.966 136.082 160.22 136.558 160.356 137.073C160.385 137.125 160.424 137.171 160.472 137.207C160.519 137.243 160.574 137.269 160.632 137.282Z" fill="#263238"/>
<path d="M144.083 123.582V127.512C143.389 127.746 142.808 128.232 142.456 128.874C142.104 129.517 142.007 130.268 142.184 130.979C143.034 134.401 140.572 139.237 137.823 140.915C137.823 140.915 137.912 139.491 136.719 139.678C135.527 139.866 134.92 147.274 136.819 151.061C136.819 151.061 133.683 147.461 132.646 139.491C131.674 132.116 132.182 126.132 133.981 123.549L144.083 123.582Z" fill="#263238"/>
<path d="M130.769 139.899C131.4 142.041 132.852 143.847 134.81 144.922C137.415 146.324 139.369 144.138 139.226 141.345C139.049 138.85 137.503 135.053 134.611 134.832C131.719 134.611 130.018 137.261 130.769 139.899Z" fill="#ECAF9C"/>
<path d="M132.205 130.272C132.205 130.272 129.478 123.725 136.621 118.923C143.763 114.121 160.71 119.718 161.902 123.615C163.094 127.512 150.277 134.589 132.205 130.272Z" fill="#263238"/>
<path d="M136.587 163.436L147.395 169.354L148.875 161.272L156.448 166.196V176.519L148.433 171.738L142.803 180.173L131.686 167.963L136.587 163.436Z" fill="#059CE1"/>
<path d="M161.136 247.312L152.626 247.783C151.92 247.823 151.379 248.427 151.418 249.133L151.737 254.887C151.776 255.593 152.38 256.134 153.087 256.095L161.596 255.624C162.303 255.584 162.843 254.98 162.804 254.274L162.486 248.52C162.447 247.814 161.842 247.273 161.136 247.312Z" fill="white"/>
<path opacity="0.5" d="M136.587 163.436L147.395 169.354L148.875 161.272L156.448 166.196V176.519L148.433 171.738L142.803 180.173L131.686 167.963L136.587 163.436Z" fill="white"/>
<path opacity="0.2" d="M144.082 234.556C140.87 239.392 130.591 239.358 126.727 236.687C126.131 227.468 124.994 217.378 123.725 207.917L144.082 234.556Z" fill="black"/>
<path d="M127.159 197.329C127.159 197.329 129.444 212.211 131.685 215.115C133.926 218.018 180.261 243.355 180.261 243.355L196.28 242.196L203.644 250.641C203.644 250.641 182.304 253.953 179.974 253.313C178.553 252.919 177.173 252.387 175.856 251.723C175.856 251.723 127.28 232.591 123.196 228.219C119.111 223.847 114.463 201.403 114.463 201.403L127.159 197.329Z" fill="#ECAF9C"/>
<path d="M117.731 170.557C126.209 168.791 130.592 203.975 130.592 203.975L113.248 208.391C113.248 208.391 107.298 172.743 117.731 170.557Z" fill="#059CE1"/>
<path opacity="0.5" d="M117.731 170.557C126.209 168.791 130.592 203.975 130.592 203.975L113.248 208.391C113.248 208.391 107.298 172.743 117.731 170.557Z" fill="white"/>
<path d="M112.232 207.552L131.685 202.893V206.238L113.105 211.626L112.232 207.552Z" fill="#059CE1"/>
<path d="M178.849 427.248V275.912C178.85 269.362 176.842 262.969 173.097 257.596L167.809 250.023H261.759L267.047 257.596C270.793 262.969 272.8 269.362 272.799 275.912V425.813" stroke="#263238" stroke-width="6" stroke-linecap="round" stroke-linejoin="round"/>
<path d="M378.507 460.423C383.879 460.423 388.234 456.069 388.234 450.697C388.234 445.325 383.879 440.971 378.507 440.971C373.136 440.971 368.781 445.325 368.781 450.697C368.781 456.069 373.136 460.423 378.507 460.423Z" fill="#263238"/>
<path opacity="0.4" d="M383.376 450.697C383.378 449.733 383.094 448.791 382.561 447.989C382.027 447.187 381.268 446.561 380.378 446.191C379.489 445.821 378.509 445.723 377.564 445.909C376.619 446.096 375.751 446.559 375.069 447.239C374.387 447.92 373.922 448.787 373.733 449.732C373.544 450.677 373.64 451.656 374.008 452.546C374.376 453.437 375 454.198 375.801 454.733C376.602 455.269 377.544 455.554 378.507 455.554C379.146 455.556 379.779 455.431 380.37 455.188C380.96 454.944 381.497 454.587 381.949 454.136C382.402 453.684 382.76 453.148 383.005 452.558C383.25 451.968 383.376 451.336 383.376 450.697Z" fill="white"/>
<path d="M377.336 452.861C376.578 452.86 375.838 452.627 375.216 452.192C374.594 451.758 374.121 451.144 373.859 450.432L368.129 434.733H381.035V449.162C381.035 450.143 380.645 451.084 379.951 451.777C379.258 452.471 378.317 452.861 377.336 452.861Z" fill="#263238"/>
<path opacity="0.2" d="M377.336 452.861C376.578 452.86 375.838 452.627 375.216 452.192C374.594 451.758 374.121 451.144 373.859 450.432L368.129 434.733H381.035V449.162C381.035 450.143 380.645 451.084 379.951 451.777C379.258 452.471 378.317 452.861 377.336 452.861Z" fill="white"/>
<path d="M270.314 460.423C275.686 460.423 280.04 456.069 280.04 450.697C280.04 445.325 275.686 440.971 270.314 440.971C264.942 440.971 260.588 445.325 260.588 450.697C260.588 456.069 264.942 460.423 270.314 460.423Z" fill="#263238"/>
<path opacity="0.4" d="M275.185 450.697C275.187 449.733 274.903 448.791 274.369 447.989C273.836 447.187 273.076 446.561 272.187 446.191C271.297 445.821 270.318 445.723 269.373 445.909C268.428 446.096 267.559 446.559 266.877 447.239C266.195 447.92 265.73 448.787 265.542 449.732C265.353 450.677 265.449 451.656 265.817 452.546C266.185 453.437 266.809 454.198 267.61 454.733C268.411 455.269 269.353 455.554 270.316 455.554C270.955 455.556 271.588 455.431 272.178 455.188C272.769 454.944 273.306 454.587 273.758 454.136C274.21 453.684 274.569 453.148 274.814 452.558C275.059 451.968 275.185 451.336 275.185 450.697Z" fill="white"/>
<path d="M269.145 452.861C268.386 452.86 267.646 452.627 267.025 452.192C266.403 451.758 265.929 451.144 265.667 450.432L259.938 434.733H272.843V449.162C272.843 450.143 272.454 451.084 271.76 451.777C271.066 452.471 270.126 452.861 269.145 452.861Z" fill="#263238"/>
<path opacity="0.2" d="M269.145 452.861C268.386 452.86 267.646 452.627 267.025 452.192C266.403 451.758 265.929 451.144 265.667 450.432L259.938 434.733H272.843V449.162C272.843 450.143 272.454 451.084 271.76 451.777C271.066 452.471 270.126 452.861 269.145 452.861Z" fill="white"/>
<path d="M395.232 423.417V432.602C395.232 433.425 394.906 434.214 394.324 434.796C393.742 435.378 392.953 435.705 392.13 435.705H174.719C173.897 435.705 173.108 435.378 172.526 434.796C171.944 434.214 171.617 433.425 171.617 432.602V423.417H395.232Z" fill="#263238"/>
<path opacity="0.4" d="M395.232 423.417V432.602C395.232 433.425 394.906 434.214 394.324 434.796C393.742 435.378 392.953 435.705 392.13 435.705H174.719C173.897 435.705 173.108 435.378 172.526 434.796C171.944 434.214 171.617 433.425 171.617 432.602V423.417H395.232Z" fill="white"/>
<path opacity="0.2" d="M317.952 423.417V432.602C317.952 433.425 317.626 434.214 317.044 434.796C316.462 435.378 315.673 435.705 314.85 435.705H174.719C173.897 435.705 173.108 435.378 172.526 434.796C171.944 434.214 171.617 433.425 171.617 432.602V423.417H317.952Z" fill="white"/>
<path d="M300.123 460.423C305.494 460.423 309.849 456.069 309.849 450.697C309.849 445.325 305.494 440.971 300.123 440.971C294.751 440.971 290.396 445.325 290.396 450.697C290.396 456.069 294.751 460.423 300.123 460.423Z" fill="#263238"/>
<path opacity="0.6" d="M304.991 450.697C304.993 449.733 304.71 448.791 304.176 447.989C303.642 447.187 302.883 446.561 301.993 446.191C301.104 445.821 300.125 445.723 299.179 445.909C298.234 446.096 297.366 446.559 296.684 447.239C296.002 447.92 295.537 448.787 295.348 449.732C295.16 450.677 295.255 451.656 295.623 452.546C295.992 453.437 296.616 454.198 297.417 454.733C298.217 455.269 299.159 455.554 300.123 455.554C300.761 455.556 301.394 455.431 301.985 455.188C302.575 454.944 303.112 454.587 303.565 454.136C304.017 453.684 304.376 453.148 304.62 452.558C304.865 451.968 304.991 451.336 304.991 450.697Z" fill="white"/>
<path d="M298.953 452.861C298.195 452.86 297.455 452.627 296.833 452.192C296.211 451.758 295.738 451.144 295.476 450.432L289.746 434.733H302.652V449.162C302.652 450.143 302.262 451.084 301.569 451.777C300.875 452.471 299.934 452.861 298.953 452.861Z" fill="#263238"/>
<path opacity="0.4" d="M298.953 452.861C298.195 452.86 297.455 452.627 296.833 452.192C296.211 451.758 295.738 451.144 295.476 450.432L289.746 434.733H302.652V449.162C302.652 450.143 302.262 451.084 301.569 451.777C300.875 452.471 299.934 452.861 298.953 452.861Z" fill="white"/>
<path d="M191.931 460.423C197.303 460.423 201.658 456.069 201.658 450.697C201.658 445.325 197.303 440.971 191.931 440.971C186.56 440.971 182.205 445.325 182.205 450.697C182.205 456.069 186.56 460.423 191.931 460.423Z" fill="#263238"/>
<path opacity="0.6" d="M196.8 450.697C196.802 449.733 196.518 448.791 195.985 447.989C195.451 447.187 194.691 446.561 193.802 446.191C192.913 445.821 191.933 445.723 190.988 445.909C190.043 446.096 189.174 446.559 188.492 447.239C187.81 447.92 187.346 448.787 187.157 449.732C186.968 450.677 187.064 451.656 187.432 452.546C187.8 453.437 188.424 454.198 189.225 454.733C190.026 455.269 190.968 455.554 191.931 455.554C192.57 455.556 193.203 455.431 193.793 455.188C194.384 454.944 194.921 454.587 195.373 454.136C195.825 453.684 196.184 453.148 196.429 452.558C196.674 451.968 196.8 451.336 196.8 450.697Z" fill="white"/>
<path d="M190.76 452.861C190.002 452.86 189.262 452.627 188.64 452.192C188.018 451.758 187.544 451.144 187.282 450.432L181.553 434.733H194.458V449.162C194.458 450.143 194.069 451.084 193.375 451.777C192.682 452.471 191.741 452.861 190.76 452.861Z" fill="#263238"/>
<path opacity="0.4" d="M190.76 452.861C190.002 452.86 189.262 452.627 188.64 452.192C188.018 451.758 187.544 451.144 187.282 450.432L181.553 434.733H194.458V449.162C194.458 450.143 194.069 451.084 193.375 451.777C192.682 452.471 191.741 452.861 190.76 452.861Z" fill="white"/>
<path d="M301.491 352.154H198.543V423.417H301.491V352.154Z" fill="#059CE1"/>
<path opacity="0.4" d="M301.491 352.154H198.543V423.417H301.491V352.154Z" fill="white"/>
<path opacity="0.2" d="M246.313 352.154H198.543V423.417H246.313V352.154Z" fill="white"/>
<path opacity="0.2" d="M241.799 408.347H235.826C235.265 408.347 234.811 408.802 234.811 409.363V417.522C234.811 418.083 235.265 418.537 235.826 418.537H241.799C242.36 418.537 242.815 418.083 242.815 417.522V409.363C242.815 408.802 242.36 408.347 241.799 408.347Z" fill="black"/>
<path opacity="0.2" d="M231.023 408.347H225.051C224.49 408.347 224.035 408.802 224.035 409.363V417.522C224.035 418.083 224.49 418.537 225.051 418.537H231.023C231.584 418.537 232.039 418.083 232.039 417.522V409.363C232.039 408.802 231.584 408.347 231.023 408.347Z" fill="black"/>
<path opacity="0.4" d="M279.357 352.154H273.539V359.584H279.357V352.154Z" fill="black"/>
<path opacity="0.2" d="M295.265 382.58H255.189V391.898H295.265V382.58Z" fill="black"/>
<path opacity="0.2" d="M215.359 355.863H201.658V369.564H215.359V355.863Z" fill="black"/>
<path d="M312.003 280.891H209.055V352.154H312.003V280.891Z" fill="#059CE1"/>
<path opacity="0.4" d="M312.003 280.891H209.055V352.154H312.003V280.891Z" fill="black"/>
<path opacity="0.2" d="M256.825 280.891H209.055V352.154H256.825V280.891Z" fill="white"/>
<path opacity="0.2" d="M252.32 337.084H246.348C245.787 337.084 245.332 337.539 245.332 338.1V346.259C245.332 346.819 245.787 347.274 246.348 347.274H252.32C252.881 347.274 253.336 346.819 253.336 346.259V338.1C253.336 337.539 252.881 337.084 252.32 337.084Z" fill="black"/>
<path opacity="0.2" d="M241.545 337.084H235.572C235.011 337.084 234.557 337.539 234.557 338.1V346.259C234.557 346.819 235.011 347.274 235.572 347.274H241.545C242.106 347.274 242.561 346.819 242.561 346.259V338.1C242.561 337.539 242.106 337.084 241.545 337.084Z" fill="black"/>
<path opacity="0.4" d="M289.867 280.891H284.049V288.321H289.867V280.891Z" fill="black"/>
<path opacity="0.2" d="M305.776 311.317H265.701V320.635H305.776V311.317Z" fill="black"/>
<path opacity="0.2" d="M225.878 284.6H212.178V298.301H225.878V284.6Z" fill="black"/>
<path d="M375.018 280.891H272.07V352.154H375.018V280.891Z" fill="#059CE1"/>
<path opacity="0.4" d="M375.018 280.891H272.07V352.154H375.018V280.891Z" fill="white"/>
<path opacity="0.2" d="M319.84 280.891H272.07V352.154H319.84V280.891Z" fill="white"/>
<path opacity="0.2" d="M315.336 337.084H309.363C308.802 337.084 308.348 337.539 308.348 338.1V346.259C308.348 346.819 308.802 347.274 309.363 347.274H315.336C315.897 347.274 316.352 346.819 316.352 346.259V338.1C316.352 337.539 315.897 337.084 315.336 337.084Z" fill="black"/>
<path opacity="0.2" d="M304.561 337.084H298.588C298.027 337.084 297.572 337.539 297.572 338.1V346.259C297.572 346.819 298.027 347.274 298.588 347.274H304.561C305.122 347.274 305.576 346.819 305.576 346.259V338.1C305.576 337.539 305.122 337.084 304.561 337.084Z" fill="black"/>
<path opacity="0.4" d="M352.883 280.891H347.064V288.321H352.883V280.891Z" fill="black"/>
<path opacity="0.2" d="M368.792 311.317H328.717V320.635H368.792V311.317Z" fill="black"/>
<path opacity="0.2" d="M288.896 284.6H275.195V298.301H288.896V284.6Z" fill="black"/>
<path d="M339.415 209.627H236.467V280.891H339.415V209.627Z" fill="#059CE1"/>
<path opacity="0.2" d="M284.237 209.627H236.467V280.891H284.237V209.627Z" fill="white"/>
<path opacity="0.2" d="M279.721 265.821H273.748C273.187 265.821 272.732 266.276 272.732 266.837V274.995C272.732 275.556 273.187 276.011 273.748 276.011H279.721C280.282 276.011 280.736 275.556 280.736 274.995V266.837C280.736 266.276 280.282 265.821 279.721 265.821Z" fill="black"/>
<path opacity="0.2" d="M268.957 265.821H262.984C262.423 265.821 261.969 266.276 261.969 266.837V274.995C261.969 275.556 262.423 276.011 262.984 276.011H268.957C269.518 276.011 269.973 275.556 269.973 274.995V266.837C269.973 266.276 269.518 265.821 268.957 265.821Z" fill="black"/>
<path opacity="0.4" d="M317.279 209.627H311.461V217.057H317.279V209.627Z" fill="black"/>
<path opacity="0.2" d="M333.188 240.054H293.113V249.371H333.188V240.054Z" fill="black"/>
<path opacity="0.2" d="M253.281 213.337H239.58V227.038H253.281V213.337Z" fill="black"/>
<path d="M367.003 352.154H264.055V423.417H367.003V352.154Z" fill="#263238"/>
<path opacity="0.2" d="M367.003 352.154H264.055V423.417H367.003V352.154Z" fill="white"/>
<path opacity="0.2" d="M311.825 352.154H264.055V423.417H311.825V352.154Z" fill="white"/>
<path opacity="0.2" d="M307.311 408.347H301.338C300.777 408.347 300.322 408.802 300.322 409.363V417.522C300.322 418.083 300.777 418.537 301.338 418.537H307.311C307.871 418.537 308.326 418.083 308.326 417.522V409.363C308.326 408.802 307.871 408.347 307.311 408.347Z" fill="black"/>
<path opacity="0.2" d="M296.535 408.347H290.563C290.002 408.347 289.547 408.802 289.547 409.363V417.522C289.547 418.083 290.002 418.537 290.563 418.537H296.535C297.096 418.537 297.551 418.083 297.551 417.522V409.363C297.551 408.802 297.096 408.347 296.535 408.347Z" fill="black"/>
<path opacity="0.4" d="M344.869 352.154H339.051V359.584H344.869V352.154Z" fill="black"/>
<path opacity="0.2" d="M360.776 382.58H320.701V391.898H360.776V382.58Z" fill="black"/>
<path opacity="0.2" d="M280.869 355.863H267.168V369.564H280.869V355.863Z" fill="black"/>
</svg>
