<svg width="552" height="552" viewBox="0 0 552 552" fill="none" xmlns="http://www.w3.org/2000/svg">
<path d="M552 422.17H0V422.446H552V422.17Z" fill="#EBEBEB"/>
<path d="M466.507 429.688H437.836V429.964H466.507V429.688Z" fill="#EBEBEB"/>
<path d="M348.488 431.675H338.895V431.951H348.488V431.675Z" fill="#EBEBEB"/>
<path d="M496.69 439.933H475.504V440.209H496.69V439.933Z" fill="#EBEBEB"/>
<path d="M75.8541 431.543H57.9141V431.819H75.8541V431.543Z" fill="#EBEBEB"/>
<path d="M122.422 431.543H81.7617V431.819H122.422V431.543Z" fill="#EBEBEB"/>
<path d="M326.056 436.202H222.633V436.478H326.056V436.202Z" fill="#EBEBEB"/>
<path d="M261.648 372.931H48.4764C46.8064 372.928 45.2059 372.263 44.026 371.081C42.8462 369.899 42.1836 368.298 42.1836 366.628V66.9689C42.1981 65.3085 42.8672 63.7209 44.0454 62.5509C45.2237 61.3809 46.8159 60.7231 48.4764 60.7202H261.648C263.32 60.7202 264.923 61.3844 266.105 62.5666C267.287 63.7488 267.952 65.3522 267.952 67.0241V366.628C267.952 368.299 267.287 369.903 266.105 371.085C264.923 372.267 263.32 372.931 261.648 372.931ZM48.4764 60.941C46.8796 60.9439 45.3493 61.5803 44.2212 62.7104C43.0932 63.8405 42.4596 65.3721 42.4596 66.9689V366.628C42.4596 368.224 43.0932 369.756 44.2212 370.886C45.3493 372.016 46.8796 372.652 48.4764 372.655H261.648C263.246 372.652 264.777 372.016 265.907 370.887C267.037 369.757 267.673 368.225 267.676 366.628V66.9689C267.673 65.3711 267.037 63.8396 265.907 62.7098C264.777 61.5799 263.246 60.9439 261.648 60.941H48.4764Z" fill="#EBEBEB"/>
<path d="M500.455 372.931H287.273C285.602 372.928 284 372.263 282.818 371.082C281.637 369.9 280.972 368.299 280.969 366.628V66.9689C280.986 65.3075 281.658 63.7199 282.838 62.5502C284.018 61.3805 285.611 60.723 287.273 60.7202H500.455C502.114 60.726 503.703 61.3851 504.879 62.5548C506.055 63.7244 506.722 65.3104 506.737 66.9689V366.628C506.737 368.296 506.076 369.896 504.898 371.077C503.721 372.259 502.123 372.926 500.455 372.931ZM287.273 60.941C285.675 60.9439 284.143 61.5799 283.013 62.7098C281.884 63.8396 281.248 65.3711 281.245 66.9689V366.628C281.248 368.225 281.884 369.757 283.013 370.887C284.143 372.016 285.675 372.652 287.273 372.655H500.455C502.053 372.652 503.584 372.016 504.714 370.887C505.844 369.757 506.48 368.225 506.483 366.628V66.9689C506.48 65.3711 505.844 63.8396 504.714 62.7098C503.584 61.5799 502.053 60.9439 500.455 60.941H287.273Z" fill="#EBEBEB"/>
<path d="M235.008 340.176H183.363V422.17H235.008V340.176Z" fill="#F0F0F0"/>
<path d="M71.8703 422.17H183.363V340.176H71.8703L71.8703 422.17Z" fill="#F5F5F5"/>
<path d="M71.3298 406.791H126.188V375.945H71.3298V406.791Z" fill="#FAFAFA"/>
<g style="mix-blend-mode:multiply" opacity="0.7">
<path d="M235.007 347.573H71.3281V351.536H235.007V347.573Z" fill="#E6E6E6"/>
</g>
<path d="M237.857 337.78H183.363V349.24H237.857V337.78Z" fill="#F0F0F0"/>
<path d="M69.022 349.24H183.363V337.78H69.022V349.24Z" fill="#F5F5F5"/>
<path d="M81.2858 337.57H117.574V279.953H81.2858V337.57Z" fill="#F5F5F5"/>
<path d="M195.925 279.953H117.574V337.57H195.925V279.953Z" fill="#F0F0F0"/>
<path d="M196.302 305.091H157.75V326.762H196.302V305.091Z" fill="#F5F5F5"/>
<g style="mix-blend-mode:multiply" opacity="0.7">
<path d="M81.275 287.934H196.301V285.152H81.275V287.934Z" fill="#E6E6E6"/>
</g>
<path d="M79.2765 286.323H117.574V278.275H79.2765V286.323Z" fill="#F5F5F5"/>
<path d="M197.923 278.274H117.574V286.323H197.923V278.274Z" fill="#F0F0F0"/>
<path d="M52.2101 247.495L243.566 247.495L243.566 99.1835L52.2101 99.1835L52.2101 247.495Z" fill="#E6E6E6"/>
<path d="M48.2218 247.495L239.578 247.495L239.578 99.1835L48.2218 99.1835L48.2218 247.495Z" fill="#F5F5F5"/>
<path d="M38.9952 256.084H243.566V247.495L38.9952 247.495V256.084Z" fill="#E6E6E6"/>
<path d="M34.5115 256.084H230.262V247.495L34.5115 247.495V256.084Z" fill="#F5F5F5"/>
<path d="M232.438 239.789V106.912L55.389 106.912V239.789H232.438Z" fill="#FAFAFA"/>
<path d="M121.165 239.789L170.745 106.912H120.182L70.6016 239.789H121.165Z" fill="white"/>
<path d="M157.706 239.789L207.287 106.912H179.433L129.863 239.789H157.706Z" fill="white"/>
<path d="M147.891 239.789V106.912H139.92V239.789H147.891Z" fill="#F5F5F5"/>
<path d="M58.4023 239.789L58.4023 106.912H55.3884L55.3884 239.789H58.4023Z" fill="#E6E6E6"/>
<path d="M150.906 239.778V106.9H147.892V239.778H150.906Z" fill="#E6E6E6"/>
<path d="M315.82 422.17H457.496L457.496 74.9506H315.82V422.17Z" fill="#F0F0F0"/>
<path d="M315.821 422.17H450.785L450.785 74.9506H315.821V422.17Z" fill="#F5F5F5"/>
<path d="M443.676 414.287V82.8223L322.931 82.8223V414.287H443.676Z" fill="#F0F0F0"/>
<path d="M348.954 232.149H339.46C336.539 232.149 334.172 234.517 334.172 237.438V237.99C334.172 240.91 336.539 243.278 339.46 243.278H348.954C351.875 243.278 354.243 240.91 354.243 237.99V237.438C354.243 234.517 351.875 232.149 348.954 232.149Z" fill="white"/>
<path d="M324.785 414.287V82.8223H322.941V414.287H324.785Z" fill="#F0F0F0"/>
<path d="M276 472.026C394.219 472.026 490.054 466.431 490.054 459.529C490.054 452.627 394.219 447.032 276 447.032C157.781 447.032 61.9453 452.627 61.9453 459.529C61.9453 466.431 157.781 472.026 276 472.026Z" fill="#F5F5F5"/>
<path d="M185.803 169.541C186.123 170.8 185.803 171.849 185.185 171.893C184.567 171.937 183.705 170.965 183.385 169.685C183.065 168.404 183.33 167.388 184.003 167.333C184.677 167.278 185.472 168.294 185.803 169.541Z" fill="white"/>
<path d="M186.73 178.804C187.365 178.655 187.639 177.509 187.342 176.245C187.045 174.981 186.289 174.077 185.654 174.226C185.019 174.376 184.745 175.521 185.042 176.786C185.339 178.05 186.095 178.954 186.73 178.804Z" fill="white"/>
<path d="M207.243 392.284H98.4883V456.349H207.243V392.284Z" fill="#059CE1"/>
<path opacity="0.7" d="M207.243 392.284H98.4883V456.349H207.243V392.284Z" fill="white"/>
<path opacity="0.3" d="M126.453 392.284H98.4883V456.349H126.453V392.284Z" fill="#059CE1"/>
<path opacity="0.7" d="M178.418 392.284H155.289V404.02H178.418V392.284Z" fill="white"/>
<path opacity="0.7" d="M116.96 392.284H107.984V404.02H116.96V392.284Z" fill="white"/>
<path opacity="0.3" d="M201.148 437.482H188.363V450.266H201.148V437.482Z" fill="#059CE1"/>
<path opacity="0.3" d="M184.601 437.482H171.816V450.266H184.601V437.482Z" fill="#059CE1"/>
<path d="M106.734 392.284H180.613V348.753H106.734V392.284Z" fill="#059CE1"/>
<path opacity="0.7" d="M106.734 392.284H180.613V348.753H106.734V392.284Z" fill="white"/>
<path opacity="0.3" d="M161.614 348.765H106.734V392.295H161.614V348.765Z" fill="#059CE1"/>
<path opacity="0.7" d="M126.321 356.736H142.031V348.765H126.321V356.736Z" fill="white"/>
<path opacity="0.7" d="M168.074 356.736H174.168V348.765H168.074V356.736Z" fill="white"/>
<path opacity="0.3" d="M110.862 388.155H119.551V379.467H110.862V388.155Z" fill="#059CE1"/>
<path opacity="0.3" d="M122.112 388.155H130.801V379.467H122.112V388.155Z" fill="#059CE1"/>
<path d="M234.888 451.547H308.934V407.928H234.888V451.547Z" fill="#059CE1"/>
<path opacity="0.7" d="M234.888 451.547H308.934V407.928H234.888V451.547Z" fill="white"/>
<path opacity="0.3" d="M289.9 407.928H234.898V451.547H289.9V407.928Z" fill="#059CE1"/>
<path opacity="0.7" d="M234.899 435.98H239.039V423.56H234.899V435.98Z" fill="white"/>
<path opacity="0.7" d="M284.656 435.992H295.133V423.572H284.656V435.992Z" fill="white"/>
<path opacity="0.3" d="M298.754 447.01H302.242V438.299H298.754V447.01Z" fill="#059CE1"/>
<path opacity="0.3" d="M303.269 447.01H306.758V438.299H303.269V447.01Z" fill="#059CE1"/>
<path d="M265.785 429.776L248 433.729L254.801 452.938L269.66 449.659L265.785 429.776Z" fill="#FBC698"/>
<path opacity="0.2" d="M265.789 429.787L247.992 433.74L251.801 444.493L267.964 440.916L265.789 429.787Z" fill="black"/>
<path d="M223.802 355.312C216.328 329.644 197.692 302.86 207.971 278.418L259.362 278.274C259.362 278.274 263.502 334.115 264.783 357.851C266.118 382.536 268.812 437.14 268.812 437.14L248.532 441.556C248.532 441.556 228.892 400.752 223.802 355.312Z" fill="#263238"/>
<path opacity="0.2" d="M205.918 303.92C208.424 317.566 215.28 331.52 220.436 345.331C226.64 319.255 225.878 288.597 205.918 303.92Z" fill="black"/>
<path d="M281.992 447.937C281.992 447.937 277.256 450.068 271.46 446.701C271.11 446.547 270.73 446.473 270.348 446.485C269.966 446.496 269.592 446.592 269.252 446.767C266.271 448.003 258.311 451.028 253.166 450.388C253.054 450.37 252.938 450.381 252.83 450.418C252.722 450.456 252.625 450.519 252.547 450.604C252.47 450.688 252.414 450.789 252.386 450.9C252.357 451.011 252.356 451.127 252.383 451.238C253.116 453.954 253.614 456.728 253.873 459.529L258.587 458.524L259.194 456.857L261.678 457.884C269.466 456.687 277.11 454.689 284.487 451.922C285.171 448.909 281.992 447.937 281.992 447.937Z" fill="#059CE1"/>
<path d="M190.471 433.166L173.513 433.331L172.773 453.325L186.938 453.214L190.471 433.166Z" fill="#FBC698"/>
<path opacity="0.2" d="M190.471 433.177L173.502 433.331L173.094 444.537L188.495 444.404L190.471 433.177Z" fill="black"/>
<path d="M172.034 355.312C170.665 329.644 168.799 291.28 177.399 279.456L230.203 278.274C230.203 278.274 215.52 334.512 210.044 358.138C204.348 382.757 190.382 440.938 190.382 440.938H172.056C172.056 440.938 165.134 384.601 172.034 355.312Z" fill="#263238"/>
<path d="M251.91 194.37L252.716 196.291L253.666 198.499C254.328 199.946 254.99 201.414 255.708 202.827C257.093 205.621 258.63 208.337 260.312 210.963C261.129 212.222 261.979 213.447 262.862 214.563C263.688 215.668 264.577 216.726 265.523 217.731C267.143 219.458 269.002 220.945 271.043 222.147L267.19 221.297C269.097 221.591 271.023 221.746 272.952 221.761C275.051 221.79 277.15 221.679 279.234 221.429C281.442 221.198 283.65 220.822 285.858 220.325C286.962 220.094 288.066 219.851 289.236 219.564L290.926 219.155L291.754 218.945C291.983 218.871 292.22 218.823 292.46 218.802L296.468 219.519C297.471 219.69 298.407 220.135 299.173 220.804C299.939 221.474 300.505 222.342 300.809 223.312C301.113 224.283 301.142 225.319 300.894 226.306C300.646 227.292 300.131 228.191 299.404 228.903L298.488 229.809L297.671 230.593C297.119 231.1 296.567 231.597 295.993 232.072C294.889 233.01 293.686 233.916 292.46 234.755C289.995 236.443 287.391 237.92 284.677 239.171C281.857 240.453 278.927 241.476 275.922 242.229C272.77 243.016 269.543 243.46 266.295 243.554C265.347 243.586 264.402 243.432 263.513 243.101L262.409 242.703C259.981 241.785 257.642 240.647 255.421 239.303C253.338 238.014 251.36 236.563 249.504 234.964C247.746 233.449 246.076 231.834 244.502 230.129C242.968 228.451 241.599 226.718 240.274 224.962C238.949 223.207 237.757 221.418 236.642 219.597C235.527 217.775 234.434 215.954 233.496 214.077C232.557 212.2 231.619 210.323 230.802 208.391C230.393 207.42 229.985 206.448 229.609 205.455L229.046 203.92L228.77 203.136L228.461 202.176C227.473 199.148 227.692 195.855 229.074 192.985C230.455 190.115 232.891 187.89 235.874 186.773C238.856 185.656 242.155 185.735 245.082 186.992C248.008 188.249 250.336 190.588 251.579 193.52L251.91 194.37Z" fill="#FBC698"/>
<path d="M291.079 230.559L288.617 223.858C288.694 216.351 298.321 218.128 298.321 218.128L305.508 216.528C306.396 216.409 307.297 216.607 308.053 217.088C308.808 217.568 309.369 218.301 309.637 219.155L311.393 223.825C311.81 224.764 311.845 225.829 311.491 226.793C311.136 227.758 310.42 228.546 309.494 228.992L303.157 231.2C301.956 231.663 300.658 231.818 299.381 231.652L291.079 230.559Z" fill="#FBC698"/>
<path d="M237.114 174.819C247.701 179.235 256.986 198.433 256.986 198.433C256.5 203.07 245.836 216.02 236.43 219.343C236.43 219.343 229.099 216.296 224.484 206.283C218.589 193.322 225.886 170.138 237.114 174.819Z" fill="#059CE1"/>
<path d="M231.155 173.461C215.473 171.97 199.674 172.222 184.047 174.211C181.907 174.527 179.854 175.277 178.014 176.414C176.174 177.551 174.585 179.052 173.345 180.824C172.104 182.597 171.239 184.604 170.801 186.722C170.364 188.841 170.363 191.026 170.799 193.145C178.13 230.03 170.446 271.407 175.215 279.654C175.215 279.654 229.676 280.372 260.124 278.274C268.47 238.232 252.065 213.723 243.818 182.447C242.394 177.104 236.653 174.035 231.155 173.461Z" fill="#059CE1"/>
<path d="M188.706 203.92C187.094 206.779 185.305 209.804 183.594 212.752L178.505 221.584C177.677 223.041 176.86 224.499 176.087 225.934C175.314 227.369 174.53 228.793 173.879 230.173C173.228 231.553 172.565 232.922 172.046 234.081C171.792 234.655 171.572 235.185 171.428 235.561L171.329 235.815V235.914C171.262 236.057 171.329 235.77 171.229 235.627L171.174 234.523C171.25 236.987 171.56 239.438 172.101 241.842C172.676 244.602 173.382 247.506 174.21 250.409C175.038 253.313 175.888 256.305 176.782 259.308C177.677 262.311 178.626 265.369 179.432 268.338L179.509 268.603C179.877 269.969 179.771 271.418 179.21 272.716C178.648 274.014 177.664 275.083 176.417 275.75C175.17 276.417 173.735 276.642 172.344 276.389C170.952 276.135 169.688 275.419 168.756 274.355C166.539 271.777 164.461 269.083 162.53 266.285C161.58 264.894 160.62 263.503 159.715 262.057C158.809 260.61 157.937 259.164 157.076 257.641C155.337 254.579 153.767 251.424 152.373 248.19C150.777 244.542 149.631 240.712 148.962 236.786C148.945 236.566 148.945 236.344 148.962 236.124V235.649C148.947 234.668 148.995 233.687 149.105 232.712C149.105 232.315 149.205 231.862 149.26 231.498L149.447 230.46C149.701 229.08 149.999 227.932 150.298 226.817C150.905 224.609 151.622 222.688 152.329 220.8C153.035 218.912 153.786 217.135 154.537 215.379C155.288 213.624 156.127 211.924 156.933 210.235C158.544 206.846 160.245 203.611 162.088 200.376C163.932 197.141 165.72 194.072 167.84 190.893C169.722 188.531 172.402 186.939 175.376 186.416C178.351 185.893 181.413 186.475 183.988 188.054C186.562 189.632 188.471 192.097 189.354 194.985C190.237 197.873 190.034 200.984 188.783 203.732L188.706 203.92Z" fill="#FBC698"/>
<path d="M178.385 176.342C167.908 181.045 159.164 200.067 159.164 200.067C160.191 206.691 175.018 220.867 182.768 223.538C182.768 223.538 189.237 217.842 192.251 204.572C195.706 189.325 184.048 177.557 178.385 176.342Z" fill="#059CE1"/>
<path d="M223.737 176.187C222.709 174.193 221.036 172.605 218.99 171.683C218.22 169.7 218.162 167.511 218.825 165.49L195.641 158.093C197.517 165.821 198.953 171.827 196.126 175.558C200.686 178.34 209.054 183.286 218.206 183.087C227.359 182.889 225.217 179.4 223.737 176.187Z" fill="#FBC698"/>
<path opacity="0.2" d="M218.589 166.207L201.168 165.181C206.622 170.999 214.88 173.196 218.644 170.822C218.237 169.313 218.218 167.726 218.589 166.207Z" fill="black"/>
<path d="M218.691 183.065L214.927 179.952L209.859 182.491C209.859 182.491 213.072 185.472 218.691 183.065Z" fill="#059CE1"/>
<path opacity="0.3" d="M218.691 183.065L214.927 179.952L209.859 182.491C209.859 182.491 213.072 185.472 218.691 183.065Z" fill="black"/>
<path d="M223.537 138.695C223.835 143.376 220.821 147.384 216.802 147.638C212.784 147.892 209.295 144.326 208.997 139.612C208.699 134.898 211.713 130.923 215.731 130.669C219.75 130.415 223.239 134.015 223.537 138.695Z" fill="#263238"/>
<path d="M226.818 155.421C227.116 160.102 224.102 164.11 220.083 164.364C216.065 164.617 212.576 161.052 212.278 156.337C211.98 151.623 215.005 147.649 219.012 147.395C223.02 147.141 226.52 150.729 226.818 155.421Z" fill="#263238"/>
<path d="M191.774 145.563C193.739 155.742 195.318 162.619 202.251 166.384C216.04 173.88 222.962 167.632 224.331 157.166C225.534 147.738 222.123 132.679 210.796 129.632C199.634 126.629 189.798 135.384 191.774 145.563Z" fill="#FBC698"/>
<path d="M218.678 153.456C230.557 150.994 228.901 162.575 226.042 166.704C223.524 170.38 218.071 173.56 208.598 169.619C198.751 165.534 201.378 158.49 198.232 154.24C197.128 152.694 199.601 146.357 201.213 149.68C204.69 156.878 213.754 151.546 218.678 153.456Z" fill="#263238"/>
<path d="M196.236 154.417C201.756 157.729 202.573 152.131 201.215 149.736C203.423 147.163 205.311 138.42 199.184 137.592C202.132 138.375 211.494 137.525 209.959 131.906C213.514 135.108 224.212 137.018 223.538 131.332C222.567 123.019 209.86 115.876 201.215 123.019C190.794 117.4 178.638 129.036 184.832 134.368C176.883 136.046 178.638 147.859 183.198 149.36C179.676 155.499 193.686 163.525 196.236 154.417Z" fill="#263238"/>
<path opacity="0.2" d="M208.08 145.64C206.799 145.197 205.395 145.276 204.172 145.861C205.476 146.044 206.804 145.969 208.08 145.64Z" fill="black"/>
<path opacity="0.2" d="M208.07 146.578C207.46 146.503 206.841 146.563 206.257 146.754C205.674 146.945 205.139 147.262 204.691 147.682C205.883 147.56 207.035 147.183 208.07 146.578Z" fill="black"/>
<path opacity="0.2" d="M217.62 135.792C214.354 135.523 211.068 135.593 207.816 136.002C213.281 136.09 217.62 135.792 217.62 135.792Z" fill="black"/>
<path opacity="0.2" d="M219.044 136.808C219.044 136.808 211.548 137.028 208.004 138.364C211.713 138.077 215.4 137.558 219.044 136.808Z" fill="black"/>
<path d="M188.784 157.066C189.642 158.15 190.706 159.053 191.915 159.724C193.124 160.395 194.453 160.82 195.827 160.974C199.514 161.361 200.342 158.369 199.139 155.079C198.035 152.12 194.348 148.267 190.881 149.349C187.415 150.431 186.708 154.361 188.784 157.066Z" fill="#FBC698"/>
<path d="M211.293 145.783C211.381 146.677 211.933 147.351 212.529 147.285C213.126 147.218 213.512 146.435 213.424 145.54C213.335 144.646 212.772 143.962 212.176 144.028C211.58 144.094 211.194 144.878 211.293 145.783Z" fill="#263238"/>
<path d="M220.621 145.033C220.709 145.927 221.261 146.611 221.858 146.534C222.454 146.457 222.84 145.684 222.752 144.79C222.663 143.896 222.1 143.211 221.504 143.277C220.908 143.344 220.522 144.127 220.621 145.033Z" fill="#263238"/>
<path d="M217.621 145.96L218.725 153.489C219.621 153.542 220.52 153.448 221.386 153.213C221.558 153.157 221.712 153.055 221.83 152.919C221.949 152.782 222.027 152.615 222.058 152.437C222.089 152.258 222.07 152.075 222.004 151.906C221.938 151.738 221.827 151.59 221.684 151.48C219.421 149.813 217.621 145.96 217.621 145.96Z" fill="#EF9B5D"/>
<path d="M206.447 143.421C206.357 143.416 206.27 143.389 206.193 143.344C206.135 143.305 206.085 143.255 206.046 143.196C206.007 143.138 205.98 143.073 205.967 143.004C205.953 142.935 205.954 142.864 205.968 142.796C205.982 142.727 206.01 142.662 206.049 142.604C206.499 141.886 207.113 141.286 207.841 140.852C208.568 140.418 209.388 140.163 210.233 140.109C210.38 140.109 210.52 140.167 210.624 140.271C210.727 140.374 210.785 140.514 210.785 140.661C210.785 140.807 210.727 140.948 210.624 141.051C210.52 141.155 210.38 141.213 210.233 141.213C209.561 141.263 208.909 141.472 208.334 141.823C207.758 142.174 207.274 142.658 206.921 143.233C206.864 143.301 206.79 143.354 206.708 143.387C206.625 143.419 206.535 143.431 206.447 143.421Z" fill="#263238"/>
<path d="M224.034 142.416C223.948 142.422 223.862 142.407 223.783 142.373C223.705 142.338 223.635 142.285 223.582 142.217C223.177 141.687 222.654 141.26 222.053 140.971C221.453 140.681 220.793 140.537 220.126 140.55C220.057 140.558 219.987 140.552 219.921 140.532C219.854 140.512 219.792 140.479 219.739 140.434C219.685 140.39 219.641 140.336 219.609 140.274C219.577 140.212 219.558 140.145 219.552 140.076C219.542 139.936 219.586 139.798 219.674 139.69C219.762 139.581 219.888 139.51 220.027 139.491C220.874 139.453 221.717 139.62 222.486 139.977C223.255 140.335 223.926 140.872 224.443 141.544C224.529 141.656 224.568 141.797 224.552 141.937C224.535 142.078 224.464 142.206 224.355 142.295C224.262 142.366 224.151 142.408 224.034 142.416Z" fill="#263238"/>
<path d="M197.239 170.59C197.239 170.59 205.177 179.422 214.903 179.93C209.229 182.613 205.133 188.376 205.133 188.376C205.133 188.376 194.789 185.848 192.492 172.92C194.027 171.12 197.239 170.59 197.239 170.59Z" fill="#EBEBEB"/>
<path d="M218.691 183.065L222.964 179.246L228.396 180.857C228.396 180.857 224.289 185.472 218.691 183.065Z" fill="#059CE1"/>
<path opacity="0.3" d="M218.691 183.065L222.964 179.246L228.396 180.857C228.396 180.857 224.289 185.472 218.691 183.065Z" fill="black"/>
<path d="M218.988 171.683C218.988 171.683 222.775 176.099 222.963 179.246C227.467 180.99 231.629 186.709 231.629 186.709C231.629 186.709 230.525 177.656 223.393 172.511C222.041 171.801 220.506 171.512 218.988 171.683Z" fill="#EBEBEB"/>
<path d="M170.379 459.518H174.066L175.06 458.016L176.992 459.529H199.237C199.376 457.778 199.049 456.022 198.288 454.44C198.288 454.44 191.664 453.832 189.081 450.52C188.99 450.391 188.863 450.291 188.716 450.232C188.569 450.173 188.408 450.158 188.253 450.189C186.045 450.653 177.213 452.32 172.399 450.576C172.28 450.525 172.149 450.505 172.02 450.516C171.89 450.527 171.766 450.571 171.657 450.641C171.548 450.712 171.458 450.809 171.395 450.922C171.332 451.036 171.298 451.163 171.295 451.293C171.198 454.054 170.892 456.803 170.379 459.518Z" fill="#059CE1"/>
<path d="M289.336 221.076C291.93 215.556 297.439 215.413 301.679 213.989C302.396 213.746 303.677 215.313 302.86 216.417C302.417 217.138 301.834 217.762 301.146 218.253C300.457 218.744 299.678 219.092 298.852 219.277C298.797 221.187 296.744 226.342 291.334 226.221C290.063 224.807 289.352 222.977 289.336 221.076Z" fill="#FBC698"/>
<path d="M220.456 156.89C220.456 156.89 217.376 156.183 208.688 156.073C209.549 157.916 211.779 159.296 216.228 159.385C219.805 159.55 220.456 156.89 220.456 156.89Z" fill="white"/>
<path d="M177.093 265.965L170.535 268.78C165.136 273.991 173.041 279.765 173.041 279.765L175.724 284.082C176.246 284.81 177.01 285.329 177.879 285.548C178.748 285.766 179.666 285.669 180.471 285.274L185.064 283.342C186.034 283 186.833 282.293 187.291 281.372C187.748 280.45 187.829 279.387 187.514 278.407L185.825 274.322C185.332 273.13 184.551 272.079 183.551 271.264L177.093 265.965Z" fill="#FBC698"/>
<path d="M391.479 165.125C384.756 154.295 387.416 147.914 394.791 146.633L424.279 157.728C434.767 170.391 414.343 169.652 425.67 179.742C436.997 189.833 404.296 202.661 388.222 189.48C372.148 176.298 398.191 175.956 391.479 165.125Z" fill="#263238"/>
<path d="M436.565 450.675L445.827 448.621C444.536 439.789 444.061 429.522 442.979 424.068L432.281 425.559L436.565 450.675Z" fill="#FFC3BD"/>
<path d="M368.527 452.176L377.249 452.099C378.055 443.267 381.168 432.735 381.466 427.17L370.691 426.906L368.527 452.176Z" fill="#FFC3BD"/>
<path d="M430.261 459.518C437.636 457.961 437.084 457.961 441.191 456.934C444.713 456.062 445.662 456.316 448.499 455.654C450.873 455.091 450.299 452.839 449.007 450.366C448.444 449.262 447.682 448.036 446.876 446.402C446.769 446.174 446.587 445.989 446.36 445.878C446.133 445.768 445.875 445.738 445.629 445.795L435.914 447.86C435.721 447.9 435.543 447.99 435.398 448.122C435.252 448.254 435.144 448.423 435.086 448.61C434.463 450.231 433.483 451.691 432.217 452.88C430.952 454.069 429.434 454.957 427.777 455.477C423.935 456.857 427.325 460.147 430.261 459.518Z" fill="#263238"/>
<path d="M357.134 459.518C362.521 459.518 366.087 459.032 370.271 458.889C373.859 458.767 374.345 459.518 377.999 459.518C380.395 459.518 381.068 456.824 380.461 454.793C379.872 453.251 379.37 451.677 378.96 450.079C378.913 449.849 378.787 449.643 378.603 449.498C378.419 449.352 378.189 449.276 377.955 449.284H367.931C367.742 449.29 367.557 449.338 367.389 449.423C367.222 449.509 367.075 449.631 366.959 449.781C365.728 451.448 364.133 452.812 362.294 453.769C360.455 454.726 358.422 455.25 356.35 455.301C352.265 455.621 354.175 459.518 357.134 459.518Z" fill="#263238"/>
<path d="M375.56 257.541C375.56 257.541 371.586 310.853 373.165 344.757C371.476 376.541 369.047 440.695 369.047 440.695C369.224 442.318 377.78 441.677 379.27 440.695C379.27 440.695 397.707 396.314 393.037 344.757C413.295 290.981 411.032 257.541 411.032 257.541H375.56Z" fill="#059CE1"/>
<path opacity="0.2" d="M395.653 278.937C398.81 279.455 407.278 285.472 408.382 289.27C406.16 302.155 403.047 314.871 399.064 327.325C393.964 313.149 393.125 292.692 395.653 278.937Z" fill="black"/>
<path d="M386.203 257.541C386.203 257.541 400.864 317.72 407.897 347.263C415.271 378.297 430.396 419.134 433.498 439.546C435.43 440.187 441.525 438.961 444.693 437.173C444.693 437.173 447.365 378.517 429.535 348.643C433.565 275.128 416.287 257.541 416.287 257.541H386.203Z" fill="#059CE1"/>
<path d="M431.753 435.528C432.017 436.924 432.183 438.337 432.249 439.756C432.251 439.876 432.276 439.994 432.325 440.103C432.373 440.212 432.444 440.31 432.532 440.39C432.62 440.471 432.723 440.533 432.836 440.572C432.949 440.611 433.069 440.626 433.188 440.617C437.427 440.408 443.124 438.189 444.967 437.449C445.135 437.382 445.278 437.264 445.375 437.111C445.472 436.959 445.519 436.779 445.508 436.599L445.299 432.591C445.291 432.46 445.255 432.333 445.192 432.218C445.13 432.102 445.043 432.002 444.938 431.924C444.833 431.846 444.711 431.793 444.583 431.767C444.455 431.741 444.322 431.743 444.195 431.774L432.404 434.523C432.188 434.576 432 434.709 431.879 434.896C431.758 435.083 431.712 435.309 431.753 435.528Z" fill="#263238"/>
<path opacity="0.1" d="M431.753 435.528C432.017 436.924 432.183 438.337 432.249 439.756C432.251 439.876 432.276 439.994 432.325 440.103C432.373 440.212 432.444 440.31 432.532 440.39C432.62 440.471 432.723 440.533 432.836 440.572C432.949 440.611 433.069 440.626 433.188 440.617C437.427 440.408 443.124 438.189 444.967 437.449C445.135 437.382 445.278 437.264 445.375 437.111C445.472 436.959 445.519 436.779 445.508 436.599L445.299 432.591C445.291 432.46 445.255 432.333 445.192 432.218C445.13 432.102 445.043 432.002 444.938 431.924C444.833 431.846 444.711 431.793 444.583 431.767C444.455 431.741 444.322 431.743 444.195 431.774L432.404 434.523C432.188 434.576 432 434.709 431.879 434.896C431.758 435.083 431.712 435.309 431.753 435.528Z" fill="white"/>
<path d="M368.086 436.168C368.008 437.272 367.843 439.248 367.677 440.695C367.652 440.924 367.718 441.154 367.86 441.336C368.002 441.517 368.21 441.636 368.439 441.666C372.212 441.998 376.008 441.975 379.777 441.6C379.96 441.582 380.132 441.507 380.271 441.387C380.41 441.266 380.507 441.105 380.55 440.926L381.488 436.974C381.521 436.847 381.525 436.713 381.5 436.584C381.475 436.455 381.421 436.333 381.343 436.227C381.265 436.121 381.164 436.034 381.048 435.972C380.931 435.911 380.803 435.876 380.671 435.87L369.057 435.406C368.828 435.381 368.598 435.447 368.416 435.589C368.235 435.732 368.116 435.939 368.086 436.168Z" fill="#263238"/>
<path opacity="0.1" d="M368.086 436.168C368.008 437.272 367.843 439.248 367.677 440.695C367.652 440.924 367.718 441.154 367.86 441.336C368.002 441.517 368.21 441.636 368.439 441.666C372.212 441.998 376.008 441.975 379.777 441.6C379.96 441.582 380.132 441.507 380.271 441.387C380.41 441.266 380.507 441.105 380.55 440.926L381.488 436.974C381.521 436.847 381.525 436.713 381.5 436.584C381.475 436.455 381.421 436.333 381.343 436.227C381.265 436.121 381.164 436.034 381.048 435.972C380.931 435.911 380.803 435.876 380.671 435.87L369.057 435.406C368.828 435.381 368.598 435.447 368.416 435.589C368.235 435.732 368.116 435.939 368.086 436.168Z" fill="white"/>
<path d="M387.503 210.036L386.774 211.25L386.09 212.354C385.637 213.061 385.162 213.723 384.699 214.386C383.76 215.721 382.756 216.991 381.74 218.239C379.689 220.732 377.476 223.089 375.116 225.293C374.012 226.397 372.72 227.501 371.506 228.528C370.292 229.555 368.989 230.57 367.653 231.498C365.013 233.42 362.239 235.15 359.351 236.675L358.953 236.885C357.943 237.439 356.785 237.663 355.641 237.525C353.898 237.315 352.19 236.874 350.563 236.212C349.044 235.583 347.6 234.787 346.257 233.838C345.008 232.963 343.847 231.968 342.791 230.868C341.779 229.835 340.846 228.728 339.998 227.556C338.403 225.375 337.034 223.038 335.913 220.579C335.361 219.387 334.875 218.172 334.434 216.958C333.999 215.701 333.631 214.422 333.33 213.127C333.131 212.316 333.221 211.46 333.586 210.708C333.95 209.957 334.566 209.356 335.326 209.009C336.086 208.662 336.943 208.592 337.75 208.809C338.556 209.027 339.261 209.519 339.744 210.201L339.954 210.5C340.506 211.305 341.19 212.288 341.83 213.171C342.471 214.054 343.166 214.938 343.851 215.788C345.171 217.433 346.618 218.972 348.178 220.391C349.518 221.658 351.035 222.722 352.683 223.549C353.926 224.186 355.304 224.519 356.701 224.52L352.948 225.37C355.159 223.893 357.289 222.297 359.329 220.59C361.387 218.86 363.348 217.017 365.202 215.07C367.068 213.127 368.878 211.107 370.556 208.998C371.407 207.894 372.201 206.878 373.007 205.808L374.111 204.196L374.652 203.412L375.105 202.738L375.392 202.308C376.417 200.697 378.039 199.56 379.903 199.146C381.766 198.732 383.718 199.075 385.328 200.1C386.938 201.125 388.076 202.747 388.49 204.611C388.904 206.474 388.561 208.425 387.536 210.036H387.503Z" fill="#FFC3BD"/>
<path d="M385.736 195.595C378.097 195.386 370.689 202.506 366.008 210.555C367.112 215.699 378.671 224.2 378.671 224.2C378.671 224.2 395.794 207.684 385.736 195.595Z" fill="#263238"/>
<path d="M373.253 209.627C373.028 215.836 373.12 222.052 373.529 228.252C373.838 236.333 374.39 244.282 375.56 257.541H416.264C415.436 246.081 416.772 233.01 424.081 207.221C424.512 205.872 424.637 204.443 424.445 203.04C424.253 201.637 423.75 200.295 422.972 199.111C422.194 197.928 421.161 196.933 419.949 196.201C418.736 195.468 417.376 195.016 415.966 194.878C414.354 194.712 412.654 194.58 410.888 194.491C404.735 194.055 398.56 194.055 392.407 194.491C390.398 194.679 388.322 194.933 386.324 195.209C382.812 195.727 379.589 197.447 377.205 200.077C374.821 202.706 373.424 206.082 373.253 209.627Z" fill="#263238"/>
<path d="M409.584 173.681C407.972 179.632 405.996 190.528 409.86 194.492C409.86 194.492 404.23 193.653 392.273 201.049C388.807 196.081 391.379 194.492 391.379 194.492C398.125 192.913 398.323 187.989 397.517 183.374L409.584 173.681Z" fill="#FFC3BD"/>
<path d="M394.801 199.559C398.731 200.111 399.968 206.062 399.968 206.062C399.968 206.062 409.429 199.371 412.421 194.657C411.232 193.981 410.079 193.244 408.965 192.449C408.965 192.449 397.097 197.285 394.801 199.559Z" fill="white"/>
<path d="M391.047 198.919C391.047 198.919 387.646 199.835 386.421 204.626C385.516 195.949 389.567 194.48 389.567 194.48C390.648 193.876 391.914 193.691 393.122 193.962C392.255 194.419 391.574 195.164 391.196 196.068C390.817 196.972 390.764 197.98 391.047 198.919Z" fill="white"/>
<path opacity="0.2" d="M404.67 177.633L397.527 183.363C397.737 184.455 397.848 185.563 397.859 186.675C400.42 186.3 404.107 183.518 404.571 180.868C404.799 179.805 404.833 178.709 404.67 177.633Z" fill="black"/>
<path d="M414.675 161.758C412.864 171.352 412.301 175.448 406.826 180.051C398.59 186.973 387.263 183.308 386.181 173.527C385.209 164.695 388.323 150.497 398.214 147.318C400.317 146.567 402.583 146.392 404.776 146.811C406.969 147.23 409.01 148.227 410.689 149.7C412.367 151.172 413.622 153.066 414.323 155.187C415.024 157.307 415.145 159.575 414.675 161.758Z" fill="#FFC3BD"/>
<path d="M414.916 166.792C409.142 169.077 405.367 159.881 407.078 153.544C397.054 158.214 380.582 151.435 383.088 144.778C386.798 147.571 389.017 146.655 389.017 146.655C389.017 146.655 420.061 126.783 417.654 144.348C434.976 151.248 425.239 163.469 414.916 166.792Z" fill="#263238"/>
<path d="M392.859 138.784C391.225 139.888 392.329 144.182 400.819 140.307L403.987 139.512C397.021 145.573 390.673 149.57 387.317 147.075C383.961 144.58 386.71 137.669 392.859 138.784Z" fill="#263238"/>
<path d="M399.461 163.392C399.339 164.209 398.831 164.838 398.357 164.794C397.882 164.75 397.507 164.065 397.617 163.259C397.727 162.453 398.257 161.813 398.776 161.857C399.295 161.901 399.582 162.542 399.461 163.392Z" fill="#263238"/>
<path d="M389.71 162.774C389.589 163.591 389.07 164.209 388.551 164.176C388.032 164.143 387.712 163.447 387.823 162.63C387.933 161.813 388.452 161.195 388.982 161.239C389.512 161.283 389.766 161.957 389.71 162.774Z" fill="#263238"/>
<path d="M389.149 161.294L387.316 160.588C387.316 160.588 388.078 162.189 389.149 161.294Z" fill="#263238"/>
<path d="M392.197 163.911C391.22 165.724 390.014 167.405 388.609 168.912C388.982 169.239 389.424 169.477 389.902 169.608C390.381 169.738 390.883 169.756 391.369 169.662L392.197 163.911Z" fill="#ED847E"/>
<path d="M395.518 173.328C395.067 173.367 394.612 173.367 394.16 173.328C394.13 173.327 394.1 173.319 394.072 173.305C394.045 173.291 394.021 173.272 394.002 173.247C393.983 173.223 393.969 173.195 393.962 173.165C393.955 173.135 393.955 173.104 393.962 173.074C393.97 173.01 394.002 172.952 394.051 172.911C394.1 172.871 394.163 172.85 394.227 172.853C395.248 172.93 396.274 172.778 397.229 172.408C398.185 172.037 399.045 171.457 399.747 170.711C399.792 170.669 399.851 170.646 399.912 170.646C399.974 170.646 400.033 170.669 400.078 170.711C400.12 170.756 400.143 170.815 400.143 170.877C400.143 170.938 400.12 170.997 400.078 171.042C398.893 172.342 397.269 173.156 395.518 173.328Z" fill="#263238"/>
<path d="M416.627 168.912C416.216 169.751 415.631 170.494 414.912 171.092C414.192 171.689 413.355 172.128 412.454 172.378C410.246 172.919 409.308 170.336 410.114 167.797C410.842 165.511 412.885 162.475 415.048 163.083C417.212 163.69 417.808 166.704 416.627 168.912Z" fill="#FFC3BD"/>
<path d="M402.287 157.717C402.217 157.722 402.147 157.712 402.081 157.69C402.014 157.667 401.953 157.631 401.901 157.585C401.422 157.135 400.851 156.796 400.227 156.59C399.604 156.384 398.943 156.317 398.291 156.392C398.225 156.409 398.158 156.412 398.091 156.402C398.024 156.392 397.961 156.369 397.903 156.334C397.846 156.299 397.796 156.253 397.756 156.199C397.716 156.144 397.688 156.082 397.672 156.017C397.666 155.879 397.713 155.744 397.803 155.639C397.894 155.534 398.021 155.468 398.158 155.454C398.984 155.346 399.823 155.42 400.617 155.672C401.41 155.924 402.139 156.347 402.751 156.911C402.795 156.958 402.829 157.014 402.85 157.075C402.87 157.137 402.877 157.202 402.87 157.266C402.862 157.33 402.841 157.392 402.807 157.447C402.773 157.502 402.728 157.549 402.674 157.585C402.564 157.672 402.427 157.719 402.287 157.717Z" fill="#263238"/>
<path d="M412.63 278.948C421.54 273.924 430.041 265.898 438.31 256.161C428.859 242.836 419.288 231.012 409.374 223.538C400.718 232.602 392.14 240.429 383.684 246.313C393.244 254.328 402.959 266.207 412.63 278.948Z" fill="white"/>
<path d="M387.296 157.717C387.239 157.729 387.179 157.728 387.122 157.715C387.065 157.701 387.011 157.676 386.965 157.64C386.869 157.558 386.808 157.442 386.795 157.317C386.783 157.191 386.82 157.065 386.899 156.966C387.351 156.341 387.94 155.828 388.621 155.466C389.303 155.105 390.058 154.904 390.829 154.88C390.891 154.882 390.952 154.898 391.008 154.925C391.064 154.953 391.113 154.992 391.152 155.04C391.192 155.088 391.221 155.144 391.238 155.204C391.254 155.263 391.258 155.326 391.249 155.388C391.232 155.514 391.171 155.629 391.075 155.713C390.979 155.796 390.857 155.841 390.73 155.84C390.118 155.866 389.52 156.032 388.982 156.325C388.445 156.618 387.981 157.03 387.627 157.529C387.59 157.583 387.54 157.628 387.483 157.661C387.426 157.693 387.362 157.713 387.296 157.717Z" fill="#263238"/>
<path d="M417.672 279.073L440.863 258.286C441.644 257.586 441.71 256.386 441.01 255.605L413.326 224.718C412.626 223.937 411.426 223.872 410.645 224.572L387.453 245.358C386.672 246.058 386.607 247.259 387.307 248.04L414.99 278.926C415.69 279.707 416.891 279.773 417.672 279.073Z" fill="#059CE1"/>
<path opacity="0.4" d="M417.672 279.073L440.863 258.286C441.644 257.586 441.71 256.386 441.01 255.605L413.326 224.718C412.626 223.937 411.426 223.872 410.645 224.572L387.453 245.358C386.672 246.058 386.607 247.259 387.307 248.04L414.99 278.926C415.69 279.707 416.891 279.773 417.672 279.073Z" fill="white"/>
<path d="M398.954 161.868L397.121 161.173C397.121 161.173 397.883 162.763 398.954 161.868Z" fill="#263238"/>
<path d="M400.367 264.783L401.228 261.868C401.385 261.333 401.668 260.843 402.051 260.438C402.435 260.033 402.91 259.725 403.436 259.539L408.482 257.806C409.477 257.466 410.538 257.368 411.579 257.519C412.619 257.671 413.609 258.068 414.465 258.678L415.569 259.451C414.465 264.375 409.641 268.89 409.641 268.89L408.415 270.325C408.17 270.627 407.868 270.878 407.526 271.062C407.184 271.247 406.808 271.362 406.422 271.401C406.035 271.44 405.644 271.402 405.272 271.29C404.9 271.177 404.554 270.992 404.253 270.745L401.372 268.338C400.878 267.906 400.521 267.34 400.343 266.709C400.164 266.078 400.173 265.409 400.367 264.783Z" fill="#FFC3BD"/>
<path d="M331.577 202.694L334.568 203.158C335.125 203.245 335.653 203.463 336.108 203.795C336.564 204.128 336.933 204.564 337.185 205.068L339.57 209.848C340.042 210.787 340.281 211.826 340.267 212.877C340.254 213.928 339.988 214.96 339.492 215.887L338.874 217.057C333.851 216.616 328.739 212.431 328.739 212.431L327.15 211.405C326.818 211.201 326.53 210.934 326.302 210.62C326.073 210.305 325.909 209.948 325.819 209.569C325.729 209.191 325.714 208.799 325.776 208.414C325.837 208.03 325.974 207.662 326.178 207.331L328.176 204.163C328.541 203.616 329.057 203.187 329.66 202.927C330.263 202.666 330.929 202.586 331.577 202.694Z" fill="#FFC3BD"/>
<path d="M323.285 220.171C323.242 220.17 323.201 220.159 323.162 220.14C323.124 220.121 323.091 220.094 323.064 220.06C322.587 219.326 322.395 218.443 322.523 217.576C322.623 217.142 322.81 216.733 323.071 216.372C323.333 216.012 323.665 215.708 324.047 215.479C324.075 215.46 324.107 215.448 324.14 215.442C324.173 215.436 324.207 215.436 324.24 215.443C324.273 215.451 324.304 215.464 324.331 215.484C324.359 215.503 324.382 215.527 324.4 215.556C324.419 215.583 324.432 215.614 324.439 215.647C324.446 215.68 324.447 215.713 324.44 215.746C324.434 215.779 324.422 215.81 324.403 215.838C324.385 215.866 324.362 215.89 324.334 215.909C324.01 216.099 323.728 216.353 323.504 216.654C323.28 216.956 323.119 217.299 323.031 217.665C322.929 218.397 323.094 219.141 323.495 219.762C323.52 219.801 323.535 219.846 323.537 219.893C323.539 219.939 323.529 219.986 323.508 220.027C323.487 220.068 323.455 220.104 323.416 220.129C323.377 220.154 323.332 220.168 323.285 220.171Z" fill="#E0E0E0"/>
<path d="M328.993 206.448L333.033 210.864C333.159 210.99 333.229 211.161 333.229 211.338C333.229 211.516 333.159 211.687 333.033 211.813L327.602 216.77C327.521 216.843 327.423 216.895 327.317 216.922C327.211 216.949 327.101 216.95 326.995 216.925L323.473 216.075C323.343 216.042 323.226 215.971 323.137 215.87C323.048 215.77 322.992 215.645 322.976 215.512L322.369 211.968C322.355 211.859 322.367 211.748 322.403 211.645C322.44 211.541 322.5 211.448 322.579 211.372L328.01 206.426C328.075 206.36 328.152 206.308 328.237 206.273C328.323 206.239 328.414 206.222 328.506 206.224C328.598 206.226 328.689 206.247 328.773 206.285C328.856 206.324 328.931 206.379 328.993 206.448ZM323.683 215.368C323.759 215.451 323.852 215.519 323.955 215.566C324.058 215.614 324.169 215.641 324.282 215.646C324.396 215.65 324.509 215.632 324.615 215.593C324.721 215.554 324.819 215.495 324.903 215.418C324.986 215.341 325.053 215.248 325.101 215.146C325.148 215.043 325.175 214.931 325.18 214.818C325.185 214.705 325.167 214.592 325.128 214.485C325.089 214.379 325.029 214.281 324.952 214.198C324.873 214.117 324.779 214.053 324.674 214.009C324.57 213.965 324.458 213.943 324.345 213.943C324.232 213.943 324.12 213.965 324.016 214.009C323.911 214.053 323.817 214.117 323.738 214.198C323.651 214.27 323.579 214.359 323.526 214.459C323.473 214.56 323.441 214.669 323.431 214.782C323.42 214.895 323.432 215.009 323.466 215.117C323.5 215.225 323.555 215.325 323.627 215.412L323.683 215.368Z" fill="#263238"/>
<path d="M323.384 219.431C323.956 219.55 324.468 219.867 324.829 220.326C325.191 220.785 325.379 221.357 325.36 221.941C325.342 222.525 325.118 223.084 324.728 223.519C324.339 223.955 323.808 224.239 323.229 224.321L321.982 230.117L321.419 230.482L320.988 229.808V228.616L321.297 227.689L321.176 227.081L321.353 226.253V225.47V224.951L321.485 223.957C321.053 223.688 320.716 223.293 320.518 222.824C320.32 222.356 320.272 221.837 320.381 221.341C320.45 221.017 320.583 220.71 320.772 220.438C320.961 220.166 321.203 219.934 321.482 219.756C321.762 219.578 322.074 219.458 322.4 219.402C322.727 219.346 323.061 219.356 323.384 219.431ZM322.92 221.639C323.135 221.668 323.353 221.616 323.531 221.492C323.709 221.367 323.833 221.18 323.879 220.968C323.926 220.756 323.89 220.535 323.78 220.348C323.669 220.161 323.492 220.023 323.285 219.961C323.061 219.915 322.828 219.958 322.636 220.082C322.444 220.206 322.308 220.4 322.258 220.623C322.228 220.837 322.279 221.055 322.402 221.233C322.524 221.411 322.71 221.536 322.92 221.584V221.639Z" fill="#059CE1"/>
<path d="M323.283 220.171C323.238 220.171 323.193 220.159 323.154 220.136C323.115 220.113 323.083 220.079 323.062 220.038C323.043 220.01 323.03 219.977 323.023 219.944C323.017 219.91 323.018 219.875 323.027 219.842C323.035 219.808 323.051 219.777 323.072 219.75C323.093 219.723 323.12 219.701 323.151 219.685C323.764 219.281 324.217 218.676 324.431 217.974C324.501 217.604 324.496 217.224 324.416 216.856C324.337 216.488 324.184 216.14 323.968 215.832C323.95 215.803 323.938 215.771 323.933 215.737C323.927 215.704 323.929 215.669 323.937 215.637C323.945 215.604 323.96 215.573 323.981 215.545C324.001 215.518 324.027 215.496 324.056 215.479C324.114 215.444 324.182 215.433 324.248 215.448C324.313 215.462 324.371 215.501 324.409 215.556C324.662 215.922 324.838 216.336 324.927 216.773C325.016 217.209 325.017 217.659 324.928 218.095C324.693 218.936 324.154 219.66 323.416 220.126C323.378 220.156 323.331 220.171 323.283 220.171Z" fill="#E0E0E0"/>
<path d="M428 205.344C428.364 206.139 428.607 206.702 428.883 207.364C429.159 208.026 429.391 208.634 429.634 209.263C430.12 210.532 430.539 211.813 430.948 213.083C431.751 215.652 432.421 218.261 432.957 220.899C433.51 223.563 433.901 226.258 434.127 228.969C434.369 231.722 434.428 234.488 434.304 237.249V237.724C434.289 238.026 434.245 238.325 434.171 238.618C433.736 240.264 433.086 241.845 432.239 243.321C431.541 244.537 430.774 245.713 429.943 246.843C428.414 248.908 426.751 250.87 424.964 252.716C423.22 254.505 421.431 256.194 419.588 257.806C417.744 259.418 415.867 260.93 413.814 262.387C413.12 262.87 412.279 263.095 411.437 263.022C410.595 262.95 409.804 262.586 409.202 261.992C408.601 261.398 408.226 260.613 408.143 259.771C408.059 258.93 408.273 258.086 408.746 257.386V257.309L412.666 251.634C413.957 249.735 415.238 247.859 416.43 245.971C417.623 244.083 418.76 242.195 419.742 240.396C420.192 239.551 420.594 238.681 420.946 237.79C421.2 237.179 421.371 236.537 421.453 235.88L421.31 237.249C421.122 235.041 420.89 232.888 420.493 230.68C420.096 228.472 419.632 226.264 419.058 224.056C418.484 221.848 417.843 219.64 417.126 217.499C416.772 216.395 416.386 215.291 416.022 214.275L415.437 212.696L414.896 211.272L414.752 210.897C414.135 209.164 414.205 207.262 414.947 205.579C415.689 203.896 417.046 202.562 418.741 201.848C420.436 201.135 422.34 201.097 424.062 201.743C425.783 202.389 427.193 203.67 428 205.322V205.344Z" fill="#FFC3BD"/>
<path d="M416.341 194.933C422.965 195.949 425.625 197.969 431.035 211.283C428.584 216.251 417.08 220.999 417.08 220.999C417.08 220.999 407.895 206.647 416.341 194.933Z" fill="#263238"/>
</svg>
