<svg width="552" height="552" viewBox="0 0 552 552" fill="none" xmlns="http://www.w3.org/2000/svg">
<path d="M106.8 191.875C106.8 191.875 77.0695 259.959 112.574 328.771C148.079 397.584 225.215 434.038 286.907 465.248C348.598 496.458 414.419 481.543 447.362 430.847C480.306 380.151 439.159 343.753 441.842 271.319C444.525 198.886 456.47 179.742 418.504 118.415C380.537 57.0879 282.171 43.2438 205.663 88.4084C129.156 133.573 106.8 191.875 106.8 191.875Z" fill="#059CE1"/>
<path opacity="0.7" d="M106.8 191.875C106.8 191.875 77.0695 259.959 112.574 328.771C148.079 397.584 225.215 434.038 286.907 465.248C348.598 496.458 414.419 481.543 447.362 430.847C480.306 380.151 439.159 343.753 441.842 271.319C444.525 198.886 456.47 179.742 418.504 118.415C380.537 57.0879 282.171 43.2438 205.663 88.4084C129.156 133.573 106.8 191.875 106.8 191.875Z" fill="white"/>
<path d="M136.111 484.225H310.951L310.951 120.281H136.111L136.111 484.225Z" stroke="#263238" stroke-width="1.05093" stroke-miterlimit="10"/>
<path d="M149.371 108.082C197.51 100.254 246.589 100.131 294.767 107.717L317.344 111.272V484.358H306.834V122.544H137.999V484.358H126.33V111.272L149.371 108.082Z" stroke="#263238" stroke-width="1.05093" stroke-miterlimit="10"/>
<path d="M157.497 469.211H289.568L289.568 137.536H157.497L157.497 469.211Z" stroke="#263238" stroke-width="1.05093" stroke-miterlimit="10"/>
<path d="M172.123 445.949H274.928V342.394H172.123V445.949Z" stroke="#263238" stroke-width="1.05093" stroke-miterlimit="10"/>
<path d="M274.938 162.299H235.912V326.64H274.938V162.299Z" stroke="#263238" stroke-width="1.05093" stroke-linecap="round" stroke-linejoin="round"/>
<path d="M211.161 162.299H172.135V326.64H211.161V162.299Z" stroke="#263238" stroke-width="1.05093" stroke-linecap="round" stroke-linejoin="round"/>
<path d="M184.787 433.187H262.266V355.145H184.787V433.187Z" stroke="#263238" stroke-width="1.05093" stroke-miterlimit="10"/>
<path d="M154.846 263.602C154.26 263.602 153.698 263.835 153.284 264.249C152.87 264.663 152.638 265.224 152.638 265.81V280.416H139.246V285.483H152.593V351.723H139.246V356.802H152.593V372.423C152.593 373.021 152.831 373.593 153.253 374.016C153.675 374.438 154.248 374.675 154.846 374.675C155.443 374.675 156.016 374.438 156.438 374.016C156.861 373.593 157.098 373.021 157.098 372.423V265.854C157.104 265.557 157.05 265.261 156.939 264.985C156.828 264.709 156.662 264.459 156.452 264.248C156.241 264.038 155.991 263.872 155.715 263.761C155.439 263.65 155.143 263.596 154.846 263.602Z" stroke="#263238" stroke-width="1.05093" stroke-linecap="round" stroke-linejoin="round"/>
<path d="M147.316 315.247H140.008V329.191H147.316V315.247Z" stroke="#263238" stroke-width="1.05093" stroke-linecap="round" stroke-linejoin="round"/>
<path d="M402.396 484.137V64.7163" stroke="#263238" stroke-width="1.05093" stroke-linecap="round" stroke-linejoin="round"/>
<path d="M332.625 298.577L328.562 329.511L330.108 397.573L329.722 462.168H343.82L351.769 395.641L356.405 336.853H359.497L367.236 398.345L376.134 461.384H390.055L388.123 394.095L385.021 317.908L380.384 297.407L332.625 298.577Z" fill="#263238" stroke="#263238" stroke-width="1.05093" stroke-linecap="round" stroke-linejoin="round"/>
<path d="M390.055 461.384L391.998 467.864C392.403 469.197 393.066 470.437 393.951 471.513C394.836 472.589 395.924 473.48 397.154 474.135C400.466 475.868 404.694 478.242 405.003 479.015C405.511 480.284 405.003 484.358 405.003 484.358H374.953C374.953 484.358 374.18 484.06 374.18 478.959C374.18 476.652 375.836 471.231 375.836 471.231L376.134 461.439L390.055 461.384Z" fill="white" stroke="#263238" stroke-width="1.05093" stroke-linecap="round" stroke-linejoin="round"/>
<path d="M374.951 484.358H405.002C405.164 483.025 405.234 481.682 405.212 480.339H374.256C374.333 484.104 374.951 484.358 374.951 484.358Z" fill="white" stroke="#263238" stroke-width="1.05093" stroke-linecap="round" stroke-linejoin="round"/>
<path d="M329.898 461.384L327.955 467.864C327.551 469.197 326.887 470.437 326.003 471.513C325.118 472.589 324.029 473.48 322.8 474.135C319.488 475.868 315.259 478.242 314.95 479.015C314.442 480.284 314.95 484.358 314.95 484.358H345.001C345.001 484.358 345.763 484.06 345.763 478.959C345.763 476.652 344.118 471.231 344.118 471.231L343.82 461.439L329.898 461.384Z" fill="white" stroke="#263238" stroke-width="1.05093" stroke-linecap="round" stroke-linejoin="round"/>
<path d="M345.001 484.358H314.95C314.789 483.025 314.718 481.682 314.74 480.339H345.741C345.619 484.104 345.001 484.358 345.001 484.358Z" fill="white" stroke="#263238" stroke-width="1.05093" stroke-linecap="round" stroke-linejoin="round"/>
<path d="M327.944 226.773C327.944 226.773 320.779 228.981 319.553 231.95C318.328 234.92 309.926 283.728 310.225 287.228C310.523 290.727 316.396 294.625 320.094 292.163C323.793 289.701 330.218 262.355 330.218 262.355" fill="white"/>
<path d="M327.944 226.773C327.944 226.773 320.779 228.981 319.553 231.95C318.328 234.92 309.926 283.728 310.225 287.228C310.523 290.727 316.396 294.625 320.094 292.163C323.793 289.701 330.218 262.355 330.218 262.355" stroke="#263238" stroke-width="1.05093" stroke-linecap="round" stroke-linejoin="round"/>
<path d="M313.04 266.969C311.373 277.104 310.07 285.837 310.169 287.228C310.423 290.683 316.341 294.625 320.039 292.163C322.159 290.75 325.173 281.178 327.348 273.24L313.04 266.969Z" fill="white" stroke="#263238" stroke-width="1.05093" stroke-linecap="round" stroke-linejoin="round"/>
<path d="M310.832 281.851C310.832 281.851 310.092 288.31 309.596 293.532C309.099 298.754 315.557 331.068 315.557 331.068L322.755 331.564C322.755 331.564 323.473 305.941 323.473 300.288C323.473 294.636 323.97 283.154 323.97 283.154" fill="white"/>
<path d="M310.832 281.851C310.832 281.851 310.092 288.31 309.596 293.532C309.099 298.754 315.557 331.068 315.557 331.068L322.755 331.564C322.755 331.564 323.473 305.941 323.473 300.288C323.473 294.636 323.97 283.154 323.97 283.154" stroke="#263238" stroke-width="1.05093" stroke-linecap="round" stroke-linejoin="round"/>
<path d="M324.488 328.297C324.488 328.297 317.29 327.546 315.556 328.297C314.695 328.639 313.864 329.052 313.072 329.533L314.806 332.768C314.664 333.423 314.664 334.1 314.806 334.755C315.05 335.527 315.384 336.268 315.799 336.963C315.247 339.515 314.834 342.095 314.563 344.691C314.563 346.435 313.812 349.162 314.806 350.41C315.799 351.657 321.01 353.137 321.01 353.137C321.319 353.202 321.64 353.191 321.944 353.104C322.248 353.018 322.526 352.858 322.754 352.64C323.494 351.9 325.481 352.397 327.17 350.156C328.859 347.915 329.378 347.429 329.378 345.939C329.378 344.448 325.901 336.996 325.901 336.996C325.901 336.996 327.645 335.263 326.398 334.015C325.15 332.768 323.671 333.022 323.671 332.282C323.809 331.426 324.058 330.591 324.41 329.798L324.488 328.297Z" fill="#059CE1" stroke="#263238" stroke-width="1.05093" stroke-linecap="round" stroke-linejoin="round"/>
<path d="M327.724 345.927L323.992 347.661" stroke="#263238" stroke-width="1.05093" stroke-linecap="round" stroke-linejoin="round"/>
<path d="M326.475 347.164C326.475 347.164 326.972 349.648 326.232 350.642L326.475 347.164Z" fill="white"/>
<path d="M326.475 347.164C326.475 347.164 326.972 349.648 326.232 350.642" stroke="#263238" stroke-width="1.05093" stroke-linecap="round" stroke-linejoin="round"/>
<path d="M326.664 257.729C328.994 275.393 331.82 299.162 333.123 300.299C335.099 302.032 377.283 302.032 379.016 300.796C380.002 300.041 380.803 299.07 381.358 297.959C381.913 296.847 382.207 295.624 382.218 294.382C382.218 291.666 393.081 241.577 393.821 237.879C394.56 234.181 395.786 231.708 393.081 229.246C390.376 226.784 377.57 218.382 369.842 216.163C362.114 213.944 349.362 218.139 349.362 218.139C349.362 218.139 336.28 223.074 330.12 225.536C328.347 226.204 326.745 227.256 325.428 228.616" fill="white"/>
<path d="M326.664 257.729C328.994 275.393 331.82 299.162 333.123 300.299C335.099 302.032 377.283 302.032 379.016 300.796C380.002 300.041 380.803 299.07 381.358 297.959C381.913 296.847 382.207 295.624 382.218 294.382C382.218 291.666 393.081 241.577 393.821 237.879C394.56 234.181 395.786 231.708 393.081 229.246C390.376 226.784 377.57 218.382 369.842 216.163C362.114 213.944 349.362 218.139 349.362 218.139C349.362 218.139 336.28 223.074 330.12 225.536C328.347 226.204 326.745 227.256 325.428 228.616" stroke="#263238" stroke-width="1.05093" stroke-linecap="round" stroke-linejoin="round"/>
<path d="M363.957 260.081H351.129V280.317H363.957V260.081Z" fill="#059CE1" stroke="#263238" stroke-width="1.05093" stroke-linecap="round" stroke-linejoin="round"/>
<path d="M348.666 229.246L357.498 260.334L368.847 227.27C368.847 227.27 364.906 221.098 360.015 220.646C355.124 220.193 350.388 224.797 348.666 229.246Z" fill="white" stroke="#263238" stroke-width="1.05093" stroke-linecap="round" stroke-linejoin="round"/>
<path d="M355.079 212.222C355.079 212.222 347.925 213.448 346.932 216.417C345.938 219.387 345.706 231.211 345.452 234.181C345.199 237.15 342.494 238.862 343.73 238.862C344.967 238.862 345.938 237.139 348.908 235.406C351.571 233.926 354.509 233.005 357.541 232.701C359.021 232.701 364.452 233.187 367.168 235.406C369.884 237.625 371.121 239.116 372.6 238.122C374.079 237.128 371.363 235.914 371.606 233.441C371.849 230.968 374.079 222.578 373.086 217.157C372.092 211.736 363.216 210.986 361.008 210.986C358.989 211.156 356.998 211.571 355.079 212.222Z" fill="white" stroke="#263238" stroke-width="1.05093" stroke-linecap="round" stroke-linejoin="round"/>
<path d="M351.129 209.992C351.129 209.992 351.129 220.116 352.608 224.554C354.088 228.992 356.803 238.122 358.78 237.382C360.756 236.643 367.413 223.814 368.153 221.352C368.892 218.89 369.146 207 369.146 207C369.146 207 359.276 212.222 351.129 209.992Z" fill="white" stroke="#263238" stroke-width="1.05093" stroke-linecap="round" stroke-linejoin="round"/>
<path d="M375.062 188.53C375.062 188.53 376.298 194.702 374.565 197.163C372.832 199.625 371.121 198.897 371.121 198.897C371.121 198.897 370.381 207.287 367.665 209.992C364.949 212.697 357.795 216.903 353.843 214.927C349.891 212.951 346.932 205.808 346.192 201.359C345.453 196.91 344.713 189.27 344.713 189.27C344.713 189.27 347.672 185.571 354.583 185.075C358.75 184.703 362.901 185.939 366.186 188.53C367.411 189.27 371.121 187.051 372.81 187.051C373.292 187.032 373.769 187.164 374.173 187.43C374.577 187.695 374.887 188.08 375.062 188.53Z" fill="white" stroke="#263238" stroke-width="1.05093" stroke-linecap="round" stroke-linejoin="round"/>
<path d="M365.932 205.808C364.695 204.814 365.192 199.383 365.932 197.417C366.672 195.452 369.884 194.702 369.884 194.702C369.884 194.702 360.511 193.465 355.322 192.968C351.901 192.776 348.479 193.322 345.287 194.569C345.541 196.843 345.872 199.405 346.192 201.359C346.932 205.775 349.902 212.962 353.843 214.927C357.299 216.66 363.227 213.657 366.462 211.063C367.39 210.051 368.204 208.94 368.891 207.751C370.127 205.543 370.867 199.857 370.867 199.857C370.867 199.857 367.168 206.79 365.932 205.808Z" fill="#059CE1" stroke="#263238" stroke-width="1.05093" stroke-linecap="round" stroke-linejoin="round"/>
<path d="M351.261 191.368C351.261 192.173 350.764 192.836 350.157 192.836C349.819 192.781 349.515 192.598 349.309 192.324C349.103 192.05 349.011 191.708 349.053 191.368C349.053 190.551 349.55 189.888 350.157 189.888C350.764 189.888 351.261 190.551 351.261 191.368Z" fill="#263238"/>
<path d="M360.534 191.511C360.534 192.328 360.048 192.979 359.43 192.979C358.812 192.979 358.326 192.328 358.326 191.511C358.326 190.694 358.823 190.042 359.43 190.042C360.037 190.042 360.534 190.694 360.534 191.511Z" fill="#263238"/>
<path d="M367.412 189.27C367.412 189.27 369.145 195.894 369.885 194.701C370.625 193.509 371.364 188.773 371.364 188.773L367.412 189.27Z" fill="#263238" stroke="#263238" stroke-width="1.05093" stroke-linecap="round" stroke-linejoin="round"/>
<path d="M345.21 186.311C345.21 186.311 344.471 177.181 344.471 173.726C344.471 170.27 350.885 165.092 358.823 165.092C366.76 165.092 374.279 170.149 374.864 171.01C376.498 173.681 375.107 188.53 375.107 188.53L369.675 190.506C369.675 190.506 363.261 184.832 359.32 184.335C355.378 183.838 345.21 186.311 345.21 186.311Z" fill="#263238" stroke="#263238" stroke-width="1.05093" stroke-linecap="round" stroke-linejoin="round"/>
<path d="M343.477 186.576C343.477 186.576 351.867 181.398 358.535 182.878C365.203 184.357 369.63 190.528 369.63 190.528C369.63 190.528 368.405 192.505 364.21 192.008C360.014 191.511 359.021 187.592 354.837 188.055C350.653 188.519 346.192 191.765 343.477 191.765C340.761 191.765 343.477 186.576 343.477 186.576Z" fill="#263238" stroke="#263238" stroke-width="1.05093" stroke-linecap="round" stroke-linejoin="round"/>
<path d="M346.656 184.732C346.656 184.732 355.047 177.49 367.257 187.018" stroke="#6B6B6B" stroke-width="1.05093" stroke-linecap="round" stroke-linejoin="round"/>
<path d="M394.129 229.963C394.129 229.963 397.651 233.849 398.479 237.415C399.307 240.981 408.813 279.102 408.04 281.487C407.267 283.872 400.168 287.283 396.525 286.621C392.882 285.958 383.686 262.333 383.686 262.333" fill="white"/>
<path d="M394.129 229.963C394.129 229.963 397.651 233.849 398.479 237.415C399.307 240.981 408.813 279.102 408.04 281.487C407.267 283.872 400.168 287.283 396.525 286.621C392.882 285.958 383.686 262.333 383.686 262.333" stroke="#263238" stroke-width="1.05093" stroke-linecap="round" stroke-linejoin="round"/>
<path d="M408.007 281.52C408.36 280.416 406.538 271.739 404.386 262.355L387.34 271.187C390.31 277.987 394.35 286.267 396.492 286.643C400.135 287.283 407.234 283.883 408.007 281.52Z" fill="white" stroke="#263238" stroke-width="1.05093" stroke-linecap="round" stroke-linejoin="round"/>
<path d="M394.129 277.402L374.434 301.69L377.514 307.21C377.514 307.21 393.202 296.115 398.368 292.24C403.535 288.365 407.808 283.64 408.172 280.46C408.351 278.378 407.998 276.285 407.145 274.377" fill="white"/>
<path d="M394.129 277.402L374.434 301.69L377.514 307.21C377.514 307.21 393.202 296.115 398.368 292.24C403.535 288.365 407.808 283.64 408.172 280.46C408.351 278.378 407.998 276.285 407.145 274.377" stroke="#263238" stroke-width="1.05093" stroke-linecap="round" stroke-linejoin="round"/>
<path d="M375.206 311.726C375.206 311.726 377.039 310.942 377.823 310.544C378.607 310.147 378.209 309.341 378.849 308.171C379.49 307 381.411 307.475 381.797 306.283C382.183 305.091 379.909 301.094 377.304 300.045C374.698 298.996 373.219 298.831 373.131 299.571C372.938 300.254 372.612 300.892 372.17 301.447L369.962 303.655L368.969 305.775C368.969 305.775 360.214 308.491 357.399 309.164C354.583 309.838 361.439 315.093 364.023 316.142C366.606 317.19 368.759 318.173 369.797 317.798C370.834 317.422 375.206 311.726 375.206 311.726Z" fill="#059CE1" stroke="#263238" stroke-width="1.05093" stroke-linecap="round" stroke-linejoin="round"/>
<path d="M347.109 301.282L367.312 315.534L339.061 334.38L319.598 317.963L347.109 301.282Z" fill="white" stroke="#263238" stroke-width="1.05093" stroke-linecap="round" stroke-linejoin="round"/>
<path d="M351.514 305.422L353.203 304.45L360.235 309.297L358.049 310.268L351.514 305.422Z" fill="white" stroke="#263238" stroke-width="1.05093" stroke-linecap="round" stroke-linejoin="round"/>
<path d="M348.114 303.722L324.609 317.29L339.392 329.655L363.382 314.872L348.114 303.722Z" fill="white" stroke="#263238" stroke-width="1.05093" stroke-linecap="round" stroke-linejoin="round"/>
<path d="M370.481 307.453C370.481 307.453 365.182 303.865 363.139 304.373C361.097 304.881 357.697 308.469 357.365 309.175C357.034 309.882 353.17 311.174 353.325 311.935C353.479 312.697 356.129 313.492 357.652 313.172C359.176 312.852 365.38 310.346 365.38 310.346" fill="#059CE1"/>
<path d="M370.481 307.453C370.481 307.453 365.182 303.865 363.139 304.373C361.097 304.881 357.697 308.469 357.365 309.175C357.034 309.882 353.17 311.174 353.325 311.935C353.479 312.697 356.129 313.492 357.652 313.172C359.176 312.852 365.38 310.346 365.38 310.346" stroke="#263238" stroke-width="1.05093" stroke-linecap="round" stroke-linejoin="round"/>
<path d="M476.298 307.232H379.609V484.358H476.298V307.232Z" fill="#059CE1" stroke="#263238" stroke-width="1.05093" stroke-linecap="round" stroke-linejoin="round"/>
<path d="M436.079 337.625H388.121V394.095H436.079V337.625Z" fill="white"/>
<path d="M434.335 307.232H421.572V317.29H434.335V307.232Z" fill="white" stroke="#263238" stroke-width="1.05093" stroke-linecap="round" stroke-linejoin="round"/>
<path d="M418.504 361.372L412.244 347.815L405.984 361.372H409.65V382.801H414.838V361.372H418.504Z" fill="#263238"/>
<path d="M434.049 361.372L427.789 347.815L421.529 361.372H425.195V382.801H430.383V361.372H434.049Z" fill="#263238"/>
<path d="M391.72 348.257H403.224V363.061C403.224 364.323 402.722 365.534 401.83 366.426C400.938 367.318 399.727 367.82 398.465 367.82H396.467C395.205 367.82 393.995 367.318 393.103 366.426C392.21 365.534 391.709 364.323 391.709 363.061V348.257H391.72Z" fill="#263238"/>
<path d="M398.334 362.918H396.611V381.929H398.334V362.918Z" fill="#263238"/>
<path d="M402.65 379.919H392.295V382.503H402.65V379.919Z" fill="#263238"/>
<path d="M263.623 202.628C263.623 202.628 262.387 211.261 255.233 213.977C248.079 216.693 228.339 226.806 227.633 235.45C226.926 244.094 237.999 253.213 231.828 258.888C225.657 264.562 216.25 270.977 217.973 282.624C219.695 294.271 231.541 301.624 242.15 299.901C252.76 298.179 256.712 295.209 260.168 284.6C263.623 273.991 257.96 260.422 260.168 255.234C262.376 250.045 268.061 248.08 267.079 239.446C266.096 230.813 259.428 224.399 261.15 217.985C261.985 214.469 263.588 211.182 265.842 208.358L263.623 202.628Z" fill="#263238" stroke="#263238" stroke-width="1.05093" stroke-linecap="round" stroke-linejoin="round"/>
<path d="M238.794 282.712C238.394 283.265 238.111 283.894 237.963 284.561C237.815 285.227 237.805 285.917 237.933 286.587" stroke="#6B6B6B" stroke-width="1.05093" stroke-linecap="round" stroke-linejoin="round"/>
<path d="M239.833 230.118C234.699 233.728 232.204 237.735 234.5 241.577C237.934 247.296 248.996 257.21 237.172 263.657C225.348 270.105 219.243 290.021 231.84 296.501C244.436 302.982 250.917 288.873 248.632 282.767C248.315 281.826 247.691 281.019 246.86 280.476C246.029 279.934 245.039 279.687 244.05 279.776" stroke="#6B6B6B" stroke-width="1.05093" stroke-linecap="round" stroke-linejoin="round"/>
<path d="M258.919 216.02C258.919 216.02 259.681 220.59 248.983 225.172C247.879 225.647 246.775 226.155 245.727 226.662" stroke="#6B6B6B" stroke-width="1.05093" stroke-linecap="round" stroke-linejoin="round"/>
<path d="M259.682 222.114C259.682 222.114 260.058 228.605 254.725 231.277C249.393 233.949 246.324 243.101 250.144 246.91" stroke="#6B6B6B" stroke-width="1.05093" stroke-linecap="round" stroke-linejoin="round"/>
<path d="M294.491 337.824C294.491 337.824 295.154 346.071 294.171 362.543C293.188 379.014 284.942 404.406 284.61 408.027C284.279 411.648 280.327 423.483 279.996 432.084C279.664 440.684 274.752 455.643 274.409 457.255C273.802 460.125 271.649 469.399 271.649 469.399C271.649 469.399 278.87 475.791 281.508 477.767C284.147 479.743 290.219 481.013 288.894 483.751C288.375 484.855 262.199 482.426 262.199 482.426C262.199 482.426 260.223 478.142 261.206 474.841C262.057 471.604 262.717 468.32 263.182 465.005C263.513 463.029 263.513 450.498 263.513 443.245C263.513 435.992 262.53 426.442 264.175 419.189C265.674 413.534 267.657 408.02 270.104 402.706C270.104 402.706 271.76 395.464 270.766 380.295C269.773 365.126 265.489 341.743 265.489 341.743C265.489 341.743 286.587 342.737 294.491 337.824Z" fill="white" stroke="#263238" stroke-width="1.05093" stroke-linecap="round" stroke-linejoin="round"/>
<path d="M281.52 477.778C278.881 475.802 272.191 470.481 272.191 470.481C272.191 470.481 272.246 470.16 272.357 469.642C271.727 469.697 270.977 469.94 270.977 470.889V475.747C267.705 475.887 264.455 475.156 261.56 473.627C261.449 474.047 261.339 474.455 261.217 474.852C260.235 478.164 262.211 482.437 262.211 482.437C262.211 482.437 288.387 484.822 288.906 483.751C290.219 481.024 284.136 479.754 281.52 477.778Z" fill="white" stroke="#263238" stroke-width="1.05093" stroke-linecap="round" stroke-linejoin="round"/>
<path d="M277.102 447.263C278.46 442.251 279.862 436.345 280.028 432.05C280.359 423.483 284.311 411.615 284.642 407.994C284.974 404.373 293.21 378.992 294.203 362.509C295.197 346.027 294.523 337.791 294.523 337.791C286.619 342.737 265.521 341.754 265.521 341.754C265.521 341.754 269.805 365.148 270.798 380.306C271.792 395.464 270.136 402.717 270.136 402.717C267.689 408.031 265.706 413.545 264.207 419.2C262.562 426.453 263.545 436.014 263.545 443.256V447.208C267.997 448.29 272.641 448.309 277.102 447.263Z" fill="#263238" stroke="#263238" stroke-width="1.05093" stroke-linecap="round" stroke-linejoin="round"/>
<path d="M247.04 339.447C247.04 339.447 248.354 352.297 253.3 362.509C258.246 372.721 273.073 399.758 273.073 399.758C273.073 399.758 259.56 414.254 257.23 422.501C254.901 430.748 247.67 455.124 246.025 459.076C244.38 463.029 237.458 467.323 239.765 470.613C242.072 473.903 249.977 478.198 253.609 481.167C257.241 484.137 264.484 484.789 266.129 484.126C267.774 483.464 264.152 480.814 262.176 478.198C260.2 475.581 255.254 466.661 255.254 465.016V461.384C255.254 461.384 283.958 416.893 285.901 411.947C287.844 407.001 290.185 402.397 289.853 399.427C289.522 396.457 279.973 339.116 279.973 339.116L247.04 339.447Z" fill="white" stroke="#263238" stroke-width="1.05093" stroke-linecap="round" stroke-linejoin="round"/>
<path d="M266.151 484.126C267.796 483.475 264.175 480.814 262.199 478.197C260.223 475.581 255.277 466.661 255.277 465.016V464.132C254.029 463.459 252.263 462.962 251.645 465.016L250.662 468.328L243.883 462.3C241.366 465.27 238.087 468.217 239.788 470.635C242.095 473.947 250 478.219 253.632 481.189C257.264 484.159 264.506 484.788 266.151 484.126Z" fill="white" stroke="#263238" stroke-width="1.05093" stroke-linecap="round" stroke-linejoin="round"/>
<path d="M289.876 399.427C289.556 396.457 279.995 339.116 279.995 339.116L247.041 339.447C247.041 339.447 248.355 352.297 253.301 362.509C258.247 372.721 273.073 399.758 273.073 399.758C273.073 399.758 259.56 414.254 257.231 422.501C256.127 426.343 253.996 433.706 251.843 440.871C255.277 444.076 259.347 446.521 263.789 448.047C272.411 434.512 284.632 415.115 285.869 411.947C287.9 407.012 290.207 402.397 289.876 399.427Z" fill="#263238" stroke="#263238" stroke-width="1.05093" stroke-linecap="round" stroke-linejoin="round"/>
<path d="M282.093 240.297C282.093 240.297 290.605 253.269 292.724 258.8C294.844 264.331 298.476 276.464 297.615 281.145C296.754 285.826 289.744 297.517 289.744 299.913C289.744 302.308 296.368 337.36 296.368 337.36C296.368 337.36 296.158 340.551 285.725 343.741C275.292 346.932 263.822 345.861 255.917 344.382C248.012 342.902 244.877 339.701 244.877 339.701C244.877 339.701 258.059 295.872 258.059 293.962C258.059 292.052 253.168 269.497 251.435 263.966C249.701 258.435 249.304 255.245 252.539 250.718C255.773 246.192 269.982 241.147 273.393 239.237C276.805 237.327 281.022 237.537 282.093 240.297Z" fill="white" stroke="#263238" stroke-width="1.05093" stroke-linecap="round" stroke-linejoin="round"/>
<path d="M281.023 234.125C281.023 234.125 285.704 239.016 287.647 240.506C289.59 241.997 289.766 248.378 290.197 249.449C290.627 250.52 290.837 251.568 290.197 251.359C289.556 251.149 287.647 246.468 287.647 246.468L287.856 249.449C287.856 249.449 280.625 240.506 279.775 239.016C278.925 237.526 281.023 234.125 281.023 234.125Z" fill="white" stroke="#263238" stroke-width="1.05093" stroke-linecap="round" stroke-linejoin="round"/>
<path d="M287.625 246.468L288.265 241.356" stroke="#263238" stroke-width="1.05093" stroke-linecap="round" stroke-linejoin="round"/>
<path d="M272.091 183.264C272.091 183.264 264.219 185.814 262.729 193.476C261.238 201.138 264.86 210.279 266.99 216.02C269.121 221.76 269.75 223.472 269.331 227.722C268.827 231.252 268.044 234.737 266.99 238.144C266.99 238.144 274.641 247.296 276.562 252.396C278.483 257.497 285.924 265.17 288.474 264.54C291.024 263.911 291.024 257.916 288.044 251.138C285.063 244.359 280.812 240.716 280.812 237.89C280.812 235.064 282.513 230.018 282.513 230.018C282.513 230.018 288.264 233.849 290.174 232.999C292.084 232.149 296.555 221.297 297.615 218.537C298.675 215.777 295.496 211.725 296.765 209.815C298.035 207.905 300.806 205.554 299.956 201.303C299.106 197.053 297.836 188.055 291.874 183.86C285.913 179.665 275.491 180.946 272.091 183.264Z" fill="white" stroke="#263238" stroke-width="1.05093" stroke-linecap="round" stroke-linejoin="round"/>
<path d="M273.371 245.618C273.371 245.618 282.093 260.721 285.283 268.382C288.474 276.044 289.699 288.586 288.474 293.057C287.249 297.528 282.303 321.761 282.954 328.584C283.605 335.406 284.433 352.176 284.433 352.176C284.433 352.176 278.052 353.28 262.949 350.465C254.305 348.952 245.827 346.604 237.635 343.454C237.635 343.454 255.078 294.945 255.078 293.454C255.078 291.964 256.182 279.202 251.887 271.374C247.593 263.547 244.226 255.631 247.206 252.661C250.187 249.692 265.29 236.918 265.29 236.918L273.371 245.618Z" fill="#059CE1" stroke="#263238" stroke-width="1.05093" stroke-linecap="round" stroke-linejoin="round"/>
<path d="M291.874 183.927C285.924 179.665 275.491 180.946 272.091 183.286C272.091 183.286 264.219 185.837 262.729 193.498C261.238 201.16 264.86 210.301 266.99 216.042C267.741 218.095 268.315 219.619 268.713 220.944C269 220.925 269.282 220.85 269.541 220.723C273.581 218.813 272.091 213.072 277.202 210.301C281.353 208.093 294.392 200.012 299.095 197.053C298.079 192.648 296.235 187.04 291.874 183.927Z" fill="#263238" stroke="#263238" stroke-width="1.05093" stroke-linecap="round" stroke-linejoin="round"/>
<path d="M296.677 193.509C296.677 193.509 279.896 208.767 266.869 210.676" stroke="#6B6B6B" stroke-width="1.05093" stroke-linecap="round" stroke-linejoin="round"/>
<path d="M286.321 193.399C279.609 196.711 270.313 201.8 266.162 205.72" stroke="#6B6B6B" stroke-width="1.05093" stroke-linecap="round" stroke-linejoin="round"/>
<path d="M294.005 189.689C294.005 189.689 292.702 190.286 290.627 191.29" stroke="#6B6B6B" stroke-width="1.05093" stroke-linecap="round" stroke-linejoin="round"/>
<path d="M292.558 210.511L292.348 213.492C291.78 213.865 291.114 214.064 290.433 214.064C289.752 214.064 289.086 213.865 288.518 213.492" stroke="#263238" stroke-width="1.05093" stroke-linecap="round" stroke-linejoin="round"/>
<path d="M294.424 207.32C293.685 206.581 292.728 206.099 291.694 205.946C290.661 205.793 289.605 205.977 288.684 206.47" stroke="#263238" stroke-width="1.05093" stroke-linecap="round" stroke-linejoin="round"/>
<path d="M297.682 215.965C296.523 216.351 292.581 217.322 286.554 215.192C279.322 212.641 275.072 210.941 275.072 210.941C275.072 210.941 272.732 209.837 271.881 211.791C271.031 213.745 271.672 215.622 273.791 218.415C275.911 221.209 282.513 230.118 282.513 230.118C282.513 230.118 288.265 233.949 290.175 233.099C292.085 232.249 296.556 221.396 297.616 218.636C297.894 217.77 297.917 216.843 297.682 215.965ZM279.543 222.589C279.113 223.693 273.791 216.837 272.732 214.717C271.672 212.597 274.222 211.096 276.353 212.796L280.769 215.137C280.769 215.137 279.963 221.573 279.543 222.644V222.589Z" fill="#059CE1" stroke="#263238" stroke-width="1.05093" stroke-linecap="round" stroke-linejoin="round"/>
<path d="M276.981 214.342C276.981 214.342 275.877 207.11 273.151 206.691C270.424 206.271 270.6 212.211 271.881 214.772C272.296 215.51 272.923 216.107 273.68 216.485C274.438 216.863 275.292 217.005 276.131 216.892" fill="white"/>
<path d="M276.981 214.342C276.981 214.342 275.877 207.11 273.151 206.691C270.424 206.271 270.6 212.211 271.881 214.772C272.296 215.51 272.923 216.107 273.68 216.485C274.438 216.863 275.292 217.005 276.131 216.892" stroke="#263238" stroke-width="1.05093" stroke-linecap="round" stroke-linejoin="round"/>
<path d="M266.77 230.736C266.77 230.736 272.522 237.967 273.394 239.248C274.267 240.529 280.626 248.82 280.626 248.82L275.945 256.47C275.945 256.47 275.514 256.261 275.095 254.351C274.675 252.441 264.883 240.098 264.673 239.458C264.21 238.735 263.637 238.091 262.973 237.548L266.77 230.736Z" fill="white" stroke="#263238" stroke-width="1.05093" stroke-linecap="round" stroke-linejoin="round"/>
<path d="M341.952 309.937C341.746 309.943 341.544 309.891 341.366 309.787C341.189 309.684 341.043 309.533 340.947 309.352L334.754 298.522C334.648 298.258 334.642 297.965 334.738 297.698C334.834 297.431 335.024 297.208 335.273 297.072C335.522 296.936 335.813 296.896 336.089 296.96C336.366 297.023 336.609 297.186 336.774 297.418L342.956 308.248C343.039 308.378 343.094 308.524 343.117 308.676C343.14 308.828 343.132 308.984 343.091 309.133C343.05 309.281 342.979 309.42 342.882 309.539C342.784 309.659 342.663 309.757 342.526 309.827C342.348 309.914 342.149 309.952 341.952 309.937Z" fill="white" stroke="#263238" stroke-width="1.05093" stroke-linecap="round" stroke-linejoin="round"/>
<path d="M257.044 245.397C257.044 245.397 245.452 253.07 244.437 254.936C243.421 256.802 266.627 302.077 268.515 307.541C270.403 313.006 271.396 317.477 272.048 317.853C272.699 318.228 328.584 315.347 328.584 315.347C328.584 315.347 336.455 315.291 338.332 313.956C339.653 312.825 340.696 311.404 341.379 309.805C341.379 309.805 343.499 309.529 343.443 307.828C343.388 306.128 343.576 305.267 342.726 305.289C341.876 305.311 336.102 303.39 333.728 303.677C331.355 303.964 324.576 310.158 324.576 310.158C324.576 310.158 302.982 307.033 295.684 305.366C288.387 303.699 283.463 302.573 283.463 302.573L273.671 264.088" fill="#059CE1"/>
<path d="M257.044 245.397C257.044 245.397 245.452 253.07 244.437 254.936C243.421 256.802 266.627 302.077 268.515 307.541C270.403 313.006 271.396 317.477 272.048 317.853C272.699 318.228 328.584 315.347 328.584 315.347C328.584 315.347 336.455 315.291 338.332 313.956C339.653 312.825 340.696 311.404 341.379 309.805C341.379 309.805 343.499 309.529 343.443 307.828C343.388 306.128 343.576 305.267 342.726 305.289C341.876 305.311 336.102 303.39 333.728 303.677C331.355 303.964 324.576 310.158 324.576 310.158C324.576 310.158 302.982 307.033 295.684 305.366C288.387 303.699 283.463 302.573 283.463 302.573L273.671 264.088" stroke="#263238" stroke-width="1.05093" stroke-linecap="round" stroke-linejoin="round"/>
<path d="M287.713 317.356C304.45 316.605 328.561 315.347 328.561 315.347C328.561 315.347 336.432 315.291 338.309 313.955C339.631 312.825 340.673 311.404 341.356 309.804C341.356 309.804 343.476 309.528 343.421 307.828C343.366 306.128 343.553 305.267 342.703 305.289C341.853 305.311 336.079 303.39 333.706 303.677C331.332 303.964 324.553 310.158 324.553 310.158C324.553 310.158 302.959 307.033 295.662 305.366L289.435 303.942L287.713 317.356Z" fill="white" stroke="#263238" stroke-width="1.05093" stroke-linecap="round" stroke-linejoin="round"/>
<path d="M287.094 303.092L286.078 317.389L292.272 317.82L293.541 305.013L287.094 303.092Z" fill="white" stroke="#263238" stroke-width="1.05093" stroke-linecap="round" stroke-linejoin="round"/>
<path d="M116.583 338.696C116.638 338.696 117.687 334.6 117.742 334.28C118.173 331.167 117.179 324.918 114.021 323.395C113.49 323.155 112.914 323.03 112.331 323.028C111.749 323.025 111.172 323.146 110.639 323.381C110.105 323.616 109.628 323.961 109.237 324.394C108.846 324.826 108.55 325.336 108.369 325.89C107.519 328.219 108.601 331.078 109.87 333.044C111.361 335.406 116.583 338.696 116.583 338.696Z" fill="#263238"/>
<path d="M134.977 316.362C131.488 315.987 127.337 320.778 126.068 323.638C125.957 323.88 124.677 327.954 124.743 327.954H124.809C124.158 328.705 123.451 329.511 122.711 330.416C121.342 332.094 119.819 334.004 118.295 336.19C116.627 338.527 115.097 340.96 113.714 343.476C112.152 346.299 110.844 349.254 109.806 352.308V352.419C109.806 351.392 109.806 348.511 109.75 348.29C109.342 345.188 106.737 339.458 103.292 338.773C102.715 338.681 102.126 338.712 101.562 338.863C100.998 339.015 100.473 339.284 100.02 339.653C99.5676 340.022 99.1982 340.483 98.9364 341.005C98.6745 341.527 98.5261 342.098 98.5007 342.682C98.291 345.155 100.079 347.628 101.813 349.184C103.778 350.94 109.243 352.651 109.684 352.783C108.697 355.907 107.922 359.093 107.366 362.322C107.035 364.199 106.759 366.097 106.505 368.007C106.505 367.124 106.505 366.318 106.505 366.208C106.107 363.106 103.502 357.376 100.046 356.691C99.4702 356.602 98.8819 356.636 98.3195 356.789C97.757 356.942 97.233 357.211 96.7813 357.58C96.3296 357.948 95.9603 358.407 95.6974 358.927C95.4344 359.448 95.2837 360.017 95.255 360.6C95.0562 363.072 96.8447 365.545 98.567 367.102C100.289 368.659 104.97 370.237 106.207 370.624C106.118 371.363 106.019 372.092 105.931 372.832C105.511 376.354 105.103 379.864 104.595 383.309C104.418 384.512 104.208 385.704 103.988 386.897C103.988 386.102 103.988 385.44 103.988 385.34C103.59 382.227 100.985 376.508 97.5292 375.824C96.9537 375.733 96.3657 375.765 95.8032 375.916C95.2408 376.068 94.7165 376.336 94.2646 376.704C93.8127 377.072 93.4432 377.53 93.1801 378.05C92.9171 378.57 92.7664 379.139 92.7379 379.721C92.5391 382.194 94.3276 384.667 96.0499 386.223C97.7721 387.78 102 389.204 103.469 389.679C103.204 390.882 102.95 392.097 102.652 393.256C102.431 394.051 102.265 394.823 102 395.607C101.735 396.391 101.493 397.153 101.25 397.915C100.72 399.361 100.146 400.862 99.6379 402.264C99.2625 403.236 98.8871 404.163 98.5339 405.091C98.7215 403.887 99.0417 401.525 99.0527 401.326C98.9972 398.564 98.2372 395.862 96.8447 393.477C96.8542 393.17 96.8357 392.863 96.7895 392.56C96.7169 391.982 96.5233 391.425 96.2212 390.926C95.9191 390.428 95.5154 389.998 95.0363 389.666C94.5572 389.334 94.0135 389.106 93.4406 388.998C92.8676 388.89 92.2784 388.904 91.7111 389.039C88.3108 389.933 86.1911 395.894 86.0035 398.975C86.0035 399.162 86.1138 401.183 86.2132 402.452C86.0366 401.712 85.882 400.995 85.6943 400.244C85.3411 398.743 84.9436 397.263 84.5131 395.663L83.8175 393.333C83.5967 392.56 83.2655 391.765 83.0006 390.96C82.3271 389.127 81.5543 387.305 80.7926 385.44C82.1063 385.119 86.7542 383.938 88.6199 382.503C90.4857 381.068 92.4508 378.749 92.4287 376.265C92.4431 375.676 92.3315 375.09 92.1012 374.548C91.871 374.005 91.5275 373.517 91.0938 373.118C90.66 372.719 90.146 372.417 89.5861 372.232C89.0262 372.048 88.4333 371.985 87.8471 372.048C84.3585 372.423 81.3225 377.988 80.6932 381.057C80.6932 381.244 80.4503 383.507 80.362 384.744C79.8542 383.64 79.3684 382.536 78.8275 381.432C77.2819 378.352 75.5927 375.216 73.9699 372.048C73.462 371.087 72.9652 370.127 72.4684 369.167C72.9431 369.056 78.4962 367.764 80.5828 366.164C82.4375 364.74 84.4137 362.41 84.3916 359.926C84.4074 359.344 84.3005 358.764 84.0777 358.226C83.8548 357.688 83.5212 357.202 83.0984 356.801C82.6756 356.4 82.1731 356.093 81.6237 355.899C81.0743 355.705 80.4902 355.629 79.9094 355.676C76.4207 356.051 73.3847 361.615 72.7555 364.684C72.7555 364.916 72.4132 368.162 72.3801 368.99C71.2761 366.87 70.1721 364.751 69.2227 362.62C67.8943 359.752 66.7512 356.802 65.8002 353.788C66.021 353.733 71.817 352.419 73.9588 350.774C75.8246 349.35 77.7897 347.009 77.7676 344.536C77.7852 343.953 77.6794 343.373 77.4572 342.834C77.235 342.295 76.9014 341.809 76.4782 341.408C76.055 341.006 75.5518 340.699 75.0016 340.506C74.4514 340.312 73.8665 340.237 73.2854 340.286C69.7967 340.661 66.7718 346.225 66.1315 349.295C66.1315 349.493 65.8665 351.966 65.7892 353.148H65.5905C64.7124 350.08 64.1138 346.939 63.802 343.764C63.6033 342.019 63.515 340.341 63.4708 338.707C64.5748 338.575 69.6201 337.901 71.7066 336.643C73.7932 335.384 75.9239 333.331 76.1226 330.858C76.2037 330.281 76.162 329.693 76.0003 329.133C75.8386 328.574 75.5606 328.054 75.1844 327.609C74.8082 327.164 74.3424 326.804 73.8173 326.551C73.2922 326.299 72.7197 326.16 72.1372 326.144C68.6265 326.144 65.0054 331.332 64.0339 334.313C64.0339 334.468 63.6254 336.179 63.3935 337.427C63.3935 336.687 63.3935 335.925 63.3935 335.219C63.3935 332.569 63.5591 330.14 63.7247 327.987C63.8351 326.762 63.9566 325.658 64.078 324.675C65.0937 323.969 69.1454 321.109 70.4039 319.056C71.6625 317.003 72.6119 314.176 71.7066 311.869C71.5118 311.319 71.2033 310.816 70.8011 310.394C70.3989 309.971 69.9121 309.638 69.3725 309.416C68.8329 309.194 68.2526 309.088 67.6694 309.106C67.0862 309.123 66.5133 309.264 65.9879 309.517C62.8636 311.129 62.0466 317.411 62.5655 320.502C62.5655 320.767 63.7799 324.863 63.8351 324.83H63.9014C63.7579 325.824 63.6254 326.883 63.5039 328.054C63.2942 330.206 63.0623 332.635 63.0071 335.296C62.9064 338.168 62.9728 341.043 63.2059 343.907C63.4584 347.116 63.9941 350.297 64.8067 353.412V353.523C64.2547 352.651 62.5986 350.277 62.4882 350.112C60.4348 347.738 55.0804 344.36 51.8457 345.696C51.3158 345.938 50.8427 346.289 50.4574 346.726C50.0721 347.163 49.7831 347.676 49.6091 348.232C49.4352 348.788 49.3803 349.375 49.448 349.953C49.5157 350.532 49.7045 351.09 50.002 351.591C51.1943 353.799 54.0537 354.837 56.3721 355.179C58.9886 355.554 64.4865 353.964 64.9171 353.832C65.8115 356.98 66.9181 360.063 68.229 363.061C68.9798 364.817 69.7967 366.55 70.6358 368.294C70.139 367.555 69.6863 366.903 69.6091 366.815C67.5556 364.441 62.2012 361.074 58.9665 362.399C58.4362 362.642 57.963 362.994 57.5776 363.433C57.1922 363.871 56.9032 364.385 56.7294 364.942C56.5555 365.499 56.5007 366.086 56.5685 366.665C56.6363 367.245 56.8251 367.804 57.1228 368.305C58.3262 370.513 61.1745 371.551 63.4929 371.882C65.8113 372.214 70.5585 370.966 71.806 370.613L72.7886 372.6C74.3783 375.768 75.9902 378.926 77.4585 382.072C77.9884 383.176 78.4521 384.28 78.9379 385.384C78.4852 384.733 78.1099 384.192 78.0436 384.115C75.9902 381.741 70.6358 378.363 67.4011 379.699C66.8711 379.941 66.3981 380.292 66.0128 380.729C65.6274 381.166 65.3384 381.679 65.1645 382.235C64.9906 382.791 64.9357 383.378 65.0034 383.956C65.0711 384.535 65.2598 385.093 65.5574 385.594C66.7497 387.802 69.6091 388.84 71.9275 389.182C74.2459 389.524 78.5515 388.376 80.0087 387.968C80.4724 389.072 80.9251 390.275 81.3115 391.412C81.5543 392.185 81.8524 392.925 82.0622 393.72C82.2719 394.514 82.4927 395.287 82.7135 396.06C83.0668 397.561 83.4532 399.107 83.8175 400.575C84.0494 401.602 84.237 402.574 84.4468 403.556C83.939 402.452 82.9012 400.299 82.7908 400.134C81.1238 397.473 76.3435 393.333 72.9431 394.194C72.386 394.354 71.8685 394.628 71.4239 395C70.9793 395.372 70.6175 395.832 70.3616 396.352C70.1058 396.872 69.9617 397.44 69.9386 398.019C69.9154 398.598 70.0138 399.175 70.2273 399.714C71.0774 402.044 73.738 403.545 75.9791 404.23C78.441 404.98 83.9058 404.296 84.5793 404.23C84.9105 405.863 85.2086 407.453 85.4735 408.955C86.3898 414.166 86.9639 418.548 87.3172 421.607C87.3172 422.159 87.4276 422.644 87.4828 423.097H76.9065L80.0419 484.247H99.4943L102.674 423.207H92.7379L92.9586 422.755C94.3055 419.951 96.1823 415.899 98.2026 410.953C98.843 409.396 99.4943 407.707 100.157 405.974C100.819 406.117 106.218 407.21 108.735 406.647C111.02 406.128 113.791 404.837 114.807 402.574C115.066 402.051 115.212 401.481 115.236 400.898C115.26 400.316 115.161 399.735 114.945 399.193C114.729 398.652 114.402 398.162 113.985 397.755C113.567 397.348 113.069 397.034 112.522 396.833C109.21 395.729 104.109 399.493 102.254 402.022C102.144 402.165 101.15 403.92 100.51 405.024C100.775 404.318 101.04 403.633 101.305 402.894C101.835 401.448 102.321 399.99 102.85 398.423L103.546 396.093C103.8 395.331 103.954 394.481 104.175 393.664C104.628 391.765 104.992 389.822 105.279 387.846C106.549 388.31 111.075 389.889 113.427 389.723C115.778 389.557 118.693 388.696 120.051 386.621C120.387 386.144 120.619 385.603 120.731 385.03C120.843 384.458 120.833 383.869 120.702 383.301C120.571 382.733 120.321 382.199 119.969 381.734C119.617 381.27 119.171 380.884 118.66 380.604C115.535 378.992 109.949 381.951 107.719 384.17C107.587 384.302 106.174 386.069 105.412 387.051C105.599 385.87 105.787 384.689 105.942 383.485C106.372 379.997 106.703 376.464 107.046 372.942C107.145 371.838 107.266 370.734 107.377 369.708C107.83 369.873 113.173 371.86 115.8 371.684C118.13 371.518 121.066 370.657 122.424 368.581C122.761 368.104 122.993 367.561 123.105 366.989C123.217 366.416 123.207 365.825 123.076 365.257C122.945 364.688 122.695 364.153 122.343 363.687C121.991 363.221 121.545 362.835 121.033 362.554C117.909 360.953 112.323 363.912 110.093 366.131C109.927 366.296 107.885 368.835 107.41 369.509C107.664 367.135 107.929 364.773 108.293 362.454C108.768 359.327 109.443 356.233 110.314 353.192C110.523 353.269 116.098 355.4 118.781 355.179C121.122 355.013 124.047 354.152 125.405 352.077C125.739 351.599 125.969 351.057 126.079 350.484C126.19 349.912 126.179 349.323 126.046 348.755C125.914 348.188 125.664 347.655 125.312 347.19C124.96 346.726 124.514 346.341 124.003 346.06C120.89 344.448 115.293 347.418 113.074 349.626C112.93 349.769 111.373 351.712 110.656 352.651L110.479 352.551C111.443 349.503 112.677 346.548 114.166 343.719C114.961 342.152 115.811 340.705 116.673 339.303C117.666 339.8 122.193 342.03 124.688 342.119C127.183 342.207 130.031 341.688 131.61 339.767C131.995 339.329 132.284 338.815 132.457 338.258C132.63 337.701 132.684 337.114 132.616 336.535C132.547 335.956 132.357 335.398 132.058 334.897C131.759 334.396 131.358 333.964 130.881 333.629C127.955 331.686 122.049 334.026 119.62 335.98C119.488 336.08 118.251 337.316 117.412 338.188C117.81 337.57 118.207 336.919 118.594 336.334C120.062 334.126 121.541 332.183 122.877 330.482C123.639 329.522 124.345 328.661 125.008 327.866C126.244 327.866 131.212 327.7 133.387 326.674C135.562 325.647 137.925 323.825 138.443 321.396C138.57 320.836 138.579 320.256 138.47 319.693C138.361 319.129 138.137 318.594 137.811 318.121C137.486 317.648 137.066 317.248 136.578 316.945C136.09 316.643 135.545 316.444 134.977 316.362ZM96.3369 410.147C94.2283 414.994 92.2852 418.979 90.8942 421.717C90.6182 422.269 90.3642 422.755 90.1214 423.207H89.8895C89.8233 422.677 89.746 422.103 89.6577 421.43C89.2271 418.339 88.5537 413.934 87.5159 408.69C87.1958 407.034 86.8094 405.267 86.4119 403.457C88.0567 402.799 89.6604 402.044 91.2143 401.194C93.0139 403.148 97.6175 405.422 98.2137 405.709C97.5623 407.255 96.9441 408.745 96.3259 410.147H96.3369Z" fill="#263238"/>
<path d="M54.2514 337.338C56.7686 338.442 62.9399 338.299 62.9399 338.299C62.9399 338.299 61.6151 334.269 61.5047 334.026C60.1468 331.189 55.8743 326.519 52.3967 326.994C51.8224 327.09 51.2748 327.306 50.7894 327.628C50.304 327.949 49.8917 328.37 49.5794 328.861C49.267 329.353 49.0616 329.904 48.9763 330.48C48.8911 331.056 48.928 331.644 49.0847 332.205C49.6809 334.611 52.1097 336.4 54.2514 337.338Z" fill="#263238"/>
<path d="M504.529 484.358H63.6465" stroke="#263238" stroke-width="1.05093" stroke-linecap="round" stroke-linejoin="round"/>
</svg>
