<svg width="552" height="552" viewBox="0 0 552 552" fill="none" xmlns="http://www.w3.org/2000/svg">
<path d="M452.132 314.397H369.133V406.316H452.132V314.397Z" fill="#EBEBEB"/>
<path d="M494.988 314.397H452.131V406.316H494.988V314.397Z" fill="#DBDBDB"/>
<path d="M492.041 399.979C488.869 393.443 485.722 386.886 482.602 380.306L473.306 360.544L464.132 340.672C461.085 334.048 458.071 327.395 455.09 320.712C458.255 327.248 461.397 333.805 464.518 340.385L473.825 360.158L482.999 380.03C486.046 386.654 489.06 393.304 492.041 399.979Z" fill="#EBEBEB"/>
<path d="M492.041 320.723C489.06 327.406 486.046 334.059 482.999 340.683L473.825 360.555L464.518 380.328C461.405 386.893 458.262 393.447 455.09 399.99C458.034 393.322 461.048 386.672 464.132 380.041L473.306 360.169L482.602 340.396C485.715 333.816 488.861 327.259 492.041 320.723Z" fill="#EBEBEB"/>
<path d="M452.132 175.58H369.133V261.162H452.132V175.58Z" fill="#EBEBEB"/>
<path d="M494.988 175.58H452.131V261.162H494.988V175.58Z" fill="#DBDBDB"/>
<path d="M417.675 195.441H415.92H414.606L413.844 193.906L412.785 195.441L411.36 192.295L410.003 195.441H406.116H404.339L403.699 193.343L403.092 195.441H401.943V175.58H417.675V195.441Z" fill="#DBDBDB"/>
<path d="M492.041 255.698C488.869 249.611 485.722 243.506 482.602 237.382L473.306 218.979L464.132 200.487C461.085 194.312 458.071 188.118 455.09 181.906C458.255 187.986 461.397 194.091 464.518 200.222L473.825 218.592L482.999 237.073C486.046 243.278 489.06 249.486 492.041 255.698Z" fill="#EBEBEB"/>
<path d="M492.041 181.906C489.06 188.118 486.046 194.311 482.999 200.486L473.825 218.978L464.518 237.36C461.405 243.483 458.262 249.588 455.09 255.675C458.034 249.471 461.048 243.277 464.132 237.095L473.306 218.592L482.602 200.177C485.715 194.053 488.861 187.963 492.041 181.906Z" fill="#EBEBEB"/>
<path d="M446.668 246.634H437.449V255.852H446.668V246.634Z" fill="white"/>
<path d="M145.507 240.319H62.5078V325.901H145.507V240.319Z" fill="#EBEBEB"/>
<path d="M188.363 240.319H145.506V325.901H188.363V240.319Z" fill="#DBDBDB"/>
<path d="M185.472 320.447C182.293 314.353 179.146 308.248 176.033 302.132L166.704 283.728L157.519 265.247C154.487 259.079 151.476 252.886 148.488 246.667C151.66 252.753 154.803 258.855 157.916 264.971L167.223 283.386L176.397 301.878C179.43 308.038 182.455 314.228 185.472 320.447Z" fill="#EBEBEB"/>
<path d="M185.472 246.656C182.483 252.86 179.469 259.053 176.43 265.236L167.2 283.728L157.872 302.132C154.758 308.255 151.616 314.36 148.443 320.447C151.424 314.235 154.434 308.042 157.474 301.867L166.704 283.375L175.977 264.96C179.09 258.844 182.255 252.742 185.472 246.656Z" fill="#EBEBEB"/>
<path d="M140.043 311.372H130.824V320.59H140.043V311.372Z" fill="white"/>
<path d="M457.663 261.162H374.664V314.397H457.663V261.162Z" fill="#DBDBDB"/>
<path d="M500.519 261.162H457.662V314.397H500.519V261.162Z" fill="#C7C7C7"/>
<path d="M423.207 281.023H421.451H420.126L419.376 279.5L418.316 281.023L416.892 277.877L415.534 281.023H411.648H409.87L409.23 278.925L408.623 281.023H407.475V261.162H423.207V281.023Z" fill="white"/>
<path d="M497.572 311.228C494.392 307.364 491.246 303.486 488.133 299.592L478.837 287.89L469.663 276.143C466.616 272.213 463.602 268.276 460.621 264.331C463.793 268.195 466.936 272.073 470.049 275.967L479.356 287.669L488.53 299.416C491.577 303.346 494.591 307.284 497.572 311.228Z" fill="#DBDBDB"/>
<path d="M497.572 264.331C494.591 268.283 491.577 272.217 488.53 276.132L479.356 287.89L470.049 299.592C466.936 303.478 463.793 307.357 460.621 311.228C463.565 307.276 466.579 303.339 469.663 299.416L478.837 287.669L488.133 275.967C491.246 272.081 494.392 268.202 497.572 264.331Z" fill="#DBDBDB"/>
<path d="M140.053 187.084H57.0547V240.319H140.053V187.084Z" fill="#DBDBDB"/>
<path d="M182.922 187.084H140.064V240.319H182.922V187.084Z" fill="#C7C7C7"/>
<path d="M105.597 206.945H103.842H102.528L101.766 205.421L100.718 206.945L99.2824 203.799L97.9244 206.945H94.0384H92.2609L91.6206 204.847L91.0134 206.945H89.8652V187.084H105.597V206.945Z" fill="white"/>
<path d="M179.952 237.15C176.779 233.286 173.637 229.408 170.523 225.514L161.184 213.812L152.053 202.032C149.006 198.102 145.993 194.164 143.012 190.219C146.191 194.083 149.338 197.962 152.451 201.855L161.747 213.558L170.921 225.304C173.997 229.257 177.008 233.205 179.952 237.15Z" fill="#DBDBDB"/>
<path d="M179.951 190.252C177.007 194.205 173.993 198.142 170.909 202.065L161.735 213.812L152.439 225.514C149.326 229.4 146.18 233.279 143 237.15C145.981 233.198 148.995 229.26 152.042 225.338L161.183 213.591L170.49 201.889C173.632 198.003 176.786 194.124 179.951 190.252Z" fill="#DBDBDB"/>
<path d="M134.477 325.901H51.4785V406.305H134.477V325.901Z" fill="#DBDBDB"/>
<path d="M177.336 325.901H134.479V406.305H177.336V325.901Z" fill="#C7C7C7"/>
<path d="M100.022 345.773H98.267H96.9422L96.1915 344.238L95.1316 345.773L93.6964 342.615L92.3385 345.773H88.4524H86.686L86.0457 343.664L85.4385 345.773H84.2793V325.901H100.022V345.773Z" fill="white"/>
<path d="M174.431 401.525C171.251 395.688 168.105 389.83 164.991 383.949L155.696 366.285L146.511 348.533C143.463 342.645 140.45 336.702 137.469 330.703C140.648 336.54 143.795 342.398 146.908 348.279L156.204 365.943L165.389 383.695C168.399 389.613 171.413 395.556 174.431 401.525Z" fill="#DBDBDB"/>
<path d="M174.431 330.692C171.435 336.654 168.421 342.597 165.389 348.522L156.204 366.274L146.908 383.938C143.795 389.826 140.648 395.685 137.469 401.514C140.457 395.552 143.471 389.609 146.511 383.684L155.663 365.943L164.958 348.279C168.064 342.398 171.222 336.536 174.431 330.692Z" fill="#DBDBDB"/>
<path d="M80.1394 358.866L65.655 359.164L58.3023 359.297C55.8404 359.297 53.3674 359.297 50.9055 359.352H50.4198V358.866L50.3535 346.512V345.949H50.9055L65.5225 346.015C70.4022 346.015 75.2708 346.137 80.1394 346.192H80.4486V346.49C80.4486 348.577 80.3492 350.663 80.305 352.728L80.1394 358.866ZM80.1394 358.866L79.9849 352.617C79.9849 350.564 79.8634 348.533 79.8414 346.512L80.1394 346.81C75.2708 346.866 70.4022 346.987 65.5225 346.987L50.9055 347.064L51.4575 346.512V358.866L50.9607 358.369C53.3674 358.369 55.7742 358.369 58.1919 358.424L65.4562 358.557L80.1394 358.866Z" fill="#EBEBEB"/>
<path d="M63.8328 374.444L49.3483 374.742L41.9957 374.874C39.5338 374.874 37.0608 374.874 34.5989 374.929H34.1131V374.444L34.0469 362.112V361.549H34.5989L49.2158 361.615C54.0845 361.615 58.9642 361.737 63.8328 361.792H64.1419V362.112C64.1419 364.198 64.0536 366.285 63.9984 368.349L63.8328 374.444ZM63.8328 374.444L63.6782 368.195C63.6782 366.141 63.5568 364.11 63.5347 362.09L63.8328 362.388C58.9642 362.443 54.0845 362.565 49.2158 362.565L34.5989 362.631L35.1509 362.09L35.0957 374.444L34.5989 373.947C37.0056 373.947 39.4123 373.947 41.8301 373.947L49.0944 374.079L63.8328 374.444Z" fill="#EBEBEB"/>
<path d="M373.814 150.806L359.318 151.115L351.966 151.237C349.515 151.237 347.042 151.237 344.58 151.303H344.094V150.806L344.039 138.452V137.9H344.591L359.208 137.967C364.077 137.967 368.956 138.099 373.825 138.154H374.134V138.452C374.134 140.55 374.046 142.637 373.991 144.69L373.814 150.806ZM373.814 150.806L373.659 144.569C373.659 142.504 373.538 140.473 373.516 138.452L373.814 138.75C368.945 138.75 364.066 138.927 359.197 138.938L344.58 139.004L345.132 138.452L345.066 150.806L344.58 150.309C346.987 150.309 349.393 150.309 351.8 150.376L359.064 150.497L373.814 150.806Z" fill="#EBEBEB"/>
<path d="M357.508 166.384L343.013 166.704L335.66 166.826C333.209 166.881 330.736 166.825 328.274 166.892H327.777V166.395V154.041V153.456H328.329L342.946 153.522C347.815 153.522 352.684 153.655 357.563 153.71H357.861V154.008C357.861 156.106 357.762 158.192 357.718 160.246L357.508 166.384ZM357.508 166.384L357.353 160.146C357.298 158.082 357.221 156.05 357.199 154.03L357.508 154.328C352.628 154.383 347.76 154.505 342.891 154.516L328.274 154.582L328.826 154.03L328.76 166.384L328.274 165.887C330.681 165.887 333.088 165.887 335.494 165.953L342.759 166.075L357.508 166.384Z" fill="#EBEBEB"/>
<path d="M341.257 150.806L326.772 151.115L319.419 151.237C316.958 151.237 314.496 151.237 312.023 151.303H311.537V150.806L311.471 138.452V137.9H312.023L326.64 137.967C331.519 137.967 336.388 138.099 341.257 138.154H341.566V138.452C341.566 140.55 341.466 142.637 341.422 144.69L341.257 150.806ZM341.257 150.806L341.135 144.624C341.135 142.559 341.014 140.528 340.992 138.508L341.29 138.806C336.421 138.806 331.552 138.982 326.673 138.993L312.056 139.06L312.608 138.508L312.553 150.861L312.056 150.365C314.474 150.365 316.869 150.365 319.287 150.431L326.551 150.552L341.257 150.806Z" fill="#EBEBEB"/>
<path d="M517.399 374.444L502.904 374.742L495.551 374.874C493.1 374.874 490.627 374.874 488.165 374.929H487.669V374.444L487.613 362.112V361.549H488.165L502.782 361.615C507.651 361.615 512.531 361.737 517.399 361.792H517.697V362.112C517.697 364.198 517.609 366.285 517.554 368.349L517.399 374.444ZM517.399 374.444L517.245 368.195C517.245 366.141 517.112 364.11 517.101 362.09L517.399 362.388C512.531 362.443 507.651 362.565 502.782 362.565L488.165 362.631L488.717 362.09L488.651 374.444L488.165 373.947C490.572 373.947 492.979 373.947 495.385 373.947L502.65 374.079L517.399 374.444Z" fill="#EBEBEB"/>
<path d="M501.095 72.3009L486.599 72.599L479.247 72.7314C476.796 72.7314 474.323 72.7314 471.861 72.7866H471.408V72.2899V59.9361V59.373H471.971L486.588 59.4393C491.457 59.4393 496.325 59.5607 501.205 59.6159H501.503V59.914C501.503 62.0116 501.404 64.0871 501.36 66.1516L501.095 72.3009ZM501.095 72.3009L500.94 66.0522C500.885 63.9988 500.808 61.9674 500.786 59.9471L501.095 60.2452C496.215 60.2452 491.346 60.4218 486.478 60.4218L471.861 60.4991L472.413 59.9471L472.347 72.3009L471.861 71.8041C474.268 71.8041 476.663 71.8041 479.081 71.8703L486.345 71.9918L501.095 72.3009Z" fill="#EBEBEB"/>
<path d="M517.399 87.8782L502.904 88.1763L495.551 88.3088C493.1 88.3088 490.627 88.3088 488.165 88.364H487.669V87.8782L487.613 75.5245V74.9614H488.165L502.782 75.0277C507.651 75.0277 512.531 75.1491 517.399 75.2043H517.697V75.5024C517.697 77.5889 517.609 79.6755 517.554 81.74L517.399 87.8782ZM517.399 87.8782L517.245 81.6296C517.245 79.5761 517.112 77.5448 517.101 75.5245L517.399 75.8225C512.531 75.8225 507.651 75.9992 502.782 75.9992L488.165 76.0765L488.717 75.5245L488.651 87.8782L488.165 87.3814C490.572 87.3814 492.979 87.3814 495.385 87.4477L502.65 87.5691L517.399 87.8782Z" fill="#EBEBEB"/>
<path d="M80.1394 72.3011L65.655 72.5991L58.3023 72.7316C55.8404 72.7316 53.3674 72.7316 50.9055 72.7868H50.4198V72.29L50.3535 59.9473V59.3843H50.9055L65.5225 59.4505C70.4022 59.4505 75.2708 59.572 80.1394 59.6272H80.4486V59.9252C80.4486 62.0228 80.3492 64.0984 80.305 66.1628L80.1394 72.3011ZM80.1394 72.3011L79.9849 66.0524C79.9849 63.999 79.8634 61.9676 79.8414 59.9473L80.1394 60.2454C75.2708 60.2454 70.4022 60.422 65.5225 60.422L50.9055 60.4993L51.4575 59.9473V72.3011L50.9055 71.7601C53.3122 71.7601 55.719 71.7601 58.1367 71.8263L65.401 71.9478L80.1394 72.3011Z" fill="#EBEBEB"/>
<path d="M44.4805 406.471L102.363 406.195L160.235 406.095L276 405.919L391.766 406.095L449.637 406.195L507.52 406.471L449.637 406.736L391.766 406.835L276 407.012L160.235 406.835L102.363 406.736L44.4805 406.471Z" fill="#263238"/>
<path d="M282.58 507.122C414.079 507.122 520.68 494.963 520.68 479.964C520.68 464.965 414.079 452.806 282.58 452.806C151.081 452.806 44.4805 464.965 44.4805 479.964C44.4805 494.963 151.081 507.122 282.58 507.122Z" fill="#EBEBEB"/>
<path d="M187.548 62.166H155.488V406.316H187.548V62.166Z" fill="#263238"/>
<path d="M396.513 62.166H364.453V406.316H396.513V62.166Z" fill="#455A64"/>
<path d="M364.454 95.915H168.648V107.474H364.454V95.915Z" fill="#37474F"/>
<path d="M364.454 170.623H168.648V182.182H364.454V170.623Z" fill="#37474F"/>
<path d="M364.454 245.331H168.648V256.889H364.454V245.331Z" fill="#37474F"/>
<path d="M364.454 320.038H168.648V331.597H364.454V320.038Z" fill="#37474F"/>
<path d="M364.454 394.746H168.648V406.305H364.454V394.746Z" fill="#37474F"/>
<path d="M251.988 108.048H191.312V170.612H251.988V108.048Z" fill="#EBEBEB"/>
<path d="M283.332 108.048H252V170.623H283.332V108.048Z" fill="#DBDBDB"/>
<path d="M226.806 122.577H225.526H224.554L224.002 121.462L223.229 122.577L222.181 120.27L221.187 122.577H218.35H217.058L216.583 121.042L216.142 122.577H215.303V108.048H226.806V122.577Z" fill="#DBDBDB"/>
<path d="M281.168 166.626C278.85 162.21 276.55 157.747 274.268 153.235L267.479 139.777L260.767 126.264C258.559 121.745 256.351 117.219 254.143 112.685C256.461 117.101 258.761 121.565 261.043 126.077L267.843 139.534L274.556 153.047C276.786 157.559 278.99 162.085 281.168 166.626Z" fill="#EBEBEB"/>
<path d="M281.168 112.685C278.96 117.226 276.752 121.753 274.544 126.264L267.832 139.777L261.031 153.246C258.757 157.721 256.457 162.181 254.131 166.626C256.339 162.085 258.547 157.559 260.755 153.047L267.467 139.534L274.257 126.077C276.553 121.594 278.857 117.13 281.168 112.685Z" fill="#EBEBEB"/>
<path d="M247.992 160.002H241.258V166.737H247.992V160.002Z" fill="white"/>
<path d="M290.209 206.415H229.533V245.331H290.209V206.415Z" fill="#DBDBDB"/>
<path d="M321.54 206.415H290.209V245.331H321.54V206.415Z" fill="#C7C7C7"/>
<path d="M265.015 220.932H263.735H262.763L262.211 219.817L261.438 220.932L260.401 218.636L259.407 220.932H256.559H255.267L254.792 219.398L254.362 220.932H253.512V206.415H265.015V220.932Z" fill="white"/>
<path d="M319.389 243.012C317.055 240.186 314.755 237.352 312.489 234.512L305.688 225.956L298.976 217.366C296.768 214.496 294.56 211.618 292.352 208.733C294.685 211.559 296.985 214.393 299.252 217.234L306.052 225.79L312.765 234.379C315.002 237.249 317.21 240.127 319.389 243.012Z" fill="#DBDBDB"/>
<path d="M319.389 208.733C317.181 211.618 314.973 214.496 312.765 217.366L306.052 225.956L299.252 234.512C296.977 237.352 294.677 240.186 292.352 243.012C294.56 240.127 296.768 237.249 298.976 234.379L305.688 225.79L312.489 217.245C314.763 214.397 317.063 211.559 319.389 208.733Z" fill="#DBDBDB"/>
<path d="M506.296 471.408C506.02 468.814 476.201 404.572 473.518 402.85C472.502 402.176 462.887 405.974 451.438 410.898L451.074 411.052C448.711 412.057 405.004 423.803 405.004 423.803L424.346 465.888L469.82 452.761L470.515 452.419C470.515 452.419 492.926 471.905 496.084 473.483C499.241 475.062 506.594 474.047 506.296 471.408Z" fill="#D78065"/>
<path d="M442.705 413.536L462.577 454.815L469.731 452.75L470.438 452.419C470.438 452.419 492.849 471.905 495.995 473.483C499.142 475.062 506.527 474.047 506.218 471.452C505.909 468.858 476.123 404.605 473.44 402.894C472.425 402.22 462.809 406.007 451.36 410.942L451.018 411.096C450.433 411.35 447.231 412.278 442.705 413.536Z" fill="#EBEBEB"/>
<path d="M506.549 471.772C506.273 469.156 476.388 404.174 473.683 402.419C472.667 401.746 462.941 405.543 451.338 410.467L470.481 452.419C470.481 452.419 493.047 472.181 496.215 473.793C499.384 475.405 506.836 474.389 506.549 471.772Z" fill="#059CE1"/>
<path d="M503.525 472.037C498.247 461.273 478.033 417.312 473.617 406.272C473.617 406.184 473.617 406.162 473.694 406.272C479.148 416.826 499.086 460.92 503.734 471.971C503.801 472.192 503.635 472.269 503.525 472.037Z" fill="#263238"/>
<path d="M491.954 470.69C491.367 469.495 491.035 468.191 490.978 466.861C490.921 465.531 491.14 464.203 491.623 462.962C492.466 460.715 494.148 458.882 496.315 457.851C496.382 457.851 496.437 457.939 496.382 457.983C494.395 459.345 492.903 461.314 492.13 463.595C491.358 465.876 491.347 468.347 492.098 470.635C492.131 470.712 491.999 470.779 491.954 470.69Z" fill="#263238"/>
<path d="M473.506 456.151C471.442 451.812 470.647 446.049 472.976 441.699C473.064 441.534 473.296 441.699 473.296 441.821C473.051 446.553 473.31 451.297 474.069 455.974C474.081 456.045 474.066 456.117 474.029 456.178C473.991 456.24 473.933 456.285 473.864 456.306C473.796 456.328 473.722 456.324 473.656 456.295C473.59 456.267 473.537 456.215 473.506 456.151Z" fill="#263238"/>
<path d="M476.365 458.911C474.301 454.572 473.506 448.82 475.835 444.47C475.924 444.294 476.156 444.47 476.156 444.592C475.91 449.32 476.17 454.061 476.928 458.734C476.94 458.805 476.926 458.877 476.888 458.938C476.85 458.999 476.792 459.045 476.723 459.066C476.655 459.088 476.581 459.084 476.515 459.055C476.45 459.027 476.396 458.975 476.365 458.911Z" fill="#263238"/>
<path d="M479.225 461.671C477.16 457.343 476.365 451.58 478.695 447.23C478.783 447.065 479.015 447.23 479.015 447.352C478.77 452.084 479.029 456.828 479.788 461.505C479.795 461.575 479.778 461.645 479.74 461.703C479.701 461.761 479.643 461.804 479.576 461.824C479.508 461.843 479.437 461.839 479.372 461.811C479.308 461.783 479.256 461.733 479.225 461.671Z" fill="#263238"/>
<path d="M482.085 464.431C480.021 460.103 479.237 454.34 481.555 449.99C481.644 449.825 481.876 449.99 481.876 450.112C481.63 454.844 481.89 459.588 482.648 464.265C482.656 464.335 482.639 464.405 482.6 464.463C482.561 464.521 482.503 464.564 482.436 464.584C482.369 464.603 482.297 464.599 482.233 464.571C482.169 464.543 482.117 464.493 482.085 464.431Z" fill="#263238"/>
<path d="M464.52 413.823C462.312 408.922 469.896 405.444 472.126 410.346C474.356 415.248 466.761 418.725 464.52 413.823Z" fill="#263238"/>
<path d="M470.305 462.918C472.259 459.176 472.513 454.705 473.242 450.62C473.251 450.528 473.239 450.436 473.205 450.35C473.172 450.264 473.118 450.188 473.049 450.127C472.98 450.067 472.897 450.024 472.807 450.002C472.718 449.98 472.625 449.98 472.535 450.001C472.535 449.924 472.436 449.869 472.347 449.913C468.495 452.077 465.279 455.214 463.019 459.01C461.749 461.218 461.23 464.839 464.123 466.208C467.015 467.577 469.124 465.115 470.305 462.918ZM466.75 464.784C461.804 466.528 463.438 460.578 464.542 458.966C465.207 457.932 465.945 456.947 466.75 456.018C468.435 454.122 470.214 452.313 472.082 450.598C471.597 452.585 471.299 454.594 470.901 456.603C470.36 458.988 469.477 463.824 466.75 464.784Z" fill="#263238"/>
<path d="M462.401 435.716C459.718 437.36 460.59 440.893 462.091 442.991C464.729 446.532 468.251 449.319 472.303 451.072C472.322 451.079 472.341 451.082 472.36 451.08C472.379 451.079 472.398 451.073 472.415 451.064C472.432 451.054 472.446 451.041 472.458 451.025C472.469 451.01 472.476 450.992 472.48 450.973C472.833 450.973 473.242 450.697 473.12 450.277C472.016 446.281 471.266 441.876 468.936 438.343C467.578 436.279 464.951 434.148 462.401 435.716ZM470.129 444.548C470.736 446.502 471.233 448.478 471.917 450.399C469.93 448.82 467.887 447.33 466.055 445.552C465.167 444.704 464.333 443.801 463.56 442.847C462.401 441.346 460.115 435.594 465.216 436.831C468.097 437.526 469.433 442.251 470.162 444.57L470.129 444.548Z" fill="#263238"/>
<path d="M347.618 286.687C347.618 286.687 348.423 311.869 352.199 324.278C352.199 324.278 356.317 326.486 357.554 327.215C357.554 327.215 326.266 402.132 328.044 430.991C328.629 440.441 339.338 455.974 350.124 462.697C369.245 474.599 462.61 464.155 462.61 464.155L449.064 408.027C449.064 408.027 390.033 411.339 388.543 408.116C386.655 404.064 398.402 372.556 407.797 346.954C408.735 344.371 418.185 334.81 417.081 317.566C416.242 306.884 413.49 296.439 408.956 286.731L347.618 286.687Z" fill="#37474F"/>
<path d="M438.288 414.221C425.405 413.978 414.917 415.071 402.033 415.082H387.504C386.392 415.108 385.28 415.004 384.192 414.773C383.166 414.603 382.24 414.056 381.598 413.238C380.748 411.958 381.2 410.335 381.498 408.955C382.146 405.93 382.882 402.92 383.706 399.924C386.952 387.78 391.192 375.879 395.177 363.945L401.227 345.552C401.724 344.062 402.22 342.56 402.85 341.136C403.45 339.809 404.128 338.519 404.881 337.272C406.338 334.886 407.509 332.337 408.37 329.677C411.858 318.228 408.513 306.382 404.44 295.574C403.888 294.128 403.336 292.681 402.728 291.246C402.728 291.147 402.53 291.191 402.574 291.301C406.283 302.706 410.71 314.574 408.215 326.74C407.64 329.603 406.639 332.364 405.245 334.932C404.528 336.234 403.744 337.504 403.037 338.818C402.343 340.158 401.742 341.545 401.238 342.969C399.03 349.008 397.131 355.113 395.089 361.251C391.015 373.395 386.731 385.451 383.342 397.782C382.503 400.851 381.719 403.943 381.024 407.045C380.516 409.341 379.368 412.454 381.366 414.353C382.834 415.744 385.131 415.91 387.04 415.932C390.253 415.932 393.455 415.932 396.667 415.932C409.728 415.932 436.698 414.828 438.321 414.773C438.395 414.768 438.463 414.735 438.512 414.68C438.56 414.625 438.585 414.553 438.581 414.48C438.576 414.407 438.543 414.339 438.488 414.29C438.433 414.241 438.361 414.216 438.288 414.221Z" fill="#263238"/>
<path d="M452.718 461.472C451.459 454.914 450.245 448.323 448.799 441.81C447.352 435.296 445.774 428.761 444.084 422.28C443.599 420.447 443.113 418.626 442.616 416.76C442.384 415.888 442.152 415.027 441.899 414.155C441.685 413.266 441.416 412.393 441.093 411.538C441.093 411.45 440.927 411.538 440.938 411.593C441.116 413.291 441.415 414.973 441.832 416.628C442.152 418.206 442.451 419.796 442.782 421.375C443.459 424.628 444.147 427.877 444.846 431.123C446.27 437.626 447.882 444.073 449.538 450.52C450.488 454.175 451.426 457.84 452.387 461.494C452.442 461.77 452.762 461.726 452.718 461.472Z" fill="#263238"/>
<path d="M338.764 378.462L405.004 354.461C405.931 351.911 406.858 349.383 407.764 346.91C408.669 344.437 418.152 334.766 417.059 317.51C416.226 306.831 413.474 296.389 408.934 286.687H347.618C347.618 286.687 348.413 311.869 352.199 324.223C352.199 324.223 356.317 326.431 357.554 327.17C357.554 327.215 347.22 351.944 338.764 378.462Z" fill="#263238"/>
<path d="M238.011 474.466C240.506 475.217 311.295 472.876 313.933 471.077C314.949 470.415 315.203 460.037 315.159 447.584V447.186C315.159 444.614 309.297 401.437 309.297 401.437L259.749 402.96L269.475 448.224V448.997C269.475 448.997 242.88 461.98 240.131 464.265C237.382 466.55 235.505 473.726 238.011 474.466Z" fill="#D78065"/>
<path d="M238.013 474.477C240.508 475.228 311.296 472.876 313.935 471.077C314.951 470.403 315.216 460.037 315.16 447.584V447.186C315.16 446.48 314.719 442.77 314.056 437.681L267.578 439.491L269.433 448.191V448.964C269.433 448.964 242.727 461.98 240.033 464.265C237.339 466.55 235.507 473.726 238.013 474.477Z" fill="#EBEBEB"/>
<path d="M237.471 474.775C239.999 475.526 311.439 473.152 314.144 471.342C315.16 470.657 315.425 460.224 315.38 447.617L269.288 449.019C269.288 449.019 242.329 462.167 239.613 464.475C236.897 466.782 234.943 474.024 237.471 474.775Z" fill="#059CE1"/>
<path d="M238.398 471.883C250.376 471.187 298.721 469.531 310.611 469.752C310.71 469.752 310.71 469.818 310.611 469.829C298.765 470.768 250.398 472.037 238.409 472.037C238.155 472.081 238.144 471.905 238.398 471.883Z" fill="#263238"/>
<path d="M244.128 461.748C245.459 461.667 246.792 461.864 248.042 462.326C249.293 462.788 250.434 463.505 251.392 464.431C253.131 466.082 254.167 468.34 254.285 470.735C254.285 470.812 254.152 470.812 254.141 470.735C253.652 468.378 252.412 466.243 250.606 464.65C248.801 463.058 246.528 462.094 244.128 461.903C244.108 461.903 244.088 461.895 244.073 461.88C244.059 461.866 244.051 461.846 244.051 461.825C244.051 461.805 244.059 461.785 244.073 461.771C244.088 461.756 244.108 461.748 244.128 461.748Z" fill="#263238"/>
<path d="M264.675 450.355C269.477 450.134 275.085 451.646 278.199 455.466C278.32 455.61 278.11 455.786 277.967 455.709C273.698 453.657 269.224 452.062 264.619 450.951C264.58 450.947 264.542 450.936 264.507 450.918C264.473 450.899 264.442 450.874 264.417 450.844C264.392 450.814 264.373 450.779 264.361 450.741C264.349 450.704 264.345 450.664 264.349 450.625C264.353 450.586 264.364 450.548 264.382 450.513C264.4 450.478 264.426 450.448 264.456 450.422C264.486 450.397 264.521 450.378 264.558 450.367C264.596 450.355 264.635 450.351 264.675 450.355Z" fill="#263238"/>
<path d="M261.02 451.922C265.823 451.702 271.431 453.203 274.544 457.034C274.666 457.177 274.456 457.343 274.312 457.277C270.046 455.22 265.571 453.625 260.965 452.519C260.886 452.511 260.813 452.473 260.762 452.412C260.712 452.351 260.687 452.272 260.695 452.193C260.702 452.114 260.74 452.041 260.801 451.99C260.863 451.94 260.941 451.915 261.02 451.922Z" fill="#263238"/>
<path d="M257.366 453.49C262.168 453.269 267.777 454.771 270.89 458.602C271.011 458.745 270.802 458.911 270.658 458.844C266.391 456.788 261.917 455.192 257.311 454.086C257.232 454.079 257.159 454.04 257.108 453.979C257.057 453.918 257.033 453.84 257.04 453.761C257.048 453.682 257.086 453.609 257.147 453.558C257.208 453.507 257.287 453.483 257.366 453.49Z" fill="#263238"/>
<path d="M253.712 455.058C258.514 454.837 264.122 456.338 267.236 460.169C267.357 460.313 267.147 460.478 267.004 460.412C262.737 458.355 258.262 456.76 253.657 455.654C253.617 455.65 253.579 455.639 253.545 455.621C253.51 455.602 253.479 455.577 253.454 455.547C253.429 455.517 253.41 455.482 253.398 455.444C253.387 455.407 253.382 455.367 253.386 455.328C253.39 455.289 253.401 455.251 253.419 455.216C253.438 455.181 253.463 455.151 253.493 455.125C253.523 455.1 253.558 455.081 253.596 455.07C253.633 455.058 253.673 455.054 253.712 455.058Z" fill="#263238"/>
<path d="M307.178 458.469C312.565 458.304 312.83 466.672 307.432 466.838C302.033 467.003 301.79 458.635 307.178 458.469Z" fill="#263238"/>
<path d="M259.683 444.746C262.388 448.003 266.396 449.979 269.895 452.22C269.976 452.264 270.066 452.287 270.158 452.289C270.25 452.291 270.341 452.271 270.424 452.231C270.506 452.192 270.579 452.133 270.635 452.06C270.69 451.987 270.728 451.902 270.745 451.812C270.823 451.812 270.9 451.812 270.889 451.668C270.394 447.272 268.749 443.083 266.12 439.524C264.552 437.482 261.428 435.616 259.065 437.714C256.703 439.812 258.116 442.848 259.683 444.746ZM259.33 440.783C259.639 435.55 264.475 439.403 265.568 440.949C266.259 441.966 266.882 443.028 267.433 444.128C268.604 446.336 269.432 448.787 270.37 451.15C268.725 449.935 266.981 448.875 265.292 447.727C263.282 446.369 259.164 443.676 259.33 440.783Z" fill="#263238"/>
<path d="M287.813 448.036C287.339 444.923 283.74 444.36 281.189 444.934C276.904 445.994 272.971 448.16 269.785 451.216C269.769 451.227 269.756 451.242 269.747 451.259C269.738 451.277 269.734 451.296 269.734 451.315C269.734 451.335 269.738 451.354 269.747 451.371C269.756 451.389 269.769 451.403 269.785 451.415C269.737 451.495 269.71 451.585 269.704 451.679C269.699 451.772 269.715 451.865 269.753 451.95C269.791 452.036 269.849 452.111 269.922 452.169C269.994 452.228 270.08 452.268 270.172 452.287C274.289 452.784 278.639 453.832 282.79 453.049C285.285 452.64 288.266 450.984 287.813 448.036ZM276.641 451.757C274.61 451.569 272.6 451.271 270.558 451.15C272.744 449.86 274.996 448.685 277.303 447.628C278.423 447.125 279.578 446.705 280.759 446.369C282.592 445.873 288.774 445.994 285.672 450.222C283.949 452.552 279.07 452 276.641 451.757Z" fill="#263238"/>
<path d="M265.435 444.735H320.867C320.867 444.735 310.997 369.277 314.243 364.353C315.689 362.145 387.648 369.398 408.701 346.601C427.944 325.746 408.359 286.687 408.359 286.687H349.295C349.295 286.687 348.092 303.434 344.879 310.125C343.521 312.995 277.535 308.899 267.202 327.789C253.468 352.949 265.435 444.735 265.435 444.735Z" fill="#37474F"/>
<path d="M315.027 434.192C308.768 434.004 302.497 433.762 296.259 433.773C290.022 433.784 283.707 433.905 277.425 434.148C275.659 434.225 270.426 434.468 269.587 434.534C268.729 434.552 267.874 434.626 267.025 434.755C266.926 434.755 266.948 434.91 267.025 434.921C268.383 435.153 282.57 435.318 285.683 435.318C291.921 435.318 298.147 435.153 304.385 434.932C307.932 434.814 311.476 434.682 315.016 434.534C315.204 434.523 315.226 434.203 315.027 434.192Z" fill="#263238"/>
<path d="M351.735 304.77C351.989 302.993 352.221 301.215 352.43 299.449C352.905 295.397 353.325 291.313 353.446 287.239C353.446 286.919 353.004 286.952 352.971 287.239C352.585 290.385 352.298 293.543 351.945 296.689C351.591 299.835 351.315 302.982 350.73 306.073C350.554 307 350.156 308.557 348.975 308.579C347.374 308.579 347.065 306.437 346.932 305.267C346.633 302.333 346.578 299.379 346.767 296.435C346.943 293.123 347.363 289.745 347.738 286.422C347.738 286.3 347.551 286.278 347.529 286.422C346.149 292.902 344.824 299.67 345.972 306.294C346.012 306.96 346.232 307.603 346.609 308.153C346.987 308.703 347.507 309.141 348.114 309.418H348.18C348.178 309.455 348.178 309.492 348.18 309.528C348.18 309.716 348.18 309.904 348.18 310.092C348.169 310.25 348.169 310.408 348.18 310.566C348.18 310.897 348.18 311.218 348.18 311.549C348.18 311.613 348.206 311.675 348.251 311.721C348.297 311.766 348.358 311.792 348.423 311.792C348.487 311.792 348.549 311.766 348.595 311.721C348.64 311.675 348.666 311.613 348.666 311.549C348.707 311.542 348.746 311.523 348.775 311.493C348.805 311.463 348.825 311.425 348.831 311.383C348.953 310.749 348.953 310.097 348.831 309.462C349.226 309.462 349.614 309.36 349.958 309.167C350.302 308.973 350.591 308.695 350.796 308.358C351.376 307.248 351.697 306.022 351.735 304.77Z" fill="#263238"/>
<path d="M345.863 309.562C350.394 312.67 354.646 316.169 358.57 320.016C358.605 320.044 358.628 320.085 358.633 320.129C358.638 320.174 358.625 320.219 358.597 320.254C358.57 320.289 358.529 320.312 358.484 320.317C358.44 320.322 358.395 320.309 358.36 320.281C354.032 316.969 349.528 313.657 345.454 310.08C345.393 310.024 345.355 309.946 345.349 309.863C345.342 309.78 345.367 309.698 345.419 309.632C345.47 309.567 345.545 309.523 345.627 309.51C345.709 309.497 345.793 309.515 345.863 309.562Z" fill="#263238"/>
<path d="M394.415 312.774C393.136 312.778 391.859 312.682 390.595 312.487C389.477 312.264 388.371 311.98 387.283 311.637C385.241 311.041 382.746 310.323 381.255 308.7C379.809 306.929 378.654 304.939 377.833 302.805C376.803 300.575 376.125 298.199 375.824 295.762C375.824 295.662 375.636 295.662 375.647 295.762C375.806 298.283 376.228 300.78 376.905 303.214C377.276 304.422 377.741 305.6 378.297 306.735C378.796 307.88 379.462 308.944 380.273 309.893C381.929 311.67 384.622 312.542 386.897 313.006C389.382 313.459 391.929 313.459 394.415 313.006C394.625 313.028 394.57 312.785 394.415 312.774Z" fill="#263238"/>
<path d="M308.304 360.776C308.434 360.119 308.766 359.518 309.252 359.058C309.739 358.597 310.356 358.299 311.02 358.204C312.61 358.027 314.214 357.994 315.811 358.105C319.498 358.105 323.197 358.182 326.851 358.193C341.402 358.193 356.074 357.817 370.382 354.947C377.387 353.637 384.236 351.599 390.817 348.864C396.337 346.457 401.912 343.167 405.378 338.056C409.364 332.183 409.673 324.488 409.529 317.61C409.387 310.184 408.19 302.817 405.975 295.729C405.401 293.929 404.771 292.152 404.054 290.407C404.054 290.297 404.175 290.197 404.219 290.308C407.126 297.003 409.052 304.083 409.938 311.328C410.37 314.906 410.532 318.512 410.424 322.114C410.42 325.65 409.964 329.171 409.066 332.591C405.29 345.464 390.872 350.774 379.258 354.042C365.215 357.983 350.554 359.076 336.058 359.286C328.772 359.396 321.463 359.286 314.166 359.186C312.775 359.186 310.479 358.778 309.651 360.235C309.284 361.079 309.064 361.978 308.999 362.896C308.845 363.923 308.723 364.949 308.646 365.987C308.443 369.869 308.495 373.759 308.8 377.634C309.264 385.502 309.809 393.374 310.434 401.249C311.064 409.153 311.947 417.047 312.521 424.963C312.664 426.906 312.852 428.838 313.04 430.77C313.04 430.991 312.676 431.035 312.642 430.77C310.622 415.126 309.176 399.427 308.149 383.695C307.895 379.809 307.608 375.912 307.498 372.026C307.259 368.257 307.531 364.473 308.304 360.776Z" fill="#263238"/>
<path d="M343.798 363.669C348.722 363.601 353.636 363.233 358.515 362.565C363.118 361.991 367.7 361.361 372.271 360.589C380.219 359.231 388.345 357.74 395.841 354.715C399.957 353.128 403.792 350.892 407.201 348.091C407.289 348.014 407.422 348.146 407.334 348.224C401.659 353.744 394.461 356.978 386.888 359.032C378.197 361.299 369.335 362.854 360.392 363.68C354.86 364.162 349.305 364.324 343.754 364.166C343.713 364.137 343.679 364.097 343.658 364.051C343.636 364.006 343.628 363.955 343.632 363.904C343.636 363.854 343.654 363.805 343.683 363.764C343.713 363.723 343.752 363.69 343.798 363.669Z" fill="#263238"/>
<path d="M361.008 220.049C361.174 238.188 356.25 265.711 349.46 279.047C344.602 288.575 315.689 307.321 300.332 311.538C294.9 313.039 292.196 290.463 294.812 284.931C296.402 281.619 325.293 265.578 328.252 261.162C332.745 254.439 341.854 235.362 348.588 219.056C352.176 210.456 360.875 208.778 361.008 220.049Z" fill="#D78065"/>
<path d="M304.318 279.787C304.318 279.787 295.806 278.76 291.975 279.135C288.144 279.511 274.311 286.168 275.614 289.226C277.259 293.178 285.969 290.904 290.098 289.226C290.098 289.226 293.874 298.367 300.487 298.058C307.1 297.749 304.318 279.787 304.318 279.787Z" fill="#D78065"/>
<path d="M305.346 309.628C302.343 310.975 288.057 315.91 283.774 316.395C279.49 316.881 267.059 317.389 266.352 314.187C265.646 310.986 269.267 310.511 269.267 310.511C269.267 310.511 263.99 309.893 263.581 306.559C263.173 303.225 268.825 302.728 268.825 302.728C268.825 302.728 263.449 301.701 263.305 298.312C263.162 294.922 268.914 295.408 268.914 295.408C268.914 295.408 263.957 294.702 264.972 291.875C266.198 288.486 275.195 290.838 279.887 289.943C280.991 289.734 301.184 284.302 301.184 284.302L305.346 309.628Z" fill="#D78065"/>
<path d="M268.383 295.386C275.007 297.097 278.198 296.7 284.612 294.635C284.744 294.635 284.833 294.779 284.7 294.834C278.606 297.418 274.676 298.488 268.284 295.695C267.975 295.563 268.074 295.298 268.383 295.386Z" fill="#263238"/>
<path d="M268.272 302.496C275.304 303.677 278.771 303.28 285.649 301.613C285.748 301.613 285.792 301.756 285.649 301.789C279.025 303.997 275.095 304.958 268.228 302.893C267.985 302.816 267.985 302.496 268.272 302.496Z" fill="#263238"/>
<path d="M269.62 310.368C276.509 311.019 280.328 310.743 286.798 308.27C286.952 308.215 287.052 308.436 286.908 308.502C280.549 311.659 275.791 312.046 269.62 310.577C269.2 310.478 269.189 310.323 269.62 310.368Z" fill="#263238"/>
<path d="M276.421 290.164C280.516 292.692 285.782 290.164 289.911 288.817C289.971 288.796 290.036 288.79 290.099 288.798C290.162 288.807 290.222 288.831 290.274 288.868C290.326 288.905 290.368 288.953 290.397 289.01C290.426 289.066 290.441 289.129 290.441 289.193C292.285 292.913 295.961 297.638 300.3 298.29C300.326 298.29 300.352 298.3 300.37 298.319C300.389 298.338 300.399 298.363 300.399 298.389C300.399 298.415 300.389 298.441 300.37 298.459C300.352 298.478 300.326 298.488 300.3 298.488C295.553 298.422 291.556 294.072 289.801 289.866C285.595 291.29 280.196 293.609 276.409 290.197C276.376 290.186 276.398 290.153 276.421 290.164Z" fill="#263238"/>
<path d="M336.5 239.336L359.529 254.549C359.529 254.549 362.588 224.344 360.976 215.214C359.165 204.936 354.352 208.104 348.545 216.185C342.738 224.267 336.5 239.336 336.5 239.336Z" fill="#059CE1"/>
<path opacity="0.1" d="M336.5 239.336L359.529 254.549C359.529 254.549 362.588 224.344 360.976 215.214C359.165 204.936 354.352 208.104 348.545 216.185C342.738 224.267 336.5 239.336 336.5 239.336Z" fill="black"/>
<path d="M340.034 235.715C343.235 237.25 352.178 243.211 353.646 244.183C354.43 244.702 357.466 246.877 358.25 247.384C358.349 247.451 358.25 247.594 358.139 247.528C356.638 246.567 355.037 245.75 353.525 244.801C352.012 243.852 342.705 238.111 339.967 235.825C339.923 235.781 340.034 235.671 340.034 235.715Z" fill="#263238"/>
<path d="M417.545 295.53C417.545 295.53 343.246 305.841 343.246 305.852C343.456 307.309 339.316 247.075 353.734 209.307C354.716 206.735 366.032 202.54 371.839 206.569C397.287 224.233 417.678 296.479 417.545 295.53Z" fill="#059CE1"/>
<path opacity="0.1" d="M373.595 207.883L353.149 210.864C353.183 210.747 353.228 210.632 353.281 210.522L373.241 207.574C373.365 207.671 373.483 207.774 373.595 207.883ZM379.225 213.293L351.007 217.488C350.964 217.595 350.93 217.706 350.908 217.819L379.479 213.624L379.225 213.293ZM383.928 219.166L349.174 224.289C349.174 224.399 349.174 224.51 349.097 224.62L384.193 219.464L383.928 219.166ZM387.958 225.139L347.684 231.067L347.618 231.41L388.134 225.437L387.958 225.139ZM391.535 231.178L346.469 237.802C346.469 237.912 346.469 238.023 346.414 238.133L391.678 231.509L391.535 231.178ZM394.847 237.261L345.52 244.525C345.52 244.635 345.52 244.746 345.52 244.856L395.045 237.57C394.913 237.471 394.858 237.36 394.803 237.261H394.847ZM397.872 243.377L344.725 251.204V251.535L398.048 243.686L397.872 243.377ZM400.698 249.526L344.096 257.861V258.193L400.753 249.835C400.713 249.727 400.68 249.617 400.654 249.504L400.698 249.526ZM403.359 255.698L343.61 264.53C343.61 264.64 343.61 264.75 343.61 264.861L403.502 256.029C403.403 255.907 403.359 255.808 403.314 255.698H403.359ZM405.887 261.891L343.257 271.109C343.257 271.22 343.257 271.319 343.257 271.43L406.03 262.189C405.92 262.09 405.876 261.99 405.843 261.891H405.887ZM408.282 268.107L343.025 277.711C343.019 277.818 343.019 277.925 343.025 278.031L408.393 268.405L408.282 268.107ZM410.568 274.333L342.915 284.269C342.903 284.376 342.903 284.483 342.915 284.589L410.678 274.653C410.59 274.532 410.557 274.432 410.524 274.333H410.568ZM412.776 280.571L342.926 290.86V291.169L412.875 280.88L412.776 280.571ZM414.862 286.819L343.025 297.396C343.025 297.506 343.025 297.616 343.025 297.727L414.951 287.139L414.862 286.819ZM416.849 293.101L343.246 303.931C343.246 304.042 343.246 304.152 343.246 304.251L416.927 293.41C416.849 293.311 416.816 293.2 416.783 293.101H416.849Z" fill="black"/>
<path opacity="0.1" d="M360.357 232.833L372.049 231.177C372.049 231.177 374.257 243.178 374.257 243.509C374.257 243.84 368.637 248.4 368.13 248.212C367.622 248.025 362.091 246.49 361.914 246.148C361.737 245.805 360.357 232.833 360.357 232.833Z" fill="black"/>
<path d="M343.179 253.589H270.834V333.695H343.179V253.589Z" fill="#059CE1"/>
<path opacity="0.1" d="M343.179 253.589H270.834V333.695H343.179V253.589Z" fill="black"/>
<path d="M233.486 333.695H270.834V253.589H233.486V333.695Z" fill="#059CE1"/>
<path d="M300.873 270.9H302.397H303.545L304.207 269.564L305.123 270.9L306.382 268.162L307.563 270.9H310.942H312.498L313.05 269.067L313.58 270.9H314.585V253.589H300.873V270.9Z" fill="white"/>
<g opacity="0.1">
<path opacity="0.1" d="M236.059 328.175C238.833 322.479 241.575 316.767 244.283 311.041L252.387 293.808L260.391 276.497C263.04 270.727 265.664 264.931 268.262 259.109C265.502 264.806 262.761 270.521 260.037 276.254L251.934 293.476L243.985 310.787C241.299 316.565 238.657 322.361 236.059 328.175Z" fill="black"/>
<path opacity="0.1" d="M236.059 259.109C238.664 264.931 241.292 270.727 243.941 276.497L251.934 293.808L260.037 311.041C262.753 316.767 265.495 322.479 268.262 328.175C265.664 322.368 263.04 316.572 260.391 310.787L252.387 293.476L244.283 276.254C241.568 270.513 238.826 264.798 236.059 259.109Z" fill="black"/>
</g>
<path d="M355.191 270.91H282.857L270.846 253.578H343.18L355.191 270.91Z" fill="#059CE1"/>
<g opacity="0.2">
<path opacity="0.2" d="M355.191 270.91H282.857L270.846 253.578H343.18L355.191 270.91Z" fill="black"/>
</g>
<path d="M258.845 270.922H221.596L233.607 253.589H270.845L258.845 270.922Z" fill="#059CE1"/>
<path opacity="0.1" d="M258.845 270.922H221.596L233.607 253.589H270.845L258.845 270.922Z" fill="black"/>
<path d="M357.575 219.012C361.23 219.354 368.019 214.154 369.841 208.755C369.962 208.38 368.814 204.914 367.633 200.63C366.915 198.025 366.176 195.11 365.701 192.405C365.601 191.853 349.461 199.559 349.461 199.559C351.028 202.773 352.2 206.165 352.95 209.661C353.006 210.026 353.032 210.395 353.027 210.765C353.022 210.827 353.022 210.89 353.027 210.952C353.049 213.149 353.667 218.592 357.575 219.012Z" fill="#D78065"/>
<path d="M353.005 210.787C352.999 210.849 352.999 210.912 353.005 210.974C353.594 210.944 354.181 210.87 354.76 210.753C364.696 208.755 365.116 195.783 365.06 192.526C362.124 193.487 349.428 199.559 349.428 199.559C350.995 202.772 352.167 206.164 352.916 209.66C352.978 210.033 353.007 210.409 353.005 210.787Z" fill="#263238"/>
<path d="M365.072 170.778C367.799 176.563 367.148 194.503 363.416 199.018C357.996 205.576 347.861 207.607 341.977 200.806C336.258 194.182 337.561 170.844 341.822 166.582C348.137 160.367 361.01 162.288 365.072 170.778Z" fill="#D78065"/>
<path d="M349.55 183.717C349.55 183.717 349.638 183.783 349.638 183.827C349.561 185.042 349.638 186.433 350.742 186.874V186.94C349.417 186.709 349.285 184.854 349.55 183.717Z" fill="#263238"/>
<path d="M350.665 182.491C352.619 182.403 352.641 186.311 350.842 186.388C349.042 186.466 349.031 182.569 350.665 182.491Z" fill="#263238"/>
<path d="M342.549 183.971C342.549 183.971 342.45 184.026 342.45 184.081C342.505 185.284 342.351 186.676 341.258 187.084V187.161C342.605 186.963 342.781 185.108 342.549 183.971Z" fill="#263238"/>
<path d="M341.458 182.712C339.515 182.58 339.393 186.488 341.193 186.609C342.992 186.731 343.092 182.823 341.458 182.712Z" fill="#263238"/>
<path d="M352.177 180.692C351.663 180.55 351.158 180.377 350.665 180.173C350.106 180.061 349.598 179.771 349.219 179.345C349.127 179.188 349.091 179.005 349.115 178.825C349.139 178.645 349.222 178.479 349.351 178.351C349.64 178.13 349.984 177.992 350.346 177.951C350.707 177.91 351.073 177.968 351.405 178.119C352.127 178.316 352.75 178.777 353.149 179.411C353.235 179.56 353.275 179.73 353.264 179.902C353.253 180.073 353.192 180.237 353.088 180.374C352.984 180.511 352.843 180.614 352.681 180.67C352.519 180.727 352.344 180.734 352.177 180.692Z" fill="#263238"/>
<path d="M339.933 180.758C340.455 180.65 340.971 180.514 341.478 180.349C342.045 180.278 342.573 180.022 342.98 179.621C343.082 179.471 343.132 179.291 343.122 179.109C343.112 178.928 343.043 178.754 342.925 178.616C342.648 178.378 342.313 178.218 341.953 178.154C341.594 178.09 341.224 178.123 340.882 178.252C340.158 178.378 339.508 178.772 339.061 179.356C338.945 179.497 338.877 179.67 338.865 179.852C338.853 180.034 338.899 180.214 338.995 180.369C339.091 180.524 339.233 180.644 339.401 180.714C339.57 180.784 339.755 180.799 339.933 180.758Z" fill="#263238"/>
<path d="M350.753 194.933C350.466 195.22 350.178 195.607 349.737 195.651C349.286 195.651 348.84 195.549 348.434 195.353C348.434 195.353 348.357 195.353 348.379 195.419C348.554 195.656 348.791 195.842 349.063 195.957C349.334 196.071 349.632 196.111 349.925 196.071C350.173 196.001 350.396 195.859 350.563 195.663C350.73 195.466 350.835 195.223 350.863 194.967C350.885 194.922 350.786 194.889 350.753 194.933Z" fill="#263238"/>
<path d="M345.785 192.78C346.301 193.451 346.982 193.976 347.761 194.304C348.189 194.463 348.654 194.49 349.097 194.381C350.058 194.116 350.08 193.277 349.892 192.471C349.788 192.087 349.64 191.717 349.45 191.367C348.41 192.217 347.126 192.712 345.785 192.78Z" fill="#263238"/>
<path d="M347.762 194.304C348.189 194.463 348.655 194.49 349.098 194.381C350.058 194.116 350.08 193.277 349.892 192.471C349.383 192.494 348.896 192.687 348.51 193.019C348.124 193.351 347.86 193.804 347.762 194.304Z" fill="#FF99BA"/>
<path d="M339.281 172.555C339.933 171.01 340.683 169.464 341.6 169.155C342.516 168.846 343.156 171.087 345.254 171.208C348.091 171.374 349.438 168.757 353.401 168.437C359.098 167.996 361.648 172.732 361.858 180.813C362.046 188.033 366.418 188.674 366.418 188.674C366.418 188.674 368.924 172.732 364.386 167.499C359.849 162.266 349.526 160.025 342.659 165.125C340.153 166.98 339.281 172.555 339.281 172.555Z" fill="#263238"/>
<path d="M362.753 185.858C362.753 185.858 366.01 179.698 368.759 180.791C371.508 181.884 369.554 190.473 366.672 191.975C366.318 192.194 365.924 192.339 365.513 192.402C365.102 192.465 364.682 192.444 364.279 192.341C363.876 192.238 363.498 192.055 363.167 191.802C362.837 191.549 362.561 191.233 362.355 190.871L362.753 185.858Z" fill="#D78065"/>
<path d="M368.129 183.264V183.341C366.12 184.445 365.247 186.565 364.717 188.696C364.814 188.468 364.959 188.263 365.142 188.097C365.325 187.93 365.542 187.805 365.779 187.731C366.015 187.656 366.264 187.634 366.51 187.665C366.756 187.696 366.992 187.781 367.201 187.912C367.213 187.917 367.223 187.926 367.23 187.936C367.237 187.947 367.241 187.96 367.241 187.973C367.241 187.986 367.237 187.998 367.23 188.009C367.223 188.02 367.213 188.028 367.201 188.033C366.813 187.961 366.412 188.012 366.054 188.178C365.696 188.344 365.399 188.618 365.203 188.961C364.88 189.531 364.617 190.135 364.419 190.76C364.342 190.959 363.989 190.904 364.033 190.683C363.647 187.912 365.27 183.871 368.129 183.264Z" fill="#263238"/>
<path d="M381.709 220.48C389.106 236.951 405.467 270.712 401.261 283.408C395.741 300.078 366.849 318.46 359.375 323.615C356.118 325.823 339.912 305.079 340.905 300.972C341.899 296.866 372.27 272.809 373.904 270.06C375.538 267.311 368.671 239.976 367.512 224.686C366.032 205.443 375.438 206.536 381.709 220.48Z" fill="#D78065"/>
<path d="M333.41 312.112C334.293 310.301 333.343 309.827 330.098 311.394C326.852 312.962 315.437 321.904 312.654 317.654C309.872 313.404 326.19 301.017 331.765 298.82C337.34 296.623 347.11 295.011 347.11 295.011C344.45 298.08 338.632 306.073 333.41 312.112Z" fill="#D78065"/>
<path d="M367.28 317.168C359.375 325.481 350.058 336.301 337.627 339.855C336.254 340.284 334.777 340.241 333.431 339.734C327.911 341.423 325.427 339.314 325.427 339.314C319.775 339.314 317.556 336.808 317.556 336.808C317.556 336.808 311.02 338.729 309.21 334.976C307.167 330.77 316.739 328.893 321.354 324.653C331.974 314.916 344.35 298.157 347.132 295.011L367.28 317.168Z" fill="#D78065"/>
<path d="M339.669 322.28C336.591 325.157 333.323 327.823 329.888 330.262C325.961 332.7 321.857 334.84 317.611 336.665C317.479 336.72 317.556 336.908 317.699 336.875C326.244 334.164 333.881 329.162 339.779 322.412C339.934 322.258 339.824 322.136 339.669 322.28Z" fill="#263238"/>
<path d="M346.469 327.888C343.223 330.438 337.482 334.887 325.371 339.248C325.371 339.248 325.371 339.326 325.371 339.315C333.346 337.597 340.685 333.694 346.568 328.043C346.778 327.811 346.656 327.656 346.469 327.888Z" fill="#263238"/>
<path d="M350.068 330.88C344.382 335.02 340.275 336.908 333.508 339.712C333.508 339.712 333.508 339.8 333.508 339.789C341.589 337.438 344.261 335.66 350.278 331.079C350.443 330.902 350.289 330.725 350.068 330.88Z" fill="#263238"/>
<path d="M368.737 245.75L396.337 247.075C396.337 247.075 383.564 219.542 377.569 212.509C370.768 204.582 368.207 209.793 367.368 219.685C366.529 229.577 368.737 245.75 368.737 245.75Z" fill="#059CE1"/>
<path opacity="0.1" d="M368.737 245.75L396.337 247.075C396.337 247.075 383.564 219.542 377.569 212.509C370.768 204.582 368.207 209.793 367.368 219.685C366.529 229.577 368.737 245.75 368.737 245.75Z" fill="black"/>
<path d="M369.984 240.805C373.516 240.495 384.236 241.081 386.014 241.158C386.941 241.158 390.673 241.522 391.6 241.555C391.721 241.555 391.688 241.743 391.6 241.743C389.811 241.677 388.023 241.798 386.234 241.743C384.446 241.688 373.527 241.5 369.995 240.937C369.983 240.931 369.972 240.922 369.965 240.911C369.957 240.9 369.953 240.887 369.951 240.874C369.95 240.861 369.953 240.847 369.958 240.835C369.964 240.823 369.973 240.812 369.984 240.805Z" fill="#263238"/>
<path d="M384.005 222.842C383.949 222.732 384.126 222.655 384.181 222.765C385.528 224.973 386.82 227.181 388.067 229.466C387.7 228.163 387.216 226.896 386.621 225.68C386.621 225.68 386.676 225.591 386.71 225.68C387.449 227.075 388.005 228.559 388.366 230.096C389.238 231.674 390.088 233.253 390.927 234.854C393.046 238.894 395.232 242.935 397.12 247.108C397.141 247.159 397.149 247.214 397.142 247.268C397.136 247.322 397.116 247.374 397.084 247.418C397.051 247.463 397.009 247.498 396.959 247.521C396.909 247.544 396.855 247.554 396.8 247.55C395.84 247.473 394.89 247.362 393.941 247.23C393.841 247.23 393.83 247.053 393.941 247.042C394.736 246.976 395.519 246.965 396.314 246.943C394.106 243.09 392.196 239.115 390.154 235.196C388.112 231.277 385.959 226.982 384.005 222.842Z" fill="#263238"/>
<path d="M367.08 234.048C366.793 232.624 366.495 231.2 366.252 229.764C366.506 230.802 366.738 231.851 366.97 232.9C366.848 230.758 366.771 228.627 366.793 226.497H366.848C367.29 229.698 367.555 232.933 367.952 236.146C368.35 239.358 368.626 242.46 368.924 245.618C369.542 245.75 370.171 245.861 370.8 245.971C370.82 245.978 370.837 245.991 370.849 246.007C370.861 246.024 370.867 246.044 370.867 246.065C370.867 246.086 370.861 246.106 370.849 246.123C370.837 246.139 370.82 246.152 370.8 246.159C370.105 246.159 369.409 246.159 368.714 246.159C368.633 246.172 368.551 246.152 368.485 246.105C368.419 246.057 368.374 245.985 368.361 245.905C367.787 241.964 367.345 238 367.08 234.048Z" fill="#263238"/>
<path d="M257.11 389.292H152.705V475.548H257.11V389.292Z" fill="#059CE1"/>
<path d="M298.467 389.292H257.1V475.559H298.467V389.292Z" fill="#059CE1"/>
<path opacity="0.1" d="M298.467 389.292H257.1V475.559H298.467V389.292Z" fill="black"/>
<path d="M295.618 469.619C292.563 463.481 289.527 457.325 286.51 451.149L277.534 432.602L268.702 413.967C265.758 407.74 262.851 401.484 259.98 395.199C263.042 401.337 266.078 407.494 269.088 413.669L278.053 432.216L286.885 450.851C289.829 457.1 292.74 463.356 295.618 469.619Z" fill="#059CE1"/>
<path d="M295.618 395.232C292.74 401.503 289.833 407.759 286.897 414L278.065 432.635L269.1 451.183C266.09 457.365 263.054 463.522 259.992 469.653C262.863 463.382 265.77 457.126 268.714 450.885L277.546 432.249L286.521 413.702C289.532 407.519 292.564 401.363 295.618 395.232Z" fill="#059CE1"/>
<path d="M212.287 407.939H210.642H209.395L208.688 406.493L207.695 407.939L206.359 404.98L205.078 407.939H201.435H199.768L199.172 405.963L198.598 407.939H197.516V389.292H212.287V407.939Z" fill="white"/>
<path d="M359.077 389.292H281.189V475.548H359.077V389.292Z" fill="#059CE1"/>
<path d="M399.295 389.292H359.076V475.548H399.295V389.292Z" fill="#059CE1"/>
<path opacity="0.1" d="M399.295 389.292H359.076V475.548H399.295V389.292Z" fill="black"/>
<g opacity="0.1">
<path opacity="0.1" d="M353.367 469.608C347.649 463.477 341.981 457.324 336.366 451.149L319.607 432.602L303.047 413.967C297.549 407.74 292.117 401.484 286.752 395.199C292.471 401.337 298.138 407.49 303.754 413.658L320.512 432.216L337.072 450.851C342.563 457.093 347.995 463.345 353.367 469.608Z" fill="black"/>
<path opacity="0.1" d="M353.367 395.231C347.987 401.502 342.555 407.758 337.072 413.999L320.512 432.635L303.754 451.182C298.145 457.357 292.478 463.51 286.752 469.641C292.132 463.385 297.564 457.129 303.047 450.873L319.607 432.237L336.366 413.679C341.974 407.519 347.641 401.369 353.367 395.231Z" fill="black"/>
</g>
<path d="M393.631 460.953H386.588V470.9H393.631V460.953Z" fill="white"/>
<path d="M259.031 333.507H170.104V389.281H259.031V333.507Z" fill="#059CE1"/>
<path opacity="0.1" d="M259.031 333.507H170.104V389.281H259.031V333.507Z" fill="black"/>
<path d="M299.262 333.518H259.043V389.303H299.262V333.518Z" fill="#059CE1"/>
<path opacity="0.2" d="M299.262 333.518H259.043V389.303H299.262V333.518Z" fill="black"/>
<path d="M296.49 386.003C293.51 382.175 290.566 378.326 287.658 374.455L278.926 362.841L270.315 351.182C267.452 347.282 264.625 343.374 261.836 339.458C264.78 343.3 267.724 347.149 270.668 351.006L279.39 362.62L288.001 374.289C290.864 378.175 293.694 382.08 296.49 386.003Z" fill="#059CE1"/>
<path d="M296.49 339.458C293.686 343.374 290.856 347.282 288.001 351.182L279.39 362.841L270.668 374.455C267.724 378.319 264.78 382.168 261.836 386.003C264.625 382.08 267.452 378.175 270.315 374.289L278.926 362.62L287.658 351.006C290.558 347.142 293.502 343.293 296.49 339.458Z" fill="#059CE1"/>
<path d="M206.999 96.6442C206.537 101.068 204.855 105.276 202.14 108.8C199.425 112.323 195.784 115.022 191.624 116.597C187.464 118.171 182.949 118.558 178.581 117.716C174.214 116.873 170.167 114.833 166.891 111.824L154.891 113.58L160.896 103.202C159.393 99.5424 158.828 95.5655 159.251 91.632C159.915 85.3003 163.066 79.4913 168.012 75.483C172.958 71.4747 179.294 69.5954 185.626 70.2586C191.958 70.9218 197.767 74.0731 201.775 79.0193C205.783 83.9655 207.663 90.3014 206.999 96.6332V96.6442Z" fill="white"/>
<path d="M206.999 96.6443C206.524 101.059 204.848 105.259 202.153 108.788C201.468 109.664 200.731 110.497 199.945 111.283C199.144 112.07 198.296 112.807 197.406 113.491C193.842 116.177 189.604 117.824 185.162 118.25C184.061 118.353 182.954 118.375 181.85 118.316C180.739 118.29 179.632 118.175 178.538 117.974C174.124 117.141 170.027 115.1 166.703 112.078L166.99 112.167L154.99 113.999L154.129 114.143L154.559 113.37L160.532 102.97V103.379C159.121 99.9463 158.516 96.2356 158.766 92.5326C159.015 88.8297 160.112 85.2336 161.971 82.0216C163.831 78.8096 166.403 76.0676 169.49 74.0071C172.577 71.9466 176.095 70.6226 179.775 70.1373C183.409 69.6278 187.112 69.9601 190.598 71.1086C194.084 72.2571 197.259 74.1911 199.879 76.7613C202.493 79.3203 204.493 82.4395 205.726 85.8838C206.96 89.328 207.395 93.0073 206.999 96.6443ZM206.999 96.6443C207.387 93.0277 206.939 89.3703 205.688 85.9546C204.438 82.5389 202.419 79.4562 199.788 76.9447C197.157 74.4331 193.984 72.5598 190.514 71.4694C187.044 70.3791 183.37 70.1008 179.775 70.6562C176.206 71.1843 172.807 72.5252 169.839 74.5754C166.908 76.6336 164.459 79.3044 162.663 82.4027C160.892 85.5145 159.851 88.9871 159.616 92.5595C159.393 96.1268 159.97 99.6987 161.305 103.014L161.393 103.224L161.272 103.423L155.233 113.789L154.802 113.149L166.847 111.504H167.013L167.134 111.615C170.341 114.616 174.321 116.665 178.627 117.532C179.7 117.748 180.789 117.881 181.883 117.929C185.179 118.153 188.484 117.667 191.577 116.505C193.649 115.76 195.598 114.711 197.362 113.392C198.248 112.734 199.095 112.027 199.901 111.272C200.686 110.494 201.424 109.668 202.109 108.799C204.829 105.277 206.522 101.07 206.999 96.6443Z" fill="#263238"/>
<path d="M180.315 107.828L170.059 97.4503L173.503 94.0499L179.498 100.111L191.94 80.6143L196.014 83.2087L180.315 107.828Z" fill="#059CE1"/>
<path d="M103.159 117.929C99.1185 117.223 88.9506 120.535 85.749 126.033C82.5474 131.531 83.2209 140.208 85.0093 140.915C86.7978 141.621 94.4044 140.694 99.5049 137.603C104.605 134.511 105.157 118.272 103.159 117.929Z" fill="#263238"/>
<path d="M103.17 117.952C103.303 117.952 103.314 117.687 103.17 117.698C99.6596 117.764 95.9612 119.111 92.6713 120.226C89.9331 120.975 87.3829 122.292 85.1862 124.09C84.1684 125.005 83.3625 126.131 82.8248 127.389C82.2871 128.648 82.0305 130.008 82.0729 131.376C82.0129 134.679 82.7956 137.943 84.3471 140.86C84.3471 140.937 84.5458 140.86 84.5127 140.86C82.647 135.097 80.9137 128.031 86.533 123.792C91.3023 120.093 97.5841 119.42 103.17 117.952Z" fill="#263238"/>
<path d="M85.5385 139.369C82.0609 139.977 73.2621 147.097 72.0256 153.721C70.7891 160.345 76.6403 170.038 78.3846 170.679C80.1289 171.319 87.5809 164.596 89.8993 159.793C91.4449 156.592 89.8993 152.993 89.0272 149.405C87.6582 144.139 86.1126 139.281 85.5385 139.369Z" fill="#263238"/>
<path d="M91.9533 158.91C92.693 152.076 88.553 145.541 85.9696 139.513C85.9696 139.447 85.8372 139.513 85.8592 139.513C87.3938 145.331 91.1695 150.453 91.5448 156.592C91.7322 158.387 91.485 160.2 90.824 161.88C90.163 163.559 89.1077 165.055 87.7471 166.241C85.2189 168.294 81.9952 169.332 79.0144 170.535C78.8268 170.613 79.0144 170.9 79.158 170.833C85.0975 168.636 91.1916 165.954 91.9533 158.91Z" fill="#263238"/>
<path d="M84.8098 140.031C84.8409 140.011 84.8634 139.98 84.8733 139.944C84.8832 139.908 84.8798 139.869 84.8636 139.836C84.8475 139.802 84.8198 139.775 84.7855 139.761C84.7513 139.746 84.7129 139.744 84.6773 139.755C79.8087 142.339 73.9685 146.037 71.5287 151.204C68.8791 156.79 72.0255 162.376 74.8407 167.19H74.9401C72.18 162.299 69.2324 156.15 72.2794 150.74C74.8738 145.993 80.2172 142.537 84.8098 140.031Z" fill="#263238"/>
<path d="M79.0137 169.839C81.4204 170.943 85.0526 174.708 86.1124 179.356C87.9009 187.305 90.8376 185.549 99.7248 187.183C107.232 188.552 109.285 196.755 105.576 201.083C105.576 201.083 107.574 195.839 102.441 193.62C96.3024 190.97 83.0102 198.036 75.7238 189.987C66.2956 179.588 79.0137 169.839 79.0137 169.839Z" fill="#263238"/>
<path d="M82.3801 173.328C82.2808 173.218 82.4464 173.041 82.5568 173.141C83.6203 174.079 84.5066 175.201 85.1733 176.453C86.0233 178.109 86.1668 179.952 86.8844 181.641C88.7392 185.947 94.0384 185.494 97.9244 185.55C103.113 185.616 107.441 188.53 108.081 193.951C108.086 193.961 108.087 193.972 108.087 193.983C108.086 193.994 108.082 194.005 108.076 194.014C108.07 194.023 108.062 194.031 108.052 194.036C108.042 194.041 108.032 194.044 108.021 194.044C108.01 194.044 107.999 194.041 107.989 194.036C107.979 194.031 107.971 194.023 107.965 194.014C107.959 194.005 107.955 193.994 107.955 193.983C107.954 193.972 107.955 193.961 107.96 193.951C107.727 192.3 107.052 190.743 106.006 189.445C104.961 188.147 103.583 187.155 102.02 186.576C98.9181 185.472 95.5508 186.344 92.3824 185.77C90.1744 185.384 87.9664 184.589 86.8624 182.558C86.3419 181.396 85.946 180.182 85.6811 178.937C85.0825 176.814 83.9454 174.882 82.3801 173.328Z" fill="#263238"/>
<path d="M77.7109 170.888C77.7109 170.888 77.8323 170.888 77.7881 170.965C75.0281 174.024 72.1025 177.104 71.5064 181.376C70.855 185.969 73.4605 190.385 77.192 192.924C81.3761 195.772 85.5713 194.028 89.9984 192.924C93.1889 192.107 96.4678 191.533 99.7025 192.46C99.8019 192.46 99.7025 192.648 99.7025 192.637C94.5248 191.743 89.9321 193.531 84.9641 194.635C83.1199 195.088 81.1852 195.011 79.3826 194.414C77.5801 193.816 75.9827 192.722 74.7742 191.257C68.5035 184.578 71.6057 176.353 77.7109 170.888Z" fill="#263238"/>
<path d="M99.9345 114.397C98.7532 113.028 96.6225 114.883 97.8369 116.252C99.0513 117.62 101.105 115.755 99.9345 114.397Z" fill="#059CE1"/>
<path d="M101.115 116.704C99.9452 115.346 97.8034 117.201 99.0288 118.559C100.254 119.917 102.297 118.128 101.115 116.704Z" fill="#059CE1"/>
<path d="M102.673 118.802C101.491 117.444 99.3608 119.288 100.575 120.657C101.79 122.025 103.876 120.171 102.673 118.802Z" fill="#059CE1"/>
<path d="M104.494 120.612C103.324 119.254 101.182 121.109 102.408 122.467C103.633 123.825 105.676 121.981 104.494 120.612Z" fill="#059CE1"/>
<path d="M106.624 122.125C105.443 120.767 103.312 122.621 104.526 123.979C105.741 125.337 107.794 123.493 106.624 122.125Z" fill="#059CE1"/>
<path d="M108.899 123.195C107.718 121.837 105.587 123.681 106.802 125.05C108.016 126.419 110.07 124.564 108.899 123.195Z" fill="#059CE1"/>
<path d="M194.757 489.359C192.207 490.154 117.676 488.542 114.96 486.732C113.911 486.058 120.303 415.458 120.303 415.458L167.566 416.363L162.189 463.581C162.189 463.581 189.69 476.619 192.472 478.926C195.254 481.234 197.318 488.564 194.757 489.359Z" fill="#DE9E7A"/>
<path d="M194.767 489.359C192.217 490.154 117.675 488.542 114.959 486.721C114.628 486.522 114.529 479.346 115.721 470.017C129.234 472.28 177.468 479.688 181.232 477.48C183.849 475.935 181.53 473.528 179.378 471.96C185.538 475.029 191.29 477.977 192.471 478.971C195.242 481.234 197.307 488.575 194.767 489.359Z" fill="#263238"/>
<path d="M163.525 452.265L117.157 451.613C117.157 451.613 126.342 340.474 125.989 338.332C125.437 335.616 92.5156 206.503 92.5156 206.503H136.808C136.808 206.503 171.728 326.839 172.986 338.42C175.018 357.144 163.525 452.265 163.525 452.265Z" fill="#37474F"/>
<path d="M121.287 441.137C124.035 440.938 126.807 440.971 129.555 440.938C132.304 440.905 135.075 440.938 137.813 440.938C143.333 440.993 148.853 441.081 154.373 441.236C155.875 441.236 157.376 441.324 158.889 441.39C160.401 441.457 162.101 441.744 163.702 441.799C163.729 441.799 163.754 441.809 163.772 441.828C163.791 441.847 163.802 441.872 163.802 441.898C163.802 441.925 163.791 441.95 163.772 441.969C163.754 441.987 163.729 441.998 163.702 441.998C162.344 441.998 160.997 442.207 159.639 442.252C158.282 442.296 156.835 442.252 155.433 442.252H147.175C141.655 442.252 136.135 442.13 130.671 441.909C127.568 441.777 124.433 441.744 121.342 441.424C121.304 441.431 121.264 441.423 121.232 441.401C121.2 441.379 121.178 441.346 121.171 441.308C121.163 441.27 121.171 441.23 121.193 441.198C121.215 441.166 121.248 441.144 121.287 441.137Z" fill="#263238"/>
<path d="M102.263 216.936C106.227 230.968 109.848 245.121 113.392 259.264C116.936 273.406 120.479 287.57 124.001 301.723C125.768 308.811 127.53 315.891 129.289 322.964C131 329.853 132.999 336.786 133.418 343.94C133.838 351.094 132.932 358.48 132.314 365.689C131.696 372.898 131.1 380.174 130.46 387.427C129.19 401.911 127.976 416.418 126.397 430.88C126.209 432.691 126.01 434.501 125.823 436.312C125.823 436.467 125.569 436.467 125.58 436.312C126.54 421.805 127.545 407.31 128.704 392.826C129.278 385.576 129.867 378.33 130.471 371.088C131.067 363.857 131.906 356.592 132.138 349.339C132.369 342.086 131.034 334.987 129.267 327.943C127.501 320.9 125.79 314.088 124.056 307.155C120.509 293.017 116.976 278.863 113.458 264.695C109.528 248.842 105.597 232.966 102.131 217.002C102.127 216.994 102.124 216.984 102.123 216.975C102.123 216.965 102.124 216.955 102.127 216.946C102.13 216.937 102.135 216.928 102.141 216.921C102.148 216.913 102.155 216.907 102.164 216.903C102.173 216.899 102.182 216.896 102.192 216.895C102.202 216.895 102.211 216.896 102.221 216.899C102.23 216.902 102.238 216.907 102.246 216.913C102.253 216.92 102.259 216.928 102.263 216.936Z" fill="#263238"/>
<path d="M92.5156 206.514C92.5156 206.514 106.647 261.891 116.528 300.873L135.373 206.514H92.5156Z" fill="#263238"/>
<path d="M139.104 489.525C136.553 490.331 62.0224 488.719 59.3066 486.897C58.2578 486.224 62.1439 415.59 62.1439 415.59L108.788 416.495L106.58 463.757C106.58 463.757 134.081 476.785 136.863 479.103C139.645 481.421 141.654 488.741 139.104 489.525Z" fill="#DE9E7A"/>
<path d="M139.105 489.525C136.555 490.32 62.0241 488.719 59.3083 486.897C58.9771 486.687 59.0543 479.71 59.3083 470.183C72.8212 472.446 121.806 479.865 125.548 477.646C128.165 476.111 125.857 473.704 123.705 472.126C129.865 475.195 135.617 478.153 136.798 479.147C139.58 481.399 141.656 488.741 139.105 489.525Z" fill="#263238"/>
<path d="M135.372 206.448C135.372 206.448 134.08 227.623 129.024 244.349C128.616 245.729 128.174 247.086 127.71 248.389C123.24 250.126 118.938 252.269 114.86 254.792C114.86 254.792 111.669 335.782 111.724 340.816C111.934 359.683 107.088 451.338 107.088 451.338L60.2891 450.885C60.2891 450.885 65.1467 347.241 65.1687 340.352C65.1687 329.312 74.9833 206.503 74.9833 206.503L135.372 206.448Z" fill="#37474F"/>
<path d="M125.149 234.931L125.679 231.421C126.011 229.213 126.452 227.137 126.783 224.995C127.633 220.149 128.528 215.28 129.599 210.467C129.599 210.356 129.83 210.379 129.808 210.467C129.621 212.41 129.4 214.353 129.124 216.285C128.848 218.217 128.66 220.16 128.384 222.092C127.843 225.923 127.28 229.82 126.662 233.585C126.408 235.053 125.492 237.691 127.611 238.144C129.278 238.508 130.515 236.863 131.001 235.483C131.517 233.751 131.887 231.979 132.105 230.184C132.458 228.252 132.756 226.309 133.032 224.366C133.628 220.127 134.291 215.899 134.975 211.681C134.975 211.56 135.196 211.593 135.185 211.681C135.093 216.022 134.779 220.355 134.246 224.664C133.97 226.729 133.672 228.782 133.319 230.836C133.108 232.805 132.629 234.737 131.895 236.576C131.597 237.303 131.12 237.943 130.508 238.435C129.896 238.927 129.169 239.256 128.395 239.392H128.296C128.316 239.405 128.333 239.423 128.345 239.444C128.356 239.465 128.362 239.489 128.362 239.513C128.362 240.209 128.362 240.904 128.285 241.589C128.208 242.273 128.075 242.935 127.943 243.609C127.819 244.294 127.646 244.969 127.424 245.629C127.302 245.938 127.192 246.247 127.048 246.557C126.905 246.866 126.684 247.109 126.496 247.407C126.43 247.528 126.287 247.407 126.276 247.329C126.276 247.219 126.276 247.109 126.276 246.998C126.265 246.8 126.265 246.601 126.276 246.402C126.325 246.071 126.391 245.743 126.474 245.419C126.618 244.768 126.794 244.117 126.971 243.465C127.148 242.814 127.28 242.174 127.446 241.522C127.611 240.871 127.843 240.209 127.998 239.535C127.998 239.535 127.998 239.535 127.998 239.469C127.374 239.499 126.757 239.337 126.228 239.005C125.699 238.674 125.284 238.188 125.039 237.614C124.849 236.725 124.887 235.802 125.149 234.931Z" fill="#263238"/>
<path d="M111.074 256.448C112.476 255.378 113.952 254.408 115.49 253.545C117.105 252.566 118.783 251.695 120.514 250.939C123.892 249.471 127.38 248.467 130.88 247.318C130.979 247.318 131.046 247.451 130.946 247.495C127.568 248.842 124.322 250.63 121.01 252.231C119.399 253.019 117.772 253.755 116.131 254.439C114.497 255.168 112.819 256.018 111.174 256.647C111.074 256.724 110.975 256.526 111.074 256.448Z" fill="#263238"/>
<path d="M84.6668 226.95C87.0481 226.92 89.4171 226.602 91.7214 226C92.8254 225.724 93.83 225.382 94.8678 225.04C95.9009 224.755 96.8685 224.271 97.7161 223.615C99.3169 222.224 100.068 220.05 100.763 218.095C101.523 215.931 102.139 213.718 102.607 211.471C102.607 211.445 102.617 211.42 102.636 211.401C102.655 211.383 102.68 211.372 102.706 211.372C102.733 211.372 102.758 211.383 102.776 211.401C102.795 211.42 102.806 211.445 102.806 211.471C102.862 214.03 102.538 216.582 101.845 219.045C101.271 221.131 100.498 223.461 98.809 224.929C96.9338 226.339 94.6823 227.162 92.3396 227.292C89.7702 227.594 87.1724 227.561 84.6116 227.192C84.5887 227.178 84.5709 227.156 84.5606 227.131C84.5503 227.106 84.548 227.078 84.5541 227.052C84.5601 227.025 84.5742 227.001 84.5943 226.983C84.6145 226.964 84.6398 226.953 84.6668 226.95Z" fill="#263238"/>
<path d="M69.2886 393.907C70.0835 379.129 70.9225 364.342 71.8057 349.549C73.5059 320.127 75.1177 290.694 77.0055 261.229C78.1095 244.669 79.1252 228.031 80.4279 211.449C80.4365 211.419 80.4546 211.393 80.4795 211.374C80.5044 211.355 80.5347 211.345 80.5659 211.345C80.5971 211.345 80.6275 211.355 80.6524 211.374C80.6773 211.393 80.6954 211.419 80.7039 211.449C79.4895 241.114 77.7231 270.679 76.0119 300.288C74.3007 329.897 72.5564 359.109 70.6575 388.52C69.6639 405.168 68.3502 421.728 67.3455 438.288C67.3508 438.303 67.3523 438.319 67.3501 438.335C67.3478 438.351 67.3419 438.366 67.3327 438.378C67.3235 438.391 67.3114 438.402 67.2973 438.409C67.2832 438.416 67.2676 438.42 67.2517 438.42C67.2358 438.42 67.2202 438.416 67.2061 438.409C67.192 438.402 67.1799 438.391 67.1707 438.378C67.1615 438.366 67.1556 438.351 67.1533 438.335C67.1511 438.319 67.1527 438.303 67.1579 438.288C67.9196 423.495 68.4495 408.701 69.2886 393.907Z" fill="#263238"/>
<path d="M62.4105 441.821C65.1484 441.622 67.9305 441.655 70.6684 441.622C73.4064 441.589 76.1884 441.622 78.9264 441.622C84.4464 441.677 89.9664 441.766 95.4864 441.92C96.9878 441.92 98.5003 442.009 100.002 442.075C101.503 442.141 103.214 442.428 104.815 442.483C104.842 442.483 104.867 442.494 104.885 442.512C104.904 442.531 104.915 442.556 104.915 442.583C104.915 442.609 104.904 442.634 104.885 442.653C104.867 442.672 104.842 442.682 104.815 442.682C103.468 442.682 102.11 442.892 100.752 442.936C99.3945 442.98 97.9483 442.936 96.5462 442.936C93.7972 442.936 91.0262 442.936 88.2993 442.936C82.7793 442.936 77.2593 442.825 71.7393 442.594C68.626 442.461 65.4907 442.428 62.3995 442.119C62.3799 442.118 62.3607 442.114 62.3429 442.106C62.3251 442.097 62.309 442.086 62.2957 442.071C62.2824 442.057 62.272 442.04 62.2652 442.022C62.2584 442.003 62.2552 441.984 62.256 441.964C62.2567 441.945 62.2613 441.926 62.2694 441.908C62.2776 441.89 62.2892 441.874 62.3035 441.861C62.3179 441.847 62.3347 441.837 62.3531 441.83C62.3714 441.823 62.3909 441.82 62.4105 441.821Z" fill="#263238"/>
<path d="M116.616 158.59C121.109 169.74 138.961 205.786 150.685 208.336C158.413 210.003 189.469 206.989 194.845 199.636C197.175 196.435 193.233 174.09 189.082 174.973C184.931 175.856 160.014 179.157 156.956 178.285C153.898 177.413 130.957 150.983 122.379 144.425C107.585 133.098 114.198 152.584 116.616 158.59Z" fill="#DE9E7A"/>
<path d="M143.818 164.099L124.277 175.658C124.277 175.658 116.052 160.003 112.84 149.758C109.627 139.513 112.387 134.832 124.178 145.022C131.107 150.975 137.666 157.345 143.818 164.099Z" fill="#059CE1"/>
<path d="M123.438 171.639C126.029 169.762 128.667 167.948 131.354 166.196C132.668 165.335 133.981 164.452 135.317 163.624C136.653 162.796 138.143 161.99 139.523 161.129C139.533 161.12 139.544 161.113 139.556 161.109C139.568 161.105 139.581 161.104 139.593 161.105C139.606 161.106 139.618 161.11 139.629 161.117C139.64 161.123 139.65 161.132 139.657 161.143C139.664 161.153 139.669 161.165 139.671 161.177C139.673 161.19 139.673 161.203 139.67 161.215C139.666 161.228 139.66 161.239 139.652 161.249C139.644 161.259 139.634 161.267 139.623 161.272C138.32 162.155 137.084 163.127 135.781 164.021C134.478 164.915 133.065 165.81 131.707 166.693C129.028 168.445 126.301 170.134 123.526 171.76C123.449 171.804 123.361 171.694 123.438 171.639Z" fill="#263238"/>
<path d="M142.791 220.668L138.375 195.75C138.375 195.75 145.165 183.905 141.224 175.393C139.236 171.087 121.793 144.282 114.452 138.961C107.563 133.96 97.5604 139.303 93.8399 143.222C79.4879 158.325 75.6681 186.179 70.5234 227.005L142.791 220.668Z" fill="#059CE1"/>
<path d="M142.417 177.866C141.873 176.073 141.069 174.37 140.033 172.809C139.691 172.224 138.929 171.01 138.001 169.597C137.743 168.915 137.448 168.248 137.118 167.599C136.574 166.641 136.084 165.653 135.65 164.64C135.65 164.54 135.451 164.64 135.506 164.706C135.968 165.674 136.381 166.666 136.743 167.676C135.186 165.313 133.552 162.884 132.846 161.891C132.846 161.803 132.658 161.891 132.713 161.968C134.204 163.922 139.094 172.489 140.276 174.664C141.415 176.813 142.003 179.21 141.987 181.641C141.958 184.162 141.632 186.671 141.015 189.116C140.949 189.314 141.159 189.425 141.236 189.226C141.956 187.46 142.424 185.602 142.627 183.706C142.91 181.762 142.839 179.784 142.417 177.866Z" fill="#263238"/>
<path d="M113.194 160.787C113.194 160.787 108.778 155.896 112.388 153.169C115.998 150.442 119.509 155.984 119.509 155.984L113.194 160.787Z" fill="#455A64"/>
<path d="M147.363 192.549L148.467 198.897L148.831 200.983L146.899 200.089L141.07 197.362L113.072 160.588L119.387 155.786L147.385 192.56L147.363 192.549Z" fill="#455A64"/>
<path d="M148.445 198.897L148.809 200.984L146.877 200.089L148.445 198.897Z" fill="#37474F"/>
<path d="M119.727 155.183L112.357 160.794L113.468 162.252L120.837 156.641L119.727 155.183Z" fill="#263238"/>
<path d="M120.957 156.798L113.588 162.41L114.698 163.868L122.067 158.256L120.957 156.798Z" fill="#263238"/>
<path d="M114.707 163.867L117.081 162.056L125.902 176.353L124.985 176.971L114.707 163.867Z" fill="#263238"/>
<path d="M87.2166 151.248C69.5526 173.328 50.3099 210.058 59.9368 217.047C68.7688 223.417 98.8748 214.971 117.61 206.271C121.176 204.615 104.362 173.151 100.741 175.359C96.9383 177.682 92.9929 179.762 88.9278 181.586C87.89 181.939 93.2334 174.531 98.6099 157.177C104.086 139.491 97.3403 138.541 87.2166 151.248Z" fill="#DE9E7A"/>
<path d="M147.274 170.016C147.528 173.77 138.211 173.604 138.211 173.604C139.62 174.414 140.702 175.691 141.269 177.214C142.141 179.941 138.244 182.502 138.244 182.502C139.528 183.647 140.439 185.151 140.86 186.819C141.434 189.513 137.868 192.659 137.868 192.659C138.472 194.36 138.441 196.223 137.78 197.903C135.848 202.319 128.44 202.86 123.925 204.107C118.88 205.597 113.963 207.487 109.219 209.76L98.6211 176.519C98.6211 176.519 117.731 163.513 123.295 163.436C127.987 163.392 146.888 164.264 147.274 170.016Z" fill="#DE9E7A"/>
<path d="M138.123 173.494C133.133 172.39 127.867 172.39 122.799 172.577C122.776 172.577 122.753 172.587 122.737 172.603C122.72 172.62 122.711 172.642 122.711 172.666C122.711 172.689 122.72 172.712 122.737 172.728C122.753 172.745 122.776 172.754 122.799 172.754C127.845 172.566 133.066 173.726 138.101 173.737C138.117 173.738 138.133 173.736 138.148 173.732C138.163 173.727 138.177 173.719 138.19 173.709C138.202 173.699 138.212 173.686 138.22 173.672C138.227 173.658 138.232 173.642 138.233 173.626C138.235 173.61 138.233 173.594 138.228 173.579C138.223 173.564 138.216 173.549 138.205 173.537C138.195 173.525 138.183 173.515 138.168 173.507C138.154 173.5 138.139 173.495 138.123 173.494Z" fill="#263238"/>
<path d="M138.088 182.16C136.926 182.005 135.75 182.005 134.588 182.16C133.352 182.259 132.126 182.37 130.89 182.502C128.428 182.767 125.966 183.098 123.526 183.485C123.416 183.485 123.416 183.673 123.526 183.661C125.988 183.408 128.45 183.176 130.912 183.021C132.148 182.944 133.385 182.867 134.61 182.811C135.782 182.829 136.952 182.718 138.099 182.48C138.129 182.465 138.154 182.441 138.171 182.412C138.188 182.383 138.197 182.35 138.196 182.317C138.194 182.283 138.184 182.25 138.165 182.223C138.146 182.195 138.119 182.173 138.088 182.16Z" fill="#263238"/>
<path d="M137.769 192.648C136.717 192.534 135.653 192.598 134.622 192.836L131.31 193.255C129.102 193.52 126.817 193.785 124.565 193.973C124.455 193.973 124.466 194.161 124.565 194.149C126.85 193.973 129.147 193.818 131.432 193.62C132.536 193.531 133.64 193.421 134.744 193.31C135.777 193.311 136.802 193.124 137.769 192.758C137.778 192.752 137.785 192.744 137.791 192.735C137.796 192.725 137.799 192.714 137.799 192.703C137.799 192.692 137.796 192.682 137.791 192.672C137.785 192.662 137.778 192.654 137.769 192.648Z" fill="#263238"/>
<path d="M92.4936 179.19L73.3281 167.046C73.3281 167.046 83.5622 152.628 91.235 145.121C98.9078 137.614 104.328 137.945 100.597 153.081C98.4302 161.941 95.724 170.66 92.4936 179.19Z" fill="#059CE1"/>
<path d="M76.5304 164.496C79.3787 165.968 82.1902 167.495 84.9649 169.078C86.3339 169.861 87.7139 170.634 89.0608 171.451C90.4076 172.268 91.7987 173.218 93.1897 174.057C93.2891 174.123 93.1897 174.277 93.1124 174.222C91.7324 173.46 90.2972 172.798 88.9172 172.014C87.5372 171.23 86.091 170.413 84.6889 169.596C81.9069 168.007 79.1689 166.34 76.4641 164.606C76.3869 164.496 76.4531 164.408 76.5304 164.496Z" fill="#263238"/>
<path d="M92.4945 179.29C93.4108 176.066 94.7025 172.975 95.8065 169.806C96.9105 166.638 98.0145 163.414 98.9418 160.202C98.9374 160.192 98.9356 160.181 98.9366 160.17C98.9375 160.159 98.9411 160.148 98.9471 160.139C98.9532 160.13 98.9614 160.122 98.9711 160.117C98.9807 160.112 98.9916 160.109 99.0026 160.109C99.0136 160.109 99.0244 160.112 99.0341 160.117C99.0437 160.122 99.052 160.13 99.058 160.139C99.064 160.148 99.0676 160.159 99.0686 160.17C99.0695 160.181 99.0677 160.192 99.0633 160.202C98.6658 161.824 98.3015 163.514 97.8489 165.081C97.6281 165.876 97.3742 166.682 97.1202 167.466C97.2858 167.179 97.4404 166.892 97.617 166.605C98.1556 165.758 98.7378 164.94 99.3614 164.154C99.3614 164.154 99.4607 164.154 99.4386 164.209C99.0025 165.113 98.5197 165.994 97.9924 166.848C97.617 167.466 97.1975 168.062 96.8001 168.669L96.3254 170.016C95.3942 173.224 94.171 176.339 92.6711 179.323C92.6159 179.433 92.4724 179.389 92.4945 179.29Z" fill="#263238"/>
<path d="M88.1766 181.807C83.2859 184.346 77.7549 188.111 74.9286 191.092C74.8403 191.18 74.9286 191.323 75.039 191.246C77.8653 189.038 86.2557 183.916 88.4195 182.469C89.0929 182.017 89.5787 181.056 88.1766 181.807Z" fill="#263238"/>
<path d="M174.157 210.367L135.119 211.206L152.275 160.732L191.313 159.893L174.157 210.367Z" fill="#EBEBEB"/>
<path d="M176.828 210.312L137.791 211.14L154.947 160.676L193.985 159.837L176.828 210.312Z" fill="#37474F"/>
<path d="M159.098 160.588C158.847 161.467 158.26 162.213 157.464 162.663C157.1 162.873 156.99 162.387 157.354 162.189C157.86 161.894 158.25 161.434 158.458 160.886C158.458 160.787 158.524 160.687 158.546 160.599C158.628 160.288 158.628 159.961 158.546 159.65C158.515 159.513 158.437 159.392 158.325 159.307H158.248C158.161 159.286 158.07 159.286 157.983 159.307C157.814 159.369 157.662 159.471 157.541 159.605C157.39 159.764 157.26 159.942 157.155 160.135L156.989 160.422V160.489C156.985 160.522 156.985 160.555 156.989 160.588C156.986 160.614 156.986 160.64 156.989 160.665H156.438C156.56 160.316 156.731 159.985 156.945 159.683C157.106 159.421 157.321 159.198 157.577 159.028C157.832 158.858 158.121 158.746 158.425 158.7C158.645 158.693 158.86 158.771 159.026 158.916C159.192 159.061 159.297 159.264 159.319 159.484C159.338 159.865 159.262 160.244 159.098 160.588Z" fill="#C7C7C7"/>
<path d="M162.155 160.522C161.904 161.401 161.317 162.146 160.521 162.597C160.157 162.807 160.047 162.321 160.411 162.123C160.914 161.824 161.303 161.365 161.515 160.82C161.551 160.727 161.577 160.631 161.592 160.533C161.68 160.222 161.68 159.894 161.592 159.583C161.557 159.446 161.475 159.325 161.361 159.241H161.283C161.193 159.215 161.097 159.215 161.007 159.241C160.838 159.303 160.686 159.405 160.566 159.539C160.36 159.794 160.179 160.068 160.025 160.356V160.423C160.022 160.459 160.022 160.496 160.025 160.533C160.02 160.555 160.02 160.577 160.025 160.599H159.473C159.595 160.25 159.766 159.919 159.981 159.617C160.141 159.355 160.356 159.132 160.612 158.962C160.867 158.792 161.157 158.68 161.46 158.634C161.68 158.625 161.895 158.701 162.06 158.848C162.225 158.994 162.326 159.198 162.343 159.418C162.376 159.796 162.312 160.176 162.155 160.522Z" fill="#C7C7C7"/>
<path d="M165.204 160.456C165.085 160.892 164.88 161.3 164.601 161.657C164.323 162.013 163.976 162.31 163.581 162.531C163.216 162.741 163.106 162.255 163.459 162.056C163.964 161.76 164.354 161.3 164.563 160.754C164.563 160.665 164.618 160.566 164.64 160.467C164.728 160.156 164.728 159.828 164.64 159.517C164.605 159.38 164.523 159.259 164.409 159.175C164.383 159.181 164.357 159.181 164.331 159.175C164.241 159.148 164.145 159.148 164.055 159.175C163.886 159.237 163.734 159.339 163.614 159.473C163.468 159.634 163.342 159.812 163.238 160.003C163.177 160.095 163.121 160.191 163.073 160.29V160.367C163.069 160.4 163.069 160.434 163.073 160.467C163.073 160.467 163.073 160.467 163.073 160.533H162.51C162.637 160.185 162.808 159.855 163.018 159.55C163.183 159.293 163.399 159.073 163.654 158.904C163.909 158.735 164.196 158.62 164.497 158.568C164.718 158.558 164.935 158.634 165.101 158.78C165.268 158.926 165.372 159.131 165.391 159.352C165.42 159.729 165.356 160.108 165.204 160.456Z" fill="#C7C7C7"/>
<path d="M168.261 160.389C168.143 160.826 167.938 161.234 167.659 161.59C167.381 161.947 167.034 162.244 166.639 162.465C166.263 162.674 166.153 162.189 166.517 161.99C167.023 161.695 167.413 161.235 167.621 160.687C167.656 160.597 167.685 160.505 167.709 160.411C167.797 160.097 167.797 159.765 167.709 159.451C167.678 159.314 167.6 159.193 167.489 159.108C167.489 159.108 167.489 159.108 167.489 159.108H167.367C167.277 159.081 167.181 159.081 167.091 159.108C166.923 159.172 166.772 159.274 166.65 159.407C166.5 159.565 166.374 159.743 166.274 159.936C166.21 160.031 166.155 160.13 166.109 160.235V160.301C166.105 160.334 166.105 160.367 166.109 160.4C166.109 160.4 166.109 160.4 166.109 160.466H165.557C165.684 160.122 165.855 159.796 166.064 159.495C166.225 159.232 166.44 159.007 166.695 158.836C166.951 158.664 167.24 158.55 167.544 158.501C167.765 158.492 167.981 158.568 168.148 158.714C168.315 158.86 168.418 159.065 168.438 159.285C168.471 159.662 168.41 160.041 168.261 160.389Z" fill="#C7C7C7"/>
<path d="M171.319 160.334C171.067 161.213 170.481 161.959 169.685 162.41C169.321 162.608 169.21 162.123 169.575 161.935C170.079 161.632 170.467 161.17 170.679 160.621C170.713 160.531 170.742 160.439 170.767 160.345C170.849 160.03 170.849 159.7 170.767 159.385C170.738 159.25 170.659 159.132 170.546 159.053H170.469C170.383 159.026 170.29 159.026 170.204 159.053C170.035 159.117 169.884 159.219 169.762 159.351C169.613 159.512 169.484 159.69 169.376 159.881L169.21 160.179V160.246C169.206 160.279 169.206 160.312 169.21 160.345C169.21 160.345 169.21 160.345 169.21 160.411H168.658C168.781 160.065 168.952 159.738 169.166 159.44C169.33 159.18 169.546 158.958 169.801 158.787C170.056 158.616 170.343 158.5 170.645 158.446C170.866 158.439 171.081 158.517 171.247 158.662C171.413 158.808 171.517 159.01 171.54 159.23C171.557 159.61 171.481 159.989 171.319 160.334Z" fill="#C7C7C7"/>
<path d="M174.433 160.268C174.179 161.146 173.593 161.89 172.799 162.344C172.435 162.542 172.325 162.056 172.689 161.869C173.195 161.569 173.585 161.105 173.793 160.555C173.829 160.466 173.855 160.374 173.87 160.279C173.957 159.965 173.957 159.633 173.87 159.319C173.837 159.186 173.759 159.069 173.65 158.987H173.572C173.482 158.961 173.386 158.961 173.296 158.987C173.129 159.054 172.979 159.155 172.855 159.285C172.709 159.447 172.583 159.624 172.479 159.815C172.418 159.911 172.362 160.011 172.314 160.113V160.18C172.31 160.213 172.31 160.246 172.314 160.279C172.309 160.301 172.309 160.323 172.314 160.345H171.762C171.885 159.999 172.055 159.672 172.27 159.374C172.434 159.114 172.65 158.892 172.905 158.721C173.159 158.55 173.447 158.434 173.749 158.38C173.969 158.371 174.184 158.447 174.349 158.594C174.514 158.74 174.615 158.944 174.632 159.164C174.662 159.543 174.594 159.923 174.433 160.268Z" fill="#C7C7C7"/>
<path d="M177.425 160.202C177.178 161.08 176.595 161.826 175.802 162.277C175.438 162.476 175.327 162.001 175.692 161.803C175.99 161.637 176.251 161.41 176.454 161.136C176.658 160.861 176.801 160.547 176.873 160.213C176.96 159.899 176.96 159.567 176.873 159.252C176.84 159.117 176.757 158.998 176.641 158.921H176.564C176.474 158.895 176.378 158.895 176.288 158.921C176.121 158.988 175.97 159.089 175.846 159.219C175.7 159.38 175.574 159.558 175.471 159.749C175.405 159.849 175.36 159.948 175.305 160.047V160.114C175.301 160.146 175.301 160.18 175.305 160.213C175.305 160.213 175.305 160.213 175.305 160.279H174.742C174.869 159.935 175.04 159.609 175.25 159.308C175.411 159.047 175.627 158.824 175.882 158.655C176.138 158.485 176.427 158.373 176.729 158.325C176.949 158.315 177.164 158.39 177.33 158.534C177.496 158.677 177.601 158.879 177.624 159.098C177.647 159.476 177.579 159.855 177.425 160.202Z" fill="#C7C7C7"/>
<path d="M180.482 160.135C180.362 160.571 180.156 160.979 179.878 161.335C179.599 161.691 179.253 161.989 178.859 162.211C178.484 162.421 178.373 161.935 178.738 161.736C179.246 161.439 179.637 160.975 179.842 160.422C179.876 160.332 179.906 160.24 179.93 160.146C180.018 159.832 180.018 159.5 179.93 159.186C179.898 159.053 179.82 158.935 179.709 158.855H179.643C179.554 158.823 179.456 158.823 179.367 158.855C179.195 158.91 179.042 159.014 178.925 159.153C178.774 159.305 178.647 159.48 178.55 159.672C178.484 159.771 178.44 159.87 178.384 159.97V160.036L178.329 160.135C178.329 160.135 178.329 160.135 178.329 160.201H177.744C177.871 159.857 178.042 159.531 178.252 159.23C178.412 158.968 178.628 158.745 178.883 158.575C179.139 158.406 179.428 158.294 179.731 158.247C179.951 158.238 180.166 158.313 180.332 158.456C180.498 158.6 180.603 158.802 180.626 159.02C180.669 159.398 180.619 159.781 180.482 160.135Z" fill="#C7C7C7"/>
<path d="M183.542 160.08C183.293 160.961 182.706 161.707 181.908 162.156C181.543 162.365 181.433 161.88 181.797 161.681C182.306 161.384 182.696 160.919 182.901 160.367C182.936 160.277 182.965 160.185 182.99 160.091C183.071 159.78 183.071 159.453 182.99 159.142C182.958 159.005 182.88 158.884 182.769 158.799H182.691C182.606 158.767 182.512 158.767 182.426 158.799C182.254 158.855 182.101 158.958 181.985 159.098C181.83 159.254 181.7 159.433 181.598 159.627C181.598 159.716 181.499 159.815 181.433 159.914V159.981C181.429 160.014 181.429 160.047 181.433 160.08C181.433 160.08 181.433 160.08 181.433 160.146H180.881C181.006 159.801 181.177 159.474 181.389 159.175C181.549 158.913 181.764 158.69 182.02 158.52C182.275 158.35 182.565 158.239 182.868 158.192C183.088 158.183 183.302 158.257 183.469 158.401C183.635 158.545 183.74 158.746 183.762 158.965C183.781 159.349 183.705 159.732 183.542 160.08Z" fill="#C7C7C7"/>
<path d="M186.577 160.003C186.325 160.882 185.738 161.627 184.943 162.078C184.578 162.288 184.468 161.802 184.832 161.604C185.339 161.304 185.728 160.84 185.936 160.29C185.971 160.2 186 160.107 186.025 160.014C186.107 159.703 186.107 159.376 186.025 159.064C185.989 158.93 185.912 158.81 185.804 158.722H185.727C185.636 158.696 185.541 158.696 185.451 158.722C185.281 158.784 185.13 158.886 185.009 159.02C184.858 159.177 184.732 159.356 184.634 159.55C184.572 159.642 184.517 159.738 184.468 159.837V159.904C184.464 159.937 184.464 159.97 184.468 160.003C184.463 160.025 184.463 160.047 184.468 160.069H183.916C184.041 159.724 184.212 159.397 184.424 159.098C184.584 158.836 184.8 158.613 185.055 158.443C185.311 158.273 185.6 158.161 185.903 158.115C186.122 158.106 186.335 158.181 186.5 158.325C186.664 158.468 186.767 158.67 186.786 158.888C186.815 159.271 186.743 159.656 186.577 160.003Z" fill="#C7C7C7"/>
<path d="M189.646 159.937C189.526 160.373 189.32 160.78 189.042 161.136C188.763 161.493 188.417 161.79 188.023 162.012C187.659 162.222 187.549 161.736 187.913 161.538C188.212 161.372 188.472 161.145 188.676 160.871C188.879 160.596 189.022 160.282 189.094 159.948C189.182 159.637 189.182 159.309 189.094 158.998C189.059 158.861 188.977 158.74 188.862 158.656H188.785C188.695 158.629 188.599 158.629 188.509 158.656C188.34 158.718 188.188 158.82 188.068 158.954C187.917 159.111 187.791 159.29 187.692 159.484C187.631 159.576 187.575 159.672 187.527 159.771V159.837C187.522 159.87 187.522 159.904 187.527 159.937C187.527 159.937 187.527 159.937 187.527 160.003H186.975C187.093 159.652 187.264 159.32 187.482 159.02C187.641 158.76 187.855 158.537 188.108 158.367C188.362 158.197 188.649 158.085 188.951 158.038C189.17 158.028 189.385 158.103 189.551 158.247C189.718 158.39 189.823 158.592 189.845 158.811C189.884 159.197 189.815 159.587 189.646 159.937Z" fill="#C7C7C7"/>
<path d="M192.704 159.871C192.583 160.306 192.378 160.714 192.099 161.07C191.821 161.426 191.475 161.724 191.081 161.946C190.706 162.156 190.595 161.67 190.96 161.471C191.466 161.176 191.855 160.716 192.064 160.169C192.064 160.069 192.13 159.97 192.152 159.882C192.234 159.57 192.234 159.243 192.152 158.932C192.112 158.797 192.031 158.677 191.92 158.59H191.865H191.799C191.708 158.568 191.613 158.568 191.523 158.59C191.353 158.652 191.202 158.754 191.081 158.888C190.929 159.044 190.803 159.223 190.706 159.418C190.644 159.51 190.589 159.606 190.54 159.705V159.771C190.536 159.804 190.536 159.838 190.54 159.871C190.536 159.896 190.536 159.922 190.54 159.948H189.889C190.016 159.6 190.187 159.27 190.397 158.965C190.557 158.704 190.772 158.48 191.028 158.311C191.283 158.141 191.573 158.029 191.876 157.983C192.097 157.973 192.313 158.05 192.48 158.195C192.647 158.341 192.75 158.546 192.77 158.767C192.838 159.134 192.815 159.513 192.704 159.871Z" fill="#C7C7C7"/>
<path d="M191.489 171.252C193.332 175.569 198.179 181.034 198.466 184.5C198.561 185.356 198.38 186.219 197.949 186.964C197.518 187.709 196.859 188.297 196.07 188.64C196.07 188.64 199.46 190.495 199.195 193.686C199.051 195.342 196.302 196.567 196.302 196.567C197.038 197.032 197.633 197.689 198.022 198.467C198.411 199.246 198.58 200.116 198.51 200.983C198.179 203.191 195.474 204.13 195.474 204.13C195.474 204.13 197.296 206.856 196.225 209.042C194.017 213.458 174.52 212.708 171.782 205.399C170.513 201.988 175.271 202.429 175.271 202.429C175.271 202.429 168.581 200.133 168.647 196.103C168.713 192.074 174.851 193.034 174.851 193.034C174.851 193.034 168.415 190.771 168.912 186.576C169.409 182.226 175.403 184.235 175.403 184.235C175.403 184.235 171.175 181.122 172.268 178.009C174.09 172.875 182.05 179.742 186.388 178.892L189.038 171.904L191.489 171.252Z" fill="#DE9E7A"/>
<path d="M195.155 177.567C193.764 173.328 199.14 168.371 198.4 164.132C197.396 158.391 190.761 163.712 189.016 171.926L188.773 178.55L195.155 177.567Z" fill="#DE9E7A"/>
<path d="M195.099 204.351C195.113 204.351 195.127 204.356 195.138 204.367C195.148 204.377 195.154 204.391 195.154 204.406C195.154 204.42 195.148 204.434 195.138 204.445C195.127 204.455 195.113 204.461 195.099 204.461C188.361 205.848 181.36 205.151 175.028 202.463C174.829 202.374 174.895 202.01 175.127 202.065C181.638 203.795 188.366 204.565 195.099 204.351Z" fill="#263238"/>
<path d="M196.403 196.622C196.48 196.622 196.48 196.744 196.403 196.755C188.96 198.211 181.242 196.958 174.643 193.222C174.411 193.079 174.345 192.736 174.643 192.869C179.213 195.198 190.088 196.909 196.403 196.622Z" fill="#263238"/>
<path d="M174.984 183.816C181.476 187.415 188.464 188.563 195.806 188.718C195.894 188.718 195.883 188.85 195.806 188.872C192.196 189.778 187.526 189.193 183.927 188.431C180.572 187.774 177.448 186.252 174.863 184.015C174.764 183.96 174.852 183.739 174.984 183.816Z" fill="#263238"/>
<path d="M101.844 137.868C102.12 139.049 110.676 146.534 116.119 146.28C117.875 146.203 114.85 136.786 114.85 136.786L115.015 136.079L117.223 126.143L105.576 118.647L103.887 117.653C103.887 117.653 103.456 120.413 102.96 123.847C102.96 124.001 102.96 124.167 102.882 124.333C102.805 124.498 102.816 124.708 102.794 124.896C102.706 125.403 102.628 125.933 102.562 126.452C102.496 126.971 102.452 127.236 102.408 127.656C102.363 128.075 102.308 128.484 102.253 128.903C101.91 131.878 101.773 134.874 101.844 137.868Z" fill="#DE9E7A"/>
<path d="M102.982 123.847C103.982 126.636 105.575 129.175 107.653 131.287C109.731 133.399 112.243 135.034 115.016 136.079L117.224 126.143L105.577 118.647L103.888 117.653C103.888 117.653 103.479 120.413 102.982 123.847Z" fill="#263238"/>
<path d="M132.569 113.712C131.233 131.52 120.425 132.734 116.572 132.48C113.095 132.215 101.26 130.868 100.741 113.017C100.222 95.165 108.933 90.1528 116.937 90.3405C124.941 90.5282 133.894 95.8936 132.569 113.712Z" fill="#DE9E7A"/>
<path d="M101.215 111.78C105.4 112.498 106.448 105.874 106.448 105.874C106.448 105.874 111.284 106.205 112.885 98.5765C113.56 100.271 114.62 101.787 115.98 103.003C117.34 104.219 118.964 105.104 120.723 105.587C122.059 106.006 118.051 101.723 118.051 101.723C118.051 101.723 122.732 107.585 133.231 107.353C133.971 107.353 134.181 96.3133 126.784 91.3674C119.387 86.4215 111.836 87.3157 106.073 91.5551C104.545 92.0652 103.166 92.9432 102.057 94.1118C100.948 95.2803 100.143 96.7037 99.7141 98.2564C98.1574 103.776 99.5816 111.504 101.215 111.78Z" fill="#263238"/>
<path d="M103.777 113.359C103.777 113.359 100.796 107.232 98.0801 108.192C95.3643 109.153 96.9761 117.609 99.703 119.232C100.043 119.457 100.426 119.612 100.827 119.685C101.228 119.759 101.641 119.751 102.039 119.661C102.437 119.571 102.813 119.402 103.144 119.163C103.475 118.924 103.754 118.621 103.964 118.272L103.777 113.359Z" fill="#DE9E7A"/>
<path d="M98.588 110.599C98.588 110.599 98.5218 110.599 98.588 110.676C100.509 111.847 101.282 113.922 101.712 116.031C101.628 115.805 101.495 115.6 101.323 115.431C101.151 115.262 100.945 115.133 100.718 115.052C100.49 114.971 100.248 114.94 100.008 114.963C99.7683 114.985 99.536 115.059 99.3277 115.181C99.2615 115.181 99.3277 115.302 99.3277 115.291C99.7089 115.236 100.098 115.3 100.441 115.474C100.785 115.648 101.067 115.923 101.249 116.263C101.542 116.833 101.775 117.432 101.944 118.051C102.01 118.25 102.364 118.206 102.32 117.985V117.93C102.805 115.324 101.359 111.328 98.588 110.599Z" fill="#263238"/>
<path d="M129.445 110.202C129.036 110.091 128.672 109.926 128.341 109.782C127.911 109.693 127.523 109.464 127.237 109.131C127.168 109.008 127.141 108.865 127.161 108.725C127.181 108.586 127.246 108.456 127.347 108.358C127.576 108.195 127.843 108.096 128.123 108.07C128.402 108.045 128.683 108.095 128.937 108.214C129.49 108.376 129.963 108.738 130.262 109.23C130.332 109.35 130.364 109.489 130.352 109.628C130.34 109.766 130.286 109.898 130.196 110.004C130.107 110.111 129.987 110.187 129.852 110.222C129.717 110.258 129.575 110.25 129.445 110.202Z" fill="#263238"/>
<path d="M118.041 108.49C118.439 108.485 118.837 108.46 119.233 108.413C119.669 108.444 120.103 108.332 120.469 108.093C120.57 107.994 120.636 107.865 120.656 107.725C120.676 107.585 120.649 107.443 120.58 107.32C120.406 107.098 120.176 106.927 119.914 106.825C119.652 106.722 119.367 106.691 119.089 106.735C118.516 106.736 117.965 106.953 117.544 107.342C117.449 107.438 117.385 107.559 117.359 107.692C117.334 107.824 117.35 107.961 117.403 108.085C117.457 108.208 117.546 108.313 117.66 108.385C117.773 108.458 117.906 108.494 118.041 108.49Z" fill="#263238"/>
<path d="M119.94 113.326C119.94 113.271 119.84 113.326 119.829 113.414C119.73 114.629 119.41 115.997 118.262 116.273V116.34C119.62 116.307 120.039 114.485 119.94 113.326Z" fill="#263238"/>
<path d="M119.012 111.935C117.08 111.559 116.472 115.434 118.261 115.788C120.049 116.141 120.623 112.255 119.012 111.935Z" fill="#263238"/>
<path d="M118.217 112.023C117.842 112.189 117.444 112.52 117.036 112.498C116.627 112.476 116.263 112.001 116.02 111.57C116.02 111.57 115.954 111.57 115.943 111.57C115.81 112.31 115.943 113.116 116.76 113.348C117.577 113.58 118.096 112.994 118.394 112.244C118.449 112.178 118.372 111.957 118.217 112.023Z" fill="#263238"/>
<path d="M126.485 114.286C126.485 114.286 126.562 114.352 126.562 114.397C126.319 115.6 126.253 117.002 127.269 117.576C127.269 117.576 127.269 117.653 127.269 117.642C125.955 117.245 126.065 115.368 126.485 114.286Z" fill="#263238"/>
<path d="M127.766 113.204C129.72 113.381 129.224 117.278 127.413 117.112C125.602 116.947 126.121 113.061 127.766 113.204Z" fill="#263238"/>
<path d="M128.539 113.569C128.827 113.811 129.08 114.22 129.445 114.297C129.809 114.375 130.24 113.988 130.549 113.624C130.549 113.624 130.615 113.624 130.549 113.624C130.471 114.375 130.129 115.125 129.445 115.169C128.76 115.214 128.341 114.518 128.341 113.756C128.297 113.712 128.429 113.469 128.539 113.569Z" fill="#263238"/>
<path d="M118.461 123.03C118.681 123.361 118.891 123.803 119.311 123.924C119.755 124.017 120.213 124.017 120.658 123.924C120.658 123.924 120.724 123.924 120.658 124.002C120.438 124.198 120.169 124.333 119.88 124.391C119.591 124.449 119.291 124.429 119.013 124.333C118.781 124.221 118.587 124.043 118.458 123.82C118.328 123.598 118.267 123.342 118.284 123.085C118.328 122.986 118.427 122.975 118.461 123.03Z" fill="#263238"/>
<path d="M122.975 121.617C122.456 122.161 121.806 122.564 121.087 122.787C120.696 122.914 120.275 122.914 119.884 122.787C119.045 122.467 119.1 121.683 119.332 121.01C119.458 120.66 119.625 120.327 119.829 120.016C120.68 120.871 121.783 121.432 122.975 121.617Z" fill="#263238"/>
<path d="M121.087 122.787C120.696 122.914 120.275 122.914 119.884 122.787C119.045 122.467 119.1 121.683 119.332 121.01C119.779 121.072 120.194 121.28 120.511 121.601C120.828 121.922 121.031 122.339 121.087 122.787Z" fill="#FF9CBD"/>
<path d="M132.282 96.0482C130.228 95.5624 118.813 95.8936 113.679 98.1016C108.546 100.31 99.4376 107.695 98.9739 108.038C98.5102 108.38 96.1587 89.6008 111.416 86.1674C128.064 82.491 132.282 96.0482 132.282 96.0482Z" fill="#059CE1"/>
<path d="M99.8457 107.331C99.8457 107.331 109.936 94.0832 115.545 90.981C121.153 87.8787 133.705 86.2227 141.467 89.6451C147.527 92.3057 132.745 100.1 132.745 100.1C132.609 99.4581 132.325 98.8571 131.914 98.3452C131.504 97.8332 130.979 97.4247 130.382 97.1523C126.607 95.6509 119.431 96.8101 115.335 98.179C110.19 99.9344 99.8457 107.331 99.8457 107.331Z" fill="#059CE1"/>
<path opacity="0.2" d="M99.8457 107.331C99.8457 107.331 109.936 94.0832 115.545 90.981C121.153 87.8787 133.705 86.2227 141.467 89.6451C147.527 92.3057 132.745 100.1 132.745 100.1C132.609 99.4581 132.325 98.8571 131.914 98.3452C131.504 97.8332 130.979 97.4247 130.382 97.1523C126.607 95.6509 119.431 96.8101 115.335 98.179C110.19 99.9344 99.8457 107.331 99.8457 107.331Z" fill="black"/>
<path d="M114.817 136.764L112.41 144.922L101.69 135.914L99.2285 139.358C99.2285 139.358 110.269 154.262 110.269 153.533L112.863 146.457L117.985 150.729L116.484 138.927L114.817 136.764Z" fill="#059CE1"/>
<path d="M117.631 144.845C117.311 142.913 117.057 140.948 116.649 139.027C116.649 138.961 116.527 138.939 116.516 139.027C116.307 140.948 117.543 148.367 117.709 150.155C117.488 149.968 112.973 146.424 112.939 146.49C112.343 147.594 110.433 152.794 110.312 153.258C108.557 150.884 101.899 142.317 99.8902 140.109C99.8799 140.094 99.8643 140.084 99.8467 140.081C99.8291 140.078 99.811 140.082 99.7963 140.092C99.7817 140.103 99.7717 140.118 99.7686 140.136C99.7655 140.153 99.7695 140.172 99.7798 140.186C101.37 142.714 110.202 154.273 110.312 154.229C111.344 151.783 112.247 149.285 113.017 146.744C113.801 147.539 118.404 151.591 118.393 151.292C118.272 149.294 117.941 146.832 117.631 144.845Z" fill="#263238"/>
</svg>
