<svg width="750" height="500" viewBox="0 0 750 500" fill="none" xmlns="http://www.w3.org/2000/svg">
<path d="M658.791 53.3101H528.191V287.92H658.791V53.3101Z" fill="#EBEBEB"/>
<path d="M652.22 60.1201H533.41V280.93H652.22V60.1201Z" fill="#FAFAFA"/>
<path d="M664.309 290.04L658.789 287.92V49.3403H664.309V290.04Z" fill="#E0E0E0"/>
<path d="M654.8 123.64H533.41V125.99H654.8V123.64Z" fill="#E0E0E0"/>
<path d="M654.8 176.22H533.41V178.57H654.8V176.22Z" fill="#E0E0E0"/>
<path d="M654.8 228.81H533.41V231.16H654.8V228.81Z" fill="#E0E0E0"/>
<path d="M589.809 124.81V287.19H595.809V124.81H589.809Z" fill="#E0E0E0"/>
<path d="M559.009 60.1201H556.289V124.82H559.009V60.1201Z" fill="#E0E0E0"/>
<path d="M582.458 60.1201H579.738V124.82H582.458V60.1201Z" fill="#E0E0E0"/>
<path d="M605.919 60.1201H603.199V124.82H605.919V60.1201Z" fill="#E0E0E0"/>
<path d="M629.368 60.1201H626.648V124.82H629.368V60.1201Z" fill="#E0E0E0"/>
<path d="M528.188 49.3403H522.668V289.38H528.188V49.3403Z" fill="#E0E0E0"/>
<path d="M664.308 46.9102H522.668V53.3102H664.308V46.9102Z" fill="#E0E0E0"/>
<path d="M668.05 290.82H518.75V296.78H668.05V290.82Z" fill="#E0E0E0"/>
<path d="M658.79 287.92L668.05 290.82H518.75L528.19 287.92H658.79Z" fill="#E0E0E0"/>
<path d="M102.219 345.51H61.8594V356.19H102.219V345.51Z" fill="#EBEBEB"/>
<path d="M85.1496 367.43C85.1456 367.367 85.1456 367.303 85.1496 367.24V366.69C85.1496 366.19 85.1496 365.49 85.1496 364.59C85.1496 362.75 85.1496 360.1 85.0796 356.76L85.1996 356.88L44.7996 357L44.9996 356.8V362.22C44.9996 364 44.9996 365.76 44.9996 367.47L44.7996 367.27L73.5596 367.36L82.0496 367.42H84.3496H85.1596C85.1596 367.42 85.0996 367.42 84.9796 367.42H84.3996H82.1496L73.7096 367.47L44.7996 367.56H44.5996V356.76C45.0096 356.34 44.7096 356.64 44.8096 356.55L85.1596 356.63H85.2896V356.76C85.2896 360.13 85.2896 362.76 85.2196 364.66C85.2196 365.55 85.2196 366.24 85.2196 366.74C85.2196 366.95 85.2196 367.13 85.2196 367.26C85.2196 367.39 85.1596 367.44 85.1496 367.43Z" fill="#E0E0E0"/>
<path d="M93.8694 69.5399C93.8694 69.5399 93.8694 69.4699 93.8694 69.3499V68.7999C93.8694 68.2999 93.8694 67.5999 93.8694 66.6999C93.8694 64.8599 93.8694 62.2099 93.7994 58.8699L93.9194 58.9899L53.5694 59.0699L53.7694 58.8699V69.5399L53.5594 69.3399L82.3294 69.4299L90.8194 69.4899H93.1094H93.9194C93.9194 69.4899 93.8694 69.4899 93.7394 69.4899H93.1594H90.9094L82.4694 69.5399L53.5594 69.6299H53.3594V58.8799L53.5694 58.6699L93.9194 58.7499H93.9994V58.8799C93.9994 62.2499 93.9994 64.8799 93.9294 66.7799C93.9294 67.6699 93.9294 68.3599 93.9294 68.8599C93.9294 69.0699 93.9294 69.2499 93.9294 69.3799C93.9294 69.5099 93.8794 69.5499 93.8694 69.5399Z" fill="#E0E0E0"/>
<path d="M710.448 350.86C710.444 350.797 710.444 350.734 710.448 350.67V350.12C710.448 349.62 710.448 348.92 710.448 348.02C710.448 346.17 710.448 343.52 710.378 340.18L710.498 340.31L670.138 340.39C670.238 340.3 669.938 340.59 670.348 340.18V345.59C670.348 347.37 670.348 349.12 670.348 350.84L670.148 350.64L698.908 350.73L707.398 350.79H709.698H710.298H709.718H707.468L698.998 351L670.098 351.09H669.898V340.2L670.098 340L710.458 340.08H710.588V340.2C710.588 343.58 710.528 346.25 710.518 348.11C710.518 349.004 710.518 349.694 710.518 350.18C710.518 350.4 710.518 350.57 710.518 350.71C710.518 350.85 710.458 350.86 710.448 350.86Z" fill="#E0E0E0"/>
<path d="M173 131.68C172.996 131.617 172.996 131.554 173 131.49V130.94C173 130.44 173 129.74 173 128.84C173 126.99 173 124.35 172.94 121L173.06 121.13L132.7 121.21L132.91 121V126.41C132.91 128.19 132.91 129.94 132.91 131.66L132.71 131.46L161.47 131.55L169.96 131.61H172.26H172.88H172.31H170.06L161.61 131.67L132.71 131.76H132.51V123.61C132.51 123.16 132.51 122.71 132.51 122.25V121L132.72 120.8L173.08 120.88H173.21V121C173.21 124.38 173.15 127 173.14 128.91C173.14 129.8 173.14 130.49 173.14 130.99C173.14 131.2 173.14 131.37 173.14 131.51C173.101 131.573 173.054 131.63 173 131.68Z" fill="#E0E0E0"/>
<path d="M178.5 121C178.496 120.934 178.496 120.867 178.5 120.8C178.5 120.65 178.5 120.46 178.5 120.24C178.5 119.71 178.5 119 178.5 118.09C178.5 116.22 178.5 113.58 178.42 110.33L178.57 110.47L154.32 110.53C154.14 110.72 154.57 110.28 154.53 110.33V115.81C154.53 117.59 154.53 119.32 154.53 120.98L154.33 120.79L171.68 120.88L176.73 120.94H178.1H178.58C178.434 120.955 178.287 120.955 178.14 120.94H176.82L171.82 121L154.34 121.09H154.15V121C154.15 119.34 154.15 117.61 154.15 115.83V110.35C154.1 110.35 154.54 109.96 154.35 110.14L178.6 110.2H178.75V110.35C178.75 113.64 178.69 116.35 178.67 118.2C178.67 119.09 178.67 119.79 178.67 120.31C178.627 120.543 178.571 120.774 178.5 121Z" fill="#E0E0E0"/>
<path d="M704.879 128.19C704.872 128.124 704.872 128.057 704.879 127.99C704.879 127.85 704.879 127.67 704.879 127.45C704.879 126.94 704.879 126.24 704.879 125.34C704.879 123.5 704.879 120.85 704.809 117.51L704.939 117.63L664.579 117.72C664.669 117.62 664.369 117.92 664.779 117.51V128.17L664.579 127.97L693.339 128.06H701.829H704.119H704.719H704.939H704.169H701.919L693.479 128.12L664.579 128.21H664.379V128.01C664.379 126.29 664.379 124.54 664.379 122.75V117.35L664.589 117.14L704.949 117.22H704.999V117.35C704.999 120.72 704.999 123.35 704.929 125.26C704.929 126.14 704.929 126.84 704.929 127.33V128C704.879 128.13 704.879 128.19 704.879 128.19Z" fill="#E0E0E0"/>
<path d="M710.351 117.51C710.344 117.444 710.344 117.377 710.351 117.31V116.74C710.351 116.22 710.351 115.5 710.351 114.6C710.351 112.73 710.351 110.08 710.271 106.83L710.421 106.98L686.101 107C685.921 107.18 686.351 106.75 686.301 106.79V112.27C686.301 114.06 686.301 115.79 686.301 117.45L686.111 117.25L703.461 117.35H708.461H709.821C709.984 117.336 710.148 117.336 710.311 117.35C710.165 117.366 710.017 117.366 709.871 117.35H708.551H703.551L686.071 117.45H685.871V112.07C685.871 111.18 685.871 110.27 685.871 109.35V106.59C685.871 106.59 686.261 106.2 686.081 106.39L710.331 106.44H710.481V106.58C710.481 109.87 710.421 112.58 710.401 114.44C710.401 115.33 710.401 116.03 710.401 116.55C710.409 116.871 710.393 117.192 710.351 117.51Z" fill="#E0E0E0"/>
<path d="M102.02 206.07H61.6602V216.75H102.02V206.07Z" fill="#E0E0E0"/>
<path d="M131.04 184.14H90.6797V194.82H131.04V184.14Z" fill="#EBEBEB"/>
<path d="M114 206.07C113.99 206.004 113.99 205.937 114 205.87V205.32C114 204.82 114 204.12 114 203.22C114 201.38 114 198.73 113.93 195.39L114.06 195.51L73.7 195.59L73.9 195.39V206.05L73.7 205.84L102.46 205.94H110.95H113.25H113.85H114.06H113.3H111.04L102.6 206L73.7 206.09H73.5V205.89C73.5 204.17 73.5 202.42 73.5 200.63V195.23L73.71 195.02L114.07 195.1H114.19V195.23C114.19 198.6 114.19 201.28 114.12 203.14C114.12 204.02 114.12 204.71 114.12 205.21C114.12 205.43 114.12 205.6 114.12 205.74C114.097 205.856 114.057 205.967 114 206.07Z" fill="#E0E0E0"/>
<path d="M519.348 356.06H478.988V366.74H519.348V356.06Z" fill="#E0E0E0"/>
<path d="M548.368 334.13H508.008V344.81H548.368V334.13Z" fill="#EBEBEB"/>
<path d="M531.299 356.06C531.299 356.06 531.299 355.99 531.299 355.86V355.32C531.299 354.81 531.299 354.11 531.299 353.21C531.299 351.37 531.299 348.72 531.229 345.38L531.349 345.5L490.999 345.59C491.089 345.49 490.789 345.79 491.199 345.38V356.04L490.989 355.84L519.759 355.93L528.249 355.98H530.539H531.139H531.349H530.589H528.339L519.899 356.04L490.989 356.13H490.789V345.4L490.999 345.19L531.349 345.27H531.479V345.4C531.479 348.77 531.479 351.45 531.409 353.31C531.409 354.19 531.409 354.89 531.409 355.38C531.409 355.6 531.409 355.77 531.409 355.91C531.409 356.05 531.309 356.06 531.299 356.06Z" fill="#E0E0E0"/>
<path d="M207.59 295.47C207.586 295.404 207.586 295.337 207.59 295.27V294.72C207.59 294.22 207.59 293.52 207.59 292.62C207.59 290.78 207.59 288.13 207.53 284.79L207.65 284.91L167.29 284.99C167.38 284.9 167.09 285.2 167.5 284.79V290.19C167.5 291.98 167.5 293.73 167.5 295.45L167.3 295.24L196.06 295.34L204.55 295.39H206.85H207.45C207.52 295.383 207.59 295.383 207.66 295.39H206.9H204.65L196.2 295.45L167.3 295.54H167V284.81C167.41 284.4 167.11 284.69 167.2 284.6L207.56 284.68H207.69V284.81C207.69 288.18 207.63 290.81 207.62 292.72C207.62 293.6 207.62 294.29 207.62 294.79V295.32C207.613 295.371 207.603 295.421 207.59 295.47Z" fill="#E0E0E0"/>
<path d="M213.059 284.79C213.059 284.79 213.059 284.71 213.059 284.59C213.059 284.47 213.059 284.25 213.059 284.02C213.059 283.49 213.059 282.78 213.059 281.88C213.059 280.01 213.059 277.36 212.979 274.11L213.129 274.26L188.879 274.32L189.089 274.11V279.59C189.089 281.38 189.089 283.11 189.089 284.77L188.889 284.57L206.239 284.67L211.289 284.72H212.659H213.139C212.992 284.73 212.845 284.73 212.699 284.72H211.379L206.379 284.77L188.899 284.86H188.709V284.66C188.709 283 188.709 281.27 188.709 279.48V274L188.909 273.8H213.159H213.309V273.95C213.309 277.24 213.249 279.95 213.229 281.81C213.229 282.7 213.229 283.4 213.229 283.92C213.193 284.214 213.136 284.505 213.059 284.79Z" fill="#E0E0E0"/>
<path d="M700.829 470.77C700.829 470.91 552.369 471.03 369.279 471.03C186.189 471.03 37.6992 470.91 37.6992 470.77C37.6992 470.63 186.119 470.51 369.279 470.51C552.439 470.51 700.829 470.62 700.829 470.77Z" fill="#263238"/>
<path d="M665.63 433.6L672.05 459.11L682.95 477.81C683.137 478.13 683.256 478.484 683.3 478.851C683.344 479.219 683.312 479.591 683.206 479.945C683.1 480.3 682.922 480.629 682.684 480.912C682.446 481.195 682.152 481.425 681.82 481.59C681.44 481.785 681.018 481.887 680.59 481.887C680.163 481.887 679.741 481.785 679.36 481.59C674.46 478.95 656.5 469.14 656.14 467.25C655.71 465.06 647.57 440.8 647.57 440.8L665.63 433.6Z" fill="#059CE1"/>
<g opacity="0.6">
<path opacity="0.6" d="M681.82 481.59L655.66 465.5L655.96 466.57C656.216 467.5 656.793 468.308 657.59 468.85C659.72 470.3 665.7 474.16 679.28 481.57C679.671 481.779 680.107 481.889 680.55 481.889C680.993 481.889 681.43 481.779 681.82 481.57V481.59Z" fill="white"/>
</g>
<g opacity="0.6">
<path opacity="0.6" d="M658.609 455.88C658.987 456.023 659.297 456.3 659.482 456.658C659.667 457.016 659.712 457.43 659.609 457.82C659.481 458.199 659.212 458.513 658.859 458.699C658.505 458.885 658.094 458.929 657.71 458.82C657.312 458.669 656.985 458.376 656.791 457.997C656.597 457.618 656.55 457.181 656.659 456.77C656.835 456.388 657.151 456.087 657.542 455.933C657.934 455.778 658.37 455.781 658.76 455.94" fill="white"/>
</g>
<path d="M673 472.11C673.397 471.152 673.966 470.274 674.68 469.52C675.506 468.891 676.447 468.429 677.45 468.16C677.45 468.09 677.08 467.98 676.45 468.06C675.646 468.193 674.896 468.551 674.287 469.092C673.678 469.634 673.235 470.337 673.01 471.12C672.83 471.72 672.9 472.11 673 472.11Z" fill="#263238"/>
<path d="M675.708 475C675.858 475.07 676.448 474 677.648 473.29C678.423 472.909 679.221 472.575 680.038 472.29C679.58 472.157 679.098 472.135 678.63 472.225C678.162 472.316 677.722 472.516 677.348 472.81C675.998 473.66 675.558 475 675.708 475Z" fill="#263238"/>
<path d="M668.398 468.69C670.004 466.521 672.207 464.867 674.738 463.93C673.338 464.036 671.996 464.54 670.873 465.384C669.749 466.227 668.891 467.374 668.398 468.69Z" fill="#263238"/>
<path d="M665.801 461.1C665.911 461.23 667.151 460.26 668.951 459.69C670.751 459.12 672.321 459.16 672.331 458.99C672.341 458.82 670.711 458.51 668.771 459.14C667.582 459.426 666.531 460.12 665.801 461.1Z" fill="#263238"/>
<path d="M663.718 453.66C664.724 452.995 665.818 452.474 666.968 452.11C668.155 451.919 669.363 451.889 670.558 452.02C670.558 451.96 670.218 451.72 669.558 451.54C668.666 451.327 667.737 451.327 666.846 451.541C665.954 451.754 665.126 452.176 664.428 452.77C663.888 453.23 663.668 453.61 663.718 453.66Z" fill="#263238"/>
<path d="M666.53 450.7C666.524 450.354 666.446 450.014 666.3 449.7C665.965 448.847 665.469 448.066 664.84 447.4C664.421 446.876 663.841 446.504 663.19 446.34C662.968 446.309 662.742 446.345 662.542 446.445C662.342 446.545 662.177 446.704 662.07 446.9C661.895 447.297 661.866 447.744 661.99 448.16C662.283 448.997 662.859 449.704 663.619 450.161C664.378 450.617 665.274 450.794 666.15 450.66C667.012 450.516 667.812 450.117 668.446 449.514C669.081 448.912 669.521 448.134 669.71 447.28C669.759 447.065 669.76 446.841 669.714 446.625C669.667 446.409 669.574 446.206 669.44 446.03C669.293 445.858 669.093 445.741 668.872 445.698C668.65 445.654 668.42 445.687 668.22 445.79C667.636 446.097 667.143 446.553 666.79 447.11C666.256 447.851 665.857 448.681 665.61 449.56C665.491 449.88 665.44 450.22 665.46 450.56C665.85 449.42 666.409 448.344 667.12 447.37C667.445 446.896 667.881 446.508 668.39 446.24C668.501 446.188 668.626 446.173 668.746 446.196C668.866 446.22 668.976 446.28 669.06 446.37C669.137 446.492 669.188 446.629 669.211 446.772C669.233 446.914 669.226 447.06 669.19 447.2C668.995 447.93 668.598 448.589 668.044 449.102C667.49 449.616 666.802 449.962 666.06 450.1C665.316 450.208 664.558 450.058 663.91 449.677C663.263 449.295 662.765 448.703 662.5 448C662.398 447.719 662.398 447.411 662.5 447.13C662.555 447.02 662.644 446.929 662.753 446.872C662.863 446.815 662.987 446.793 663.11 446.81C663.662 446.945 664.159 447.249 664.53 447.68C665.37 448.561 666.047 449.583 666.53 450.7Z" fill="#263238"/>
<path d="M579.71 437.63L581.13 459.05C581.13 459.05 559.81 466.13 559.68 470.12L601.35 470.42L600.51 436.94L579.71 437.63Z" fill="#059CE1"/>
<g opacity="0.6">
<path opacity="0.6" d="M593.999 456.86C594.402 456.973 594.75 457.229 594.977 457.581C595.204 457.933 595.293 458.356 595.229 458.77C595.133 459.178 594.885 459.533 594.536 459.764C594.186 459.994 593.762 460.083 593.349 460.01C592.928 459.891 592.564 459.622 592.326 459.254C592.089 458.886 591.994 458.443 592.059 458.01C592.201 457.596 592.498 457.253 592.888 457.053C593.278 456.853 593.73 456.813 594.149 456.94" fill="white"/>
</g>
<g opacity="0.6">
<path opacity="0.6" d="M601.349 470.42L601.269 467.04L560.999 468.16C560.572 468.376 560.206 468.696 559.935 469.091C559.664 469.486 559.497 469.943 559.449 470.42H601.349Z" fill="white"/>
</g>
<path d="M580.451 458.86C580.451 459.07 581.451 459.13 582.451 459.75C583.451 460.37 584.031 461.21 584.221 461.13C584.411 461.05 584.061 459.88 582.821 459.13C581.581 458.38 580.401 458.68 580.451 458.86Z" fill="#263238"/>
<path d="M576.141 460.8C576.141 461 576.991 461.32 577.701 462.16C578.411 463 578.651 463.9 578.851 463.89C579.051 463.88 579.151 462.72 578.241 461.69C577.331 460.66 576.141 460.61 576.141 460.8Z" fill="#263238"/>
<path d="M573.817 466.11C573.997 466.11 574.247 465.11 573.697 464.02C573.147 462.93 572.177 462.51 572.097 462.68C572.017 462.85 572.617 463.43 573.097 464.34C573.577 465.25 573.607 466.09 573.817 466.11Z" fill="#263238"/>
<path d="M580.669 453.94C580.759 454.13 581.669 453.82 582.839 453.86C584.009 453.9 584.899 454.24 584.999 454.06C585.099 453.88 584.209 453.19 582.859 453.15C581.509 453.11 580.559 453.79 580.669 453.94Z" fill="#263238"/>
<g opacity="0.3">
<path opacity="0.3" d="M580 441.87L580.25 445.69L600.71 444.88L600.63 441.44L580 441.87Z" fill="black"/>
</g>
<path d="M580.457 449.62C581.148 449.779 581.87 449.752 582.547 449.54C583.293 449.383 584.018 449.138 584.707 448.81C585.117 448.614 585.512 448.387 585.887 448.13C586.119 447.998 586.325 447.825 586.497 447.62C586.626 447.472 586.702 447.286 586.713 447.09C586.723 446.895 586.669 446.701 586.557 446.54C586.451 446.402 586.315 446.29 586.159 446.214C586.003 446.138 585.831 446.099 585.657 446.1C585.392 446.107 585.13 446.15 584.877 446.23C584.437 446.355 584.008 446.519 583.597 446.72C582.9 447.055 582.261 447.501 581.707 448.04C580.767 448.96 580.467 449.73 580.537 449.77C580.607 449.81 581.077 449.18 582.037 448.41C582.598 447.967 583.213 447.598 583.867 447.31C584.253 447.144 584.651 447.007 585.057 446.9C585.487 446.78 585.867 446.76 585.987 446.95C586.107 447.14 585.987 447.06 585.987 447.19C585.853 447.332 585.702 447.457 585.537 447.56C584.592 448.213 583.553 448.718 582.457 449.06C581.778 449.2 581.11 449.387 580.457 449.62Z" fill="#263238"/>
<path d="M580.741 449.9C581.108 449.301 581.279 448.602 581.231 447.9C581.24 447.125 581.119 446.354 580.871 445.62C580.72 445.186 580.53 444.768 580.301 444.37C580.179 444.101 579.99 443.867 579.752 443.692C579.513 443.517 579.234 443.406 578.941 443.37C578.756 443.383 578.579 443.447 578.429 443.555C578.279 443.663 578.162 443.81 578.091 443.98C577.99 444.226 577.926 444.486 577.901 444.75C577.825 445.214 577.825 445.687 577.901 446.15C578.034 446.928 578.361 447.661 578.851 448.28C579.701 449.34 580.561 449.55 580.571 449.48C580.581 449.41 580.001 449 579.301 448C578.922 447.414 578.676 446.752 578.581 446.06C578.526 445.662 578.526 445.258 578.581 444.86C578.581 444.41 578.791 444.05 578.961 444.09C579.131 444.13 579.531 444.4 579.711 444.75C579.922 445.106 580.106 445.477 580.261 445.86C580.51 446.526 580.668 447.222 580.731 447.93C580.821 449.1 580.621 449.87 580.741 449.9Z" fill="#263238"/>
<path d="M579.607 250.81L643.087 250.33L673.767 451.83L647.417 455.17L613.657 289.49L603.547 455.76L603.517 456.26L575.027 455.76L579.607 250.81Z" fill="#263238"/>
<path d="M611.529 285.15C611.553 284.33 611.499 283.51 611.369 282.7C611.219 281.18 611.059 279.1 610.989 276.79C610.919 274.48 610.989 272.38 610.989 270.87C611.067 270.049 611.067 269.222 610.989 268.4C610.764 269.195 610.637 270.014 610.609 270.84C610.248 274.807 610.369 278.803 610.969 282.74C611.047 283.565 611.235 284.375 611.529 285.15Z" fill="#455A64"/>
<path d="M606.299 269C606.299 269 606.189 268.88 605.929 268.86C605.57 268.849 605.218 268.958 604.929 269.17C604.692 269.333 604.495 269.548 604.357 269.8C604.218 270.052 604.14 270.333 604.129 270.62C604.159 270.979 604.294 271.32 604.516 271.604C604.737 271.887 605.037 272.099 605.377 272.215C605.718 272.331 606.085 272.345 606.433 272.255C606.782 272.165 607.096 271.976 607.339 271.71C607.506 271.476 607.617 271.205 607.662 270.921C607.707 270.636 607.686 270.345 607.599 270.07C607.49 269.711 607.26 269.4 606.949 269.19C606.729 269.05 606.579 269.05 606.569 269.07C606.559 269.09 607.079 269.37 607.239 270.17C607.285 270.385 607.284 270.607 607.236 270.821C607.187 271.035 607.093 271.236 606.959 271.41C606.775 271.588 606.545 271.711 606.296 271.766C606.046 271.822 605.787 271.807 605.545 271.725C605.303 271.642 605.088 271.494 604.925 271.298C604.762 271.101 604.656 270.863 604.619 270.61C604.621 270.392 604.67 270.177 604.761 269.979C604.852 269.78 604.985 269.604 605.149 269.46C605.709 268.91 606.299 269.07 606.299 269Z" fill="#455A64"/>
<path d="M622.559 264.92C622.559 264.92 622.739 265.14 623.139 265.45C623.702 265.891 624.308 266.273 624.949 266.59C625.905 267.072 626.911 267.447 627.949 267.71C629.211 268.025 630.507 268.19 631.809 268.2C633.113 268.188 634.411 268.027 635.679 267.72C636.717 267.454 637.723 267.075 638.679 266.59C639.318 266.275 639.925 265.897 640.489 265.46C640.879 265.15 641.089 264.96 641.069 264.93C641.049 264.9 640.129 265.53 638.519 266.26C637.575 266.684 636.594 267.019 635.589 267.26C633.119 267.84 630.548 267.84 628.079 267.26C627.07 267.028 626.089 266.693 625.149 266.26C623.499 265.52 622.619 264.84 622.559 264.92Z" fill="#455A64"/>
<path d="M583.258 269.19C583.806 269.431 584.399 269.557 584.998 269.56C587.902 269.776 590.788 268.95 593.138 267.23C593.644 266.911 594.079 266.493 594.418 266C591.208 268.382 587.242 269.515 583.258 269.19Z" fill="#455A64"/>
<path d="M663.718 453.66C663.646 453.522 663.586 453.378 663.538 453.23C663.448 452.94 663.318 452.49 663.178 451.9C662.898 450.72 662.518 448.97 662.058 446.7C661.158 442.17 659.918 435.61 658.438 427.48C655.438 411.23 651.538 388.76 647.188 363.93C642.838 339.1 638.868 316.65 636.008 300.36C634.538 292.25 633.348 285.68 632.528 281.11C632.098 278.86 631.768 277.11 631.528 275.88C631.408 275.3 631.318 274.88 631.258 274.52L631.148 274.06C631.148 274.06 631.148 274.22 631.198 274.53C631.248 274.84 631.328 275.32 631.418 275.9C631.628 277.12 631.918 278.9 632.308 281.14C633.088 285.72 634.218 292.3 635.618 300.42L646.618 364.02C650.958 388.85 654.968 411.31 658.018 427.55C659.538 435.67 660.828 442.23 661.798 446.74C662.768 451.25 663.528 453.74 663.718 453.66Z" fill="#455A64"/>
<path d="M582.81 451.39C582.81 451.39 582.81 451.23 582.81 450.92C582.81 450.61 582.81 450.14 582.81 449.56C582.81 448.34 582.81 446.56 582.81 444.32C582.81 442.08 582.81 439.25 582.9 436.02C582.99 432.79 582.97 429.1 583.08 425.02C583.24 416.88 583.55 407.19 584.02 396.44C584.49 385.69 585.2 373.87 586.11 361.49C587.02 349.11 588.11 337.31 589.26 326.6C590.41 315.89 591.54 306.27 592.6 298.19C593.1 294.19 593.6 290.51 594.05 287.3C594.5 284.09 594.88 281.3 595.21 279.09C595.54 276.88 595.77 275.09 595.94 273.9C596.02 273.32 596.08 272.9 596.12 272.54C596.129 272.387 596.129 272.233 596.12 272.08C596.12 272.08 596.12 272.23 596.03 272.54C595.94 272.85 595.89 273.31 595.8 273.88C595.6 275.09 595.32 276.83 594.97 279.06C594.62 281.29 594.18 284.06 593.72 287.26C593.26 290.46 592.72 294.11 592.19 298.15C591.09 306.22 589.91 315.84 588.74 326.55C587.57 337.26 586.49 349.05 585.55 361.45C584.61 373.85 583.97 385.66 583.5 396.45C583.03 407.24 582.78 416.9 582.67 425.05C582.59 429.12 582.59 432.8 582.56 436.05C582.53 439.3 582.56 442.05 582.56 444.35C582.56 446.65 582.56 448.35 582.56 449.59C582.56 450.17 582.56 450.59 582.56 450.95C582.56 451.31 582.81 451.39 582.81 451.39Z" fill="#455A64"/>
<path d="M517.169 173.14L556.839 184.72L579.059 171.6L595.919 191.6L564.469 205.22C562.246 206.183 559.838 206.641 557.417 206.561C554.996 206.481 552.623 205.866 550.469 204.76L511.469 184.76L517.169 173.14Z" fill="#FFBE9D"/>
<path d="M508.118 169.32L503.208 166.77L489.548 159.66C489.304 159.562 489.036 159.543 488.78 159.604C488.525 159.665 488.294 159.804 488.121 160.001C487.948 160.199 487.84 160.445 487.812 160.706C487.785 160.968 487.839 161.231 487.968 161.46L496.678 168.62L492.998 170C492.273 170.279 491.678 170.817 491.328 171.51L489.398 175.36C489.398 175.36 487.178 175.6 486.958 177.03C486.738 178.46 488.398 178.97 488.398 178.97L487.978 180.65C487.882 181.038 487.869 181.441 487.94 181.834C488.01 182.227 488.163 182.6 488.388 182.93C490.498 183.8 492.178 179.37 492.178 179.37L494.438 179.61L496.898 184.61C500.028 185.37 498.548 180.43 498.548 180.43L499.928 180.78C501.308 181.12 502.028 182.1 504.178 183.2C506.328 184.3 510.538 184.69 510.538 184.69L513.658 186.99L523.158 174L508.118 169.32Z" fill="#FAFAFA"/>
<path d="M508.119 169.32L508.389 169.37L509.159 169.59L512.159 170.48L523.239 173.86L523.469 173.93L523.319 174.12L513.909 187.12L513.769 187.31L513.589 187.17L510.459 184.88H510.579C508.472 184.719 506.398 184.261 504.419 183.52C503.424 183.03 502.474 182.455 501.579 181.8C501.146 181.487 500.671 181.234 500.169 181.05C499.659 180.91 499.089 180.78 498.549 180.64L498.849 180.32C499.126 181.24 499.241 182.201 499.189 183.16C499.177 183.433 499.11 183.701 498.994 183.949C498.877 184.196 498.712 184.417 498.509 184.6C498.271 184.748 498.005 184.843 497.727 184.881C497.45 184.919 497.168 184.898 496.899 184.82H496.789L496.729 184.7C495.949 183.12 495.109 181.44 494.259 179.7L494.469 179.85L492.469 179.64H492.189L492.459 179.48C492.144 180.274 491.738 181.029 491.249 181.73C491.025 182.12 490.725 182.46 490.365 182.73C490.006 183 489.596 183.194 489.159 183.3H488.799C488.679 183.3 488.569 183.24 488.449 183.21H488.369H488.319C488.319 183.21 488.099 183.03 488.199 183.12L488.109 182.98L487.959 182.68C487.781 182.274 487.689 181.834 487.689 181.39C487.712 180.966 487.786 180.547 487.909 180.14L488.199 178.97L488.389 179.29C487.848 179.151 487.371 178.83 487.039 178.38C486.882 178.142 486.783 177.871 486.748 177.589C486.713 177.306 486.745 177.019 486.839 176.75C487.055 176.243 487.455 175.836 487.959 175.61C488.419 175.389 488.912 175.244 489.419 175.18L489.219 175.32L490.439 172.89L491.049 171.7C491.234 171.269 491.503 170.878 491.839 170.55C492.179 170.224 492.584 169.975 493.029 169.82L494.239 169.36L496.609 168.46L496.539 168.87L487.849 161.68C487.699 161.408 487.638 161.095 487.676 160.786C487.714 160.478 487.848 160.189 488.059 159.96C488.26 159.743 488.523 159.592 488.813 159.528C489.102 159.463 489.404 159.489 489.679 159.6L503.219 166.75L506.889 168.75L507.839 169.28C507.953 169.334 508.061 169.401 508.159 169.48C508.043 169.437 507.929 169.387 507.819 169.33L506.819 168.86L503.079 166.98L489.469 159.98C489.268 159.901 489.048 159.884 488.837 159.932C488.626 159.981 488.435 160.091 488.289 160.25C488.139 160.419 488.045 160.629 488.02 160.853C487.995 161.077 488.04 161.303 488.149 161.5V161.44L496.879 168.58L497.189 168.84L496.809 168.98L494.449 169.89L493.239 170.35C492.867 170.492 492.527 170.706 492.239 170.98C491.948 171.267 491.713 171.606 491.549 171.98L490.949 173.17L489.729 175.6L489.669 175.72H489.529C488.689 175.84 487.669 176.2 487.379 176.96C487.314 177.154 487.294 177.359 487.318 177.561C487.342 177.763 487.411 177.958 487.519 178.13C487.784 178.471 488.153 178.716 488.569 178.83L488.819 178.9L488.759 179.14L488.469 180.31C488.353 180.673 488.285 181.05 488.269 181.43C488.267 181.802 488.342 182.169 488.489 182.51L488.619 182.75L488.689 182.87C488.799 182.95 488.549 182.75 488.579 182.77H488.639C488.721 182.796 488.804 182.816 488.889 182.83H489.139C489.868 182.625 490.486 182.14 490.859 181.48C491.321 180.814 491.703 180.095 491.999 179.34L492.079 179.15H492.269H492.549L494.549 179.36H494.699L494.759 179.48C495.599 181.19 496.439 182.87 497.219 184.48L497.049 184.35C497.244 184.409 497.449 184.428 497.652 184.406C497.855 184.384 498.051 184.321 498.229 184.22C498.524 183.933 498.696 183.542 498.709 183.13C498.759 182.242 498.65 181.351 498.389 180.5L498.279 180.07L498.699 180.18C499.259 180.32 499.779 180.44 500.359 180.6C500.906 180.799 501.421 181.075 501.889 181.42C502.763 182.058 503.69 182.62 504.659 183.1C506.587 183.824 508.606 184.275 510.659 184.44H510.719H510.769L513.889 186.75L513.569 186.8C517.179 181.89 520.409 177.51 523.069 173.88L523.159 174.15L512.159 170.61L509.219 169.61L508.459 169.35L508.119 169.32Z" fill="#263238"/>
<path d="M498.908 180.5C498.908 180.55 497.818 180.36 495.968 180.09C494.118 179.82 491.498 179.48 488.418 179.22H488.468C488.184 179.221 487.903 179.152 487.652 179.018C487.401 178.884 487.188 178.69 487.03 178.453C486.873 178.216 486.776 177.944 486.75 177.661C486.723 177.377 486.767 177.092 486.878 176.83C487.123 176.324 487.493 175.888 487.953 175.564C488.413 175.241 488.949 175.04 489.508 174.98C490.688 174.79 491.768 174.73 492.828 174.54C493.888 174.35 494.908 174.16 495.828 173.91C496.748 173.66 497.688 173.4 498.518 173.12C498.902 173.016 499.26 172.832 499.568 172.58C499.692 172.481 499.779 172.344 499.817 172.191C499.855 172.037 499.841 171.875 499.778 171.73C499.618 171.436 499.404 171.175 499.148 170.96L498.478 170.28C498.058 169.85 497.698 169.5 497.388 169.22C496.768 168.67 496.388 168.44 496.388 168.4C496.806 168.551 497.193 168.778 497.528 169.07C497.932 169.382 498.32 169.716 498.688 170.07L499.388 170.72C499.692 170.952 499.944 171.245 500.128 171.58C500.226 171.797 500.251 172.039 500.201 172.271C500.15 172.504 500.027 172.713 499.848 172.87C499.509 173.175 499.106 173.401 498.668 173.53C497.828 173.83 496.928 174.12 495.958 174.38C494.988 174.64 493.958 174.86 492.898 175.04C491.838 175.22 490.678 175.31 489.588 175.49C489.115 175.531 488.659 175.692 488.266 175.958C487.872 176.224 487.553 176.586 487.338 177.01C487.257 177.192 487.221 177.39 487.233 177.589C487.246 177.788 487.306 177.98 487.409 178.15C487.513 178.321 487.656 178.463 487.826 178.566C487.997 178.669 488.189 178.728 488.388 178.74C491.488 179.04 494.108 179.44 495.948 179.8C496.868 179.98 497.598 180.14 498.088 180.27C498.372 180.302 498.649 180.379 498.908 180.5Z" fill="#263238"/>
<path d="M498.55 173.49C497.727 173.851 496.819 173.973 495.93 173.84C495.465 173.823 495.003 173.762 494.55 173.66L494.79 173.52C494.49 174.2 494.25 174.63 494.16 174.6C494.07 174.57 494.16 174.08 494.37 173.37L494.42 173.21H494.61L495.96 173.3C496.827 173.274 497.695 173.338 498.55 173.49Z" fill="#263238"/>
<path d="M588.111 157.07L562.551 176.68L580.471 200.28L602.331 187.87L588.111 157.07Z" fill="#059CE1"/>
<path d="M588.11 157.07C591.81 154.8 604.6 151.99 604.6 151.99L629.34 149.3L650.8 159.15L642 196.08L649.72 265.71L576.07 269.71L588.11 157.07Z" fill="#059CE1"/>
<path d="M630.159 187.96H617.469V191.38H630.159V187.96Z" fill="#FAFAFA"/>
<path d="M630.177 191.41H617.438V187.94H630.177V191.41ZM617.487 191.41H630.128V188H617.487V191.41Z" fill="#263238"/>
<path d="M584.998 178.44C584.698 176.566 584.574 174.668 584.628 172.77C584.515 170.876 584.568 168.975 584.788 167.09C585.088 168.964 585.212 170.863 585.158 172.76C585.273 174.654 585.219 176.555 584.998 178.44Z" fill="#263238"/>
<path d="M631.43 115.41L628.719 153.76C628.495 156.772 627.144 159.589 624.934 161.648C622.725 163.708 619.82 164.858 616.8 164.87C615.165 164.864 613.55 164.523 612.052 163.87C610.553 163.217 609.205 162.265 608.088 161.072C606.97 159.88 606.109 158.471 605.556 156.933C605.002 155.396 604.769 153.761 604.87 152.13C605.11 148.48 605.32 145.5 605.32 145.5C605.32 145.5 596.04 144.05 595.93 134.77C595.86 129.41 596.79 117.24 597.58 107.93C597.835 104.89 599.225 102.057 601.471 99.9939C603.718 97.9304 606.659 96.7868 609.71 96.79H615.32C617.611 96.9246 619.852 97.5168 621.91 98.5318C623.969 99.5468 625.803 100.964 627.305 102.7C628.806 104.435 629.945 106.454 630.654 108.637C631.362 110.82 631.626 113.123 631.43 115.41Z" fill="#FFBE9D"/>
<path d="M605.309 145.36C609.595 145.442 613.807 144.244 617.409 141.92C617.409 141.92 614.549 148.6 605.289 147.77L605.309 145.36Z" fill="#EB996E"/>
<path d="M599.469 119.65C599.463 119.995 599.593 120.329 599.831 120.579C600.068 120.83 600.394 120.977 600.739 120.99C600.908 121.005 601.078 120.986 601.239 120.934C601.4 120.882 601.549 120.797 601.677 120.686C601.805 120.575 601.909 120.44 601.983 120.287C602.057 120.135 602.1 119.969 602.109 119.8C602.112 119.454 601.98 119.121 601.741 118.871C601.502 118.62 601.175 118.473 600.829 118.46C600.661 118.447 600.492 118.467 600.332 118.52C600.172 118.572 600.024 118.657 599.898 118.768C599.771 118.879 599.667 119.014 599.594 119.166C599.52 119.317 599.478 119.482 599.469 119.65Z" fill="#263238"/>
<path d="M599.181 117.23C599.341 117.41 600.351 116.66 601.771 116.67C603.191 116.68 604.241 117.38 604.401 117.21C604.561 117.04 604.311 116.82 603.851 116.49C603.234 116.063 602.501 115.836 601.751 115.84C601.006 115.833 600.28 116.069 599.681 116.51C599.251 116.84 599.101 117.16 599.181 117.23Z" fill="#263238"/>
<path d="M613.18 119.66C613.177 120.005 613.309 120.337 613.549 120.586C613.788 120.835 614.115 120.98 614.46 120.99C614.628 121.004 614.797 120.984 614.957 120.931C615.117 120.878 615.264 120.793 615.391 120.682C615.518 120.572 615.621 120.436 615.695 120.285C615.768 120.133 615.811 119.968 615.82 119.8C615.823 119.456 615.692 119.124 615.455 118.874C615.218 118.624 614.894 118.476 614.55 118.46C614.38 118.447 614.21 118.467 614.049 118.52C613.888 118.574 613.739 118.659 613.611 118.771C613.484 118.883 613.38 119.019 613.305 119.172C613.231 119.324 613.189 119.491 613.18 119.66Z" fill="#263238"/>
<path d="M613.2 117.5C613.36 117.67 614.37 116.93 615.79 116.93C617.21 116.93 618.26 117.65 618.42 117.48C618.58 117.31 618.33 117.09 617.87 116.75C617.254 116.323 616.52 116.099 615.77 116.11C615.028 116.106 614.303 116.337 613.7 116.77C613.27 117.11 613.12 117.42 613.2 117.5Z" fill="#263238"/>
<path d="M608.147 127.72C607.397 127.489 606.621 127.351 605.838 127.31C605.468 127.31 605.127 127.2 605.067 126.95C605.031 126.574 605.115 126.196 605.307 125.87C605.647 124.99 606.007 124.06 606.387 123.1C607.877 119.15 608.967 115.9 608.807 115.84C608.647 115.78 607.297 118.93 605.807 122.84C605.447 123.84 605.097 124.75 604.807 125.63C604.576 126.069 604.508 126.576 604.617 127.06C604.671 127.189 604.753 127.304 604.857 127.398C604.96 127.491 605.084 127.56 605.217 127.6C605.42 127.653 605.628 127.68 605.838 127.68C606.602 127.799 607.379 127.812 608.147 127.72Z" fill="#263238"/>
<path d="M612.828 112.55C612.968 112.94 614.388 112.76 616.068 112.96C617.748 113.16 619.068 113.62 619.318 113.27C619.418 113.1 619.178 112.74 618.628 112.36C617.9 111.9 617.076 111.612 616.22 111.519C615.364 111.425 614.498 111.528 613.688 111.82C613.078 112.06 612.768 112.37 612.828 112.55Z" fill="#263238"/>
<path d="M599.188 114.43C599.438 114.76 600.428 114.43 601.608 114.43C602.788 114.43 603.788 114.64 604.018 114.3C604.118 114.14 603.958 113.82 603.528 113.51C602.941 113.143 602.258 112.958 601.565 112.98C600.873 113.001 600.202 113.227 599.638 113.63C599.218 113.94 599.078 114.28 599.188 114.43Z" fill="#263238"/>
<path d="M628.297 122.38C628.457 122.31 634.677 120.49 634.477 126.84C634.277 133.19 627.938 131.67 627.938 131.49C627.938 131.31 628.297 122.38 628.297 122.38Z" fill="#FFBE9D"/>
<path d="M629.999 129.15C629.999 129.15 630.109 129.23 630.299 129.32C630.429 129.375 630.568 129.403 630.709 129.403C630.85 129.403 630.989 129.375 631.119 129.32C631.538 129.075 631.884 128.722 632.121 128.299C632.359 127.875 632.479 127.396 632.469 126.91C632.5 126.368 632.411 125.825 632.209 125.32C632.155 125.119 632.053 124.934 631.912 124.781C631.771 124.628 631.595 124.511 631.399 124.44C631.274 124.402 631.139 124.41 631.018 124.461C630.898 124.512 630.799 124.604 630.739 124.72C630.649 124.9 630.689 125.03 630.649 125.04C630.609 125.05 630.519 124.93 630.579 124.66C630.62 124.508 630.711 124.373 630.839 124.28C631.018 124.152 631.241 124.098 631.459 124.13C631.715 124.189 631.951 124.312 632.147 124.487C632.343 124.661 632.491 124.883 632.579 125.13C632.835 125.69 632.949 126.306 632.909 126.92C632.92 127.485 632.765 128.04 632.463 128.517C632.161 128.993 631.724 129.37 631.209 129.6C631.038 129.645 630.859 129.651 630.686 129.616C630.512 129.581 630.349 129.508 630.209 129.4C629.999 129.3 629.929 129.16 629.999 129.15Z" fill="#EB996E"/>
<path d="M631.828 122.16C631.225 122.121 630.623 122.246 630.085 122.522C629.548 122.799 629.096 123.216 628.778 123.73C628.358 124.64 628.268 125.66 627.858 126.57C627.695 127.042 627.379 127.445 626.961 127.717C626.542 127.989 626.045 128.113 625.548 128.07C625.222 127.962 624.929 127.772 624.698 127.518C624.467 127.264 624.305 126.955 624.228 126.62C624.093 125.944 624.093 125.247 624.228 124.57C624.598 121.57 625.228 118.67 625.348 115.69C625.589 112.691 624.934 109.688 623.468 107.06C622.722 105.76 621.639 104.685 620.333 103.949C619.027 103.213 617.547 102.844 616.048 102.88C614.048 103.04 612.268 104.07 610.308 104.35C609.142 104.501 607.957 104.386 606.841 104.014C605.726 103.641 604.71 103.021 603.868 102.2C603.485 101.888 603.084 101.597 602.668 101.33C602.687 100.613 602.916 99.9175 603.328 99.3302C607.218 95.7302 614.218 94.7302 619.328 96.0202C621.938 96.6631 624.377 97.8665 626.475 99.5468C628.573 101.227 630.28 103.344 631.478 105.75C633.688 110.56 633.038 117.26 631.818 122.12" fill="#263238"/>
<path d="M597.469 106.49C597.469 106.49 621.819 98.6602 632.359 119.73C632.359 119.73 633.929 114.45 633.929 111.63C633.929 109.74 632.799 98.5001 621.239 94.9601C621.239 95.0001 603.809 88.3101 597.469 106.49Z" fill="#059CE1"/>
<path d="M618.399 107C617.966 107.698 617.378 108.286 616.68 108.717C615.982 109.149 615.193 109.412 614.376 109.487C613.558 109.561 612.735 109.445 611.97 109.147C611.205 108.849 610.52 108.378 609.969 107.77C609.724 108.374 609.298 108.887 608.748 109.237C608.199 109.587 607.554 109.756 606.903 109.722C606.253 109.688 605.629 109.452 605.119 109.046C604.609 108.641 604.238 108.086 604.059 107.46C603.398 108.196 602.591 108.786 601.689 109.19C601.234 109.382 600.732 109.43 600.249 109.328C599.767 109.226 599.327 108.979 598.989 108.62C598.715 108.198 598.583 107.7 598.614 107.197C598.644 106.695 598.835 106.216 599.159 105.83C599.817 105.068 600.666 104.495 601.619 104.17C604.505 102.901 607.675 102.418 610.809 102.77C613.959 103.147 616.844 104.718 618.869 107.16" fill="#263238"/>
<g opacity="0.4">
<path opacity="0.4" d="M597.469 106.49C599.5 104.36 602.278 103.102 605.219 102.98C612.399 102.66 625.839 106.7 632.359 119.73C632.359 119.73 633.929 114.45 633.929 111.63C633.929 109.74 632.799 98.5001 621.239 94.9601C621.239 95.0001 603.809 88.3101 597.469 106.49Z" fill="black"/>
</g>
<path d="M631.34 117.26C627.646 111.759 622.805 107.123 617.15 103.67C611.56 100.17 602.3 96.6702 595.92 95.0202C594.032 94.4017 592.034 94.1937 590.06 94.4102C589.071 94.5396 588.138 94.945 587.369 95.5799C586.599 96.2148 586.024 97.0536 585.71 98.0002C585.11 100.4 589.37 104.11 591.38 105.57C593.343 106.88 595.376 108.082 597.47 109.17C597.47 109.17 597.42 104.71 604.56 103.79C614.27 102.51 631.34 117.26 631.34 117.26Z" fill="#059CE1"/>
<path d="M611.367 99.06C609.178 97.8909 606.814 97.0838 604.367 96.67C604.956 96.2116 605.597 95.8255 606.277 95.52C608.191 95.8393 610.041 96.4639 611.757 97.37L611.367 99.06Z" fill="#E0E0E0"/>
<path d="M630 122.6C629.585 122.966 629.144 123.3 628.68 123.6C627.68 124.34 626.62 125.1 625.49 125.94C624.025 127.114 622.463 128.161 620.82 129.07C622.153 127.746 623.613 126.556 625.18 125.52C627.62 123.66 629.84 122.39 630 122.6Z" fill="#EBEBEB"/>
<path d="M630.6 131.86C628.531 135.052 625.568 137.563 622.08 139.08C622.01 138.94 624.19 137.7 626.54 135.7C628.89 133.7 630.48 131.76 630.6 131.86Z" fill="#EBEBEB"/>
<path d="M595.7 128.79C596.737 129.1 597.797 129.328 598.87 129.47C603.47 129.22 605.08 127.67 612.59 129.27C613.804 129.526 615.053 129.564 616.28 129.38C617.767 129.166 619.268 129.059 620.77 129.06L622.22 139.06C622.22 139.06 613.31 146.85 605.29 145.98C594.91 144.88 593.69 132.78 595.7 128.79Z" fill="#FAFAFA"/>
<path d="M595.7 128.79C595.7 128.79 595.61 129.05 595.43 129.52C595.211 130.23 595.067 130.96 595 131.7C594.779 134.448 595.278 137.205 596.45 139.7C597.257 141.407 598.477 142.885 600 144C601.791 145.225 603.892 145.918 606.06 146C608.466 146.043 610.853 145.569 613.06 144.61C615.439 143.628 617.697 142.377 619.79 140.88C620.61 140.29 621.41 139.7 622.15 139.06V139.16C621.64 135.64 621.15 132.27 620.71 129.16L620.8 129.24C619.026 129.258 617.256 129.392 615.5 129.64C614.661 129.698 613.818 129.654 612.99 129.51C612.19 129.36 611.43 129.18 610.67 129.07C609.257 128.824 607.824 128.703 606.39 128.71C605.161 128.747 603.938 128.881 602.73 129.11C601.63 129.3 600.64 129.46 599.73 129.53C599.324 129.569 598.916 129.569 598.51 129.53C598.14 129.53 597.81 129.4 597.51 129.33C596.32 129.05 595.7 128.84 595.7 128.84C597.971 129.567 600.406 129.609 602.7 128.96C605.336 128.417 608.053 128.39 610.7 128.88C611.46 128.98 612.24 129.16 613.03 129.31C613.842 129.446 614.668 129.486 615.49 129.43C617.252 129.173 619.029 129.036 620.81 129.02H620.9V129.1C621.36 132.24 621.84 135.61 622.35 139.1C621.59 139.74 620.79 140.34 619.97 140.93C617.859 142.432 615.584 143.69 613.19 144.68C610.963 145.644 608.556 146.118 606.13 146.07C604.067 146.026 602.057 145.403 600.331 144.271C598.605 143.14 597.233 141.545 596.37 139.67C595.206 137.156 594.727 134.379 594.98 131.62C595.056 130.875 595.214 130.141 595.45 129.43C595.59 129 595.7 128.79 595.7 128.79Z" fill="#263238"/>
<path d="M596.539 134.64C600.02 136.334 603.853 137.18 607.723 137.109C611.594 137.037 615.393 136.051 618.809 134.23C617.528 135.956 615.917 137.411 614.069 138.51C611.879 139.63 609.319 139.69 606.849 139.68C604.887 139.817 602.92 139.503 601.099 138.76C599.364 137.724 597.89 136.305 596.789 134.61" fill="#E0E0E0"/>
<path d="M617.748 132.11C616.82 132.469 615.854 132.72 614.868 132.86C612.517 133.321 610.133 133.595 607.738 133.68C605.344 133.76 602.947 133.656 600.568 133.37C599.578 133.294 598.599 133.11 597.648 132.82C598.651 132.815 599.653 132.875 600.648 133C605.385 133.38 610.15 133.213 614.848 132.5C615.806 132.308 616.774 132.178 617.748 132.11Z" fill="#E0E0E0"/>
<path d="M619.47 136.28C618.93 137.062 618.252 137.739 617.47 138.28C615.69 139.703 613.64 140.751 611.443 141.359C609.247 141.968 606.949 142.125 604.69 141.82C603.754 141.741 602.838 141.505 601.98 141.12C601.98 141.04 603.04 141.31 604.74 141.45C609.189 141.853 613.632 140.623 617.24 137.99C618.67 137 619.41 136.22 619.47 136.28Z" fill="#E0E0E0"/>
<path d="M619.629 134C619.39 134.213 619.12 134.389 618.829 134.52C618.073 134.941 617.288 135.305 616.479 135.61C615.277 136.074 614.04 136.438 612.779 136.7C611.238 137.015 609.671 137.19 608.099 137.22C606.521 137.236 604.945 137.112 603.389 136.85C602.123 136.623 600.878 136.289 599.669 135.85C598.848 135.578 598.049 135.244 597.279 134.85C596.985 134.731 596.711 134.565 596.469 134.36C596.469 134.28 597.719 134.88 599.779 135.51C600.988 135.882 602.22 136.169 603.469 136.37C606.528 136.847 609.647 136.797 612.689 136.22C613.931 135.972 615.153 135.638 616.349 135.22C618.389 134.53 619.579 133.89 619.629 134Z" fill="#263238"/>
<path d="M612.17 134C608.242 134.752 604.193 134.584 600.34 133.51C600.34 133.36 602.99 133.8 606.25 133.92C609.51 134.04 612.16 133.83 612.17 134Z" fill="#263238"/>
<path d="M501.75 258.66V177.57H614.54V258.66L554.76 259.16L501.75 258.66Z" fill="#059CE1"/>
<g opacity="0.4">
<path opacity="0.4" d="M614.55 177.57H501.75V258.66H614.55V177.57Z" fill="black"/>
</g>
<path d="M554.76 259.16L501.75 258.66V177.57H554.59L554.76 259.16Z" fill="#059CE1"/>
<path d="M530.331 177.57H523.301V191.64H530.331V177.57Z" fill="#263238"/>
<path d="M519.508 240.76H505.508V254.76H519.508V240.76Z" fill="#FAFAFA"/>
<path d="M519.54 254.79H505.48V240.79H519.54V254.79ZM505.54 254.79H519.49V240.79H505.54V254.79Z" fill="#263238"/>
<path d="M640.94 196.19L643.27 215.06L608.27 235.83L613.71 247.83L653.49 231.76C658.31 229.31 662.43 225.69 662.09 220.27L660.18 193.86L640.94 196.19Z" fill="#FFBE9D"/>
<path d="M650.798 159.15C654.199 162.069 656.459 166.096 657.178 170.52C658.518 177.83 663.068 198.27 663.068 198.27L639.068 201.11V195.49C639.068 195.41 636.828 184.95 636.828 184.95L641.298 170.52L650.798 159.15Z" fill="#059CE1"/>
<path d="M662.12 198.36C661.582 198.5 661.034 198.597 660.48 198.65L655.99 199.27C652.2 199.77 646.99 200.43 641.15 201.12L639.15 201.36H638.88V201.08C638.48 195.73 638.04 190.98 637.72 187.56C637.56 185.92 637.43 184.56 637.33 183.56C637.26 183.07 637.23 182.575 637.24 182.08C637.379 182.557 637.473 183.046 637.52 183.54C637.67 184.48 637.85 185.85 638.07 187.54C638.48 190.95 638.99 195.71 639.4 201.07L639.11 200.83L641.11 200.59C646.91 199.89 652.11 199.29 655.97 198.89L660.48 198.43C661.024 198.361 661.573 198.338 662.12 198.36Z" fill="#263238"/>
<path d="M648.83 160.47C648.83 160.55 647.96 160.92 646.63 161.74C643.147 163.885 640.441 167.088 638.909 170.88C638.319 172.33 638.11 173.29 638.02 173.27C638.061 172.406 638.243 171.555 638.56 170.75C639.951 166.775 642.76 163.452 646.45 161.42C647.184 160.973 647.989 160.652 648.83 160.47Z" fill="#263238"/>
<path d="M607.729 234.78L602.589 237.13L600.389 236.28L589.169 235.58L582.169 237.13L581.969 237.53C581.969 241.34 589.179 239.84 591.389 240.44C593.599 241.04 591.589 245.75 591.589 245.75C591.589 245.75 581.669 258.68 579.939 261.75C579.079 263.3 579.359 264.15 579.859 264.62C580.117 264.842 580.444 264.969 580.784 264.98C581.124 264.991 581.458 264.885 581.729 264.68L585.389 262.09C585.389 262.09 595.469 262.68 596.159 262.34C597.117 261.618 597.946 260.739 598.609 259.74C603.39 255.155 608.744 251.209 614.539 248L607.729 234.78Z" fill="#FAFAFA"/>
<path d="M607.729 234.78C607.729 234.78 607.729 234.84 607.859 234.98C607.989 235.12 608.069 235.37 608.219 235.64L609.59 238.22C610.8 240.53 612.54 243.83 614.7 247.93L614.77 248.08L614.62 248.16C608.842 251.408 603.508 255.387 598.75 260C598.112 260.98 597.318 261.848 596.4 262.57C596.249 262.668 596.078 262.729 595.9 262.75H595.45H594.549H592.76C590.35 262.69 587.87 262.58 585.33 262.44L585.489 262.39L583.14 264L581.94 264.86C581.713 265.036 581.449 265.158 581.168 265.215C580.887 265.272 580.597 265.264 580.32 265.19C580.034 265.11 579.776 264.954 579.572 264.739C579.368 264.525 579.226 264.259 579.159 263.97C579.057 263.419 579.126 262.85 579.359 262.34C579.821 261.41 580.371 260.526 581 259.7C584.48 254.7 588.069 250 591.419 245.6V245.65C591.696 244.974 591.914 244.274 592.07 243.56C592.249 242.892 592.277 242.191 592.15 241.51C592.083 241.214 591.904 240.956 591.65 240.79C591.357 240.655 591.041 240.581 590.719 240.57C590.029 240.5 589.32 240.51 588.63 240.5C587.254 240.543 585.877 240.449 584.52 240.22C583.836 240.095 583.192 239.811 582.64 239.39C582.379 239.155 582.171 238.868 582.028 238.548C581.885 238.228 581.811 237.881 581.81 237.53V237.48L582.01 237.08V236.99H582.109L589.109 235.47H589.169L600.38 236.23L602.58 237.1H602.5L606.37 235.4L607.37 234.97L607.69 234.85L607.349 235.03L606.349 235.51L602.58 237.3H602.53L600.32 236.47L589.099 235.83H589.15L582.15 237.41L582.289 237.3L582.09 237.7V237.6C582.093 237.888 582.157 238.171 582.275 238.433C582.394 238.694 582.566 238.928 582.78 239.12C583.276 239.495 583.856 239.742 584.469 239.84C585.791 240.06 587.131 240.147 588.469 240.1C589.169 240.1 589.869 240.1 590.599 240.16C590.994 240.176 591.382 240.271 591.739 240.44C592.097 240.67 592.355 241.028 592.46 241.44C592.615 242.201 592.595 242.988 592.4 243.74C592.235 244.485 592.008 245.214 591.719 245.92C588.379 250.33 584.8 255.01 581.33 260.01C580.742 260.817 580.227 261.673 579.789 262.57C579.6 262.983 579.537 263.442 579.609 263.89C579.657 264.09 579.756 264.273 579.896 264.422C580.036 264.571 580.213 264.681 580.409 264.74C580.613 264.792 580.825 264.795 581.03 264.75C581.235 264.705 581.427 264.612 581.59 264.48L582.799 263.62L585.18 261.94L585.25 261.89H585.34C587.87 262.03 590.34 262.15 592.75 262.22H594.53H595.4H595.82C595.93 262.208 596.036 262.17 596.13 262.11C596.989 261.422 597.735 260.601 598.34 259.68C603.139 255.084 608.518 251.134 614.34 247.93L614.27 248.16L609.38 238.45C608.82 237.32 608.38 236.45 608.06 235.8L607.719 235.1L607.729 234.78Z" fill="#263238"/>
<path d="M594.867 253.41C593.416 254.996 591.87 256.492 590.237 257.89C588.927 259.1 587.727 260.18 586.857 260.95C586.409 261.401 585.909 261.797 585.367 262.13C586.721 260.451 588.231 258.904 589.877 257.51C591.397 255.978 593.069 254.604 594.867 253.41Z" fill="#263238"/>
<path d="M597.919 255.91C597.138 257.228 596.156 258.416 595.009 259.43C593.997 260.579 592.837 261.588 591.559 262.43C592.475 261.214 593.506 260.089 594.639 259.07C595.653 257.938 596.749 256.882 597.919 255.91Z" fill="#263238"/>
<path d="M126.36 447.85C127.2 444.6 125.07 441.33 122.68 438.97C120.29 436.61 117.43 434.5 116.19 431.38C114.19 426.32 116.88 419.78 113.44 415.56C111.44 413.08 107.79 412.25 106 409.56C105.173 408.097 104.623 406.493 104.38 404.83C102.463 396.425 98.318 388.69 92.3799 382.44C91.9799 389.924 93.5998 397.378 97.0699 404.02C98.4699 406.67 100.18 409.25 100.64 412.21C101.39 417.01 98.6999 421.96 99.8799 426.68C101.23 432.08 107.3 435.68 107.58 441.24C107.83 445.94 103.73 450.06 104.04 454.75C104.286 456.746 105.002 458.655 106.13 460.32C109.76 466.32 115.13 470.51 123.13 470.38L133.03 470.72L126.36 447.85Z" fill="#059CE1"/>
<g opacity="0.3">
<path opacity="0.3" d="M126.36 447.85C127.2 444.6 125.07 441.33 122.68 438.97C120.29 436.61 117.43 434.5 116.19 431.38C114.19 426.32 116.88 419.78 113.44 415.56C111.44 413.08 107.79 412.25 106 409.56C105.173 408.097 104.623 406.493 104.38 404.83C102.463 396.425 98.318 388.69 92.3799 382.44C91.9799 389.924 93.5998 397.378 97.0699 404.02C98.4699 406.67 100.18 409.25 100.64 412.21C101.39 417.01 98.6999 421.96 99.8799 426.68C101.23 432.08 107.3 435.68 107.58 441.24C107.83 445.94 103.73 450.06 104.04 454.75C104.286 456.746 105.002 458.655 106.13 460.32C109.76 466.32 115.13 470.51 123.13 470.38L133.03 470.72L126.36 447.85Z" fill="black"/>
</g>
<path d="M135.12 471C136.023 471.156 136.947 471.156 137.85 471C138.947 470.836 140.026 470.564 141.07 470.19C142.515 469.691 143.867 468.954 145.07 468.01C145.787 467.431 146.348 466.682 146.7 465.83C147.006 464.859 147.164 463.848 147.17 462.83C147.184 461.76 147.261 460.691 147.4 459.63C147.596 458.499 148.007 457.416 148.61 456.44C149.78 454.39 151.72 452.44 152.34 449.67C152.96 446.9 152.53 443.97 152.07 440.99C151.61 438.01 151.17 434.78 152.3 431.69C153.43 428.6 155.54 425.79 156.62 422.3C157.7 418.81 157.2 414.99 157.43 411.25C157.499 409.35 157.937 407.482 158.72 405.75C159.52 404 160.63 402.34 161.5 400.5C163.26 396.77 163.57 392.5 164.05 388.4C164.277 386.307 164.513 384.197 164.76 382.07C164.9 379.927 165.269 377.805 165.86 375.74C166.525 373.651 167.316 371.603 168.23 369.61C168.701 368.577 169.086 367.507 169.38 366.41C169.545 365.28 169.652 364.141 169.7 363C169.805 360.713 169.714 358.421 169.43 356.15C169.16 353.86 168.75 351.6 168.51 349.31C168.51 349.17 168.51 349.04 168.51 348.91L168.46 348.46L168.05 348.66C165.95 349.729 164.126 351.269 162.72 353.16C161.353 354.996 160.252 357.016 159.45 359.16C157.8 363.42 157.2 367.88 156.37 372.16C155.54 376.44 154.48 380.6 152.3 384.16C151.21 385.92 149.9 387.53 148.75 389.25C147.522 390.924 146.681 392.851 146.29 394.89C145.71 399.08 148.02 402.76 147.54 406.47C147.304 408.291 146.688 410.043 145.73 411.61C144.83 413.19 143.73 414.61 142.73 416.13C141.707 417.57 140.817 419.099 140.07 420.7C139.369 422.28 138.959 423.974 138.86 425.7C138.61 429.04 139.09 432.21 138.86 435.2C138.587 438.047 137.758 440.813 136.42 443.34C135.22 445.77 133.89 447.98 132.77 450.11C132.21 451.18 131.7 452.22 131.27 453.27C130.876 454.282 130.585 455.33 130.4 456.4C130.108 458.27 130.085 460.173 130.33 462.05C130.595 464.667 131.574 467.161 133.16 469.26C133.407 469.57 133.678 469.861 133.97 470.13C134.167 470.335 134.385 470.52 134.62 470.68C134.98 470.95 135.18 471.07 135.18 471.07C134.476 470.508 133.833 469.875 133.26 469.18C131.733 467.081 130.806 464.606 130.58 462.02C130.358 460.167 130.398 458.292 130.7 456.45C130.889 455.403 131.184 454.378 131.58 453.39C132.028 452.327 132.532 451.289 133.09 450.28C134.21 448.16 135.56 445.97 136.78 443.52C138.161 440.954 139.02 438.14 139.31 435.24C139.57 432.18 139.11 429 139.36 425.74C139.473 424.085 139.879 422.463 140.56 420.95C141.292 419.376 142.173 417.876 143.19 416.47C144.19 415 145.26 413.53 146.19 411.92C147.195 410.292 147.84 408.468 148.08 406.57C148.56 402.62 146.27 398.91 146.86 395.02C147.246 393.067 148.058 391.223 149.24 389.62C150.37 387.93 151.69 386.32 152.8 384.51C155.05 380.88 156.14 376.61 156.97 372.34C157.8 368.07 158.41 363.65 160.03 359.48C160.809 357.382 161.883 355.405 163.22 353.61C164.565 351.797 166.31 350.318 168.32 349.29L167.87 349.04C167.87 349.16 167.87 349.3 167.87 349.44C168.12 351.76 168.54 354.03 168.8 356.28C169.059 358.51 169.126 360.758 169 363C168.958 364.108 168.858 365.213 168.7 366.31C168.413 367.365 168.042 368.395 167.59 369.39C166.672 371.408 165.874 373.478 165.2 375.59C164.607 377.692 164.235 379.851 164.09 382.03C163.85 384.16 163.62 386.27 163.38 388.36C162.91 392.52 162.6 396.68 160.91 400.28C160.07 402.07 158.96 403.73 158.14 405.54C157.334 407.337 156.882 409.272 156.81 411.24C156.6 415.06 157.09 418.8 156.06 422.18C155.03 425.56 152.87 428.36 151.78 431.56C150.69 434.76 151.1 438.13 151.57 441.09C152.04 444.05 152.57 446.97 151.89 449.6C151.21 452.23 149.43 454.19 148.24 456.3C147.619 457.312 147.204 458.437 147.02 459.61C146.883 460.685 146.813 461.767 146.81 462.85C146.811 463.826 146.666 464.797 146.38 465.73C146.05 466.539 145.524 467.254 144.85 467.81C143.694 468.744 142.393 469.483 141 470C139.973 470.387 138.912 470.675 137.83 470.86C137.17 470.978 136.501 471.042 135.83 471.05L135.12 471Z" fill="#263238"/>
<path d="M166.411 354.38C166.36 354.473 166.326 354.575 166.311 354.68C166.251 354.91 166.181 355.21 166.091 355.57C165.901 356.35 165.671 357.52 165.291 359C164.911 360.48 164.011 362.12 163.291 364.17C162.571 366.22 161.681 368.55 160.931 371.17C160.181 373.79 159.511 376.74 158.811 379.88C158.211 383.236 157.144 386.491 155.641 389.55C154.831 391.16 153.911 392.79 153.191 394.55C152.475 396.375 151.994 398.284 151.761 400.23C151.268 404.266 150.557 408.271 149.631 412.23C147.631 420.35 145.751 428.07 144.031 435.11L139.341 453.77C138.031 459.05 136.971 463.34 136.231 466.36L135.411 469.8C135.331 470.16 135.271 470.45 135.221 470.69C135.21 470.793 135.21 470.897 135.221 471C135.221 471 135.221 470.91 135.331 470.71C135.441 470.51 135.481 470.19 135.591 469.83C135.811 469 136.121 467.83 136.521 466.43C137.311 463.43 138.441 459.14 139.821 453.88C141.201 448.62 142.821 442.26 144.651 435.26C146.481 428.26 148.291 420.49 150.301 412.37C151.228 408.412 151.939 404.406 152.431 400.37C152.654 398.473 153.114 396.612 153.801 394.83C154.501 393.09 155.401 391.47 156.211 389.83C157.723 386.723 158.787 383.416 159.371 380.01C160.051 376.86 160.691 373.93 161.371 371.3C162.051 368.67 162.861 366.3 163.621 364.3C164.381 362.3 165.221 360.59 165.621 359.07C166.021 357.55 166.151 356.4 166.311 355.6C166.371 355.24 166.421 354.94 166.471 354.7C166.465 354.591 166.445 354.484 166.411 354.38Z" fill="#263238"/>
<path d="M136.869 471.05C143.339 467.21 145.189 455.54 142.499 448.52C139.809 441.5 135.069 435.08 134.349 427.59C133.789 421.83 135.669 415.93 134.349 410.3C132.539 402.71 125.129 396.82 125.209 389.02C125.209 384.64 127.749 380.52 127.559 376.14C127.309 370.78 123.189 366.52 120.639 361.79C116.739 354.56 116.479 346 115.149 337.89C113.819 329.78 110.719 321.09 103.529 317.1C102.469 323.99 100.649 328.71 101.219 338.04C101.429 341.39 105.319 347.8 105.849 355.15C106.169 359.54 106.389 363.93 106.649 368.33C106.909 372.73 107.189 376.95 108.719 380.95C109.899 384.02 111.789 386.8 112.659 389.95C114.299 395.9 112.139 402.35 113.469 408.38C114.589 413.49 118.129 417.89 118.849 423.07C119.849 430.35 115.149 437.91 117.559 444.86C118.759 448.3 121.559 451.07 122.399 454.63C123.019 457.39 122.339 460.31 122.909 463.08C123.819 467.55 132.339 471.02 136.909 470.74" fill="#059CE1"/>
<path d="M105.289 323.94C105.276 324.07 105.276 324.201 105.289 324.33C105.289 324.62 105.369 324.99 105.429 325.46C105.579 326.46 105.749 327.91 106.089 329.8C106.429 331.69 107.429 333.8 108.209 336.42C108.989 339.04 109.849 341.96 110.579 345.28C111.309 348.6 111.939 352.28 112.579 356.22C113.219 360.16 113.939 364.48 115.899 368.59C116.809 370.66 117.819 372.73 118.589 374.93C119.333 377.198 119.79 379.549 119.949 381.93C120.316 386.984 120.95 392.014 121.849 397C123.849 407.21 125.719 416.93 127.429 425.77C129.139 434.61 130.869 442.53 132.249 449.21C133.629 455.89 134.759 461.21 135.549 465C135.939 466.83 136.249 468.27 136.469 469.29C136.579 469.75 136.669 470.12 136.729 470.4C136.749 470.528 136.786 470.652 136.839 470.77C136.855 470.644 136.855 470.516 136.839 470.39C136.789 470.1 136.719 469.73 136.639 469.26C136.449 468.26 136.179 466.79 135.829 464.95C135.089 461.17 134.029 455.77 132.729 449.12C131.429 442.47 129.809 434.48 128.049 425.66L122.519 396.89C121.617 391.928 120.979 386.921 120.609 381.89C120.443 379.467 119.969 377.074 119.199 374.77C118.409 372.51 117.379 370.44 116.469 368.39C114.529 364.33 113.839 360.1 113.139 356.16C112.439 352.22 111.829 348.53 111.059 345.21C110.289 341.89 109.449 338.91 108.589 336.34C107.729 333.77 106.759 331.63 106.369 329.78C105.979 327.93 105.789 326.45 105.599 325.47C105.509 325 105.449 324.63 105.389 324.35C105.372 324.21 105.338 324.072 105.289 323.94Z" fill="#263238"/>
<path d="M474.829 139.31H442.689V184.36H474.829V139.31Z" fill="#455A64"/>
<path d="M474.829 139.31H442.689V144.53H474.829V139.31Z" fill="#263238"/>
<path d="M474.829 179.14H442.689V184.36H474.829V179.14Z" fill="#263238"/>
<path d="M468.489 147.74H448.959V157.92H468.489V147.74Z" fill="#263238"/>
<path d="M463.35 152.83C463.3 152.83 463.3 152.42 463.11 151.74C462.825 150.774 462.231 149.928 461.42 149.33C460.77 148.844 459.997 148.549 459.188 148.477C458.38 148.405 457.567 148.559 456.841 148.922C456.115 149.285 455.504 149.843 455.077 150.533C454.649 151.223 454.422 152.018 454.42 152.83C454.423 153.718 454.696 154.584 455.203 155.313C455.711 156.042 456.428 156.599 457.26 156.91C457.946 157.165 458.684 157.246 459.408 157.144C460.133 157.043 460.821 156.763 461.41 156.33C462.213 155.731 462.802 154.889 463.09 153.93C463.28 153.24 463.28 152.83 463.33 152.83C463.38 152.83 463.33 152.93 463.33 153.13C463.336 153.416 463.306 153.702 463.24 153.98C463.017 155.026 462.433 155.961 461.59 156.62C460.96 157.119 460.214 157.448 459.421 157.578C458.628 157.707 457.816 157.632 457.06 157.36C456.126 157.026 455.317 156.412 454.746 155.601C454.174 154.79 453.867 153.822 453.867 152.83C453.867 151.838 454.174 150.87 454.746 150.059C455.317 149.248 456.126 148.634 457.06 148.3C457.816 148.032 458.628 147.96 459.42 148.089C460.212 148.219 460.958 148.546 461.59 149.04C462.435 149.701 463.02 150.64 463.24 151.69C463.307 151.968 463.337 152.254 463.33 152.54C463.38 152.73 463.37 152.83 463.35 152.83Z" fill="#455A64"/>
<path d="M451.209 161.84C451.209 161.99 451.165 162.137 451.081 162.262C450.998 162.387 450.879 162.485 450.74 162.542C450.601 162.6 450.449 162.615 450.301 162.585C450.154 162.556 450.018 162.484 449.912 162.377C449.806 162.271 449.733 162.136 449.704 161.988C449.675 161.841 449.69 161.688 449.747 161.549C449.805 161.41 449.902 161.292 450.027 161.208C450.152 161.125 450.299 161.08 450.449 161.08C450.651 161.08 450.844 161.16 450.987 161.303C451.129 161.445 451.209 161.639 451.209 161.84Z" fill="#263238"/>
<path d="M456.94 161.84C456.94 161.99 456.895 162.137 456.812 162.262C456.728 162.387 456.61 162.485 456.471 162.542C456.332 162.6 456.179 162.615 456.032 162.585C455.884 162.556 455.749 162.484 455.643 162.377C455.536 162.271 455.464 162.136 455.435 161.988C455.405 161.841 455.42 161.688 455.478 161.549C455.535 161.41 455.633 161.292 455.758 161.208C455.883 161.125 456.03 161.08 456.18 161.08C456.381 161.08 456.575 161.16 456.717 161.303C456.86 161.445 456.94 161.639 456.94 161.84Z" fill="#263238"/>
<path d="M462.67 161.84C462.67 162.039 462.591 162.23 462.451 162.37C462.31 162.511 462.119 162.59 461.92 162.59C461.769 162.592 461.621 162.549 461.494 162.466C461.368 162.383 461.269 162.265 461.21 162.125C461.151 161.986 461.136 161.833 461.165 161.684C461.194 161.536 461.266 161.4 461.373 161.293C461.48 161.186 461.616 161.113 461.765 161.084C461.913 161.055 462.067 161.071 462.206 161.13C462.345 161.189 462.464 161.288 462.546 161.414C462.629 161.541 462.672 161.689 462.67 161.84Z" fill="#263238"/>
<path d="M450.449 167.45C450.869 167.45 451.209 167.11 451.209 166.69C451.209 166.27 450.869 165.93 450.449 165.93C450.03 165.93 449.689 166.27 449.689 166.69C449.689 167.11 450.03 167.45 450.449 167.45Z" fill="#263238"/>
<path d="M456.94 166.69C456.94 166.84 456.895 166.987 456.812 167.112C456.728 167.237 456.61 167.335 456.471 167.392C456.332 167.45 456.179 167.465 456.032 167.436C455.884 167.406 455.749 167.334 455.643 167.228C455.536 167.121 455.464 166.986 455.435 166.838C455.405 166.691 455.42 166.538 455.478 166.399C455.535 166.26 455.633 166.142 455.758 166.058C455.883 165.975 456.03 165.93 456.18 165.93C456.381 165.93 456.575 166.01 456.717 166.153C456.86 166.295 456.94 166.489 456.94 166.69Z" fill="#263238"/>
<path d="M461.92 167.45C462.34 167.45 462.68 167.11 462.68 166.69C462.68 166.27 462.34 165.93 461.92 165.93C461.5 165.93 461.16 166.27 461.16 166.69C461.16 167.11 461.5 167.45 461.92 167.45Z" fill="#263238"/>
<path d="M450.449 172.31C450.869 172.31 451.209 171.97 451.209 171.55C451.209 171.13 450.869 170.79 450.449 170.79C450.03 170.79 449.689 171.13 449.689 171.55C449.689 171.97 450.03 172.31 450.449 172.31Z" fill="#263238"/>
<path d="M456.94 171.55C456.94 171.7 456.895 171.847 456.812 171.972C456.728 172.097 456.61 172.195 456.471 172.252C456.332 172.31 456.179 172.325 456.032 172.295C455.884 172.266 455.749 172.194 455.643 172.087C455.536 171.981 455.464 171.846 455.435 171.698C455.405 171.551 455.42 171.398 455.478 171.259C455.535 171.12 455.633 171.002 455.758 170.918C455.883 170.835 456.03 170.79 456.18 170.79C456.381 170.79 456.575 170.87 456.717 171.013C456.86 171.155 456.94 171.348 456.94 171.55Z" fill="#263238"/>
<path d="M461.92 172.31C462.34 172.31 462.68 171.97 462.68 171.55C462.68 171.13 462.34 170.79 461.92 170.79C461.5 170.79 461.16 171.13 461.16 171.55C461.16 171.97 461.5 172.31 461.92 172.31Z" fill="#263238"/>
<path d="M467.879 169.44C469.398 169.44 470.629 168.209 470.629 166.69C470.629 165.171 469.398 163.94 467.879 163.94C466.36 163.94 465.129 165.171 465.129 166.69C465.129 168.209 466.36 169.44 467.879 169.44Z" fill="#059CE1"/>
<path d="M428.971 38.02H410.371V470.76H428.971V38.02Z" fill="#263238"/>
<path d="M410.37 56.2798H225.16V470.77H410.37V56.2798Z" fill="#455A64"/>
<path d="M230.351 38.02H213.211V470.76H230.351V38.02Z" fill="#263238"/>
<path d="M428.971 38.02H213.211V56.28H428.971V38.02Z" fill="#263238"/>
<path d="M429.001 38C429.001 38 428.781 38.29 428.311 38.73L426.311 40.57L419.641 46.57C417.061 48.94 414.751 51.12 413.171 52.78C412.539 53.4083 411.948 54.0763 411.401 54.78C411.261 54.975 411.134 55.1787 411.021 55.39C410.971 55.54 410.941 55.63 410.921 55.63C410.901 55.63 410.921 55.54 410.921 55.36C410.994 55.1175 411.098 54.8855 411.231 54.67C411.719 53.8932 412.278 53.1634 412.901 52.49C414.923 50.2671 417.055 48.1477 419.291 46.14C421.891 43.77 424.291 41.69 426.071 40.22C426.951 39.48 427.681 38.9 428.191 38.5C428.443 38.3053 428.714 38.1377 429.001 38Z" fill="#455A64"/>
<path d="M230.351 56.6599C230.251 56.7499 226.351 52.6599 221.591 47.5199C216.831 42.3799 213.111 38.1199 213.211 38.0199C213.311 37.9199 217.211 42.0199 221.971 47.1599C226.731 52.2999 230.461 56.5599 230.351 56.6599Z" fill="#455A64"/>
<path d="M241.701 244.88H241.181C237.884 244.88 235.211 247.553 235.211 250.85V294.27C235.211 297.567 237.884 300.24 241.181 300.24H241.701C244.998 300.24 247.671 297.567 247.671 294.27V250.85C247.671 247.553 244.998 244.88 241.701 244.88Z" fill="#263238"/>
<path d="M244.001 286.64C244.009 286.26 243.913 285.885 243.726 285.555C243.538 285.224 243.264 284.951 242.934 284.763C242.603 284.575 242.228 284.48 241.848 284.487C241.468 284.495 241.098 284.605 240.775 284.806C240.453 285.008 240.19 285.292 240.016 285.63C239.842 285.967 239.762 286.346 239.785 286.725C239.808 287.105 239.933 287.471 240.147 287.785C240.361 288.099 240.656 288.35 241.001 288.51V291C241.001 291.249 241.1 291.488 241.276 291.665C241.452 291.841 241.692 291.94 241.941 291.94C242.065 291.941 242.188 291.918 242.304 291.871C242.419 291.825 242.524 291.756 242.612 291.668C242.7 291.581 242.77 291.477 242.818 291.362C242.866 291.247 242.891 291.124 242.891 291V288.56C243.236 288.375 243.522 288.097 243.718 287.758C243.914 287.418 244.012 287.032 244.001 286.64Z" fill="#455A64"/>
<path d="M272.421 263.52H244.451C242.701 263.52 241.281 264.939 241.281 266.69V266.97C241.281 268.721 242.701 270.14 244.451 270.14H272.421C274.172 270.14 275.591 268.721 275.591 266.97V266.69C275.591 264.939 274.172 263.52 272.421 263.52Z" fill="#263238"/>
<path d="M253.751 270.33C253.406 270.402 253.053 270.432 252.701 270.42L249.861 270.54C248.446 270.612 247.028 270.565 245.621 270.4C244.774 270.302 243.943 270.094 243.151 269.78C242.261 269.434 241.507 268.809 241.001 268C240.764 267.573 240.629 267.097 240.607 266.61C240.584 266.123 240.675 265.637 240.871 265.19C241.074 264.768 241.402 264.419 241.811 264.19C242.182 263.984 242.574 263.82 242.981 263.7C244.357 263.303 245.79 263.134 247.221 263.2C248.421 263.2 249.391 263.26 250.061 263.3C250.397 263.3 250.732 263.337 251.061 263.41C249.771 263.537 248.476 263.588 247.181 263.56C245.796 263.554 244.417 263.753 243.091 264.15C242.716 264.225 242.363 264.379 242.052 264.602C241.742 264.824 241.482 265.11 241.291 265.44C241.131 265.814 241.06 266.219 241.083 266.625C241.105 267.031 241.221 267.426 241.421 267.78C241.854 268.502 242.511 269.063 243.291 269.38C244.036 269.688 244.82 269.893 245.621 269.99C247.003 270.176 248.396 270.262 249.791 270.25C251.11 270.157 252.436 270.183 253.751 270.33Z" fill="#455A64"/>
<path d="M312.661 149.09C312.661 149.09 312.661 148.97 312.661 148.75C312.661 148.53 312.661 148.21 312.661 147.8C312.661 146.95 312.661 145.72 312.661 144.12C312.661 140.9 312.661 136.21 312.601 130.26C312.601 118.37 312.531 101.48 312.481 81.3898L312.711 81.6198H257.711L257.971 81.3598C257.971 106.36 257.971 129.69 257.971 149.06L257.751 148.84L297.591 148.95L308.741 149.01H311.691H312.691H311.691H308.781L297.681 149.07L257.681 149.18H257.461V148.97C257.461 129.6 257.461 106.31 257.461 81.2698V81.0098H257.731H312.731H312.971V81.2398C312.971 101.39 312.881 118.34 312.851 130.24C312.851 136.16 312.851 140.84 312.791 144.05C312.791 145.63 312.791 146.84 312.791 147.68C312.791 148.08 312.791 148.39 312.791 148.61C312.77 148.775 312.727 148.937 312.661 149.09Z" fill="#263238"/>
<path d="M303.622 140.71C303.614 140.624 303.614 140.537 303.622 140.45C303.622 140.26 303.622 140.02 303.622 139.72C303.622 139.05 303.622 138.11 303.622 136.89C303.622 134.41 303.622 130.82 303.562 126.28C303.562 117.19 303.492 104.28 303.442 89.1001L303.682 89.3301H265.812C265.752 89.3301 266.302 88.8401 266.072 89.0801V92.6501C266.072 93.8401 266.072 95.0301 266.072 96.2101V103.21C266.072 107.82 266.072 112.31 266.072 116.65C266.072 125.33 266.072 133.42 266.072 140.65L265.862 140.43L293.332 140.55H300.992H302.992H303.702H303.032H301.032L293.422 140.61L265.812 140.72H265.592V140.51C265.592 133.26 265.592 125.17 265.592 116.51C265.592 112.17 265.592 107.68 265.592 103.07V89.1201L265.862 88.8501H303.732H303.962V89.0901C303.912 104.38 303.872 117.3 303.842 126.43C303.842 130.94 303.842 134.51 303.782 136.98C303.782 138.18 303.782 139.1 303.782 139.76V140.47C303.622 140.63 303.622 140.71 303.622 140.71Z" fill="#263238"/>
<path d="M312.661 292C312.661 292 312.661 291.78 312.661 291.37C312.661 290.96 312.661 290.37 312.661 289.55C312.661 287.94 312.661 285.55 312.661 282.55C312.661 276.41 312.661 267.48 312.591 256.26C312.591 233.82 312.521 202.26 312.481 165.47L312.721 165.72H257.721L257.981 165.46C257.981 214.75 257.981 259.46 257.911 292.03L257.721 291.85L297.881 291.95H308.881H311.741H312.741C312.741 291.95 312.431 291.95 311.741 291.95H308.921L298.011 292L257.731 292.1H257.551V292C257.551 259.42 257.551 214.72 257.471 165.43V165.17H312.941V165.42C312.891 202.23 312.851 233.89 312.821 256.42C312.821 267.63 312.771 276.54 312.761 282.66C312.761 285.66 312.761 288.05 312.761 289.66C312.761 290.44 312.761 291.04 312.761 291.45C312.761 291.86 312.661 292 312.661 292Z" fill="#263238"/>
<path d="M303.62 285C303.62 285 303.62 284.8 303.62 284.44C303.62 284.08 303.62 283.51 303.62 282.81C303.62 281.36 303.62 279.26 303.62 276.54C303.62 271.07 303.62 263.13 303.55 253.19C303.55 233.31 303.48 205.4 303.43 173.24L303.69 173.49H265.75L266.01 173.23C266.01 217.91 265.94 258.01 265.92 284.99L265.75 284.82L293.53 284.91H301H302.94H303.62H302.98H301.07L293.63 284.96L265.75 285.05H265.57V285C265.57 258 265.52 217.92 265.48 173.24V173H303.87V173.25C303.82 205.48 303.78 233.45 303.75 253.37C303.75 263.29 303.7 271.21 303.68 276.66C303.68 279.36 303.68 281.45 303.68 282.88C303.68 283.57 303.68 284.1 303.68 284.48C303.68 284.86 303.62 285 303.62 285Z" fill="#263238"/>
<path d="M312.661 452.28C312.661 452.28 312.661 452.06 312.661 451.65C312.661 451.24 312.661 450.65 312.661 449.83C312.661 448.22 312.661 445.83 312.661 442.83C312.661 436.69 312.661 427.76 312.591 416.54C312.591 394.1 312.521 362.49 312.481 325.75L312.721 326H257.721L257.981 325.74C257.981 375.03 257.981 419.74 257.911 452.31L257.721 452.12L297.881 452.23H308.881H311.741H312.741H311.741H308.921L298.011 452.28L257.731 452.38H257.551V452.19C257.551 419.61 257.551 374.91 257.471 325.62V325.36H312.941V325.61C312.891 362.42 312.851 394.08 312.821 416.61C312.821 427.82 312.771 436.73 312.761 442.85C312.761 445.85 312.761 448.24 312.761 449.85C312.761 450.63 312.761 451.23 312.761 451.64C312.761 452.05 312.661 452.28 312.661 452.28Z" fill="#263238"/>
<path d="M303.62 445.27C303.62 445.27 303.62 445.07 303.62 444.7C303.62 444.33 303.62 443.78 303.62 443.08C303.62 441.63 303.62 439.53 303.62 436.81C303.62 431.34 303.62 423.4 303.55 413.46C303.55 393.58 303.48 365.67 303.43 333.51L303.69 333.76H265.75L266.01 333.5C266.01 378.18 265.94 418.28 265.92 445.26L265.75 445.09L293.53 445.18H301H302.94H303.62H302.98H301.07L293.63 445.23L265.75 445.32H265.57V445.15C265.57 418.15 265.52 378.07 265.48 333.39V333.13H303.87V333.38C303.82 365.61 303.78 393.58 303.75 413.5C303.75 423.42 303.7 431.34 303.68 436.79C303.68 439.49 303.68 441.58 303.68 443.01C303.68 443.7 303.68 444.23 303.68 444.61C303.68 444.99 303.62 445.27 303.62 445.27Z" fill="#263238"/>
<path d="M266.632 140.68C265.186 142.201 263.614 143.596 261.932 144.85C260.369 146.233 258.697 147.487 256.932 148.6C258.385 147.09 259.956 145.699 261.632 144.44C263.196 143.056 264.868 141.799 266.632 140.68Z" fill="#263238"/>
<path d="M313 148.09C311.256 147.217 309.636 146.118 308.18 144.82C306.622 143.648 305.217 142.284 304 140.76C304.11 140.65 306 142.4 308.51 144.41C311.02 146.42 313.06 148 313 148.09Z" fill="#263238"/>
<path d="M311.85 83C310.579 84.2462 309.189 85.3649 307.7 86.34C306.314 87.4587 304.82 88.4369 303.24 89.26C304.512 88.0142 305.902 86.8956 307.39 85.92C308.78 84.8054 310.273 83.8276 311.85 83Z" fill="#263238"/>
<path d="M265.902 88.2398C264.275 87.5989 262.744 86.7375 261.352 85.6798C259.869 84.7589 258.522 83.6346 257.352 82.3398C258.842 83.2275 260.281 84.1991 261.662 85.2498C263.133 86.1616 264.549 87.16 265.902 88.2398Z" fill="#263238"/>
<path d="M265.552 173.37C262.066 171.363 259.331 168.273 257.762 164.57C257.902 164.5 259.162 166.84 261.332 169.26C263.502 171.68 265.642 173.24 265.552 173.37Z" fill="#263238"/>
<path d="M312.001 165.35C310.825 166.729 309.519 167.991 308.101 169.12C306.799 170.38 305.38 171.512 303.861 172.5C305.04 171.124 306.346 169.862 307.761 168.73C309.062 167.469 310.482 166.337 312.001 165.35Z" fill="#263238"/>
<path d="M265.53 285.54C265.61 285.67 263.79 286.99 261.72 288.83C259.65 290.67 258.1 292.32 257.99 292.22C258.895 290.778 260.038 289.5 261.37 288.44C262.593 287.257 263.998 286.278 265.53 285.54Z" fill="#263238"/>
<path d="M311.122 291.86C308.459 289.89 306.018 287.637 303.842 285.14C305.22 286.064 306.5 287.126 307.662 288.31C308.934 289.371 310.094 290.561 311.122 291.86Z" fill="#263238"/>
<path d="M266.462 335C264.805 333.65 263.26 332.169 261.842 330.57C260.305 329.087 258.887 327.485 257.602 325.78C259.259 327.13 260.804 328.611 262.222 330.21C263.768 331.684 265.186 333.287 266.462 335Z" fill="#263238"/>
<path d="M312.481 325.39C311.2 326.972 309.792 328.447 308.271 329.8C306.865 331.262 305.336 332.6 303.701 333.8C306.384 330.74 309.321 327.914 312.481 325.35V325.39Z" fill="#263238"/>
<path d="M264.631 444.62C262.613 447.371 260.318 449.908 257.781 452.19C259.8 449.439 262.095 446.902 264.631 444.62Z" fill="#263238"/>
<path d="M311.752 452.28C310.187 451.352 308.752 450.222 307.482 448.92C306.106 447.747 304.886 446.403 303.852 444.92C305.256 446.06 306.592 447.282 307.852 448.58C309.225 449.734 310.527 450.969 311.752 452.28Z" fill="#263238"/>
<path d="M385.811 149.09C385.811 149.09 385.811 148.97 385.811 148.75C385.811 148.53 385.811 148.21 385.811 147.8C385.811 146.95 385.811 145.72 385.811 144.12C385.811 140.9 385.811 136.21 385.751 130.26C385.751 118.37 385.681 101.48 385.631 81.3898L385.861 81.6198H330.911L331.171 81.3598C331.171 106.36 331.171 129.69 331.171 149.06L330.951 148.84L370.801 148.95L381.941 149.01H384.941H385.941H384.941H382.031L370.931 149.07L330.931 149.18H330.711V148.97C330.711 129.6 330.711 106.31 330.711 81.2698V81.0098H330.981H385.931H386.171V81.2398C386.121 101.39 386.081 118.34 386.051 130.24C386.051 136.16 386.001 140.84 385.991 144.05C385.991 145.63 385.991 146.84 385.991 147.68C385.991 148.08 385.991 148.39 385.991 148.61C385.955 148.778 385.894 148.939 385.811 149.09Z" fill="#263238"/>
<path d="M376.77 140.71C376.763 140.624 376.763 140.537 376.77 140.45C376.77 140.26 376.77 140.02 376.77 139.72C376.77 139.05 376.77 138.11 376.77 136.89C376.77 134.41 376.77 130.82 376.71 126.28C376.71 117.19 376.64 104.28 376.59 89.1001L376.83 89.3301H338.96C338.9 89.3301 339.45 88.8401 339.22 89.0801V92.6501C339.22 93.8401 339.22 95.0301 339.22 96.2101V103.21C339.22 107.82 339.22 112.31 339.22 116.65C339.22 125.33 339.22 133.42 339.22 140.65L339.01 140.43L366.48 140.55H374.14H376.14H376.85H376.18H374.18L366.57 140.61L338.96 140.72H338.74V140.51C338.74 133.26 338.74 125.17 338.74 116.51C338.74 112.17 338.74 107.68 338.74 103.07V96.0701C338.74 94.8901 338.74 93.7001 338.74 92.5101V89.1201L339.01 88.8501H376.88H377V89.0901C376.95 104.38 376.91 117.3 376.88 126.43C376.88 130.94 376.88 134.51 376.82 136.98C376.82 138.18 376.82 139.1 376.82 139.76V140.47C376.77 140.63 376.77 140.71 376.77 140.71Z" fill="#263238"/>
<path d="M385.811 292C385.811 292 385.811 291.78 385.811 291.37C385.811 290.96 385.811 290.37 385.811 289.55C385.811 287.94 385.811 285.55 385.811 282.55C385.811 276.41 385.811 267.48 385.741 256.26C385.741 233.82 385.671 202.26 385.631 165.47L385.871 165.72H330.871L331.131 165.46C331.131 214.75 331.081 259.46 331.061 292.03L330.871 291.85L371.031 291.95H382.031H384.891H385.891C385.891 291.95 385.581 291.95 384.941 291.95L382.001 292L371.091 292.05L330.811 292.15H330.631V292C330.631 259.42 330.581 214.72 330.551 165.43V165.17H386.021V165.42C385.971 202.23 385.931 233.89 385.901 256.42C385.901 267.63 385.851 276.54 385.841 282.66C385.841 285.66 385.841 288.05 385.841 289.66C385.841 290.44 385.841 291.04 385.841 291.45C385.841 291.86 385.811 292 385.811 292Z" fill="#263238"/>
<path d="M376.771 285C376.771 285 376.771 284.8 376.771 284.44C376.771 284.08 376.771 283.51 376.771 282.81C376.771 281.36 376.771 279.26 376.771 276.54C376.771 271.07 376.771 263.13 376.701 253.19C376.701 233.31 376.631 205.4 376.581 173.24L376.841 173.49H338.901L339.161 173.23C339.161 217.91 339.091 258.01 339.071 284.99L338.901 284.82L366.681 284.91H374.151H376.091H376.771H376.131H374.221L366.791 284.96L338.901 285.05H338.721V285C338.721 258 338.671 217.92 338.631 173.24V173H377.001V173.25C377.001 205.48 376.911 233.45 376.881 253.37C376.881 263.29 376.881 271.21 376.811 276.66C376.811 279.36 376.811 281.45 376.811 282.88C376.811 283.57 376.811 284.1 376.811 284.48C376.811 284.86 376.771 285 376.771 285Z" fill="#263238"/>
<path d="M385.812 452.28C385.812 452.28 385.812 452.06 385.812 451.65C385.812 451.24 385.812 450.65 385.812 449.83C385.812 448.22 385.812 445.83 385.812 442.83C385.812 436.69 385.812 427.76 385.742 416.54C385.742 394.1 385.672 362.49 385.632 325.75L385.872 326H330.872L331.132 325.74C331.132 375.03 331.082 419.74 331.062 452.31L330.872 452.12L371.032 452.23H382.032H384.892H385.892H384.942H382.122L371.212 452.28L330.932 452.38H330.752V452.19C330.752 419.61 330.702 374.91 330.672 325.62V325.36H386.142V325.61C386.092 362.42 386.052 394.08 386.022 416.61C386.022 427.82 385.972 436.73 385.962 442.85C385.962 445.85 385.962 448.24 385.962 449.85C385.962 450.63 385.962 451.23 385.962 451.64C385.962 452.05 385.812 452.28 385.812 452.28Z" fill="#263238"/>
<path d="M376.771 445.27C376.771 445.27 376.771 445.07 376.771 444.7C376.771 444.33 376.771 443.78 376.771 443.08C376.771 441.63 376.771 439.53 376.771 436.81C376.771 431.34 376.771 423.4 376.701 413.46C376.701 393.58 376.631 365.67 376.581 333.51L376.841 333.76H338.901L339.161 333.5C339.161 378.18 339.091 418.28 339.071 445.26L338.901 445.09L366.681 445.18H374.151H376.091H376.771H376.131H374.221L366.791 445.23L338.901 445.32H338.721V445.15C338.721 418.15 338.671 378.07 338.631 333.39V333.13H377.001V333.38C377.001 365.61 376.911 393.58 376.881 413.5C376.881 423.42 376.881 431.34 376.811 436.79C376.811 439.49 376.811 441.58 376.811 443.01C376.811 443.7 376.811 444.23 376.811 444.61C376.811 444.99 376.771 445.27 376.771 445.27Z" fill="#263238"/>
<path d="M339.78 140.68C338.335 142.201 336.762 143.596 335.08 144.85C333.517 146.233 331.845 147.487 330.08 148.6C331.533 147.09 333.105 145.699 334.78 144.44C336.344 143.056 338.016 141.799 339.78 140.68Z" fill="#263238"/>
<path d="M386.131 148.09C384.387 147.217 382.767 146.118 381.311 144.82C379.753 143.648 378.348 142.284 377.131 140.76C377.241 140.65 379.131 142.4 381.641 144.41C384.151 146.42 386.211 148 386.131 148.09Z" fill="#263238"/>
<path d="M385.001 83C383.73 84.2462 382.34 85.3649 380.851 86.34C379.464 87.4587 377.97 88.4369 376.391 89.26C377.665 88.0173 379.054 86.8989 380.541 85.92C381.93 84.8054 383.423 83.8276 385.001 83Z" fill="#263238"/>
<path d="M339.05 88.2398C337.423 87.5989 335.892 86.7375 334.5 85.6798C333.017 84.7589 331.671 83.6346 330.5 82.3398C331.991 83.2275 333.43 84.1991 334.81 85.2498C336.281 86.1616 337.697 87.16 339.05 88.2398Z" fill="#263238"/>
<path d="M338.7 173.37C335.215 171.363 332.479 168.273 330.91 164.57C331.05 164.5 332.31 166.84 334.48 169.26C336.65 171.68 338.79 173.24 338.7 173.37Z" fill="#263238"/>
<path d="M385.13 165.35C383.954 166.729 382.648 167.991 381.23 169.12C379.931 170.379 378.515 171.511 377 172.5C378.179 171.124 379.485 169.862 380.9 168.73C382.197 167.469 383.614 166.337 385.13 165.35Z" fill="#263238"/>
<path d="M338.681 285.54C338.761 285.67 336.941 286.99 334.871 288.83C332.801 290.67 331.251 292.32 331.141 292.22C332.046 290.778 333.189 289.5 334.521 288.44C335.743 287.257 337.148 286.278 338.681 285.54Z" fill="#263238"/>
<path d="M384.27 291.86C381.607 289.89 379.166 287.637 376.99 285.14C378.368 286.064 379.648 287.126 380.81 288.31C382.083 289.371 383.242 290.561 384.27 291.86Z" fill="#263238"/>
<path d="M339.61 335C337.953 333.65 336.408 332.169 334.99 330.57C333.453 329.087 332.036 327.485 330.75 325.78C332.41 327.127 333.955 328.608 335.37 330.21C336.916 331.684 338.334 333.287 339.61 335Z" fill="#263238"/>
<path d="M385.632 325.39C384.354 326.975 382.946 328.45 381.422 329.8C380.016 331.262 378.487 332.6 376.852 333.8C379.534 330.74 382.471 327.914 385.632 325.35V325.39Z" fill="#263238"/>
<path d="M337.782 444.62C335.763 447.371 333.468 449.908 330.932 452.19C331.867 450.749 332.949 449.408 334.162 448.19C335.248 446.884 336.461 445.688 337.782 444.62Z" fill="#263238"/>
<path d="M384.9 452.28C383.336 451.352 381.9 450.222 380.63 448.92C379.254 447.747 378.034 446.403 377 444.92C378.405 446.06 379.74 447.282 381 448.58C382.373 449.734 383.675 450.969 384.9 452.28Z" fill="#263238"/>
<path d="M493.67 382.59H371.01V470.77H493.67V382.59Z" fill="#059CE1"/>
<path d="M403.91 382.59C404.08 382.59 403.91 401.21 403.91 401.21H394.83V382.59H403.91Z" fill="#263238"/>
<g opacity="0.4">
<path opacity="0.4" d="M432.338 470.77H493.668V382.59H432.338V470.77Z" fill="black"/>
</g>
<path d="M391.17 453.51H374.75V465.13H391.17V453.51Z" fill="#FAFAFA"/>
<path d="M391.191 465.15H374.721V453.48H391.191V465.15ZM374.771 465.15H391.141V453.53H374.771V465.15Z" fill="#263238"/>
<path d="M402.409 453.51H394.199V465.13H402.409V453.51Z" fill="#FAFAFA"/>
<path d="M402.43 465.15H394.17V453.48H402.43V465.15ZM394.23 465.15H402.38V453.53H394.23V465.15Z" fill="#263238"/>
</svg>
