<svg width="600" height="600" viewBox="0 0 600 600" fill="none" xmlns="http://www.w3.org/2000/svg">
<path d="M543.683 465.768C544.139 427.044 509.819 402.36 510.743 372.936C511.691 342.744 541.175 314.784 525.011 236.496C508.847 158.208 429.899 119.052 357.599 135.828C285.299 152.604 301.487 197.352 233.015 196.224C164.543 195.096 110.399 195.108 69.4671 290.172C31.3431 378.792 56.0271 455.772 59.5551 465.768H543.683Z" fill="#059CE1"/>
<path opacity="0.7" d="M543.683 465.768C544.139 427.044 509.819 402.36 510.743 372.936C511.691 342.744 541.175 314.784 525.011 236.496C508.847 158.208 429.899 119.052 357.599 135.828C285.299 152.604 301.487 197.352 233.015 196.224C164.543 195.096 110.399 195.108 69.4671 290.172C31.3431 378.792 56.0271 455.772 59.5551 465.768H543.683Z" fill="white"/>
<path d="M535.199 464.928L382.439 151.2L325.199 255.072L252.107 207.24L188.687 276.24L158.555 247.164L73.7391 439.236L55.6191 464.928H535.199Z" fill="#059CE1"/>
<path opacity="0.5" d="M535.199 464.928L382.439 151.2L325.199 255.072L252.107 207.24L188.687 276.24L158.555 247.164L73.7391 439.236L55.6191 464.928H535.199Z" fill="white"/>
<path d="M375.395 291.204L379.091 294.036" stroke="white" stroke-linecap="round" stroke-linejoin="round"/>
<path d="M329.939 256.488L370.199 287.232" stroke="white" stroke-linecap="round" stroke-linejoin="round"/>
<path d="M183.168 285.156L155.184 315.876" stroke="white" stroke-linecap="round" stroke-linejoin="round"/>
<path d="M394.547 222.624V190.164L398.507 191.748L398.831 184.86L382.439 151.2L361.703 188.844L373.175 179.088L375.551 190.164L381.887 185.424L394.547 222.624Z" fill="white"/>
<path d="M271.774 233.052L274.054 221.604L252.106 207.24L235.162 225.684L247.798 220.764L255.79 233.052L256.402 223.836L271.774 233.052Z" fill="white"/>
<path d="M512.784 326.004H311.939V464.4H512.784V326.004Z" fill="#059CE1" stroke="#263238" stroke-linecap="round" stroke-linejoin="round"/>
<path d="M434.184 397.2H406.164V464.4H434.184V397.2Z" fill="white" stroke="#263238" stroke-linecap="round" stroke-linejoin="round"/>
<path d="M431.184 402H409.164V464.4H431.184V402Z" fill="#263238" stroke="#263238" stroke-linecap="round" stroke-linejoin="round"/>
<path d="M451.139 388.116H445.188V464.4H451.139V388.116Z" fill="white" stroke="#263238" stroke-linecap="round" stroke-linejoin="round"/>
<path d="M452.183 437.616H444.143V464.4H452.183V437.616Z" fill="white" stroke="#263238" stroke-linecap="round" stroke-linejoin="round"/>
<path d="M518.928 327.792H332.304C332.232 327.792 332.162 327.767 332.106 327.721C332.051 327.675 332.012 327.612 331.998 327.541C331.984 327.47 331.995 327.397 332.029 327.333C332.063 327.27 332.118 327.22 332.184 327.192L384.3 304.62C385.243 304.209 386.26 303.996 387.288 303.996H459.216C460.17 303.995 461.116 304.178 462 304.536L519.048 327.18C519.127 327.198 519.196 327.246 519.24 327.314C519.284 327.382 519.3 327.464 519.284 327.544C519.269 327.623 519.223 327.694 519.156 327.74C519.09 327.786 519.008 327.805 518.928 327.792Z" fill="#263238" stroke="#263238" stroke-linecap="round" stroke-linejoin="round"/>
<path d="M457.979 393.996H350.783L358.799 370.8H443.783L457.979 393.996Z" fill="#263238" stroke="#263238" stroke-linecap="round" stroke-linejoin="round"/>
<path d="M396.683 326.004H304.871V464.4H396.683V326.004Z" fill="white" stroke="#263238" stroke-linecap="round" stroke-linejoin="round"/>
<path d="M396.683 440.4H304.871V464.4H396.683V440.4Z" fill="#059CE1" stroke="#263238" stroke-linecap="round" stroke-linejoin="round"/>
<path d="M349.44 302.964L299.316 325.764C299.248 325.792 299.192 325.843 299.158 325.908C299.125 325.973 299.115 326.048 299.13 326.119C299.146 326.191 299.186 326.255 299.245 326.299C299.303 326.344 299.374 326.367 299.448 326.364H402.12C402.193 326.367 402.265 326.344 402.323 326.299C402.381 326.255 402.421 326.191 402.437 326.119C402.453 326.048 402.443 325.973 402.409 325.908C402.375 325.843 402.319 325.792 402.252 325.764L352.128 302.964C351.707 302.769 351.248 302.667 350.784 302.667C350.319 302.667 349.861 302.769 349.44 302.964Z" fill="#263238" stroke="#263238" stroke-linecap="round" stroke-linejoin="round"/>
<path d="M420.168 414.6C421.493 414.6 422.568 413.526 422.568 412.2C422.568 410.875 421.493 409.8 420.168 409.8C418.842 409.8 417.768 410.875 417.768 412.2C417.768 413.526 418.842 414.6 420.168 414.6Z" fill="white"/>
<path d="M506.783 403.2H462.383V440.4H506.783V403.2Z" fill="white" stroke="#263238" stroke-linecap="round" stroke-linejoin="round"/>
<path d="M489.984 406.584H479.184V414.6H489.984V406.584Z" fill="#263238" stroke="#263238" stroke-linecap="round" stroke-linejoin="round"/>
<path d="M489.984 418.2H479.184V437.016H489.984V418.2Z" fill="#263238" stroke="#263238" stroke-linecap="round" stroke-linejoin="round"/>
<path d="M476.184 406.584H466.416V414.6H476.184V406.584Z" fill="#263238" stroke="#263238" stroke-linecap="round" stroke-linejoin="round"/>
<path d="M502.752 406.584H492.984V414.6H502.752V406.584Z" fill="#263238" stroke="#263238" stroke-linecap="round" stroke-linejoin="round"/>
<path d="M502.752 418.2H492.984V437.016H502.752V418.2Z" fill="#263238" stroke="#263238" stroke-linecap="round" stroke-linejoin="round"/>
<path d="M476.184 418.2H466.416V437.016H476.184V418.2Z" fill="#263238" stroke="#263238" stroke-linecap="round" stroke-linejoin="round"/>
<path d="M378.984 403.2H322.584V440.4H378.984V403.2Z" fill="white" stroke="#263238" stroke-linecap="round" stroke-linejoin="round"/>
<path d="M350.183 406.584H339.383V414.6H350.183V406.584Z" fill="#263238" stroke="#263238" stroke-linecap="round" stroke-linejoin="round"/>
<path d="M350.183 418.2H339.383V437.016H350.183V418.2Z" fill="#263238" stroke="#263238" stroke-linecap="round" stroke-linejoin="round"/>
<path d="M336.383 406.584H326.615V414.6H336.383V406.584Z" fill="#263238" stroke="#263238" stroke-linecap="round" stroke-linejoin="round"/>
<path d="M362.952 406.584H353.184V414.6H362.952V406.584Z" fill="#263238" stroke="#263238" stroke-linecap="round" stroke-linejoin="round"/>
<path d="M362.952 418.2H353.184V437.016H362.952V418.2Z" fill="#263238" stroke="#263238" stroke-linecap="round" stroke-linejoin="round"/>
<path d="M375.551 406.584H365.783V414.6H375.551V406.584Z" fill="#263238" stroke="#263238" stroke-linecap="round" stroke-linejoin="round"/>
<path d="M375.551 418.2H365.783V437.016H375.551V418.2Z" fill="#263238" stroke="#263238" stroke-linecap="round" stroke-linejoin="round"/>
<path d="M336.383 418.2H326.615V437.016H336.383V418.2Z" fill="#263238" stroke="#263238" stroke-linecap="round" stroke-linejoin="round"/>
<path d="M378.984 331.8H322.584V369H378.984V331.8Z" fill="white" stroke="#263238" stroke-linecap="round" stroke-linejoin="round"/>
<path d="M350.183 335.184H339.383V343.2H350.183V335.184Z" fill="#263238" stroke="#263238" stroke-linecap="round" stroke-linejoin="round"/>
<path d="M350.183 346.8H339.383V365.616H350.183V346.8Z" fill="#263238" stroke="#263238" stroke-linecap="round" stroke-linejoin="round"/>
<path d="M336.383 335.184H326.615V343.2H336.383V335.184Z" fill="#263238" stroke="#263238" stroke-linecap="round" stroke-linejoin="round"/>
<path d="M362.952 335.184H353.184V343.2H362.952V335.184Z" fill="#263238" stroke="#263238" stroke-linecap="round" stroke-linejoin="round"/>
<path d="M362.952 346.8H353.184V365.616H362.952V346.8Z" fill="#263238" stroke="#263238" stroke-linecap="round" stroke-linejoin="round"/>
<path d="M375.551 335.184H365.783V343.2H375.551V335.184Z" fill="#263238" stroke="#263238" stroke-linecap="round" stroke-linejoin="round"/>
<path d="M375.551 346.8H365.783V365.616H375.551V346.8Z" fill="#263238" stroke="#263238" stroke-linecap="round" stroke-linejoin="round"/>
<path d="M336.383 346.8H326.615V365.616H336.383V346.8Z" fill="#263238" stroke="#263238" stroke-linecap="round" stroke-linejoin="round"/>
<path d="M506.783 331.8H462.383V369H506.783V331.8Z" fill="white" stroke="#263238" stroke-linecap="round" stroke-linejoin="round"/>
<path d="M489.984 335.184H479.184V343.2H489.984V335.184Z" fill="#263238" stroke="#263238" stroke-linecap="round" stroke-linejoin="round"/>
<path d="M489.984 346.8H479.184V365.616H489.984V346.8Z" fill="#263238" stroke="#263238" stroke-linecap="round" stroke-linejoin="round"/>
<path d="M476.184 335.184H466.416V343.2H476.184V335.184Z" fill="#263238" stroke="#263238" stroke-linecap="round" stroke-linejoin="round"/>
<path d="M502.752 335.184H492.984V343.2H502.752V335.184Z" fill="#263238" stroke="#263238" stroke-linecap="round" stroke-linejoin="round"/>
<path d="M502.752 346.8H492.984V365.616H502.752V346.8Z" fill="#263238" stroke="#263238" stroke-linecap="round" stroke-linejoin="round"/>
<path d="M476.184 346.8H466.416V365.616H476.184V346.8Z" fill="#263238" stroke="#263238" stroke-linecap="round" stroke-linejoin="round"/>
<path d="M436.583 331.8H405.383V369H436.583V331.8Z" fill="white" stroke="#263238" stroke-linecap="round" stroke-linejoin="round"/>
<path d="M432.984 335.184H422.184V343.2H432.984V335.184Z" fill="#263238" stroke="#263238" stroke-linecap="round" stroke-linejoin="round"/>
<path d="M432.984 346.8H422.184V365.616H432.984V346.8Z" fill="#263238" stroke="#263238" stroke-linecap="round" stroke-linejoin="round"/>
<path d="M419.184 335.184H409.416V343.2H419.184V335.184Z" fill="#263238" stroke="#263238" stroke-linecap="round" stroke-linejoin="round"/>
<path d="M419.184 346.8H409.416V365.616H419.184V346.8Z" fill="#263238" stroke="#263238" stroke-linecap="round" stroke-linejoin="round"/>
<path d="M495.084 440.4H474.084V446.4H495.084V440.4Z" fill="#059CE1" stroke="#263238" stroke-linecap="round" stroke-linejoin="round"/>
<path d="M362.279 440.4H341.279V446.4H362.279V440.4Z" fill="#059CE1" stroke="#263238" stroke-linecap="round" stroke-linejoin="round"/>
<path d="M256.273 344.4H93.541V464.4H256.273V344.4Z" fill="white" stroke="#263238" stroke-linecap="round" stroke-linejoin="round"/>
<path d="M269.976 347.784H79.8359L94.0439 352.956H255.756L269.976 347.784Z" fill="#059CE1" stroke="#263238" stroke-linecap="round" stroke-linejoin="round"/>
<path d="M270 347.796H79.8242L92.8202 329.124C93.1988 328.58 93.7031 328.136 94.2901 327.829C94.8772 327.522 95.5297 327.361 96.1922 327.36H253.608C254.273 327.36 254.927 327.52 255.516 327.827C256.105 328.134 256.612 328.579 256.992 329.124L270 347.796Z" fill="#263238" stroke="#263238" stroke-linecap="round" stroke-linejoin="round"/>
<path d="M109.789 312.648H96.2773V330.756H109.789V312.648Z" fill="white" stroke="#263238" stroke-linecap="round" stroke-linejoin="round"/>
<path d="M109.788 312.648H106.236V330.756H109.788V312.648Z" fill="white" stroke="#263238" stroke-linecap="round" stroke-linejoin="round"/>
<path d="M112.021 306.948H94.0449V316.26H112.021V306.948Z" fill="white" stroke="#263238" stroke-linecap="round" stroke-linejoin="round"/>
<path d="M112.021 306.948H105.805V316.26H112.021V306.948Z" fill="white" stroke="#263238" stroke-linecap="round" stroke-linejoin="round"/>
<path d="M135.384 353.652H113.184V388.2H135.384V353.652Z" fill="white" stroke="#263238" stroke-linecap="round" stroke-linejoin="round"/>
<path d="M132.984 355.8H115.584V386.484H132.984V355.8Z" fill="#263238" stroke="white" stroke-linecap="round" stroke-linejoin="round"/>
<path d="M132.984 355.8H115.584V372.6H132.984V355.8Z" fill="#263238" stroke="white" stroke-linecap="round" stroke-linejoin="round"/>
<path d="M128.185 355.8H120.385V372.6H128.185V355.8Z" fill="#263238" stroke="white" stroke-linecap="round" stroke-linejoin="round"/>
<path d="M138.984 420.252H109.584V454.8H138.984V420.252Z" fill="white" stroke="#263238" stroke-linecap="round" stroke-linejoin="round"/>
<path d="M135.804 422.4H112.764V453.084H135.804V422.4Z" fill="#263238" stroke="white" stroke-linecap="round" stroke-linejoin="round"/>
<path d="M135.804 422.4H112.764V439.2H135.804V422.4Z" fill="#263238" stroke="white" stroke-linecap="round" stroke-linejoin="round"/>
<path d="M129.457 422.4H119.125V439.2H129.457V422.4Z" fill="#263238" stroke="white" stroke-linecap="round" stroke-linejoin="round"/>
<path d="M239.785 420.252H210.385V454.8H239.785V420.252Z" fill="white" stroke="#263238" stroke-linecap="round" stroke-linejoin="round"/>
<path d="M236.604 422.4H213.564V453.084H236.604V422.4Z" fill="#263238" stroke="white" stroke-linecap="round" stroke-linejoin="round"/>
<path d="M236.604 422.4H213.564V439.2H236.604V422.4Z" fill="#263238" stroke="white" stroke-linecap="round" stroke-linejoin="round"/>
<path d="M230.256 422.4H219.924V439.2H230.256V422.4Z" fill="#263238" stroke="white" stroke-linecap="round" stroke-linejoin="round"/>
<path d="M237.384 353.652H215.184V388.2H237.384V353.652Z" fill="white" stroke="#263238" stroke-linecap="round" stroke-linejoin="round"/>
<path d="M234.984 355.8H217.584V386.484H234.984V355.8Z" fill="#263238" stroke="white" stroke-linecap="round" stroke-linejoin="round"/>
<path d="M234.984 355.8H217.584V372.6H234.984V355.8Z" fill="#263238" stroke="white" stroke-linecap="round" stroke-linejoin="round"/>
<path d="M230.185 355.8H222.385V372.6H230.185V355.8Z" fill="#263238" stroke="white" stroke-linecap="round" stroke-linejoin="round"/>
<path d="M181.584 358.8H165.996V383.052H181.584V358.8Z" fill="white" stroke="#263238" stroke-linecap="round" stroke-linejoin="round"/>
<path d="M179.88 360.312H167.676V381.336H179.88V360.312Z" fill="#263238" stroke="white" stroke-linecap="round" stroke-linejoin="round"/>
<path d="M179.88 360.312H167.676V372.096H179.88V360.312Z" fill="#263238" stroke="white" stroke-linecap="round" stroke-linejoin="round"/>
<path d="M176.521 360.312H171.049V372.096H176.521V360.312Z" fill="#263238" stroke="white" stroke-linecap="round" stroke-linejoin="round"/>
<path d="M195.984 410.4H153.816V453H195.984V410.4Z" fill="#059CE1" stroke="#263238" stroke-linecap="round" stroke-linejoin="round"/>
<path d="M191.185 416.4H158.617V453H191.185V416.4Z" fill="#263238" stroke="#263238" stroke-linecap="round" stroke-linejoin="round"/>
<path d="M168.983 416.4H164.615V453H168.983V416.4Z" fill="white" stroke="#263238" stroke-linecap="round" stroke-linejoin="round"/>
<path d="M183.384 416.4H179.016V453H183.384V416.4Z" fill="white" stroke="#263238" stroke-linecap="round" stroke-linejoin="round"/>
<path d="M160.584 408.192H155.521L174.9 391.392L194.292 408.192H189.384V410.988H204L175.596 386.4C175.404 386.231 175.157 386.138 174.9 386.138C174.644 386.138 174.397 386.231 174.204 386.4L145.812 410.988H160.584V408.192Z" fill="#059CE1" stroke="#263238" stroke-linecap="round" stroke-linejoin="round"/>
<path d="M196.188 453H153.816V456.732H196.188V453Z" fill="#059CE1" stroke="#263238" stroke-linecap="round" stroke-linejoin="round"/>
<path d="M196.188 456.624H153.816V460.356H196.188V456.624Z" fill="#059CE1" stroke="#263238" stroke-linecap="round" stroke-linejoin="round"/>
<path d="M196.188 460.248H153.816V463.98H196.188V460.248Z" fill="#059CE1" stroke="#263238" stroke-linecap="round" stroke-linejoin="round"/>
<path d="M158.617 416.4H154.381" stroke="#263238" stroke-linecap="round" stroke-linejoin="round"/>
<path d="M195.816 416.4H191.58" stroke="#263238" stroke-linecap="round" stroke-linejoin="round"/>
<path d="M301.584 442.02C301.584 442.02 312.876 443.136 318.6 450.132C320.656 447.64 323.239 445.636 326.163 444.262C329.086 442.888 332.278 442.18 335.508 442.188C338.16 438.986 339.848 435.097 340.375 430.973C340.902 426.85 340.248 422.661 338.487 418.895C336.727 415.129 333.933 411.94 330.431 409.7C326.929 407.46 322.862 406.26 318.705 406.241C314.548 406.222 310.471 407.384 306.948 409.592C303.426 411.8 300.603 414.963 298.808 418.712C297.013 422.462 296.319 426.645 296.809 430.773C297.298 434.901 298.95 438.806 301.572 442.032L301.584 442.02Z" fill="#059CE1"/>
<path opacity="0.5" d="M301.584 442.02C301.584 442.02 312.876 443.136 318.6 450.132C320.656 447.64 323.239 445.636 326.163 444.262C329.086 442.888 332.278 442.18 335.508 442.188C338.16 438.986 339.848 435.097 340.375 430.973C340.902 426.85 340.248 422.661 338.487 418.895C336.727 415.129 333.933 411.94 330.431 409.7C326.929 407.46 322.862 406.26 318.705 406.241C314.548 406.222 310.471 407.384 306.948 409.592C303.426 411.8 300.603 414.963 298.808 418.712C297.013 422.462 296.319 426.645 296.809 430.773C297.298 434.901 298.95 438.806 301.572 442.032L301.584 442.02Z" fill="white"/>
<path d="M318.228 407.772L317.844 464.4H319.752L318.228 407.772Z" fill="#263238"/>
<path d="M318.793 448.008C318.793 448.008 322.609 441.144 329.473 439.044C329.473 439.044 322.273 440.76 318.613 446.664L318.793 448.008Z" fill="#263238"/>
<path d="M318.793 428.556C318.793 428.556 322.609 421.692 329.473 419.592C329.473 419.592 322.273 421.308 318.613 427.224L318.793 428.556Z" fill="#263238"/>
<path d="M318.793 438.276C318.793 438.276 322.609 431.412 329.473 429.324C329.473 429.324 322.273 431.04 318.613 436.944L318.793 438.276Z" fill="#263238"/>
<path d="M318.228 433.512C318.228 433.512 314.556 426.648 307.932 424.548C307.932 424.548 314.916 426.264 318.42 432.18L318.228 433.512Z" fill="#263238"/>
<path d="M318.228 443.04C318.228 443.04 314.556 436.188 307.932 434.088C307.932 434.088 314.916 435.804 318.42 441.708L318.228 443.04Z" fill="#263238"/>
<path d="M510.744 442.02C510.744 442.02 522.036 443.136 527.772 450.132C529.828 447.64 532.411 445.636 535.334 444.262C538.258 442.888 541.45 442.18 544.68 442.188C547.332 438.986 549.019 435.097 549.547 430.973C550.074 426.85 549.42 422.661 547.659 418.895C545.899 415.129 543.105 411.94 539.603 409.7C536.101 407.46 532.034 406.26 527.877 406.241C523.72 406.222 519.643 407.384 516.12 409.592C512.598 411.8 509.774 414.963 507.979 418.712C506.184 422.462 505.491 426.645 505.981 430.773C506.47 434.901 508.122 438.806 510.744 442.032V442.02Z" fill="#059CE1"/>
<path opacity="0.5" d="M510.744 442.02C510.744 442.02 522.036 443.136 527.772 450.132C529.828 447.64 532.411 445.636 535.334 444.262C538.258 442.888 541.45 442.18 544.68 442.188C547.332 438.986 549.019 435.097 549.547 430.973C550.074 426.85 549.42 422.661 547.659 418.895C545.899 415.129 543.105 411.94 539.603 409.7C536.101 407.46 532.034 406.26 527.877 406.241C523.72 406.222 519.643 407.384 516.12 409.592C512.598 411.8 509.774 414.963 507.979 418.712C506.184 422.462 505.491 426.645 505.981 430.773C506.47 434.901 508.122 438.806 510.744 442.032V442.02Z" fill="white"/>
<path d="M527.388 407.772L527.016 464.4H528.912L527.388 407.772Z" fill="#263238"/>
<path d="M528.001 448.008C528.001 448.008 531.817 441.144 538.681 439.044C538.681 439.044 531.481 440.76 527.809 446.664L528.001 448.008Z" fill="#263238"/>
<path d="M528.001 428.556C528.001 428.556 531.817 421.692 538.681 419.592C538.681 419.592 531.481 421.308 527.809 427.224L528.001 428.556Z" fill="#263238"/>
<path d="M528.001 438.276C528.001 438.276 531.817 431.412 538.681 429.324C538.681 429.324 531.481 431.04 527.809 436.944L528.001 438.276Z" fill="#263238"/>
<path d="M527.4 433.512C527.4 433.512 523.716 426.648 517.092 424.548C517.092 424.548 524.088 426.264 527.58 432.18L527.4 433.512Z" fill="#263238"/>
<path d="M527.4 443.04C527.4 443.04 523.716 436.188 517.092 434.088C517.092 434.088 524.088 435.804 527.58 441.708L527.4 443.04Z" fill="#263238"/>
<path d="M57.1445 442.02C57.1445 442.02 68.4365 443.136 74.1725 450.132C76.2285 447.64 78.8112 445.636 81.7348 444.262C84.6585 442.888 87.8503 442.18 91.0805 442.188C93.7321 438.986 95.4198 435.097 95.9472 430.973C96.4746 426.85 95.82 422.661 94.0595 418.895C92.299 415.129 89.5052 411.94 86.0031 409.7C82.501 407.46 78.4346 406.26 74.2774 406.241C70.1202 406.222 66.043 407.384 62.5205 409.592C58.9979 411.8 56.1749 414.963 54.3798 418.712C52.5848 422.462 51.8917 426.645 52.3812 430.773C52.8706 434.901 54.5225 438.806 57.1445 442.032V442.02Z" fill="#059CE1"/>
<path opacity="0.5" d="M57.1445 442.02C57.1445 442.02 68.4365 443.136 74.1725 450.132C76.2285 447.64 78.8112 445.636 81.7348 444.262C84.6585 442.888 87.8503 442.18 91.0805 442.188C93.7321 438.986 95.4198 435.097 95.9472 430.973C96.4746 426.85 95.82 422.661 94.0595 418.895C92.299 415.129 89.5052 411.94 86.0031 409.7C82.501 407.46 78.4346 406.26 74.2774 406.241C70.1202 406.222 66.043 407.384 62.5205 409.592C58.9979 411.8 56.1749 414.963 54.3798 418.712C52.5848 422.462 51.8917 426.645 52.3812 430.773C52.8706 434.901 54.5225 438.806 57.1445 442.032V442.02Z" fill="white"/>
<path d="M73.788 407.772L73.416 464.4H75.324L73.788 407.772Z" fill="#263238"/>
<path d="M74.401 448.008C74.401 448.008 78.217 441.144 85.081 439.044C85.081 439.044 77.881 440.76 74.209 446.664L74.401 448.008Z" fill="#263238"/>
<path d="M74.401 428.556C74.401 428.556 78.217 421.692 85.081 419.592C85.081 419.592 77.881 421.308 74.209 427.224L74.401 428.556Z" fill="#263238"/>
<path d="M74.401 438.276C74.401 438.276 78.217 431.412 85.081 429.324C85.081 429.324 77.881 431.04 74.209 436.944L74.401 438.276Z" fill="#263238"/>
<path d="M73.8002 433.512C73.8002 433.512 70.1162 426.648 63.4922 424.548C63.4922 424.548 70.4882 426.264 73.9802 432.18L73.8002 433.512Z" fill="#263238"/>
<path d="M73.8002 443.04C73.8002 443.04 70.1162 436.188 63.4922 434.088C63.4922 434.088 70.4882 435.804 73.9802 441.708L73.8002 443.04Z" fill="#263238"/>
<path d="M240.901 425.304C240.901 425.304 260.629 427.26 270.625 439.488C270.625 439.488 281.185 425.328 300.169 425.616C304.823 420.018 307.79 413.213 308.725 405.993C309.659 398.774 308.522 391.437 305.446 384.839C302.37 378.241 297.482 372.654 291.351 368.728C285.221 364.802 278.101 362.699 270.821 362.665C263.541 362.631 256.402 364.667 250.235 368.536C244.068 372.405 239.128 377.947 235.991 384.516C232.854 391.085 231.648 398.411 232.516 405.639C233.383 412.867 236.287 419.699 240.889 425.34L240.901 425.304Z" fill="#059CE1"/>
<path opacity="0.3" d="M240.901 425.304C240.901 425.304 260.629 427.26 270.625 439.488C270.625 439.488 281.185 425.328 300.169 425.616C304.823 420.018 307.79 413.213 308.725 405.993C309.659 398.774 308.522 391.437 305.446 384.839C302.37 378.241 297.482 372.654 291.351 368.728C285.221 364.802 278.101 362.699 270.821 362.665C263.541 362.631 256.402 364.667 250.235 368.536C244.068 372.405 239.128 377.947 235.991 384.516C232.854 391.085 231.648 398.411 232.516 405.639C233.383 412.867 236.287 419.699 240.889 425.34L240.901 425.304Z" fill="white"/>
<path d="M269.977 365.508L269.305 464.4H272.641L269.977 365.508Z" fill="#263238"/>
<path d="M270.973 435.768C270.973 435.768 277.633 423.768 289.621 420.108C289.621 420.108 276.961 423.108 270.637 433.428L270.973 435.768Z" fill="#263238"/>
<path d="M270.973 401.796C270.973 401.796 277.633 389.796 289.621 386.196C289.621 386.196 276.961 389.196 270.637 399.516L270.973 401.796Z" fill="#263238"/>
<path d="M270.973 418.8C270.973 418.8 277.633 406.8 289.621 403.2C289.621 403.2 276.961 406.2 270.637 416.52L270.973 418.8Z" fill="#263238"/>
<path d="M270 410.46C270 410.46 263.568 398.46 252 394.86C252 394.86 264.216 397.848 270.312 408.168L270 410.46Z" fill="#263238"/>
<path d="M270 427.104C270 427.104 263.568 415.104 252 411.504C252 411.504 264.216 414.504 270.312 424.824L270 427.104Z" fill="#263238"/>
<path d="M543.575 463.596H54.7793V468.396H543.575V463.596Z" fill="#263238" stroke="#263238" stroke-linecap="round" stroke-linejoin="round"/>
<path d="M286.692 288.228C282.732 286.056 280.932 287.868 279.492 286.056C278.052 284.244 283.464 279.564 272.64 274.884C272.64 274.884 271.92 264.78 257.136 264.42C242.352 264.06 246.336 274.524 242.352 277.044C238.368 279.564 237.3 275.604 233.34 278.124C229.38 280.644 231.168 285.696 227.928 286.416C224.688 287.136 220.356 283.176 216.384 285.696C212.412 288.216 212.4 290.4 210.6 290.4C208.8 290.4 205.2 288.96 203.028 290.4C200.856 291.84 198.348 293.64 198.348 293.64H289.548C289.548 293.64 290.664 290.4 286.692 288.228Z" fill="white"/>
<path d="M248.521 274.152C245.641 272.568 244.321 273.888 243.277 272.568C242.233 271.248 246.157 267.84 238.285 264.432C238.285 264.432 237.757 257.076 226.981 256.812C216.205 256.548 219.109 264.168 216.181 266.004C213.253 267.84 212.497 264.96 209.605 266.796C206.713 268.632 208.033 272.316 205.669 272.796C203.305 273.276 200.149 270.396 197.269 272.28C194.389 274.164 194.389 275.688 193.069 275.688C191.749 275.688 189.133 274.644 187.549 275.688C185.965 276.732 184.141 278.088 184.141 278.088H250.609C250.609 278.088 251.413 275.724 248.521 274.152Z" fill="white"/>
<path d="M271.32 160.08C265.92 157.14 263.46 159.588 261.504 157.14C259.548 154.692 266.904 148.296 252.168 141.912C252.168 141.912 251.184 128.16 231.048 127.668C210.912 127.176 216.324 141.42 210.912 144.864C205.5 148.308 204.048 142.896 198.636 146.328C193.224 149.76 195.696 156.648 191.28 157.632C186.864 158.616 180.96 153.204 175.56 156.648C170.16 160.092 170.16 163.032 167.7 163.032C165.24 163.032 160.332 161.064 157.392 163.032C154.452 165 151.008 167.448 151.008 167.448H275.244C275.244 167.448 276.72 163.032 271.32 160.08Z" fill="#059CE1"/>
<path opacity="0.8" d="M271.32 160.08C265.92 157.14 263.46 159.588 261.504 157.14C259.548 154.692 266.904 148.296 252.168 141.912C252.168 141.912 251.184 128.16 231.048 127.668C210.912 127.176 216.324 141.42 210.912 144.864C205.5 148.308 204.048 142.896 198.636 146.328C193.224 149.76 195.696 156.648 191.28 157.632C186.864 158.616 180.96 153.204 175.56 156.648C170.16 160.092 170.16 163.032 167.7 163.032C165.24 163.032 160.332 161.064 157.392 163.032C154.452 165 151.008 167.448 151.008 167.448H275.244C275.244 167.448 276.72 163.032 271.32 160.08Z" fill="white"/>
</svg>
