<svg width="600" height="600" viewBox="0 0 600 600" fill="none" xmlns="http://www.w3.org/2000/svg">
<path d="M499.763 166.512C499.763 166.512 469.631 105.108 403.103 95.9998C336.575 86.8918 290.135 131.256 241.199 153.996C215.567 165.912 186.287 161.28 159.071 167.052C71.999 185.484 39.239 300.96 75.479 366.624C106.871 423.48 162.095 453.024 246.203 459.864C330.311 466.704 389.303 474.648 464.603 418.932C539.903 363.216 534.911 247.2 499.763 166.512Z" fill="#059CE1"/>
<path opacity="0.7" d="M499.763 166.512C499.763 166.512 469.631 105.108 403.103 95.9998C336.575 86.8918 290.135 131.256 241.199 153.996C215.567 165.912 186.287 161.28 159.071 167.052C71.999 185.484 39.239 300.96 75.479 366.624C106.871 423.48 162.095 453.024 246.203 459.864C330.311 466.704 389.303 474.648 464.603 418.932C539.903 363.216 534.911 247.2 499.763 166.512Z" fill="white"/>
<path d="M305.76 464.616H429.996V82.7998" stroke="#263238" stroke-linecap="round" stroke-linejoin="round"/>
<path d="M186.505 464.616H70.8008" stroke="#263238" stroke-linecap="round" stroke-linejoin="round"/>
<path d="M127.932 248.556V255.12H154.692" stroke="#263238" stroke-linecap="round" stroke-linejoin="round"/>
<path d="M141.06 256.644V264.216H124.404" stroke="#263238" stroke-linecap="round" stroke-linejoin="round"/>
<path d="M128.436 266.736V272.784H150.144" stroke="#263238" stroke-linecap="round" stroke-linejoin="round"/>
<path d="M148.129 264.72H160.237" stroke="#263238" stroke-linecap="round" stroke-linejoin="round"/>
<path d="M141.061 275.82V284.4" stroke="#263238" stroke-linecap="round" stroke-linejoin="round"/>
<path d="M157.717 254.112V247.548" stroke="#263238" stroke-linecap="round" stroke-linejoin="round"/>
<path d="M142.068 245.532V238.464" stroke="#263238" stroke-linecap="round" stroke-linejoin="round"/>
<path d="M151.152 246.54H166.8" stroke="#263238" stroke-linecap="round" stroke-linejoin="round"/>
<path d="M71.9277 248.556V255.12H98.6877" stroke="#263238" stroke-linecap="round" stroke-linejoin="round"/>
<path d="M85.0564 256.644V264.216H68.4004" stroke="#263238" stroke-linecap="round" stroke-linejoin="round"/>
<path d="M72.4434 266.736V272.784H94.1394" stroke="#263238" stroke-linecap="round" stroke-linejoin="round"/>
<path d="M92.125 264.72H104.245" stroke="#263238" stroke-linecap="round" stroke-linejoin="round"/>
<path d="M85.0566 275.82V284.4" stroke="#263238" stroke-linecap="round" stroke-linejoin="round"/>
<path d="M101.713 254.112V247.548" stroke="#263238" stroke-linecap="round" stroke-linejoin="round"/>
<path d="M86.0645 245.532V238.464" stroke="#263238" stroke-linecap="round" stroke-linejoin="round"/>
<path d="M95.1484 246.54H110.796" stroke="#263238" stroke-linecap="round" stroke-linejoin="round"/>
<path d="M96.2168 290.724V297.288H122.977" stroke="#263238" stroke-linecap="round" stroke-linejoin="round"/>
<path d="M109.343 298.8V306.372H92.6875" stroke="#263238" stroke-linecap="round" stroke-linejoin="round"/>
<path d="M96.7207 308.892V314.952H118.429" stroke="#263238" stroke-linecap="round" stroke-linejoin="round"/>
<path d="M116.412 306.876H128.52" stroke="#263238" stroke-linecap="round" stroke-linejoin="round"/>
<path d="M109.344 317.976V326.556" stroke="#263238" stroke-linecap="round" stroke-linejoin="round"/>
<path d="M126 296.28V289.716" stroke="#263238" stroke-linecap="round" stroke-linejoin="round"/>
<path d="M110.354 287.7V280.632" stroke="#263238" stroke-linecap="round" stroke-linejoin="round"/>
<path d="M119.436 288.708H135.084" stroke="#263238" stroke-linecap="round" stroke-linejoin="round"/>
<path d="M113.389 200.556V207.12H140.149" stroke="#263238" stroke-linecap="round" stroke-linejoin="round"/>
<path d="M126.517 208.644V216.216H109.861" stroke="#263238" stroke-linecap="round" stroke-linejoin="round"/>
<path d="M113.893 218.736V224.784H135.601" stroke="#263238" stroke-linecap="round" stroke-linejoin="round"/>
<path d="M133.584 216.72H145.692" stroke="#263238" stroke-linecap="round" stroke-linejoin="round"/>
<path d="M126.516 227.82V236.4" stroke="#263238" stroke-linecap="round" stroke-linejoin="round"/>
<path d="M143.172 206.112V199.548" stroke="#263238" stroke-linecap="round" stroke-linejoin="round"/>
<path d="M127.523 197.532V190.464" stroke="#263238" stroke-linecap="round" stroke-linejoin="round"/>
<path d="M136.607 198.54H152.255" stroke="#263238" stroke-linecap="round" stroke-linejoin="round"/>
<path d="M319.416 319.008V325.572H346.176" stroke="#263238" stroke-linecap="round" stroke-linejoin="round"/>
<path d="M332.545 327.084V334.656H315.889" stroke="#263238" stroke-linecap="round" stroke-linejoin="round"/>
<path d="M319.92 337.176V343.236H341.628" stroke="#263238" stroke-linecap="round" stroke-linejoin="round"/>
<path d="M339.613 335.16H351.721" stroke="#263238" stroke-linecap="round" stroke-linejoin="round"/>
<path d="M332.545 346.272V354.852" stroke="#263238" stroke-linecap="round" stroke-linejoin="round"/>
<path d="M349.201 324.564V318" stroke="#263238" stroke-linecap="round" stroke-linejoin="round"/>
<path d="M333.553 315.984V308.916" stroke="#263238" stroke-linecap="round" stroke-linejoin="round"/>
<path d="M342.637 316.992H358.285" stroke="#263238" stroke-linecap="round" stroke-linejoin="round"/>
<path d="M376.225 319.008V325.572H402.973" stroke="#263238" stroke-linecap="round" stroke-linejoin="round"/>
<path d="M389.34 327.084V334.656H372.684" stroke="#263238" stroke-linecap="round" stroke-linejoin="round"/>
<path d="M376.729 337.176V343.236H398.425" stroke="#263238" stroke-linecap="round" stroke-linejoin="round"/>
<path d="M396.408 335.16H408.528" stroke="#263238" stroke-linecap="round" stroke-linejoin="round"/>
<path d="M389.34 346.272V354.852" stroke="#263238" stroke-linecap="round" stroke-linejoin="round"/>
<path d="M405.996 324.564V318" stroke="#263238" stroke-linecap="round" stroke-linejoin="round"/>
<path d="M390.348 315.984V308.916" stroke="#263238" stroke-linecap="round" stroke-linejoin="round"/>
<path d="M399.443 316.992H415.079" stroke="#263238" stroke-linecap="round" stroke-linejoin="round"/>
<path d="M376.225 410.724V417.288H402.973" stroke="#263238" stroke-linecap="round" stroke-linejoin="round"/>
<path d="M389.34 418.8V426.372H372.684" stroke="#263238" stroke-linecap="round" stroke-linejoin="round"/>
<path d="M376.729 428.892V434.952H398.425" stroke="#263238" stroke-linecap="round" stroke-linejoin="round"/>
<path d="M396.408 426.876H408.528" stroke="#263238" stroke-linecap="round" stroke-linejoin="round"/>
<path d="M389.34 437.976V446.556" stroke="#263238" stroke-linecap="round" stroke-linejoin="round"/>
<path d="M405.996 416.28V409.716" stroke="#263238" stroke-linecap="round" stroke-linejoin="round"/>
<path d="M390.348 407.7V400.632" stroke="#263238" stroke-linecap="round" stroke-linejoin="round"/>
<path d="M386.52 408.708H415.08" stroke="#263238" stroke-linecap="round" stroke-linejoin="round"/>
<path d="M362.844 371.988V378.552H389.604" stroke="#263238" stroke-linecap="round" stroke-linejoin="round"/>
<path d="M375.972 380.064V387.636H359.316" stroke="#263238" stroke-linecap="round" stroke-linejoin="round"/>
<path d="M363.348 390.156V396.216H385.056" stroke="#263238" stroke-linecap="round" stroke-linejoin="round"/>
<path d="M383.041 388.14H402.061" stroke="#263238" stroke-linecap="round" stroke-linejoin="round"/>
<path d="M375.973 399.252V407.832" stroke="#263238" stroke-linecap="round" stroke-linejoin="round"/>
<path d="M392.629 377.544V370.98" stroke="#263238" stroke-linecap="round" stroke-linejoin="round"/>
<path d="M376.98 368.964V361.896" stroke="#263238" stroke-linecap="round" stroke-linejoin="round"/>
<path d="M386.064 369.972H401.712" stroke="#263238" stroke-linecap="round" stroke-linejoin="round"/>
<path d="M335.928 248.556V255.12H362.688" stroke="#263238" stroke-linecap="round" stroke-linejoin="round"/>
<path d="M349.056 256.644V264.216H332.4" stroke="#263238" stroke-linecap="round" stroke-linejoin="round"/>
<path d="M336.443 266.736V272.784H358.139" stroke="#263238" stroke-linecap="round" stroke-linejoin="round"/>
<path d="M356.125 264.72H368.245" stroke="#263238" stroke-linecap="round" stroke-linejoin="round"/>
<path d="M349.057 275.82V284.4" stroke="#263238" stroke-linecap="round" stroke-linejoin="round"/>
<path d="M365.713 254.112V247.548" stroke="#263238" stroke-linecap="round" stroke-linejoin="round"/>
<path d="M350.064 245.532V238.464" stroke="#263238" stroke-linecap="round" stroke-linejoin="round"/>
<path d="M359.148 246.54H374.796" stroke="#263238" stroke-linecap="round" stroke-linejoin="round"/>
<g opacity="0.15">
<path opacity="0.15" d="M230.652 157.968C226.344 158.076 222.252 158.22 218.328 158.4V190.068C222.432 189.716 226.54 189.448 230.652 189.264V157.968Z" fill="#263238"/>
<path opacity="0.15" d="M288.793 159.804C285.013 159.456 280.897 159.12 276.469 158.832V190.392C280.585 190.776 284.689 191.256 288.793 191.808V159.804Z" fill="#263238"/>
<path opacity="0.15" d="M232.859 189.156C236.971 189.004 241.079 188.924 245.183 188.916V157.788H244.871C240.735 157.788 236.735 157.832 232.871 157.92L232.859 189.156Z" fill="#263238"/>
<path opacity="0.15" d="M274.26 158.688C270.36 158.448 266.244 158.244 261.936 158.1V189.3C266.052 189.504 270.156 189.78 274.26 190.152V158.688Z" fill="#263238"/>
<path opacity="0.15" d="M259.728 158.016C255.768 157.896 251.64 157.824 247.404 157.8V188.916C251.508 188.916 255.616 189.016 259.728 189.216V158.016Z" fill="#263238"/>
<path opacity="0.15" d="M305.545 161.676V194.4L311.545 195.384L315.337 163.2C315.337 163.2 311.833 162.516 305.545 161.676Z" fill="#263238"/>
<path opacity="0.15" d="M303.336 161.388C299.868 160.956 295.74 160.476 291.012 160.008V192.096C293.244 192.42 295.488 192.756 297.72 193.116L303.336 194.028V161.388Z" fill="#263238"/>
<path opacity="0.15" d="M201.599 159.432C196.919 159.804 192.791 160.176 189.275 160.548V193.764L195.059 192.864C197.243 192.516 199.415 192.192 201.599 191.892V159.432Z" fill="#263238"/>
<path opacity="0.15" d="M203.795 191.616C207.887 191.088 212.003 190.632 216.119 190.26V158.508C211.703 158.736 207.587 158.988 203.795 159.276V191.616Z" fill="#263238"/>
<path opacity="0.15" d="M187.044 160.8C179.748 161.592 175.668 162.24 175.668 162.24L179.088 195.396L187.044 194.136V160.8Z" fill="#263238"/>
</g>
<path d="M307.08 201.732H183.588V458.784H307.08V201.732Z" fill="#263238" stroke="#263238" stroke-linecap="round" stroke-linejoin="round"/>
<path d="M297.72 193.116C263.722 187.584 229.06 187.499 195.036 192.864L179.088 195.372V464.616H186.504V203.316H305.76V464.616H313.992V195.372L297.72 193.116Z" fill="white" stroke="#263238" stroke-miterlimit="10"/>
<path d="M291.973 213.924H198.697V448.188H291.973V213.924Z" fill="#263238" stroke="white" stroke-linecap="round" stroke-linejoin="round"/>
<path d="M281.653 358.608H209.041V431.748H281.653V358.608Z" fill="#263238" stroke="white" stroke-linecap="round" stroke-linejoin="round"/>
<path d="M236.605 231.408H209.041V347.484H236.605V231.408Z" fill="white"/>
<path d="M209.027 306.708V347.484H236.591V289.2L209.027 306.708Z" fill="#059CE1"/>
<path opacity="0.5" d="M209.027 306.708V347.484H236.591V289.2L209.027 306.708Z" fill="white"/>
<path d="M236.605 231.408H209.041V347.484H236.605V231.408Z" stroke="#263238" stroke-linecap="round" stroke-linejoin="round"/>
<path d="M281.652 231.408H254.088V347.484H281.652V231.408Z" fill="white"/>
<path d="M254.088 278.1V347.484H281.652V260.604L254.088 278.1Z" fill="#059CE1"/>
<path opacity="0.5" d="M254.088 278.1V347.484H281.652V260.604L254.088 278.1Z" fill="white"/>
<path d="M281.652 231.408H254.088V347.484H281.652V231.408Z" stroke="#263238" stroke-linecap="round" stroke-linejoin="round"/>
<path d="M272.701 367.62H217.98V422.736H272.701V367.62Z" fill="#263238" stroke="white" stroke-linecap="round" stroke-linejoin="round"/>
<path d="M303.792 314.796H294.156V318.384H303.792V314.796Z" fill="#059CE1" stroke="#263238" stroke-linecap="round" stroke-linejoin="round"/>
<path d="M303.792 365.196H294.156V368.784H303.792V365.196Z" fill="#059CE1" stroke="#263238" stroke-linecap="round" stroke-linejoin="round"/>
<path d="M292.801 381.408C292.379 381.405 291.975 381.236 291.676 380.937C291.377 380.638 291.208 380.234 291.205 379.812V304.548C291.208 304.127 291.378 303.724 291.677 303.427C291.976 303.13 292.38 302.964 292.801 302.964C293.221 302.964 293.624 303.131 293.921 303.428C294.218 303.725 294.385 304.128 294.385 304.548V379.812C294.385 380.233 294.219 380.637 293.922 380.936C293.625 381.235 293.222 381.405 292.801 381.408Z" fill="#059CE1" stroke="#263238" stroke-linecap="round" stroke-linejoin="round"/>
<path d="M303.252 339.432H298.092V349.284H303.252V339.432Z" fill="#059CE1" stroke="#263238" stroke-linecap="round" stroke-linejoin="round"/>
<path d="M320.4 492.396H171.684L188.844 465.996H303.24L320.4 492.396Z" fill="#059CE1" stroke="#263238" stroke-linecap="round" stroke-linejoin="round"/>
<path d="M169.91 301.848H117.854V342.588H169.91V301.848Z" fill="#263238" stroke="#263238" stroke-linecap="round" stroke-linejoin="round"/>
<path d="M165.385 304.56H121.477V311.352H165.385V304.56Z" fill="white" stroke="#263238" stroke-linecap="round" stroke-linejoin="round"/>
<path d="M164.713 317.208H121.729V333.744H164.713V317.208Z" fill="#263238" stroke="white" stroke-linecap="round" stroke-linejoin="round"/>
<path d="M340.801 363.036L334.393 360.24C334.876 361.409 335.554 362.488 336.397 363.432C337.345 364.526 338.151 365.736 338.797 367.032C338.797 367.032 332.797 362.628 328.789 361.824C326.017 361.316 323.206 361.047 320.389 361.02L326.389 363.828L321.589 365.028L322.789 366.624H314.389L319.993 370.632L317.593 373.824L315.193 377.832L321.601 375.84L319.993 379.848L323.197 378.24L321.193 381.84H317.197L322.393 384.648H318.793L320.401 385.848L318.001 387.852L323.197 388.644L319.921 390.948L327.997 389.844L325.201 393.852L332.005 392.256V394.248H369.625L370.681 390.948L372.025 389.448L376.021 386.652L371.617 386.244L373.621 385.044L372.025 383.448L374.821 381.444L372.817 378.648L375.625 373.044L369.625 372.24L370.825 369.444V364.236L365.221 363.84L366.025 358.236L361.621 359.436L359.221 359.832L356.017 356.628L354.817 362.232L350.017 357.828L347.617 356.232L346.825 361.032L342.817 360.24L340.801 363.036Z" fill="#059CE1"/>
<path opacity="0.4" d="M340.801 363.036L334.393 360.24C334.876 361.409 335.554 362.488 336.397 363.432C337.345 364.526 338.151 365.736 338.797 367.032C338.797 367.032 332.797 362.628 328.789 361.824C326.017 361.316 323.206 361.047 320.389 361.02L326.389 363.828L321.589 365.028L322.789 366.624H314.389L319.993 370.632L317.593 373.824L315.193 377.832L321.601 375.84L319.993 379.848L323.197 378.24L321.193 381.84H317.197L322.393 384.648H318.793L320.401 385.848L318.001 387.852L323.197 388.644L319.921 390.948L327.997 389.844L325.201 393.852L332.005 392.256V394.248H369.625L370.681 390.948L372.025 389.448L376.021 386.652L371.617 386.244L373.621 385.044L372.025 383.448L374.821 381.444L372.817 378.648L375.625 373.044L369.625 372.24L370.825 369.444V364.236L365.221 363.84L366.025 358.236L361.621 359.436L359.221 359.832L356.017 356.628L354.817 362.232L350.017 357.828L347.617 356.232L346.825 361.032L342.817 360.24L340.801 363.036Z" fill="white"/>
<path opacity="0.2" d="M334.44 394.248H369.66L370.512 391.584L369.66 391.464L370.86 388.668V383.46L365.256 383.064L366.06 377.46L361.656 378.66L359.256 379.056L356.052 375.852L354.852 381.456L350.052 377.064L347.652 375.456L346.86 380.256L342.852 379.464L340.8 382.26L334.392 379.464C334.876 380.633 335.553 381.712 336.396 382.656C337.344 383.75 338.151 384.96 338.796 386.256C338.796 386.256 332.796 381.852 328.788 381.048C326.562 380.633 324.308 380.381 322.044 380.292L321.72 380.868L326.388 383.052L321.648 384.252L322.38 384.648H321.876L322.788 385.848H320.388L317.988 387.84L323.184 388.632L319.908 390.936L327.984 389.832L325.2 393.852L332.004 392.256V394.248H334.44Z" fill="#263238"/>
<path d="M361.332 469.8H329.353L327.793 464.34C321.831 443.438 319.103 421.747 319.705 400.02L319.957 390.948H370.716L370.969 399.288C371.626 420.897 368.992 442.48 363.157 463.296L361.332 469.8Z" fill="#263238" stroke="#263238" stroke-linecap="round" stroke-linejoin="round"/>
<path d="M118.525 392.064L116.557 388.128L119.509 385.512H116.557L118.201 383.544H113.281L118.525 380.592L113.617 379.608L116.893 377.316L111.973 372.732H117.877L115.909 370.44L118.201 368.796L116.893 366.828L119.185 364.86L121.153 366.168L118.525 360.276L123.121 362.568L124.753 358.308L126.721 359.292L128.101 356.544L128.689 355.356L130.333 358.968L135.577 356.016L136.561 358.632L140.485 357.648L141.805 361.92L142.453 354.708L146.713 358.968L149.005 355.68L149.989 359.952L153.265 358.308L153.601 360.6L155.233 358.968L154.909 362.892L161.461 359.292L159.169 364.212H164.089L162.121 366.828L166.057 367.152L164.737 369.12L170.317 369.456L167.689 375.684H169.993L168.853 378.504L168.673 378.96L168.025 381.576L170.317 382.236L169.093 384.972L169.009 385.188L170.965 388.788L167.365 388.128L169.993 390.432L168.325 390.948L165.721 392.724L118.525 392.064Z" fill="#059CE1"/>
<path opacity="0.4" d="M118.525 392.064L116.557 388.128L119.509 385.512H116.557L118.201 383.544H113.281L118.525 380.592L113.617 379.608L116.893 377.316L111.973 372.732H117.877L115.909 370.44L118.201 368.796L116.893 366.828L119.185 364.86L121.153 366.168L118.525 360.276L123.121 362.568L124.753 358.308L126.721 359.292L128.101 356.544L128.689 355.356L130.333 358.968L135.577 356.016L136.561 358.632L140.485 357.648L141.805 361.92L142.453 354.708L146.713 358.968L149.005 355.68L149.989 359.952L153.265 358.308L153.601 360.6L155.233 358.968L154.909 362.892L161.461 359.292L159.169 364.212H164.089L162.121 366.828L166.057 367.152L164.737 369.12L170.317 369.456L167.689 375.684H169.993L168.853 378.504L168.673 378.96L168.025 381.576L170.317 382.236L169.093 384.972L169.009 385.188L170.965 388.788L167.365 388.128L169.993 390.432L168.325 390.948L165.721 392.724L118.525 392.064Z" fill="white"/>
<path opacity="0.2" d="M168.325 390.948L169.993 390.432L169.008 389.58L164.737 389.328L166.057 387.36L162.121 387.036L164.089 384.408H159.169L161.461 379.488L154.909 383.1L155.233 379.164L153.601 380.808L153.265 378.516L149.989 380.148L149.005 375.888L146.713 379.164L142.453 374.904L141.805 382.116L140.485 377.856L136.561 378.84L135.577 376.212L130.333 379.164L128.689 375.564L128.101 376.74L126.721 379.488L124.753 378.516L123.121 382.776L118.525 380.472L121.153 386.376L119.185 385.068L118.657 385.512H119.509L117.229 387.54L118.201 389.004L117.313 389.628L118.525 392.064L165.721 392.724L168.325 390.948Z" fill="#263238"/>
<path d="M158.928 469.8H126.948L125.388 464.34C119.427 443.438 116.699 421.747 117.3 400.02L117.552 390.948H168.324L168.576 399.288C169.251 420.895 166.629 442.479 160.8 463.296L158.928 469.8Z" fill="#263238" stroke="#263238" stroke-linecap="round" stroke-linejoin="round"/>
<path opacity="0.3" d="M327.096 482.208H326.868H326.64H326.22H325.98H325.392H325.128C321.144 482.076 312.18 482.064 301.992 482.208C291.804 482.352 283.32 482.604 280.044 482.832H279.828H279.372H279.192H278.892H278.748H278.628C278.628 482.832 278.568 482.832 278.628 482.832C278.704 482.841 278.78 482.841 278.856 482.832H279H279.288H279.552H279.936H280.32H280.788H285.492C289.512 482.832 294.984 482.832 301.092 482.832C300.937 482.874 300.805 482.972 300.72 483.108H275.244L274.728 482.844H274.98H275.364H275.652H275.94H276.132H276.3H276.384C276.384 482.844 276.444 482.844 276.384 482.844C276.312 482.83 276.239 482.83 276.168 482.844H275.94H275.712H275.292H275.052H274.464H273.924L271.788 481.74H270.168C263.688 479.22 251.328 477.408 240.888 477.552C230.448 477.696 225.552 479.76 228.888 482.352H227.268L229.404 483.456H229.152H228.948H228.492H228.312H228H227.868H227.748C227.748 483.456 227.688 483.456 227.748 483.456C227.819 483.47 227.892 483.47 227.964 483.456H228H228.288H228.552H228.936H229.32H229.788H230.1L230.58 483.696L204.6 484.38C204.168 484.284 203.7 484.2 203.196 484.128C209.196 484.032 214.5 483.9 218.196 483.756H218.496H219.204H219.828H220.428H220.992H221.484H221.964H222.36H222.744H223.044H223.332H223.512H223.692H223.776C223.703 483.725 223.626 483.705 223.548 483.696H223.332H223.104H222.684H222.432H221.856H221.592C217.596 483.564 208.632 483.552 198.444 483.696C188.256 483.84 179.784 484.092 176.508 484.32H176.304H175.836H175.656H175.356H175.224H175.092C175.164 484.328 175.236 484.328 175.308 484.32H175.452H175.752H176.016H176.4H176.772H177.24H181.944C185.988 484.32 191.544 484.32 197.604 484.32C197.064 484.524 197.04 484.836 197.676 485.16L198.012 485.328C200.067 486.092 202.252 486.447 204.444 486.372C206.016 486.372 206.964 486.12 207.108 485.784H234.276L235.812 486.576L243.192 488.04H243.504L244.044 488.544C243.912 488.544 243.888 488.664 244.044 488.748L244.308 488.892H241.704L241.44 488.748C240.92 488.564 240.371 488.479 239.82 488.496C239.22 488.496 238.98 488.628 239.268 488.784L239.532 488.916L235.068 488.976L251.076 497.292H255.54H255.444C256.122 497.547 256.844 497.665 257.568 497.64L261.876 497.58H262.128H262.428L266.736 497.52C267.528 497.52 267.852 497.34 267.468 497.136L262.668 497.208H262.536L268.116 497.136L297.972 496.716H297.744L292.944 496.788C293.623 497.038 294.345 497.152 295.068 497.124L299.376 497.064H299.928L304.236 497.004C305.004 497.004 305.328 496.824 304.992 496.632H306.288L290.124 488.4H288.84L288.576 488.268C288.059 488.074 287.508 487.984 286.956 488.004C286.356 488.004 286.104 488.148 286.404 488.292L286.668 488.436H284.064L283.8 488.292C283.28 488.107 282.731 488.022 282.18 488.04C281.58 488.04 281.34 488.172 281.628 488.328L281.892 488.46H280.5L279.036 487.404L280.356 486.048L278.796 485.232L303.144 484.596C304.693 484.932 306.275 485.093 307.86 485.076C310.26 485.076 311.244 484.524 310.068 483.876L309.744 483.708C308.754 483.285 307.706 483.01 306.636 482.892C312.708 482.796 318 482.664 321.72 482.52H322.02H322.716H323.34H323.952H324.504H325.008H325.488H325.884H326.268H326.556H326.844H327.036H327.204H327.288C327.288 482.52 327.348 482.52 327.288 482.52C327.264 482.396 327.196 482.285 327.096 482.208ZM302.664 496.8H300.06H302.664ZM257.736 497.448H260.34H257.736Z" fill="#263238"/>
</svg>
