<svg width="732" height="500" viewBox="0 0 732 500" fill="none" xmlns="http://www.w3.org/2000/svg">
<path d="M192.471 317.97H61.1406V419.26H192.471V317.97Z" fill="#EBEBEB"/>
<path d="M159.571 418.54C159.421 418.54 159.301 395.97 159.301 368.12C159.301 340.27 159.421 317.69 159.571 317.69C159.721 317.69 159.831 340.27 159.831 368.12C159.831 395.97 159.711 418.54 159.571 418.54Z" fill="#E0E0E0"/>
<path d="M181.34 396.2H171.27V407.58H181.34V396.2Z" fill="#FAFAFA"/>
<path d="M116.131 318.23H101.211V339.84H116.131V318.23Z" fill="#E0E0E0"/>
<path d="M116.131 397.34H101.211V418.95H116.131V397.34Z" fill="#E0E0E0"/>
<path d="M213.01 216.91H81.6797V318.2H213.01V216.91Z" fill="#EBEBEB"/>
<path d="M180.1 317.48C179.96 317.48 179.84 294.91 179.84 267.06C179.84 239.21 179.96 216.64 180.1 216.64C180.24 216.64 180.36 239.21 180.36 267.06C180.36 294.91 180.25 317.48 180.1 317.48Z" fill="#E0E0E0"/>
<path d="M201.871 295.14H191.801V306.52H201.871V295.14Z" fill="#FAFAFA"/>
<path d="M136.66 217.17H121.74V238.78H136.66V217.17Z" fill="#E0E0E0"/>
<path d="M136.66 296.29H121.74V317.9H136.66V296.29Z" fill="#E0E0E0"/>
<path d="M203.981 135.73H98.3809V217.17H203.981V135.73Z" fill="#F5F5F5"/>
<path d="M177.521 216.6C177.411 216.6 177.311 198.44 177.311 176.05C177.311 153.66 177.411 135.51 177.521 135.51C177.631 135.51 177.731 153.66 177.731 176.05C177.731 198.44 177.641 216.6 177.521 216.6Z" fill="#E0E0E0"/>
<path d="M195.03 198.63H186.93V207.78H195.03V198.63Z" fill="#FAFAFA"/>
<path d="M142.59 135.94H130.6V153.32H142.59V135.94Z" fill="#E0E0E0"/>
<path d="M142.59 199.55H130.6V216.93H142.59V199.55Z" fill="#E0E0E0"/>
<path d="M675.36 192.27H576.17V268.77H675.36V192.27Z" fill="#F5F5F5"/>
<path d="M650.511 268.24C650.401 268.24 650.311 251.18 650.311 230.15C650.311 209.12 650.401 192.07 650.511 192.07C650.621 192.07 650.701 209.12 650.701 230.15C650.701 251.18 650.621 268.24 650.511 268.24Z" fill="#E0E0E0"/>
<path d="M666.94 251.36H659.34V259.96H666.94V251.36Z" fill="#FAFAFA"/>
<path d="M617.7 192.47H606.43V208.79H617.7V192.47Z" fill="#E0E0E0"/>
<path d="M617.7 252.23H606.43V268.55H617.7V252.23Z" fill="#E0E0E0"/>
<path d="M708.601 356.73H594.281V444.91H708.601V356.73Z" fill="#EBEBEB"/>
<path d="M680.001 444.28C679.881 444.28 679.781 424.63 679.781 400.39C679.781 376.15 679.881 356.49 680.001 356.49C680.121 356.49 680.231 376.14 680.231 400.39C680.231 424.64 680.091 444.28 680.001 444.28Z" fill="#E0E0E0"/>
<path d="M698.91 424.83H690.15V434.74H698.91V424.83Z" fill="#FAFAFA"/>
<path d="M642.15 356.95H629.16V375.76H642.15V356.95Z" fill="#E0E0E0"/>
<path d="M642.15 425.83H629.16V444.64H642.15V425.83Z" fill="#E0E0E0"/>
<path d="M692.81 268.78H578.49V356.96H692.81V268.78Z" fill="#EBEBEB"/>
<path d="M664.171 356.33C664.041 356.33 663.941 336.68 663.941 312.44C663.941 288.2 664.041 268.54 664.171 268.54C664.301 268.54 664.401 288.19 664.401 312.44C664.401 336.69 664.301 356.33 664.171 356.33Z" fill="#E0E0E0"/>
<path d="M683.121 336.88H674.361V346.79H683.121V336.88Z" fill="#FAFAFA"/>
<path d="M626.361 269H613.371V287.81H626.361V269Z" fill="#E0E0E0"/>
<path d="M626.361 337.88H613.371V356.69H626.361V337.88Z" fill="#E0E0E0"/>
<path d="M481.971 193.5H382.781V270H481.971V193.5Z" fill="#F5F5F5"/>
<path d="M457.12 269.47C457.01 269.47 456.93 252.41 456.93 231.38C456.93 210.35 457.01 193.3 457.12 193.3C457.23 193.3 457.32 210.3 457.32 231.38C457.32 252.46 457.23 269.47 457.12 269.47Z" fill="#E0E0E0"/>
<path d="M473.561 252.59H465.961V261.19H473.561V252.59Z" fill="#FAFAFA"/>
<path d="M424.311 193.7H413.041V210.02H424.311V193.7Z" fill="#E0E0E0"/>
<path d="M424.311 253.46H413.041V269.78H424.311V253.46Z" fill="#E0E0E0"/>
<path d="M490.77 117.2H391.58V193.7H490.77V117.2Z" fill="#EBEBEB"/>
<path d="M465.921 193.16C465.811 193.16 465.721 176.16 465.721 155.08C465.721 134 465.811 116.99 465.921 116.99C466.031 116.99 466.121 133.99 466.121 155.08C466.121 176.17 466.001 193.16 465.921 193.16Z" fill="#E0E0E0"/>
<path d="M482.36 176.29H474.76V184.89H482.36V176.29Z" fill="#FAFAFA"/>
<path d="M433.11 117.39H421.84V133.71H433.11V117.39Z" fill="#E0E0E0"/>
<path d="M433.11 177.15H421.84V193.47H433.11V177.15Z" fill="#E0E0E0"/>
<path d="M487.05 64.1001H416.08V118.84H487.05V64.1001Z" fill="#EBEBEB"/>
<path d="M469.281 118.46C469.201 118.46 469.141 106.26 469.141 91.21C469.141 76.16 469.201 64 469.281 64C469.361 64 469.421 76.2 469.421 91.25C469.421 106.3 469.351 118.46 469.281 118.46Z" fill="#E0E0E0"/>
<path d="M481.04 106.39H475.6V112.54H481.04V106.39Z" fill="#FAFAFA"/>
<path d="M445.8 64.25H437.74V75.93H445.8V64.25Z" fill="#E0E0E0"/>
<path d="M445.8 107H437.74V118.68H445.8V107Z" fill="#E0E0E0"/>
<path d="M515.22 357.96H400.9V446.14H515.22V357.96Z" fill="#EBEBEB"/>
<path d="M486.58 445.51C486.45 445.51 486.35 425.86 486.35 401.62C486.35 377.38 486.45 357.72 486.58 357.72C486.71 357.72 486.8 377.37 486.8 401.62C486.8 425.87 486.7 445.51 486.58 445.51Z" fill="#E0E0E0"/>
<path d="M505.52 426.06H496.76V435.97H505.52V426.06Z" fill="#FAFAFA"/>
<path d="M448.76 358.18H435.77V376.99H448.76V358.18Z" fill="#E0E0E0"/>
<path d="M448.76 427.06H435.77V445.87H448.76V427.06Z" fill="#E0E0E0"/>
<path d="M499.42 270.01H385.1V358.19H499.42V270.01Z" fill="#EBEBEB"/>
<path d="M470.791 357.56C470.661 357.56 470.561 337.91 470.561 313.67C470.561 289.43 470.661 269.77 470.791 269.77C470.921 269.77 471.011 289.42 471.011 313.67C471.011 337.92 470.911 357.56 470.791 357.56Z" fill="#E0E0E0"/>
<path d="M489.731 338.11H480.971V348.02H489.731V338.11Z" fill="#FAFAFA"/>
<path d="M432.97 270.23H419.98V289.04H432.97V270.23Z" fill="#E0E0E0"/>
<path d="M432.97 339.11H419.98V357.92H432.97V339.11Z" fill="#E0E0E0"/>
<path d="M250.8 428.67V419.26H58.3005C57.6189 419.26 56.9652 419.531 56.4832 420.013C56.0012 420.495 55.7305 421.148 55.7305 421.83V426.1C55.7305 426.782 56.0012 427.435 56.4832 427.917C56.9652 428.399 57.6189 428.67 58.3005 428.67H63.6605V433C63.6605 433.332 63.595 433.661 63.4679 433.968C63.3407 434.275 63.1544 434.554 62.9194 434.789C62.6845 435.024 62.4056 435.21 62.0987 435.337C61.7917 435.465 61.4627 435.53 61.1305 435.53H58.2605C57.5997 435.53 56.9651 435.788 56.4924 436.25C56.0196 436.711 55.7461 437.339 55.7305 438V442.35C55.7305 443.021 55.997 443.665 56.4715 444.139C56.946 444.613 57.5895 444.88 58.2605 444.88H250.8V435.47H205.93V428.65L250.8 428.67ZM109.8 428.67H121.34V435.49H109.8V428.67ZM102.11 435.49H90.5805V428.67H102.11V435.49ZM129 428.67H140.53V435.49H129V428.67ZM148.22 428.67H159.76V435.49H148.25L148.22 428.67ZM167.45 428.67H179V435.49H167.48L167.45 428.67ZM71.3205 428.67H82.8905V435.49H71.3505L71.3205 428.67ZM198.21 435.49H186.7V428.67H198.24L198.21 435.49Z" fill="#E0E0E0"/>
<path d="M244.311 232.5H140.131V312.86H244.311V232.5Z" fill="#059CE1"/>
<path opacity="0.3" d="M244.311 232.5H140.131V312.86H244.311V232.5Z" fill="black"/>
<path d="M218.211 312.29C218.121 312.29 218.041 294.38 218.041 272.29C218.041 250.2 218.121 232.29 218.211 232.29C218.301 232.29 218.381 250.2 218.381 272.29C218.381 294.38 218.301 312.29 218.211 312.29Z" fill="#263238"/>
<path d="M235.48 294.57H227.49V303.6H235.48V294.57Z" fill="#F5F5F5"/>
<path d="M183.74 232.71H171.91V249.86H183.74V232.71Z" fill="#263238"/>
<path d="M183.74 295.47H171.91V312.62H183.74V295.47Z" fill="#263238"/>
<path d="M243.41 232.5H243.14H242.36H239.36L228.29 232.55H191.78H155.26L144.2 232.49H141.2H140.42H140.15H140.42H141.2H144.2L155.26 232.44H191.78H228.29L239.36 232.49H242.36H243.14L243.41 232.5Z" fill="#263238"/>
<path d="M331.041 232.4H226.861V312.76H331.041V232.4Z" fill="#059CE1"/>
<path d="M304.941 312.19C304.851 312.19 304.771 294.28 304.771 272.19C304.771 250.1 304.851 232.19 304.941 232.19C305.031 232.19 305.111 250.09 305.111 272.19C305.111 294.29 305.001 312.19 304.941 312.19Z" fill="#263238"/>
<path d="M322.211 294.47H314.221V303.5H322.211V294.47Z" fill="#F5F5F5"/>
<path opacity="0.5" d="M270.471 232.61H258.641V249.76H270.471V232.61Z" fill="white"/>
<path opacity="0.5" d="M270.471 295.37H258.641V312.52H270.471V295.37Z" fill="white"/>
<path d="M330.131 232.4H329.871H329.081H326.081L315.021 232.45H278.511H241.991L230.921 232.4H227.921H227.131H226.871H227.131H227.921H230.921L241.991 232.34L278.511 232.29L315.021 232.34L326.081 232.4H329.081H329.871H330.131Z" fill="#263238"/>
<path d="M336.891 152.04H232.711V232.4H336.891V152.04Z" fill="#059CE1"/>
<path d="M310.791 231.83C310.691 231.83 310.621 213.92 310.621 191.83C310.621 169.74 310.691 151.83 310.791 151.83C310.891 151.83 310.961 169.73 310.961 191.83C310.961 213.93 310.881 231.83 310.791 231.83Z" fill="#263238"/>
<path d="M328.06 214.11H320.07V223.14H328.06V214.11Z" fill="#F5F5F5"/>
<path d="M276.32 152.25H264.49V169.4H276.32V152.25Z" fill="#263238"/>
<path d="M276.32 215.01H264.49V232.16H276.32V215.01Z" fill="#263238"/>
<path d="M336 152C335.914 152.015 335.826 152.015 335.74 152H334.95H331.95H320.89L284.38 152.05L247.86 152H236.79H233.79H233C232.914 152.015 232.826 152.015 232.74 152H233H233.79H236.79L247.86 151.94H284.38H320.89L331.95 152H334.95H335.74H336Z" fill="#263238"/>
<path d="M325.752 402.33V392.92H133.262C132.579 392.92 131.924 393.19 131.441 393.672C130.957 394.154 130.684 394.807 130.682 395.49V399.76C130.684 400.442 130.957 401.096 131.441 401.578C131.924 402.059 132.579 402.33 133.262 402.33H138.622V406.61C138.622 407.284 138.354 407.93 137.878 408.406C137.401 408.882 136.755 409.15 136.082 409.15H133.222C132.55 409.15 131.905 409.416 131.429 409.89C130.953 410.365 130.684 411.008 130.682 411.68V416C130.684 416.672 130.953 417.315 131.429 417.789C131.905 418.264 132.55 418.53 133.222 418.53H325.752V409.12H280.882V402.3L325.752 402.33ZM184.752 402.33H196.282V409.15H184.762L184.752 402.33ZM177.062 409.15H165.532V402.33H177.072L177.062 409.15ZM204.002 402.33H215.542V409.15H204.002V402.33ZM223.232 402.33H234.762V409.15H223.212L223.232 402.33ZM242.452 402.33H254.002V409.15H242.432L242.452 402.33ZM146.332 402.33H157.862V409.15H146.312L146.332 402.33ZM273.212 409.15H261.652V402.33H273.192L273.212 409.15Z" fill="#455A64"/>
<path d="M480.912 240.21C481.227 239.887 481.475 239.506 481.641 239.087C481.807 238.667 481.887 238.219 481.878 237.769C481.869 237.318 481.77 236.874 481.587 236.462C481.403 236.05 481.14 235.679 480.812 235.37L448.342 204.68C447.693 204.071 446.836 203.732 445.947 203.732C445.057 203.732 444.201 204.071 443.552 204.68C443.21 204.997 442.936 205.379 442.744 205.803C442.553 206.228 442.448 206.687 442.436 207.152C442.424 207.618 442.505 208.081 442.674 208.515C442.843 208.949 443.097 209.345 443.422 209.68L456.372 223.3L449.632 229.79L446.122 227L421.632 255.05L408.542 242.46L392.762 288.87L395.892 351.87H432.192L429.652 277L454.002 242.32L454.192 234.07L461.192 226.9L476.282 240.38C476.936 240.962 477.79 241.27 478.666 241.238C479.542 241.207 480.371 240.838 480.982 240.21H480.912Z" fill="#263238"/>
<path d="M383 363.54C382.86 363.54 382.74 306.06 382.74 235.17C382.74 164.28 382.86 106.78 383 106.78C383.14 106.78 383.26 164.25 383.26 235.17C383.26 306.09 383.11 363.54 383 363.54Z" fill="#263238"/>
<path d="M464.25 347.35L486.33 286L478.03 282.64V270.79L538.4 269.86C539.823 269.833 541.188 269.289 542.24 268.331C543.292 267.372 543.96 266.064 544.12 264.65L553 185.83C553.199 184.067 554.04 182.44 555.362 181.257C556.685 180.075 558.396 179.421 560.17 179.42C561.143 179.419 562.105 179.615 563 179.996C563.895 180.377 564.704 180.935 565.377 181.637C566.051 182.338 566.576 183.169 566.92 184.079C567.264 184.988 567.42 185.958 567.38 186.93L564 268.15L595.52 268.32L596.59 283.13L503.37 286.78L479.06 346.47L464.25 347.35Z" fill="#455A64"/>
<path d="M478.14 345.85L399.66 346.47V351.7L432.17 351.28L483.95 350.88L609.49 333.16L595.26 279H510.26C508.791 278.978 507.338 279.315 506.028 279.98C504.718 280.646 503.589 281.62 502.74 282.82L478.14 345.85Z" fill="#263238"/>
<path d="M440.531 119.36L383.531 301.29L383.931 351.9H402.001V301.61L448.741 119.85L575.381 119.14L599.601 308.47H613.891L584.421 120.47C583.958 118.011 582.65 115.791 580.724 114.193C578.797 112.595 576.374 111.721 573.871 111.72H450.811C448.504 111.719 446.258 112.461 444.406 113.838C442.555 115.214 441.196 117.15 440.531 119.36Z" fill="#455A64"/>
<path d="M373.24 410.35V361.75L383.88 351.9L483.88 350.61L501.88 335.97C505.233 333.247 509.358 331.652 513.67 331.41L532.93 330.32C532.93 330.32 541.57 324.37 549.93 318.47C560.518 310.967 573.174 306.935 586.15 306.93H641.58C643.593 306.93 645.524 307.729 646.947 309.153C648.371 310.576 649.17 312.507 649.17 314.52V410.35H373.24Z" fill="#059CE1"/>
<path d="M649.152 394.69H372.262V410.67H649.152V394.69Z" fill="#263238"/>
<path d="M386.592 410.17C386.491 416.942 388.402 423.591 392.081 429.277C395.76 434.963 401.043 439.43 407.261 442.114C413.48 444.797 420.354 445.576 427.015 444.353C433.676 443.129 439.825 439.957 444.683 435.239C449.541 430.52 452.891 424.467 454.309 417.844C455.727 411.222 455.149 404.328 452.648 398.034C450.148 391.74 445.837 386.329 440.26 382.485C434.684 378.641 428.094 376.538 421.322 376.44C412.244 376.309 403.486 379.789 396.973 386.114C390.46 392.439 386.726 401.092 386.592 410.17Z" fill="#263238"/>
<path d="M386.6 410.09C386.6 410.09 386.6 410.14 386.6 410.17C386.548 419.198 390.065 427.881 396.383 434.33C402.702 440.779 411.312 444.47 420.34 444.602C429.367 444.734 438.081 441.295 444.586 435.034C451.09 428.773 454.858 420.196 455.07 411.17C455.07 411.17 455.07 411.11 455.07 411.08L386.6 410.09Z" fill="#263238"/>
<path d="M396.791 410.32C396.73 415.063 398.077 419.718 400.66 423.696C403.243 427.675 406.947 430.799 411.305 432.673C415.662 434.548 420.477 435.089 425.142 434.229C429.807 433.368 434.112 431.145 437.514 427.839C440.916 424.533 443.262 420.294 444.256 415.655C445.25 411.017 444.847 406.188 443.099 401.779C441.35 397.369 438.334 393.577 434.431 390.881C430.528 388.185 425.914 386.705 421.171 386.63C418.013 386.579 414.877 387.153 411.941 388.317C409.006 389.481 406.329 391.214 404.064 393.414C401.799 395.615 399.991 398.241 398.743 401.142C397.495 404.043 396.831 407.162 396.791 410.32Z" fill="#FAFAFA"/>
<path d="M421.171 386.63C418.013 386.579 414.877 387.153 411.941 388.317C409.006 389.481 406.329 391.214 404.064 393.414C401.799 395.615 399.991 398.241 398.743 401.142C397.495 404.043 396.831 407.162 396.791 410.32L444.861 411.01C444.911 407.852 444.338 404.716 443.174 401.78C442.009 398.844 440.277 396.167 438.076 393.903C435.876 391.638 433.249 389.829 430.349 388.581C427.448 387.333 424.329 386.67 421.171 386.63Z" fill="#E0E0E0"/>
<path d="M406.181 410.46C406.145 413.355 406.969 416.196 408.548 418.623C410.127 421.05 412.391 422.954 415.052 424.095C417.713 425.235 420.653 425.561 423.499 425.031C426.346 424.501 428.971 423.139 431.044 421.117C433.116 419.095 434.542 416.504 435.142 413.671C435.742 410.839 435.488 407.892 434.413 405.203C433.338 402.515 431.49 400.206 429.103 398.567C426.716 396.929 423.896 396.036 421.001 396C417.119 395.954 413.377 397.452 410.599 400.163C407.82 402.874 406.231 406.578 406.181 410.46Z" fill="#263238"/>
<path d="M554.131 410.17C554.031 416.942 555.941 423.591 559.62 429.277C563.299 434.963 568.582 439.43 574.8 442.114C581.019 444.797 587.893 445.576 594.554 444.353C601.215 443.129 607.364 439.957 612.222 435.239C617.08 430.52 620.43 424.467 621.848 417.844C623.266 411.222 622.688 404.328 620.187 398.034C617.687 391.74 613.376 386.329 607.8 382.485C602.223 378.641 595.633 376.538 588.861 376.44C579.783 376.309 571.025 379.789 564.512 386.114C557.999 392.439 554.265 401.092 554.131 410.17Z" fill="#263238"/>
<path d="M554.141 410.09C554.141 410.09 554.141 410.14 554.141 410.17C554.089 419.198 557.606 427.881 563.924 434.33C570.243 440.779 578.853 444.47 587.881 444.602C596.908 444.734 605.622 441.295 612.127 435.034C618.631 428.773 622.399 420.196 622.611 411.17C622.611 411.17 622.611 411.11 622.611 411.08L554.141 410.09Z" fill="#263238"/>
<path d="M564.33 410.32C564.269 415.063 565.616 419.718 568.199 423.696C570.782 427.675 574.486 430.799 578.844 432.673C583.201 434.548 588.016 435.089 592.681 434.229C597.346 433.368 601.651 431.145 605.053 427.839C608.455 424.533 610.801 420.294 611.795 415.655C612.789 411.017 612.386 406.188 610.638 401.779C608.889 397.369 605.873 393.577 601.97 390.881C598.067 388.185 593.453 386.705 588.71 386.63C585.552 386.579 582.416 387.153 579.48 388.317C576.545 389.481 573.868 391.214 571.603 393.414C569.338 395.615 567.53 398.241 566.282 401.142C565.034 404.043 564.37 407.162 564.33 410.32Z" fill="#FAFAFA"/>
<path d="M588.71 386.63C585.552 386.579 582.416 387.153 579.48 388.317C576.545 389.481 573.868 391.214 571.603 393.414C569.338 395.615 567.53 398.241 566.282 401.142C565.034 404.043 564.37 407.162 564.33 410.32L612.4 411.01C612.45 407.852 611.877 404.716 610.713 401.78C609.548 398.844 607.816 396.167 605.615 393.903C603.415 391.638 600.789 389.829 597.888 388.581C594.987 387.333 591.868 386.67 588.71 386.63Z" fill="#E0E0E0"/>
<path d="M573.732 410.46C573.696 413.354 574.52 416.193 576.097 418.619C577.675 421.046 579.937 422.95 582.596 424.091C585.256 425.233 588.194 425.561 591.039 425.033C593.885 424.505 596.51 423.146 598.584 421.127C600.657 419.108 602.086 416.52 602.689 413.689C603.292 410.859 603.043 407.913 601.972 405.224C600.902 402.535 599.059 400.224 596.675 398.582C594.292 396.94 591.475 396.042 588.582 396C586.656 395.972 584.745 396.324 582.956 397.036C581.167 397.748 579.536 398.806 578.157 400.149C576.778 401.493 575.677 403.095 574.917 404.864C574.158 406.633 573.755 408.535 573.732 410.46Z" fill="#263238"/>
<path d="M632.921 386.3C632.859 386.224 632.802 386.144 632.751 386.06L632.311 385.34L631.611 384.16C631.306 383.619 630.972 383.095 630.611 382.59C628.415 379.286 625.823 376.263 622.891 373.59C622.011 372.7 620.941 371.93 619.891 371.04C618.841 370.15 617.641 369.39 616.441 368.54C615.241 367.69 613.921 366.91 612.501 366.22C611.811 365.86 611.111 365.47 610.391 365.12L608.141 364.12C604.949 362.774 601.624 361.768 598.221 361.12C594.569 360.417 590.848 360.136 587.131 360.28C579.928 360.682 572.905 362.684 566.571 366.14L564.431 367.34C563.741 367.76 563.091 368.22 562.431 368.64C561.081 369.46 559.921 370.46 558.731 371.33C557.541 372.2 556.511 373.19 555.531 374.14C554.551 375.09 553.591 376 552.791 376.97C550.127 379.912 547.833 383.169 545.961 386.67C545.648 387.206 545.367 387.76 545.121 388.33C544.891 388.81 544.691 389.22 544.531 389.57L544.161 390.33C544.122 390.417 544.076 390.501 544.021 390.58C544.038 390.486 544.069 390.395 544.111 390.31L544.431 389.53L544.971 388.27C545.208 387.691 545.478 387.127 545.781 386.58C547.596 383.021 549.861 379.71 552.521 376.73C553.311 375.73 554.301 374.85 555.251 373.85C556.201 372.85 557.341 371.97 558.461 370.99C559.581 370.01 560.821 369.1 562.171 368.26C562.831 367.83 563.491 367.37 564.171 366.94L566.321 365.71C569.396 364.042 572.637 362.702 575.991 361.71C579.603 360.648 583.324 360.004 587.081 359.79C594.364 359.506 601.618 360.856 608.311 363.74L610.571 364.74C611.301 365.09 612.001 365.49 612.701 365.86C614.131 366.56 615.381 367.46 616.701 368.22C618.021 368.98 619.091 369.9 620.161 370.77C621.231 371.64 622.281 372.46 623.161 373.36C626.089 376.078 628.657 379.159 630.801 382.53C631.164 383.044 631.498 383.578 631.801 384.13L632.451 385.34C632.621 385.65 632.751 385.89 632.851 386.09C632.951 386.29 632.931 386.29 632.921 386.3Z" fill="#263238"/>
<path d="M465.53 392.6C465.472 392.516 465.425 392.426 465.39 392.33C465.31 392.12 465.2 391.85 465.06 391.51L464.52 390.18C464.28 389.66 464.01 389.06 463.71 388.39C461.967 384.611 459.796 381.044 457.24 377.76C453.511 372.837 448.754 368.786 443.3 365.89C440.034 364.295 436.57 363.141 433 362.46C429.175 361.672 425.274 361.316 421.37 361.4C417.466 361.454 413.581 361.954 409.79 362.89C406.263 363.773 402.863 365.101 399.67 366.84C394.216 369.74 389.339 373.614 385.28 378.27C382.581 381.425 380.234 384.866 378.28 388.53C377.58 389.83 377.05 390.85 376.72 391.53C376.56 391.86 376.42 392.12 376.32 392.32C376.282 392.413 376.231 392.5 376.17 392.58C376.188 392.482 376.222 392.387 376.27 392.3L376.63 391.49C376.93 390.77 377.43 389.74 378.1 388.42C379.993 384.694 382.308 381.197 385 378C389.054 373.27 393.95 369.333 399.44 366.39C402.664 364.63 406.098 363.286 409.66 362.39C413.49 361.443 417.415 360.937 421.36 360.88C425.306 360.811 429.248 361.187 433.11 362C436.72 362.698 440.221 363.875 443.52 365.5C449.018 368.447 453.799 372.572 457.52 377.58C460.065 380.903 462.204 384.519 463.89 388.35L464.65 390.16C464.84 390.69 465.01 391.16 465.14 391.51C465.27 391.86 465.36 392.13 465.43 392.35C465.473 392.429 465.507 392.513 465.53 392.6Z" fill="#263238"/>
<path d="M373.171 392.92H221.391V410.67H373.171V392.92Z" fill="#263238"/>
<path d="M369.061 400.45C369.061 401.324 368.801 402.179 368.316 402.905C367.83 403.632 367.14 404.199 366.332 404.533C365.525 404.868 364.636 404.955 363.778 404.785C362.921 404.614 362.133 404.193 361.515 403.575C360.897 402.957 360.476 402.169 360.306 401.312C360.135 400.455 360.223 399.566 360.557 398.758C360.892 397.951 361.458 397.26 362.185 396.775C362.912 396.289 363.767 396.03 364.641 396.03C365.813 396.03 366.937 396.495 367.766 397.324C368.595 398.153 369.061 399.278 369.061 400.45Z" fill="#455A64"/>
<path d="M371.182 110.32H358.512V362H371.182V110.32Z" fill="#455A64"/>
<path d="M551.361 376.34C551.361 376.48 530.001 376.6 503.661 376.6C477.321 376.6 455.961 376.48 455.961 376.34C455.961 376.2 477.311 376.08 503.661 376.08C530.011 376.08 551.361 376.2 551.361 376.34Z" fill="#263238"/>
<path d="M531.92 372.57C531.77 372.57 531.66 363.28 531.66 351.82C531.66 340.36 531.77 331.08 531.92 331.08C532.07 331.08 532.18 340.36 532.18 351.82C532.18 363.28 532.06 372.57 531.92 372.57Z" fill="#263238"/>
<path d="M383.01 104.55H357.15V116.09H383.01V104.55Z" fill="#263238"/>
<path d="M373.172 359.92H356.521V393.14H373.172V359.92Z" fill="#263238"/>
<path d="M334.51 312.79H230.33V393.15H334.51V312.79Z" fill="#059CE1"/>
<path opacity="0.3" d="M334.51 312.79H230.33V393.15H334.51V312.79Z" fill="black"/>
<path d="M308.41 392.58C308.32 392.58 308.24 374.67 308.24 352.58C308.24 330.49 308.32 312.58 308.41 312.58C308.5 312.58 308.58 330.49 308.58 352.58C308.58 374.67 308.5 392.58 308.41 392.58Z" fill="#263238"/>
<path d="M325.681 374.86H317.691V383.89H325.681V374.86Z" fill="#F5F5F5"/>
<path d="M273.941 313H262.111V330.15H273.941V313Z" fill="#263238"/>
<path d="M273.941 375.76H262.111V392.91H273.941V375.76Z" fill="#263238"/>
<path d="M333.601 312.79H333.341H332.551H329.551L318.481 312.84L282.001 313H245.481L234.421 312.95H231.421H230.631H230.371C230.458 312.941 230.545 312.941 230.631 312.95H231.421H234.421L245.481 312.9L282.001 312.85L318.511 312.9L329.581 312.95H332.581H333.371C333.442 312.889 333.519 312.835 333.601 312.79Z" fill="#263238"/>
<path d="M225.231 312.79H121.051V393.15H225.231V312.79Z" fill="#059CE1"/>
<path d="M199.141 392.58C199.041 392.58 198.971 374.67 198.971 352.58C198.971 330.49 199.041 312.58 199.141 312.58C199.241 312.58 199.301 330.49 199.301 352.58C199.301 374.67 199.231 392.58 199.141 392.58Z" fill="#263238"/>
<path d="M216.41 374.86H208.42V383.89H216.41V374.86Z" fill="#F5F5F5"/>
<path opacity="0.5" d="M164.67 313H152.84V330.15H164.67V313Z" fill="white"/>
<path opacity="0.5" d="M164.67 375.76H152.84V392.91H164.67V375.76Z" fill="white"/>
<path d="M224.33 312.79H224.06H223.28H220.28L209.22 312.84H172.71H136.19L125.12 312.79H122.12H121.34H121.07C121.16 312.782 121.25 312.782 121.34 312.79H122.12H125.12L136.19 312.74L172.71 312.69L209.22 312.74L220.28 312.79H223.28H224.06C224.15 312.781 224.241 312.781 224.33 312.79Z" fill="#263238"/>
<path d="M653.521 334.63C658.891 335.93 663.401 341.38 663.311 346.91C663.198 349.68 662.178 352.336 660.41 354.471C658.641 356.606 656.222 358.102 653.521 358.73" fill="#059CE1"/>
<g opacity="0.6">
<path opacity="0.6" d="M653.521 334.63C658.891 335.93 663.401 341.38 663.311 346.91C663.198 349.68 662.178 352.336 660.41 354.471C658.641 356.606 656.222 358.102 653.521 358.73" fill="white"/>
</g>
<path d="M653.74 331.53H649.15V361.94H653.74V331.53Z" fill="#059CE1"/>
<path opacity="0.3" d="M653.74 331.53H649.15V361.94H653.74V331.53Z" fill="black"/>
<path d="M435.351 209.67C434.799 209.242 434.419 208.629 434.282 207.944C434.144 207.259 434.257 206.548 434.601 205.94C435.371 204.6 436.271 203.02 436.681 202.36C437.182 201.579 437.639 200.771 438.051 199.94C438.178 199.443 438.442 198.992 438.813 198.638C439.185 198.284 439.648 198.042 440.151 197.94C441.372 197.783 442.611 197.82 443.821 198.05L456.331 200.75L462.161 203.63L456.491 208.63L453.341 207.63C452.391 208.45 448.681 208.88 447.421 208.73C445.811 208.53 442.591 207.48 440.761 207.83L438.991 208.08L439.831 208.78C441.369 208.669 442.909 208.984 444.281 209.69C444.5 209.837 444.668 210.05 444.76 210.297C444.853 210.545 444.866 210.815 444.798 211.071C444.73 211.326 444.583 211.554 444.38 211.722C444.176 211.891 443.924 211.991 443.661 212.01L439.551 212.28C438.438 211.757 437.368 211.149 436.351 210.46C436.032 210.178 435.698 209.915 435.351 209.67Z" fill="#FFBE9D"/>
<path d="M439.001 208.12C438.799 208.258 438.571 208.353 438.331 208.4C437.678 208.59 436.984 208.59 436.331 208.4C435.861 208.246 435.448 207.957 435.141 207.57C434.966 207.335 434.841 207.066 434.776 206.78C434.71 206.494 434.705 206.198 434.761 205.91C434.836 205.58 435.019 205.284 435.281 205.07C435.541 204.88 435.832 204.734 436.141 204.64C436.739 204.441 437.351 204.284 437.971 204.17C439.15 203.942 440.342 203.789 441.541 203.71C442.091 203.71 442.611 203.65 443.111 203.65H443.491H443.791C443.999 203.62 444.206 203.58 444.411 203.53C445.262 203.256 446.126 203.026 447.001 202.84C446.224 203.3 445.381 203.637 444.501 203.84C444.289 203.911 444.071 203.964 443.851 204C443.718 204.016 443.584 204.016 443.451 204H443.111C442.641 204 442.111 204.06 441.581 204.11C440.403 204.214 439.232 204.377 438.071 204.6C437.476 204.71 436.888 204.857 436.311 205.04C435.731 205.21 435.311 205.47 435.231 205.94C435.187 206.163 435.187 206.393 435.231 206.616C435.276 206.839 435.364 207.051 435.491 207.24C435.75 207.574 436.096 207.83 436.491 207.98C437.087 208.189 437.726 208.247 438.351 208.15C438.731 208.14 439.001 208.07 439.001 208.12Z" fill="#EB996E"/>
<path d="M440.55 201.6C440.69 201.6 440.93 202.22 440.68 203.01C440.43 203.8 439.87 204.22 439.78 204.11C439.69 204 439.99 203.52 440.19 202.86C440.39 202.2 440.4 201.62 440.55 201.6Z" fill="#EB996E"/>
<path d="M442.511 202.39C442.651 202.39 442.691 202.89 442.341 203.39C441.991 203.89 441.521 203.93 441.471 203.79C441.421 203.65 441.681 203.41 441.931 203.07C442.181 202.73 442.361 202.37 442.511 202.39Z" fill="#EB996E"/>
<path d="M491.761 199.6C493.481 198.88 481.881 210.81 481.881 210.81L460.441 202.81L452.871 207.46L475.921 223.69C478.29 225.36 481.178 226.127 484.064 225.852C486.949 225.577 489.641 224.278 491.651 222.19L505.261 206.46L491.761 199.6Z" fill="#FFBE9D"/>
<path d="M504.331 151.8C501.331 151.22 499.471 150.3 499.391 149.15C499.231 146.77 506.781 144.33 516.261 143.68C525.741 143.03 533.541 144.45 533.711 146.82C533.781 147.97 532.071 149.13 529.211 150.1" fill="#059CE1"/>
<g opacity="0.4">
<path opacity="0.4" d="M506.001 151.6C503.351 151.1 501.621 150.28 501.621 149.26C501.621 146.41 508.171 144.98 516.571 144.41C524.971 143.84 531.901 145.09 532.041 147.2C532.111 148.2 530.591 149.2 528.041 150.1" fill="black"/>
</g>
<path d="M501.67 147.87C501.67 147.87 503.44 137.62 503.62 137.11C503.8 136.6 506.37 132 513.16 130.27L518.84 129.88C518.84 129.88 527.08 131.93 528.68 133.8C530.28 135.67 531.56 145.15 531.56 145.15L515.4 142.77L504.75 146.14L501.67 147.87Z" fill="#059CE1"/>
<path d="M514.941 129L512.501 129.16C511.932 129.914 511.649 130.846 511.701 131.79C511.701 133.56 512.131 145.7 512.131 145.7L519.231 144.9L518.001 129.94L520.451 130.32L520.321 129.47L519.631 128.76L514.941 129Z" fill="#059CE1"/>
<path d="M529.782 184.87L512.382 185.25C512.162 183.42 512.322 171.97 512.322 171.97C512.322 171.97 505.702 171.39 505.172 164.84C504.642 158.29 504.762 145.13 504.762 145.13L504.832 144.55C512.202 140.78 520.972 139.89 527.832 144.49L528.832 145.17L529.782 184.87Z" fill="#FFBE9D"/>
<path d="M512.321 172C515.351 171.784 518.255 170.705 520.691 168.89C520.691 168.89 518.881 173.89 512.301 173.7L512.321 172Z" fill="#EB996E"/>
<path d="M528.531 152C528.641 152 532.941 150.37 533.101 154.86C533.261 159.35 528.721 158.58 528.711 158.46C528.701 158.34 528.531 152 528.531 152Z" fill="#FFBE9D"/>
<path d="M530 156.71C530 156.71 530.08 156.77 530.21 156.82C530.303 156.86 530.404 156.88 530.505 156.88C530.606 156.88 530.707 156.86 530.8 156.82C531.083 156.625 531.31 156.359 531.456 156.048C531.602 155.736 531.662 155.392 531.63 155.05C531.629 154.665 531.54 154.285 531.37 153.94C531.323 153.801 531.242 153.676 531.136 153.575C531.03 153.474 530.901 153.4 530.76 153.36C530.67 153.34 530.576 153.353 530.494 153.395C530.412 153.436 530.347 153.505 530.31 153.59C530.25 153.72 530.31 153.81 530.26 153.82C530.21 153.83 530.16 153.75 530.19 153.56C530.215 153.448 530.274 153.346 530.36 153.27C530.481 153.172 530.635 153.126 530.79 153.14C530.976 153.169 531.151 153.247 531.298 153.364C531.445 153.481 531.56 153.635 531.63 153.81C531.843 154.173 531.97 154.58 532 155C532.044 155.403 531.965 155.811 531.772 156.168C531.579 156.525 531.282 156.815 530.92 157C530.801 157.041 530.674 157.054 530.549 157.039C530.425 157.023 530.305 156.979 530.2 156.91C530 156.82 530 156.72 530 156.71Z" fill="#EB996E"/>
<path d="M506.932 153.22C506.959 153.466 507.076 153.692 507.261 153.857C507.445 154.021 507.684 154.111 507.932 154.11C508.173 154.11 508.404 154.014 508.575 153.843C508.746 153.673 508.842 153.441 508.842 153.2C508.814 152.954 508.697 152.727 508.513 152.563C508.328 152.398 508.089 152.308 507.842 152.31C507.6 152.31 507.369 152.406 507.198 152.576C507.028 152.747 506.932 152.978 506.932 153.22Z" fill="#263238"/>
<path d="M506.631 152.3C506.751 152.41 507.431 151.84 508.441 151.77C509.451 151.7 510.221 152.16 510.321 152.03C510.421 151.9 510.231 151.76 509.901 151.55C509.442 151.28 508.912 151.154 508.381 151.19C507.856 151.224 507.355 151.423 506.951 151.76C506.661 152 506.571 152.25 506.631 152.3Z" fill="#263238"/>
<path d="M516.861 152.85C516.868 152.974 516.899 153.096 516.953 153.208C517.007 153.321 517.082 153.421 517.175 153.504C517.268 153.587 517.377 153.65 517.495 153.691C517.612 153.731 517.737 153.748 517.861 153.74C517.98 153.74 518.098 153.716 518.208 153.67C518.318 153.624 518.418 153.557 518.501 153.473C518.585 153.388 518.651 153.288 518.696 153.177C518.74 153.067 518.763 152.949 518.761 152.83C518.755 152.705 518.724 152.583 518.67 152.471C518.616 152.359 518.541 152.258 518.448 152.176C518.355 152.093 518.246 152.029 518.128 151.989C518.01 151.948 517.886 151.932 517.761 151.94C517.642 151.94 517.525 151.963 517.415 152.009C517.305 152.055 517.205 152.122 517.121 152.207C517.038 152.291 516.972 152.392 516.927 152.502C516.882 152.613 516.86 152.731 516.861 152.85Z" fill="#263238"/>
<path d="M516.551 151.81C516.671 151.93 517.341 151.36 518.351 151.29C519.361 151.22 520.131 151.68 520.231 151.55C520.331 151.42 520.151 151.28 519.811 151.06C519.356 150.789 518.828 150.666 518.301 150.71C517.775 150.739 517.273 150.939 516.871 151.28C516.581 151.54 516.491 151.76 516.551 151.81Z" fill="#263238"/>
<path d="M513.4 159.53C512.855 159.407 512.298 159.347 511.74 159.35C511.48 159.35 511.23 159.35 511.18 159.13C511.139 158.867 511.181 158.598 511.3 158.36L511.93 156.36C512.516 154.65 512.97 152.899 513.29 151.12C512.559 152.775 511.963 154.488 511.51 156.24C511.3 156.94 511.1 157.61 510.91 158.24C510.778 158.557 510.757 158.909 510.85 159.24C510.894 159.327 510.957 159.403 511.035 159.462C511.113 159.521 511.204 159.561 511.3 159.58C511.446 159.599 511.594 159.599 511.74 159.58C512.293 159.637 512.851 159.62 513.4 159.53Z" fill="#263238"/>
<path d="M516.41 160C516.24 160 516.32 161.09 515.41 161.93C514.5 162.77 513.41 162.73 513.41 162.93C513.41 163.13 513.68 163.12 514.18 163.1C514.818 163.062 515.422 162.804 515.89 162.37C516.338 161.946 516.607 161.366 516.64 160.75C516.62 160.28 516.48 160 516.41 160Z" fill="#263238"/>
<path d="M516 147.88C516.12 148.15 517.11 147.95 518.3 148.02C519.49 148.09 520.47 148.34 520.61 148.08C520.75 147.82 520.49 147.71 520.09 147.47C519.557 147.174 518.96 147.009 518.35 146.99C517.739 146.959 517.129 147.072 516.57 147.32C516.17 147.53 516 147.76 516 147.88Z" fill="#263238"/>
<path d="M506.801 149.36C507.001 149.57 507.671 149.29 508.511 149.22C509.351 149.15 510.061 149.27 510.211 149.02C510.361 148.77 510.141 148.68 509.821 148.48C509.389 148.249 508.898 148.151 508.41 148.199C507.922 148.248 507.46 148.439 507.081 148.75C506.801 149 506.721 149.25 506.801 149.36Z" fill="#263238"/>
<path d="M529 147.75C528.95 149.58 529.13 151.41 529.08 153.24C529.021 153.931 528.845 154.607 528.56 155.24C528.466 155.606 528.258 155.934 527.968 156.176C527.677 156.419 527.318 156.564 526.94 156.591C526.563 156.619 526.186 156.528 525.863 156.33C525.54 156.132 525.287 155.838 525.14 155.49C524.784 154.767 524.593 153.975 524.58 153.17C524.574 152.364 524.439 151.564 524.18 150.8C523.754 150.008 523.244 149.264 522.66 148.58C522.373 148.232 522.171 147.823 522.068 147.384C521.966 146.945 521.967 146.488 522.07 146.05C524.491 145.976 526.886 146.56 529 147.74" fill="#263238"/>
<path d="M504.76 148.56L504.65 144.89L515.15 140.97L528.8 143.97L529.06 147.91C521.173 145.026 512.483 145.259 504.76 148.56Z" fill="#455A64"/>
<path d="M505.271 144.07L504.831 144.55L501.141 147.24C505.973 145.621 510.988 144.613 516.071 144.24C521.652 144.112 527.23 144.636 532.691 145.8L527.411 143.09C526.554 142.289 525.545 141.669 524.444 141.265C523.343 140.862 522.172 140.683 521.001 140.74L511.361 141.2C510.207 141.254 509.075 141.536 508.03 142.029C506.985 142.521 506.047 143.215 505.271 144.07Z" fill="#059CE1"/>
<path d="M512 140.87C512.177 139.166 512.224 137.451 512.14 135.74C512.182 134.026 512.095 132.311 511.88 130.61C511.691 132.313 511.644 134.029 511.74 135.74C511.692 137.454 511.779 139.169 512 140.87Z" fill="#263238"/>
<path d="M520.441 130.32C519.849 130.102 519.23 129.967 518.601 129.92C518.406 129.935 518.224 130.022 518.091 130.165C517.958 130.307 517.883 130.495 517.881 130.69L517.941 131.77C518.011 132.54 518.071 133.36 518.141 134.21C518.281 135.95 518.441 137.52 518.571 138.65C518.6 139.269 518.7 139.884 518.871 140.48C518.943 139.865 518.943 139.244 518.871 138.63C518.811 137.49 518.701 135.92 518.551 134.19C518.471 133.33 518.401 132.51 518.331 131.74C518.331 131.38 518.251 131.03 518.221 130.69C518.22 130.571 518.262 130.456 518.339 130.366C518.416 130.276 518.523 130.217 518.641 130.2C519.237 130.288 519.839 130.329 520.441 130.32Z" fill="#263238"/>
<path d="M500.891 147.21C500.891 147.21 501.331 146.99 502.141 146.64C502.541 146.46 503.031 146.26 503.591 145.95C504.241 145.614 504.795 145.119 505.201 144.51C505.671 143.81 505.701 142.88 506.201 142.18C506.701 141.48 507.741 141.37 508.761 141.27C510.821 141.04 513.091 140.87 515.481 140.77C517.871 140.67 520.161 140.65 522.231 140.67C523.181 140.59 524.13 140.837 524.921 141.37C525.24 141.676 525.532 142.011 525.791 142.37L526.201 142.86L526.411 143.09C526.497 143.168 526.595 143.232 526.701 143.28C528.181 143.87 529.391 144.28 530.221 144.55C530.641 144.724 531.072 144.871 531.511 144.99C531.414 144.919 531.31 144.859 531.201 144.81C530.991 144.71 530.681 144.57 530.271 144.4C529.471 144.05 528.271 143.63 526.831 143.02C526.756 142.985 526.685 142.942 526.621 142.89L526.431 142.66L526.041 142.17C525.768 141.813 525.467 141.478 525.141 141.17C524.3 140.565 523.273 140.275 522.241 140.35C520.161 140.35 517.871 140.35 515.471 140.42C513.071 140.49 510.781 140.7 508.711 140.95C508.198 140.99 507.69 141.07 507.191 141.19C506.711 141.312 506.29 141.599 506.001 142C505.421 142.82 505.421 143.75 505.001 144.37C504.633 144.951 504.124 145.43 503.521 145.76C502.991 146.08 502.521 146.31 502.111 146.51C501.701 146.71 501.421 146.88 501.221 147C501.101 147.054 500.99 147.124 500.891 147.21Z" fill="#263238"/>
<path d="M502.37 147.68C502.467 147.639 502.558 147.585 502.64 147.52C502.81 147.4 503.07 147.24 503.41 147.05C504.399 146.558 505.434 146.166 506.5 145.88C510.036 144.951 513.685 144.527 517.34 144.62C519.49 144.62 521.53 144.62 523.34 144.7C525.15 144.78 526.85 145.07 528.23 145.3C528.85 145.405 529.464 145.542 530.07 145.71C530.528 145.793 530.962 145.978 531.34 146.25C531.49 146.37 531.61 146.522 531.692 146.695C531.773 146.869 531.814 147.058 531.81 147.25C531.866 147.153 531.887 147.04 531.87 146.93C531.835 146.612 531.685 146.317 531.45 146.1C531.07 145.784 530.622 145.561 530.14 145.45C529.529 145.26 528.908 145.103 528.28 144.98C526.657 144.663 525.018 144.432 523.37 144.29C521.5 144.15 519.44 144.19 517.3 144.18C513.61 144.081 509.927 144.55 506.38 145.57C505.299 145.876 504.261 146.316 503.29 146.88C503.028 147.034 502.78 147.211 502.55 147.41C502.43 147.59 502.36 147.67 502.37 147.68Z" fill="#263238"/>
<path d="M513.551 129.4C513.884 129.425 514.218 129.425 514.551 129.4L516.971 129.31C517.911 129.31 518.781 129.16 519.381 129.22C519.544 129.226 519.703 129.268 519.848 129.342C519.993 129.416 520.12 129.521 520.221 129.65C520.221 129.65 520.221 129.55 520.081 129.42C519.89 129.245 519.648 129.136 519.391 129.11C518.582 129.047 517.77 129.047 516.961 129.11L514.541 129.25C514.206 129.262 513.874 129.313 513.551 129.4Z" fill="#FAFAFA"/>
<path d="M513.131 141.27C513.3 141.287 513.471 141.287 513.641 141.27H515.021C516.191 141.27 517.801 141.27 519.581 141.27L522.091 141.33C522.761 141.326 523.43 141.38 524.091 141.49C524.539 141.583 524.941 141.826 525.231 142.18C525.328 142.313 525.408 142.457 525.471 142.61C525.452 142.439 525.386 142.276 525.281 142.14C524.997 141.756 524.586 141.487 524.121 141.38C523.462 141.252 522.792 141.185 522.121 141.18C521.351 141.18 520.501 141.12 519.611 141.11C517.821 141.11 516.211 141.11 515.041 141.16L513.661 141.23C513.483 141.227 513.306 141.241 513.131 141.27Z" fill="#FAFAFA"/>
<path d="M518.402 139.49C518.415 139.37 518.415 139.249 518.402 139.13C518.402 138.8 518.312 138.48 518.262 138.13C518.152 137.3 518.012 136.13 517.882 134.88C517.752 133.63 517.682 132.46 517.632 131.63C517.632 131.29 517.612 130.956 517.572 130.63C517.589 130.51 517.589 130.389 517.572 130.27C517.557 130.389 517.557 130.51 517.572 130.63C517.572 130.86 517.572 131.2 517.572 131.63C517.572 132.47 517.652 133.63 517.772 134.9C517.892 136.17 518.062 137.32 518.202 138.14C518.272 138.56 518.342 138.89 518.392 139.14C518.378 139.256 518.381 139.374 518.402 139.49Z" fill="#FAFAFA"/>
<path d="M526.721 143.47C526.822 143.528 526.929 143.575 527.041 143.61L527.921 143.94L530.841 144.94C531.379 145.111 531.907 145.315 532.421 145.55C532.832 145.739 533.161 146.069 533.351 146.48C533.474 146.759 533.505 147.071 533.441 147.37C533.371 147.57 533.291 147.67 533.311 147.68C533.395 147.599 533.46 147.499 533.501 147.39C533.614 147.083 533.614 146.746 533.501 146.44C533.3 145.996 532.945 145.64 532.501 145.44C531.985 145.187 531.45 144.976 530.901 144.81L527.961 143.81L527.071 143.53C526.957 143.495 526.839 143.475 526.721 143.47Z" fill="#FAFAFA"/>
<path d="M452.81 322.18L453.72 338.42C453.72 338.42 437.52 344.79 437.4 347.8L468.94 347.18L468.56 321.83L452.81 322.18Z" fill="#059CE1"/>
<g opacity="0.4">
<path opacity="0.4" d="M452.81 322.18L453.72 338.42C453.72 338.42 437.52 344.79 437.4 347.8L468.94 347.18L468.56 321.83L452.81 322.18Z" fill="black"/>
</g>
<path d="M463.44 336.86C463.746 336.944 464.009 337.14 464.179 337.408C464.349 337.676 464.414 337.997 464.36 338.31C464.286 338.618 464.096 338.885 463.83 339.057C463.563 339.228 463.241 339.29 462.93 339.23C462.6 339.147 462.313 338.942 462.128 338.656C461.942 338.37 461.872 338.025 461.93 337.69C462.042 337.378 462.269 337.121 462.565 336.972C462.861 336.823 463.203 336.793 463.52 336.89" fill="#E0E0E0"/>
<path d="M468.941 347.18L468.801 344.63L438.611 346.18C438.611 346.18 437.221 346.82 437.401 347.8L468.941 347.18Z" fill="#E0E0E0"/>
<path d="M453.21 338.27C453.21 338.42 453.98 338.47 454.75 338.95C455.52 339.43 455.94 340.07 456.08 340.01C456.22 339.95 455.97 339.06 455.03 338.5C454.09 337.94 453.17 338.13 453.21 338.27Z" fill="#263238"/>
<path d="M449.92 339.7C449.92 339.85 450.56 340.1 451.1 340.7C451.64 341.3 451.8 342.03 451.95 342.02C452.1 342.01 452.19 341.13 451.51 340.35C450.83 339.57 449.92 339.55 449.92 339.7Z" fill="#263238"/>
<path d="M448.121 343.7C448.261 343.7 448.461 342.95 448.051 342.12C447.641 341.29 446.911 340.96 446.851 341.12C446.791 341.28 447.241 341.69 447.571 342.38C447.901 343.07 448.001 343.68 448.121 343.7Z" fill="#263238"/>
<path d="M453.41 334.54C453.48 334.68 454.18 334.46 455.05 334.54C455.92 334.62 456.61 334.84 456.68 334.71C456.75 334.58 456.1 334.04 455.07 334C454.04 333.96 453.33 334.42 453.41 334.54Z" fill="#263238"/>
<g opacity="0.3">
<path opacity="0.3" d="M453 325.4L453.15 328.29L468.65 327.84L468.62 325.23L453 325.4Z" fill="black"/>
</g>
<path d="M453.291 331.27C453.809 331.406 454.353 331.406 454.871 331.27C455.436 331.151 455.986 330.97 456.511 330.73C456.82 330.58 457.121 330.413 457.411 330.23C457.583 330.123 457.741 329.995 457.881 329.85C457.976 329.737 458.032 329.596 458.041 329.448C458.05 329.3 458.012 329.154 457.931 329.03C457.852 328.924 457.75 328.838 457.632 328.778C457.514 328.719 457.383 328.689 457.251 328.69C457.051 328.686 456.851 328.716 456.661 328.78C456.316 328.864 455.981 328.985 455.661 329.14C455.132 329.396 454.646 329.734 454.221 330.14C453.511 330.83 453.271 331.41 453.321 331.44C453.371 331.47 453.741 331 454.471 330.44C454.9 330.107 455.371 329.832 455.871 329.62C456.163 329.496 456.463 329.396 456.771 329.32C457.101 329.22 457.381 329.22 457.471 329.32C457.561 329.42 457.471 329.4 457.471 329.5C457.37 329.607 457.256 329.701 457.131 329.78C456.864 329.959 456.587 330.123 456.301 330.27C455.818 330.523 455.312 330.73 454.791 330.89C454.281 330.975 453.78 331.102 453.291 331.27Z" fill="#263238"/>
<path d="M453.491 331.48C453.551 331.48 453.841 330.95 453.881 329.95C453.892 329.363 453.808 328.779 453.631 328.22C453.526 327.873 453.385 327.538 453.211 327.22C453.124 327.016 452.987 326.839 452.811 326.704C452.636 326.569 452.429 326.482 452.211 326.45C452.071 326.456 451.936 326.501 451.821 326.581C451.706 326.66 451.615 326.771 451.561 326.9C451.486 327.086 451.436 327.281 451.411 327.48C451.36 327.831 451.36 328.188 451.411 328.54C451.512 329.13 451.756 329.686 452.121 330.16C452.751 330.97 453.401 331.16 453.411 331.09C453.421 331.02 452.921 330.72 452.411 329.95C452.129 329.501 451.948 328.996 451.881 328.47C451.836 328.168 451.836 327.861 451.881 327.56C451.881 327.22 452.041 326.95 452.171 326.98C452.301 327.01 452.601 327.22 452.731 327.49C452.897 327.758 453.035 328.043 453.141 328.34C453.329 328.844 453.444 329.373 453.481 329.91C453.561 330.88 453.411 331.46 453.491 331.48Z" fill="#263238"/>
<path d="M538 253.21C538 253.21 534.55 270.89 528.83 271.14C521.83 271.44 470.98 272.14 470.98 272.14L474 328.75L451.82 328.22L443 272.43C442.015 267.425 442.852 262.232 445.36 257.79L445.54 257.48C447.435 254.362 450.1 251.784 453.278 249.993C456.457 248.202 460.042 247.257 463.69 247.25L505.92 246.61L538 253.21Z" fill="#263238"/>
<path d="M461.441 322.18L462.341 338.42C462.341 338.42 446.141 344.79 446.021 347.8L477.561 347.18L477.181 321.83L461.441 322.18Z" fill="#059CE1"/>
<path d="M472.061 336.86C472.367 336.944 472.63 337.14 472.8 337.408C472.97 337.676 473.035 337.997 472.981 338.31C472.909 338.619 472.72 338.888 472.453 339.06C472.186 339.232 471.862 339.293 471.551 339.23C471.221 339.147 470.934 338.942 470.749 338.656C470.564 338.37 470.493 338.025 470.551 337.69C470.663 337.378 470.89 337.121 471.186 336.972C471.482 336.823 471.824 336.793 472.141 336.89" fill="#E0E0E0"/>
<path d="M477.56 347.18L477.42 344.63L447.23 346.18C447.23 346.18 445.84 346.82 446.02 347.8L477.56 347.18Z" fill="#E0E0E0"/>
<path d="M461.831 338.27C461.831 338.42 462.611 338.47 463.371 338.95C464.131 339.43 464.561 340.07 464.701 340.01C464.841 339.95 464.591 339.06 463.651 338.5C462.711 337.94 461.791 338.13 461.831 338.27Z" fill="#263238"/>
<path d="M458.551 339.7C458.551 339.85 459.191 340.1 459.721 340.7C460.251 341.3 460.421 342.03 460.571 342.02C460.721 342.01 460.811 341.13 460.131 340.35C459.451 339.57 458.551 339.55 458.551 339.7Z" fill="#263238"/>
<path d="M456.74 343.7C456.89 343.7 457.08 342.95 456.67 342.12C456.26 341.29 455.53 340.96 455.47 341.12C455.41 341.28 455.86 341.69 456.19 342.38C456.52 343.07 456.59 343.68 456.74 343.7Z" fill="#263238"/>
<path d="M462 334.54C462.07 334.68 462.77 334.46 463.64 334.54C464.51 334.62 465.2 334.84 465.27 334.71C465.34 334.58 464.69 334.04 463.66 334C462.63 333.96 462 334.42 462 334.54Z" fill="#263238"/>
<g opacity="0.3">
<path opacity="0.3" d="M461.621 325.4L461.781 328.29L477.271 327.84L477.241 325.23L461.621 325.4Z" fill="black"/>
</g>
<path d="M461.91 331.27C462.428 331.406 462.972 331.406 463.49 331.27C464.055 331.151 464.605 330.97 465.13 330.73C465.44 330.582 465.741 330.415 466.03 330.23C466.202 330.123 466.36 329.995 466.5 329.85C466.595 329.737 466.651 329.596 466.66 329.448C466.669 329.3 466.631 329.154 466.55 329.03C466.472 328.924 466.369 328.838 466.251 328.778C466.133 328.719 466.002 328.689 465.87 328.69C465.67 328.686 465.47 328.716 465.28 328.78C464.935 328.864 464.6 328.985 464.28 329.14C463.753 329.394 463.27 329.731 462.85 330.14C462.13 330.83 461.85 331.41 461.94 331.44C462.03 331.47 462.36 331 463.09 330.44C463.52 330.107 463.99 329.832 464.49 329.62C464.782 329.496 465.083 329.396 465.39 329.32C465.72 329.22 466 329.22 466.09 329.32C466.18 329.42 466.09 329.4 466.09 329.5C465.989 329.607 465.875 329.701 465.75 329.78C465.483 329.959 465.206 330.123 464.92 330.27C464.437 330.523 463.932 330.73 463.41 330.89C462.901 330.975 462.399 331.102 461.91 331.27Z" fill="#263238"/>
<path d="M462.11 331.48C462.17 331.48 462.46 330.95 462.5 329.95C462.516 329.363 462.432 328.778 462.25 328.22C462.145 327.873 462.004 327.538 461.83 327.22C461.743 327.016 461.606 326.839 461.431 326.704C461.255 326.569 461.049 326.482 460.83 326.45C460.69 326.456 460.555 326.501 460.44 326.581C460.325 326.66 460.235 326.771 460.18 326.9C460.106 327.086 460.055 327.281 460.03 327.48C459.98 327.831 459.98 328.188 460.03 328.54C460.131 329.13 460.375 329.686 460.74 330.16C461.37 330.97 462.02 331.16 462.03 331.09C462.04 331.02 461.54 330.72 461.03 329.95C460.748 329.501 460.567 328.996 460.5 328.47C460.455 328.168 460.455 327.861 460.5 327.56C460.55 327.22 460.67 326.95 460.79 326.98C460.91 327.01 461.22 327.22 461.35 327.49C461.517 327.758 461.654 328.043 461.76 328.34C461.949 328.844 462.063 329.373 462.1 329.91C462.18 330.88 462 331.46 462.11 331.48Z" fill="#263238"/>
<path d="M543.56 253.21C543.56 253.21 540.12 270.89 534.39 271.14C527.39 271.44 476.54 272.14 476.54 272.14L479.63 328.75L457.45 328.22L448.58 272.43C447.595 267.425 448.432 262.232 450.94 257.79L451.12 257.48C453.016 254.361 455.683 251.782 458.863 249.991C462.043 248.199 465.63 247.255 469.28 247.25L511.5 246.61L543.56 253.21Z" fill="#263238"/>
<path d="M500.301 182.23L507.001 226.71L502.471 246.71L543.611 258.82C547.331 253.5 547.471 236.61 547.341 224.66C547.111 203.6 548.041 202.58 547.131 195.19C546.221 187.8 544.671 183.06 540.771 180.73L529.551 175C529.551 175 523.231 179 519.381 178.81C519.381 178.81 514.811 179 512.281 176.57C512.281 176.54 503.001 179.34 500.301 182.23Z" fill="#059CE1"/>
<path d="M500.3 182.23L486.59 201.13L505.26 212.09L503.83 205.22L500.3 182.23Z" fill="#059CE1"/>
<path d="M467.631 247.52C467.552 247.537 467.47 247.537 467.391 247.52L466.701 247.57C466.322 247.595 465.944 247.642 465.571 247.71C465.062 247.771 464.558 247.865 464.061 247.99C460.876 248.772 457.935 250.332 455.501 252.53C453.827 254.038 452.388 255.787 451.231 257.72C449.906 259.934 449.083 262.413 448.821 264.98C448.582 267.832 448.689 270.703 449.141 273.53C449.551 276.53 450.141 279.53 450.451 282.72C451.161 289.02 452.111 295 453.001 300.43C453.891 305.86 454.751 310.73 455.441 314.85C456.131 318.97 456.671 322.28 457.001 324.59C457.151 325.71 457.271 326.59 457.361 327.25C457.361 327.53 457.421 327.75 457.441 327.94C457.45 328.02 457.45 328.1 457.441 328.18C457.409 328.107 457.389 328.029 457.381 327.95C457.381 327.76 457.301 327.54 457.241 327.26L456.791 324.62C456.371 322.28 455.791 318.98 455.071 314.91C454.351 310.84 453.481 305.91 452.521 300.51C451.561 295.11 450.631 289.1 449.921 282.77C449.601 279.62 449.031 276.58 448.631 273.6C448.173 270.733 448.076 267.821 448.341 264.93C448.616 262.298 449.474 259.76 450.851 257.5C452.041 255.536 453.525 253.765 455.251 252.25C457.744 250.043 460.759 248.508 464.011 247.79C465.2 247.536 466.417 247.445 467.631 247.52Z" fill="#455A64"/>
<path d="M483.39 233.79C483.39 233.79 499.26 238.91 511.6 243.38C513.695 244.14 515.946 244.37 518.152 244.049C520.357 243.728 522.449 242.866 524.24 241.54C526.533 239.849 528.231 237.476 529.09 234.76L537.54 208.14L523.43 203.2L514 227.13L478.9 222.52" fill="#FFBE9D"/>
<path d="M462.401 228.3L462.271 227.04C462.358 226.109 462.744 225.232 463.371 224.54C463.711 224.162 464.118 223.85 464.572 223.62L468.721 221.45C469.338 221.136 470.038 221.024 470.721 221.13L479.232 222.58L489.001 223.86L487.001 235L482.482 233.5C482.482 233.5 479.211 235.31 477.191 234.88C477.191 234.88 475.321 236.13 474.551 235.21C474.551 235.21 472.881 236.65 472.251 236.56C471.621 236.47 470.381 235.74 470.431 235.31L470.482 234.73C470.161 234.905 469.799 234.99 469.434 234.974C469.069 234.958 468.715 234.842 468.411 234.64C467.979 234.304 467.65 233.854 467.461 233.34C466.682 233.258 465.946 232.941 465.352 232.43C464.958 231.853 464.696 231.198 464.581 230.51C464.581 230.51 462.711 229.6 462.401 228.3Z" fill="#FFBE9D"/>
<path d="M468.682 224.27C468.742 224.27 468.842 224.73 468.632 225.43C468.322 226.316 467.808 227.118 467.132 227.77C466.382 228.54 465.682 229.17 465.252 229.69C464.822 230.21 464.591 230.57 464.521 230.54C464.451 230.51 464.522 230.07 464.962 229.47C465.491 228.728 466.091 228.038 466.752 227.41C467.376 226.795 467.896 226.082 468.292 225.3C468.562 224.7 468.592 224.27 468.682 224.27Z" fill="#EB996E"/>
<path d="M470.302 228.72C469.825 230.508 468.792 232.098 467.352 233.26C467.72 232.431 468.19 231.652 468.752 230.94C469.562 229.7 470.162 228.65 470.302 228.72Z" fill="#EB996E"/>
<path d="M472.471 231.66C472.591 231.74 472.241 232.46 471.681 233.28C471.121 234.1 470.581 234.7 470.461 234.61C470.341 234.52 470.701 233.8 471.251 232.99C471.801 232.18 472.351 231.58 472.471 231.66Z" fill="#EB996E"/>
<path d="M472.07 230.49C472.07 230.55 471.85 230.56 471.59 230.4C471.421 230.287 471.277 230.139 471.169 229.967C471.06 229.795 470.989 229.601 470.96 229.4C470.925 229.203 470.934 229 470.986 228.807C471.038 228.613 471.132 228.433 471.26 228.28C471.45 228.05 471.64 227.99 471.69 228.04C471.74 228.09 471.36 228.65 471.47 229.32C471.58 229.99 472.13 230.36 472.07 230.49Z" fill="#EB996E"/>
<path d="M474.44 233.48C474.44 233.54 474.26 233.55 474.04 233.48C473.9 233.396 473.778 233.285 473.681 233.152C473.585 233.02 473.517 232.869 473.48 232.71C473.418 232.535 473.411 232.346 473.459 232.168C473.507 231.989 473.609 231.829 473.75 231.71C474.01 231.53 474.21 231.65 474.19 231.71C474.08 231.814 474.002 231.948 473.967 232.095C473.931 232.242 473.939 232.397 473.99 232.54C474.1 233.05 474.5 233.35 474.44 233.48Z" fill="#EB996E"/>
<path d="M470.692 227.31C470.692 227.37 470.472 227.42 470.172 227.31C469.972 227.213 469.8 227.065 469.674 226.883C469.548 226.7 469.471 226.487 469.451 226.266C469.43 226.045 469.468 225.822 469.559 225.619C469.65 225.417 469.793 225.241 469.972 225.11C470.242 224.92 470.462 224.94 470.472 225C470.482 225.06 469.912 225.51 469.972 226.22C470.032 226.93 470.732 227.19 470.692 227.31Z" fill="#EB996E"/>
<path d="M537.61 184.34C534.39 182.94 530.42 184.34 528.09 186.78C525.76 189.22 524.69 192.41 523.69 195.51C522.69 198.61 520.31 204.58 519.34 207.57L537.63 215.4C539.19 211.18 540.643 206.923 541.99 202.63C543.13 199.03 544.19 195.15 542.87 191.57" fill="#059CE1"/>
<path d="M542.87 191.57C542.952 191.708 543.016 191.856 543.06 192.01C543.219 192.441 543.336 192.886 543.41 193.34C543.696 195.039 543.652 196.777 543.28 198.46C542.72 201.022 541.982 203.541 541.07 206C540.07 208.86 539.07 212.05 537.88 215.48L537.79 215.73L537.53 215.62L524.65 210.12L519.23 207.8L519.01 207.7L519.08 207.5C520.56 203.14 522.21 199.15 523.45 195.5C523.993 193.731 524.661 192.003 525.45 190.33C526.156 188.836 527.125 187.481 528.31 186.33C530.121 184.622 532.52 183.676 535.01 183.69C535.69 183.711 536.364 183.832 537.01 184.05C537.227 184.126 537.438 184.219 537.64 184.33C536.797 184.05 535.918 183.895 535.03 183.87C532.618 183.922 530.314 184.883 528.58 186.56C527.45 187.686 526.529 189.003 525.86 190.45C525.101 192.116 524.46 193.834 523.94 195.59C522.73 199.3 521.08 203.31 519.63 207.64L519.48 207.34L524.91 209.66L537.77 215.18L537.42 215.32C538.6 211.89 539.7 208.72 540.69 205.87C541.621 203.433 542.393 200.937 543 198.4C543.386 196.763 543.481 195.07 543.28 193.4C543.07 192.19 542.83 191.58 542.87 191.57Z" fill="#263238"/>
<path d="M519.43 236.26C519.37 236.26 519.23 235.26 518.61 233.43C518.229 232.351 517.722 231.32 517.1 230.36C516.307 229.097 515.215 228.05 513.92 227.31H513.97L494.16 224.73L482.16 223.12L476.95 222.4L472.42 221.67L470.42 221.36C469.859 221.26 469.282 221.363 468.79 221.65L466.22 222.89L464.59 223.66C464.404 223.762 464.206 223.84 464 223.89C464.171 223.766 464.352 223.655 464.54 223.56L466.13 222.71L468.66 221.39C469.204 221.064 469.843 220.937 470.47 221.03L472.47 221.31L477 221.97L482.22 222.65L494.22 224.22L514 226.93H514.06C515.414 227.713 516.547 228.828 517.35 230.17C517.965 231.161 518.452 232.226 518.8 233.34C519.02 234.038 519.194 234.749 519.32 235.47C519.386 235.728 519.422 235.993 519.43 236.26Z" fill="#EB996E"/>
<path d="M507.001 226C506.864 225.53 506.773 225.048 506.731 224.56C506.561 223.56 506.351 222.22 506.101 220.63C505.531 217.22 504.781 212.68 503.951 207.63C503.121 202.58 502.361 198.07 501.801 194.63C501.551 193.04 501.351 191.71 501.191 190.69C501.087 190.21 501.034 189.721 501.031 189.23C501.195 189.691 501.316 190.166 501.391 190.65L502.161 194.57C502.791 197.88 503.621 202.45 504.471 207.57C505.321 212.69 506.021 217.24 506.471 220.57C506.701 222.24 506.851 223.57 506.941 224.57C507.008 225.043 507.028 225.522 507.001 226Z" fill="#263238"/>
<path d="M696.5 444.9C696.5 445.05 551.76 445.16 373.26 445.16C194.76 445.16 50 445.05 50 444.9C50 444.75 194.71 444.64 373.28 444.64C551.85 444.64 696.5 444.76 696.5 444.9Z" fill="#263238"/>
<path d="M69.3803 411.56C67.7703 413.73 64.7803 412.91 63.4303 411.56C62.0803 410.21 61.5303 408.2 61.0403 406.32C59.9303 402.03 58.8203 397.53 59.8503 393.22C60.0999 391.909 60.7093 390.694 61.6103 389.71C62.0644 389.226 62.6379 388.869 63.2732 388.676C63.9085 388.483 64.5834 388.46 65.2303 388.61C66.7403 389.05 67.6403 390.56 68.2903 391.99C70.1728 396.208 71.0983 400.791 71.0003 405.41C71.0794 407.576 70.512 409.717 69.3703 411.56" fill="#059CE1"/>
<g opacity="0.2">
<path opacity="0.2" d="M69.3803 411.56C67.7703 413.73 64.7803 412.91 63.4303 411.56C62.0803 410.21 61.5303 408.2 61.0403 406.32C59.9303 402.03 58.8203 397.53 59.8503 393.22C60.0999 391.909 60.7093 390.694 61.6103 389.71C62.0644 389.226 62.6379 388.869 63.2732 388.676C63.9085 388.483 64.5834 388.46 65.2303 388.61C66.7403 389.05 67.6403 390.56 68.2903 391.99C70.1728 396.208 71.0983 400.791 71.0003 405.41C71.0794 407.576 70.512 409.717 69.3703 411.56" fill="black"/>
</g>
<path d="M63.2798 422.59C60.7216 421.308 57.8204 420.877 54.9998 421.36C53.4616 421.46 51.9993 422.064 50.8398 423.08C49.7798 424.19 49.5398 426.18 50.6898 427.19C51.4388 427.717 52.346 427.971 53.2598 427.91C55.4598 427.91 57.9098 427.62 59.6298 428.99C60.6298 429.78 61.2498 431.05 62.4398 431.45C63.0348 431.607 63.6647 431.564 64.2334 431.33C64.8021 431.095 65.2785 430.681 65.5898 430.15C66.1921 429.062 66.3532 427.784 66.0398 426.58C65.917 425.748 65.6041 424.955 65.1254 424.263C64.6468 423.571 64.0153 422.999 63.2798 422.59Z" fill="#059CE1"/>
<path d="M73.5406 414.84C72.7714 413.782 72.2735 412.551 72.0904 411.256C71.9074 409.96 72.0448 408.64 72.4906 407.41C73.3915 404.955 74.9521 402.796 77.0006 401.17C79.3558 399.192 82.0728 397.691 85.0006 396.75C86.1336 396.328 87.345 396.157 88.5506 396.25C89.1515 396.3 89.731 396.497 90.2383 396.823C90.7456 397.149 91.1653 397.594 91.4606 398.12C92.2506 399.71 91.4006 401.6 90.4606 403.12C88.8761 405.827 87.0805 408.405 85.0906 410.83C83.4906 412.78 81.6706 414.7 79.2906 415.54C76.9106 416.38 74.4706 416.2 73.2906 414.54" fill="#059CE1"/>
<path d="M68.5903 444.9C68.5156 444.572 68.4787 444.236 68.4803 443.9C68.4203 443.16 68.3603 442.24 68.2803 441.15C68.1811 439.808 68.0109 438.473 67.7703 437.15C67.4557 435.524 67.0109 433.925 66.4403 432.37C65.8836 430.81 65.1056 429.338 64.1303 428C63.3368 426.915 62.3121 426.02 61.1303 425.38C60.3293 424.952 59.4651 424.655 58.5703 424.5C58.2314 424.483 57.8957 424.426 57.5703 424.33C57.9028 424.296 58.2379 424.296 58.5703 424.33C59.4994 424.424 60.404 424.684 61.2403 425.1C62.4864 425.733 63.5709 426.643 64.4103 427.76C65.4241 429.116 66.2297 430.616 66.8003 432.21C67.3899 433.764 67.8416 435.367 68.1503 437C68.3741 438.35 68.5176 439.713 68.5803 441.08C68.5803 442.25 68.6403 443.19 68.6403 443.84C68.6591 444.194 68.6424 444.549 68.5903 444.9Z" fill="#263238"/>
<path d="M68.4591 442.78C68.4373 442.624 68.4373 442.466 68.4591 442.31C68.4591 441.96 68.4591 441.52 68.4591 440.98C68.4591 439.83 68.5391 438.15 68.5291 436.09C68.5291 431.95 68.3391 426.24 67.8191 419.95C67.2991 413.66 66.5291 407.95 65.8191 403.95C65.6491 402.95 65.4791 402.01 65.3091 401.21C65.1391 400.41 65.0191 399.71 64.8891 399.14C64.7591 398.57 64.6791 398.14 64.6091 397.84C64.57 397.689 64.5466 397.535 64.5391 397.38C64.5391 397.38 64.6091 397.53 64.6891 397.82C64.7691 398.11 64.8991 398.58 65.0391 399.11C65.1791 399.64 65.3591 400.36 65.5391 401.16C65.7191 401.96 65.9191 402.88 66.1091 403.9C67.1078 409.191 67.8221 414.532 68.2491 419.9C68.7691 426.2 68.9291 431.9 68.8491 436.08C68.8491 438.15 68.7291 439.83 68.6391 440.98C68.6391 441.52 68.5591 441.98 68.5291 442.31C68.5162 442.468 68.4928 442.625 68.4591 442.78Z" fill="#263238"/>
<path d="M68.7305 431.75C68.6888 431.284 68.6888 430.816 68.7305 430.35C68.8105 429.46 68.9605 428.17 69.2605 426.6C70.0539 422.492 71.3433 418.497 73.1005 414.7C74.7926 410.863 77.164 407.364 80.1005 404.37C80.6138 403.86 81.1582 403.383 81.7305 402.94C81.9805 402.74 82.2005 402.54 82.4205 402.38L83.0505 401.97C83.4285 401.703 83.8264 401.466 84.2405 401.26C82.8633 402.285 81.5508 403.393 80.3105 404.58C77.4575 407.597 75.1378 411.076 73.4505 414.87C72.4975 416.942 71.6791 419.073 71.0005 421.25C70.4243 423.024 69.9403 424.826 69.5505 426.65C69.2205 428.21 69.0205 429.49 68.8905 430.37C68.8683 430.833 68.8149 431.294 68.7305 431.75Z" fill="#263238"/>
</svg>
