<svg width="708" height="472" viewBox="0 0 708 472" fill="none" xmlns="http://www.w3.org/2000/svg">
<path d="M151.286 128.384L68.582 128.252C68.582 128.252 72.6979 122.909 77.2385 122.248C77.2385 122.248 86.0932 96.0142 100.839 95.816C114.555 95.6649 120.03 111.987 120.03 111.987C120.03 111.987 126.402 104.68 132.472 108.041C138.542 111.401 141.969 120.983 141.969 120.983C141.969 120.983 148.813 124.665 151.286 128.384Z" fill="white"/>
<path d="M253.938 146.858L358.523 147.019C358.523 147.019 358.523 140.335 344.127 139.004C344.127 139.004 331.015 109.74 310.927 113.677C298.419 116.103 292 133.265 292 133.265C292 133.265 282.56 119.737 275.008 122.333C267.456 124.929 262.934 139.325 262.934 139.325C262.934 139.325 255.165 143.082 253.938 146.858Z" fill="white"/>
<path d="M198.742 72.2254L269.854 72.3387C269.854 72.3387 263.151 66.08 260.168 66.08C257.185 66.08 248.51 45.0854 237.39 45.9633C226.269 46.8412 220.341 62.4456 220.341 62.4456C220.341 62.4456 206.823 58.1881 198.742 72.2254Z" fill="white"/>
<path d="M362.609 94.1356L423.422 94.23C423.422 94.23 420.41 90.2935 417.078 89.7932C417.078 89.7932 410.621 70.4789 399.765 70.3279C389.674 70.1863 385.605 82.1751 385.605 82.1751C385.605 82.1751 380.932 76.7849 376.467 79.2393C372.002 81.6937 369.463 88.7359 369.463 88.7359C369.463 88.7359 364.441 91.4357 362.609 94.1356Z" fill="white"/>
<path d="M666.872 170.128C666.916 197.128 658.366 223.443 642.46 245.261C629.603 262.948 612.422 277.04 592.562 286.19C572.702 295.34 550.826 299.241 529.028 297.521C507.229 295.801 486.236 288.517 468.057 276.365C449.878 264.214 435.12 247.601 425.196 228.117C415.271 208.632 410.512 186.927 411.373 165.078C412.233 143.228 418.686 121.965 430.112 103.321C441.539 84.6778 457.558 69.2779 476.636 58.5942C495.715 47.9106 517.216 42.3006 539.083 42.3008C542.585 42.3008 546.059 42.4329 549.467 42.7161C569.264 44.3001 588.415 50.5046 605.38 60.8315C618.474 68.801 630.035 79.051 639.515 91.0961C657.27 113.596 666.915 141.428 666.891 170.09L666.872 170.128Z" fill="#F7F7F7"/>
<path d="M566.666 230.449C565.061 234.745 567.742 234.924 567.921 236.718C568.101 238.511 567.921 241.9 562.729 247.102C557.537 252.303 548.947 251.217 547.163 253.37C545.379 255.522 542.33 264.641 538.034 267.69C533.739 270.739 533.022 268.936 526.933 270.192C520.844 271.447 516.19 279.32 514.406 283.077C512.622 286.835 514.765 293.103 510.47 293.282C506.174 293.461 504.201 284.154 500.265 279.122C496.329 274.091 495.073 269.635 493.817 263.735C492.562 257.835 494.535 245.478 493.817 240.645C493.1 235.811 480.214 227.221 475.561 221.312C470.907 215.402 464.45 203.602 464.827 199.666C465.373 195.846 467.276 192.35 470.189 189.82C472.341 188.205 471.445 187.318 471.803 185.883C472.162 184.448 473.956 184.09 474.314 182.305C474.673 180.521 473.238 175.14 471.482 174.244C469.727 173.347 468.443 176.396 467.367 175.858C466.29 175.32 463.071 171.563 461.816 171.204C460.56 170.845 460.929 173.536 459.135 170.128C457.341 166.72 456.416 158.139 455.01 156.704C453.603 155.269 452.499 159.215 449.1 156.704C445.702 154.193 444.267 149.369 442.841 148.652C441.416 147.934 439.434 148.831 437.961 145.971C436.488 143.111 439.254 137.909 437.961 138.419C436.668 138.929 433.892 143.073 433.175 139.136C432.457 135.2 436.753 121.956 436.007 114.8C435.261 107.644 437.801 100.121 442.813 94.032C442.813 94.032 443.521 90.0955 444.239 87.5939C444.956 85.0923 460.353 75.0576 462.175 72.1973C462.92 70.9984 463.175 69.1293 463.44 67.1091C485.358 50.9561 511.883 42.2636 539.111 42.3102C542.613 42.3102 546.087 42.4424 549.495 42.7256C549.608 42.8861 549.731 43.0466 549.853 43.1976C551.401 45.1706 553.072 46.4261 557.613 48.097C562.154 49.7678 563.211 51.873 562.267 53.7043C561.323 55.5357 559.756 55.8472 557.972 55.9699C556.188 56.0926 554.507 55.1298 552.6 56.3286C550.693 57.5275 548.824 63.9656 546.276 64.3243C543.727 64.683 539.356 58.5942 538.393 56.7723C537.43 54.9504 540.545 51.165 539.082 49.3808C537.619 47.5966 535.061 47.9459 531.002 47.5872C526.942 47.2285 517.512 48.7861 517.871 50.3342C518.229 51.8824 531.71 50.0888 532.031 53.1662C532.352 56.2437 522.128 61.5206 520.344 61.0392C518.56 60.5578 516.19 57.5842 513.538 57.1877C510.885 56.7912 508.818 58.9813 507.118 59.2173C505.419 59.4533 503.522 57.4331 501.011 57.9051C498.5 58.3771 497.905 60.5294 496.593 61.3696C495.281 62.2098 492.184 62.2003 491.826 64.1072C491.467 66.0141 495.762 67.0997 496.838 68.2891C497.914 69.4786 495.517 73.5378 496.593 74.3685C497.669 75.1992 504.353 69.3653 506.033 67.9304C507.713 66.4955 509.129 60.2934 512.716 60.3784C516.304 60.4634 517.484 66.5805 518.682 67.1752C519.881 67.7699 522.458 65.7403 526.442 66.5805C530.426 67.4206 533.116 76.0205 533.834 78.6354C534.551 81.2502 536.222 83.884 534.778 84.9602C533.333 86.0363 526.905 84.2427 526.074 82.5718C525.243 80.901 530.369 78.3899 530.01 77.7952C529.652 77.2005 526.669 76.3603 525.111 77.2949C523.553 78.2294 522.846 80.1835 521.175 80.665C519.504 81.1464 515.095 76.1243 513.896 77.5592C512.697 78.9941 515.095 83.5253 516.285 84.6014C517.474 85.6776 521.892 86.2629 522.251 87.4334C522.609 88.604 519.268 91.2094 515.209 91.0112C511.149 90.813 507.817 87.6694 506.259 88.9816C504.702 90.2938 505.542 93.7582 504.466 94.9477C503.39 96.1371 497.546 95.3064 494.686 98.4122C491.826 101.518 490.513 106.162 487.644 108.796C484.774 111.43 483.471 108.088 479.648 111.789C475.825 115.489 475.24 123.721 475.117 126.581C474.994 129.441 475.117 131.707 474.173 131.301C473.229 130.895 471.907 128.469 471.549 126.893C471.19 125.316 472.379 122.711 472.379 121.757C472.379 120.804 466.895 115.914 463.666 115.432C460.438 114.951 457.587 117.585 455.17 119.492C452.753 121.399 448.487 121.049 446.938 122.597C445.39 124.146 444.191 137.871 445.381 141.09C446.57 144.309 448.128 144.309 451.989 142.639C455.85 140.968 453.66 137.749 455.925 138.466C456.944 138.849 457.821 139.535 458.438 140.431C459.056 141.327 459.385 142.391 459.38 143.479C459.38 145.367 454.849 149.917 455.444 151.229C456.039 152.541 459.985 150.993 461.891 151.588C463.798 152.182 464.723 153.381 464.157 158.271C463.591 163.161 463.921 166.984 466.781 168.599C469.642 170.213 471.256 166.267 472.511 166.805C473.767 167.343 475.551 170.203 477.345 170.024C479.138 169.845 478.241 168.24 481.64 167.192C485.038 166.144 483.783 165.398 484.472 163.256C485.161 161.113 487.304 159.319 489.664 160.424C492.024 161.528 490.381 163.114 490.608 164.898C490.834 166.682 494.903 166.871 498.16 167.947C501.417 169.023 503.173 167.947 509.62 170.09C516.068 172.233 516.417 178.68 519.107 179.757C521.798 180.833 530.737 179.039 537.185 183.693C543.632 188.347 541.839 196.909 545.058 199.448C548.277 201.988 560.275 205.358 564.882 206.245C569.489 207.133 570.244 203.923 574.01 204.82C577.777 205.717 579.91 206.783 581.166 211.975C582.27 216.582 568.29 226.154 566.666 230.449Z" fill="#DBDBDB"/>
<path d="M470.489 138.929C470.611 139.939 473.594 140.364 477.172 142.384C480.75 144.404 482.062 150.379 483.969 150.266C485.876 150.153 485.281 147.434 485.999 146.679C486.716 145.924 487.887 144.413 485.999 142.903C484.111 141.393 482.223 138.013 478.749 137.532C475.275 137.05 474.661 135.644 473.085 135.747C472.695 135.756 472.311 135.849 471.96 136.021C471.61 136.192 471.3 136.437 471.053 136.74C470.807 137.042 470.628 137.394 470.531 137.772C470.433 138.15 470.419 138.545 470.489 138.929Z" fill="#DBDBDB"/>
<path d="M490.181 148.954C489.642 150.417 490.181 151.455 493.957 152.409C497.733 153.362 501.357 151.465 500.168 150.681C498.979 149.898 497.185 150.266 497.893 148.954C498.601 147.642 498.365 145.725 495.269 146.122C492.172 146.518 490.653 147.642 490.181 148.954Z" fill="#DBDBDB"/>
<path d="M503.538 149.36C502.245 149.549 501.518 151.814 502.83 153.249C504.143 154.684 504.143 154.438 505.662 153.249C507.182 152.06 509.599 151.455 509.004 150.266C508.409 149.077 504.86 149.152 503.538 149.36Z" fill="#DBDBDB"/>
<path d="M513.923 154.231C514.508 152.447 517.5 154.231 518.813 156.119C520.125 158.007 519.53 160.773 518.813 162.802C518.095 164.832 517.623 167.22 515.981 166.267C514.338 165.313 516.103 162.444 515.858 160.773C515.612 159.102 513.451 155.694 513.923 154.231Z" fill="#DBDBDB"/>
<path d="M565.352 54.6862C564.729 56.1872 567.618 56.7158 569.289 57.6693C570.96 58.6227 572.272 59.2174 573.225 57.6693C574.179 56.1211 572.866 54.3275 571.554 53.9688C570.242 53.6101 565.947 53.2514 565.352 54.6862Z" fill="#DBDBDB"/>
<path d="M587.905 68.6476C589.009 69.8087 590.888 69.5916 592.2 71.2719C593.512 72.9522 593.04 75.8031 594.711 76.6433C596.382 77.4834 597.543 76.6433 597.694 75.4444C597.845 74.2455 595.306 71.2719 595.542 70.7244C595.778 70.1769 599.006 71.5551 599.724 73.3487C600.441 75.1423 599.006 77.6439 600.668 78.0687C602.329 78.4935 601.98 76.3978 602.697 75.9258C603.415 75.4538 604.963 75.6804 604.84 74.2549C604.717 72.8295 602.81 69.7143 601.262 68.6476C599.714 67.5809 598.515 66.382 595.891 65.8156C593.267 65.2492 590.765 65.7023 589.443 66.7596C588.122 67.8169 587.225 67.9679 587.905 68.6476Z" fill="#DBDBDB"/>
<path d="M639.532 91.1341C639.461 91.6175 639.224 92.0611 638.862 92.3896C636.351 94.1832 633.368 87.9717 629.913 86.7823C626.458 85.5928 624.929 81.1843 624.183 82.1283C623.437 83.0723 623.702 84.3939 622.625 85.9043C621.549 87.4147 620.001 87.1032 619.293 90.0863C618.585 93.0693 622.625 98.5823 621.681 100.348C620.737 102.113 619.529 101.537 617.613 101.424C615.697 101.31 616.065 102.972 613.563 102.254C611.062 101.537 613.204 98.4784 609.268 94.7024C605.331 90.9264 604.01 90.2845 604.859 88.6136C605.709 86.9427 604.491 84.5639 606.285 84.3184C608.078 84.073 609.504 86.7067 610.693 87.4242C611.883 88.1416 613.44 85.9893 613.525 84.0824C613.61 82.1755 609.343 79.5512 607.795 78.0691C606.247 76.5871 606.124 71.1968 606.719 70.1207C607.314 69.0445 609.107 69.4032 609.551 66.7789C609.825 65.2402 607.389 62.6631 605.322 60.7939C618.449 68.7787 630.036 79.0551 639.532 91.1341Z" fill="#DBDBDB"/>
<path d="M657.356 198.117C657.714 194.294 655.807 194.058 657.714 187.016C659.621 179.974 655.685 172.459 654.25 170.911C652.815 169.363 649.719 169.835 647.208 171.383C644.697 172.931 646.5 174.13 644.819 174.725C643.139 175.32 641.487 174.366 639.929 174.489C638.372 174.612 636.946 178.539 633.605 178.425C630.263 178.312 628.12 173.535 625.618 170.128C623.117 166.72 617.972 164.586 616.311 160.404C614.649 156.223 617.859 149.784 617.141 144.895C616.424 140.005 613.205 141.071 612.61 138.287C612.015 135.502 613.082 136.852 613.922 134.227C614.762 131.603 612.978 130.168 614.64 125.637C616.301 121.106 619.294 118.831 618.576 116.811C617.859 114.79 615.593 111.439 615.47 109.06C615.348 106.681 617.736 106.785 622.267 103.396C626.798 100.007 627.997 100.291 631.462 101.508C633.945 102.431 636.499 103.151 639.099 103.661C641.128 104.019 643.875 109.268 644.706 109.032C645.537 108.796 645.65 107.238 646.018 104.973C646.246 103.987 646.766 103.092 647.51 102.405C660.977 124.005 667.691 149.133 666.791 174.571C665.892 200.009 657.419 224.6 642.459 245.195C654.637 226.683 657.025 201.931 657.356 198.117Z" fill="#DBDBDB"/>
<path d="M462.333 97.5812L462.125 96.9015L463.069 96.6372L463.267 97.3169L462.333 97.5812Z" fill="#C7C7C7"/>
<path d="M631.45 125.751L630.081 124.438L630.572 123.929L631.941 125.25L631.45 125.751ZM628.703 123.145L627.296 121.88L627.768 121.352C628.24 121.767 628.712 122.192 629.184 122.626L628.703 123.145ZM625.871 120.634L624.427 119.407L624.88 118.859L626.334 120.096L625.871 120.634ZM622.954 118.208C622.463 117.812 622.01 117.415 621.472 117.028L621.906 116.471L623.398 117.651L622.954 118.208ZM619.962 115.876L618.442 114.753L618.857 114.177L620.386 115.31L619.962 115.876ZM616.903 113.648L615.336 112.563L615.742 111.978L617.309 113.063L616.903 113.648ZM613.769 111.515C613.231 111.166 612.702 110.816 612.174 110.486L612.551 109.882L614.156 110.92L613.769 111.515ZM610.559 109.476L608.936 108.532L609.304 107.918L610.937 108.862L610.559 109.476ZM607.303 107.588L605.651 106.644L605.99 106.021L607.652 106.965L607.303 107.588ZM603.97 105.728L602.29 104.85L602.611 104.227C603.177 104.511 603.744 104.803 604.301 105.105L603.97 105.728ZM600.591 104.001C600.024 103.718 599.458 103.444 598.891 103.18L599.194 102.538L600.912 103.368L600.591 104.001ZM597.173 102.377L595.436 101.594L595.729 100.952L597.466 101.726L597.173 102.377ZM593.699 100.848C593.114 100.593 592.529 100.357 591.944 100.121L592.217 99.4602C592.803 99.6993 593.388 99.9447 593.973 100.196L593.699 100.848ZM590.188 99.413L588.423 98.7427L588.677 98.0819L590.452 98.7616L590.188 99.413ZM586.657 98.0914L584.864 97.4589L585.1 96.7886L586.893 97.4211L586.657 98.0914ZM583.079 96.8547L581.276 96.2789L581.494 95.5992L583.297 96.1845L583.079 96.8547ZM465.079 96.8547L464.891 96.175L466.731 95.6747L466.911 96.3638L465.079 96.8547ZM468.752 95.9107L468.582 95.2216L470.47 94.7685L470.64 95.4576L468.752 95.9107ZM579.502 95.7786L577.68 95.2405L577.878 94.5608L579.7 95.0989L579.502 95.7786ZM472.452 95.0234L472.292 94.3342L474.18 93.9094L474.331 94.5986L472.452 95.0234ZM575.839 94.6552C575.225 94.4947 574.621 94.3248 574.008 94.1738L574.187 93.4846L576.018 93.9755L575.839 94.6552ZM476.124 94.1171L475.983 93.428L477.871 93.0315L478.012 93.7301L476.124 94.1171ZM572.176 93.7018L570.288 93.2581L570.449 92.569C571.062 92.72 571.685 92.8616 572.337 93.0221L572.176 93.7018ZM479.853 93.3525L479.711 92.6539L481.599 92.2952L481.732 92.9938L479.853 93.3525ZM568.495 92.8427L566.607 92.4368L566.758 91.7477L568.646 92.1536L568.495 92.8427ZM483.535 92.6445L483.412 91.9459L485.3 91.6155L485.413 92.3141L483.535 92.6445ZM564.719 92.0592L562.831 91.7005L562.963 91.0019C563.586 91.1246 564.209 91.2379 564.851 91.3701L564.719 92.0592ZM487.311 91.9931L487.188 91.2946L489.076 90.983L489.18 91.6816L487.311 91.9931ZM491.087 91.3984L490.983 90.6904L492.871 90.4166L492.965 91.1152L491.087 91.3984ZM561.056 91.3984L559.168 91.0869L559.281 90.3883L561.169 90.6998L561.056 91.3984ZM494.853 90.8886L494.749 90.1901L496.637 89.9352L496.722 90.6432L494.853 90.8886ZM557.308 90.7848L555.42 90.511L555.524 89.8125L557.412 90.0862L557.308 90.7848ZM498.62 90.4072L498.525 89.6803L500.413 89.4632L500.498 90.1618L498.62 90.4072ZM553.551 90.2562L551.663 90.0202L551.748 89.3216L553.636 89.5576L553.551 90.2562ZM502.396 89.973L502.32 89.2744L504.208 89.0762L504.274 89.7842L502.396 89.973ZM549.785 89.803L547.897 89.6048L547.963 88.8968L549.851 89.095L549.785 89.803ZM506.172 89.6048L506.115 88.8968L508.003 88.7363L508.06 89.4349L506.172 89.6048ZM545.999 89.4254L544.111 89.265L544.168 88.557L546.056 88.7174L545.999 89.4254ZM509.957 89.2838L509.91 88.5853L511.798 88.4437L511.845 89.1517L509.957 89.2838ZM542.214 89.1234L540.326 89.0006V88.2926L542.214 88.4154V89.1234ZM513.752 89.029L513.705 88.321L515.593 88.2171V88.9251L513.752 89.029ZM538.428 88.8874L536.54 88.8024V88.0944L538.428 88.1888V88.8874ZM517.547 88.8307V88.1227L519.435 88.0472V88.7552L517.547 88.8307ZM534.633 88.7363C534.004 88.7363 533.375 88.7174 532.745 88.6797V87.9717C533.378 87.9717 534.02 87.9717 534.633 88.0283V88.7363ZM521.342 88.7363V88.0283H523.23V88.7363H521.342ZM530.838 88.6797H528.95V87.9717H530.838V88.6797ZM525.174 88.6797V87.8867H527.062V88.5947L525.174 88.6797Z" fill="#C7C7C7"/>
<path d="M633.519 127.837L632.867 127.166L633.367 126.666L634.028 127.346L633.519 127.837Z" fill="#C7C7C7"/>
<path d="M491.021 174.555C490.954 174.216 490.925 173.871 490.936 173.526H491.644C491.632 173.814 491.655 174.102 491.71 174.385L491.021 174.555Z" fill="#C7C7C7"/>
<path d="M491.712 171.657H491.004C491.004 171.147 491.07 170.581 491.108 169.958V169.759L491.816 169.807V169.995C491.825 170.581 491.74 171.147 491.712 171.657ZM491.948 167.881L491.24 167.834C491.24 167.239 491.315 166.616 491.353 165.946H492.052C492.023 166.654 491.986 167.286 491.948 167.881ZM492.146 164.105H491.438C491.438 163.501 491.438 162.868 491.495 162.217H492.203C492.193 162.849 492.165 163.482 492.146 164.095V164.105ZM492.241 160.329H491.533C491.533 159.847 491.533 159.385 491.533 158.866V158.441H492.241V158.866C492.25 159.319 492.25 159.81 492.241 160.291V160.329ZM491.523 156.553C491.523 155.939 491.523 155.307 491.466 154.665H492.174C492.174 155.316 492.174 155.949 492.231 156.553H491.523ZM491.382 152.777C491.382 152.163 491.306 151.531 491.259 150.889L491.967 150.832C492.014 151.474 492.052 152.107 492.09 152.72L491.382 152.777ZM491.098 149.001C491.042 148.387 490.976 147.764 490.91 147.113L491.608 147.028C491.684 147.67 491.75 148.293 491.806 148.916L491.098 149.001ZM490.674 145.225C490.598 144.611 490.504 143.988 490.409 143.337L491.108 143.233C491.202 143.866 491.297 144.489 491.382 145.121L490.674 145.225ZM490.098 141.449C489.984 140.835 489.862 140.222 489.739 139.561L490.438 139.419C490.56 140.042 490.683 140.665 490.787 141.307L490.098 141.449ZM489.342 137.758C489.21 137.144 489.059 136.531 488.908 135.917L489.597 135.747C489.748 136.37 489.899 136.984 490.041 137.635L489.342 137.758ZM488.398 134.095C488.229 133.5 488.049 132.896 487.87 132.292L488.54 132.084C488.729 132.689 488.908 133.302 489.078 133.906L488.398 134.095ZM487.294 130.499C487.093 129.907 486.885 129.312 486.671 128.714L487.341 128.469C487.558 129.073 487.766 129.668 487.964 130.272L487.294 130.499ZM486.001 126.959C485.774 126.373 485.538 125.788 485.283 125.212L485.935 124.938C486.19 125.524 486.426 126.109 486.662 126.694L486.001 126.959ZM484.519 123.494C484.254 122.928 483.99 122.361 483.707 121.795L484.339 121.474C484.622 122.05 484.896 122.626 485.161 123.192L484.519 123.494ZM482.838 120.124C482.546 119.576 482.244 119.019 481.894 118.472L482.508 118.123C482.829 118.68 483.14 119.227 483.452 119.784L482.838 120.124ZM480.95 116.858C480.62 116.329 480.29 115.8 479.94 115.272L480.535 114.885C480.884 115.413 481.224 115.951 481.554 116.49L480.95 116.858ZM478.874 113.714C478.515 113.204 478.147 112.704 477.769 112.194L478.335 111.77C478.722 112.279 479.091 112.789 479.459 113.308L478.874 113.714ZM476.617 110.712C476.221 110.221 475.824 109.768 475.418 109.259L475.957 108.805C476.372 109.287 476.768 109.749 477.165 110.269L476.617 110.712ZM474.172 107.88C473.748 107.418 473.323 106.936 472.879 106.502L473.389 106.011C473.836 106.471 474.27 106.933 474.692 107.399L474.172 107.88ZM471.548 105.171C471.104 104.737 470.651 104.312 470.179 103.887L470.661 103.359L472.048 104.661L471.548 105.171ZM468.773 102.632C468.301 102.226 467.829 101.829 467.328 101.423L467.782 100.876C468.272 101.282 468.726 101.688 469.235 102.094L468.773 102.632ZM465.856 100.262C465.355 99.8846 464.855 99.507 464.336 99.1388L464.751 98.563L466.281 99.6958L465.856 100.262Z" fill="#C7C7C7"/>
<path d="M462.815 98.0627L462.031 97.534L462.428 96.9487L463.211 97.4774L462.815 98.0627Z" fill="#C7C7C7"/>
<path d="M493.023 170.373L492.504 169.892C492.504 169.892 492.721 169.646 493.155 169.203L493.665 169.693C493.24 170.128 493.033 170.364 493.023 170.373Z" fill="#C7C7C7"/>
<path d="M495.004 168.353L494.504 167.843L495.892 166.522L496.382 167.032L495.004 168.353ZM497.78 165.748L497.308 165.219C497.751 164.813 498.252 164.388 498.742 163.945L499.205 164.483C498.705 164.926 498.223 165.342 497.78 165.748ZM500.612 163.237L500.158 162.699C500.63 162.302 501.102 161.887 501.631 161.471L502.075 162.019L500.612 163.237ZM503.557 160.82L503.113 160.263L504.624 159.074L505.058 159.64C504.576 160.037 504.095 160.48 503.595 160.82H503.557ZM506.568 158.479L506.143 157.913C506.634 157.535 507.153 157.157 507.673 156.77L508.097 157.337C507.607 157.724 507.097 158.101 506.606 158.479H506.568ZM509.636 156.213L509.221 155.638L510.788 154.533L511.194 155.118L509.636 156.213ZM512.761 154.033L512.364 153.447L513.95 152.381L514.337 152.975C513.837 153.325 513.318 153.683 512.799 154.033H512.761ZM515.933 151.928L515.555 151.333L517.169 150.304L517.547 150.908L515.933 151.928ZM519.161 149.898L518.793 149.303L520.436 148.359L520.794 148.963L519.161 149.898ZM522.437 147.953L522.078 147.34L523.749 146.396L524.089 147.009L522.437 147.953ZM525.76 146.065L525.42 145.442L527.1 144.498L527.431 145.121L525.76 146.065ZM529.12 144.272L528.79 143.639L530.499 142.771L530.82 143.403C530.281 143.705 529.715 143.998 529.158 144.291L529.12 144.272ZM532.519 142.554L532.207 141.921L533.935 141.09L534.237 141.732L532.519 142.554ZM535.964 140.921L535.672 140.279L537.409 139.486L537.701 140.137L535.964 140.921ZM539.448 139.372L539.165 138.721L540.92 137.966L541.194 138.627L539.448 139.372ZM542.959 137.9L542.695 137.239L544.47 136.531L544.725 137.192L542.959 137.9ZM546.509 136.512L546.254 135.842L548.048 135.181L548.293 135.842C547.727 136.078 547.132 136.304 546.575 136.531L546.509 136.512ZM550.087 135.2L549.851 134.53L551.663 133.907L551.89 134.577L550.087 135.2ZM553.693 133.982L553.476 133.302L555.297 132.727L555.505 133.397L553.693 133.982ZM557.327 132.84L557.129 132.16L558.96 131.622L559.158 132.302L557.327 132.84ZM560.99 131.783L560.801 131.103L562.689 130.603L562.868 131.292L560.99 131.783ZM564.671 130.839L564.501 130.15L566.389 129.696L566.55 130.386C565.946 130.527 565.323 130.678 564.709 130.839H564.671ZM568.381 129.951L568.221 129.262L570.109 128.847L570.26 129.545L568.381 129.951ZM572.157 129.158L572.016 128.46L573.904 128.092L574.036 128.79C573.388 128.903 572.758 129.026 572.148 129.158H572.157ZM575.933 128.441L575.811 127.742L577.699 127.421L577.812 128.12L575.933 128.441ZM579.709 127.818L579.605 127.119L581.493 126.836L581.597 127.535L579.709 127.818ZM630.959 127.535L629.071 127.289L629.165 126.581L631.053 126.836L630.959 127.535ZM583.391 127.28L583.297 126.572L585.185 126.336L585.269 127.044L583.391 127.28ZM627.089 127.053L625.201 126.846L625.276 126.147L627.164 126.355L627.089 127.053ZM587.167 126.827L587.091 126.119L588.979 125.92L589.045 126.628L587.167 126.827ZM623.294 126.657L621.406 126.487L621.472 125.779L623.36 125.949L623.294 126.657ZM590.99 126.496L590.933 125.788L592.821 125.637V126.336L590.99 126.496ZM619.527 126.374L617.639 126.241L617.686 125.533L619.574 125.666L619.527 126.374ZM594.785 126.204V125.505C595.417 125.505 596.05 125.42 596.673 125.392V126.1L594.785 126.204ZM615.732 126.128L613.844 126.034V125.326L615.732 125.42V126.128ZM598.589 126.005V125.297L600.477 125.231V125.939L598.589 126.005ZM611.928 125.958L610.04 125.902V125.194L611.928 125.25V125.958ZM602.403 125.892V125.184C603.045 125.184 603.677 125.184 604.291 125.184V125.892C603.668 125.826 603.036 125.835 602.403 125.854V125.892ZM608.114 125.892H606.226V125.184H608.114V125.892Z" fill="#C7C7C7"/>
<path d="M633.728 127.94L632.793 127.799L632.897 127.1L633.831 127.242L633.728 127.94Z" fill="#C7C7C7"/>
<path d="M535.249 191.302L534.551 191.179C534.551 191.179 534.607 190.858 534.683 190.235L535.381 190.329C535.315 190.971 535.249 191.302 535.249 191.302Z" fill="#C7C7C7"/>
<path d="M535.599 188.441L534.891 188.375C534.891 187.818 534.985 187.186 535.023 186.487H535.731C535.693 187.233 535.646 187.856 535.599 188.441ZM535.806 184.599H535.098C535.098 183.995 535.098 183.362 535.098 182.711H535.806C535.835 183.344 535.825 183.986 535.806 184.599ZM535.117 180.766C535.117 180.143 535.117 179.511 535.051 178.878H535.759C535.759 179.539 535.816 180.181 535.825 180.766H535.117ZM534.947 176.99C534.947 176.367 534.862 175.735 534.806 175.103L535.504 175.036C535.561 175.697 535.617 176.33 535.655 176.924L534.947 176.99ZM534.607 173.215C534.541 172.591 534.466 171.968 534.371 171.326L535.079 171.223C535.164 171.874 535.24 172.507 535.315 173.111L534.607 173.215ZM534.098 169.438C534.003 168.815 533.89 168.192 533.777 167.55L534.475 167.428C534.588 168.07 534.702 168.702 534.796 169.316L534.098 169.438ZM533.418 165.662C533.295 165.049 533.154 164.426 533.012 163.774L533.701 163.614C533.852 164.246 533.984 164.87 534.107 165.502L533.418 165.662ZM532.568 161.943C532.408 161.339 532.247 160.725 532.077 160.102L532.757 159.914C532.927 160.537 533.097 161.16 533.248 161.802L532.568 161.943ZM531.549 158.271C531.36 157.667 531.171 157.063 530.973 156.458L531.643 156.232C531.841 156.846 532.04 157.459 532.219 158.063L531.549 158.271ZM530.35 154.646C530.142 154.061 529.925 153.457 529.689 152.862L530.35 152.607C530.586 153.211 530.803 153.815 531.02 154.41L530.35 154.646ZM528.991 151.04C528.755 150.464 528.5 149.879 528.245 149.294L528.896 149.001C529.151 149.596 529.406 150.19 529.642 150.776L528.991 151.04ZM527.461 147.557C527.197 146.981 526.914 146.414 526.631 145.839L527.263 145.518C527.556 146.103 527.829 146.679 528.103 147.254L527.461 147.557ZM525.762 144.139C525.466 143.585 525.152 143.029 524.818 142.468L525.432 142.119C525.753 142.686 526.055 143.252 526.376 143.809L525.762 144.139ZM523.874 140.816C523.553 140.269 523.223 139.731 522.883 139.183L523.487 138.815C523.827 139.363 524.157 139.91 524.488 140.458L523.874 140.816ZM521.854 137.588C521.514 137.059 521.155 136.531 520.787 136.002L521.372 135.606C521.737 136.134 522.096 136.663 522.449 137.191L521.854 137.588ZM519.683 134.454C519.315 133.944 518.927 133.434 518.54 132.925L519.107 132.5C519.494 133.01 519.881 133.519 520.259 134.039L519.683 134.454ZM517.36 131.433C516.973 130.942 516.567 130.489 516.152 129.96L516.69 129.507C517.106 129.998 517.521 130.451 517.917 130.989L517.36 131.433ZM514.906 128.526C514.491 128.054 514.056 127.582 513.622 127.11L514.141 126.628C514.585 127.1 515.01 127.572 515.435 128.054L514.906 128.526ZM512.31 125.694C511.876 125.24 511.423 124.75 510.97 124.334L511.47 123.834L512.82 125.193L512.31 125.694ZM509.601 123.013C509.138 122.588 508.657 122.154 508.194 121.729L508.666 121.2L510.082 122.503L509.601 123.013ZM506.769 120.464L505.306 119.237L505.759 118.689L507.231 119.926L506.769 120.464ZM503.823 118.038C503.333 117.651 502.879 117.254 502.323 116.867L502.747 116.31C503.257 116.697 503.767 117.084 504.267 117.481L503.823 118.038ZM500.793 115.734C500.283 115.366 499.764 114.989 499.236 114.63L499.642 114.045L501.265 115.168L500.793 115.734ZM497.659 113.554C497.137 113.195 496.608 112.846 496.073 112.506L496.451 111.911L498.056 112.959L497.659 113.554ZM494.459 111.486L492.826 110.542L493.185 109.938L494.827 110.882L494.459 111.486ZM491.174 109.542L489.512 108.598L489.852 107.984C490.419 108.286 490.976 108.601 491.523 108.928L491.174 109.542ZM487.832 107.71C487.275 107.418 486.709 107.125 486.133 106.842L486.454 106.209C487.03 106.493 487.596 106.785 488.162 107.087L487.832 107.71ZM484.424 105.992L482.697 105.171L482.999 104.529L484.736 105.35L484.424 105.992ZM480.96 104.378L479.213 103.613L479.497 102.962C480.082 103.217 480.677 103.472 481.252 103.736L480.96 104.378ZM477.486 102.896L475.711 102.178L475.975 101.518L477.75 102.245L477.486 102.896ZM473.936 101.489L472.143 100.819L472.388 100.158L474.182 100.829L473.936 101.489ZM470.349 100.177L468.546 99.5636L468.763 98.8934C469.377 99.0916 469.981 99.2993 470.585 99.5164L470.349 100.177ZM466.724 98.9689C466.13 98.7707 465.516 98.5819 464.902 98.3931L465.119 97.7134L466.941 98.2892L466.724 98.9689Z" fill="#C7C7C7"/>
<path d="M463.043 97.8458L462.137 97.5815L462.326 96.9019L463.241 97.1662L463.043 97.8458Z" fill="#C7C7C7"/>
<path d="M632.932 128.129L632.781 127.431L633.725 127.242L633.857 127.941L632.932 128.129Z" fill="#C7C7C7"/>
<path d="M518.038 256.929L517.34 256.815C517.434 256.202 517.538 255.579 517.632 254.927L518.331 255.041C518.256 255.692 518.133 256.315 518.038 256.929ZM518.652 253.238L517.953 253.115C518.067 252.501 518.171 251.878 518.293 251.227L518.982 251.359C518.869 252.048 518.756 252.624 518.652 253.238ZM519.341 249.556L518.643 249.424L519.011 247.536L519.709 247.678L519.341 249.556ZM520.096 245.893L519.407 245.742C519.539 245.129 519.672 244.515 519.813 243.911L520.502 244.071C520.37 244.676 520.228 245.28 520.143 245.893H520.096ZM520.927 242.25L520.238 242.08L520.691 240.258L521.371 240.428C521.22 241.032 521.088 241.664 520.927 242.25ZM521.871 238.615L521.191 238.436L521.673 236.623L522.352 236.812L521.871 238.615ZM522.862 235.009L522.183 234.811C522.352 234.207 522.522 233.612 522.702 233.008L523.381 233.215C523.164 233.81 522.976 234.405 522.824 235.056L522.862 235.009ZM523.919 231.422L523.249 231.214C523.429 230.61 523.617 230.015 523.806 229.421L524.486 229.638C524.25 230.232 524.071 230.827 523.919 231.422ZM525.062 227.863L524.391 227.636C524.59 227.042 524.788 226.447 524.996 225.852L525.666 226.088C525.42 226.674 525.222 227.268 525.024 227.863H525.062ZM526.279 224.323L525.609 224.087L526.261 222.322L526.921 222.567C526.667 223.143 526.449 223.728 526.242 224.323H526.279ZM527.582 220.811L526.921 220.566L527.601 218.81L528.262 219.074L527.582 220.811ZM528.96 217.337L528.309 217.073C528.545 216.488 528.791 215.912 529.036 215.336L529.687 215.61L528.96 217.337ZM530.424 213.901L529.782 213.609C530.027 213.033 530.292 212.466 530.546 211.9L531.188 212.193L530.424 213.901ZM531.972 210.493L531.33 210.191C531.594 209.625 531.868 209.058 532.142 208.492L532.774 208.804C532.463 209.361 532.198 209.927 531.934 210.512L531.972 210.493ZM533.595 207.123L532.963 206.812L533.813 205.131L534.445 205.452L533.595 207.123ZM535.304 203.8L534.681 203.461L535.568 201.809L536.191 202.148C535.861 202.696 535.559 203.243 535.247 203.8H535.304ZM537.098 200.515L536.484 200.166C536.786 199.618 537.098 199.071 537.428 198.533L538.042 198.892L537.098 200.515ZM538.986 197.277L538.372 196.909C538.693 196.371 539.014 195.833 539.316 195.304L539.92 195.673C539.571 196.201 539.25 196.739 538.939 197.296L538.986 197.277ZM540.911 194.087L540.317 193.709C540.647 193.18 540.987 192.652 541.327 192.123L541.922 192.51C541.553 193.029 541.223 193.52 540.911 194.087ZM542.951 190.953L542.356 190.556C542.705 190.027 543.064 189.508 543.413 188.998L543.998 189.395L542.951 190.953ZM545.065 187.866L544.48 187.45L545.575 185.921L546.151 186.336C545.754 186.846 545.395 187.346 545.037 187.856L545.065 187.866ZM547.255 184.835L546.689 184.411C547.066 183.901 547.435 183.401 547.822 182.91L548.379 183.334C547.973 183.835 547.595 184.326 547.227 184.835H547.255ZM549.521 181.862L548.964 181.418L550.134 179.955L550.682 180.399L549.521 181.862ZM551.871 178.945L551.324 178.492C551.72 178.01 552.126 177.548 552.532 177.057L553.07 177.51C552.636 177.982 552.24 178.463 551.843 178.945H551.871ZM554.288 176.113L553.75 175.65C554.165 175.169 554.581 174.706 554.996 174.234L555.525 174.706C555.071 175.15 554.675 175.584 554.26 176.094L554.288 176.113ZM556.78 173.281L556.261 172.809C556.686 172.337 557.111 171.865 557.535 171.431L558.055 171.912L556.78 173.281ZM559.338 170.553L558.829 170.062C559.263 169.609 559.707 169.165 560.141 168.721L560.651 169.222L559.338 170.553ZM561.972 167.9L561.472 167.39C561.925 166.956 562.416 166.512 562.822 166.088L563.313 166.597C562.831 167.088 562.388 167.475 561.944 167.919L561.972 167.9ZM564.663 165.304L564.181 164.785L565.559 163.511L566.041 164.039L564.663 165.304ZM567.428 162.784L566.956 162.255L568.363 161.009L568.835 161.547L567.428 162.784ZM570.26 160.329L569.807 159.791C570.289 159.376 570.751 158.979 571.242 158.583L571.695 159.13L570.26 160.329ZM573.149 157.941L572.705 157.393C573.187 156.997 573.649 156.61 574.169 156.223L574.612 156.78L573.149 157.941ZM576.085 155.628L575.66 155.071L577.152 153.938L577.576 154.505L576.085 155.628ZM579.087 153.391L578.672 152.824L580.191 151.72L580.607 152.296L579.087 153.391ZM582.136 151.229L581.73 150.644C582.249 150.285 582.768 149.926 583.288 149.587L583.684 150.172C583.127 150.531 582.608 150.889 582.098 151.248L582.136 151.229ZM585.242 149.133L584.845 148.539L586.422 147.519L586.809 148.114C586.224 148.463 585.723 148.803 585.204 149.152L585.242 149.133ZM588.385 147.113L588.017 146.509L589.612 145.565L589.981 146.169L588.385 147.113ZM591.585 145.169L591.227 144.555L592.85 143.611L593.2 144.225L591.585 145.169ZM594.833 143.281L594.484 142.667L596.126 141.723L596.466 142.346L594.833 143.281ZM598.118 141.487L597.778 140.864L599.449 139.986L599.77 140.619L598.118 141.487ZM601.441 139.769L601.12 139.136L602.81 138.306L603.121 138.938L601.441 139.769ZM604.801 138.136L604.499 137.494L606.208 136.701L606.501 137.343L604.801 138.136ZM608.209 136.569L607.917 135.927L609.644 135.172L609.927 135.823C609.323 136.097 608.747 136.352 608.172 136.607L608.209 136.569ZM611.645 135.087L611.372 134.435L613.118 133.718L613.382 134.379L611.645 135.087ZM615.119 133.69L614.864 133.029L616.62 132.359L616.866 133.019L615.119 133.69ZM618.622 132.377L618.386 131.707L620.16 131.075L620.396 131.745C619.783 131.981 619.188 132.16 618.584 132.415L618.622 132.377ZM622.096 131.216L621.878 130.546L623.663 129.97L623.88 130.64L622.096 131.216ZM625.673 130.083L625.466 129.413C626.098 129.215 626.702 129.045 627.278 128.875L627.467 129.555L625.673 130.083ZM629.27 129.055L629.091 128.375L630.922 127.903L631.092 128.592L629.27 129.055Z" fill="#C7C7C7"/>
<path d="M517.088 258.704L516.953 259.639L517.654 259.74L517.789 258.806L517.088 258.704Z" fill="#C7C7C7"/>
<path d="M517.747 259.251L517.068 259.071C517.228 258.458 517.389 257.854 517.54 257.25L518.219 257.419C518.078 258.024 517.917 258.656 517.747 259.251ZM518.644 255.569L517.955 255.418C518.087 254.805 518.21 254.191 518.333 253.577L519.022 253.71C518.908 254.333 518.786 254.946 518.644 255.569ZM519.362 251.793L518.654 251.68C518.757 251.066 518.852 250.443 518.937 249.792L519.635 249.886C519.55 250.594 519.456 251.217 519.362 251.84V251.793ZM519.871 248.017L519.163 247.942C519.239 247.319 519.296 246.696 519.343 246.054L520.051 246.11C520.004 246.828 519.937 247.46 519.871 248.083V248.017ZM520.183 244.241H519.484C519.484 243.609 519.541 242.986 519.56 242.353H520.268C520.249 243.02 520.208 243.672 520.145 244.307L520.183 244.241ZM520.306 240.465H519.598V239.993C519.598 239.521 519.598 239.049 519.598 238.587H520.306C520.306 239.059 520.306 239.531 520.306 240.003V240.465ZM519.531 236.689C519.531 236.066 519.465 235.434 519.428 234.801L520.126 234.754C520.17 235.383 520.208 236.013 520.239 236.642L519.531 236.689ZM519.267 232.913C519.211 232.284 519.144 231.655 519.069 231.025L519.777 230.94C519.852 231.573 519.919 232.196 519.975 232.828L519.267 232.913ZM518.833 229.137C518.739 228.514 518.644 227.891 518.54 227.249L519.239 227.136C519.343 227.75 519.437 228.382 519.531 229.024L518.833 229.137ZM518.257 225.616C518.134 225.003 518.012 224.389 517.879 223.775L518.569 223.624C518.701 224.238 518.833 224.861 518.946 225.512L518.257 225.616ZM517.464 221.944L517.011 220.122L517.691 219.943C517.851 220.547 518.002 221.16 518.153 221.774L517.464 221.944ZM516.52 218.31C516.35 217.696 516.171 217.101 515.982 216.497L516.662 216.289C516.851 216.894 517.02 217.498 517.2 218.111L516.52 218.31ZM515.406 214.713C515.217 214.109 515.01 213.514 514.802 212.929L515.472 212.693C515.68 213.287 515.888 213.882 516.086 214.486L515.406 214.713ZM514.16 211.163C513.934 210.569 513.707 209.993 513.471 209.408L514.132 209.143C514.368 209.729 514.594 210.323 514.821 210.918L514.16 211.163ZM512.763 207.671C512.518 207.085 512.263 206.51 512.017 205.943L512.659 205.651C512.914 206.226 513.169 206.802 513.414 207.397L512.763 207.671ZM511.234 204.225C510.969 203.659 510.696 203.092 510.422 202.526L511.064 202.214C511.338 202.781 511.611 203.347 511.876 203.932L511.234 204.225ZM509.582 200.846C509.299 200.279 509.006 199.722 508.713 199.175L509.336 198.844C509.629 199.392 509.922 199.958 510.214 200.525L509.582 200.846ZM507.817 197.523L506.873 195.88L507.477 195.531C507.798 196.066 508.112 196.613 508.421 197.173L507.817 197.523ZM505.929 194.256C505.608 193.709 505.277 193.171 504.985 192.652L505.589 192.274C505.919 192.803 506.249 193.341 506.533 193.898L505.929 194.256ZM503.946 191.056C503.597 190.518 503.257 189.999 502.908 189.48L503.502 189.093L504.541 190.669L503.946 191.056ZM501.794 187.856C501.435 187.327 501.067 186.818 500.718 186.317L501.284 185.902C501.652 186.402 502.011 186.922 502.379 187.45L501.794 187.856ZM499.604 184.788L498.471 183.287L499.037 182.853L500.17 184.373L499.604 184.788ZM497.31 181.796L496.13 180.332L496.677 179.879C497.064 180.342 497.461 180.823 497.867 181.361L497.31 181.796ZM494.922 178.879L493.713 177.472L494.242 177.01C494.629 177.434 495.044 177.954 495.488 178.444L494.922 178.879ZM492.42 176.047C491.599 175.159 491.117 174.697 491.117 174.687L491.608 174.187C491.608 174.187 492.099 174.659 492.939 175.565L492.42 176.047Z" fill="#C7C7C7"/>
<path d="M470.244 83.8746C469.848 79.872 467.082 75.8789 462.229 75.8789C457.377 75.8789 454.621 79.872 454.224 83.8746C453.611 90.0578 457.783 95.6651 462.229 100.772C466.685 95.6651 470.858 90.0578 470.244 83.8746ZM462.229 88.3208C461.361 88.3208 460.512 88.0631 459.79 87.5804C459.068 87.0976 458.505 86.4115 458.173 85.6089C457.841 84.8062 457.755 83.9231 457.925 83.0714C458.095 82.2196 458.514 81.4375 459.129 80.824C459.744 80.2105 460.527 79.7931 461.379 79.6248C462.231 79.4565 463.114 79.5448 463.916 79.8785C464.718 80.2122 465.403 80.7763 465.884 81.4994C466.365 82.2225 466.621 83.0721 466.619 83.9407C466.617 85.1032 466.153 86.2173 465.33 87.0385C464.507 87.8597 463.392 88.3208 462.229 88.3208Z" fill="#059CE1"/>
<path d="M541.424 177.472C541.027 173.47 538.261 169.477 533.409 169.477C528.557 169.477 525.8 173.47 525.404 177.472C524.79 183.655 528.963 189.263 533.409 194.37C537.865 189.225 542.037 183.618 541.424 177.472ZM533.409 181.918C532.543 181.918 531.697 181.662 530.976 181.182C530.256 180.703 529.693 180.02 529.359 179.222C529.026 178.423 528.935 177.543 529.1 176.693C529.265 175.843 529.677 175.061 530.286 174.445C530.894 173.829 531.671 173.406 532.519 173.231C533.366 173.055 534.247 173.134 535.05 173.457C535.853 173.781 536.542 174.335 537.032 175.049C537.521 175.764 537.788 176.607 537.799 177.472C537.801 178.05 537.689 178.623 537.47 179.158C537.251 179.693 536.928 180.179 536.52 180.588C536.112 180.998 535.627 181.323 535.093 181.545C534.559 181.767 533.987 181.881 533.409 181.881V181.918Z" fill="#059CE1"/>
<path d="M498.017 160.046C497.621 156.043 494.855 152.05 490.003 152.05C485.151 152.05 482.394 156.043 481.998 160.046C481.384 166.229 485.557 171.837 490.003 176.944C494.459 171.808 498.631 166.229 498.017 160.046ZM490.003 164.492C489.135 164.492 488.286 164.235 487.564 163.752C486.842 163.27 486.28 162.585 485.947 161.782C485.615 160.98 485.528 160.098 485.698 159.246C485.867 158.395 486.285 157.613 486.899 156.999C487.513 156.385 488.295 155.967 489.147 155.797C489.998 155.628 490.881 155.715 491.683 156.047C492.485 156.379 493.17 156.942 493.653 157.664C494.135 158.386 494.392 159.234 494.392 160.103C494.392 161.267 493.93 162.383 493.107 163.207C492.284 164.03 491.167 164.492 490.003 164.492Z" fill="#059CE1"/>
<path d="M641.787 115.574C641.39 111.562 638.625 107.579 633.772 107.579C628.92 107.579 626.164 111.562 625.767 115.574C625.154 121.757 629.326 127.365 633.772 132.472C638.228 127.365 642.401 121.776 641.787 115.574ZM633.772 120.021C632.904 120.021 632.056 119.763 631.334 119.281C630.612 118.798 630.049 118.113 629.717 117.311C629.385 116.509 629.298 115.626 629.467 114.775C629.636 113.923 630.055 113.141 630.668 112.527C631.282 111.913 632.065 111.495 632.916 111.326C633.768 111.156 634.65 111.243 635.452 111.575C636.254 111.908 636.94 112.47 637.422 113.192C637.905 113.914 638.162 114.763 638.162 115.631C638.162 116.795 637.699 117.912 636.876 118.735C636.053 119.558 634.937 120.021 633.772 120.021Z" fill="#059CE1"/>
<path d="M525.279 249.263C524.883 245.251 522.117 241.268 517.265 241.268C512.412 241.268 509.656 245.251 509.259 249.263C508.646 255.446 512.818 261.044 517.265 266.161C521.72 261.044 525.893 255.446 525.279 249.263ZM517.312 253.71C516.444 253.708 515.596 253.449 514.876 252.965C514.155 252.482 513.594 251.795 513.263 250.993C512.932 250.191 512.847 249.309 513.017 248.458C513.188 247.607 513.606 246.826 514.221 246.213C514.835 245.6 515.617 245.183 516.468 245.014C517.32 244.845 518.202 244.933 519.003 245.265C519.805 245.598 520.49 246.161 520.972 246.882C521.454 247.604 521.711 248.452 521.711 249.32C521.711 249.897 521.597 250.469 521.376 251.002C521.155 251.535 520.83 252.019 520.422 252.427C520.013 252.835 519.528 253.158 518.994 253.378C518.461 253.598 517.889 253.711 517.312 253.71Z" fill="#059CE1"/>
<path d="M366.632 425.706C537.574 425.706 676.151 418.145 676.151 408.818C676.151 399.491 537.574 391.93 366.632 391.93C195.69 391.93 57.1133 399.491 57.1133 408.818C57.1133 418.145 195.69 425.706 366.632 425.706Z" fill="#FAFAFA"/>
<path d="M27.7539 377.232L108.806 377.005L189.848 376.92L351.952 376.769L514.056 376.92L595.098 377.005L676.15 377.232L595.098 377.468L514.056 377.553L351.952 377.704L189.848 377.543L108.806 377.468L27.7539 377.232Z" fill="#263238"/>
<path d="M138.94 377.222C138.94 377.222 137.203 369.104 133.729 367.849C130.255 366.593 128.141 370.246 128.141 370.246C128.141 370.246 127.319 362.487 122.392 360.164C117.464 357.842 113.773 362.6 113.773 362.6C113.773 362.6 109.997 352.763 103.238 352.763C96.479 352.763 93.0806 367.159 93.0806 367.159C93.0806 367.159 89.0969 362.864 85.0094 365.271C80.9219 367.679 80.9219 377.204 80.9219 377.204L138.94 377.222Z" fill="#455A64"/>
<path d="M267.72 377.222H206.652C206.652 377.222 208.663 368.613 212.713 368C216.763 367.386 218.651 371.389 218.651 371.389C218.651 371.389 218.462 359.381 226.023 357.332C233.585 355.284 239.928 365.894 239.928 365.894C239.928 365.894 244.648 359.843 251.134 360.23C257.619 360.618 259.233 370.614 259.233 370.614C259.233 370.614 265.124 367.141 267.72 377.222Z" fill="#37474F"/>
<path d="M89.2562 377.223H57.1602C57.1602 377.223 57.2357 372.436 60.3886 371.162C61.2463 370.79 62.2017 370.707 63.1108 370.925C64.02 371.143 64.8337 371.65 65.4296 372.37C65.4296 372.37 66.7229 363.572 72.604 363.572C78.4851 363.572 81.3171 371.124 81.3171 371.124C81.8129 370.395 82.512 369.827 83.3276 369.491C84.1432 369.156 85.0394 369.067 85.905 369.236C89.124 369.727 89.2562 377.223 89.2562 377.223Z" fill="#37474F"/>
<path d="M348.617 179.945L356.518 355.34H500.318L485.431 284.144L437.514 269.04C436.271 268.602 435.14 267.897 434.2 266.973C433.261 266.05 432.536 264.931 432.076 263.697L403.426 190.121L348.617 179.945Z" fill="#059CE1"/>
<path d="M364.457 198.41L368.044 261.686L419.936 266.548L397.573 200.722L364.457 198.41Z" fill="#455A64"/>
<g opacity="0.3">
<path opacity="0.3" d="M366.422 233.073L367.243 247.507L382.8 263.064L397.819 264.48L366.422 233.073Z" fill="white"/>
<path opacity="0.3" d="M375.07 199.156L408.346 232.432L404.854 222.114L382.396 199.656L375.07 199.156Z" fill="white"/>
<path opacity="0.3" d="M364.883 205.848L364.977 207.595L417.888 260.506L417.029 257.995L364.883 205.848Z" fill="white"/>
<path opacity="0.3" d="M367.543 252.831L367.637 254.587L375.425 262.375L377.257 262.545L367.543 252.831Z" fill="white"/>
</g>
<path d="M364.457 198.41L397.573 200.722L419.936 266.548L416.462 266.217L395.326 203.989L364.618 201.185L364.457 198.41Z" fill="#263238"/>
<path d="M435.796 270.607H434.852V352.669H435.796V270.607Z" fill="#263238"/>
<path d="M491.755 284.333L480.059 282.445L486.874 306.526L492.897 305.894C493.541 305.827 494.133 305.511 494.547 305.014C494.962 304.516 495.166 303.877 495.115 303.232L493.841 286.561C493.786 286.012 493.552 285.496 493.175 285.093C492.798 284.691 492.299 284.423 491.755 284.333Z" fill="white"/>
<path d="M426.375 249.537C423.543 251.925 426.101 273.411 428.093 273.042C430.085 272.674 434.361 271.862 436.08 270.503C437.798 269.144 447.521 251.755 445.161 248.149C442.801 244.543 428.575 247.696 426.375 249.537Z" fill="#059CE1"/>
<path opacity="0.1" d="M426.375 249.537C423.543 251.925 426.101 273.411 428.093 273.042C430.085 272.674 434.361 271.862 436.08 270.503C437.798 269.144 447.521 251.755 445.161 248.149C442.801 244.543 428.575 247.696 426.375 249.537Z" fill="black"/>
<path opacity="0.1" d="M388.747 280.16H370.934V275.157L388.747 276.129V280.16Z" fill="black"/>
<path d="M352.544 355.34H56.9492L72.5913 144.555L341.896 130.262L352.544 355.34Z" fill="#059CE1"/>
<path d="M277.535 235.54C277.535 239.764 277.183 243.918 276.479 247.931C270.599 282.428 240.534 308.688 204.378 308.688C188.253 308.688 173.361 303.478 161.286 294.678C146.992 296.473 137.24 294.889 134.811 289.433C133.368 286.194 134.67 281.935 138.261 277.007C139.177 275.704 140.303 274.367 141.5 272.994C152.872 260.427 176.53 244.693 205.927 231.035C207.37 230.366 208.813 229.732 210.292 229.063C223.001 223.361 235.394 218.679 246.836 215.124L215.362 207.556L199.343 203.684C198.217 203.402 197.231 204.493 197.583 205.584L200.399 214.138C169.313 228.676 144.845 245.537 134.846 258.35C131.115 246.945 130.094 234.343 132.558 221.284C137.945 192.384 160.793 169.398 189.662 163.801C219.727 157.958 247.328 170.489 263.277 192.138C267.008 197.207 270.106 202.768 272.465 208.717C274.754 214.49 276.303 220.65 277.042 227.057C277.359 229.838 277.535 232.654 277.535 235.54Z" fill="url(#paint0_linear)"/>
<path opacity="0.1" d="M352.544 355.331H56.9492L57.7894 344.022L351.147 325.604L352.544 355.331Z" fill="black"/>
<path d="M55.457 364.818H506.906V351.385H55.457V364.818Z" fill="#EBEBEB"/>
<path d="M516.302 344.928L471.273 347.694V366.857H519.663L516.302 344.928Z" fill="#DBDBDB"/>
<path d="M74.8955 366.857V348.1L46.4811 345.164L42.9883 366.857H74.8955Z" fill="#DBDBDB"/>
<path d="M109.615 369.557L100.27 368.188C102.054 356.039 112.702 333.052 140.276 333.052C167.85 333.052 178.291 356.077 179.924 368.245L170.569 369.51L175.289 368.877L170.569 369.519C170.418 368.415 166.453 342.492 140.267 342.492C113.882 342.492 109.776 368.453 109.615 369.557Z" fill="#C7C7C7"/>
<path d="M140.097 338.782C96.0787 338.782 96.0126 407.194 140.097 407.194C184.182 407.194 184.192 338.782 140.097 338.782Z" fill="#263238"/>
<path d="M140.097 357.464C120.122 357.464 120.084 388.513 140.097 388.513C160.11 388.513 160.11 357.464 140.097 357.464Z" fill="#C7C7C7"/>
<path d="M373.293 369.576L363.957 368.16C365.732 356.011 376.38 333.024 403.964 333.024C431.547 333.024 441.969 356.048 443.612 368.216L434.238 369.51L438.958 368.877L434.238 369.519C434.077 368.415 430.113 342.492 403.935 342.492C377.758 342.492 373.463 368.471 373.293 369.576Z" fill="#C7C7C7"/>
<path d="M403.945 338.782C359.926 338.782 359.86 407.194 403.945 407.194C448.03 407.194 448.039 338.782 403.945 338.782Z" fill="#263238"/>
<path d="M403.945 357.464C383.97 357.464 383.932 388.513 403.945 388.513C423.958 388.513 423.958 357.464 403.945 357.464Z" fill="#C7C7C7"/>
<path d="M592.726 357.068H542.949V412.198H592.726V357.068Z" fill="#059CE1"/>
<path opacity="0.1" d="M592.726 357.068H542.949V412.198H592.726V357.068Z" fill="black"/>
<path d="M517.248 412.198H542.953V357.068H517.248V412.198Z" fill="#059CE1"/>
<path opacity="0.32" d="M517.248 412.198H542.953V357.068H517.248V412.198Z" fill="black"/>
<path d="M563.617 368.981H564.674H565.467L565.921 368.066L566.553 368.981L567.412 367.093L568.224 368.981H570.556H571.613L572 367.726L572.368 368.981H573.057V357.068H563.617V368.981Z" fill="white"/>
<path d="M519.02 408.403C520.908 404.476 522.796 400.542 524.684 396.603L530.263 384.746L535.757 372.88C537.588 368.909 539.394 364.919 541.175 360.91C539.287 364.837 537.399 368.771 535.511 372.71L529.932 384.567L524.438 396.48C522.619 400.426 520.813 404.4 519.02 408.403Z" fill="#059CE1"/>
<path d="M519.02 360.863C520.807 364.866 522.613 368.856 524.438 372.833L529.942 384.746L535.521 396.603C537.409 400.549 539.297 404.482 541.185 408.403C539.397 404.4 537.591 400.41 535.766 396.433L530.263 384.52L524.684 372.663C522.808 368.717 520.92 364.784 519.02 360.863Z" fill="#059CE1"/>
<path d="M615.769 301.938H565.992V357.068H615.769V301.938Z" fill="#059CE1"/>
<path opacity="0.1" d="M615.769 301.938H565.992V357.068H615.769V301.938Z" fill="black"/>
<path d="M540.299 357.077H566.004V301.948H540.299V357.077Z" fill="#059CE1"/>
<path opacity="0.32" d="M540.299 357.077H566.004V301.948H540.299V357.077Z" fill="black"/>
<path d="M586.668 313.852H587.716H588.509L588.962 312.936L589.594 313.852L590.453 311.964L591.265 313.852H593.597H594.664L595.051 312.596L595.409 313.852H596.099V301.938H586.668V313.852Z" fill="white"/>
<path d="M542.062 353.273C543.95 349.352 545.838 345.419 547.726 341.473L553.306 329.616L558.847 317.713C560.678 313.729 562.488 309.739 564.275 305.743C562.387 309.657 560.499 313.587 558.611 317.533L553.032 329.39L547.519 341.303C545.669 345.281 543.85 349.271 542.062 353.273Z" fill="#059CE1"/>
<path d="M542.062 305.743C543.856 309.745 545.662 313.735 547.481 317.713L552.985 329.616L558.564 341.473C560.452 345.419 562.34 349.352 564.228 353.273C562.434 349.271 560.625 345.281 558.8 341.303L553.296 329.39L547.717 317.533C545.861 313.587 543.976 309.657 542.062 305.743Z" fill="#059CE1"/>
<path d="M656.683 357.068H606.906V412.198H656.683V357.068Z" fill="#059CE1"/>
<path opacity="0.1" d="M656.683 357.068H606.906V412.198H656.683V357.068Z" fill="black"/>
<path d="M581.201 412.198H606.906V357.068H581.201V412.198Z" fill="#059CE1"/>
<path opacity="0.32" d="M581.201 412.198H606.906V357.068H581.201V412.198Z" fill="black"/>
<path d="M627.57 368.981H628.628H629.421L629.874 368.066L630.506 368.981L631.365 367.093L632.177 368.981H634.509H635.575L635.953 367.726L636.321 368.981H637.01V357.068H627.57V368.981Z" fill="white"/>
<path d="M582.977 408.403C584.865 404.476 586.753 400.542 588.641 396.603L594.22 384.746L599.714 372.88C601.545 368.909 603.351 364.919 605.132 360.91C603.244 364.837 601.356 368.771 599.468 372.71L593.889 384.567L588.395 396.48C586.576 400.426 584.77 404.4 582.977 408.403Z" fill="#059CE1"/>
<path d="M582.977 360.863C584.764 364.866 586.57 368.856 588.395 372.833L593.899 384.746L599.44 396.603C601.328 400.549 603.216 404.482 605.104 408.403C603.317 404.4 601.51 400.41 599.685 396.433L594.182 384.52L588.603 372.663C586.753 368.717 584.877 364.784 582.977 360.863Z" fill="#059CE1"/>
<path d="M462.315 412.849C464.127 413.425 515.66 412.764 517.605 411.49C518.35 411.018 518.69 403.503 518.841 394.413V394.13C518.841 392.242 518.898 390.354 518.907 388.371C518.907 388.097 518.907 387.833 518.907 387.559L516.406 360.825L481.931 361.174L485.329 387.606V388.654L485.537 394.139V394.705C485.537 394.705 465.921 403.777 463.929 405.41C461.937 407.043 460.512 412.273 462.315 412.849Z" fill="#D89C8A"/>
<path d="M462.315 412.849C464.127 413.425 515.66 412.764 517.605 411.49C518.35 411.018 518.69 403.503 518.841 394.413V394.129C518.841 392.241 518.898 390.353 518.907 388.371C518.907 388.097 518.907 387.833 518.907 387.559L485.329 387.653V388.701L485.537 394.186V394.752C485.537 394.752 465.921 403.824 463.929 405.457C461.937 407.09 460.512 412.273 462.315 412.849Z" fill="#EBEBEB"/>
<path d="M462.314 412.84C463.258 413.142 477.239 413.113 490.927 412.84C493.674 412.792 496.411 412.726 499.026 412.651C508.778 412.386 516.849 411.98 517.595 411.499C518.341 411.018 518.671 403.72 518.822 394.8C518.822 394.677 518.822 394.545 518.822 394.422C518.822 394.299 518.822 394.224 518.822 394.129L485.612 394.195V394.762C485.612 394.762 466.005 403.834 464.013 405.457C462.022 407.081 460.502 412.264 462.314 412.84Z" fill="#059CE1"/>
<path d="M462.873 410.838C471.558 410.517 506.618 410.017 515.227 410.357C515.293 410.357 515.293 410.404 515.227 410.413C506.627 410.923 471.567 411.131 462.873 410.98C462.693 410.98 462.693 410.848 462.873 410.838Z" fill="#263238"/>
<path d="M481.895 394.328C485.303 393.648 489.447 394.12 492.138 396.518C492.232 396.612 492.138 396.754 491.987 396.725C488.709 395.713 485.332 395.055 481.914 394.762C481.886 394.763 481.857 394.759 481.83 394.749C481.804 394.739 481.779 394.724 481.758 394.705C481.737 394.686 481.72 394.662 481.708 394.637C481.696 394.611 481.689 394.583 481.688 394.554C481.686 394.526 481.691 394.497 481.701 394.47C481.71 394.444 481.725 394.419 481.745 394.398C481.764 394.377 481.787 394.36 481.813 394.348C481.839 394.336 481.867 394.329 481.895 394.328Z" fill="#263238"/>
<path d="M479.438 395.848C482.856 395.168 486.99 395.64 489.681 398.038C489.785 398.132 489.681 398.274 489.539 398.245C486.258 397.233 482.878 396.575 479.457 396.282C479.4 396.284 479.343 396.264 479.301 396.225C479.258 396.186 479.233 396.132 479.231 396.074C479.228 396.017 479.249 395.96 479.288 395.918C479.327 395.875 479.381 395.85 479.438 395.848Z" fill="#263238"/>
<path d="M476.993 397.367C480.401 396.688 484.592 397.16 487.235 399.558C487.339 399.652 487.235 399.794 487.094 399.756C483.811 398.751 480.432 398.096 477.012 397.802C476.954 397.804 476.898 397.784 476.856 397.745C476.813 397.706 476.788 397.652 476.785 397.594C476.783 397.536 476.803 397.48 476.842 397.438C476.881 397.395 476.935 397.37 476.993 397.367Z" fill="#263238"/>
<path d="M490.93 412.83C493.677 412.783 496.414 412.717 499.029 412.641C508.781 412.377 516.852 411.971 517.598 411.49C518.343 411.008 518.674 403.711 518.825 394.79C518.825 394.668 518.825 394.535 518.825 394.413C518.825 394.29 518.825 394.215 518.825 394.12C514.256 397.311 498.217 407.987 490.93 412.83Z" fill="#263238"/>
<path d="M483.186 394.299H520.304C520.304 394.299 512.828 307.621 513.12 306.102C513.488 304.166 515.688 295.397 518.595 283.927C519.539 280.34 520.483 276.498 521.522 272.505C524.288 261.724 527.346 249.943 530.018 239.682L537.136 212.4H505.644C505.644 212.4 501.981 224.021 497.365 239.144C489.813 263.688 479.778 297.53 478.787 305.752C477.173 319.006 483.186 394.299 483.186 394.299Z" fill="#263238"/>
<path d="M484.972 387.984C490.636 387.871 489.013 387.824 494.686 387.767C497.452 387.767 515.69 387.588 518.286 388.013C518.301 388.013 518.316 388.018 518.326 388.029C518.337 388.04 518.343 388.054 518.343 388.069C518.343 388.084 518.337 388.099 518.326 388.109C518.316 388.12 518.301 388.126 518.286 388.126C515.7 388.56 497.462 388.4 494.686 388.371C489.022 388.315 490.646 388.267 484.972 388.154C484.869 388.135 484.869 387.984 484.972 387.984Z" fill="#37474F"/>
<path d="M506.277 300.806C507.495 295.444 509.317 290.186 510.894 284.918C514.116 274.219 517.354 263.521 520.607 252.822C522.231 247.479 523.861 242.13 525.497 236.774C526.328 234.074 527.162 231.378 527.999 228.684C528.83 226.05 529.764 223.435 530.51 220.783C530.812 219.697 530.982 220.292 530.595 221.67C529.811 224.436 529.037 227.211 528.235 229.968C526.617 235.456 525.006 240.928 523.402 246.384C520.192 257.259 516.948 268.124 513.669 278.98C512.033 284.424 510.396 289.868 508.76 295.311C507.93 297.902 507.258 300.541 506.749 303.213C506.314 306.007 506.203 308.842 506.419 311.662C506.778 317.326 507.439 322.99 507.958 328.654C508.477 334.318 509.015 339.982 509.534 345.646C510.579 356.974 511.617 368.273 512.649 379.545C512.772 380.979 512.904 382.377 513.008 383.84C513.008 384.321 512.319 384.283 512.272 383.84C511.045 372.672 510.11 361.467 509.062 350.281C508.014 339.094 506.976 328.012 505.938 316.872C505.673 314.04 505.381 311.284 505.371 308.471C505.389 305.89 505.693 303.319 506.277 300.806Z" fill="#37474F"/>
<path d="M509.355 212.4C511.546 229.298 515.709 260.969 518.739 283.946C525.809 256.088 537.241 212.4 537.241 212.4H509.355Z" fill="#37474F"/>
<path d="M501.632 413.34C503.435 413.935 554.968 413.453 556.922 412.188C557.668 411.716 558.036 404.202 558.225 395.111V394.828C558.225 392.94 558.3 391.052 558.309 389.07C558.309 388.805 558.309 388.532 558.309 388.267C558.432 375.146 557.488 361.533 557.488 361.533L523.797 361.75L524.741 388.239V389.287L524.93 394.771V395.328C524.93 395.328 505.285 404.334 503.284 405.958C501.282 407.582 499.829 412.764 501.632 413.34Z" fill="#D89C8A"/>
<path d="M501.632 413.34C503.435 413.935 554.968 413.453 556.922 412.188C557.668 411.716 558.036 404.202 558.224 395.111V394.828C558.224 392.94 558.3 391.052 558.309 389.07C558.309 388.805 558.309 388.532 558.309 388.267H524.741V389.315L524.93 394.8V395.357C524.93 395.357 505.285 404.363 503.284 405.986C501.282 407.61 499.829 412.764 501.632 413.34Z" fill="#EBEBEB"/>
<path d="M501.632 413.34C503.435 413.935 554.968 413.453 556.922 412.188C557.668 411.716 558.036 404.202 558.225 395.111V394.828L524.977 394.771V395.328C524.977 395.328 505.333 404.334 503.331 405.958C501.33 407.582 499.829 412.764 501.632 413.34Z" fill="#059CE1"/>
<path d="M502.208 411.339C510.892 411.046 545.953 410.678 554.552 411.046C554.628 411.046 554.628 411.093 554.552 411.103C545.953 411.584 510.892 411.66 502.208 411.48C502.019 411.48 502.009 411.348 502.208 411.339Z" fill="#263238"/>
<path d="M521.278 394.894C524.686 394.224 528.83 394.715 531.511 397.122C531.606 397.216 531.511 397.358 531.36 397.33C528.088 396.3 524.714 395.629 521.297 395.328C521.269 395.33 521.24 395.325 521.213 395.315C521.186 395.306 521.162 395.291 521.141 395.271C521.12 395.252 521.103 395.229 521.091 395.203C521.079 395.177 521.072 395.149 521.071 395.121C521.069 395.092 521.074 395.064 521.083 395.037C521.093 395.01 521.108 394.985 521.127 394.964C521.147 394.943 521.17 394.926 521.196 394.914C521.222 394.902 521.25 394.895 521.278 394.894Z" fill="#263238"/>
<path d="M518.825 396.405C522.233 395.734 526.377 396.225 529.058 398.632C529.162 398.727 529.058 398.868 528.916 398.84C525.641 397.812 522.264 397.141 518.844 396.839C518.786 396.841 518.73 396.821 518.688 396.782C518.645 396.743 518.62 396.689 518.617 396.631C518.615 396.574 518.635 396.517 518.674 396.475C518.713 396.432 518.767 396.407 518.825 396.405Z" fill="#263238"/>
<path d="M516.371 397.915C519.779 397.245 523.923 397.735 526.604 400.143C526.708 400.237 526.604 400.379 526.462 400.35C523.18 399.327 519.797 398.662 516.371 398.368C516.311 398.368 516.253 398.344 516.211 398.302C516.168 398.259 516.145 398.201 516.145 398.141C516.145 398.081 516.168 398.024 516.211 397.981C516.253 397.939 516.311 397.915 516.371 397.915Z" fill="#263238"/>
<path d="M506.41 212.4C506.41 212.4 507.128 227.448 510.573 239.37C510.856 240.314 511.149 241.324 511.517 242.259C514.674 243.53 517.707 245.088 520.58 246.913C520.58 246.913 520.938 259.024 521.306 272.524C521.703 287.628 522.128 304.459 522.033 308.027C521.722 321.394 523.704 394.875 523.704 394.875L560.813 395.026C560.813 395.026 554.101 312.974 554.148 308.084C554.224 300.211 552.355 265.444 550.91 240.116C550.032 224.493 549.305 212.447 549.305 212.447L506.41 212.4Z" fill="#263238"/>
<path d="M525.338 388.248C531.002 388.154 529.379 388.097 535.052 388.069C537.827 388.069 556.056 387.975 558.652 388.409C558.667 388.409 558.682 388.415 558.692 388.425C558.703 388.436 558.709 388.45 558.709 388.465C558.709 388.48 558.703 388.495 558.692 388.506C558.682 388.516 558.667 388.522 558.652 388.522C556.056 388.947 537.827 388.711 535.052 388.673C529.388 388.588 531.012 388.55 525.338 388.409C525.322 388.403 525.307 388.392 525.297 388.378C525.287 388.363 525.281 388.346 525.281 388.329C525.281 388.311 525.287 388.294 525.297 388.279C525.307 388.265 525.322 388.254 525.338 388.248Z" fill="#37474F"/>
<path d="M546.579 217.762C547.258 238.464 547.985 259.166 548.91 279.858C549.836 300.551 551.091 321.394 552.828 342.087C553.772 353.66 554.716 369.944 555.962 381.489C555.962 381.565 555.849 381.593 555.839 381.489C553.14 360.957 551.639 335.564 550.308 314.899C548.977 294.235 548.08 273.543 547.372 252.85C546.975 241.145 546.673 229.43 546.314 217.724C546.286 217.583 546.579 217.592 546.579 217.762Z" fill="#37474F"/>
<path d="M510.328 241.343C514.021 242.877 517.572 244.735 520.938 246.894C520.965 246.91 520.984 246.936 520.992 246.966C521.001 246.996 520.997 247.028 520.983 247.055C520.969 247.083 520.944 247.104 520.915 247.114C520.886 247.125 520.853 247.123 520.825 247.111C517.247 245.374 513.594 243.703 510.11 241.768C510.054 241.739 510.012 241.689 509.992 241.629C509.973 241.569 509.978 241.503 510.007 241.447C510.035 241.391 510.085 241.348 510.146 241.328C510.206 241.309 510.271 241.314 510.328 241.343Z" fill="#37474F"/>
<path d="M508.183 223.53C508.504 225.257 508.919 226.966 509.297 228.684C509.675 230.402 509.901 231.931 510.326 233.527C510.676 235.064 511.459 236.469 512.582 237.577C513.215 238.171 513.913 238.69 514.583 239.229L515.716 240.088C515.716 239.861 515.631 239.625 515.584 239.389C515.471 238.738 515.357 238.086 515.254 237.426C515.008 235.972 514.772 234.518 514.555 233.064C514.111 230.232 513.715 227.306 513.111 224.474C513.117 224.455 513.129 224.439 513.145 224.427C513.161 224.415 513.181 224.409 513.2 224.409C513.22 224.409 513.24 224.415 513.256 224.427C513.272 224.439 513.284 224.455 513.29 224.474C514.007 227.306 514.791 230.062 515.414 232.894C515.716 234.282 516.802 241.145 516.858 241.626C516.915 242.108 516.943 242.636 516.962 243.137C517.028 243.647 517.028 244.165 516.962 244.675C516.953 244.698 516.937 244.717 516.917 244.73C516.897 244.744 516.873 244.751 516.849 244.751C516.825 244.751 516.801 244.744 516.781 244.73C516.761 244.717 516.745 244.698 516.736 244.675C516.524 244.2 516.378 243.698 516.301 243.184C516.169 242.693 516.065 242.24 515.971 241.702C515.971 241.522 515.914 241.334 515.895 241.154C515.216 240.739 514.583 240.21 513.951 239.738C513.318 239.266 512.582 238.794 511.94 238.228C510.746 237.225 509.887 235.881 509.476 234.376C509.06 232.761 508.788 231.112 508.665 229.449C508.447 227.495 508.287 225.541 508.013 223.596C507.994 223.464 508.164 223.417 508.183 223.53Z" fill="#37474F"/>
<path d="M520.477 168.325C518.806 174.829 512.161 189.678 500.993 201.931C496.679 206.651 462.525 211.664 458.919 210.635C456.389 209.908 448.988 188.064 451.367 186.232C455.889 182.787 487.928 186.789 489.193 185.959C491.138 184.684 503.816 174.366 511.717 164.955C517.523 158.092 523.253 157.497 520.477 168.325Z" fill="#D89C8A"/>
<path d="M513.178 187.771L492.523 181.701C492.523 181.701 508.977 164.709 515.179 161.028C522.212 156.931 522.731 161.424 520.843 168.929C518.955 176.434 513.178 187.771 513.178 187.771Z" fill="#059CE1"/>
<path d="M496.547 178.888C497.292 178.982 503.759 180.776 505.156 181.191C506.553 181.607 512.283 183.278 513.652 183.825C513.662 183.83 513.671 183.837 513.677 183.846C513.683 183.855 513.686 183.866 513.686 183.877C513.686 183.888 513.683 183.899 513.677 183.908C513.671 183.917 513.662 183.925 513.652 183.929C512.17 183.655 506.393 181.994 504.958 181.597C503.523 181.201 497.17 179.285 496.462 178.982C496.415 178.954 496.452 178.879 496.547 178.888Z" fill="#263238"/>
<path d="M505.211 185.421L513.178 187.762C513.178 187.762 518.993 176.434 520.91 168.882C522.307 163.397 522.382 159.517 519.579 159.442L505.211 185.421Z" fill="#263238"/>
<path d="M552.715 227.344L499.152 227.089C499.152 228.146 510.773 167.22 516.371 159.923C517.57 158.356 525.754 156.383 529.445 159.829C545.635 174.895 552.715 228.023 552.715 227.344Z" fill="#059CE1"/>
<path opacity="0.1" d="M511.119 176.604L517.963 177.076L517.548 186.11L512.847 187.356L510.156 185.222L511.119 176.604Z" fill="black"/>
<path d="M519.955 167.239C522.503 167.853 526.27 163.019 528.111 159.375C528.234 159.13 527.771 156.543 527.356 153.409C527.12 151.521 526.893 149.369 526.827 147.406C526.827 147 514.621 150.804 514.621 150.804C515.406 153.234 515.888 155.751 516.056 158.299C516.066 158.571 516.047 158.843 515.999 159.111C515.999 159.111 515.999 159.187 515.999 159.243C515.792 160.782 517.226 166.578 519.955 167.239Z" fill="#D89C8A"/>
<path d="M516.002 159.111C516.002 159.111 516.002 159.196 516.002 159.243C516.423 159.277 516.846 159.277 517.267 159.243C524.498 158.847 526.112 149.718 526.405 147.406C524.224 147.793 514.633 150.785 514.633 150.785C515.418 153.215 515.903 155.732 516.077 158.28C516.078 158.559 516.053 158.837 516.002 159.111Z" fill="#263238"/>
<path d="M529.113 132.689C530.152 137.135 527.008 149.567 523.723 152.163C519.003 155.939 511.583 155.826 508.487 150.2C505.485 144.744 509.865 128.62 513.5 126.298C518.843 122.881 527.575 126.128 529.113 132.689Z" fill="#D89C8A"/>
<path d="M516.632 139.4C516.632 139.4 516.689 139.457 516.679 139.495C516.443 140.326 516.32 141.317 517.01 141.779C517.01 141.779 517.01 141.836 517.01 141.826C516.094 141.468 516.283 140.156 516.632 139.4Z" fill="#263238"/>
<path d="M517.608 138.711C518.976 138.947 518.41 141.675 517.145 141.458C515.88 141.241 516.456 138.522 517.608 138.711Z" fill="#263238"/>
<path d="M512.084 138.532C512.084 138.532 512.008 138.532 511.999 138.589C511.848 139.448 511.536 140.392 510.715 140.477V140.524C511.649 140.656 512.074 139.363 512.084 138.532Z" fill="#263238"/>
<path d="M511.506 137.494C510.165 137.107 509.495 139.816 510.741 140.165C511.987 140.514 512.591 137.824 511.506 137.494Z" fill="#263238"/>
<path d="M518.937 137.692C518.612 137.511 518.297 137.312 517.993 137.097C517.62 136.935 517.308 136.657 517.106 136.304C517.067 136.18 517.069 136.048 517.112 135.925C517.154 135.803 517.235 135.697 517.342 135.624C517.581 135.518 517.843 135.477 518.103 135.503C518.363 135.53 518.611 135.623 518.824 135.775C519.297 136.021 519.661 136.435 519.843 136.937C519.884 137.057 519.887 137.188 519.853 137.311C519.818 137.434 519.747 137.543 519.649 137.625C519.551 137.706 519.43 137.756 519.303 137.768C519.176 137.78 519.049 137.754 518.937 137.692Z" fill="#263238"/>
<path d="M510.706 135.936C511.088 135.941 511.469 135.922 511.849 135.879C512.256 135.913 512.664 135.814 513.01 135.596C513.103 135.506 513.164 135.388 513.182 135.26C513.201 135.132 513.177 135.001 513.114 134.888C512.956 134.681 512.747 134.519 512.506 134.419C512.265 134.319 512.003 134.286 511.745 134.322C511.214 134.32 510.701 134.512 510.3 134.86C510.215 134.946 510.156 135.055 510.131 135.173C510.106 135.292 510.115 135.415 510.158 135.528C510.201 135.642 510.275 135.74 510.372 135.813C510.47 135.885 510.585 135.928 510.706 135.936Z" fill="#263238"/>
<path d="M516.049 147.415C515.804 147.566 515.549 147.802 515.237 147.764C514.923 147.692 514.627 147.553 514.369 147.358C514.369 147.358 514.312 147.358 514.369 147.358C514.453 147.545 514.584 147.706 514.75 147.825C514.915 147.944 515.11 148.018 515.313 148.038C515.493 148.027 515.667 147.963 515.812 147.856C515.958 147.749 516.069 147.603 516.134 147.434C516.133 147.425 516.128 147.416 516.122 147.41C516.115 147.403 516.107 147.398 516.098 147.396C516.089 147.394 516.079 147.395 516.071 147.398C516.062 147.402 516.055 147.407 516.049 147.415Z" fill="#263238"/>
<path d="M515.68 144.696C515.397 144.988 515.056 145.218 514.679 145.371C514.302 145.524 513.897 145.596 513.49 145.584C513.138 145.579 512.788 145.521 512.452 145.414C512.384 145.401 512.318 145.382 512.254 145.357L512.074 145.282C512.031 145.265 511.995 145.235 511.971 145.196C511.947 145.156 511.937 145.11 511.942 145.064C511.938 145.036 511.938 145.008 511.942 144.98V144.913C512.065 144.253 512.329 143.28 512.329 143.28C512.065 143.346 510.743 143.639 510.828 143.28C511.514 140.358 512.491 137.512 513.745 134.784C513.756 134.77 513.772 134.76 513.789 134.756C513.806 134.751 513.824 134.752 513.841 134.758C513.858 134.764 513.872 134.776 513.882 134.791C513.892 134.806 513.897 134.823 513.896 134.841C513.282 137.541 512.197 140.118 511.536 142.818C512.009 142.707 512.495 142.662 512.98 142.686C513.065 142.733 512.433 144.574 512.395 144.866C512.917 145.032 513.468 145.089 514.013 145.036C514.558 144.982 515.087 144.818 515.567 144.555C515.69 144.574 515.746 144.64 515.68 144.696Z" fill="#263238"/>
<path d="M512.906 145.168C513.166 145.705 513.559 146.167 514.048 146.509C514.329 146.689 514.659 146.778 514.992 146.764C515.7 146.717 515.852 146.103 515.833 145.546C515.823 145.252 515.778 144.961 515.7 144.677C514.845 145.135 513.866 145.307 512.906 145.168Z" fill="#263238"/>
<path d="M514.047 146.509C514.328 146.689 514.658 146.778 514.991 146.764C515.699 146.716 515.85 146.103 515.831 145.546C515.469 145.482 515.095 145.542 514.771 145.717C514.448 145.892 514.192 146.171 514.047 146.509Z" fill="#FF98B9"/>
<path d="M510.836 130.074C511.525 129.13 512.28 128.12 512.969 128.044C513.659 127.969 513.762 129.621 515.207 130.027C517.161 130.565 518.501 128.941 521.314 129.319C525.355 129.857 526.431 133.548 525.364 139.221C524.42 144.291 527.375 145.386 527.375 145.386C527.375 145.386 531.5 134.633 529.121 130.282C526.742 125.93 519.87 122.843 514.31 125.373C512.28 126.307 510.836 130.074 510.836 130.074Z" fill="#263238"/>
<path d="M525.233 142.874C525.233 142.874 528.423 139.098 530.179 140.231C531.935 141.364 529.292 147.113 527.055 147.727C526.775 147.823 526.478 147.863 526.183 147.843C525.887 147.823 525.599 147.743 525.335 147.609C525.07 147.476 524.836 147.29 524.645 147.064C524.454 146.837 524.31 146.575 524.223 146.292L525.233 142.874Z" fill="#D89C8A"/>
<path d="M511.648 127.629C512.876 127.572 519.389 129.035 522.089 130.876C524.789 132.717 529.188 137.966 529.415 138.239C529.641 138.513 533.087 127.978 524.695 124.306C515.613 120.303 511.648 127.629 511.648 127.629Z" fill="#059CE1"/>
<path d="M529.027 137.701C529.027 137.701 524.722 128.941 521.843 126.572C518.964 124.202 511.95 121.852 507.117 122.909C503.341 123.768 510.959 129.885 510.959 129.885C511.109 129.536 511.338 129.226 511.628 128.98C511.918 128.735 512.261 128.56 512.63 128.469C514.971 128.025 518.964 129.489 521.126 130.735C523.92 132.302 529.027 137.701 529.027 137.701Z" fill="#059CE1"/>
<path opacity="0.2" d="M529.027 137.701C529.027 137.701 524.722 128.941 521.843 126.572C518.964 124.202 511.95 121.852 507.117 122.909C503.341 123.768 510.959 129.885 510.959 129.885C511.109 129.536 511.338 129.226 511.628 128.98C511.918 128.735 512.261 128.56 512.63 128.469C514.971 128.025 518.964 129.489 521.126 130.735C523.92 132.302 529.027 137.701 529.027 137.701Z" fill="black"/>
<path d="M554.763 194.615H512.52V241.4H554.763V194.615Z" fill="#059CE1"/>
<path opacity="0.1" d="M554.763 194.615H512.52V241.4H554.763V194.615Z" fill="black"/>
<path d="M490.692 241.4H512.508V194.615H490.692V241.4Z" fill="#059CE1"/>
<path opacity="0.32" d="M490.692 241.4H512.508V194.615H490.692V241.4Z" fill="black"/>
<path d="M530.059 204.725H530.946H531.616L532.003 203.942L532.541 204.725L533.268 203.12L533.957 204.725H535.94H536.846L537.167 203.659L537.478 204.725H538.064V194.615H530.059V204.725Z" fill="white"/>
<path d="M492.203 238.171C493.821 234.848 495.422 231.513 497.008 228.165L501.728 218.102L506.448 207.992C507.996 204.618 509.529 201.233 511.045 197.834C509.428 201.17 507.829 204.508 506.25 207.85L501.53 217.913L496.81 228.023C495.255 231.397 493.72 234.779 492.203 238.171Z" fill="#059CE1"/>
<path d="M492.203 197.834C493.726 201.233 495.259 204.618 496.8 207.992L501.52 218.102L506.24 228.165C507.826 231.519 509.425 234.855 511.036 238.171C509.525 234.786 507.993 231.4 506.439 228.014L501.719 217.913L496.999 207.85C495.438 204.502 493.839 201.163 492.203 197.834Z" fill="#059CE1"/>
<path d="M539.186 163.831C549.494 171.581 569.488 188.951 571.282 198.344C573.576 210.672 563.078 234.924 558.594 239.606C555.574 242.768 542.263 231.11 541.461 228.278C540.658 225.446 551.477 205.745 551.562 203.489C551.647 201.232 537.817 180.587 531.813 171.393C524.205 159.829 530.463 157.261 539.186 163.831Z" fill="#D89C8A"/>
<path d="M536.118 229.902C537.062 228.807 536.495 228.306 533.975 228.797C531.454 229.288 521.929 233.357 520.759 229.911C519.588 226.466 533.144 220.915 537.392 220.424C541.167 220.175 544.956 220.238 548.72 220.613C546.313 222.227 540.819 226.683 536.118 229.902Z" fill="#D89C8A"/>
<path d="M559.795 238.039C555.528 245.157 543.152 249.641 533.92 249.811C532.908 249.85 531.911 249.551 531.088 248.961C526.953 249.112 525.641 247.205 525.641 247.205C521.742 246.158 520.675 244.024 520.675 244.024C520.675 244.024 515.814 244.147 515.247 241.192C514.615 237.907 521.563 238.36 525.537 236.302C534.656 231.535 546.305 222.218 548.769 220.575L559.795 238.039Z" fill="#D89C8A"/>
<path d="M538.562 238.058C533.074 241.22 526.995 243.219 520.702 243.93C520.685 243.936 520.67 243.946 520.66 243.961C520.65 243.975 520.645 243.992 520.645 244.01C520.645 244.028 520.65 244.045 520.66 244.059C520.67 244.074 520.685 244.084 520.702 244.09C527.109 243.805 533.315 241.76 538.638 238.181C538.741 238.096 538.694 237.992 538.562 238.058Z" fill="#263238"/>
<path d="M542.236 243.137C539.527 244.307 534.751 246.327 525.594 247.101V247.158C531.413 247.438 537.196 246.091 542.293 243.269C542.454 243.184 542.416 243.061 542.236 243.137Z" fill="#263238"/>
<path d="M544.16 245.912C539.953 247.51 535.548 248.526 531.066 248.933V248.989C537.089 248.848 539.251 248.121 544.282 246.063C544.415 245.987 544.339 245.836 544.16 245.912Z" fill="#263238"/>
<path d="M539.771 186.752L559.331 177.755C559.331 177.755 540.583 163.293 533.843 160.593C526.291 157.554 526.386 162.085 529.359 169.231C532.333 176.377 539.771 186.752 539.771 186.752Z" fill="#059CE1"/>
<path d="M554.978 175.584C554.252 175.792 548.116 178.501 546.794 179.115C545.472 179.728 540.044 182.201 538.732 182.957C538.676 182.957 538.732 183.079 538.732 183.051C540.158 182.57 545.642 180.087 547.002 179.483C548.361 178.879 554.374 176.075 554.988 175.707C555.073 175.584 555.073 175.527 554.978 175.584Z" fill="#263238"/>
<path d="M541.311 186.025C540.707 186.251 539.773 186.648 539.773 186.648C538.328 184.004 536.601 181.493 535.053 178.926C533.505 176.358 531.805 173.734 530.191 171.138H530.125C530.956 172.667 531.777 174.187 532.617 175.707L532.202 175.197C531.711 174.583 531.201 173.989 530.739 173.366C530.739 173.318 530.616 173.366 530.654 173.422C531.061 174.094 531.509 174.74 531.994 175.357C532.353 175.782 532.73 176.188 533.117 176.585C533.599 177.444 534.061 178.312 534.59 179.171C536.148 181.795 537.687 184.835 539.442 187.318C539.442 187.318 540.773 186.563 541.406 186.11C541.472 186.1 541.406 185.968 541.311 186.025Z" fill="#263238"/>
<path d="M486.795 215.289L454.624 217.941L443.824 173.941L475.996 171.289L486.795 215.289Z" fill="#37474F"/>
<path d="M468.302 174.574L453.057 175.82L451.867 170.958L467.122 169.722L468.302 174.574Z" fill="#A6A6A6"/>
<path d="M463.657 170.005L461.779 170.156L461.231 167.919L456.662 168.287L457.21 170.534L455.34 170.685L454.34 166.607L462.685 165.927L463.657 170.005Z" fill="#A6A6A6"/>
<path d="M439.112 193.945C439.161 194.699 439.452 195.417 439.942 195.992C440.432 196.567 441.094 196.968 441.831 197.135C441.831 197.135 439.207 199.278 439.943 201.997C440.321 203.394 442.888 204.017 442.888 204.017C442.32 204.535 441.905 205.199 441.691 205.937C441.476 206.675 441.469 207.458 441.671 208.199C442.313 210.087 444.795 210.427 444.795 210.427C444.795 210.427 443.653 213.07 444.927 214.788C447.514 218.272 464.251 214.486 465.44 207.737C465.997 204.584 461.957 205.735 461.957 205.735C461.957 205.735 467.366 202.686 466.677 199.212C465.988 195.738 460.824 197.551 460.824 197.551C460.824 197.551 466.045 194.549 464.959 191.018C463.873 187.488 458.984 190.074 458.984 190.074C458.984 190.074 462.136 186.714 460.692 184.203C458.304 180.059 451.12 187.554 447.25 187.516L445.73 181.777C445.73 181.777 438.791 190.905 439.112 193.945Z" fill="#D89C8A"/>
<path d="M442.822 204.065C442.756 204.065 442.822 204.187 442.822 204.187C449.484 204.257 455.95 201.94 461.051 197.655C461.221 197.504 461.221 197.183 461.051 197.353C457.435 200.128 448.326 203.309 442.822 204.065Z" fill="#263238"/>
<path d="M459.268 189.593C454.237 193.737 448.393 195.842 442.078 197.145C441.993 197.145 442.031 197.268 442.078 197.277C445.344 197.475 449.281 196.229 452.264 194.993C455.055 193.901 457.512 192.098 459.391 189.763C459.485 189.678 459.372 189.508 459.268 189.593Z" fill="#263238"/>
<path d="M515.012 161.33C515.191 162.276 515.453 163.205 515.795 164.105C516.123 165 516.527 165.866 517.004 166.692C517.449 167.502 518.034 168.227 518.731 168.834C519.057 169.101 519.442 169.286 519.854 169.372C520.27 169.382 520.681 169.291 521.053 169.108C522.744 168.288 524.226 167.093 525.386 165.615C525.698 165.257 525.99 164.879 526.33 164.511C526.67 164.143 526.897 163.727 527.17 163.331C527.444 162.934 527.709 162.538 527.973 162.132C528.237 161.726 528.473 161.311 528.737 160.905C528.017 162.719 527.065 164.432 525.905 166.002C524.761 167.649 523.205 168.967 521.393 169.826C520.888 170.055 520.332 170.153 519.779 170.109C519.238 170.007 518.735 169.758 518.325 169.391C517.568 168.716 516.96 167.889 516.541 166.965C515.636 165.217 515.114 163.296 515.012 161.33Z" fill="#263238"/>
<defs>
<linearGradient id="paint0_linear" x1="34" y1="236" x2="298" y2="236" gradientUnits="userSpaceOnUse">
<stop stop-color="#DEDEDE"/>
<stop offset="0.0001" stop-color="#E6F3F9"/>
<stop offset="1" stop-color="white"/>
</linearGradient>
</defs>
</svg>
