<svg width="810" height="356" viewBox="0 0 810 356" fill="none" xmlns="http://www.w3.org/2000/svg">
<path d="M726.703 19.6123C727.195 16.0708 722.192 13.1556 718.442 12.8549C716.646 12.7046 714.783 12.9802 713.087 12.3872C709.412 11.1092 707.942 6.35647 704.359 4.86967C701.678 3.73369 698.587 4.74438 696.006 6.05577C693.425 7.36716 690.836 9.01265 687.929 9.19641C685.423 9.35512 682.658 8.41961 680.411 9.65582C678.741 10.5746 677.906 12.4707 676.385 13.59C674.865 14.7093 672.961 14.9181 671.115 15.0183C669.269 15.1185 667.364 15.1353 665.685 15.9037C664.006 16.6722 662.62 18.4095 662.971 20.2639L726.703 19.6123Z" fill="#F5F5F5"/>
<path d="M324.358 82.6846H253.76V306.422H324.358V82.6846Z" fill="#F5F5F5"/>
<path d="M324.357 82.6846H289.059V305.804H324.357V82.6846Z" fill="#EBEBEB"/>
<path d="M286.753 60.7251H261.82V82.6929H286.753V60.7251Z" fill="#F5F5F5"/>
<path d="M286.744 60.7251H280.805V82.6929H286.744V60.7251Z" fill="#EBEBEB"/>
<path d="M247.879 82.6842V81.4062H326.42V82.6842" fill="#E0E0E0"/>
<path d="M273.664 92.2646H267.691V104.861H273.664V92.2646Z" fill="#FAFAFA"/>
<path d="M289.059 109.822C289.059 109.948 281.157 110.056 271.409 110.056C261.662 110.056 253.76 109.948 253.76 109.822C253.76 109.697 261.662 109.58 271.409 109.58C281.157 109.58 289.059 109.68 289.059 109.822Z" fill="#E0E0E0"/>
<path d="M309.273 92.2646H303.301V104.861H309.273V92.2646Z" fill="#E0E0E0"/>
<path d="M324.658 109.822C324.658 109.948 316.757 110.056 307.009 110.056C297.261 110.056 289.359 109.948 289.359 109.822C289.359 109.697 297.261 109.58 307.009 109.58C316.757 109.58 324.658 109.68 324.658 109.822Z" fill="#E0E0E0"/>
<path d="M309.273 117.282H303.301V129.886H309.273V117.282Z" fill="#E0E0E0"/>
<path d="M324.658 134.831C324.658 134.956 316.757 135.064 307.009 135.064C297.261 135.064 289.359 134.956 289.359 134.831C289.359 134.705 297.261 134.588 307.009 134.588C316.757 134.588 324.658 134.697 324.658 134.831Z" fill="#E0E0E0"/>
<path d="M309.273 143.05H303.301V155.646H309.273V143.05Z" fill="#E0E0E0"/>
<path d="M324.658 160.599C324.658 160.733 316.757 160.841 307.009 160.841C297.261 160.841 289.359 160.733 289.359 160.599C289.359 160.466 297.261 160.357 307.009 160.357C316.757 160.357 324.658 160.466 324.658 160.599Z" fill="#E0E0E0"/>
<path d="M309.273 168.827H303.301V181.423H309.273V168.827Z" fill="#E0E0E0"/>
<path d="M324.658 186.367C324.658 186.501 316.757 186.61 307.009 186.61C297.261 186.61 289.359 186.501 289.359 186.367C289.359 186.234 297.261 186.125 307.009 186.125C316.757 186.125 324.658 186.234 324.658 186.367Z" fill="#E0E0E0"/>
<path d="M309.273 193.86H303.301V206.456H309.273V193.86Z" fill="#E0E0E0"/>
<path d="M324.658 211.401C324.658 211.534 316.757 211.643 307.009 211.643C297.261 211.643 289.359 211.534 289.359 211.401C289.359 211.267 297.261 211.158 307.009 211.158C316.757 211.158 324.658 211.267 324.658 211.401Z" fill="#E0E0E0"/>
<path d="M309.273 218.993H303.301V231.589H309.273V218.993Z" fill="#E0E0E0"/>
<path d="M309.273 244.453H303.301V257.049H309.273V244.453Z" fill="#E0E0E0"/>
<path d="M324.658 236.534C324.658 236.668 316.757 236.776 307.009 236.776C297.261 236.776 289.359 236.668 289.359 236.534C289.359 236.401 297.261 236.3 307.009 236.3C316.757 236.3 324.658 236.409 324.658 236.534Z" fill="#E0E0E0"/>
<path d="M273.664 117.666H267.691V130.262H273.664V117.666Z" fill="#FAFAFA"/>
<path d="M289.059 135.207C289.059 135.34 281.157 135.449 271.409 135.449C261.662 135.449 253.76 135.34 253.76 135.207C253.76 135.073 261.662 134.964 271.409 134.964C281.157 134.964 289.059 135.073 289.059 135.207Z" fill="#E0E0E0"/>
<path d="M273.664 143.058H267.691V155.654H273.664V143.058Z" fill="#FAFAFA"/>
<path d="M289.059 160.607C289.059 160.741 281.157 160.85 271.409 160.85C261.662 160.85 253.76 160.741 253.76 160.607C253.76 160.474 261.662 160.365 271.409 160.365C281.157 160.365 289.059 160.474 289.059 160.607Z" fill="#E0E0E0"/>
<path d="M273.664 168.459H267.691V181.055H273.664V168.459Z" fill="#FAFAFA"/>
<path d="M289.059 186.008C289.059 186.133 281.157 186.242 271.409 186.242C261.662 186.242 253.76 186.133 253.76 186.008C253.76 185.883 261.662 185.766 271.409 185.766C281.157 185.766 289.059 185.874 289.059 186.008Z" fill="#E0E0E0"/>
<path d="M273.664 193.86H267.691V206.456H273.664V193.86Z" fill="#FAFAFA"/>
<path d="M289.059 211.401C289.059 211.534 281.157 211.643 271.409 211.643C261.662 211.643 253.76 211.534 253.76 211.401C253.76 211.267 261.662 211.158 271.409 211.158C281.157 211.158 289.059 211.267 289.059 211.401Z" fill="#E0E0E0"/>
<path d="M273.664 219.252H267.691V231.848H273.664V219.252Z" fill="#FAFAFA"/>
<path d="M289.059 236.785C289.059 236.918 281.157 237.027 271.409 237.027C261.662 237.027 253.76 236.918 253.76 236.785C253.76 236.651 261.662 236.542 271.409 236.542C281.157 236.542 289.059 236.668 289.059 236.785Z" fill="#E0E0E0"/>
<path d="M273.664 244.653H267.691V257.249H273.664V244.653Z" fill="#FAFAFA"/>
<path d="M602.922 31.6572H501.16V354.158H602.922V31.6572Z" fill="#F5F5F5"/>
<path d="M602.914 31.6572H552.037V353.273H602.914V31.6572Z" fill="#EBEBEB"/>
<path d="M548.713 0H512.779V31.6654H548.713V0Z" fill="#F5F5F5"/>
<path d="M548.712 0H540.15V31.6654H548.712V0Z" fill="#EBEBEB"/>
<path d="M492.682 31.657V29.811H605.895V31.657" fill="#E0E0E0"/>
<path d="M529.862 45.4727H521.25V63.6316H529.862V45.4727Z" fill="#FAFAFA"/>
<path d="M552.037 70.7565C552.037 70.9486 540.652 71.1073 526.603 71.1073C512.553 71.1073 501.16 70.9486 501.16 70.7565C501.16 70.5644 512.545 70.4141 526.603 70.4141C540.66 70.4141 552.037 70.5644 552.037 70.7565Z" fill="#E0E0E0"/>
<path d="M581.18 45.4727H572.568V63.6316H581.18V45.4727Z" fill="#E0E0E0"/>
<path d="M603.366 70.7565C603.366 70.9486 591.972 71.1073 577.923 71.1073C563.874 71.1073 552.48 70.9486 552.48 70.7565C552.48 70.5644 563.874 70.4141 577.923 70.4141C591.972 70.4141 603.366 70.5644 603.366 70.7565Z" fill="#E0E0E0"/>
<path d="M581.18 81.5312H572.568V99.6902H581.18V81.5312Z" fill="#E0E0E0"/>
<path d="M603.366 106.824C603.366 107.016 591.972 107.166 577.923 107.166C563.874 107.166 552.48 107.016 552.48 106.824C552.48 106.632 563.874 106.473 577.923 106.473C591.972 106.473 603.366 106.632 603.366 106.824Z" fill="#E0E0E0"/>
<path d="M581.18 118.677H572.568V136.835H581.18V118.677Z" fill="#E0E0E0"/>
<path d="M603.366 143.969C603.366 144.161 591.972 144.32 577.923 144.32C563.874 144.32 552.48 144.161 552.48 143.969C552.48 143.777 563.874 143.618 577.923 143.618C591.972 143.618 603.366 143.777 603.366 143.969Z" fill="#E0E0E0"/>
<path d="M581.18 155.83H572.568V173.989H581.18V155.83Z" fill="#E0E0E0"/>
<path d="M603.366 181.113C603.366 181.306 591.972 181.464 577.923 181.464C563.874 181.464 552.48 181.306 552.48 181.113C552.48 180.921 563.874 180.771 577.923 180.771C591.972 180.771 603.366 180.921 603.366 181.113Z" fill="#E0E0E0"/>
<path d="M581.18 191.914H572.568V210.073H581.18V191.914Z" fill="#E0E0E0"/>
<path d="M603.366 217.206C603.366 217.39 591.972 217.548 577.923 217.548C563.874 217.548 552.48 217.39 552.48 217.206C552.48 217.022 563.874 216.855 577.923 216.855C591.972 216.855 603.366 217.014 603.366 217.206Z" fill="#E0E0E0"/>
<path d="M581.18 228.14H572.568V246.299H581.18V228.14Z" fill="#E0E0E0"/>
<path d="M581.18 264.85H572.568V283.009H581.18V264.85Z" fill="#E0E0E0"/>
<path d="M603.366 253.432C603.366 253.624 591.972 253.783 577.923 253.783C563.874 253.783 552.48 253.624 552.48 253.432C552.48 253.24 563.874 253.09 577.923 253.09C591.972 253.09 603.366 253.24 603.366 253.432Z" fill="#E0E0E0"/>
<path d="M529.862 82.083H521.25V100.242H529.862V82.083Z" fill="#FAFAFA"/>
<path d="M552.037 107.375C552.037 107.559 540.652 107.717 526.603 107.717C512.553 107.717 501.16 107.559 501.16 107.375C501.16 107.191 512.545 107.024 526.603 107.024C540.66 107.024 552.037 107.183 552.037 107.375Z" fill="#E0E0E0"/>
<path d="M529.862 118.693H521.25V136.852H529.862V118.693Z" fill="#FAFAFA"/>
<path d="M552.037 143.985C552.037 144.169 540.652 144.328 526.603 144.328C512.553 144.328 501.16 144.169 501.16 143.985C501.16 143.802 512.545 143.635 526.603 143.635C540.66 143.635 552.037 143.793 552.037 143.985Z" fill="#E0E0E0"/>
<path d="M529.862 155.303H521.25V173.462H529.862V155.303Z" fill="#FAFAFA"/>
<path d="M552.037 180.596C552.037 180.779 540.652 180.938 526.603 180.938C512.553 180.938 501.16 180.779 501.16 180.596C501.16 180.412 512.545 180.245 526.603 180.245C540.66 180.245 552.037 180.404 552.037 180.596Z" fill="#E0E0E0"/>
<path d="M529.862 191.914H521.25V210.073H529.862V191.914Z" fill="#FAFAFA"/>
<path d="M552.037 217.206C552.037 217.39 540.652 217.548 526.603 217.548C512.553 217.548 501.16 217.39 501.16 217.206C501.16 217.022 512.545 216.855 526.603 216.855C540.66 216.855 552.037 217.014 552.037 217.206Z" fill="#E0E0E0"/>
<path d="M529.862 228.524H521.25V246.683H529.862V228.524Z" fill="#FAFAFA"/>
<path d="M552.037 253.816C552.037 254.008 540.652 254.159 526.603 254.159C512.553 254.159 501.16 254.008 501.16 253.816C501.16 253.624 512.545 253.465 526.603 253.465C540.66 253.465 552.037 253.624 552.037 253.816Z" fill="#E0E0E0"/>
<path d="M529.862 265.134H521.25V283.293H529.862V265.134Z" fill="#FAFAFA"/>
<path d="M638.831 177.956H583.234V354.15H638.831V177.956Z" fill="#F5F5F5"/>
<path d="M638.831 177.956H611.033V353.666H638.831V177.956Z" fill="#EBEBEB"/>
<path d="M609.211 160.658H589.582V177.956H609.211V160.658Z" fill="#F5F5F5"/>
<path d="M609.213 160.658H604.535V177.956H609.213V160.658Z" fill="#EBEBEB"/>
<path d="M578.6 177.956V176.946H640.46V177.956" fill="#E0E0E0"/>
<path d="M598.914 185.499H594.211V195.422H598.914V185.499Z" fill="#FAFAFA"/>
<path d="M611.032 199.322C611.032 199.423 604.81 199.506 597.133 199.506C589.457 199.506 583.234 199.423 583.234 199.322C583.234 199.222 589.457 199.13 597.133 199.13C604.81 199.13 611.032 199.197 611.032 199.322Z" fill="#E0E0E0"/>
<path d="M626.955 185.499H622.252V195.422H626.955V185.499Z" fill="#E0E0E0"/>
<path d="M639.073 199.322C639.073 199.423 632.851 199.506 625.174 199.506C617.498 199.506 611.275 199.423 611.275 199.322C611.275 199.222 617.498 199.13 625.174 199.13C632.851 199.13 639.073 199.197 639.073 199.322Z" fill="#E0E0E0"/>
<path d="M626.955 205.203H622.252V215.126H626.955V205.203Z" fill="#E0E0E0"/>
<path d="M639.073 219.019C639.073 219.127 632.851 219.211 625.174 219.211C617.498 219.211 611.275 219.127 611.275 219.019C611.275 218.91 617.498 218.826 625.174 218.826C632.851 218.826 639.073 218.918 639.073 219.019Z" fill="#E0E0E0"/>
<path d="M626.955 225.5H622.252V235.423H626.955V225.5Z" fill="#E0E0E0"/>
<path d="M639.073 239.291C639.073 239.391 632.851 239.483 625.174 239.483C617.498 239.483 611.275 239.391 611.275 239.291C611.275 239.191 617.498 239.099 625.174 239.099C632.851 239.099 639.073 239.207 639.073 239.291Z" fill="#E0E0E0"/>
<path d="M626.955 245.789H622.252V255.712H626.955V245.789Z" fill="#E0E0E0"/>
<path d="M639.073 259.613C639.073 259.713 632.851 259.797 625.174 259.797C617.498 259.797 611.275 259.713 611.275 259.613C611.275 259.513 617.498 259.421 625.174 259.421C632.851 259.421 639.073 259.504 639.073 259.613Z" fill="#E0E0E0"/>
<path d="M626.955 265.51H622.252V275.433H626.955V265.51Z" fill="#E0E0E0"/>
<path d="M639.073 279.326C639.073 279.434 632.851 279.518 625.174 279.518C617.498 279.518 611.275 279.434 611.275 279.326C611.275 279.217 617.498 279.134 625.174 279.134C632.851 279.134 639.073 279.217 639.073 279.326Z" fill="#E0E0E0"/>
<path d="M626.955 285.306H622.252V295.23H626.955V285.306Z" fill="#E0E0E0"/>
<path d="M626.955 305.353H622.252V315.276H626.955V305.353Z" fill="#E0E0E0"/>
<path d="M639.073 299.122C639.073 299.222 632.851 299.305 625.174 299.305C617.498 299.305 611.275 299.222 611.275 299.122C611.275 299.021 617.498 298.929 625.174 298.929C632.851 298.929 639.073 299.013 639.073 299.122Z" fill="#E0E0E0"/>
<path d="M598.914 205.504H594.211V215.427H598.914V205.504Z" fill="#FAFAFA"/>
<path d="M611.032 219.319C611.032 219.428 604.81 219.511 597.133 219.511C589.457 219.511 583.234 219.428 583.234 219.319C583.234 219.211 589.457 219.127 597.133 219.127C604.81 219.127 611.032 219.244 611.032 219.319Z" fill="#E0E0E0"/>
<path d="M598.914 225.509H594.211V235.432H598.914V225.509Z" fill="#FAFAFA"/>
<path d="M611.032 239.291C611.032 239.391 604.81 239.475 597.133 239.475C589.457 239.475 583.234 239.391 583.234 239.291C583.234 239.191 589.457 239.099 597.133 239.099C604.81 239.099 611.032 239.216 611.032 239.291Z" fill="#E0E0E0"/>
<path d="M598.914 245.505H594.211V255.428H598.914V245.505Z" fill="#FAFAFA"/>
<path d="M611.032 259.337C611.032 259.446 604.81 259.529 597.133 259.529C589.457 259.529 583.234 259.446 583.234 259.337C583.234 259.229 589.457 259.154 597.133 259.154C604.81 259.154 611.032 259.22 611.032 259.337Z" fill="#E0E0E0"/>
<path d="M598.914 265.51H594.211V275.433H598.914V265.51Z" fill="#FAFAFA"/>
<path d="M611.032 279.326C611.032 279.434 604.81 279.518 597.133 279.518C589.457 279.518 583.234 279.434 583.234 279.326C583.234 279.217 589.457 279.134 597.133 279.134C604.81 279.134 611.032 279.217 611.032 279.326Z" fill="#E0E0E0"/>
<path d="M598.914 285.507H594.211V295.43H598.914V285.507Z" fill="#FAFAFA"/>
<path d="M611.032 299.331C611.032 299.431 604.81 299.514 597.133 299.514C589.457 299.514 583.234 299.431 583.234 299.331C583.234 299.23 589.457 299.138 597.133 299.138C604.81 299.138 611.032 299.222 611.032 299.331Z" fill="#E0E0E0"/>
<path d="M598.914 305.512H594.211V315.435H598.914V305.512Z" fill="#FAFAFA"/>
<path d="M360.014 240.56H300.158V354.158H360.014V240.56Z" fill="#E0E0E0"/>
<path d="M360.015 240.56H331.949V354.158H360.015V240.56Z" fill="#EBEBEB"/>
<path d="M318.094 251.244H312.715V264.316H318.094V251.244Z" fill="#F5F5F5"/>
<path d="M318.094 302.421H312.715V315.493H318.094V302.421Z" fill="#F5F5F5"/>
<path d="M331.95 269.453C331.95 269.57 324.833 269.653 316.079 269.653C307.326 269.653 300.209 269.57 300.209 269.453C300.209 269.336 307.326 269.252 316.079 269.252C324.833 269.252 331.95 269.361 331.95 269.453Z" fill="#F5F5F5"/>
<path d="M318.094 277.029H312.715V290.101H318.094V277.029Z" fill="#F5F5F5"/>
<path d="M331.95 295.254C331.95 295.363 324.833 295.455 316.079 295.455C307.326 295.455 300.209 295.363 300.209 295.254C300.209 295.146 307.326 295.046 316.079 295.046C324.833 295.046 331.95 295.121 331.95 295.254Z" fill="#F5F5F5"/>
<path d="M343.293 251.244H337.914V264.316H343.293V251.244Z" fill="#E0E0E0"/>
<path d="M354.971 251.244H349.592V264.316H354.971V251.244Z" fill="#E0E0E0"/>
<path d="M343.293 276.06H337.914V289.132H343.293V276.06Z" fill="#E0E0E0"/>
<path d="M354.971 276.06H349.592V289.132H354.971V276.06Z" fill="#E0E0E0"/>
<path d="M343.293 300.867H337.914V313.94H343.293V300.867Z" fill="#E0E0E0"/>
<path d="M354.971 300.867H349.592V313.94H354.971V300.867Z" fill="#E0E0E0"/>
<path d="M364.518 237.812H295.666V240.661H364.518V237.812Z" fill="#E0E0E0"/>
<path d="M360.434 240.961C360.434 241.07 347.069 241.162 330.556 241.162C314.042 241.162 300.678 241.07 300.678 240.961C300.678 240.853 314.042 240.752 330.556 240.752C347.069 240.752 360.434 240.811 360.434 240.961Z" fill="#EBEBEB"/>
<path d="M300.845 354.075H204.453L204.027 201.728H300.427L300.845 354.075Z" fill="#EBEBEB"/>
<path d="M300.426 201.728H252.23V354.075H300.426V201.728Z" fill="#E0E0E0"/>
<path d="M249.073 171.733H215.035V201.728H249.073V171.733Z" fill="#EBEBEB"/>
<path d="M249.073 171.733H240.963V201.728H249.073V171.733Z" fill="#E0E0E0"/>
<path d="M303.25 199.974H196V201.72H303.25V199.974Z" fill="#E0E0E0"/>
<path d="M231.215 214.809H223.055V232.015H231.215V214.809Z" fill="white"/>
<path d="M252.231 238.764C252.231 238.948 241.439 239.09 228.133 239.09C214.828 239.09 204.027 238.948 204.027 238.764C204.027 238.581 214.819 238.455 228.133 238.455C241.448 238.455 252.231 238.581 252.231 238.764Z" fill="#E0E0E0"/>
<path d="M279.836 214.809H271.676V232.015H279.836V214.809Z" fill="#F5F5F5"/>
<path d="M300.844 238.764C300.844 238.948 290.052 239.09 276.746 239.09C263.44 239.09 252.648 238.948 252.648 238.764C252.648 238.581 263.432 238.439 276.746 238.439C290.061 238.439 300.844 238.581 300.844 238.764Z" fill="#EBEBEB"/>
<path d="M279.836 248.963H271.676V266.17H279.836V248.963Z" fill="#F5F5F5"/>
<path d="M300.844 272.927C300.844 273.103 290.052 273.253 276.746 273.253C263.44 273.253 252.648 273.103 252.648 272.927C252.648 272.752 263.432 272.593 276.746 272.593C290.061 272.593 300.844 272.744 300.844 272.927Z" fill="#EBEBEB"/>
<path d="M279.836 284.154H271.676V301.36H279.836V284.154Z" fill="#F5F5F5"/>
<path d="M300.844 308.118C300.844 308.293 290.052 308.444 276.746 308.444C263.44 308.444 252.648 308.293 252.648 308.118C252.648 307.942 263.432 307.784 276.746 307.784C290.061 307.784 300.844 307.934 300.844 308.118Z" fill="#EBEBEB"/>
<path d="M279.836 319.344H271.676V336.551H279.836V319.344Z" fill="#F5F5F5"/>
<path d="M300.844 343.3C300.844 343.483 290.052 343.634 276.746 343.634C263.44 343.634 252.648 343.483 252.648 343.3C252.648 343.116 263.432 342.974 276.746 342.974C290.061 342.974 300.844 343.124 300.844 343.3Z" fill="#EBEBEB"/>
<path d="M231.215 249.49H223.055V266.696H231.215V249.49Z" fill="white"/>
<path d="M252.231 273.445C252.231 273.629 241.439 273.771 228.133 273.771C214.828 273.771 204.027 273.629 204.027 273.445C204.027 273.262 214.819 273.12 228.133 273.12C241.448 273.12 252.231 273.262 252.231 273.445Z" fill="#E0E0E0"/>
<path d="M231.215 284.17H223.055V301.377H231.215V284.17Z" fill="white"/>
<path d="M252.231 308.126C252.231 308.31 241.439 308.452 228.133 308.452C214.828 308.452 204.027 308.31 204.027 308.126C204.027 307.942 214.819 307.784 228.133 307.784C241.448 307.784 252.231 307.942 252.231 308.126Z" fill="#E0E0E0"/>
<path d="M231.215 318.851H223.055V336.058H231.215V318.851Z" fill="white"/>
<path d="M252.231 342.807C252.231 342.991 241.439 343.133 228.133 343.133C214.828 343.133 204.027 342.991 204.027 342.807C204.027 342.623 214.819 342.481 228.133 342.481C241.448 342.481 252.231 342.623 252.231 342.807Z" fill="#E0E0E0"/>
<path d="M757.792 118.175C758.486 113.113 751.344 108.987 745.973 108.519C743.417 108.31 740.753 108.703 738.33 107.859C733.076 106.03 730.98 99.2392 725.851 97.0759C722.017 95.4554 717.599 96.9004 713.89 98.7464C710.181 100.592 706.498 102.965 702.347 103.232C698.738 103.466 694.829 102.121 691.655 103.892C689.3 105.203 688.063 107.918 685.892 109.522C683.72 111.125 681.005 111.418 678.374 111.56C675.743 111.702 673.012 111.727 670.614 112.829C668.217 113.932 666.229 116.463 666.73 119.052L757.792 118.175Z" fill="#F5F5F5"/>
<path d="M779.151 298.403H701.604V354.15H779.151V298.403Z" fill="#EBEBEB"/>
<path d="M722.4 298.403C722.517 298.403 722.4 310.172 722.4 310.172H716.662V298.403H722.4Z" fill="#F5F5F5"/>
<path d="M740.377 354.15H779.15V298.403H740.377V354.15Z" fill="#E0E0E0"/>
<path d="M714.349 343.241H703.967V350.583H714.349V343.241Z" fill="white"/>
<path d="M721.457 343.241H716.27V350.583H721.457V343.241Z" fill="white"/>
<path d="M771.784 262.102H721.291V298.404H771.784V262.102Z" fill="#EBEBEB"/>
<path d="M734.838 262.102C734.905 262.102 734.838 269.77 734.838 269.77H731.096V262.102H734.838Z" fill="#F5F5F5"/>
<path d="M746.541 298.403H771.783V262.102H746.541V298.403Z" fill="#E0E0E0"/>
<path d="M729.593 291.295H722.836V296.081H729.593V291.295Z" fill="white"/>
<path d="M734.221 291.295H730.838V296.081H734.221V291.295Z" fill="white"/>
<path d="M255.674 20.8653C256.066 18.0003 252.024 15.6364 248.992 15.3942C247.538 15.2773 246.035 15.4944 244.656 15.0183C241.683 13.9826 240.48 10.1403 237.59 8.91243C235.418 7.99363 232.921 8.8122 230.816 9.873C228.711 10.9338 226.639 12.2619 224.284 12.3788C222.238 12.5125 220.016 11.7524 218.228 12.7547C216.892 13.4981 216.19 15.035 214.962 15.9371C213.682 16.7308 212.2 17.1369 210.694 17.1065C209.197 17.0641 207.706 17.3079 206.3 17.8249C204.939 18.443 203.795 19.8796 204.095 21.3497L255.674 20.8653Z" fill="#EBEBEB"/>
<path d="M771.874 79.0592C772.258 76.261 768.315 73.964 765.35 73.7218C763.939 73.6132 762.468 73.822 761.124 73.3626C758.225 72.3436 757.064 68.5932 754.233 67.3987C752.119 66.5133 749.68 67.3068 747.626 68.3342C745.571 69.3616 743.541 70.673 741.252 70.8401C739.256 70.9737 737.076 70.2303 735.347 71.2076C734.044 71.9343 733.367 73.4294 732.165 74.3148C730.91 75.0837 729.46 75.4752 727.988 75.4425C726.528 75.404 725.074 75.642 723.703 76.1441C722.375 76.7455 721.281 78.1488 721.557 79.5771L771.874 79.0592Z" fill="#EBEBEB"/>
<path d="M344.471 38.6147C345.189 33.3775 337.788 29.0675 332.251 28.5914C329.594 28.3825 326.846 28.7835 324.34 27.9148C318.903 26.0187 316.731 18.994 311.427 16.7555C307.459 15.0849 302.899 16.5717 299.057 18.5095C295.214 20.4474 291.414 22.8781 287.12 23.1537C283.378 23.3959 279.327 22.0094 276.053 23.8303C273.622 25.1918 272.344 28.0067 270.097 29.6772C267.85 31.3478 265.044 31.6401 262.313 31.7905C259.581 31.9408 256.766 31.9659 254.286 33.1019C251.805 34.2378 249.758 36.8606 250.268 39.5419L344.471 38.6147Z" fill="#F5F5F5"/>
<path d="M820 354.15C820 354.275 636.402 354.367 410 354.367C183.598 354.367 0 354.275 0 354.15C0 354.025 183.562 353.933 410.06 353.933C636.558 353.933 820 354.033 820 354.15Z" fill="#263238"/>
<path d="M437.043 319.177C437.93 319.384 438.766 319.769 439.501 320.307C440.236 320.845 440.855 321.526 441.32 322.309C442.246 323.881 442.797 325.644 442.932 327.463C443.3 330.963 442.097 334.838 440.627 338.021C437.202 336.142 435.615 331.915 434.888 329.718C433.802 326.243 433.944 319.302 437.043 319.177Z" fill="#059CE1"/>
<path d="M445.204 342.924C444.794 341.99 444.638 340.965 444.751 339.952C444.863 338.938 445.242 337.973 445.847 337.152C446.468 336.345 447.244 335.669 448.129 335.165C449.013 334.66 449.99 334.336 451.001 334.212C451.459 334.104 451.935 334.098 452.395 334.195C452.856 334.292 453.289 334.489 453.665 334.772C453.967 335.092 454.179 335.486 454.28 335.914C454.381 336.342 454.368 336.789 454.242 337.211C453.966 338.048 453.476 338.8 452.822 339.391C450.675 341.496 448.211 343.149 445.204 342.924Z" fill="#059CE1"/>
<path d="M443.826 354.192C443.782 353.955 443.763 353.714 443.768 353.473C443.768 352.956 443.726 352.296 443.701 351.502C443.559 349.319 443.771 347.128 444.327 345.012C444.923 342.889 446.076 340.965 447.669 339.441C448.152 338.989 448.688 338.597 449.264 338.271C449.419 338.179 449.581 338.098 449.748 338.029C449.857 337.979 449.915 337.954 449.924 337.962C449.159 338.427 448.443 338.967 447.786 339.574C446.269 341.113 445.166 343.009 444.578 345.087C444.029 347.179 443.798 349.342 443.893 351.502C443.893 352.337 443.893 353.006 443.893 353.473C443.894 353.714 443.872 353.955 443.826 354.192Z" fill="#263238"/>
<path d="M437.421 324.489C437.465 324.583 437.499 324.681 437.521 324.782C437.588 325.007 437.663 325.299 437.763 325.617C437.972 326.377 438.264 327.471 438.598 328.833C439.292 331.547 440.194 335.306 441.104 339.491C442.015 343.676 442.733 347.468 443.226 350.233C443.468 351.611 443.66 352.738 443.777 353.499C443.836 353.866 443.877 354.167 443.911 354.392C443.918 354.498 443.918 354.604 443.911 354.71C443.871 354.61 443.843 354.507 443.827 354.401C443.777 354.175 443.719 353.883 443.644 353.515C443.493 352.722 443.276 351.611 443.017 350.266C442.482 347.518 441.722 343.717 440.829 339.541C439.935 335.365 439.049 331.597 438.406 328.874C438.089 327.53 437.83 326.435 437.646 325.642L437.446 324.807C437.426 324.702 437.417 324.596 437.421 324.489Z" fill="#263238"/>
<path d="M440.694 346.09C439.891 344.097 438.625 342.325 437.001 340.919C435.377 339.513 433.442 338.514 431.356 338.004C430.295 337.754 428.975 337.728 428.34 338.622C427.706 339.516 428.173 340.752 428.775 341.663C430.072 343.538 431.895 344.988 434.015 345.83C436.134 346.671 438.455 346.866 440.686 346.39" fill="#059CE1"/>
<path d="M432.533 341.145C432.76 341.162 432.984 341.204 433.202 341.27C433.461 341.329 433.718 341.401 433.97 341.487C434.271 341.596 434.613 341.679 434.972 341.846C435.372 342.003 435.762 342.181 436.142 342.381C436.582 342.601 437.008 342.846 437.42 343.116C438.368 343.735 439.243 344.461 440.026 345.279C440.798 346.109 441.47 347.025 442.031 348.011C442.27 348.44 442.485 348.884 442.674 349.339C442.845 349.731 442.996 350.133 443.125 350.541C443.232 350.879 443.321 351.222 443.392 351.569C443.463 351.826 443.513 352.089 443.542 352.354C443.59 352.576 443.616 352.803 443.618 353.031C443.559 353.031 443.451 352.07 442.949 350.6C442.815 350.199 442.659 349.806 442.482 349.422C442.288 348.977 442.068 348.545 441.822 348.127C441.264 347.165 440.6 346.268 439.842 345.455C439.086 344.654 438.246 343.937 437.336 343.316C436.932 343.044 436.514 342.793 436.083 342.565C435.691 342.339 435.298 342.172 434.947 342.013C433.469 341.395 432.517 341.195 432.533 341.145Z" fill="#263238"/>
<path d="M703.04 345.371C703.357 344.152 702.555 342.924 701.653 342.03C700.751 341.136 699.674 340.359 699.206 339.173C698.446 337.269 699.465 334.805 698.17 333.218C697.41 332.282 696.048 331.965 695.372 330.971C695.059 330.418 694.852 329.812 694.762 329.183C694.04 326.021 692.483 323.11 690.252 320.755C690.106 323.574 690.717 326.38 692.022 328.883C692.635 329.843 693.084 330.899 693.351 332.007C693.635 333.819 692.624 335.682 693.067 337.461C693.576 339.491 695.856 340.852 695.965 342.94C696.057 344.711 694.512 346.281 694.629 348.036C694.724 348.786 694.992 349.504 695.414 350.132C696.022 351.301 696.947 352.276 698.083 352.945C699.218 353.614 700.519 353.951 701.837 353.916L705.571 354.05L703.04 345.371Z" fill="#059CE1"/>
<g opacity="0.3">
<path opacity="0.3" d="M703.04 345.371C703.357 344.152 702.555 342.924 701.653 342.03C700.751 341.136 699.674 340.359 699.206 339.173C698.446 337.269 699.465 334.805 698.17 333.218C697.41 332.282 696.048 331.965 695.372 330.971C695.059 330.418 694.852 329.812 694.762 329.183C694.04 326.021 692.483 323.11 690.252 320.755C690.106 323.574 690.717 326.38 692.022 328.883C692.635 329.843 693.084 330.899 693.351 332.007C693.635 333.819 692.624 335.682 693.067 337.461C693.576 339.491 695.856 340.852 695.965 342.94C696.057 344.711 694.512 346.281 694.629 348.036C694.724 348.786 694.992 349.504 695.414 350.132C696.022 351.301 696.947 352.276 698.083 352.945C699.218 353.614 700.519 353.951 701.837 353.916L705.571 354.05L703.04 345.371Z" fill="black"/>
</g>
<path d="M706.322 354.133C706.662 354.194 707.01 354.194 707.349 354.133C707.762 354.073 708.168 353.972 708.56 353.833C709.102 353.639 709.607 353.357 710.056 352.997C710.33 352.776 710.542 352.489 710.674 352.162C710.784 351.802 710.843 351.428 710.849 351.051C710.855 350.646 710.886 350.241 710.941 349.84C711.009 349.415 711.162 349.009 711.392 348.645C711.995 347.875 712.469 347.012 712.795 346.089C712.977 345.005 712.943 343.895 712.695 342.824C712.426 341.666 712.457 340.458 712.787 339.315C713.188 338.154 713.998 337.094 714.407 335.782C714.817 334.471 714.625 333.026 714.716 331.606C714.741 330.89 714.906 330.186 715.201 329.534C715.502 328.874 715.919 328.256 716.245 327.563C716.814 326.106 717.139 324.565 717.206 323.002C717.298 322.217 717.389 321.424 717.473 320.622C717.528 319.813 717.668 319.012 717.891 318.233C718.138 317.446 718.437 316.676 718.784 315.928C718.958 315.535 719.103 315.13 719.219 314.716C719.285 314.282 719.311 313.881 719.336 313.438C719.377 312.577 719.344 311.713 719.235 310.857C719.135 310.022 718.976 309.137 718.885 308.276V308.126V307.959L718.734 308.034C717.944 308.429 717.255 309 716.721 309.705C716.206 310.4 715.792 311.165 715.493 311.977C714.957 313.566 714.568 315.202 714.332 316.863C714.093 318.446 713.573 319.974 712.795 321.374C712.386 322.033 711.893 322.643 711.459 323.286C710.996 323.919 710.679 324.646 710.532 325.416C710.315 326.995 711.183 328.382 711 329.776C710.919 330.464 710.688 331.126 710.323 331.714C709.98 332.307 709.588 332.859 709.204 333.385C708.818 333.926 708.486 334.502 708.21 335.106C707.944 335.696 707.788 336.33 707.75 336.977C707.658 338.23 707.834 339.424 707.75 340.552C707.648 341.624 707.336 342.665 706.831 343.617C706.38 344.536 705.879 345.363 705.462 346.123C705.252 346.511 705.062 346.91 704.894 347.317C704.744 347.697 704.635 348.092 704.568 348.495C704.464 349.201 704.464 349.919 704.568 350.625C704.67 351.611 705.04 352.549 705.637 353.34C705.731 353.454 705.832 353.562 705.938 353.665C706.014 353.743 706.098 353.813 706.188 353.874L706.397 354.025C706.134 353.81 705.893 353.569 705.679 353.306C705.098 352.517 704.746 351.584 704.66 350.608C704.578 349.911 704.594 349.205 704.71 348.512C704.784 348.118 704.895 347.732 705.044 347.359C705.213 346.96 705.402 346.569 705.612 346.19C706.03 345.354 706.539 344.569 706.999 343.642C707.517 342.676 707.841 341.617 707.951 340.527C708.051 339.374 707.876 338.171 707.951 336.943C707.991 336.319 708.144 335.708 708.402 335.139C708.677 334.552 709.007 333.993 709.387 333.468C709.763 332.917 710.164 332.366 710.515 331.756C710.896 331.145 711.139 330.458 711.225 329.743C711.409 328.248 710.548 326.853 710.766 325.391C710.913 324.654 711.221 323.958 711.668 323.353C712.085 322.718 712.587 322.117 713.004 321.432C713.803 320.012 714.335 318.458 714.575 316.846C714.815 315.201 715.201 313.579 715.727 312.002C716.023 311.211 716.428 310.466 716.93 309.788C717.436 309.106 718.093 308.551 718.851 308.168L718.684 308.068V308.218C718.776 309.095 718.935 309.947 719.035 310.799C719.134 311.63 719.165 312.468 719.127 313.305C719.117 313.721 719.08 314.137 719.018 314.549C718.91 314.95 718.771 315.341 718.601 315.719C718.25 316.475 717.948 317.254 717.698 318.049C717.475 318.84 717.335 319.652 717.281 320.471C717.189 321.307 717.097 322.075 717.014 322.86C716.949 324.397 716.633 325.912 716.078 327.346C715.769 328.022 715.351 328.649 715.034 329.334C714.732 330.011 714.564 330.74 714.541 331.48C714.458 332.917 714.641 334.329 714.257 335.598C713.873 336.868 713.054 337.929 712.645 339.132C712.31 340.302 712.281 341.539 712.562 342.723C712.809 343.774 712.852 344.864 712.687 345.931C712.363 346.834 711.898 347.679 711.309 348.437C711.074 348.817 710.918 349.24 710.849 349.681C710.798 350.086 710.77 350.493 710.766 350.901C710.766 351.268 710.713 351.634 710.607 351.987C710.482 352.291 710.284 352.561 710.031 352.772C709.593 353.129 709.099 353.411 708.569 353.607C708.182 353.752 707.782 353.858 707.374 353.924C707.124 353.976 706.87 354.001 706.614 354L706.322 354.133Z" fill="#263238"/>
<path d="M718.073 310.189C718.07 310.228 718.07 310.267 718.073 310.306L717.989 310.64C717.914 310.933 717.831 311.375 717.689 311.935C717.547 312.495 717.204 313.104 716.912 313.881C716.57 314.745 716.275 315.626 716.026 316.521C715.742 317.523 715.492 318.626 715.191 319.803C714.967 321.07 714.565 322.299 713.997 323.453C713.696 324.055 713.345 324.673 713.078 325.341C712.807 326.028 712.625 326.747 712.535 327.479C712.338 328.997 712.059 330.503 711.7 331.99C710.956 335.047 710.238 337.962 709.595 340.61C708.952 343.258 708.325 345.622 707.824 347.643C707.323 349.664 706.93 351.243 706.655 352.387C706.521 352.93 706.421 353.365 706.346 353.674L706.27 354.016C706.267 354.055 706.267 354.094 706.27 354.133C706.27 354.133 706.27 354.091 706.312 354.016L706.412 353.691C706.496 353.373 706.613 352.947 706.763 352.404C707.056 351.268 707.482 349.664 708.008 347.685C708.534 345.705 709.135 343.3 709.82 340.669C710.505 338.037 711.199 335.106 711.95 332.048C712.308 330.552 712.587 329.038 712.786 327.513C712.874 326.799 713.048 326.098 713.303 325.425C713.571 324.773 713.905 324.163 714.214 323.545C714.779 322.376 715.179 321.133 715.4 319.853C715.659 318.667 715.901 317.565 716.168 316.571C716.436 315.577 716.736 314.691 717.004 313.923C717.271 313.154 717.605 312.528 717.739 311.952C717.872 311.375 717.939 310.949 717.998 310.649L718.073 310.289C718.073 310.231 718.073 310.189 718.073 310.189Z" fill="#263238"/>
<path d="M706.98 354.142C709.419 352.697 710.112 348.295 709.101 345.655C708.091 343.016 706.303 340.593 706.028 337.77C705.819 335.598 706.529 333.377 706.028 331.255C705.351 328.398 702.561 326.185 702.586 323.245C702.586 321.574 703.547 320.037 703.472 318.392C703.38 316.37 701.801 314.767 700.866 312.987C699.395 310.256 699.304 307.04 698.794 303.983C698.284 300.926 697.123 297.652 694.417 296.148C694.025 298.746 693.34 300.525 693.582 304.033C693.665 305.303 695.127 307.717 695.328 310.482C695.445 312.152 695.528 313.823 695.628 315.443C695.649 317.061 695.913 318.666 696.413 320.204C696.856 321.357 697.566 322.409 697.892 323.595C698.51 325.842 697.7 328.273 698.201 330.545C698.619 332.466 699.955 334.12 700.222 336.075C700.607 338.814 698.836 341.663 699.738 344.277C700.189 345.58 701.258 346.624 701.559 347.961C701.801 349.005 701.559 350.099 701.751 351.143C702.093 352.814 705.309 354.133 707.022 354.033" fill="#059CE1"/>
<path d="M695.086 298.729C695.086 298.729 695.086 298.779 695.086 298.871L695.144 299.297C695.195 299.673 695.261 300.224 695.387 300.968C695.512 301.711 695.888 302.488 696.222 303.474C696.556 304.459 696.84 305.562 697.116 306.815C697.391 308.068 697.625 309.446 697.867 310.933C698.061 312.538 698.483 314.107 699.12 315.594C699.454 316.379 699.839 317.155 700.131 317.982C700.41 318.838 700.581 319.724 700.641 320.622C700.779 322.524 701.018 324.417 701.359 326.293C702.102 330.136 702.812 333.811 703.464 337.152C704.115 340.493 704.758 343.458 705.276 345.981C705.794 348.504 706.22 350.508 706.521 351.928C706.663 352.613 706.78 353.156 706.863 353.54L706.964 353.958L707.005 354.1C707.009 354.053 707.009 354.005 707.005 353.958L706.93 353.532C706.855 353.148 706.755 352.596 706.629 351.903C706.346 350.483 705.945 348.453 705.46 345.948C704.976 343.442 704.316 340.36 703.656 337.018C702.996 333.677 702.311 330.027 701.568 326.16C701.231 324.289 700.991 322.401 700.849 320.505C700.786 319.59 700.609 318.687 700.323 317.815C700.022 316.98 699.638 316.187 699.296 315.418C698.665 313.947 698.24 312.395 698.034 310.807C697.784 309.321 697.542 307.934 697.249 306.681C696.997 305.553 696.687 304.437 696.322 303.34C696.013 302.371 695.629 301.569 695.487 300.834C695.345 300.099 695.27 299.573 695.195 299.205C695.195 299.03 695.136 298.896 695.119 298.788C695.109 298.768 695.098 298.748 695.086 298.729Z" fill="#263238"/>
<path d="M615.85 243.909H244.928V280.979H615.85V243.909Z" fill="#059CE1"/>
<g opacity="0.4">
<path opacity="0.4" d="M615.85 243.909H244.928V280.979H615.85V243.909Z" fill="black"/>
</g>
<path d="M535.486 285.657H425.998V319.987H535.486V285.657Z" fill="#455A64"/>
<path d="M349.488 270.129V315.51H386.875L401.86 293.792H674.838V270.129H349.488Z" fill="#263238"/>
<path d="M347.158 126.428C347.117 125.698 346.791 125.013 346.25 124.521C345.71 124.029 344.998 123.769 344.268 123.796C329.492 124.406 259.345 127.622 244.92 134.555C233.877 139.867 221.782 159.697 213.254 173.053C207.14 182.625 193.633 203.875 190.902 214.742C188.588 223.93 187.193 243.041 187.352 252.521L191.211 302.688H254.784L261.149 286.116C263.18 280.837 266.763 276.298 271.426 273.097C276.089 269.895 281.612 268.182 287.268 268.183H350.44V184.93L347.158 126.428Z" fill="#059CE1"/>
<path d="M237.385 140.109C228.632 148.462 219.845 162.662 213.254 173.053C207.591 181.915 195.596 200.784 191.679 212.161C191.604 212.369 191.545 212.57 191.479 212.779C193.416 212.244 196.398 211.15 197.325 209.312C198.72 206.531 200.508 197 222.609 161.025C229.325 150.058 235.874 143.643 237.385 140.109Z" fill="#455A64"/>
<path d="M314.498 136.392C298.244 137.319 263.003 139.733 251.744 143.559C237.076 148.571 220.613 187.403 219.836 189.107L208.744 217.506C208.682 217.692 208.664 217.89 208.694 218.083C208.723 218.277 208.798 218.461 208.912 218.62C209.026 218.779 209.176 218.908 209.35 218.998C209.524 219.088 209.717 219.135 209.913 219.135H238.588C239.674 219.135 240.752 218.943 241.771 218.567L317.188 190.452C318.853 189.83 320.289 188.715 321.302 187.255C322.316 185.795 322.859 184.06 322.859 182.282V144.302C322.86 143.225 322.641 142.159 322.215 141.169C321.789 140.179 321.166 139.287 320.383 138.546C319.6 137.806 318.675 137.233 317.663 136.862C316.651 136.492 315.574 136.332 314.498 136.392Z" fill="#263238"/>
<path d="M211.941 216.345C211.941 216.345 222.566 192.515 226.141 184.705C231.537 172.911 244.141 148.788 252.653 146.19C260.479 143.843 282.982 140.986 314.656 139.174H314.956C316.317 139.178 317.62 139.721 318.581 140.684C319.542 141.646 320.083 142.951 320.085 144.311V183.151C320.082 184.108 319.788 185.042 319.242 185.828C318.696 186.614 317.924 187.216 317.028 187.553L261.306 194.428C259.073 194.703 256.926 195.462 255.015 196.65C253.104 197.839 251.474 199.429 250.239 201.31L240.583 216.036C240.016 216.246 239.417 216.354 238.812 216.354L211.941 216.345Z" fill="#455A64"/>
<path d="M259.286 194.854L240.342 215.953L250.825 145.898L253.447 144.996L248.285 196.892C248.261 197.152 248.304 197.415 248.41 197.654C248.516 197.893 248.682 198.101 248.892 198.258C249.101 198.415 249.348 198.515 249.607 198.549C249.866 198.584 250.13 198.551 250.373 198.454L259.286 194.854Z" fill="#263238"/>
<path d="M186.107 257.391C186.04 256.48 186.349 255.72 186.817 255.72L196.974 254.785C197.809 254.701 198.586 256.28 198.686 258.126L199.145 265.919C199.221 267.172 198.845 268.233 198.31 268.325L187.953 270.112C187.485 270.196 187.034 269.502 186.967 268.583L186.107 257.391Z" fill="#EBEBEB"/>
<path d="M259.285 293.801H186.098V323.144H259.285V293.801Z" fill="#263238"/>
<path d="M308.141 353.792C330.24 352.943 347.466 334.34 346.617 312.241C345.768 290.142 327.165 272.916 305.066 273.765C282.968 274.614 265.741 293.217 266.59 315.316C267.439 337.415 286.042 354.641 308.141 353.792Z" fill="#263238"/>
<path d="M266.595 313.087C266.6 313.123 266.6 313.16 266.595 313.196C266.455 323.807 270.533 334.04 277.932 341.646C285.332 349.253 295.448 353.611 306.059 353.764C316.669 353.916 326.907 349.851 334.522 342.461C342.138 335.07 346.508 324.959 346.673 314.349C346.673 314.349 346.673 314.282 346.673 314.248L266.595 313.087Z" fill="#263238"/>
<path d="M278.513 313.363C278.431 318.923 280 324.383 283.021 329.052C286.042 333.721 290.38 337.389 295.486 339.592C300.593 341.796 306.237 342.435 311.707 341.43C317.177 340.425 322.225 337.82 326.214 333.946C330.204 330.071 332.954 325.1 334.118 319.662C335.282 314.224 334.807 308.563 332.753 303.395C330.7 298.227 327.16 293.784 322.581 290.628C318.002 287.472 312.59 285.745 307.029 285.665C299.575 285.558 292.384 288.416 287.036 293.61C281.689 298.804 278.623 305.909 278.513 313.363Z" fill="#FAFAFA"/>
<path d="M307.03 285.665C299.576 285.558 292.385 288.416 287.037 293.61C281.689 298.804 278.624 305.909 278.514 313.363L334.736 314.198C334.846 306.74 331.988 299.545 326.792 294.194C321.596 288.843 314.488 285.775 307.03 285.665Z" fill="#E0E0E0"/>
<path d="M289.506 313.522C289.456 316.908 290.413 320.233 292.253 323.076C294.094 325.919 296.736 328.153 299.846 329.494C302.956 330.835 306.394 331.224 309.725 330.611C313.056 329.998 316.13 328.412 318.56 326.051C320.989 323.691 322.663 320.664 323.372 317.352C324.08 314.04 323.79 310.592 322.539 307.445C321.288 304.298 319.132 301.592 316.343 299.67C313.554 297.749 310.258 296.697 306.871 296.649C302.331 296.584 297.951 298.325 294.695 301.489C291.438 304.654 289.572 308.982 289.506 313.522Z" fill="#263238"/>
<path d="M228.955 161.827H225.689C222.008 161.827 219.023 164.811 219.023 168.492V194.996C219.023 198.677 222.008 201.661 225.689 201.661H228.955C232.636 201.661 235.62 198.677 235.62 194.996V168.492C235.62 164.811 232.636 161.827 228.955 161.827Z" fill="#263238"/>
<path d="M212.159 226.285H211.324V184.162C211.326 182.153 212.125 180.228 213.546 178.807C214.966 177.387 216.892 176.588 218.9 176.586H220.905V177.421H218.9C217.113 177.423 215.4 178.134 214.136 179.398C212.873 180.662 212.162 182.375 212.159 184.162V226.285Z" fill="#263238"/>
<path d="M217.847 226.335L215.525 186.952C215.493 186.279 215.596 185.606 215.83 184.973C216.063 184.341 216.422 183.762 216.885 183.272C217.347 182.781 217.904 182.389 218.521 182.118C219.139 181.848 219.805 181.705 220.479 181.698V182.533C219.916 182.533 219.36 182.648 218.844 182.871C218.328 183.094 217.863 183.42 217.477 183.829C217.092 184.238 216.794 184.722 216.602 185.25C216.41 185.779 216.328 186.341 216.361 186.902L218.683 226.294L217.847 226.335Z" fill="#263238"/>
<path d="M220.478 222.493H209.219V235.532H220.478V222.493Z" fill="#263238"/>
<path d="M216.32 197.744H211.742V198.579H216.32V197.744Z" fill="#263238"/>
<path d="M254.54 137.52L255.534 137.386L258.466 137.044L269.826 135.732L312.175 130.913C314.43 130.671 316.727 130.37 319.107 130.161C320.324 130.068 321.547 130.147 322.741 130.395C323.955 130.679 325.127 131.123 326.224 131.715C328.488 132.975 330.324 134.883 331.495 137.194C332.101 138.376 332.51 139.648 332.706 140.961C332.811 141.625 332.87 142.294 332.881 142.966V144.979C332.881 155.762 332.881 167.339 332.881 179.61C332.881 204.15 332.881 231.447 332.881 260.632V260.849H288.887C286.376 260.766 283.862 260.886 281.37 261.208C276.229 261.948 271.379 264.046 267.32 267.287C263.262 270.528 260.142 274.793 258.282 279.643C257.922 280.533 257.618 281.445 257.372 282.374C257.101 283.293 256.886 284.227 256.729 285.172L256.512 286.592L256.411 287.302L256.37 288.012L256.303 289.441V290.159V290.242C256.487 290.059 256.044 290.526 256.077 290.476H200.289V290.242C200.289 277.655 200.289 265.518 200.289 253.924C200.289 248.128 200.289 242.467 200.289 236.943V228.774C200.289 227.429 200.289 226.101 200.289 224.773C200.316 223.452 200.411 222.134 200.573 220.822C201.21 215.769 202.815 210.885 205.301 206.439C207.601 202.112 209.828 197.936 211.983 193.91L223.827 171.716L233.441 153.699C234.143 152.391 234.817 151.124 235.463 149.899C235.797 149.297 236.089 148.688 236.44 148.12C236.786 147.565 237.162 147.029 237.568 146.516C239.016 144.71 240.721 143.125 242.629 141.813C245.257 140.03 248.195 138.752 251.291 138.046C252.354 137.791 253.435 137.615 254.524 137.52L253.688 137.645C253.146 137.729 252.344 137.871 251.291 138.113C248.213 138.841 245.296 140.132 242.688 141.922C240.796 143.236 239.107 144.82 237.676 146.625C237.272 147.129 236.901 147.659 236.565 148.212C236.223 148.763 235.93 149.381 235.596 149.991L233.583 153.8L224.053 171.833C220.478 178.566 216.535 185.991 212.275 194.043L205.593 206.572C203.131 210.985 201.545 215.832 200.924 220.847C200.765 222.148 200.673 223.455 200.648 224.765C200.648 226.076 200.648 227.421 200.648 228.758V236.927C200.648 242.445 200.648 248.105 200.648 253.908C200.648 265.501 200.648 277.638 200.648 290.226L200.439 290.025H256.011C256.069 289.983 255.61 290.426 255.802 290.226V290.134V289.415L255.877 287.962V287.244L255.985 286.525L256.203 285.08C256.361 284.121 256.579 283.173 256.854 282.24C257.104 281.297 257.414 280.371 257.781 279.467C259.67 274.547 262.837 270.219 266.955 266.93C271.074 263.642 275.995 261.511 281.211 260.757C283.703 260.44 286.217 260.32 288.728 260.398H332.522L332.305 260.607C332.305 231.455 332.305 204.159 332.305 179.585C332.305 167.314 332.305 155.737 332.305 144.954C332.359 143.629 332.303 142.302 332.138 140.986C331.948 139.703 331.55 138.459 330.96 137.303C329.826 135.043 328.036 133.18 325.823 131.957C324.757 131.373 323.616 130.938 322.432 130.662C321.266 130.416 320.071 130.335 318.882 130.42C316.518 130.621 314.204 130.921 311.958 131.164L269.617 135.849L258.249 137.094L255.317 137.403L254.54 137.52Z" fill="#263238"/>
<path d="M319.551 229.835C319.551 229.835 319.785 229.835 320.203 229.735C320.817 229.626 321.402 229.393 321.924 229.05C322.745 228.511 323.361 227.711 323.669 226.778C323.858 226.196 323.935 225.584 323.895 224.974C323.877 224.297 323.702 223.634 323.385 223.036C323.022 222.352 322.481 221.777 321.82 221.373C321.159 220.969 320.401 220.75 319.627 220.739H314.114H301.484C300.433 220.74 299.418 221.128 298.635 221.829C297.851 222.53 297.352 223.495 297.233 224.539C297.102 225.531 297.286 226.54 297.759 227.421C298.228 228.255 298.964 228.908 299.847 229.275C300.721 229.579 301.649 229.693 302.57 229.61H305.243H310.046L317.004 229.676H318.9C319.118 229.672 319.336 229.689 319.551 229.726C319.335 229.753 319.118 229.767 318.9 229.768H317.004L310.046 229.835H305.243H302.57C302.102 229.835 301.651 229.835 301.159 229.835C300.657 229.798 300.165 229.685 299.697 229.501C298.731 229.1 297.925 228.389 297.408 227.48C296.889 226.523 296.685 225.427 296.823 224.347C296.953 223.201 297.499 222.141 298.358 221.371C299.218 220.601 300.33 220.174 301.484 220.171H314.114H319.627C320.831 220.195 321.98 220.687 322.828 221.543C323.676 222.399 324.158 223.552 324.17 224.757C324.197 225.395 324.104 226.032 323.895 226.636C323.551 227.606 322.889 228.43 322.015 228.975C321.471 229.314 320.857 229.528 320.22 229.601C320.007 229.706 319.783 229.785 319.551 229.835Z" fill="#263238"/>
<path d="M318.022 219.344C315.642 219.553 313.252 219.623 310.864 219.553C308.473 219.623 306.08 219.554 303.697 219.344C306.08 219.129 308.473 219.056 310.864 219.127C313.252 219.057 315.643 219.129 318.022 219.344Z" fill="white"/>
<path d="M262.618 323.386L255.936 322.902C257.681 298.971 260.237 284.654 263.754 279.133C270.503 268.525 277.21 266.604 284.636 265.343C291.552 264.165 298.526 264.441 305.275 264.716L306.946 264.783C320.878 265.326 350.063 264.841 350.381 264.841L350.489 271.524C350.197 271.524 320.828 272.016 306.712 271.465L305.042 271.398C298.635 271.148 292.02 270.872 285.788 271.941C279.148 273.069 274.729 274.364 269.4 282.733C267.788 285.231 264.764 293.909 262.618 323.386Z" fill="#263238"/>
<path d="M683.023 50.7847H353.939V269.895H683.023V50.7847Z" fill="#059CE1"/>
<path d="M679.081 265.56C679.081 264.149 679.014 183.786 678.905 55.7381L679.081 55.9052L357.498 55.9553L357.716 55.7381C357.716 130.32 357.716 201.311 357.716 265.56L357.515 265.36L679.098 265.56L357.515 265.761H357.281V265.56C357.281 201.311 357.281 130.32 357.281 55.7381V55.5293H357.523L679.106 55.5711H679.281V55.7465C679.148 183.786 679.081 264.157 679.081 265.56Z" fill="#263238"/>
<g opacity="0.5">
<path opacity="0.5" d="M400.598 168.325L403.705 230.996L647.765 180.228L643.447 114.9L400.598 168.325Z" fill="black"/>
</g>
<path d="M449.254 110.34V165.076L588.345 134.488L588.294 80.3867L449.254 110.34Z" fill="#059CE1"/>
<g opacity="0.3">
<path opacity="0.3" d="M449.252 110.34V165.076L588.343 134.488L588.292 80.3872L449.252 110.34Z" fill="black"/>
</g>
<path d="M604.289 110.34L653.545 98.8046L651.599 93.5591L604.289 110.34Z" fill="#FAFAFA"/>
<path d="M383.734 147.201L417.981 139.182L416.628 135.541L383.734 147.201Z" fill="#FAFAFA"/>
<path d="M500.982 229.718L550.239 218.174L548.301 212.937L500.982 229.718Z" fill="#FAFAFA"/>
<path d="M566.275 84.1042C566.275 84.2211 539.981 90.5108 507.497 98.1452C475.013 105.78 448.643 111.886 448.609 111.769C448.576 111.652 474.896 105.362 507.396 97.7276C539.897 90.0931 566.25 83.9873 566.275 84.1042Z" fill="#FAFAFA"/>
<path d="M448.884 159.58C448.884 159.697 437.608 162.085 423.642 164.892C409.676 167.699 398.342 169.904 398.316 169.787C398.291 169.67 409.593 167.281 423.559 164.466C437.524 161.651 448.859 159.463 448.884 159.58Z" fill="#FAFAFA"/>
<path d="M449.329 154.626C449.291 154.482 449.274 154.333 449.279 154.184C449.279 153.841 449.279 153.424 449.237 152.922C449.237 151.761 449.237 150.191 449.17 148.278C449.17 144.294 449.103 138.906 449.07 132.951C449.036 126.995 448.953 121.599 448.911 117.624C448.911 115.711 448.861 114.14 448.844 112.979V111.71C448.823 111.566 448.823 111.419 448.844 111.275C448.883 111.417 448.902 111.563 448.903 111.71C448.903 112.052 448.953 112.461 448.986 112.971C449.053 114.065 449.12 115.652 449.187 117.615C449.329 121.533 449.437 126.954 449.479 132.943C449.521 138.931 449.479 144.352 449.479 148.27C449.479 150.191 449.429 151.761 449.412 152.922C449.412 153.424 449.412 153.841 449.37 154.184C449.369 154.332 449.355 154.48 449.329 154.626Z" fill="#FAFAFA"/>
<path d="M307.164 154.543C307.164 154.543 307.063 154.643 306.855 154.802L305.936 155.462C305.1 156.038 303.956 156.84 302.503 157.834C299.588 159.805 295.528 162.495 291.001 165.393C286.474 168.292 282.339 170.856 279.307 172.685C277.804 173.596 276.576 174.356 275.724 174.824L274.738 175.375C274.626 175.447 274.505 175.506 274.379 175.55C274.379 175.55 274.479 175.45 274.688 175.308L275.632 174.673L279.148 172.426L290.75 165.026L302.311 157.575L305.827 155.328L306.796 154.727C306.912 154.652 307.035 154.591 307.164 154.543Z" fill="#FAFAFA"/>
<path d="M292.89 158.318C292.89 158.318 292.79 158.419 292.581 158.577L291.662 159.237C290.827 159.805 289.683 160.615 288.221 161.601C285.306 163.581 281.246 166.262 276.728 169.119C272.209 171.975 268.066 174.59 265.034 176.419C263.53 177.329 262.302 178.089 261.45 178.549L260.465 179.108C260.354 179.182 260.233 179.239 260.105 179.276C260.199 179.183 260.303 179.102 260.415 179.033L261.358 178.407L264.867 176.152L276.477 168.759L288.037 161.309L291.554 159.053L292.514 158.46C292.633 158.397 292.759 158.349 292.89 158.318Z" fill="#FAFAFA"/>
<path d="M222.566 182.634C222.438 182.405 222.35 182.157 222.307 181.899C222.173 181.422 221.99 180.721 221.781 179.852C221.232 177.582 220.951 175.255 220.946 172.919C220.934 170.56 221.477 168.231 222.533 166.12C222.863 165.489 223.26 164.895 223.719 164.349C223.873 164.141 224.059 163.958 224.27 163.806C223.737 164.598 223.246 165.418 222.8 166.262C221.848 168.361 221.361 170.64 221.371 172.944C221.397 175.252 221.646 177.551 222.115 179.81C222.324 180.741 222.474 181.684 222.566 182.634Z" fill="#FAFAFA"/>
<path d="M188.554 241.855C188.524 241.558 188.524 241.258 188.554 240.961C188.554 240.36 188.554 239.491 188.604 238.455C188.671 236.308 188.83 233.343 189.088 230.102C189.347 226.861 189.656 223.888 189.924 221.75C190.057 220.68 190.174 219.82 190.266 219.244C190.298 218.934 190.362 218.629 190.458 218.333C190.5 218.644 190.5 218.958 190.458 219.269L190.241 221.775C190.057 224.013 189.807 226.912 189.531 230.127C189.256 233.343 189.088 236.233 188.93 238.48C188.855 239.483 188.788 240.326 188.738 240.986C188.712 241.282 188.651 241.574 188.554 241.855Z" fill="#FAFAFA"/>
<path d="M280.092 258.067C280.092 258.159 278.48 258.385 275.982 259.195C274.52 259.67 273.094 260.247 271.714 260.924C268.332 262.603 265.273 264.865 262.676 267.606C261.616 268.718 260.636 269.905 259.744 271.156C258.232 273.303 257.522 274.781 257.447 274.74C257.571 274.375 257.728 274.023 257.915 273.687C258.102 273.279 258.314 272.883 258.55 272.501C258.817 272.05 259.109 271.524 259.494 270.981C260.358 269.689 261.325 268.469 262.384 267.331C263.696 265.94 265.124 264.663 266.652 263.513C268.194 262.394 269.832 261.413 271.547 260.582C272.947 259.909 274.4 259.35 275.89 258.911C276.517 258.702 277.11 258.585 277.619 258.46C278.057 258.354 278.501 258.27 278.947 258.209C279.323 258.125 279.707 258.078 280.092 258.067Z" fill="#FAFAFA"/>
<path d="M362.35 207.642C362.339 207.522 362.339 207.402 362.35 207.282C362.35 207.026 362.35 206.676 362.35 206.23C362.35 205.278 362.35 203.916 362.291 202.179C362.241 198.637 362.174 193.551 362.082 187.278C361.857 174.673 361.548 157.308 361.205 138.121C360.863 118.935 360.571 101.536 360.454 88.9569C360.395 82.6672 360.378 77.572 360.387 74.0555C360.387 72.3098 360.387 70.9483 360.387 70.0044V68.9519C360.387 68.7097 360.387 68.5928 360.387 68.5928C360.398 68.7122 360.398 68.8325 360.387 68.9519C360.387 69.2025 360.387 69.5533 360.387 70.0044C360.387 70.9483 360.387 72.3098 360.445 74.0555C360.495 77.5971 360.562 82.6756 360.654 88.9485C360.88 101.553 361.189 118.918 361.531 138.113C361.874 157.308 362.174 174.69 362.283 187.269C362.341 193.567 362.366 198.654 362.358 202.171C362.358 203.916 362.358 205.278 362.358 206.23C362.358 206.673 362.358 207.024 362.358 207.282C362.362 207.402 362.36 207.522 362.35 207.642Z" fill="#FAFAFA"/>
<path d="M604.022 353.746C626.12 352.862 643.317 334.232 642.433 312.134C641.549 290.037 622.919 272.839 600.822 273.723C578.724 274.607 561.527 293.237 562.411 315.334C563.294 337.432 581.924 354.629 604.022 353.746Z" fill="#263238"/>
<path d="M562.367 313.087C562.367 313.087 562.367 313.163 562.367 313.196C562.215 323.814 566.286 334.058 573.686 341.674C581.086 349.29 591.208 353.654 601.826 353.807C612.444 353.96 622.688 349.889 630.304 342.489C637.92 335.089 642.284 324.967 642.437 314.349V314.248L562.367 313.087Z" fill="#263238"/>
<path d="M574.286 313.363C574.206 318.921 575.775 324.378 578.796 329.045C581.818 333.711 586.154 337.376 591.259 339.578C596.363 341.78 602.005 342.418 607.473 341.413C612.94 340.408 617.986 337.804 621.974 333.931C625.961 330.058 628.711 325.09 629.875 319.654C631.038 314.218 630.564 308.56 628.512 303.394C626.46 298.227 622.923 293.786 618.346 290.63C613.77 287.474 608.361 285.747 602.803 285.665C595.349 285.558 588.157 288.416 582.81 293.61C577.462 298.804 574.396 305.909 574.286 313.363Z" fill="#FAFAFA"/>
<path d="M602.802 285.665C599.11 285.611 595.445 286.285 592.014 287.647C588.583 289.01 585.454 291.035 582.806 293.607C580.158 296.179 578.043 299.248 576.581 302.638C575.119 306.027 574.339 309.672 574.285 313.363L630.499 314.198C630.556 310.506 629.884 306.838 628.522 303.405C627.16 299.973 625.136 296.842 622.563 294.192C619.991 291.542 616.922 289.425 613.531 287.962C610.14 286.499 606.494 285.718 602.802 285.665Z" fill="#E0E0E0"/>
<path d="M585.312 313.522C585.263 316.908 586.219 320.233 588.06 323.076C589.901 325.919 592.543 328.153 595.653 329.494C598.763 330.835 602.201 331.224 605.532 330.611C608.863 329.998 611.937 328.412 614.366 326.051C616.795 323.691 618.47 320.664 619.178 317.352C619.887 314.04 619.597 310.592 618.346 307.445C617.095 304.298 614.938 301.592 612.149 299.67C609.36 297.749 606.064 296.697 602.678 296.649C598.138 296.584 593.758 298.325 590.501 301.489C587.245 304.654 585.378 308.982 585.312 313.522Z" fill="#263238"/>
<path d="M549.762 324.739C549.762 324.739 543.664 267.94 602.518 267.94C656.811 267.94 655.608 316.788 655.09 324.347H646.579C646.579 324.347 650.914 276.201 602.518 276.201C554.122 276.201 558.332 325.324 558.332 325.324C558.332 325.324 554.757 325.149 549.762 324.739Z" fill="#455A64"/>
<path d="M581.286 273.821C581.14 273.896 580.986 273.952 580.827 273.988C580.517 274.097 580.058 274.205 579.49 274.406C577.857 274.925 576.259 275.547 574.704 276.268C569.559 278.628 565.001 282.1 561.358 286.433C557.715 290.766 555.079 295.852 553.638 301.327C553.197 302.975 552.86 304.648 552.628 306.338C552.536 306.94 552.502 307.408 552.452 307.725C552.438 307.888 552.41 308.051 552.369 308.209C552.348 308.049 552.348 307.886 552.369 307.725C552.369 307.399 552.369 306.89 552.469 306.322C552.634 304.603 552.93 302.9 553.354 301.226C554.723 295.669 557.349 290.499 561.031 286.116C564.712 281.732 569.349 278.252 574.587 275.943C576.162 275.239 577.787 274.653 579.448 274.188C580.033 274.021 580.501 273.93 580.81 273.854C580.967 273.826 581.126 273.814 581.286 273.821Z" fill="#FAFAFA"/>
<path d="M725.848 331.623L732.964 342.331L736.163 352.421C736.216 352.594 736.305 352.755 736.423 352.892C736.541 353.029 736.686 353.141 736.849 353.219C737.012 353.298 737.19 353.342 737.371 353.348C737.552 353.354 737.732 353.323 737.901 353.256C738.104 353.188 738.287 353.069 738.433 352.912C738.579 352.754 738.683 352.562 738.736 352.354C739.388 349.715 741.735 339.992 741.175 339.232C740.615 338.472 734.409 327.446 734.409 327.446L725.848 331.623Z" fill="#455A64"/>
<g opacity="0.6">
<path opacity="0.6" d="M737.9 353.248L740.674 338.497L740.966 338.956C741.22 339.353 741.323 339.827 741.258 340.293C741.083 341.537 740.515 344.97 738.752 352.321C738.702 352.533 738.599 352.729 738.453 352.891C738.307 353.053 738.123 353.176 737.917 353.248H737.9Z" fill="white"/>
</g>
<g opacity="0.6">
<path opacity="0.6" d="M736.222 336.4C736.158 336.583 736.161 336.782 736.228 336.963C736.295 337.144 736.422 337.297 736.589 337.394C736.769 337.473 736.973 337.48 737.158 337.413C737.343 337.346 737.495 337.211 737.583 337.035C737.66 336.841 737.661 336.626 737.587 336.431C737.513 336.237 737.368 336.077 737.182 335.983C736.986 335.919 736.773 335.935 736.588 336.027C736.404 336.119 736.263 336.28 736.197 336.476" fill="white"/>
</g>
<path d="M737.374 346.933C736.9 346.754 736.394 346.672 735.888 346.691C735.389 346.784 734.913 346.971 734.484 347.242C734.484 347.242 734.543 347.05 734.777 346.85C735.088 346.601 735.466 346.447 735.863 346.407C736.259 346.36 736.66 346.433 737.015 346.616C737.283 346.758 737.399 346.908 737.374 346.933Z" fill="#263238"/>
<path d="M737.525 348.879C737.101 348.896 736.68 348.944 736.263 349.021C735.869 349.171 735.486 349.35 735.119 349.556C735.052 349.514 735.428 348.955 736.188 348.721C736.407 348.638 736.643 348.608 736.876 348.636C737.108 348.664 737.331 348.747 737.525 348.879Z" fill="#263238"/>
<path d="M737.643 344.152C736.987 344.132 736.331 344.163 735.68 344.244C735.048 344.408 734.431 344.623 733.834 344.887C734.302 344.374 734.94 344.047 735.63 343.968C736.302 343.793 737.014 343.858 737.643 344.152Z" fill="#263238"/>
<path d="M735.745 340.719C735.745 340.802 734.993 340.928 734.2 341.395C733.406 341.863 732.897 342.44 732.83 342.389C733.084 341.847 733.518 341.411 734.058 341.153C734.55 340.811 735.149 340.657 735.745 340.719Z" fill="#263238"/>
<path d="M733.733 337.52C733.148 337.665 732.586 337.89 732.063 338.188C731.606 338.557 731.198 338.984 730.852 339.457C730.852 339.457 730.852 339.24 731.01 338.931C731.229 338.541 731.535 338.206 731.904 337.954C732.274 337.702 732.697 337.539 733.14 337.478C733.524 337.444 733.733 337.486 733.733 337.52Z" fill="#263238"/>
<path d="M731.736 337.57C731.622 337.454 731.532 337.318 731.469 337.169C731.261 336.769 731.139 336.331 731.109 335.883C731.059 335.559 731.115 335.228 731.268 334.939C731.328 334.848 731.415 334.777 731.517 334.737C731.618 334.696 731.73 334.688 731.836 334.713C732.038 334.779 732.21 334.916 732.321 335.097C732.527 335.479 732.594 335.92 732.51 336.345C732.427 336.771 732.197 337.154 731.861 337.428C731.524 337.691 731.116 337.848 730.689 337.879C730.262 337.91 729.836 337.814 729.464 337.603C729.37 337.552 729.289 337.48 729.227 337.394C729.165 337.307 729.123 337.207 729.105 337.102C729.093 336.993 729.116 336.882 729.172 336.788C729.227 336.693 729.312 336.618 729.414 336.576C729.718 336.464 730.047 336.436 730.366 336.492C730.811 336.542 731.243 336.669 731.644 336.868C731.793 336.931 731.929 337.022 732.045 337.135C731.512 336.91 730.949 336.761 730.374 336.693C730.093 336.654 729.806 336.686 729.539 336.785C729.483 336.806 729.435 336.846 729.403 336.897C729.372 336.948 729.358 337.009 729.364 337.069C729.383 337.136 729.416 337.199 729.46 337.254C729.505 337.309 729.56 337.353 729.623 337.386C729.95 337.558 730.32 337.633 730.688 337.602C731.057 337.571 731.409 337.435 731.702 337.211C731.977 336.972 732.167 336.651 732.242 336.295C732.317 335.939 732.274 335.569 732.12 335.239C732.049 335.109 731.933 335.008 731.794 334.955C731.736 334.94 731.674 334.942 731.617 334.963C731.56 334.984 731.511 335.022 731.477 335.072C731.336 335.326 731.283 335.62 731.327 335.908C731.372 336.48 731.511 337.041 731.736 337.57Z" fill="#263238"/>
<path d="M719.083 337.745L718.248 348.495C718.248 348.495 728.914 352.145 728.956 354.15L708.074 354.1L708.659 337.302L719.083 337.745Z" fill="#455A64"/>
<g opacity="0.6">
<path opacity="0.6" d="M711.838 347.334C711.634 347.384 711.457 347.508 711.341 347.683C711.224 347.858 711.178 348.07 711.212 348.278C711.26 348.482 711.383 348.66 711.556 348.777C711.729 348.895 711.94 348.943 712.147 348.913C712.363 348.855 712.549 348.72 712.671 348.534C712.793 348.347 712.841 348.122 712.807 347.902C712.742 347.69 712.595 347.513 712.399 347.41C712.203 347.307 711.975 347.285 711.763 347.351" fill="white"/>
</g>
<g opacity="0.6">
<path opacity="0.6" d="M708.098 354.1L708.156 352.429L728.345 353.181C728.557 353.294 728.738 353.457 728.872 353.657C729.006 353.857 729.089 354.086 729.113 354.326L708.098 354.1Z" fill="white"/>
</g>
<path d="M718.605 348.403C718.605 348.504 718.087 348.529 717.569 348.838C717.051 349.147 716.734 349.564 716.683 349.523C716.633 349.481 716.767 348.888 717.393 348.529C718.02 348.17 718.63 348.312 718.605 348.403Z" fill="#263238"/>
<path d="M720.761 349.397C720.761 349.498 720.335 349.648 719.967 350.066C719.6 350.483 719.491 350.901 719.383 350.901C719.274 350.901 719.241 350.316 719.708 349.807C720.176 349.297 720.761 349.297 720.761 349.397Z" fill="#263238"/>
<path d="M721.905 352.054C721.813 352.054 721.688 351.552 721.972 351.001C722.256 350.45 722.741 350.249 722.807 350.341C722.874 350.433 722.54 350.717 722.315 351.177C722.089 351.636 722.005 352.054 721.905 352.054Z" fill="#263238"/>
<path d="M718.521 345.931C718.471 346.023 718.012 345.864 717.435 345.881C716.859 345.898 716.4 346.056 716.35 345.973C716.299 345.889 716.742 345.53 717.427 345.522C718.112 345.513 718.571 345.856 718.521 345.931Z" fill="#263238"/>
<g opacity="0.3">
<path opacity="0.3" d="M718.913 339.875L718.771 341.788L708.506 341.286L708.564 339.557L718.913 339.875Z" fill="black"/>
</g>
<path d="M718.646 343.759C718.3 343.84 717.939 343.826 717.602 343.717C717.226 343.632 716.862 343.503 716.516 343.333C716.312 343.235 716.117 343.12 715.931 342.991C715.814 342.922 715.71 342.835 715.622 342.732C715.563 342.654 715.531 342.558 715.531 342.46C715.531 342.362 715.563 342.267 715.622 342.189C715.677 342.12 715.747 342.065 715.827 342.027C715.906 341.989 715.993 341.97 716.081 341.972C716.212 341.978 716.341 342.001 716.466 342.039C716.687 342.104 716.902 342.188 717.109 342.289C717.457 342.464 717.775 342.693 718.053 342.966C718.52 343.433 718.671 343.801 718.629 343.801C718.587 343.801 718.362 343.509 717.886 343.116C717.603 342.893 717.295 342.705 716.967 342.556C716.777 342.467 716.578 342.397 716.374 342.348C716.157 342.281 715.973 342.272 715.906 342.348C715.839 342.423 715.906 342.398 715.906 342.465C715.967 342.541 716.04 342.606 716.123 342.657C716.298 342.778 716.479 342.89 716.666 342.991C716.984 343.165 717.316 343.311 717.66 343.425C717.996 343.515 718.325 343.626 718.646 343.759Z" fill="#263238"/>
<path d="M718.507 343.901C718.322 343.595 718.24 343.238 718.273 342.882C718.272 342.263 718.437 341.654 718.749 341.12C718.807 340.98 718.903 340.858 719.025 340.769C719.147 340.679 719.291 340.624 719.442 340.61C719.534 340.619 719.622 340.652 719.697 340.706C719.772 340.761 719.831 340.834 719.868 340.919C719.912 341.047 719.943 341.178 719.96 341.312C719.995 341.627 719.968 341.945 719.879 342.249C719.79 342.553 719.642 342.836 719.442 343.083C719.008 343.6 718.607 343.709 718.607 343.676C718.607 343.642 718.941 343.442 719.275 342.932C719.463 342.638 719.588 342.308 719.643 341.963C719.672 341.761 719.672 341.556 719.643 341.354C719.643 341.128 719.551 340.953 719.459 340.969C719.367 340.986 719.175 341.12 719.083 341.295C718.972 341.473 718.877 341.66 718.799 341.855C718.67 342.187 718.588 342.535 718.557 342.89C718.473 343.5 718.565 343.884 718.507 343.901Z" fill="#263238"/>
<path d="M726.715 249.314C726.715 249.314 730.549 257.174 731.552 262.779C731.836 264.366 720.576 344.937 720.576 344.937L707.262 344.436L713.501 269.461L711.279 254.426L726.715 249.314Z" fill="#263238"/>
<path d="M694.375 254.184C694.282 259.626 694.561 265.068 695.21 270.472C696.196 278.374 698.451 287.369 699.186 292.398C700.806 303.524 703.997 305.629 703.997 305.629L729.54 338.313L739.563 329.3L717.011 293.275C717.011 293.275 711.013 253.298 711.222 254.376C711.431 255.453 694.375 254.184 694.375 254.184Z" fill="#263238"/>
<path d="M704.531 306.113C704.604 306.233 704.685 306.348 704.774 306.456L705.5 307.391L708.181 310.849C710.445 313.798 713.527 317.841 716.944 322.309C720.36 326.778 723.467 330.838 725.772 333.728C726.917 335.173 727.861 336.334 728.529 337.127L729.297 338.029C729.383 338.14 729.478 338.243 729.581 338.338C729.513 338.216 729.432 338.101 729.339 337.996L728.612 337.052L725.931 333.602L717.169 322.134C713.761 317.648 710.645 313.606 708.34 310.724C707.196 309.271 706.252 308.118 705.592 307.324L704.815 306.414C704.731 306.304 704.636 306.203 704.531 306.113Z" fill="#455A64"/>
<path d="M701.681 260.307C701.666 260.755 701.543 261.194 701.322 261.585C700.428 263.557 698.788 265.095 696.761 265.861C696.355 266.046 695.913 266.14 695.467 266.137C696.809 265.569 698.056 264.8 699.167 263.857C700.184 262.81 701.032 261.613 701.681 260.307Z" fill="#455A64"/>
<path d="M729.248 255.746C728.637 256.024 727.959 256.12 727.296 256.022C726.632 255.924 726.01 255.637 725.506 255.194C725.564 255.086 726.341 255.445 727.36 255.587C728.379 255.729 729.223 255.629 729.248 255.746Z" fill="#455A64"/>
<path d="M714.87 266.855C714.913 267.031 714.944 267.21 714.962 267.39C715.012 267.774 715.071 268.283 715.154 268.926C715.305 270.305 715.522 272.268 715.798 274.656C716.315 279.568 717.025 286.35 717.844 294.152V294.06L721.544 299.974L734.399 320.664C736.011 323.295 737.323 325.433 738.25 326.962L739.252 328.666C739.381 328.86 739.49 329.067 739.578 329.284C739.431 329.101 739.297 328.909 739.177 328.707L738.075 327.037L734.107 320.814C730.766 315.51 726.197 308.235 721.143 300.199L717.451 294.277V294.227C716.7 286.451 716.031 279.635 715.555 274.715L715.038 268.968C714.987 268.325 714.946 267.816 714.921 267.423C714.881 267.236 714.864 267.046 714.87 266.855Z" fill="#455A64"/>
<path d="M710.986 196.642L718.955 199.197L719.556 216.095C719.556 216.095 723.866 235.95 724.802 238.456C725.899 241.458 726.713 244.556 727.232 247.71C727.232 247.71 725.695 258.92 714.494 260.24C703.293 261.559 692.869 255.128 692.869 255.128C692.869 255.128 689.135 238.422 685.711 223.437C682.453 209.179 685.101 200.676 685.101 200.676L697.371 196.266L710.986 196.642Z" fill="#455A64"/>
<path d="M716.908 206.048L709.586 206.934L709.814 208.816L717.136 207.93L716.908 206.048Z" fill="#FAFAFA"/>
<path d="M718.672 185.833C718.602 185.421 718.381 185.051 718.052 184.794C717.722 184.538 717.309 184.413 716.893 184.446C717.079 184.306 717.227 184.121 717.323 183.908C717.419 183.695 717.46 183.462 717.443 183.229C717.425 182.997 717.35 182.772 717.223 182.576C717.096 182.38 716.922 182.219 716.717 182.108C717.108 181.512 717.264 180.793 717.154 180.089C717.045 179.385 716.678 178.747 716.124 178.299L707.713 189.901C708.36 190.415 709.104 190.792 709.901 191.01C710.698 191.229 711.53 191.283 712.349 191.17C713.99 190.929 715.567 190.361 716.985 189.5C717.376 189.332 717.699 189.038 717.903 188.665C718.062 188.272 717.837 187.704 717.402 187.696C717.808 187.6 718.164 187.355 718.398 187.011C718.633 186.666 718.731 186.246 718.672 185.833Z" fill="#263238"/>
<path d="M697.781 179.493C697.625 179.456 697.46 179.466 697.31 179.524C697.159 179.582 697.03 179.685 696.939 179.818C696.848 179.952 696.8 180.11 696.802 180.271C696.803 180.432 696.853 180.589 696.946 180.721C696.695 180.687 696.44 180.722 696.207 180.821C695.975 180.921 695.773 181.081 695.624 181.286C695.475 181.491 695.384 181.732 695.361 181.984C695.338 182.236 695.384 182.489 695.493 182.718C694.901 182.684 694.314 182.845 693.822 183.177C693.573 183.347 693.378 183.584 693.26 183.86C693.142 184.137 693.105 184.442 693.154 184.739C693.224 185.025 693.402 185.273 693.652 185.429C693.902 185.585 694.203 185.637 694.49 185.574C694.344 185.832 694.273 186.126 694.288 186.422C694.303 186.718 694.402 187.003 694.574 187.245C694.665 187.357 694.779 187.448 694.909 187.512C695.038 187.576 695.18 187.611 695.324 187.615C695.469 187.619 695.612 187.591 695.745 187.535C695.878 187.478 695.997 187.393 696.094 187.286C695.934 187.503 695.851 187.767 695.859 188.036C695.867 188.305 695.965 188.564 696.137 188.771C696.309 188.978 696.546 189.121 696.809 189.178C697.073 189.234 697.347 189.201 697.589 189.082C697.524 189.351 697.544 189.633 697.648 189.888C697.752 190.144 697.934 190.361 698.168 190.507C698.403 190.653 698.677 190.722 698.952 190.703C699.228 190.684 699.49 190.579 699.703 190.402L697.781 179.493Z" fill="#263238"/>
<path d="M698.3 177.271L697.933 197.811C697.906 199.43 698.494 200.999 699.58 202.2C700.665 203.402 702.166 204.147 703.779 204.284C704.65 204.361 705.527 204.258 706.356 203.983C707.185 203.707 707.949 203.265 708.6 202.682C709.252 202.1 709.777 201.39 710.143 200.597C710.509 199.803 710.708 198.943 710.729 198.07C710.729 196.115 710.796 194.512 710.796 194.512C710.796 194.512 715.807 194.177 716.3 189.249C716.593 186.393 716.668 179.877 716.685 174.874C716.691 173.245 716.085 171.672 714.986 170.469C713.888 169.265 712.377 168.518 710.754 168.376L707.772 168.117C706.545 168.079 705.322 168.287 704.176 168.73C703.031 169.172 701.986 169.84 701.103 170.694C700.22 171.547 699.517 172.569 699.035 173.699C698.554 174.828 698.304 176.043 698.3 177.271Z" fill="#FFBE9D"/>
<path d="M710.778 194.512C708.493 194.295 706.318 193.425 704.514 192.006C704.514 192.006 705.783 195.74 710.753 195.731L710.778 194.512Z" fill="#EB996E"/>
<path d="M715.289 179.894C715.197 179.978 714.696 179.535 713.936 179.468C713.176 179.401 712.591 179.736 712.516 179.635C712.441 179.535 712.583 179.427 712.842 179.276C713.188 179.075 713.588 178.987 713.986 179.026C714.382 179.061 714.757 179.222 715.055 179.485C715.273 179.677 715.339 179.853 715.289 179.894Z" fill="#263238"/>
<path d="M707.262 180.22C707.247 180.404 707.161 180.575 707.022 180.696C706.884 180.818 706.703 180.881 706.519 180.872C706.428 180.872 706.339 180.854 706.256 180.819C706.173 180.783 706.097 180.732 706.034 180.668C705.971 180.603 705.922 180.526 705.889 180.442C705.856 180.358 705.84 180.269 705.842 180.178C705.857 179.994 705.943 179.824 706.082 179.702C706.22 179.58 706.401 179.517 706.585 179.527C706.676 179.527 706.765 179.545 706.848 179.58C706.931 179.615 707.007 179.666 707.07 179.731C707.133 179.795 707.182 179.872 707.215 179.956C707.248 180.04 707.264 180.13 707.262 180.22Z" fill="#263238"/>
<path d="M714.613 180.888C714.598 181.072 714.512 181.243 714.373 181.365C714.235 181.486 714.054 181.549 713.87 181.54C713.78 181.538 713.691 181.518 713.609 181.481C713.526 181.445 713.452 181.393 713.39 181.327C713.328 181.262 713.279 181.186 713.247 181.102C713.215 181.018 713.199 180.928 713.201 180.838C713.214 180.653 713.3 180.481 713.439 180.359C713.578 180.237 713.76 180.175 713.945 180.187C714.035 180.187 714.125 180.205 714.208 180.241C714.292 180.276 714.367 180.328 714.43 180.394C714.492 180.46 714.541 180.537 714.572 180.622C714.604 180.707 714.618 180.798 714.613 180.888Z" fill="#263238"/>
<path d="M707.905 179.243C707.813 179.326 707.312 178.884 706.552 178.817C705.792 178.75 705.199 179.084 705.124 178.984C705.048 178.884 705.19 178.775 705.449 178.625C705.795 178.425 706.194 178.337 706.592 178.373C706.99 178.409 707.367 178.567 707.671 178.825C707.888 179.026 707.955 179.201 707.905 179.243Z" fill="#263238"/>
<path d="M710.162 185.115C710.582 185.024 711.011 184.985 711.44 184.998C711.641 184.998 711.824 184.998 711.866 184.847C711.903 184.65 711.877 184.445 711.791 184.263C711.649 183.77 711.499 183.269 711.348 182.734C710.925 181.437 710.609 180.107 710.404 178.758C710.926 180.018 711.348 181.317 711.666 182.642C711.808 183.185 711.95 183.695 712.083 184.179C712.172 184.428 712.172 184.699 712.083 184.948C712.049 185.014 712 185.071 711.941 185.116C711.882 185.16 711.813 185.192 711.741 185.207C711.63 185.218 711.518 185.218 711.407 185.207C710.99 185.228 710.572 185.197 710.162 185.115Z" fill="#263238"/>
<path d="M707.88 185.44C708.005 185.44 707.938 186.276 708.59 186.919C709.241 187.562 710.127 187.554 710.127 187.662C710.127 187.771 709.91 187.813 709.542 187.788C709.058 187.749 708.603 187.543 708.256 187.203C707.921 186.88 707.727 186.44 707.713 185.975C707.713 185.624 707.83 185.432 707.88 185.44Z" fill="#263238"/>
<path d="M708.323 176.787C708.223 176.987 707.488 176.787 706.577 176.854C705.667 176.921 704.907 177.063 704.832 176.854C704.757 176.645 704.932 176.578 705.241 176.403C705.648 176.188 706.101 176.074 706.561 176.069C707.022 176.056 707.479 176.15 707.897 176.344C708.206 176.52 708.357 176.695 708.323 176.787Z" fill="#263238"/>
<path d="M715.38 177.706C715.23 177.873 714.72 177.647 714.094 177.58C713.467 177.514 712.925 177.58 712.816 177.405C712.707 177.23 712.866 177.146 713.117 177.004C713.446 176.836 713.818 176.769 714.185 176.813C714.552 176.856 714.898 177.007 715.18 177.246C715.389 177.48 715.447 177.631 715.38 177.706Z" fill="#263238"/>
<path d="M699.636 181.122C699.553 181.08 696.295 179.819 696.136 183.21C695.978 186.602 699.385 186.092 699.402 185.992C699.419 185.892 699.636 181.122 699.636 181.122Z" fill="#FFBE9D"/>
<path d="M698.441 184.647C698.441 184.647 698.374 184.689 698.274 184.73C698.131 184.784 697.974 184.784 697.831 184.73C697.621 184.58 697.454 184.376 697.349 184.139C697.243 183.903 697.202 183.643 697.23 183.386C697.241 183.096 697.312 182.811 697.439 182.55C697.48 182.448 697.545 182.356 697.627 182.282C697.71 182.208 697.808 182.154 697.915 182.124C697.983 182.11 698.055 182.121 698.116 182.154C698.177 182.188 698.225 182.243 698.249 182.308C698.249 182.408 698.249 182.475 698.249 182.475C698.249 182.475 698.324 182.425 698.307 182.283C698.292 182.198 698.248 182.121 698.182 182.066C698.095 181.989 697.981 181.95 697.865 181.957C697.725 181.978 697.592 182.034 697.479 182.121C697.367 182.207 697.278 182.32 697.222 182.45C697.059 182.736 696.97 183.057 696.963 183.386C696.929 183.686 696.985 183.99 697.123 184.259C697.261 184.528 697.476 184.75 697.739 184.898C697.829 184.927 697.924 184.937 698.017 184.927C698.111 184.917 698.201 184.887 698.282 184.839C698.424 184.73 698.449 184.655 698.441 184.647Z" fill="#EB996E"/>
<path d="M697.765 180.821C698.088 180.828 698.404 180.922 698.678 181.094C698.951 181.266 699.173 181.51 699.319 181.799C699.494 182.3 699.494 182.851 699.669 183.352C699.845 183.853 700.304 184.338 700.83 184.254C701.011 184.217 701.177 184.132 701.314 184.009C701.451 183.886 701.552 183.728 701.607 183.553C701.712 183.198 701.746 182.826 701.707 182.458C701.649 180.863 701.457 179.268 701.532 177.681C701.55 176.073 702.038 174.505 702.935 173.17C703.398 172.51 704.03 171.988 704.765 171.658C705.501 171.329 706.312 171.205 707.112 171.299C708.156 171.475 709.066 172.134 710.094 172.352C710.708 172.487 711.344 172.483 711.956 172.338C712.568 172.193 713.139 171.913 713.627 171.516C713.752 171.416 714.312 171.115 714.312 171.115C714.326 170.738 714.233 170.365 714.045 170.038C712.148 167.941 708.465 167.073 705.692 167.532C704.273 167.751 702.918 168.275 701.722 169.07C700.527 169.865 699.518 170.911 698.767 172.134C697.364 174.599 697.397 178.19 697.815 180.838" fill="#263238"/>
<path d="M717.285 174.03C716.986 174.507 716.567 174.896 716.07 175.16C715.573 175.424 715.016 175.553 714.454 175.534C713.329 175.482 712.224 175.219 711.196 174.757C709.568 174.197 707.89 173.797 706.185 173.563C706.018 173.563 705.817 173.563 705.742 173.387C705.667 173.212 705.85 172.978 706.034 172.853C707.613 171.834 711.23 171.441 713.109 171.525C714.051 171.544 714.973 171.805 715.786 172.282C716.598 172.758 717.276 173.435 717.753 174.248" fill="#263238"/>
<path d="M716.794 174.139C715.816 172.906 714.396 172.103 712.835 171.901C709.839 171.649 706.832 172.228 704.144 173.575C701.456 174.922 699.191 176.984 697.6 179.535C697.297 178.096 697.146 176.629 697.148 175.158C697.232 174.147 698.368 168.217 704.666 166.881C704.691 166.864 714.28 164.116 716.794 174.139Z" fill="#455A64"/>
<path d="M698.26 178.257C700.482 175.5 703.278 173.259 706.454 171.692C710.18 169.993 714.111 168.783 718.148 168.092C719.184 167.847 720.261 167.827 721.305 168.033C721.824 168.147 722.301 168.405 722.681 168.777C723.061 169.15 723.328 169.621 723.452 170.138C723.661 171.441 721.213 173.22 720.111 173.897C719.003 174.502 717.862 175.046 716.694 175.526C716.694 175.526 716.937 173.162 713.178 172.335C708.041 171.207 698.26 178.257 698.26 178.257Z" fill="#455A64"/>
<path d="M721.963 168.2C721.607 168.125 721.247 168.069 720.885 168.033C719.887 167.996 718.888 168.063 717.903 168.234C714.643 168.783 711.453 169.688 708.389 170.932C705.305 172.118 702.471 173.875 700.037 176.11C699.31 176.792 698.671 177.561 698.132 178.399C697.765 179.001 697.623 179.368 697.589 179.351C697.556 179.335 697.589 179.251 697.656 179.076C697.747 178.814 697.859 178.56 697.99 178.316C698.481 177.422 699.1 176.606 699.828 175.893C702.233 173.551 705.093 171.726 708.231 170.531C711.321 169.269 714.556 168.394 717.862 167.925C718.869 167.783 719.89 167.763 720.902 167.866C721.189 167.888 721.471 167.956 721.737 168.067C721.888 168.142 721.971 168.184 721.963 168.2Z" fill="#263238"/>
<path d="M709.767 169.512C710.994 168.99 712.297 168.671 713.626 168.568C713.335 168.296 713.013 168.06 712.665 167.866C711.631 167.948 710.616 168.193 709.658 168.593L709.767 169.512Z" fill="#FAFAFA"/>
<path d="M717.36 175.81C717.515 175.593 717.61 175.339 717.634 175.074C717.659 174.809 717.612 174.542 717.499 174.301C717.386 174.06 717.21 173.854 716.99 173.704C716.771 173.553 716.515 173.464 716.249 173.446C716.424 173.375 716.583 173.27 716.716 173.135C716.849 173 716.952 172.84 717.019 172.663C717.087 172.487 717.117 172.298 717.108 172.109C717.099 171.921 717.051 171.736 716.967 171.566C716.77 171.238 716.47 170.984 716.113 170.845C715.756 170.706 715.363 170.69 714.996 170.798C714.632 170.918 714.303 171.123 714.034 171.396C713.765 171.67 713.565 172.003 713.451 172.368C713.295 172.137 713.083 171.95 712.835 171.825C712.586 171.699 712.31 171.639 712.032 171.651C711.753 171.663 711.483 171.746 711.246 171.892C711.009 172.038 710.813 172.242 710.678 172.485C710.603 172.276 710.453 172.103 710.256 172.001C710.059 171.898 709.831 171.875 709.617 171.934C709.193 172.074 708.806 172.305 708.481 172.61C708.155 172.92 707.734 173.111 707.287 173.153L706.994 173.279C707.233 173.663 707.605 173.946 708.039 174.076C708.473 174.205 708.939 174.171 709.35 173.98C709.346 174.265 709.435 174.543 709.603 174.773C709.772 175.002 710.01 175.171 710.283 175.253C710.556 175.335 710.847 175.326 711.115 175.228C711.382 175.129 711.61 174.946 711.764 174.707C711.816 174.918 711.919 175.112 712.065 175.273C712.211 175.433 712.395 175.554 712.6 175.626C712.805 175.697 713.025 175.716 713.239 175.681C713.453 175.646 713.655 175.558 713.827 175.425C713.92 175.669 714.07 175.888 714.263 176.064C714.456 176.24 714.688 176.368 714.94 176.438C715.192 176.507 715.457 176.517 715.713 176.466C715.969 176.415 716.21 176.305 716.416 176.144C716.629 176.482 716.768 176.862 716.822 177.258C716.877 177.654 716.847 178.057 716.734 178.441C717.009 178.379 717.262 178.242 717.463 178.044C717.664 177.846 717.805 177.596 717.87 177.321C717.935 177.047 717.922 176.759 717.832 176.492C717.742 176.225 717.578 175.988 717.36 175.81Z" fill="#263238"/>
<path d="M703.237 174.974C702.071 175.491 700.953 176.109 699.896 176.82C698.834 177.546 697.984 178.54 697.432 179.702L699.102 181.297C699.562 181.448 699.938 181.606 700.288 181.297C700.47 181.14 700.609 180.94 700.693 180.716C700.778 180.491 700.805 180.249 700.773 180.011C700.994 180.058 701.225 180.044 701.439 179.969C701.653 179.895 701.842 179.763 701.986 179.588C702.13 179.413 702.223 179.201 702.255 178.977C702.287 178.753 702.257 178.524 702.168 178.315C702.333 178.276 702.486 178.194 702.609 178.076C702.732 177.959 702.822 177.811 702.869 177.647C702.913 177.484 702.913 177.312 702.871 177.148C702.828 176.984 702.744 176.834 702.627 176.712C702.816 176.701 702.997 176.635 703.149 176.522C703.3 176.409 703.416 176.254 703.481 176.077C703.545 175.899 703.557 175.706 703.514 175.523C703.47 175.339 703.374 175.171 703.237 175.041V174.974Z" fill="#263238"/>
<path d="M718.957 199.198C718.957 199.198 723.894 202.163 725.38 204.802C726.867 207.442 734.769 226.703 734.443 229.861C734.117 233.018 726.7 234.964 726.7 234.964L718.957 224.941L722.499 222.828L718.957 216.003V199.198Z" fill="#455A64"/>
<path d="M726.717 234.939C726.717 234.939 708.775 238.531 702.26 230.763L704.148 224.206C704.148 224.206 716 227.012 719.709 225.809L726.717 234.939Z" fill="#FFBE9D"/>
<path d="M728.572 219.002C728.639 219.136 726.467 220.046 724.203 221.775C721.94 223.504 720.511 225.375 720.395 225.283C720.598 224.815 720.881 224.386 721.23 224.014C722.018 223.056 722.912 222.19 723.894 221.433C724.882 220.681 725.949 220.04 727.077 219.52C727.542 219.264 728.048 219.089 728.572 219.002Z" fill="#263238"/>
<path d="M722.815 222.585C722.175 221.573 721.635 220.502 721.203 219.386C720.63 218.336 720.139 217.244 719.732 216.12C720.521 217.037 721.15 218.078 721.595 219.202C722.158 220.267 722.569 221.406 722.815 222.585Z" fill="#263238"/>
<path d="M719.557 214.475C719.51 213.532 719.364 212.597 719.123 211.685C718.971 210.75 718.728 209.833 718.396 208.945C718.598 210.823 718.986 212.675 719.557 214.475Z" fill="#263238"/>
<path d="M687.349 201.703C687.692 202.063 692.62 205.329 694.265 210.892C695.911 216.454 697.724 222.26 697.724 222.26L704.147 223.095L700.522 237.913C698.069 237.535 695.726 236.633 693.652 235.27C691.578 233.906 689.822 232.113 688.502 230.011C685.635 225.016 683.316 219.726 681.586 214.233C681.586 214.233 682.129 196.241 687.349 201.703Z" fill="#455A64"/>
<path d="M701.942 222.802C701.942 222.802 699.219 216.705 698.851 216.621C698.484 216.538 693.23 214.692 693.23 214.692C693.07 215.12 693.07 215.592 693.23 216.02L691.334 216.262C691.334 216.262 691.618 217.423 692.261 217.582L691.576 218.192C691.92 218.644 692.359 219.015 692.863 219.278C693.056 219.373 693.269 219.423 693.485 219.423C693.701 219.423 693.914 219.373 694.107 219.278C694.107 219.278 693.873 219.712 694.942 220.397C696.012 221.082 697.874 222.067 697.874 222.067L701.942 222.802Z" fill="#FFBE9D"/>
<path d="M697.882 222.101C697.882 222.101 696.019 221.082 694.95 220.43C694.023 219.846 694.048 219.445 694.115 219.328C693.923 219.414 693.715 219.459 693.505 219.459C693.295 219.459 693.087 219.414 692.895 219.328C692.39 219.06 691.949 218.687 691.6 218.234L692.227 217.574C691.6 217.39 691.325 216.296 691.316 216.246L693.204 216.003C693.053 215.576 693.053 215.11 693.204 214.684C693.254 214.684 698.475 216.538 698.834 216.613C699.193 216.688 701.816 222.552 701.933 222.803L697.882 222.101ZM693.238 216.012L691.341 216.254C691.341 216.388 691.667 217.407 692.26 217.557L691.567 218.167C691.904 218.615 692.338 218.98 692.837 219.236C693.029 219.33 693.241 219.378 693.455 219.378C693.669 219.378 693.88 219.33 694.073 219.236V219.286C694.073 219.286 693.856 219.72 694.908 220.389C695.961 221.057 697.773 222.059 697.84 222.059L701.874 222.769C700.922 220.656 699.076 216.68 698.801 216.621C698.525 216.563 693.471 214.792 693.187 214.692C693.038 215.123 693.056 215.594 693.238 216.012Z" fill="#EB996E"/>
<path d="M693.396 216.037C694.506 216.576 695.657 217.025 696.838 217.382C697.322 217.557 697.798 217.682 698.174 217.866C698.51 218.025 698.786 218.289 698.959 218.618C699.277 219.186 699.394 219.595 699.444 219.578C699.424 219.207 699.321 218.845 699.143 218.518C698.967 218.14 698.674 217.83 698.308 217.632C697.862 217.432 697.405 217.259 696.938 217.114C695.785 216.67 694.601 216.31 693.396 216.037Z" fill="#EB996E"/>
<path d="M692.168 217.573C692.46 217.748 692.784 217.864 693.12 217.916C693.722 218.083 694.574 218.217 695.476 218.459C696.245 218.65 696.968 218.99 697.606 219.461C698.09 219.837 698.299 220.163 698.341 220.138C698.224 219.808 698.015 219.518 697.739 219.303C697.108 218.761 696.358 218.375 695.551 218.175C694.624 217.924 693.763 217.824 693.162 217.715C692.837 217.632 692.504 217.584 692.168 217.573Z" fill="#EB996E"/>
<path d="M696.989 220.363C696.679 219.945 696.233 219.65 695.727 219.528C695.25 219.313 694.715 219.263 694.207 219.386C694.207 219.478 694.875 219.52 695.635 219.795C696.395 220.071 696.938 220.43 696.989 220.363Z" fill="#EB996E"/>
<path d="M703.596 224.673L719.792 216.504L722.758 222.543C722.758 222.543 707.831 237.336 700.84 237.144" fill="#FFBE9D"/>
<path d="M693.756 207.55C693.78 207.958 693.853 208.362 693.973 208.753C694.148 209.48 694.399 210.482 694.7 211.585C695 212.687 695.284 213.69 695.535 214.408C695.627 214.802 695.767 215.184 695.953 215.544C695.923 215.139 695.85 214.739 695.735 214.349C695.56 213.623 695.309 212.62 695.009 211.51C694.708 210.399 694.424 209.413 694.173 208.703C694.079 208.304 693.939 207.917 693.756 207.55Z" fill="#263238"/>
<path d="M694.458 227.655C694.508 227.655 694.65 226.912 695.026 225.751C695.239 225.076 695.567 224.444 695.995 223.88C696.508 223.21 697.247 222.75 698.074 222.585C698.939 222.545 699.805 222.644 700.639 222.878L702.76 223.304C703.026 223.339 703.287 223.406 703.537 223.504C703.714 223.583 703.855 223.726 703.93 223.905C703.963 223.981 703.98 224.064 703.98 224.147C703.98 224.231 703.963 224.313 703.93 224.389C703.93 224.389 704.155 224.256 704.063 223.872C704.031 223.762 703.976 223.66 703.903 223.573C703.83 223.485 703.739 223.413 703.637 223.362C703.372 223.239 703.091 223.152 702.802 223.103L700.689 222.619C699.825 222.361 698.924 222.254 698.024 222.301C697.115 222.48 696.306 222.996 695.761 223.746C695.326 224.34 695.004 225.008 694.809 225.718C694.672 226.19 694.563 226.669 694.483 227.154C694.449 227.319 694.441 227.488 694.458 227.655Z" fill="#263238"/>
<path d="M692.229 224.398C692.671 223.615 693.264 222.928 693.974 222.377C694.759 221.908 695.602 221.544 696.48 221.291C696.2 221.246 695.914 221.269 695.645 221.358C694.994 221.493 694.377 221.76 693.832 222.143C693.281 222.526 692.826 223.032 692.504 223.621C692.346 223.852 692.251 224.119 692.229 224.398Z" fill="#263238"/>
<path d="M681.586 214.232C681.586 214.232 681.586 214.341 681.669 214.55C681.753 214.759 681.845 215.076 681.97 215.435C682.246 216.271 682.622 217.34 683.089 218.684C683.557 220.029 684.125 221.7 684.927 223.454C685.729 225.208 686.673 227.096 687.817 229.009C688.886 230.82 690.249 232.441 691.851 233.803C693.157 234.917 694.621 235.832 696.195 236.518C697.262 236.976 698.386 237.288 699.536 237.445C699.846 237.491 700.158 237.522 700.472 237.537C700.689 237.537 700.797 237.537 700.797 237.537C700.797 237.537 700.355 237.487 699.553 237.345C698.43 237.143 697.335 236.803 696.295 236.334C692.859 234.747 689.993 232.143 688.084 228.875C686.948 226.979 686.03 225.066 685.186 223.354C684.342 221.641 683.799 220.013 683.29 218.626C682.78 217.239 682.388 216.162 682.087 215.402L681.736 214.567C681.698 214.45 681.648 214.338 681.586 214.232Z" fill="#263238"/>
<path d="M686.23 202.054C686.23 202.138 687.467 202.589 688.878 203.432C690.29 204.276 691.301 205.153 691.384 205.103C690.018 203.6 688.231 202.543 686.256 202.071L686.23 202.054Z" fill="#263238"/>
<path d="M698.518 241.413C698.784 241.575 699.063 241.715 699.353 241.83C699.628 241.964 699.963 242.114 700.355 242.265C700.748 242.415 701.19 242.615 701.708 242.774C702.89 243.195 704.094 243.546 705.317 243.827C706.818 244.158 708.338 244.398 709.869 244.545C711.403 244.671 712.943 244.699 714.48 244.628C715.734 244.57 716.983 244.439 718.222 244.236C718.748 244.161 719.224 244.052 719.633 243.969C720.043 243.885 720.41 243.793 720.694 243.718C720.998 243.65 721.297 243.561 721.588 243.451C721.278 243.482 720.971 243.535 720.669 243.609C720.385 243.668 720.026 243.743 719.608 243.81C719.191 243.877 718.715 243.977 718.188 244.035C716.953 244.213 715.71 244.324 714.463 244.369C712.939 244.42 711.413 244.381 709.894 244.253C708.376 244.111 706.867 243.883 705.375 243.568C704.159 243.302 702.957 242.973 701.775 242.582C701.257 242.432 700.815 242.256 700.414 242.114C700.013 241.972 699.679 241.839 699.403 241.73C699.115 241.604 698.82 241.498 698.518 241.413Z" fill="#263238"/>
<path d="M711.672 249.824C712.796 249.679 713.898 249.399 714.955 248.988C716.04 248.677 717.084 248.234 718.062 247.669C718.062 247.594 716.625 248.128 714.863 248.713C713.1 249.298 711.655 249.749 711.672 249.824Z" fill="#263238"/>
<g opacity="0.3">
<path opacity="0.3" d="M724.033 235.381C720.332 236.113 716.528 236.169 712.807 235.548C711.455 235.139 710.041 234.969 708.63 235.047C707.512 235.319 706.432 235.729 705.415 236.267C703.493 237.057 701.405 237.358 699.338 237.144C697.271 236.93 695.289 236.207 693.57 235.039C694.175 236.193 695.047 237.186 696.113 237.935C697.18 238.683 698.41 239.165 699.701 239.341C702.285 239.668 704.909 239.434 707.394 238.656C708.873 238.173 710.404 237.865 711.955 237.737C713.926 237.687 715.856 238.33 717.802 238.363C720.084 238.429 722.327 237.752 724.192 236.434L724.033 235.381Z" fill="black"/>
</g>
<g opacity="0.3">
<path opacity="0.3" d="M717.619 248.245C716.789 249.639 715.643 250.819 714.273 251.69C712.904 252.56 711.349 253.097 709.734 253.257C709.037 253.344 708.329 253.288 707.654 253.09C707.317 252.991 707.003 252.823 706.733 252.597C706.463 252.372 706.242 252.093 706.084 251.778C706.833 251.298 707.662 250.956 708.531 250.768L717.527 248.304" fill="black"/>
</g>
<path d="M722.514 222.786C722.296 223.055 722.052 223.304 721.788 223.529C721.303 223.997 720.602 224.665 719.775 225.517C718.948 226.369 717.962 227.421 716.759 228.466C715.557 229.51 714.187 230.587 712.742 231.706C711.382 232.771 709.957 233.747 708.473 234.63C707.258 235.354 705.97 235.951 704.631 236.409C703.728 236.716 702.801 236.942 701.858 237.086C701.516 237.146 701.169 237.165 700.822 237.144C702.078 236.879 703.316 236.539 704.531 236.125C705.832 235.63 707.085 235.014 708.273 234.287C709.719 233.393 711.114 232.417 712.449 231.364C713.894 230.245 715.273 229.184 716.467 228.165C717.662 227.146 718.664 226.135 719.533 225.3C720.401 224.465 721.136 223.83 721.654 223.404C721.914 223.163 722.203 222.955 722.514 222.786Z" fill="#EB996E"/>
<path d="M480.516 143.714L483.237 143.127L481.2 133.68L490.898 131.59L490.365 129.118L480.668 131.209L478.981 123.389L490.43 120.92L489.898 118.449L475.727 121.505L480.516 143.714ZM498.45 120.992C499.482 120.769 500.12 119.781 499.904 118.78C499.688 117.779 498.699 117.141 497.667 117.363C496.635 117.586 495.997 118.575 496.213 119.576C496.429 120.577 497.417 121.214 498.45 120.992ZM501.052 139.286L503.586 138.74L500.301 123.506L497.767 124.052L501.052 139.286ZM515.06 142.748L517.687 142.181L521.701 118.892L519.042 119.465L516.939 132.031L516.877 132.044L509.439 121.536L506.686 122.13L516.318 135.373L515.06 142.748ZM536.912 131.751C539.383 131.218 541.017 129.687 541.721 127.637L541.752 127.63L542.346 130.383L544.786 129.857L541.501 114.623L538.967 115.169L539.548 117.86L539.492 117.904C537.999 116.295 535.799 115.656 533.547 116.142C529.23 117.072 526.868 121.15 527.839 125.654C528.838 130.284 532.72 132.655 536.912 131.751ZM536.788 129.355C533.66 130.03 531.065 128.167 530.404 125.101C529.676 121.723 531.543 118.996 534.421 118.376C537.424 117.728 540.053 119.747 540.727 122.876C541.422 126.098 539.604 128.748 536.788 129.355ZM556.792 127.465C558.606 127.074 559.544 126.413 560.281 125.731L559.145 123.651C558.482 124.22 557.624 124.797 556.717 124.993C555.278 125.303 554.683 124.515 554.285 122.669L552.531 114.536L557.568 113.45L557.095 111.261L552.059 112.347L550.879 106.872L548.406 107.7L549.525 112.893L547.555 113.318L548.027 115.508L549.997 115.083L551.832 123.591C552.493 126.657 554.102 128.045 556.792 127.465Z" fill="white"/>
<path d="M423.338 209.839L428.891 208.641L426.545 197.771L437.884 195.324L440.23 206.194L445.743 205.004L439.751 177.243L434.238 178.433L436.829 190.436L425.49 192.883L422.899 180.88L417.347 182.078L423.338 209.839ZM466.967 190.234C465.76 184.643 461.129 181.386 455.733 182.551C450.064 183.774 446.897 188.632 448.155 194.458C449.446 200.44 454.443 203.494 460.308 202.229C464.569 201.309 466.695 199.213 467.851 196.795L463.861 194.423C463.114 195.894 461.823 197.114 459.672 197.578C457.092 198.135 454.959 197.163 453.835 194.991L467.246 192.097C467.218 191.776 467.102 190.859 466.967 190.234ZM456.656 187.017C458.885 186.536 460.54 187.57 461.487 189.493L453.081 191.307C453.195 188.991 454.584 187.464 456.656 187.017ZM479.296 198.131C484.301 197.051 486.129 193.955 485.403 190.593C484.585 186.8 481.966 186.424 477.493 185.793C475.464 185.495 474.408 185.15 474.239 184.368C474.019 183.351 474.952 182.741 475.734 182.572C477.141 182.268 478.997 182.523 480.747 183.618L482.431 179.285C479.878 178.076 477.576 177.837 474.956 178.402C471.007 179.254 468.517 182.124 469.259 185.565C470.061 189.28 473.119 190.175 476.513 190.547C479.154 190.836 480.224 191.056 480.402 191.877C480.604 192.815 479.918 193.618 478.432 193.939C476.321 194.394 474.518 194.006 472.642 192.897L470.947 196.986C473.407 198.338 476.246 198.789 479.296 198.131ZM498.163 194.059C500.666 193.519 502.379 192.167 503.337 190.16L503.424 190.182L503.913 192.45L508.801 191.395L504.674 172.275L499.552 173.38L500.025 175.57L499.955 175.626C498.232 174.279 496.013 173.858 493.785 174.339C488.663 175.444 485.678 180.385 486.927 186.172C488.201 192.076 492.924 195.189 498.163 194.059ZM498.145 189.234C495.252 189.858 492.794 188.138 492.135 185.089C491.427 181.804 493.091 179.276 495.867 178.677C498.604 178.086 501.205 179.899 501.871 182.987C502.546 186.115 500.765 188.669 498.145 189.234ZM515.34 198.086L520.462 196.98L518.336 187.127L518.406 187.071C520.081 188.387 522.152 188.882 524.537 188.367C529.854 187.219 532.873 182.435 531.599 176.531C530.35 170.744 525.593 167.474 520.432 168.588C518.086 169.094 516.238 170.393 515.216 172.292L515.138 172.308L514.665 170.119L509.543 171.224L515.34 198.086ZM522.642 183.947C519.827 184.555 517.19 182.955 516.515 179.827C515.848 176.738 517.392 174.032 520.324 173.399C523.061 172.808 525.698 174.408 526.407 177.692C527.065 180.742 525.496 183.331 522.642 183.947ZM537.921 185.11L543.043 184.005L536.833 155.227L531.711 156.333L537.921 185.11ZM556.469 181.475C558.972 180.935 560.685 179.583 561.643 177.576L561.73 177.598L562.219 179.866L567.107 178.811L562.981 159.692L557.858 160.797L558.331 162.987L558.261 163.043C556.538 161.696 554.32 161.274 552.091 161.755C546.969 162.861 543.984 167.802 545.233 173.588C546.507 179.492 551.23 182.606 556.469 181.475ZM556.451 176.651C553.558 177.275 551.1 175.555 550.441 172.505C549.733 169.221 551.397 166.693 554.173 166.094C556.91 165.503 559.511 167.315 560.177 170.404C560.852 173.532 559.071 176.085 556.451 176.651ZM575.953 185.005L581.153 183.882L585.639 154.801L580.439 155.924L578.631 168.59L578.552 168.607L571.368 157.881L565.894 159.063L577.431 175.356L575.953 185.005ZM593.173 173.186L598.295 172.081L594.168 152.961L589.046 154.066L593.173 173.186ZM612.503 169.382C616.569 168.505 618.877 166.493 620.08 164.105L616.065 161.616C615.318 163.087 613.97 164.237 612.015 164.659C608.966 165.317 606.399 163.661 605.715 160.494C605.04 157.366 606.648 154.769 609.737 154.102C611.536 153.714 613.268 154.158 614.555 155.19L617.234 151.297C614.734 149.382 611.369 148.962 608.398 149.603C602.494 150.878 599.249 155.752 600.523 161.656C601.789 167.521 606.794 170.614 612.503 169.382ZM624.521 166.42L629.643 165.315L625.517 146.195L620.395 147.301L624.521 166.42Z" fill="white"/>
</svg>
