<svg width="552" height="552" viewBox="0 0 552 552" fill="none" xmlns="http://www.w3.org/2000/svg">
<path d="M552 422.169H0V422.445H552V422.169Z" fill="#EBEBEB"/>
<path d="M261.648 372.931H48.4764C46.8064 372.928 45.2059 372.263 44.026 371.081C42.8462 369.899 42.1836 368.297 42.1836 366.627V66.9684C42.1981 65.308 42.8672 63.7204 44.0454 62.5504C45.2237 61.3804 46.8159 60.7226 48.4764 60.7197H261.648C263.32 60.7197 264.923 61.3839 266.105 62.5661C267.287 63.7483 267.952 65.3517 267.952 67.0236V366.627C267.952 368.299 267.287 369.902 266.105 371.085C264.923 372.267 263.32 372.931 261.648 372.931ZM48.4764 60.9405C46.8796 60.9435 45.3493 61.5798 44.2212 62.7099C43.0932 63.8401 42.4596 65.3716 42.4596 66.9684V366.627C42.4596 368.224 43.0932 369.755 44.2212 370.886C45.3493 372.016 46.8796 372.652 48.4764 372.655H261.648C263.246 372.652 264.777 372.016 265.907 370.886C267.037 369.756 267.673 368.225 267.676 366.627V66.9684C267.673 65.3706 267.037 63.8391 265.907 62.7093C264.777 61.5795 263.246 60.9434 261.648 60.9405H48.4764Z" fill="#EBEBEB"/>
<path d="M500.455 372.931H287.273C285.602 372.928 284 372.263 282.818 371.081C281.637 369.9 280.972 368.298 280.969 366.627V66.9684C280.986 65.307 281.658 63.7194 282.838 62.5497C284.018 61.38 285.611 60.7225 287.273 60.7197H500.455C502.113 60.7255 503.703 61.3846 504.879 62.5543C506.055 63.7239 506.722 65.3099 506.737 66.9684V366.627C506.737 368.295 506.076 369.895 504.898 371.077C503.721 372.258 502.123 372.925 500.455 372.931ZM287.273 60.9405C285.675 60.9434 284.143 61.5795 283.013 62.7093C281.884 63.8391 281.248 65.3706 281.245 66.9684V366.627C281.248 368.225 281.884 369.756 283.013 370.886C284.143 372.016 285.675 372.652 287.273 372.655H500.455C502.053 372.652 503.584 372.016 504.714 370.886C505.844 369.756 506.48 368.225 506.483 366.627V66.9684C506.48 65.3706 505.844 63.8391 504.714 62.7093C503.584 61.5795 502.053 60.9434 500.455 60.9405H287.273Z" fill="#EBEBEB"/>
<path d="M221.286 432.68H192.582V432.956H221.286V432.68Z" fill="#EBEBEB"/>
<path d="M117.642 429.688H57.916V429.964H117.642V429.688Z" fill="#EBEBEB"/>
<path d="M191.477 442.936H162.42V443.212H191.477V442.936Z" fill="#EBEBEB"/>
<path d="M327.954 441.081H285.086V441.357H327.954V441.081Z" fill="#EBEBEB"/>
<path d="M349.581 441.081H337.779V441.357H349.581V441.081Z" fill="#EBEBEB"/>
<path d="M496.701 436.422H436.467V436.698H496.701V436.422Z" fill="#EBEBEB"/>
<path d="M127.666 175.171H209.362C211.022 175.171 212.614 175.831 213.788 177.005C214.962 178.179 215.622 179.771 215.622 181.431V422.169H121.439V181.42C121.442 179.767 122.099 178.183 123.265 177.013C124.431 175.842 126.013 175.18 127.666 175.171Z" fill="#F5F5F5"/>
<path d="M141.378 189.767H129.234V216.804H141.378V189.767Z" fill="#EBEBEB"/>
<path d="M207.794 189.767H195.65V216.804H207.794V189.767Z" fill="#EBEBEB"/>
<path d="M163.513 189.767H151.369V216.804H163.513V189.767Z" fill="#EBEBEB"/>
<path d="M185.66 189.767H173.516V216.804H185.66V189.767Z" fill="#EBEBEB"/>
<path d="M141.378 232.447H129.234V259.484H141.378V232.447Z" fill="#EBEBEB"/>
<path d="M207.794 232.447H195.65V259.484H207.794V232.447Z" fill="#EBEBEB"/>
<path d="M163.513 232.447H151.369V259.484H163.513V232.447Z" fill="#EBEBEB"/>
<path d="M185.66 232.447H173.516V259.484H185.66V232.447Z" fill="#EBEBEB"/>
<path d="M141.378 275.128H129.234V302.165H141.378V275.128Z" fill="#EBEBEB"/>
<path d="M207.794 275.128H195.65V302.165H207.794V275.128Z" fill="#EBEBEB"/>
<path d="M163.513 275.128H151.369V302.165H163.513V275.128Z" fill="#EBEBEB"/>
<path d="M185.66 275.128H173.516V302.165H185.66V275.128Z" fill="#EBEBEB"/>
<path d="M141.378 317.808H129.234V344.845H141.378V317.808Z" fill="#EBEBEB"/>
<path d="M207.794 317.808H195.65V344.845H207.794V317.808Z" fill="#EBEBEB"/>
<path d="M163.513 317.808H151.369V344.845H163.513V317.808Z" fill="#EBEBEB"/>
<path d="M185.66 317.808H173.516V344.845H185.66V317.808Z" fill="#EBEBEB"/>
<path d="M141.378 360.489H129.234V387.526H141.378V360.489Z" fill="#EBEBEB"/>
<path d="M207.794 360.489H195.65V387.526H207.794V360.489Z" fill="#EBEBEB"/>
<path d="M163.513 360.489H151.369V387.526H163.513V360.489Z" fill="#EBEBEB"/>
<path d="M185.66 360.489H173.516V387.526H185.66V360.489Z" fill="#EBEBEB"/>
<path d="M417.312 197.616H475.824C476.492 197.616 477.154 197.747 477.771 198.003C478.389 198.259 478.95 198.634 479.422 199.106C479.895 199.579 480.27 200.14 480.526 200.758C480.781 201.375 480.913 202.037 480.913 202.705V422.169H412.277V202.716C412.274 201.374 412.802 200.085 413.745 199.13C414.687 198.174 415.969 197.63 417.312 197.616Z" fill="#F5F5F5"/>
<path d="M432.017 210.886H420.977V235.461H432.017V210.886Z" fill="#EBEBEB"/>
<path d="M452.144 210.886H441.104V235.461H452.144V210.886Z" fill="#EBEBEB"/>
<path d="M472.269 210.886H461.229V235.461H472.269V210.886Z" fill="#EBEBEB"/>
<path d="M432.017 249.692H420.977V274.267H432.017V249.692Z" fill="#EBEBEB"/>
<path d="M452.144 249.692H441.104V274.267H452.144V249.692Z" fill="#EBEBEB"/>
<path d="M472.269 249.692H461.229V274.267H472.269V249.692Z" fill="#EBEBEB"/>
<path d="M432.017 288.497H420.977V313.072H432.017V288.497Z" fill="#EBEBEB"/>
<path d="M452.144 288.497H441.104V313.072H452.144V288.497Z" fill="#EBEBEB"/>
<path d="M472.269 288.497H461.229V313.072H472.269V288.497Z" fill="#EBEBEB"/>
<path d="M432.017 327.292H420.977V351.867H432.017V327.292Z" fill="#EBEBEB"/>
<path d="M452.144 327.292H441.104V351.867H452.144V327.292Z" fill="#EBEBEB"/>
<path d="M472.269 327.292H461.229V351.867H472.269V327.292Z" fill="#EBEBEB"/>
<path d="M432.017 366.097H420.977V390.672H432.017V366.097Z" fill="#EBEBEB"/>
<path d="M452.144 366.097H441.104V390.672H452.144V366.097Z" fill="#EBEBEB"/>
<path d="M472.269 366.097H461.229V390.672H472.269V366.097Z" fill="#EBEBEB"/>
<path d="M283.275 134.809H378.319C380.248 134.809 382.099 135.576 383.463 136.94C384.828 138.304 385.594 140.155 385.594 142.084V422.169H276V142.084C276 140.155 276.767 138.304 278.131 136.94C279.495 135.576 281.346 134.809 283.275 134.809Z" fill="#F5F5F5"/>
<path d="M299.229 151.789H285.098V183.242H299.229V151.789Z" fill="#EBEBEB"/>
<path d="M376.496 151.789H362.365V183.242H376.496V151.789Z" fill="#EBEBEB"/>
<path d="M324.985 151.789H310.854V183.242H324.985V151.789Z" fill="#EBEBEB"/>
<path d="M350.741 151.789H336.609V183.242H350.741V151.789Z" fill="#EBEBEB"/>
<path d="M299.229 201.447H285.098V232.9H299.229V201.447Z" fill="#EBEBEB"/>
<path d="M376.496 201.447H362.365V232.9H376.496V201.447Z" fill="#EBEBEB"/>
<path d="M324.985 201.447H310.854V232.9H324.985V201.447Z" fill="#EBEBEB"/>
<path d="M350.741 201.447H336.609V232.9H350.741V201.447Z" fill="#EBEBEB"/>
<path d="M299.229 251.105H285.098V282.558H299.229V251.105Z" fill="#EBEBEB"/>
<path d="M376.496 251.105H362.365V282.558H376.496V251.105Z" fill="#EBEBEB"/>
<path d="M324.985 251.105H310.854V282.558H324.985V251.105Z" fill="#EBEBEB"/>
<path d="M350.741 251.105H336.609V282.558H350.741V251.105Z" fill="#EBEBEB"/>
<path d="M299.229 300.763H285.098V332.216H299.229V300.763Z" fill="#EBEBEB"/>
<path d="M376.496 300.763H362.365V332.216H376.496V300.763Z" fill="#EBEBEB"/>
<path d="M324.985 300.763H310.854V332.216H324.985V300.763Z" fill="#EBEBEB"/>
<path d="M350.741 300.763H336.609V332.216H350.741V300.763Z" fill="#EBEBEB"/>
<path d="M299.229 350.409H285.098V381.862H299.229V350.409Z" fill="#EBEBEB"/>
<path d="M376.496 350.409H362.365V381.862H376.496V350.409Z" fill="#EBEBEB"/>
<path d="M324.985 350.409H310.854V381.862H324.985V350.409Z" fill="#EBEBEB"/>
<path d="M350.741 350.409H336.609V381.862H350.741V350.409Z" fill="#EBEBEB"/>
<path d="M276.001 237.724H215.623V422.169H276.001V237.724Z" fill="#E6E6E6"/>
<path d="M412.278 257.475H385.605V422.17H412.278V257.475Z" fill="#E6E6E6"/>
<path d="M121.408 422.169H68.5703V345.166L121.408 327.292V422.169Z" fill="#E6E6E6"/>
<path d="M464.785 104.195C473.429 96.9863 491.016 82.9214 475.891 80.9121C461.363 78.9801 439.956 87.4809 433.122 94.9439C433.122 87.801 429.755 81.0004 416.927 75.5025C397.187 67.0237 394.129 97.8364 395.167 103.489C387.229 99.6801 362.168 100.387 379.446 111.129H467.148C467.148 111.129 485.253 99.8126 464.785 104.195Z" fill="#F5F5F5"/>
<path d="M69.1103 141.312C69.044 137.205 68.6024 129.168 75.8667 128.064C82.844 126.96 87.5802 131.806 86.7853 136.057C90.2739 131.983 94.977 128.119 102.992 125.017C115.346 120.181 101.601 137.735 98.3994 140.958C103.555 138.75 113.624 139.181 101.204 145.297H64.7715C64.7715 145.297 62.7733 138.806 69.1103 141.312Z" fill="#FAFAFA"/>
<path d="M221.982 92.5813H104.627C104.627 92.5813 111.428 84.3234 122.048 86.9288C117.047 80.5588 114.386 56.6792 131.123 53.6984C139.635 52.186 149.681 67.664 149.891 75.7784C154.086 56.3591 165.678 31.6847 183.475 36.5202C201.271 41.3557 187.482 76.5954 187.482 76.5954C187.482 76.5954 204.583 51.6892 218.781 62.7402C227.237 69.3642 211.362 84.4669 211.362 84.4669C211.362 84.4669 230.803 84.3234 221.982 92.5813Z" fill="#F5F5F5"/>
<path d="M276 472.026C394.219 472.026 490.054 466.431 490.054 459.529C490.054 452.627 394.219 447.032 276 447.032C157.781 447.032 61.9453 452.627 61.9453 459.529C61.9453 466.431 157.781 472.026 276 472.026Z" fill="#F5F5F5"/>
<path d="M218.801 374.952C212.628 375.085 206.753 377.631 202.434 382.044C198.116 386.457 195.697 392.386 195.697 398.561C195.697 404.735 198.116 410.664 202.434 415.077C206.753 419.49 212.628 422.036 218.801 422.17H223.526V374.952H218.801Z" fill="#263238"/>
<path d="M390.815 374.952C387.671 374.884 384.546 375.444 381.622 376.6C378.698 377.756 376.035 379.484 373.788 381.683C371.54 383.882 369.755 386.508 368.536 389.406C367.317 392.304 366.689 395.417 366.689 398.561C366.689 401.705 367.317 404.817 368.536 407.715C369.755 410.614 371.54 413.239 373.788 415.438C376.035 417.637 378.698 419.365 381.622 420.521C384.546 421.677 387.671 422.238 390.815 422.17H395.529V374.952H390.815Z" fill="#263238"/>
<path d="M312.873 422.159C325.909 422.159 336.476 411.591 336.476 398.555C336.476 385.519 325.909 374.952 312.873 374.952C299.837 374.952 289.27 385.519 289.27 398.555C289.27 411.591 299.837 422.159 312.873 422.159Z" fill="#263238"/>
<path d="M140.848 422.159C153.884 422.159 164.451 411.591 164.451 398.555C164.451 385.519 153.884 374.952 140.848 374.952C127.812 374.952 117.244 385.519 117.244 398.555C117.244 411.591 127.812 422.159 140.848 422.159Z" fill="#263238"/>
<path d="M338.507 273.417H248.939V387.217H338.507V273.417Z" fill="#059CE1"/>
<path opacity="0.2" d="M338.507 273.417H248.939V387.217H338.507V273.417Z" fill="black"/>
<path d="M428.918 301.715L428.078 302.431L431.644 306.616L432.484 305.9L428.918 301.715Z" fill="#059CE1"/>
<path d="M414.389 284.638L413.549 285.354L424.656 298.386L425.496 297.67L414.389 284.638Z" fill="#059CE1"/>
<path d="M338.508 387.206H449.747V337.824C449.749 334.157 448.441 330.61 446.059 327.822L411.449 287.151C407.78 282.844 403.219 279.385 398.082 277.014C392.945 274.642 387.354 273.415 381.696 273.417H338.508V387.206Z" fill="#059CE1"/>
<path d="M356.734 333.132V291.29C356.734 290.389 356.912 289.497 357.257 288.664C357.603 287.832 358.108 287.075 358.746 286.439C359.384 285.802 360.141 285.297 360.974 284.953C361.807 284.609 362.7 284.433 363.601 284.435H374.255C379.831 284.435 385.34 285.645 390.403 287.982C395.465 290.318 399.96 293.726 403.577 297.97L429.753 328.683C430.804 329.914 431.384 331.48 431.387 333.099C431.387 334.918 430.665 336.663 429.38 337.951C428.094 339.238 426.35 339.963 424.531 339.966H363.601C361.786 339.966 360.044 339.247 358.757 337.966C357.47 336.686 356.743 334.947 356.734 333.132Z" fill="white"/>
<path d="M449.748 373.759H436.014C435.271 373.759 434.542 373.565 433.897 373.196C433.253 372.827 432.716 372.296 432.34 371.655C431.964 371.015 431.762 370.288 431.754 369.545C431.746 368.803 431.932 368.071 432.293 367.422L434.612 363.271C434.978 362.605 435.517 362.048 436.171 361.66C436.825 361.272 437.572 361.066 438.332 361.063H449.748V373.759Z" fill="white"/>
<path d="M318.735 254.295H102.252V387.206H318.735V254.295Z" fill="#059CE1"/>
<path opacity="0.6" d="M318.735 254.295H102.252V387.206H318.735V254.295Z" fill="white"/>
<path opacity="0.5" d="M197.715 366.948H160.875V374.952H197.715V366.948Z" fill="#059CE1"/>
<path opacity="0.5" d="M112.365 366.948H102.252V374.952H112.365V366.948Z" fill="#059CE1"/>
<path opacity="0.4" d="M177.037 254.295H102.252V387.206H177.037V254.295Z" fill="#059CE1"/>
<path opacity="0.4" d="M135.858 254.295H134.654V387.206H135.858V254.295Z" fill="#059CE1"/>
<path d="M450.829 387.206H101.17C100.17 387.206 99.3594 388.017 99.3594 389.017V394.614C99.3594 395.614 100.17 396.424 101.17 396.424H450.829C451.829 396.424 452.639 395.614 452.639 394.614V389.017C452.639 388.017 451.829 387.206 450.829 387.206Z" fill="#263238"/>
<path d="M395.551 422.159C408.587 422.159 419.154 411.591 419.154 398.555C419.154 385.519 408.587 374.952 395.551 374.952C382.515 374.952 371.947 385.519 371.947 398.555C371.947 411.591 382.515 422.159 395.551 422.159Z" fill="#263238"/>
<path d="M395.552 413.746C403.942 413.746 410.743 406.945 410.743 398.555C410.743 390.165 403.942 383.364 395.552 383.364C387.163 383.364 380.361 390.165 380.361 398.555C380.361 406.945 387.163 413.746 395.552 413.746Z" fill="white"/>
<path d="M223.525 422.159C236.561 422.159 247.129 411.591 247.129 398.555C247.129 385.519 236.561 374.952 223.525 374.952C210.49 374.952 199.922 385.519 199.922 398.555C199.922 411.591 210.49 422.159 223.525 422.159Z" fill="#263238"/>
<path d="M223.527 413.746C231.917 413.746 238.718 406.945 238.718 398.555C238.718 390.165 231.917 383.364 223.527 383.364C215.137 383.364 208.336 390.165 208.336 398.555C208.336 406.945 215.137 413.746 223.527 413.746Z" fill="white"/>
<path d="M254.296 449.913L244.912 449.769L242.361 428.01L251.734 428.164L254.296 449.913Z" fill="#059CE1"/>
<path d="M244.67 448.688L254.893 448.842C255.073 448.841 255.248 448.907 255.382 449.027C255.517 449.148 255.602 449.314 255.621 449.493L256.516 457.862C256.533 458.074 256.505 458.287 256.435 458.487C256.364 458.688 256.253 458.872 256.107 459.027C255.962 459.182 255.785 459.304 255.589 459.387C255.394 459.47 255.183 459.51 254.97 459.507C251.294 459.385 245.983 459.087 241.347 459.021C235.926 458.933 236.456 459.153 230.097 459.021C226.255 458.966 225.681 455.047 227.293 454.726C234.8 453.236 235.551 453.159 242.329 449.35C243.037 448.927 243.845 448.698 244.67 448.688Z" fill="#263238"/>
<path d="M235.505 169.475C232.436 176.033 229.146 182.226 225.492 188.409C223.659 191.478 221.771 194.536 219.729 197.539C218.735 199.04 217.664 200.531 216.605 202.021C215.545 203.511 214.397 204.98 213.171 206.437L212.266 207.541C211.807 208.109 211.313 208.647 210.787 209.153C210.44 209.493 210.071 209.81 209.683 210.102C209.257 210.428 208.807 210.72 208.336 210.974C207.304 211.547 206.185 211.946 205.024 212.156C202.912 212.504 200.744 212.244 198.775 211.405C197.42 210.817 196.153 210.044 195.01 209.109C193.287 207.686 191.751 206.05 190.44 204.24C189.28 202.671 188.204 201.042 187.216 199.36C185.377 196.171 183.736 192.871 182.303 189.48C180.885 186.151 179.643 182.749 178.583 179.29C178.322 178.398 178.392 177.443 178.778 176.599C179.164 175.755 179.841 175.078 180.685 174.692C181.53 174.306 182.485 174.236 183.376 174.497C184.267 174.757 185.035 175.33 185.538 176.11L185.604 176.209C189.075 181.932 192.856 187.46 196.931 192.769C197.885 193.978 198.902 195.135 199.978 196.236C200.841 197.143 201.8 197.954 202.838 198.654C203.235 198.886 203.555 198.996 203.577 198.952C203.599 198.908 203.18 198.698 202.473 198.775C202.003 198.855 201.552 199.028 201.149 199.283C201.093 199.283 201.038 199.36 201.358 198.919L202.043 197.936C205.727 192.424 209.128 186.727 212.233 180.868C215.456 174.951 218.625 168.813 221.639 162.862V162.752C222.536 160.909 224.129 159.497 226.067 158.829C228.005 158.16 230.129 158.288 231.972 159.186C233.815 160.083 235.227 161.676 235.895 163.614C236.564 165.552 236.436 167.676 235.538 169.519L235.505 169.475Z" fill="#059CE1"/>
<path d="M185.904 178.848L183.387 168.404L173.572 172.632C173.572 172.632 174.444 180.923 181.3 181.95L185.904 178.848Z" fill="#263238"/>
<path d="M185.385 176.275C185.385 176.275 188.576 180.382 189.359 181.508C188.255 182.612 181.024 186.267 180.45 185.924C179.534 183.308 178.242 179.852 178.242 179.852L185.385 176.275Z" fill="#263238"/>
<path d="M176.044 161.758L172.434 165.224C172.148 165.506 171.945 165.861 171.846 166.25C171.747 166.639 171.755 167.048 171.871 167.432L173.571 172.588L183.386 168.36L179.356 162.122C179.176 161.863 178.943 161.645 178.671 161.483C178.4 161.322 178.097 161.22 177.783 161.186C177.469 161.151 177.152 161.184 176.852 161.283C176.552 161.382 176.276 161.544 176.044 161.758Z" fill="#263238"/>
<path d="M181.609 173.957C181.267 171.838 183.386 165.191 185.164 164.242C186.941 163.293 185.926 167.874 186.157 169.42C186.798 173.659 187.019 177.7 184.844 177.479C182.669 177.258 182.161 177.645 181.609 173.957Z" fill="#263238"/>
<path opacity="0.2" d="M242.361 428.021L243.675 439.237L253.059 439.381L251.745 428.164L242.361 428.021Z" fill="black"/>
<path d="M227.921 156.945C245.762 154.737 263.028 157.121 272.434 158.943C273.382 159.128 274.283 159.501 275.085 160.038C275.888 160.575 276.575 161.267 277.107 162.072C277.64 162.878 278.006 163.781 278.186 164.73C278.365 165.679 278.354 166.654 278.153 167.598C271.154 201.05 272.247 234.699 271.662 241.853L221.496 241.047C218.062 200.034 220.226 173.913 221.551 163.26C221.758 161.648 222.497 160.152 223.651 159.008C224.805 157.864 226.308 157.138 227.921 156.945Z" fill="#059CE1"/>
<path d="M259.605 133.297C258.016 140.042 256.205 152.473 260.842 157.397C256.978 160.82 251.944 164.728 243.785 164.408C235.627 164.087 237.26 158.612 239.524 155.818C247.252 154.56 247.252 148.885 246.148 143.476L259.605 133.297Z" fill="#FFB573"/>
<path opacity="0.2" d="M254.108 137.448L246.115 143.52C246.399 144.775 246.573 146.054 246.634 147.34C249.571 147.141 253.7 144.237 254.13 141.212C254.353 139.967 254.345 138.691 254.108 137.448Z" fill="black"/>
<path d="M261.881 123.063C260.7 132.281 260.49 137.746 255.489 142.151C247.982 148.775 236.82 143.685 235.208 134.279C233.762 125.801 235.926 112.199 245.244 109.13C247.307 108.464 249.505 108.332 251.633 108.747C253.761 109.161 255.749 110.109 257.411 111.501C259.073 112.893 260.355 114.683 261.137 116.705C261.918 118.727 262.174 120.915 261.881 123.063Z" fill="#FFB573"/>
<path d="M262.421 131.067C258.778 133.275 254.616 132.171 254.274 129.852C253.932 127.534 256.636 123.526 257.652 121.572C257.365 118.26 255.024 117.289 255.444 114.948C252.717 115.202 237.846 115.876 238.2 112.52C238.553 109.163 244.448 105.708 251.448 106.58C258.447 107.452 263.028 110.499 262.366 114.761C266.274 114.131 268.074 120.744 262.421 131.067Z" fill="#263238"/>
<path d="M265.679 132.48C265.061 133.46 264.255 134.309 263.308 134.976C262.36 135.643 261.29 136.115 260.159 136.366C257.134 137.017 255.743 134.268 256.747 131.508C257.619 129.013 260.247 125.679 263.228 126.264C263.876 126.4 264.481 126.694 264.988 127.121C265.495 127.548 265.887 128.094 266.13 128.711C266.373 129.327 266.459 129.995 266.381 130.652C266.302 131.31 266.06 131.938 265.679 132.48Z" fill="#FFB573"/>
<path d="M250.609 334.136C250.233 286.974 260.666 241.676 260.666 241.676L221.562 241.047C221.562 241.047 226.056 309.164 227.623 337.702C229.246 367.367 239.966 437.062 239.966 437.062L255.842 437.294C255.842 437.294 252.817 371.363 250.609 334.136Z" fill="#059CE1"/>
<path opacity="0.4" d="M250.609 334.136C250.233 286.974 260.666 241.676 260.666 241.676L221.562 241.047C221.562 241.047 226.056 309.164 227.623 337.702C229.246 367.367 239.966 437.062 239.966 437.062L255.842 437.294C255.842 437.294 252.817 371.363 250.609 334.136Z" fill="black"/>
<path opacity="0.2" d="M252.132 267.632C240.982 282.889 245.994 311.593 250.565 331.884C250.746 309.511 252.647 287.185 256.25 265.104L252.132 267.632Z" fill="black"/>
<path d="M237.846 430.88L238.872 437.35L256.426 437.648L257.42 431.531L237.846 430.88Z" fill="#263238"/>
<path d="M249.504 124.608C249.504 125.359 249.018 125.944 248.521 125.9C248.024 125.856 247.671 125.227 247.726 124.476C247.782 123.725 248.212 123.14 248.709 123.173C249.206 123.206 249.592 123.847 249.504 124.608Z" fill="#263238"/>
<path d="M239.779 123.515C239.779 124.277 239.293 124.851 238.797 124.818C238.3 124.785 237.947 124.133 238.002 123.383C238.057 122.632 238.488 122.047 238.984 122.08C239.481 122.113 239.834 122.764 239.779 123.515Z" fill="#263238"/>
<path d="M241.776 124.123C240.727 126.361 239.371 128.442 237.746 130.305C238.237 130.711 238.81 131.006 239.425 131.17C240.041 131.334 240.684 131.363 241.312 131.254L241.776 124.123Z" fill="#ED893E"/>
<path d="M244.381 133.926C245.23 133.884 246.061 133.667 246.822 133.287C247.582 132.906 248.255 132.372 248.797 131.718C248.832 131.671 248.848 131.612 248.839 131.554C248.831 131.496 248.8 131.444 248.753 131.409C248.706 131.374 248.647 131.359 248.589 131.367C248.531 131.375 248.479 131.406 248.444 131.453C247.823 132.156 247.043 132.701 246.17 133.043C245.296 133.384 244.354 133.513 243.421 133.418C243.387 133.411 243.352 133.411 243.318 133.419C243.284 133.427 243.253 133.442 243.225 133.464C243.198 133.485 243.176 133.513 243.161 133.544C243.146 133.576 243.139 133.61 243.139 133.645C243.139 133.679 243.146 133.714 243.161 133.745C243.176 133.776 243.198 133.804 243.225 133.825C243.253 133.847 243.284 133.862 243.318 133.87C243.352 133.878 243.387 133.878 243.421 133.871C243.739 133.91 244.06 133.929 244.381 133.926Z" fill="#263238"/>
<path d="M251.093 122.08C251.168 122.079 251.241 122.056 251.303 122.014C251.352 121.982 251.394 121.94 251.427 121.892C251.459 121.843 251.482 121.788 251.493 121.731C251.505 121.673 251.504 121.614 251.493 121.556C251.481 121.499 251.458 121.444 251.424 121.396C251.054 120.792 250.543 120.286 249.936 119.921C249.329 119.556 248.643 119.342 247.936 119.298C247.819 119.298 247.706 119.345 247.623 119.428C247.541 119.51 247.494 119.623 247.494 119.74C247.494 119.86 247.542 119.975 247.627 120.06C247.712 120.145 247.827 120.193 247.947 120.193C248.504 120.239 249.042 120.416 249.518 120.71C249.993 121.003 250.393 121.405 250.685 121.882C250.728 121.949 250.789 122.003 250.861 122.038C250.933 122.073 251.013 122.087 251.093 122.08Z" fill="#263238"/>
<path d="M235.593 120.016C235.664 120.026 235.737 120.018 235.805 119.993C235.872 119.968 235.932 119.927 235.98 119.872C236.331 119.44 236.781 119.098 237.292 118.875C237.803 118.652 238.36 118.555 238.916 118.592C239.033 118.604 239.15 118.571 239.243 118.499C239.335 118.427 239.397 118.321 239.413 118.205C239.421 118.147 239.417 118.088 239.402 118.032C239.386 117.975 239.36 117.922 239.324 117.876C239.288 117.83 239.243 117.791 239.192 117.762C239.141 117.734 239.085 117.715 239.027 117.708C238.326 117.656 237.622 117.773 236.975 118.047C236.328 118.322 235.756 118.747 235.306 119.287C235.232 119.377 235.196 119.492 235.207 119.608C235.217 119.723 235.273 119.83 235.361 119.905C235.424 119.967 235.506 120.006 235.593 120.016Z" fill="#263238"/>
<path d="M303.997 449.913L294.602 449.769L290.738 428.01L300.133 428.164L303.997 449.913Z" fill="#059CE1"/>
<path d="M294.095 448.688L304.318 448.842C304.5 448.843 304.676 448.909 304.814 449.028C304.952 449.148 305.042 449.313 305.069 449.493L306.25 457.862C306.277 458.07 306.259 458.282 306.196 458.483C306.134 458.683 306.029 458.868 305.888 459.024C305.748 459.181 305.575 459.305 305.382 459.388C305.189 459.471 304.981 459.512 304.77 459.507C301.083 459.385 299.924 459.087 295.287 459.021C289.855 458.933 292.372 459.153 286.002 459.021C282.16 458.966 281.41 455.069 283.044 454.726C288.21 453.622 289.502 451.558 291.776 449.35C292.433 448.835 293.265 448.598 294.095 448.688Z" fill="#263238"/>
<path d="M296.049 449.67C294.427 449.725 293.554 449.67 293.135 448.931C292.715 448.191 291.247 446.038 291.357 445.232C291.468 444.426 298.059 443.764 298.71 445.066C299.362 446.369 299.361 449.582 296.049 449.67Z" fill="#263238"/>
<path d="M244.316 449.67C243.3 449.725 242.759 449.67 242.516 448.93C242.012 447.748 241.663 446.504 241.479 445.232C241.556 444.415 245.696 443.764 246.082 445.066C246.469 446.369 246.38 449.582 244.316 449.67Z" fill="#263238"/>
<path opacity="0.2" d="M290.738 428.021L292.737 439.237L302.132 439.381L300.133 428.164L290.738 428.021Z" fill="black"/>
<path d="M287.935 328.561C283.519 286.079 278.33 251.281 271.684 241.853L238.465 241.323C238.465 241.323 257.84 307.961 265.303 336.046C273.031 365.247 288.277 434.236 288.277 434.236L303.402 434.446C303.402 434.446 297.142 361.748 287.935 328.561Z" fill="#059CE1"/>
<path opacity="0.4" d="M287.935 328.561C283.519 286.079 278.33 251.281 271.684 241.853L238.465 241.323C238.465 241.323 257.84 307.961 265.303 336.046C273.031 365.247 288.277 434.236 288.277 434.236L303.402 434.446C303.402 434.446 297.142 361.748 287.935 328.561Z" fill="black"/>
<path d="M286.379 430.88L287.604 437.35L304.584 437.648L305.335 431.531L286.379 430.88Z" fill="#263238"/>
<path d="M249.693 171.23C249.594 168.868 246.878 165.71 245.111 164.419C258.194 160.809 260.645 156.062 260.645 156.062C261.585 156.306 262.487 156.677 263.327 157.166C264.1 164.496 255.025 169.541 249.693 171.23Z" fill="white"/>
<path d="M241.975 164.231C239.04 165.596 236.632 167.884 235.119 170.745C229.676 161.029 237.327 155.421 237.327 155.421C238.174 155.182 239.061 155.122 239.932 155.244C238.464 158.49 240.153 162.763 241.975 164.231Z" fill="white"/>
<path d="M319.639 175.46L236.535 188.311L245.848 248.536L328.952 235.685L319.639 175.46Z" fill="#059CE1"/>
<path opacity="0.9" d="M319.639 175.46L236.535 188.311L245.848 248.536L328.952 235.685L319.639 175.46Z" fill="white"/>
<path opacity="0.2" d="M319.647 175.454L276.322 182.154L285.635 242.379L328.96 235.68L319.647 175.454Z" fill="#059CE1"/>
<path opacity="0.3" d="M259.073 229.524L248.643 231.136L250.215 241.305L260.645 239.692L259.073 229.524Z" fill="#059CE1"/>
<path opacity="0.3" d="M257.124 216.908L246.693 218.521L248.266 228.69L258.696 227.077L257.124 216.908Z" fill="#059CE1"/>
<path opacity="0.5" d="M263.322 184.172L248.615 186.446L249.4 191.52L264.107 189.245L263.322 184.172Z" fill="#059CE1"/>
<path opacity="0.5" d="M309.324 177.047L298.992 178.645L299.777 183.718L310.109 182.121L309.324 177.047Z" fill="#059CE1"/>
<path d="M275.15 160.08C281.521 163.123 287.664 166.621 293.532 170.546C296.613 172.565 299.563 174.777 302.364 177.17C303.899 178.497 305.344 179.925 306.692 181.442C307.463 182.337 308.175 183.281 308.822 184.269C309.658 185.523 310.315 186.886 310.776 188.32C311.092 189.292 311.278 190.302 311.328 191.323C311.344 191.499 311.344 191.677 311.328 191.853V192.228V192.99L311.273 194.514L311.141 195.938C311.052 196.887 310.953 197.837 310.798 198.731C310.644 199.625 310.545 200.553 310.368 201.425C309.783 204.991 308.922 208.38 308.061 211.758C306.265 218.451 304.053 225.026 301.437 231.443C301.086 232.309 300.433 233.018 299.599 233.439C298.765 233.86 297.806 233.963 296.901 233.729C295.996 233.495 295.207 232.941 294.681 232.169C294.155 231.397 293.927 230.46 294.04 229.533V229.444C294.824 222.82 295.784 216.13 296.48 209.572C296.866 206.26 297.164 203.026 297.363 199.857C297.429 199.062 297.429 198.3 297.473 197.517C297.517 196.733 297.473 195.982 297.473 195.242V194.138V193.123V192.615V192.361C297.473 192.361 297.473 192.107 297.473 192.251C297.464 192.427 297.464 192.604 297.473 192.78C297.473 192.902 297.352 192.659 297.087 192.361C296.745 191.968 296.376 191.599 295.983 191.257C295.012 190.31 293.984 189.425 292.903 188.607C290.562 186.83 287.935 185.086 285.23 183.419C279.809 180.107 273.98 176.927 268.294 173.913H268.217C266.452 172.956 265.128 171.348 264.528 169.432C263.927 167.515 264.096 165.44 264.999 163.646C265.901 161.852 267.467 160.48 269.364 159.821C271.261 159.161 273.34 159.266 275.161 160.113L275.15 160.08Z" fill="#059CE1"/>
<path d="M294.845 227.766L289.215 235.406L299.902 239.314C299.902 239.314 304.163 231.774 300.52 228.87L294.845 227.766Z" fill="#263238"/>
<path d="M290.628 245.165L294.602 245.905C295.368 246.041 296.157 245.903 296.831 245.515C297.505 245.128 298.021 244.515 298.289 243.785L299.901 239.369L289.248 235.406L288.033 241.268C287.861 242.129 288.037 243.023 288.524 243.754C289.01 244.484 289.767 244.992 290.628 245.165Z" fill="#263238"/>
<path d="M293.918 229.886C293.918 229.886 294.117 224.686 294.249 223.328C295.806 223.229 303.688 225.05 303.887 225.691C302.916 228.296 301.679 231.763 301.679 231.763L293.918 229.886Z" fill="#263238"/>
<path d="M266.959 121.44C261.627 120.844 239.723 115.511 237.692 113.403C237.548 109.329 239.9 105.211 241.346 104.284C245.376 101.634 254.241 101.535 257.056 102.33C259.871 103.125 267.577 107.044 268.858 110.819C269.851 113.811 266.959 121.44 266.959 121.44Z" fill="#059CE1"/>
<path d="M244.846 112.133C238.123 111.084 231.73 111.548 229.467 114.948C226.939 118.746 235.263 113.104 240.231 115.533C248.544 119.618 246.568 120.258 259.165 119.949C252.684 116.659 252.64 113.347 244.846 112.133Z" fill="#059CE1"/>
<path opacity="0.6" d="M244.846 112.133C238.123 111.084 231.73 111.548 229.467 114.948C226.939 118.746 235.263 113.104 240.231 115.533C248.544 119.618 246.568 120.258 259.165 119.949C252.684 116.659 252.64 113.347 244.846 112.133Z" fill="white"/>
<path d="M259.838 127.942C259.97 127.847 260.06 127.704 260.089 127.543C260.118 127.383 260.083 127.217 259.992 127.081C259.897 126.948 259.753 126.859 259.591 126.832C259.43 126.805 259.264 126.843 259.131 126.938C256.826 128.529 254.678 130.337 252.717 132.336C250.31 129.83 243.543 127.192 239.999 127.247C237.471 127.247 235.792 127.126 233.905 128.991C232.293 130.57 233.629 138.927 234.644 141.29C235.23 142.586 236.102 143.733 237.193 144.645C238.285 145.556 239.569 146.21 240.948 146.556C244.68 147.229 252.651 147.66 252.982 142.206C253.051 140.982 253.21 139.764 253.456 138.563C253.985 138.654 254.521 138.702 255.057 138.707C256.671 138.742 258.25 138.232 259.54 137.26C259.604 137.212 259.658 137.15 259.699 137.08C259.739 137.01 259.766 136.933 259.776 136.853C259.786 136.773 259.78 136.691 259.759 136.613C259.737 136.535 259.7 136.463 259.65 136.399C259.6 136.334 259.538 136.28 259.467 136.239C259.396 136.198 259.318 136.172 259.237 136.162C259.156 136.152 259.073 136.158 258.995 136.179C258.916 136.201 258.842 136.238 258.778 136.289C258.052 136.803 257.231 137.165 256.362 137.355C255.493 137.545 254.595 137.558 253.721 137.393C254.075 135.781 254.251 134.743 253.468 133.396C255.403 131.37 257.537 129.543 259.838 127.942Z" fill="#059CE1"/>
<path opacity="0.6" d="M259.838 127.942C259.97 127.847 260.06 127.704 260.089 127.543C260.118 127.383 260.083 127.217 259.992 127.081C259.897 126.948 259.753 126.859 259.591 126.832C259.43 126.805 259.264 126.843 259.131 126.938C256.826 128.529 254.678 130.337 252.717 132.336C250.31 129.83 243.543 127.192 239.999 127.247C237.471 127.247 235.792 127.126 233.905 128.991C232.293 130.57 233.629 138.927 234.644 141.29C235.23 142.586 236.102 143.733 237.193 144.645C238.285 145.556 239.569 146.21 240.948 146.556C244.68 147.229 252.651 147.66 252.982 142.206C253.051 140.982 253.21 139.764 253.456 138.563C253.985 138.654 254.521 138.702 255.057 138.707C256.671 138.742 258.25 138.232 259.54 137.26C259.604 137.212 259.658 137.15 259.699 137.08C259.739 137.01 259.766 136.933 259.776 136.853C259.786 136.773 259.78 136.691 259.759 136.613C259.737 136.535 259.7 136.463 259.65 136.399C259.6 136.334 259.538 136.28 259.467 136.239C259.396 136.198 259.318 136.172 259.237 136.162C259.156 136.152 259.073 136.158 258.995 136.179C258.916 136.201 258.842 136.238 258.778 136.289C258.052 136.803 257.231 137.165 256.362 137.355C255.493 137.545 254.595 137.558 253.721 137.393C254.075 135.781 254.251 134.743 253.468 133.396C255.403 131.37 257.537 129.543 259.838 127.942Z" fill="white"/>
</svg>
