<svg width="147" height="43" viewBox="0 0 147 43" fill="none" xmlns="http://www.w3.org/2000/svg">
<path d="M43.0577 21.5052C43.0577 22.7465 42.9541 23.9671 42.7469 25.1463C41.0171 35.2834 32.1715 43 21.5338 43C16.7899 43 12.4085 41.4691 8.85572 38.8831C4.65039 39.4107 1.78124 38.9452 1.06654 37.3419C0.641869 36.3902 1.02511 35.1386 2.08162 33.6904C2.35093 33.3077 2.68238 32.9146 3.03455 32.5112C6.38017 28.8184 13.3407 24.1946 21.9896 20.1812C22.4143 19.9846 22.8389 19.7984 23.274 19.6019C27.0132 17.9262 30.6592 16.5504 34.0255 15.5057L24.7655 13.2817L20.0527 12.1439C19.7212 12.0611 19.4312 12.3818 19.5348 12.7024L20.3634 15.216C11.2173 19.4881 4.01856 24.4429 1.0769 28.2081C-0.0210396 24.8566 -0.32142 21.1535 0.403636 17.3159C1.9884 8.82345 8.71071 2.06882 17.2042 0.42412C26.0499 -1.29298 34.1705 2.38948 38.8627 8.75104C39.9606 10.2406 40.8721 11.8749 41.5661 13.6231C42.2394 15.3195 42.6951 17.1297 42.9126 19.0123C43.0059 19.8295 43.0577 20.657 43.0577 21.5052Z" fill="url(#paint0_linear)"/>
<path d="M72.0292 18.3607C72.0292 24.2568 67.7203 28.8288 61.9302 28.8288H53.6024V7.89258H61.9302C67.7099 7.89258 72.0292 12.475 72.0292 18.3607ZM68.0725 18.3607C68.0725 14.5024 65.5555 11.844 61.9302 11.844H57.7352V24.8878H61.9302C65.5555 24.8878 68.0725 22.2294 68.0725 18.3607Z" fill="#1F2147"/>
<path d="M81.9725 25.7564C83.4744 25.7564 84.6655 25.1255 85.3284 24.2566L88.4462 26.0564C87.0375 28.0942 84.7898 29.2527 81.9207 29.2527C76.8867 29.2527 73.7172 25.8082 73.7172 21.3602C73.7172 16.902 76.9178 13.4678 81.6203 13.4678C86.0535 13.4678 89.2023 16.964 89.2023 21.3602C89.2023 21.9292 89.1402 22.436 89.0573 22.9429H77.7671C78.285 24.9186 79.9319 25.7564 81.9725 25.7564ZM85.3284 19.9535C84.852 17.8019 83.2361 16.933 81.6099 16.933C79.5383 16.933 78.14 18.0398 77.6843 19.9535H85.3284Z" fill="#1F2147"/>
<path d="M102.275 24.4634C102.275 27.6908 99.4572 29.2527 96.2566 29.2527C93.2632 29.2527 91.0466 28.0011 89.9694 25.6944L93.3253 23.8118C93.7397 25.0324 94.7547 25.7564 96.2566 25.7564C97.4892 25.7564 98.3282 25.3427 98.3282 24.4738C98.3282 22.2912 90.6012 23.4911 90.6012 18.226C90.6012 15.1745 93.2114 13.4678 96.2877 13.4678C98.7115 13.4678 100.814 14.5746 101.974 16.6434L98.6804 18.4432C98.235 17.4812 97.396 16.9227 96.2877 16.9227C95.3244 16.9227 94.5476 17.3364 94.5476 18.1536C94.5476 20.3362 102.275 18.9604 102.275 24.4634Z" fill="#1F2147"/>
<path d="M109.194 17.5849V23.8119C109.194 25.4256 110.364 25.4566 112.581 25.3325V28.8288C107.164 29.4287 105.331 27.8461 105.331 23.8016V17.5849H102.72V13.8714H105.331V10.8613L109.194 9.69238V13.8817H112.581V17.5849H109.194Z" fill="#1F2147"/>
<path d="M129.806 13.8815V28.8389H125.942V27.0701C124.865 28.4148 123.249 29.2527 121.064 29.2527C117.076 29.2527 113.782 25.8082 113.782 21.3602C113.782 16.902 117.076 13.4678 121.064 13.4678C123.249 13.4678 124.865 14.3056 125.942 15.6504V13.8815H129.806ZM125.942 21.3602C125.942 18.8467 124.171 17.1399 121.778 17.1399C119.417 17.1399 117.646 18.8467 117.646 21.3602C117.646 23.8738 119.417 25.5806 121.778 25.5806C124.171 25.5702 125.942 23.8738 125.942 21.3602Z" fill="#1F2147"/>
<path d="M147 19.6535V28.839H143.136V20.1293C143.136 18.0916 141.904 17.0468 140.174 17.0468C138.289 17.0468 136.88 18.1536 136.88 20.7603V28.839H133.017V13.8816H136.88V15.5573C137.781 14.2126 139.335 13.4678 141.344 13.4678C144.514 13.4575 147 15.6711 147 19.6535Z" fill="#1F2147"/>
<path d="M56.5026 35.3868C56.5026 36.1523 55.9226 36.7419 55.1354 36.7419H54.1617V38.2521H53.6024V34.0317H55.1354C55.9122 34.0317 56.5026 34.611 56.5026 35.3868ZM55.9433 35.3868C55.9433 34.9006 55.6015 34.5593 55.1354 34.5593H54.1617V36.2247H55.1354C55.6015 36.2143 55.9433 35.8626 55.9433 35.3868Z" fill="#1F2147"/>
<path d="M58.5018 35.1802V35.7284C58.0461 35.7077 57.5593 35.9353 57.5593 36.649V38.242H57.031V35.2319H57.5593V35.7388C57.7561 35.325 58.129 35.1802 58.5018 35.1802Z" fill="#1F2147"/>
<path d="M58.6879 36.7418C58.6879 35.8522 59.3922 35.1592 60.2726 35.1592C61.1531 35.1592 61.8678 35.8522 61.8678 36.7418C61.8678 37.6314 61.1531 38.3244 60.2726 38.3244C59.3922 38.3244 58.6879 37.6314 58.6879 36.7418ZM61.3395 36.7418C61.3395 36.1315 60.8734 35.666 60.2726 35.666C59.6719 35.666 59.2161 36.1315 59.2161 36.7418C59.2161 37.3521 59.6822 37.8176 60.2726 37.8176C60.8734 37.8176 61.3395 37.3521 61.3395 36.7418Z" fill="#1F2147"/>
<path d="M63.1215 35.1488V35.2419H63.9191V35.7488H63.1215V38.252H62.5933V35.7488H62.1064V35.2419H62.5933V35.1488C62.5933 34.3523 63.049 33.8972 63.9087 33.9592V34.4661C63.3908 34.4144 63.1215 34.6213 63.1215 35.1488Z" fill="#1F2147"/>
<path d="M65.6177 37.8279C66.032 37.8279 66.3324 37.6314 66.4877 37.3935L66.9331 37.6417C66.6638 38.0555 66.2081 38.3244 65.6073 38.3244C64.6337 38.3244 63.9915 37.6417 63.9915 36.7418C63.9915 35.8522 64.6337 35.1592 65.5659 35.1592C66.4774 35.1592 67.0678 35.9039 67.0678 36.7522C67.0678 36.8349 67.0574 36.9073 67.0471 36.9901H64.5197C64.6233 37.528 65.048 37.8279 65.6177 37.8279ZM64.5197 36.5246H66.5292C66.4359 35.9246 66.0113 35.6557 65.5555 35.6557C64.9962 35.6557 64.6026 35.997 64.5197 36.5246Z" fill="#1F2147"/>
<path d="M69.6882 37.4246C69.6882 37.9832 69.2014 38.3245 68.5592 38.3245C67.9584 38.3245 67.5338 38.0349 67.3577 37.6211L67.8134 37.3625C67.9066 37.6522 68.1863 37.828 68.5592 37.828C68.8803 37.828 69.1599 37.7142 69.1599 37.4143C69.1599 36.7729 67.4716 37.135 67.4716 36.0489C67.4716 35.5213 67.9274 35.1489 68.5385 35.1489C69.0357 35.1489 69.4293 35.3868 69.6261 35.7799L69.191 36.0282C69.0771 35.7592 68.8078 35.6454 68.5488 35.6454C68.2795 35.6454 68.0102 35.7799 68.0102 36.0489C67.9999 36.6902 69.6882 36.3178 69.6882 37.4246Z" fill="#1F2147"/>
<path d="M72.8269 35.2314L71.5943 38.4277C71.3457 39.1001 70.8693 39.4828 70.2581 39.4414V38.9553C70.6621 38.9863 70.9107 38.7381 71.0764 38.345L71.1282 38.2312L69.8127 35.2314H70.3721L71.3975 37.5899L72.2676 35.2314H72.8269Z" fill="#1F2147"/>
<path d="M72.9714 36.7418C72.9714 35.8522 73.6758 35.1592 74.5562 35.1592C75.4366 35.1592 76.1513 35.8522 76.1513 36.7418C76.1513 37.6314 75.4366 38.3244 74.5562 38.3244C73.6758 38.3244 72.9714 37.6314 72.9714 36.7418ZM75.623 36.7418C75.623 36.1315 75.1569 35.666 74.5562 35.666C73.9554 35.666 73.4997 36.1315 73.4997 36.7418C73.4997 37.3521 73.9658 37.8176 74.5562 37.8176C75.1569 37.8176 75.623 37.3521 75.623 36.7418Z" fill="#1F2147"/>
<path d="M79.4454 36.4005V38.252H78.9172V36.4315C78.9172 35.935 78.6375 35.6557 78.1714 35.6557C77.6846 35.6557 77.3013 35.935 77.3013 36.6487V38.2417H76.7731V35.2316H77.3013V35.666C77.5292 35.3143 77.8607 35.1592 78.275 35.1592C78.9793 35.1592 79.4454 35.6247 79.4454 36.4005Z" fill="#1F2147"/>
<path d="M81.6312 37.8279C82.0455 37.8279 82.3459 37.6314 82.5013 37.3935L82.9467 37.6417C82.6773 38.0555 82.2216 38.3244 81.6208 38.3244C80.6472 38.3244 80.005 37.6417 80.005 36.7418C80.005 35.8522 80.6472 35.1592 81.5794 35.1592C82.4909 35.1592 83.0813 35.9039 83.0813 36.7522C83.0813 36.8349 83.071 36.9073 83.0606 36.9901H80.5333C80.6472 37.528 81.0719 37.8279 81.6312 37.8279ZM80.5436 36.5246H82.5531C82.4598 35.9246 82.0352 35.6557 81.5794 35.6557C81.0201 35.6557 80.6265 35.997 80.5436 36.5246Z" fill="#1F2147"/>
<path d="M83.6821 33.856H84.2104V38.2522H83.6821V33.856Z" fill="#1F2147"/>
<path d="M89.099 37.7142V38.2417H86.582V34.0317H89.068V34.5593H87.1414V35.8523H88.9229V36.3798H87.1414V37.7142H89.099Z" fill="#1F2147"/>
<path d="M92.3932 35.2314L91.1917 38.2415H90.5805L89.379 35.2314H89.9487L90.8913 37.683L91.8339 35.2314H92.3932Z" fill="#1F2147"/>
<path d="M94.1749 36.1416C94.1749 34.921 95.1382 33.959 96.3605 33.959C97.5827 33.959 98.546 34.9313 98.546 36.1416C98.546 37.3518 97.5827 38.3242 96.3605 38.3242C95.1382 38.3242 94.1749 37.3518 94.1749 36.1416ZM97.9867 36.1416C97.9867 35.2106 97.2823 34.4969 96.3605 34.4969C95.4386 34.4969 94.7343 35.2106 94.7343 36.1416C94.7343 37.0622 95.4386 37.7759 96.3605 37.7759C97.2823 37.7759 97.9867 37.0622 97.9867 36.1416Z" fill="#1F2147"/>
<path d="M101.56 38.242H101.032V35.7387H99.9129V38.242H99.3847V35.7387H98.9186V35.2319H99.4054V35.1388C99.4054 34.3423 99.8612 33.9492 100.721 33.9492C100.918 33.9492 101.114 33.9802 101.342 34.032V34.5078C101.114 34.4768 100.918 34.4561 100.721 34.4561C100.193 34.4561 99.9233 34.6216 99.9233 35.1388V35.2319H101.56V38.242Z" fill="#1F2147"/>
<path d="M104.501 37.4246C104.501 37.9832 104.015 38.3245 103.372 38.3245C102.772 38.3245 102.347 38.0349 102.171 37.6211L102.627 37.3625C102.72 37.6522 103 37.828 103.372 37.828C103.694 37.828 103.973 37.7142 103.973 37.4143C103.973 36.7729 102.285 37.135 102.285 36.0489C102.285 35.5213 102.741 35.1489 103.352 35.1489C103.849 35.1489 104.242 35.3868 104.439 35.7799L104.004 36.0282C103.89 35.7592 103.621 35.6454 103.362 35.6454C103.093 35.6454 102.823 35.7799 102.823 36.0489C102.813 36.6902 104.501 36.3178 104.501 37.4246Z" fill="#1F2147"/>
<path d="M109.866 34.0317V38.2417H109.411L107.236 35.0972V38.2417H106.676V34.0317H107.132L109.307 37.1763V34.0317H109.866Z" fill="#1F2147"/>
<path d="M113.731 35.2316V38.2417H113.202V37.7245C112.964 38.0969 112.57 38.3244 112.063 38.3244C111.224 38.3244 110.54 37.6314 110.54 36.7418C110.54 35.8522 111.224 35.1592 112.063 35.1592C112.57 35.1592 112.964 35.3867 113.202 35.7591V35.2419H113.731V35.2316ZM113.213 36.7418C113.213 36.1315 112.747 35.666 112.135 35.666C111.535 35.666 111.069 36.1315 111.069 36.7418C111.069 37.3521 111.535 37.8176 112.135 37.8176C112.747 37.8176 113.213 37.3521 113.213 36.7418Z" fill="#1F2147"/>
<path d="M116.423 38.2417L115.046 36.8143V38.2417H114.517V34.0317H115.046V36.566L116.351 35.2316H117.024L115.584 36.6901L117.076 38.2417H116.423Z" fill="#1F2147"/>
<path d="M117.563 33.856H118.091V38.2522H117.563V33.856Z" fill="#1F2147"/>
<path d="M118.806 34.3419C118.806 34.1454 118.962 33.9902 119.158 33.9902C119.355 33.9902 119.51 34.1557 119.51 34.3419C119.51 34.5385 119.355 34.6936 119.158 34.6936C118.962 34.6833 118.806 34.5281 118.806 34.3419ZM118.899 35.2315H119.428V38.2416H118.899V35.2315Z" fill="#1F2147"/>
<path d="M122.887 35.2314L121.654 38.4277C121.405 39.1001 120.929 39.4828 120.318 39.4414V38.9553C120.722 38.9863 120.97 38.7381 121.136 38.345L121.188 38.2312L119.872 35.2314H120.432L121.457 37.5899L122.327 35.2314H122.887Z" fill="#1F2147"/>
<path d="M126.222 35.2316V38.2417H125.694V37.7245C125.456 38.0969 125.062 38.3244 124.555 38.3244C123.716 38.3244 123.032 37.6314 123.032 36.7418C123.032 35.8522 123.716 35.1592 124.555 35.1592C125.062 35.1592 125.456 35.3867 125.694 35.7591V35.2419H126.222V35.2316ZM125.704 36.7418C125.704 36.1315 125.238 35.666 124.627 35.666C124.026 35.666 123.56 36.1315 123.56 36.7418C123.56 37.3521 124.026 37.8176 124.627 37.8176C125.238 37.8176 125.704 37.3521 125.704 36.7418Z" fill="#1F2147"/>
<path d="M127.859 35.7388V37.3731C127.859 37.8282 128.128 37.7972 128.656 37.7765V38.242C127.755 38.3661 127.331 38.1179 127.331 37.3731V35.7388H126.73V35.2319H127.331V34.5492L127.859 34.394V35.2319H128.656V35.7388H127.859Z" fill="#1F2147"/>
<path d="M129.277 35.2314H129.805V38.2415H129.277V35.2314Z" fill="#1F2147"/>
<defs>
<linearGradient id="paint0_linear" x1="-0.000323662" y1="21.5023" x2="43.0557" y2="21.5023" gradientUnits="userSpaceOnUse">
<stop stop-color="#404E9C"/>
<stop offset="1" stop-color="#41B4E8"/>
</linearGradient>
</defs>
</svg>
