<svg width="106" height="31" viewBox="0 0 106 31" fill="none" xmlns="http://www.w3.org/2000/svg">
<path d="M51.0654 15.0367C51.0654 19.2822 47.9618 22.5793 43.8033 22.5793H37.8125V7.49414H43.8033C47.9618 7.49414 51.0654 10.7913 51.0654 15.0367ZM48.2212 15.0367C48.2212 12.2561 46.4108 10.3383 43.8033 10.3383H40.786V19.7344H43.8033C46.4108 19.7344 48.2219 17.8166 48.2219 15.0367H48.2212Z" fill="#424242"/>
<path d="M58.2192 20.3596C59.2968 20.3596 60.1589 19.9066 60.6301 19.282L62.8716 20.5751C61.859 22.0407 60.2415 22.8809 58.1732 22.8809C54.5531 22.8809 52.2686 20.4027 52.2686 17.191C52.2686 13.9794 54.5779 11.502 57.9606 11.502C61.1503 11.502 63.413 14.0232 63.413 17.191C63.4111 17.5744 63.3752 17.9567 63.3056 18.3337H55.1807C55.5686 19.7561 56.7544 20.3596 58.2192 20.3596ZM60.6301 16.1785C60.2853 14.6267 59.1215 14.002 57.9576 14.002C56.4709 14.002 55.4583 14.7991 55.1347 16.1785H60.6301Z" fill="#424242"/>
<path d="M72.8302 19.4335C72.8302 21.7611 70.8043 22.8819 68.4985 22.8819C66.3433 22.8819 64.7492 21.9767 63.9733 20.3175L66.3842 18.9593C66.6859 19.8433 67.4187 20.3606 68.4963 20.3606C69.3804 20.3606 69.9838 20.0589 69.9838 19.4335C69.9838 17.8605 64.4233 18.7226 64.4233 14.9294C64.4233 12.7311 66.2987 11.5029 68.5183 11.5029C70.2636 11.5029 71.7723 12.3007 72.6096 13.7875L70.2395 15.0806C69.9159 14.3909 69.3124 13.9811 68.5153 13.9811C67.8257 13.9811 67.2653 14.2828 67.2653 14.8651C67.2704 16.4578 72.8302 15.4671 72.8302 19.4335Z" fill="#424242"/>
<path d="M77.8107 14.476V18.9581C77.8107 20.1219 78.6509 20.1439 80.2458 20.0577V22.5789C76.3451 23.01 75.0308 21.8681 75.0308 18.9581V14.476H73.1554V11.8035H75.0308V9.62704L77.807 8.78613V11.8035H80.2421V14.476H77.8107Z" fill="#424242"/>
<path d="M92.635 11.8037V22.5791H89.8551V21.3079C89.0792 22.2774 87.9154 22.8809 86.3417 22.8809C83.4756 22.8809 81.1056 20.4027 81.1056 17.191C81.1056 13.9794 83.4756 11.502 86.3417 11.502C87.9154 11.502 89.0792 12.1054 89.8551 13.0749V11.8037H92.635ZM89.8551 17.191C89.8551 15.3814 88.5832 14.1525 86.8597 14.1525C85.1574 14.1525 83.8862 15.3814 83.8862 17.191C83.8862 19.0007 85.1574 20.2303 86.8597 20.2303C88.5832 20.2303 89.8551 19.0014 89.8551 17.191Z" fill="#424242"/>
<path d="M105.004 15.9629V22.5791H102.228V16.3078C102.228 14.8422 101.344 14.0882 100.094 14.0882C98.7369 14.0882 97.7236 14.8853 97.7236 16.7607V22.5791H94.9474V11.8037H97.7236V13.0106C98.3702 12.0411 99.4909 11.502 100.938 11.502C103.215 11.502 105.004 13.0968 105.004 15.9629Z" fill="#424242"/>
<path d="M30.3714 15.1867C30.3715 16.0483 30.2982 16.9084 30.1522 17.7576C28.9336 24.9232 22.6973 30.3734 15.189 30.3734C11.9755 30.3787 8.84375 29.3602 6.24806 27.4657C3.2848 27.8353 1.25522 27.5073 0.751113 26.3793C0.450841 25.7093 0.718968 24.8217 1.46782 23.7996C1.67751 23.5101 1.90287 23.2323 2.14289 22.9674C4.5005 20.3599 9.41517 17.0913 15.5127 14.2625C15.8129 14.1236 16.1139 13.9892 16.4186 13.8504C18.8871 12.7387 21.4188 11.7732 24.0006 10.9587L17.4684 9.38724L14.1428 8.58359C14.0896 8.57039 14.0338 8.5717 13.9812 8.58738C13.9287 8.60306 13.8813 8.63253 13.844 8.67274C13.8067 8.71294 13.7809 8.76241 13.7692 8.81598C13.7575 8.86956 13.7604 8.92529 13.7775 8.97738L14.362 10.7527C7.91234 13.7722 2.83183 17.2717 0.755497 19.9304C-0.0511504 17.4463 -0.215034 14.7982 0.279153 12.2336C1.4028 6.23475 6.14286 1.46108 12.1337 0.297983C18.37 -0.916255 24.0978 1.6861 27.4125 6.18068C28.981 8.30468 29.9661 10.8023 30.2698 13.4252C30.3388 14.0098 30.3727 14.598 30.3714 15.1867Z" fill="#424242"/>
</svg>
