<svg width="1440" height="464" viewBox="0 0 1440 464" fill="none" xmlns="http://www.w3.org/2000/svg">
<g opacity="0.5" clip-path="url(#clip0)">
<path d="M102.01 154.353C204.535 169.561 260.655 222.117 336.515 230.29C433.665 240.635 414.855 188.287 471.905 174.424C578.564 148.56 768.213 308.916 792.811 257.085C807.073 226.979 865.57 245.498 865.57 245.498C865.57 245.498 767.387 158.905 865.57 164.078C963.237 169.251 947.838 128.903 946.598 117.006C940.604 54.932 1001.89 39.1032 1089.43 78.5199C1147.2 104.384 1172.83 107.074 1193.09 92.5899C1202.7 85.7619 1216.97 43.0345 1278.15 79.3476C1331.79 111.212 1460.46 78.1061 1460.46 145.87C1460.46 174.837 1496.84 179.183 1511 186.011V520.794H-71V223.048C-28.4193 185.39 31.8345 143.904 102.01 154.353Z" fill="url(#paint0_linear)"/>
<path d="M-5 464V92.4896C11.0195 92.4896 16.807 92.7999 32.6198 92.7999C39.6477 92.7999 40.4746 97.1451 40.4746 104.387C40.4746 110.594 40.2679 155.391 40.2679 171.013C40.2679 174.013 41.4048 176.082 44.1953 176.082C52.7734 176.082 55.7706 176.289 59.698 176.289C64.8655 176.289 64.9689 173.496 64.9689 168.116C64.9689 159.839 66.4158 66.6256 66.4158 57.5214C66.4158 49.9691 67.5526 47.2793 73.9604 47.2793C80.6782 47.2793 131.837 47.2793 140.725 47.2793C145.686 47.2793 146.927 52.5556 146.927 55.2454C146.927 67.7636 145.17 135.113 145.17 146.183C145.17 149.287 147.34 150.528 149.82 150.528C154.575 150.528 160.259 150.528 166.15 150.528C168.32 150.528 170.077 148.77 170.181 146.597L170.904 88.5582C170.904 86.1787 172.868 84.3165 175.245 84.3165L224.027 85.2476C226.921 85.3511 229.194 87.6271 229.194 90.5239C229.194 113.491 229.298 206.912 229.298 225.741C229.298 228.741 230.021 229.983 232.915 229.983C234.569 229.983 243.457 229.983 247.901 229.983C249.451 229.983 250.588 229.465 250.588 227.913C250.588 224.292 250.588 221.085 250.588 216.74C250.588 213.119 252.035 212.705 256.169 212.705C258.856 212.705 267.331 212.705 272.395 212.705C274.462 212.705 276.116 211.05 276.219 208.981C276.323 203.084 276.529 191.704 276.529 188.083C276.529 187.152 277.149 184.358 279.836 184.358C293.686 184.358 321.9 184.565 337.403 184.565C341.331 184.565 342.571 186.221 342.571 190.98C342.571 211.774 342.467 278.607 342.467 286.78C342.467 289.47 345.465 291.849 347.738 291.849C358.073 291.849 380.604 292.16 390.112 292.16C393.42 292.16 394.453 288.746 394.453 287.608C394.453 279.848 394.453 264.226 394.453 255.433C394.453 252.329 394.35 249.743 399.517 249.743C417.087 249.743 444.269 249.846 461.218 250.053C466.179 250.053 472.07 249.432 472.07 255.433C472.07 261.019 471.967 271.468 471.967 275.917C471.967 279.745 472.38 283.159 477.651 283.159C482.715 283.159 481.785 283.055 489.123 283.055C495.324 283.055 497.081 286.056 497.081 291.746C497.081 309.851 497.288 429.239 497.081 463.69H-5V464Z" fill="url(#paint1_linear)"/>
<path d="M276.116 209.084V464H290.172V188.393C290.172 186.841 290.482 184.565 293.479 184.565C296.269 184.565 281.8 184.462 279.733 184.462C277.046 184.565 276.426 187.255 276.426 188.186C276.426 191.807 276.219 203.084 276.116 209.084Z" fill="url(#paint2_linear)"/>
<path d="M394.35 255.433V464H416.777V255.64C416.777 252.122 416.674 250.157 420.394 250.053C420.911 250.053 404.995 250.053 399.311 250.053C394.35 249.95 394.35 252.329 394.35 255.433Z" fill="url(#paint3_linear)"/>
<path d="M128.22 229.982H170.181V464H128.22V229.982Z" fill="url(#paint4_linear)"/>
<path d="M171.524 233.707H249.348C250.071 233.707 250.588 233.19 250.588 232.465V231.327C250.588 230.603 250.071 230.086 249.348 230.086H171.524C170.801 230.086 170.284 230.603 170.284 231.327V232.465C170.181 233.086 170.801 233.707 171.524 233.707Z" fill="white"/>
<path d="M309.808 202.98H340.917C341.744 202.98 342.467 202.256 342.467 201.429V197.29C342.467 196.463 341.744 195.739 340.917 195.739H309.808C308.982 195.739 308.258 196.463 308.258 197.29V201.429C308.258 202.256 308.982 202.98 309.808 202.98Z" fill="white"/>
<path d="M295.546 233.293H341.02C341.744 233.293 342.364 232.673 342.364 231.948V227.5C342.364 226.776 341.744 226.155 341.02 226.155H295.546C294.822 226.155 294.202 226.776 294.202 227.5V231.948C294.202 232.673 294.822 233.293 295.546 233.293Z" fill="#A6ADE9"/>
<path d="M295.339 263.606H331.305C331.926 263.606 332.546 263.088 332.546 262.364V257.605C332.546 256.985 332.029 256.364 331.305 256.364H295.339C294.719 256.364 294.099 256.881 294.099 257.605V262.468C294.202 263.088 294.719 263.606 295.339 263.606Z" fill="#EDEDFC"/>
<path d="M434.45 272.192H442.408C443.028 272.192 443.442 271.779 443.442 271.158V256.881C443.442 256.26 443.028 255.846 442.408 255.846H434.45C433.83 255.846 433.417 256.26 433.417 256.881V271.158C433.417 271.779 433.933 272.192 434.45 272.192Z" fill="#CEDEF7"/>
<path d="M421.428 321.644H429.386C430.006 321.644 430.419 321.231 430.419 320.61V306.333C430.419 305.712 430.006 305.298 429.386 305.298H421.428C420.808 305.298 420.394 305.712 420.394 306.333V320.61C420.394 321.231 420.911 321.644 421.428 321.644Z" fill="#EDEDFC"/>
<path d="M447.472 346.37H455.43C456.051 346.37 456.464 345.957 456.464 345.336V331.059C456.464 330.438 456.051 330.024 455.43 330.024H447.472C446.852 330.024 446.439 330.438 446.439 331.059V345.336C446.439 345.853 446.852 346.37 447.472 346.37Z" fill="#96C7F5"/>
<path d="M434.45 371.096H442.408C443.028 371.096 443.442 370.682 443.442 370.062V355.785C443.442 355.164 443.028 354.75 442.408 354.75H434.45C433.83 354.75 433.417 355.164 433.417 355.785V370.062C433.417 370.579 433.933 371.096 434.45 371.096Z" fill="#EDEDFC"/>
<path d="M421.428 371.096H429.386C430.006 371.096 430.419 370.682 430.419 370.062V355.785C430.419 355.164 430.006 354.75 429.386 354.75H421.428C420.808 354.75 420.394 355.164 420.394 355.785V370.062C420.394 370.579 420.911 371.096 421.428 371.096Z" fill="#96C7F5"/>
<path d="M447.472 395.719H455.43C456.051 395.719 456.464 395.305 456.464 394.684V380.407C456.464 379.787 456.051 379.373 455.43 379.373H447.472C446.852 379.373 446.439 379.787 446.439 380.407V394.684C446.439 395.305 446.852 395.719 447.472 395.719Z" fill="#EDEDFC"/>
<path d="M421.428 395.719H429.386C430.006 395.719 430.419 395.305 430.419 394.684V380.407C430.419 379.787 430.006 379.373 429.386 379.373H421.428C420.808 379.373 420.394 379.787 420.394 380.407V394.684C420.394 395.305 420.911 395.719 421.428 395.719Z" fill="#EDEDFC"/>
<path d="M206.354 264.951H216.069C216.585 264.951 217.102 264.537 217.102 263.916V249.536C217.102 249.019 216.689 248.501 216.069 248.501H206.354C205.837 248.501 205.32 248.915 205.32 249.536V263.916C205.32 264.537 205.837 264.951 206.354 264.951Z" fill="#91BFEB"/>
<path d="M174.625 264.951H184.34C184.857 264.951 185.373 264.537 185.373 263.916V249.536C185.373 249.019 184.96 248.501 184.34 248.501H174.625C174.108 248.501 173.591 248.915 173.591 249.536V263.916C173.591 264.537 174.005 264.951 174.625 264.951Z" fill="#EDEDFC"/>
<path d="M238.186 316.161H247.901C248.418 316.161 248.934 315.748 248.934 315.127V300.746C248.934 300.229 248.521 299.712 247.901 299.712H238.186C237.669 299.712 237.152 300.126 237.152 300.746V315.127C237.152 315.644 237.566 316.161 238.186 316.161Z" fill="#91BFEB"/>
<path d="M206.354 316.161H216.069C216.585 316.161 217.102 315.748 217.102 315.127V300.746C217.102 300.229 216.689 299.712 216.069 299.712H206.354C205.837 299.712 205.32 300.126 205.32 300.746V315.127C205.32 315.644 205.837 316.161 206.354 316.161Z" fill="#EDEDFC"/>
<path d="M174.625 316.161H184.34C184.857 316.161 185.373 315.748 185.373 315.127V300.746C185.373 300.229 184.96 299.712 184.34 299.712H174.625C174.108 299.712 173.591 300.126 173.591 300.746V315.127C173.591 315.644 174.005 316.161 174.625 316.161Z" fill="#96C7F5"/>
<path d="M190.437 341.715H200.153C200.669 341.715 201.186 341.301 201.186 340.681V326.3C201.186 325.783 200.773 325.266 200.153 325.266H190.437C189.921 325.266 189.404 325.679 189.404 326.3V340.681C189.507 341.301 189.921 341.715 190.437 341.715Z" fill="#EDEDFC"/>
<path d="M206.354 367.269H216.069C216.585 367.269 217.102 366.855 217.102 366.234V351.854C217.102 351.336 216.689 350.819 216.069 350.819H206.354C205.837 350.819 205.32 351.233 205.32 351.854V366.234C205.32 366.855 205.837 367.269 206.354 367.269Z" fill="#96C7F5"/>
<path d="M173.591 93.6277H227.127V98.1797H173.591V93.6277Z" fill="url(#paint5_linear)"/>
<path d="M193.435 106.663H227.127V111.215H193.435V106.663Z" fill="url(#paint6_linear)"/>
<path d="M173.591 119.698H218.446V124.251H173.591V119.698Z" fill="white"/>
<path d="M173.591 171.84H200.359V176.392H173.591V171.84Z" fill="url(#paint7_linear)"/>
<path d="M189.507 184.876H227.127V189.428H189.507V184.876Z" fill="url(#paint8_linear)"/>
<path d="M185.27 210.947H227.127V215.499H185.27V210.947Z" fill="url(#paint9_linear)"/>
<path d="M-71 464H911.458C886.137 442.688 799.529 415.893 712.404 415.893C628.172 415.893 622.281 437.826 533.192 437.826C513.969 437.826 473.145 423.859 449.168 423.859C413.511 423.756 382.299 438.446 357.288 437.929C330.727 437.308 322.459 421.79 300.755 418.893C285.666 416.824 274.194 428.618 259.518 430.273C246.185 431.825 215.077 425.1 197.61 422.618C134.359 413.617 160.404 453.551 100.77 421.169C83.3036 411.651 85.3707 448.482 58.2925 443.619C42.3765 440.722 19.5357 401.823 2.79279 418.065C-18.1876 438.343 -39.0645 391.477 -70.8967 400.168V464H-71Z" fill="url(#paint10_linear)"/>
<path d="M1511 464H447.721C455.989 434.411 516.449 387.856 593.136 399.236C640.988 406.271 689.563 374.407 742.686 379.269C817.719 386.098 809.967 406.375 893.062 406.168C987.628 405.961 1043.23 357.958 1130.56 362.303C1206.73 366.131 1224.61 392.512 1318.35 394.271C1380.57 395.409 1441.55 348.646 1489.5 348.646C1496.74 348.646 1503.87 348.957 1510.9 349.474V464H1511Z" fill="url(#paint11_linear)"/>
<path d="M1511 464H843.97C861.126 444.654 916.729 423.756 975.846 427.791C1030.93 431.618 1044.89 440.205 1105.35 440.205C1165.7 440.205 1201.36 409.582 1257.17 411.341C1305.74 412.893 1328.07 434.619 1388.01 435.343C1427.8 435.86 1466.66 416.617 1497.36 416.617C1501.91 416.617 1506.56 416.721 1511 416.928V464V464Z" fill="url(#paint12_linear)"/>
<path d="M1204.4 108.672C1199.24 87.1725 1212.47 65.5563 1233.95 60.3909C1255.43 55.2255 1277.02 68.467 1282.18 89.9666C1287.34 111.466 1274.11 133.082 1252.64 138.248C1231.16 143.413 1209.56 130.172 1204.4 108.672Z" fill="white"/>
</g>
<defs>
<linearGradient id="paint0_linear" x1="1511" y1="288.899" x2="-71.0089" y2="288.899" gradientUnits="userSpaceOnUse">
<stop stop-color="#99DCFA"/>
<stop offset="0.1998" stop-color="#BDDDF5"/>
<stop offset="0.4039" stop-color="#DADFF0"/>
<stop offset="0.6071" stop-color="#EEDFED"/>
<stop offset="0.807" stop-color="#FBE0EC"/>
<stop offset="1" stop-color="#FFE0EB"/>
</linearGradient>
<linearGradient id="paint1_linear" x1="246.004" y1="47.2755" x2="246.004" y2="464.003" gradientUnits="userSpaceOnUse">
<stop stop-color="#777FE0"/>
<stop offset="0.2034" stop-color="#91A4E9"/>
<stop offset="0.4068" stop-color="#A6C1F1"/>
<stop offset="0.609" stop-color="#B5D5F6"/>
<stop offset="0.808" stop-color="#BEE2F9"/>
<stop offset="1" stop-color="#C1E6FA"/>
</linearGradient>
<linearGradient id="paint2_linear" x1="284.957" y1="184.421" x2="284.957" y2="463.999" gradientUnits="userSpaceOnUse">
<stop stop-color="#7C84E0"/>
<stop offset="0.1875" stop-color="#94A5E9"/>
<stop offset="0.3947" stop-color="#A9C2F0"/>
<stop offset="0.601" stop-color="#B8D6F6"/>
<stop offset="0.804" stop-color="#C1E3F9"/>
<stop offset="1" stop-color="#C4E7FA"/>
</linearGradient>
<linearGradient id="paint3_linear" x1="407.377" y1="249.969" x2="407.377" y2="463.999" gradientUnits="userSpaceOnUse">
<stop stop-color="#7C84E0"/>
<stop offset="0.1875" stop-color="#94A5E9"/>
<stop offset="0.3947" stop-color="#A9C2F0"/>
<stop offset="0.601" stop-color="#B8D6F6"/>
<stop offset="0.804" stop-color="#C1E3F9"/>
<stop offset="1" stop-color="#C4E7FA"/>
</linearGradient>
<linearGradient id="paint4_linear" x1="149.227" y1="230.018" x2="149.227" y2="464.003" gradientUnits="userSpaceOnUse">
<stop stop-color="#7C84E0"/>
<stop offset="0.1875" stop-color="#94A5E9"/>
<stop offset="0.3947" stop-color="#A9C2F0"/>
<stop offset="0.601" stop-color="#B8D6F6"/>
<stop offset="0.804" stop-color="#C1E3F9"/>
<stop offset="1" stop-color="#C4E7FA"/>
</linearGradient>
<linearGradient id="paint5_linear" x1="178.118" y1="405.157" x2="204.536" y2="99.8298" gradientUnits="userSpaceOnUse">
<stop stop-color="#777FE0"/>
<stop offset="0.2034" stop-color="#91A4E9"/>
<stop offset="0.4068" stop-color="#A6C1F1"/>
<stop offset="0.609" stop-color="#B5D5F6"/>
<stop offset="0.808" stop-color="#BEE2F9"/>
<stop offset="1" stop-color="#C1E6FA"/>
</linearGradient>
<linearGradient id="paint6_linear" x1="193.001" y1="348.937" x2="214.466" y2="100.86" gradientUnits="userSpaceOnUse">
<stop stop-color="#777FE0"/>
<stop offset="0.2034" stop-color="#91A4E9"/>
<stop offset="0.4068" stop-color="#A6C1F1"/>
<stop offset="0.609" stop-color="#B5D5F6"/>
<stop offset="0.808" stop-color="#BEE2F9"/>
<stop offset="1" stop-color="#C1E6FA"/>
</linearGradient>
<linearGradient id="paint7_linear" x1="174.836" y1="342.95" x2="194.563" y2="114.958" gradientUnits="userSpaceOnUse">
<stop stop-color="#777FE0"/>
<stop offset="0.2034" stop-color="#91A4E9"/>
<stop offset="0.4068" stop-color="#A6C1F1"/>
<stop offset="0.609" stop-color="#B5D5F6"/>
<stop offset="0.808" stop-color="#BEE2F9"/>
<stop offset="1" stop-color="#C1E6FA"/>
</linearGradient>
<linearGradient id="paint8_linear" x1="195.332" y1="367.484" x2="217.778" y2="108.071" gradientUnits="userSpaceOnUse">
<stop stop-color="#777FE0"/>
<stop offset="0.2034" stop-color="#91A4E9"/>
<stop offset="0.4068" stop-color="#A6C1F1"/>
<stop offset="0.609" stop-color="#B5D5F6"/>
<stop offset="0.808" stop-color="#BEE2F9"/>
<stop offset="1" stop-color="#C1E6FA"/>
</linearGradient>
<linearGradient id="paint9_linear" x1="194.411" y1="377.31" x2="217.902" y2="105.817" gradientUnits="userSpaceOnUse">
<stop stop-color="#777FE0"/>
<stop offset="0.2034" stop-color="#91A4E9"/>
<stop offset="0.4068" stop-color="#A6C1F1"/>
<stop offset="0.609" stop-color="#B5D5F6"/>
<stop offset="0.808" stop-color="#BEE2F9"/>
<stop offset="1" stop-color="#C1E6FA"/>
</linearGradient>
<linearGradient id="paint10_linear" x1="911.45" y1="431.602" x2="-71.0095" y2="431.602" gradientUnits="userSpaceOnUse">
<stop stop-color="#5C67AB"/>
<stop offset="1" stop-color="#4878BF"/>
</linearGradient>
<linearGradient id="paint11_linear" x1="2018.52" y1="406.279" x2="-56.1934" y2="406.279" gradientUnits="userSpaceOnUse">
<stop stop-color="#C1DFFA"/>
<stop offset="1" stop-color="#4878BF"/>
</linearGradient>
<linearGradient id="paint12_linear" x1="1511" y1="437.672" x2="1103.82" y2="437.672" gradientUnits="userSpaceOnUse">
<stop stop-color="#738CBF"/>
<stop offset="0.4594" stop-color="#6B90CD"/>
<stop offset="1" stop-color="#6493D9"/>
</linearGradient>
<clipPath id="clip0">
<rect width="1582" height="464" fill="white" transform="matrix(-1 0 0 1 1511 0)"/>
</clipPath>
</defs>
</svg>
