<svg width="618" height="329" viewBox="0 0 618 329" fill="none" xmlns="http://www.w3.org/2000/svg">
<path fill-rule="evenodd" clip-rule="evenodd" d="M581.301 233.052C600.543 233.052 616.161 248.045 616.161 266.549C616.161 285.038 600.557 300.046 581.301 300.046C562.06 300.046 546.441 285.052 546.441 266.549C546.441 248.045 562.045 233.052 581.301 233.052Z" fill="#09C66B"/>
<path fill-rule="evenodd" clip-rule="evenodd" d="M577.575 236.561C592.316 236.561 604.268 248.045 604.268 262.21C604.268 276.376 592.316 287.86 577.575 287.86C562.833 287.86 550.882 276.376 550.882 262.21C550.882 248.045 562.833 236.561 577.575 236.561Z" fill="#34DC8B"/>
<path d="M581.304 231.465C591.385 231.465 600.516 235.396 607.12 241.742C613.724 248.088 617.815 256.862 617.815 266.549C617.815 276.236 613.724 285.01 607.12 291.356C600.882 297.35 592.378 301.197 582.955 301.59V327.043C582.955 327.927 582.21 328.629 581.304 328.629C580.383 328.629 579.653 327.913 579.653 327.043V301.59C570.229 301.183 561.741 297.35 555.488 291.356C548.884 285.01 544.793 276.236 544.793 266.549C544.793 256.862 548.884 248.088 555.488 241.742C562.091 235.396 571.223 231.465 581.304 231.465ZM587.528 270.971C588.171 270.353 589.223 270.353 589.865 270.971C590.508 271.589 590.508 272.6 589.865 273.217L582.955 279.858V298.403C591.458 297.996 599.128 294.529 604.768 289.095C610.773 283.325 614.484 275.351 614.484 266.535C614.484 257.732 610.773 249.744 604.768 243.974C598.763 238.204 590.465 234.624 581.289 234.624C572.129 234.624 563.815 238.19 557.811 243.974C551.806 249.744 548.08 257.718 548.08 266.535C548.08 275.337 551.791 283.311 557.811 289.095C563.45 294.514 571.121 297.996 579.624 298.403V290.401L567.015 278.285C566.372 277.668 566.372 276.657 567.015 276.039C567.658 275.421 568.71 275.421 569.353 276.039L579.624 285.909V266.549C579.624 265.664 580.369 264.962 581.275 264.962C582.195 264.962 582.926 265.678 582.926 266.549V275.365L587.528 270.971Z" fill="url(#paint0_linear)"/>
<path d="M566.471 327.042C566.471 327.927 565.726 328.629 564.82 328.629C563.9 328.629 563.17 327.913 563.17 327.042V318.38H531.787V327.042C531.787 327.927 531.042 328.629 530.136 328.629C529.215 328.629 528.485 327.913 528.485 327.042V318.38H523.956V315.194H528.485V312.596H523.956V309.41H528.485V306.812H523.956V303.625H530.151H564.835H571.03V306.812H566.501V309.41H571.03V312.596H566.501V315.194H571.03V318.38H566.501V327.042H566.471ZM531.772 306.812V309.41H563.155V306.812H531.772ZM531.772 312.596V315.194H563.155V312.596H531.772Z" fill="url(#paint1_linear)"/>
<path fill-rule="evenodd" clip-rule="evenodd" d="M531.265 69.5872V191.654H507.449V278.515H512.344V325.493H36.7564V278.515H41.6511V143.851L13.7999 164.012C12.6549 164.837 10.9948 164.617 10.1074 163.517L3.7815 155.458C2.92278 154.357 3.15179 152.762 4.29675 151.91L179.275 25.2493L240.531 69.6148H285.928V54.9546H290.079V26.3495H285.928V14.7149H290.079V3.08032H316.871V14.7149H321.021V26.3495H316.871V54.9271H321.021V69.5872H531.265Z" fill="white"/>
<path d="M354.63 151.823L244.63 72.5482V70.6264L284.63 69.1851L286.13 85.04H321.63V69.1851H530.13V176.326H317.63V144.616L345.63 164.315L354.63 151.823Z" fill="url(#paint2_linear)"/>
<path d="M289.503 102.731C289.503 104.464 288.044 105.839 286.269 105.839C284.466 105.839 283.034 104.436 283.034 102.731V87.0256C283.034 85.2927 284.494 83.9175 286.269 83.9175C288.072 83.9175 289.503 85.3202 289.503 87.0256V102.731Z" fill="#C5205C"/>
<path d="M258.875 80.5343C258.875 82.2671 257.415 83.6423 255.641 83.6423C253.837 83.6423 252.406 82.2396 252.406 80.5343V69.5873C252.406 67.8545 253.866 66.4792 255.641 66.4792C257.444 66.4792 258.875 67.882 258.875 69.5873V80.5343Z" fill="#C5205C"/>
<path d="M503.893 164.479C503.893 166.212 502.433 167.587 500.658 167.587C498.855 167.587 497.424 166.184 497.424 164.479V69.6147C497.424 67.8819 498.883 66.5066 500.658 66.5066C502.461 66.5066 503.893 67.9094 503.893 69.6147V164.479Z" fill="#C5205C"/>
<path d="M473.26 164.479C473.26 166.212 471.8 167.587 470.026 167.587C468.222 167.587 466.791 166.184 466.791 164.479V69.6147C466.791 67.8819 468.251 66.5066 470.026 66.5066C471.829 66.5066 473.26 67.9094 473.26 69.6147V164.479Z" fill="#C5205C"/>
<path d="M442.64 164.479C442.64 166.212 441.181 167.587 439.406 167.587C437.603 167.587 436.171 166.184 436.171 164.479V69.6147C436.171 67.8819 437.631 66.5066 439.406 66.5066C441.209 66.5066 442.64 67.9094 442.64 69.6147V164.479Z" fill="#C5205C"/>
<path d="M412.012 164.479C412.012 166.212 410.552 167.587 408.778 167.587C406.974 167.587 405.543 166.184 405.543 164.479V69.6147C405.543 67.8819 407.003 66.5066 408.778 66.5066C410.581 66.5066 412.012 67.9094 412.012 69.6147V164.479Z" fill="#C5205C"/>
<path d="M381.388 164.479C381.388 166.212 379.928 167.587 378.153 167.587C376.35 167.587 374.919 166.184 374.919 164.479V69.6147C374.919 67.8819 376.379 66.5066 378.153 66.5066C379.957 66.5066 381.388 67.9094 381.388 69.6147V164.479Z" fill="#C5205C"/>
<path d="M350.752 147.069C350.752 148.801 349.292 150.177 347.517 150.177C345.714 150.177 344.282 148.774 344.282 147.069V69.5873C344.282 67.8545 345.742 66.4792 347.517 66.4792C349.32 66.4792 350.752 67.882 350.752 69.5873V147.069Z" fill="#C5205C"/>
<path d="M320.123 124.9C320.123 126.633 318.664 128.008 316.889 128.008C315.086 128.008 313.654 126.605 313.654 124.9V87.0256C313.654 85.2927 315.114 83.9175 316.889 83.9175C318.692 83.9175 320.123 85.3202 320.123 87.0256V124.9Z" fill="#C5205C"/>
<path fill-rule="evenodd" clip-rule="evenodd" d="M183.909 86.0071C196.904 86.0071 207.466 96.1289 207.466 108.644C207.466 121.158 196.933 131.28 183.909 131.28C170.885 131.28 160.351 121.158 160.351 108.644C160.351 96.1564 170.914 86.0071 183.909 86.0071ZM243.189 325.52H222.122V278.542L243.189 325.52ZM226.988 278.542H244.563V217.536C250.374 213.52 256.414 210.549 262.654 208.679V261.186H272.557V206.644C281.002 205.681 289.846 206.644 299.12 209.669V165.579C271.727 149.984 247.998 151.111 227.017 165.579V278.542H226.988ZM41.619 143.877L179.243 44.2271L250.689 95.9639L241.844 102.372L187.487 63.0129L172.087 74.1799C165.904 75.8852 160.695 79.7359 157.346 84.8519L41.6476 168.632V143.877H41.619Z" fill="#DFE7EE"/>
<path d="M93.7685 258.536H164.298V176.874H93.7685V258.536Z" fill="#FFE0BC"/>
<path d="M112.694 314.051H145.24V302.168H112.694V314.051Z" fill="#FFE0BC"/>
<path d="M143.003 302.169V310.943H113.692V302.169H143.003ZM243.874 275.434V179.635H282.202V275.434H243.874ZM272.555 264.322C274.359 264.322 275.79 262.92 275.79 261.214V191.709C275.79 189.977 274.33 188.601 272.555 188.601H253.578C251.774 188.601 250.343 190.004 250.343 191.709V261.214C250.343 262.947 251.803 264.322 253.578 264.322H272.555ZM262.651 258.079H256.812V210.798C258.73 210 260.676 209.285 262.651 208.68V258.079ZM288.699 275.434V176.527C288.699 174.794 287.239 173.419 285.465 173.419H240.64C238.836 173.419 237.405 174.821 237.405 176.527V275.434H230.249V169.045C234.657 165.442 239.609 162.609 244.905 160.656C250.629 158.538 256.783 157.438 263.052 157.438C269.349 157.438 275.504 158.538 281.2 160.656C286.495 162.609 291.447 165.442 295.855 169.045V275.434H288.699ZM104.59 287.179C102.786 287.179 101.355 288.582 101.355 290.287V314.051C101.355 315.784 102.815 317.159 104.59 317.159H146.238C148.041 317.159 149.472 315.757 149.472 314.051V290.287C149.472 288.554 148.012 287.179 146.238 287.179H104.59ZM300.75 287.179H225.354V281.678H226.986H240.64H285.465H299.118H300.75V287.179ZM300.75 298.924H225.354V293.423H300.75V298.924ZM300.75 310.943H225.354V305.167H300.75V310.943ZM101.355 258.079H94.7144V179.525H101.355V258.079ZM149.472 179.525H161.981V258.079H149.472V179.525ZM143.003 258.079H107.853V179.525H143.003V258.079ZM85.612 164.534C83.8087 164.534 82.3774 165.937 82.3774 167.643V261.187C82.3774 262.92 83.8373 264.295 85.612 264.295H104.59H146.238H165.215C167.019 264.295 168.45 262.892 168.45 261.187V167.643C168.45 165.91 166.99 164.534 165.215 164.534H146.238H104.59H85.612ZM179.127 72.2279C171.713 72.2279 165.015 75.116 160.177 79.7643C155.34 84.4126 152.335 90.8763 152.335 97.9726C152.335 105.096 155.34 111.532 160.177 116.181C165.015 120.829 171.742 123.717 179.127 123.717C186.54 123.717 193.238 120.829 198.076 116.181C202.913 111.532 205.919 105.069 205.919 97.9726C205.919 90.8488 202.913 84.4126 198.076 79.7643C193.238 75.116 186.512 72.2279 179.127 72.2279ZM205.976 150.122V275.434H204.344H44.9086V145.419L179.298 48.1061L244.59 95.3871L169.938 149.434C168.65 150.369 167.877 151.717 167.677 153.147C167.477 154.578 167.82 156.09 168.793 157.328L175.119 165.387C176.092 166.625 177.495 167.368 178.983 167.56C180.472 167.753 182.046 167.423 183.334 166.487L205.976 150.122ZM317.982 140.77L264.999 102.401C263.796 101.521 262.165 101.576 261.048 102.428L207.407 141.265C207.293 141.32 207.207 141.403 207.121 141.485L179.899 161.206L174.318 154.083L251.889 97.9175L251.946 97.8625L263.052 89.8036L351.787 154.055L346.205 161.179L319.527 141.843C319.127 141.375 318.611 140.99 317.982 140.77ZM301.151 165.222C295.941 160.739 289.959 157.246 283.518 154.88C277.021 152.487 270.094 151.222 263.052 151.222C256.011 151.222 249.084 152.487 242.586 154.88C236.146 157.273 230.163 160.739 224.954 165.222C224.209 165.8 223.751 166.68 223.751 167.643V275.434H222.12H212.474V145.419L263.052 108.782L313.631 145.419V176.527V191.682V275.434H303.984H302.353V167.643C302.353 166.652 301.866 165.8 301.151 165.222ZM474.24 249.332H350.098V219.049H474.24V249.332ZM474.24 285.886H350.098V278.57V255.603H474.24V278.57V285.886ZM528.025 179.635V188.546H507.444H320.128V179.635H528.025ZM504.181 194.79V275.434H480.709V252.468V215.941C480.709 214.208 479.249 212.833 477.475 212.833H346.835C345.031 212.833 343.6 214.236 343.6 215.941V252.468V275.434H321.789H320.157V194.79H504.181ZM289.157 23.2417V17.8507H290.073H316.865H317.781V23.2417H316.865H290.073H289.157ZM313.631 11.607H293.308V6.2161H313.631V11.607ZM317.81 58.0629V69.615V83.9175H289.186V69.615V58.0629H290.102H316.894H317.81ZM313.631 51.8193H293.308V29.4578H313.631V51.8193ZM238.722 72.2004L257.671 85.9254L249.942 91.5089L181.216 41.7525C180.014 40.8723 178.382 40.9273 177.266 41.78L39.8422 141.293C39.7563 141.348 39.6704 141.43 39.5846 141.485L12.3631 161.206L6.78145 154.083L179.327 29.1552L238.493 72.0079C238.521 72.0629 238.607 72.1179 238.722 72.2004ZM250.2 72.723H282.66V87.0256C282.66 88.7584 284.119 90.1336 285.894 90.1336H321.016C322.819 90.1336 324.25 88.7309 324.25 87.0256V72.723H527.967V173.419H320.071V150.149L342.741 166.542C344.029 167.478 345.604 167.808 347.092 167.615C348.581 167.422 350.012 166.68 350.956 165.442L357.282 157.383C358.256 156.145 358.599 154.633 358.399 153.23C358.198 151.8 357.425 150.424 356.137 149.517L264.999 83.5325L264.941 83.5049L264.913 83.4774L250.2 72.723ZM160.521 105.866C161.952 94.672 171.885 86.0354 183.907 86.0354C189.116 86.0354 193.925 87.6582 197.847 90.4087C198.877 92.7466 199.45 95.3046 199.45 98C199.45 103.391 197.188 108.259 193.496 111.808C189.832 115.328 184.737 117.529 179.127 117.529C173.516 117.529 168.45 115.356 164.757 111.808C162.983 110.102 161.551 108.094 160.521 105.866ZM39.9853 325.521V281.678H41.6169H201.081V325.521C201.081 327.254 202.541 328.629 204.316 328.629C206.119 328.629 207.55 327.226 207.55 325.521V281.678H209.182H218.828V290.315V302.059V314.051V325.521C218.828 327.254 220.288 328.629 222.063 328.629C223.866 328.629 225.297 327.226 225.297 325.521V317.187H300.693V325.521C300.693 327.254 302.152 328.629 303.927 328.629C305.73 328.629 307.162 327.226 307.162 325.521V314.051V302.032V290.287V281.65H316.808H318.44V325.493C318.44 327.226 319.899 328.601 321.674 328.601C323.477 328.601 324.909 327.199 324.909 325.493V281.65H343.486V288.967V325.493C343.486 327.226 344.945 328.601 346.72 328.601C348.523 328.601 349.955 327.199 349.955 325.493V292.075H474.097V325.493C474.097 327.226 475.557 328.601 477.331 328.601C479.135 328.601 480.566 327.199 480.566 325.493V288.967V281.65H507.272H508.904V325.493C508.904 327.226 510.363 328.601 512.138 328.601C513.941 328.601 515.373 327.199 515.373 325.493V278.515C515.373 276.782 513.913 275.407 512.138 275.407H510.507V194.762H531.087C532.891 194.762 534.322 193.36 534.322 191.654V176.527V69.615C534.322 67.8822 532.862 66.5069 531.087 66.5069H324.107V54.9548C324.107 53.222 322.647 51.8468 320.873 51.8468H319.957V29.4852H320.873C322.676 29.4852 324.107 28.0825 324.107 26.3772V14.7426C324.107 13.0098 322.647 11.6346 320.873 11.6346H319.957V3.10803C319.957 1.37522 318.497 0 316.722 0H289.93C288.127 0 286.696 1.40272 286.696 3.10803V11.6346H285.78C283.976 11.6346 282.545 13.0373 282.545 14.7426V26.3772C282.545 28.11 284.005 29.4852 285.78 29.4852H286.696V51.8468H285.78C283.976 51.8468 282.545 53.2495 282.545 54.9548V66.5069H241.47L181.13 22.8291C180.014 21.9764 178.382 21.9214 177.18 22.8016L2.31612 149.462C1.02804 150.397 0.255208 151.745 0.0548396 153.175C-0.145528 154.605 0.197958 156.118 1.17117 157.356L7.49705 165.415C8.47027 166.652 9.87286 167.395 11.3613 167.588C12.8498 167.78 14.424 167.45 15.7121 166.515L38.3824 150.122V275.434H36.7508C34.9475 275.434 33.5163 276.837 33.5163 278.542V325.521C33.5163 327.254 34.9761 328.629 36.7508 328.629C38.5255 328.656 39.9853 327.254 39.9853 325.521ZM265.628 84.0275C265.457 83.8075 265.256 83.615 265.056 83.45L265.628 84.0275ZM181.846 23.3517C181.674 23.1316 181.474 22.9391 181.273 22.7741L181.846 23.3517Z" fill="url(#paint3_linear)"/>
<path d="M256.812 210.797C258.729 210 260.676 209.285 262.651 208.679V258.078H256.812V210.797Z" fill="#FFE0BC"/>
<defs>
<linearGradient id="paint0_linear" x1="558.692" y1="236.382" x2="571.31" y2="331.4" gradientUnits="userSpaceOnUse">
<stop stop-color="#371A4F"/>
<stop offset="0.151" stop-color="#3D1D57"/>
<stop offset="0.4544" stop-color="#44215F"/>
<stop offset="1" stop-color="#462261"/>
</linearGradient>
<linearGradient id="paint1_linear" x1="532.916" y1="304.891" x2="534.231" y2="329.703" gradientUnits="userSpaceOnUse">
<stop stop-color="#371A4F"/>
<stop offset="0.151" stop-color="#3D1D57"/>
<stop offset="0.4544" stop-color="#44215F"/>
<stop offset="1" stop-color="#462261"/>
</linearGradient>
<linearGradient id="paint2_linear" x1="551.393" y1="181.34" x2="268.072" y2="53.4146" gradientUnits="userSpaceOnUse">
<stop stop-color="#C5205C"/>
<stop offset="0.0721" stop-color="#D62B61"/>
<stop offset="0.177" stop-color="#E73666"/>
<stop offset="0.3076" stop-color="#F23E69"/>
<stop offset="0.491" stop-color="#F9436B"/>
<stop offset="1" stop-color="#FB446C"/>
</linearGradient>
<linearGradient id="paint3_linear" x1="101.707" y1="16.6278" x2="121.704" y2="342.438" gradientUnits="userSpaceOnUse">
<stop stop-color="#371A4F"/>
<stop offset="0.151" stop-color="#3D1D57"/>
<stop offset="0.4544" stop-color="#44215F"/>
<stop offset="1" stop-color="#462261"/>
</linearGradient>
</defs>
</svg>
