<svg width="298" height="142" viewBox="0 0 298 142" fill="none" xmlns="http://www.w3.org/2000/svg">
<path d="M228.117 90.8652H282.712V141.452H228.117V90.8652Z" fill="#BFB09F"/>
<path d="M243.167 90.8655H297.763V141.452H243.167V90.8655Z" fill="#D1C2B1"/>
<path d="M278.368 96.0288H292.858V104.38H278.368V96.0288Z" fill="#F2DCC3"/>
<path opacity="0.5" d="M94.6332 90.8652H149.229V141.452H94.6332V90.8652Z" fill="#BFB09F"/>
<path opacity="0.5" d="M109.684 90.8655H164.279V141.452H109.684V90.8655Z" fill="#D1C2B1"/>
<path opacity="0.5" d="M144.884 96.0288H159.375V104.38H144.884V96.0288Z" fill="#F2DCC3"/>
<path d="M238.067 54.428H277.457V90.9234H238.067V54.428Z" fill="#BFB09F"/>
<path d="M248.922 54.428H288.312V90.9234H248.922V54.428Z" fill="#D1C2B1"/>
<path d="M274.32 58.1533H284.777V64.1786H274.32V58.1533Z" fill="#F2DCC3"/>
<path d="M216.089 17.2909C216.433 16.1765 217.384 15.2825 218.504 14.8549C219.623 14.4208 220.898 14.4273 222.059 14.7382C223.253 15.0622 224.359 15.7165 225.155 16.6301C225.951 17.5436 226.423 18.7292 226.41 19.9213C226.39 21.8131 225.229 23.4911 224.11 25.0396C222.207 21.9945 219.246 19.1374 216.089 17.2909Z" fill="#2795F8"/>
<path d="M214.888 15.1592C214.328 14.8482 213.707 14.5307 213.066 14.6215C212.176 14.7446 211.575 15.6775 211.616 16.5392C211.656 17.4074 212.196 18.1848 212.83 18.7938C214.098 20.0183 215.852 20.7763 217.654 20.8735C218.713 20.9318 219.785 20.7569 220.777 20.3811C221.121 20.2516 222.025 19.9794 222.2 19.6555C222.491 19.1242 221.904 19.0141 221.425 18.7485C219.246 17.5564 217.067 16.3578 214.888 15.1592Z" fill="#0580CC"/>
<path d="M221.357 30.4169C223.017 29.0888 224.11 27.1322 224.366 25.0719C224.514 23.828 224.359 22.5516 223.927 21.3725C223.806 21.1457 223.671 20.9255 223.529 20.7117C223.233 20.2711 222.889 19.8694 222.497 19.5066C221.661 20.595 221.074 21.8519 220.737 23.1736C220.109 25.5708 220.312 28.1817 221.357 30.4169Z" fill="url(#paint0_linear)"/>
<path d="M47.5122 46.3746C47.5932 48.4349 47.519 50.4822 47.1817 52.5101C47.094 53.0349 46.9928 53.5597 46.8646 54.0845C56.363 61.2242 69.3289 62.0988 81.3773 62.5653C85.6407 62.7273 90.7475 62.818 96.4141 62.831C97.453 62.8374 98.5054 62.8374 99.578 62.831C128.849 62.7726 170.964 60.9845 192.1 58.4577C192.896 54.389 193.685 50.2879 194.218 46.1738C194.839 41.373 195.095 36.5527 194.569 31.7454C193.591 22.824 189.509 13.7924 181.778 8.75188C176.928 5.59019 171.059 4.22963 165.298 3.18654C147.084 -0.111204 96.0566 -0.85628 77.6197 0.983718C75.4475 1.19752 73.2618 1.45668 71.1031 1.80654C68.5598 2.22118 66.0435 2.75894 63.6082 3.52344C62.5356 3.86034 61.4832 4.23611 60.4444 4.66372C55.0273 6.89245 50.0959 10.6308 47.5527 15.7296C46.4059 18.0361 45.792 20.4916 45.5221 23.0183C45.1106 26.8927 45.5289 30.9226 46.0956 34.8034C46.6622 38.6324 47.3638 42.5197 47.5122 46.3746Z" fill="url(#paint1_linear)"/>
<path d="M46.0954 28.8492C46.8038 34.6542 47.7145 40.563 47.5121 46.3745C47.4446 48.3376 47.249 50.2942 46.8712 52.2249C46.9724 52.3221 47.0803 52.4128 47.1883 52.51C56.653 60.9066 69.4704 61.9496 81.3839 62.5068C85.6474 62.7077 90.7541 62.8113 96.4207 62.8308C97.4596 62.8373 98.512 62.8373 99.5846 62.8308C128.856 62.766 170.971 60.5956 192.106 57.5246C192.902 52.5942 193.692 47.6184 194.225 42.6297C193.651 40.2455 192.747 37.9908 191.472 35.95C167.746 39.0728 143.886 40.7573 120.012 40.9841C107.923 41.1007 95.6247 40.8091 84.0958 36.5461C79.3466 34.7903 74.7255 32.3283 70.9006 28.6095C67.0756 24.8971 64.0871 19.8306 63.1426 14.1357C62.5557 10.5918 62.7851 6.97657 63.6149 3.50391C62.5422 3.84081 61.4899 4.21659 60.451 4.64419C55.0339 6.87292 50.1026 10.6112 47.5593 15.7101C46.4125 18.0165 45.7986 20.472 45.5287 22.9988C45.6569 24.9748 45.8661 26.925 46.0954 28.8492Z" fill="#C5205C"/>
<path d="M195.891 47.8776C145.303 40.1678 94.1138 40.1678 43.5253 47.8776V72.1927H195.891V47.8776Z" fill="url(#paint2_linear)"/>
<path d="M194.225 72.1928C194.225 71.4996 160.016 70.9424 117.819 70.9424C75.6228 70.9424 41.4137 71.5061 41.4137 72.1928C41.4137 72.8861 75.6228 73.4432 117.819 73.4432C160.016 73.4432 194.225 72.8861 194.225 72.1928Z" fill="#C5205C"/>
<path d="M46.1022 81.1528C47.5256 64.6771 48.949 52.7042 50.3724 36.2285C50.7367 32.0237 51.074 27.6569 49.5157 23.7178C48.0788 20.0767 44.9419 17.0316 41.0697 15.8848C37.1974 14.7381 32.6709 15.6386 29.7903 18.3792C25.709 22.2665 25.655 28.4797 25.8709 33.9933C26.5455 51.2335 27.2133 63.9709 27.8879 81.2112C34.2427 81.3343 39.7474 81.0362 46.1022 81.1528Z" fill="url(#paint3_linear)"/>
<path d="M185.934 33.2485C185.941 33.5012 185.954 33.7474 185.961 34.0001C186.635 51.2403 187.303 63.9778 187.978 81.218C194.333 81.3411 199.837 81.0366 206.192 81.1597C207.616 64.684 209.039 52.711 210.462 36.2353C210.827 32.0305 211.164 27.6638 209.606 23.7246C209.16 22.5973 208.547 21.5218 207.804 20.55C206.152 18.3796 203.831 16.6821 201.16 15.8917C197.287 14.7449 192.761 15.6455 189.88 18.386C185.981 22.0919 185.758 27.9229 185.934 33.2485Z" fill="url(#paint4_linear)"/>
<path d="M37.056 15.8393C37.0627 15.93 37.3326 15.9948 37.8183 16.0661C38.304 16.1568 39.0123 16.2605 39.8826 16.5196C40.7528 16.7788 41.7714 17.1934 42.8575 17.8413C43.3905 18.1782 43.9436 18.554 44.4833 19.014C45.023 19.474 45.5492 19.9923 46.0484 20.5883C47.0401 21.774 47.9035 23.2576 48.5377 24.9616C49.1718 26.6655 49.5765 28.5962 49.7317 30.65C49.8936 32.7103 49.8127 34.9131 49.6035 37.2066C49.5023 38.3534 49.3607 39.5325 49.219 40.7311C49.0773 41.9362 48.9289 43.1542 48.7805 44.3917C47.6135 54.2849 46.7028 63.2581 46.1766 69.7694C45.6504 76.2806 45.502 80.3235 45.8595 80.3623C46.217 80.4012 47.0131 76.4232 48.0115 69.9638C49.0099 63.5043 50.2107 54.5635 51.3777 44.6703C51.5194 43.4328 51.6611 42.2083 51.8027 41.0032C51.9376 39.7917 52.0658 38.5931 52.1535 37.401C52.3357 35.0232 52.3761 32.6779 52.1333 30.4362C51.8904 28.1945 51.3642 26.0824 50.5615 24.21C49.7587 22.3311 48.6861 20.705 47.4516 19.4221C46.8309 18.7807 46.1833 18.2365 45.5357 17.7635C44.8813 17.2971 44.2202 16.9278 43.5861 16.6103C42.3044 16.0078 41.1036 15.6838 40.1187 15.5607C39.127 15.4312 38.3512 15.4895 37.8385 15.5607C37.2988 15.6579 37.0492 15.7551 37.056 15.8393Z" fill="#C5205C"/>
<path d="M200.047 16.0406C200.074 15.9563 199.831 15.8138 199.331 15.613C199.203 15.5676 199.062 15.5287 198.9 15.4834C198.738 15.438 198.562 15.3862 198.374 15.3473C198.178 15.3149 197.969 15.2761 197.746 15.2437C197.692 15.2372 197.631 15.2242 197.571 15.2177C197.51 15.2113 197.449 15.2113 197.389 15.2048C197.267 15.1983 197.146 15.1854 197.011 15.1789C195.985 15.1206 194.697 15.1983 193.267 15.5935C192.558 15.8073 191.803 16.0665 191.054 16.4682C190.96 16.5135 190.865 16.5654 190.771 16.6107C190.676 16.6561 190.589 16.7208 190.494 16.7727C190.305 16.8828 190.116 16.9994 189.928 17.1161C189.745 17.2456 189.563 17.3752 189.374 17.5113L189.233 17.6149C189.185 17.6473 189.145 17.6862 189.098 17.7251C189.01 17.8028 188.922 17.8741 188.828 17.9518C188.74 18.0296 188.646 18.1073 188.558 18.1851C188.47 18.2628 188.389 18.3535 188.302 18.4377C188.214 18.522 188.133 18.6062 188.045 18.6969L187.917 18.8265C187.877 18.8718 187.836 18.9172 187.796 18.969C187.634 19.1569 187.479 19.3513 187.317 19.5456C187.175 19.7465 187.027 19.9538 186.878 20.1611C186.318 21.0098 185.846 21.9558 185.489 22.9665C185.131 23.9772 184.875 25.0526 184.713 26.154C184.551 27.2554 184.47 28.3892 184.443 29.536C184.416 30.6828 184.443 31.8489 184.477 33.0281C184.517 34.1943 184.558 35.3929 184.605 36.6044C184.693 39.034 184.801 41.5478 184.915 44.1264C185.374 54.4277 185.934 63.7508 186.467 70.4952C187 77.2397 187.512 81.3992 187.877 81.3862C188.234 81.3732 188.376 77.1814 188.315 70.4175C188.255 63.6536 187.985 54.3241 187.526 44.0162C187.411 41.4376 187.29 38.9238 187.168 36.5008C187.101 35.2892 187.04 34.0971 186.98 32.9244C186.919 31.7647 186.865 30.6374 186.858 29.5554C186.851 28.4735 186.892 27.4239 187 26.4262C187.108 25.4284 187.29 24.476 187.56 23.5949C187.83 22.7138 188.18 21.8974 188.605 21.1653C188.72 20.9839 188.828 20.8025 188.936 20.6276C189.057 20.4591 189.179 20.2972 189.3 20.1352C189.334 20.0963 189.361 20.051 189.395 20.0121L189.496 19.902C189.563 19.8242 189.631 19.7529 189.691 19.6752C189.759 19.6039 189.82 19.5262 189.887 19.4549C189.961 19.3837 190.029 19.3189 190.103 19.2476C190.17 19.1763 190.245 19.1115 190.312 19.0403C190.346 19.0079 190.38 18.969 190.42 18.9366L190.535 18.8459C190.683 18.7228 190.832 18.5997 190.973 18.4766C191.128 18.3665 191.283 18.2563 191.432 18.1462C191.506 18.0944 191.58 18.036 191.661 17.9907C191.742 17.9453 191.816 17.8935 191.897 17.8482C192.511 17.453 193.145 17.1744 193.746 16.9217C194.967 16.4552 196.093 16.2414 197.031 16.1572C197.146 16.1442 197.26 16.1378 197.375 16.1248C197.429 16.1183 197.483 16.1118 197.537 16.1118C197.591 16.1118 197.645 16.1118 197.699 16.1118C197.908 16.1054 198.104 16.0989 198.293 16.0989C198.664 16.1054 198.974 16.1118 199.23 16.1183C199.729 16.1442 200.02 16.1248 200.047 16.0406Z" fill="#C5205C"/>
<path d="M11.1579 18.8845C10.6924 17.5045 11.3535 15.9366 12.4464 15.198C13.5392 14.453 14.9491 14.4076 16.2511 14.6862C17.6745 14.9907 19.1114 15.7099 19.9952 17.0057C21.2364 18.8132 21.0408 21.5667 19.5702 22.9727C17.1281 20.8994 14.1464 19.3834 11.1579 18.8845Z" fill="#2795F8"/>
<path d="M11.0702 15.6646C10.5035 15.3601 9.88288 15.0491 9.24201 15.1463C8.35154 15.2759 7.76462 16.2153 7.81859 17.0835C7.87256 17.9516 8.41898 18.7226 9.05985 19.3252C10.3483 20.5367 12.1091 21.2753 13.9035 21.3466C14.9626 21.3919 16.0352 21.204 17.0202 20.8218C17.3575 20.6857 18.2614 20.4071 18.4368 20.0832C18.7202 19.5454 18.1265 19.4418 17.6475 19.1891C15.4551 18.01 13.2626 16.8373 11.0702 15.6646Z" fill="#0580CC"/>
<path d="M9.74117 53.4169C9.7614 59.1766 10.409 64.8845 11.1646 70.5924C16.9797 71.9918 23.1051 71.8946 28.9539 70.5924C28.8527 64.7484 28.7515 58.9045 28.2793 53.08C28.0297 50.0155 27.6654 46.9121 26.5185 44.0549C25.4931 41.4958 23.7527 39.1245 21.3713 37.7445C21.0947 37.5825 20.8047 37.4335 20.5146 37.304C19.2666 38.4702 16.4805 39.0792 14.8749 38.4896C14.0924 39.0792 13.411 39.7724 12.8241 40.5499C11.765 41.9493 11.0162 43.6014 10.5507 45.2989C9.82887 47.9358 9.73442 50.6893 9.74117 53.4169Z" fill="url(#paint5_linear)"/>
<path d="M12.8173 40.5501C14.3419 40.8092 15.934 40.6991 17.4046 40.2261C18.1939 39.9735 18.9427 39.6171 19.6376 39.1766C20.184 38.8267 20.69 38.425 21.1487 37.9715C21.1554 37.8549 21.1622 37.7447 21.1622 37.6281C21.1622 37.5828 21.1622 37.5374 21.1622 37.4856C21.1217 37.3301 21.0745 37.1681 21.034 37.0126C20.609 35.4123 20.2177 33.7991 19.84 32.1794C19.4892 30.6893 19.1519 29.1926 18.8146 27.709C17.1078 28.6614 15.563 29.7822 14.0181 31.0715C14.0788 32.0952 14.1126 33.1188 14.0991 34.1425C14.0923 35.0042 14.0586 35.8659 14.0046 36.7211C13.9709 37.2005 13.9372 37.68 13.8899 38.1594C13.8427 38.6064 13.7955 39.0535 13.7348 39.494C13.4042 39.8245 13.1007 40.1743 12.8173 40.5501Z" fill="#FAA78C"/>
<path d="M14.0047 36.7145C15.7182 34.9523 17.688 33.4168 19.84 32.1728C19.4892 30.6827 19.1519 29.1861 18.8146 27.7024C17.1079 28.6548 15.563 29.7756 14.0182 31.0649C14.0789 32.0886 14.1059 33.1123 14.0991 34.1359C14.0924 34.9976 14.0587 35.8593 14.0047 36.7145Z" fill="#F17785"/>
<path d="M10.9825 23.7052C10.5642 25.0333 10.9555 26.5624 11.9539 27.5666C12.5341 26.5948 12.8781 25.4545 12.9523 24.3401C12.9726 24.0421 12.9591 23.7052 12.7297 23.5043C12.5071 23.31 12.1631 23.3164 11.873 23.3748C11.5761 23.4331 11.2793 23.7505 10.9825 23.7052Z" fill="#311649"/>
<path d="M11.8932 23.0959C12.3114 24.5601 11.738 26.0956 11.2388 27.5339C10.7396 28.9722 10.3281 30.5984 11.0297 31.9589C11.7582 33.3713 13.6067 34.071 15.2122 33.7277C16.8178 33.3908 18.1198 32.1598 18.7674 30.7085C19.415 29.2573 19.4622 27.6117 19.1924 26.0567C18.9225 24.5018 18.3491 23.0117 17.7757 21.5345C15.7249 20.7182 13.465 21.5734 11.8932 23.0959Z" fill="#FAA78C"/>
<path d="M18.8146 26.5557C18.9967 26.3354 19.1923 26.1281 19.4419 25.9791C19.6848 25.8301 19.9884 25.7459 20.2717 25.8107C20.6427 25.8884 20.9193 26.1994 21.061 26.5363C21.3308 27.1777 21.1554 27.9746 20.636 28.454C20.1165 28.9334 19.2868 29.0759 18.6257 28.7974C18.8011 28.0393 18.8213 27.3267 18.8146 26.5557Z" fill="#FAA78C"/>
<path d="M19.3341 26.439C18.5718 26.0503 17.9646 25.4024 17.6341 24.6379C17.3103 23.8734 17.2698 22.9987 17.5329 22.2083C16.521 23.3745 15.0773 24.1066 13.519 24.3204C12.4126 24.4694 11.2388 24.3334 10.2606 23.8086C9.28247 23.2838 8.52018 22.3573 8.33804 21.3013C8.1559 20.2387 8.61462 19.0725 9.55232 18.483C10.6114 17.8156 12.0146 17.9711 13.2222 18.3404C14.4297 18.7097 15.59 19.2799 16.8515 19.377C17.769 19.4483 18.8079 19.3058 19.5095 19.8824C20.0289 20.31 20.1773 21.0227 20.211 21.6835C20.2785 23.2968 19.813 24.8841 19.3341 26.439Z" fill="url(#paint6_linear)"/>
<path d="M14.6792 30.4431C14.7197 30.482 14.6522 30.631 14.4296 30.8059C14.3217 30.8902 14.1733 30.9744 13.9979 31.0262C13.8157 31.0845 13.6066 31.1104 13.384 31.0781C13.1614 31.0521 12.9657 30.9744 12.8106 30.8772C12.6487 30.78 12.534 30.6699 12.4463 30.5662C12.2776 30.3589 12.2371 30.1969 12.2844 30.1645C12.3316 30.1321 12.453 30.2293 12.6487 30.3589C12.8375 30.4884 13.1141 30.6375 13.438 30.6763C13.7618 30.7217 14.0653 30.6375 14.2745 30.5532C14.4971 30.4755 14.632 30.4042 14.6792 30.4431Z" fill="#D65165"/>
<path d="M14.2408 133.522C15.1516 135.925 15.2257 138.62 14.4365 141.063C9.64678 141.27 4.58727 140.739 -3.14713e-05 139.404C1.63251 136.761 4.16226 134.604 7.16425 133.541C9.16107 132.841 12.1833 134.033 14.2408 133.522Z" fill="#311649"/>
<path d="M55.8435 126.142C58.3665 127.043 60.5859 128.798 62.0701 131.066C59.2232 134.979 55.6006 138.607 51.6272 141.316C50.5208 138.251 50.3657 134.811 51.4046 131.727C52.0927 129.686 54.9597 128.105 55.8435 126.142Z" fill="#311649"/>
<path d="M29.9454 79.1641C29.9454 79.1641 27.4764 108.98 57.4557 125.903L50.4938 134.481C50.4938 134.481 16.9796 113.45 17.951 86.2714L29.9454 79.1641Z" fill="url(#paint7_linear)"/>
<path d="M9.22839 48.5902C8.76291 56.9284 9.5522 69.0504 11.2117 77.2396C11.2117 77.2396 -2.27358 105.695 3.62919 134.901L15.7518 136.826C15.7518 136.826 15.5427 100.019 30.0466 79.1574L29.1224 59.7014L16.1363 58.6777L14.1462 48.3699L9.22839 48.5902Z" fill="url(#paint8_linear)"/>
<path d="M28.4884 61.911C28.5829 61.9175 28.6908 61.7814 28.8055 61.5093C28.8662 61.3732 28.9202 61.2048 28.9809 61.0039C29.0416 60.8031 29.0955 60.5634 29.1495 60.2978C29.1765 60.1617 29.2035 60.0256 29.2372 59.8766C29.2575 59.7276 29.2844 59.5721 29.3114 59.4102C29.3317 59.2482 29.3587 59.0732 29.3789 58.8983C29.3991 58.7234 29.4126 58.5355 29.4329 58.3411C29.4463 58.1468 29.4666 57.9524 29.4801 57.7451C29.4868 57.5378 29.5003 57.3305 29.5071 57.1102C29.534 56.6761 29.5206 56.2096 29.5206 55.7237C29.5003 54.7519 29.4329 53.6893 29.2912 52.5555C29.1428 51.4217 28.9202 50.2102 28.6098 48.9598C28.2995 47.7029 27.888 46.4071 27.3821 45.0919C26.8694 43.7767 26.2217 42.3708 25.1896 41.0945C24.6702 40.4531 24.063 39.8765 23.3817 39.4035C22.7003 38.9241 21.9313 38.5548 21.1083 38.341C20.6967 38.2373 20.2785 38.1596 19.8535 38.1531C19.7455 38.1466 19.6444 38.1401 19.5364 38.1401C19.4352 38.1466 19.3273 38.1531 19.2261 38.1531C19.1249 38.1596 19.017 38.1596 18.9158 38.1725C18.8146 38.1855 18.7134 38.2049 18.6122 38.2179C17.8027 38.3475 17.0674 38.6325 16.4265 38.9953C15.7789 39.3582 15.2257 39.7987 14.7468 40.2717C14.6321 40.3948 14.5106 40.5114 14.4027 40.6345C14.2948 40.7576 14.1936 40.8807 14.0856 41.0103C13.9912 41.1398 13.8967 41.2694 13.8023 41.3925C13.7078 41.5221 13.6269 41.6517 13.546 41.7812C13.2221 42.306 12.959 42.8503 12.7701 43.3686C12.5813 43.8933 12.4396 44.3987 12.3384 44.8911C12.1428 45.8694 12.0821 46.757 12.0686 47.528C12.0618 48.299 12.1023 48.9598 12.1563 49.4911C12.2642 50.5601 12.4126 51.1367 12.5205 51.1367C12.642 51.1367 12.7162 50.5406 12.8241 49.4911C12.8781 48.9663 12.9388 48.3249 13.0535 47.5992C13.1682 46.8736 13.3233 46.0508 13.5932 45.1891C13.8698 44.3339 14.261 43.4204 14.8682 42.6105C14.9491 42.5133 15.0166 42.4032 15.1043 42.306C15.192 42.2088 15.2729 42.1117 15.3606 42.008C15.4551 41.9173 15.5495 41.8201 15.6372 41.7229C15.7317 41.6257 15.8328 41.5415 15.934 41.4508C16.3455 41.101 16.8043 40.79 17.2968 40.5503C17.796 40.3105 18.3289 40.1421 18.8753 40.0903L19.0777 40.0708C19.1452 40.0643 19.2126 40.0708 19.2801 40.0708H19.4825L19.6848 40.0903C19.9547 40.1032 20.2313 40.168 20.5011 40.2522C21.5872 40.5827 22.6126 41.3731 23.3884 42.3903C24.1777 43.4204 24.7309 44.6319 25.2031 45.8629C25.6753 47.1004 26.0733 48.3184 26.3904 49.4911C26.7142 50.6637 26.9706 51.7975 27.1729 52.8601C27.3753 53.9291 27.517 54.9268 27.6384 55.8468C27.6856 56.3068 27.7463 56.7474 27.7801 57.162C27.8003 57.3693 27.8206 57.5702 27.8408 57.771C27.8543 57.9654 27.8745 58.1597 27.888 58.3411C27.9015 58.5226 27.9217 58.704 27.9352 58.8789C27.9487 59.0538 27.9622 59.2158 27.9757 59.3778C27.9892 59.5397 28.0027 59.6887 28.0162 59.8313C28.0297 59.9738 28.0364 60.1164 28.0499 60.2459C28.0702 60.5116 28.1039 60.7448 28.1241 60.9456C28.1511 61.1465 28.1781 61.3214 28.2051 61.464C28.313 61.7425 28.394 61.898 28.4884 61.911Z" fill="url(#paint9_linear)"/>
<path d="M17.9714 52.4066C17.9782 52.7435 17.9782 53.0869 17.9984 53.4367C18.0186 53.7866 18.0456 54.1365 18.0794 54.4993C18.0929 54.6807 18.1063 54.8621 18.1266 55.0435C18.1468 55.2249 18.1738 55.4063 18.194 55.5942C18.248 55.9635 18.2952 56.3393 18.3559 56.715C18.4234 57.0908 18.4976 57.4731 18.5718 57.8553C18.6393 58.2441 18.7405 58.6263 18.8349 59.015C18.9294 59.4038 19.0238 59.8054 19.1452 60.1942C19.2599 60.5894 19.3813 60.9846 19.5028 61.3863C19.6377 61.7815 19.7794 62.1832 19.9143 62.5849C20.5012 64.1916 21.2163 65.8114 22.0595 67.4116C22.9163 69.0054 23.8607 70.5085 24.8456 71.895C25.0952 72.2384 25.3448 72.5818 25.5944 72.9186C25.8508 73.2491 26.1139 73.573 26.3635 73.8905C26.6131 74.2144 26.8829 74.5189 27.146 74.8234C27.4091 75.1279 27.6587 75.4324 27.9285 75.711C28.1984 75.9961 28.4547 76.2812 28.7178 76.5598C28.9809 76.8319 29.2508 77.0975 29.5071 77.3567C29.6353 77.4862 29.7702 77.6158 29.8984 77.7454C30.0266 77.875 30.1615 77.9916 30.2964 78.1147C30.5595 78.3544 30.8158 78.5941 31.0722 78.8274C31.3285 79.0606 31.5916 79.2744 31.8412 79.4947C32.0976 79.7085 32.3404 79.9288 32.5968 80.1231C33.0758 80.4989 33.5277 80.8747 33.9865 81.2051C34.0067 81.218 34.0269 81.2375 34.0539 81.2504C34.2091 81.3606 34.3575 81.4707 34.4992 81.5744C35.6123 82.2871 36.7591 82.9673 38.0071 83.4403C38.7694 83.7254 39.5789 83.9327 40.3884 84.0104C40.321 83.9262 40.2468 83.8355 40.1658 83.7383C40.0849 83.6476 40.0039 83.544 39.9095 83.4403C39.8218 83.3366 39.7273 83.22 39.6194 83.1034C39.417 82.8637 39.1876 82.6045 38.938 82.3259C38.6952 82.0409 38.4321 81.7299 38.1488 81.3995C37.8789 81.095 37.6158 80.7581 37.3258 80.4082C37.3055 80.3823 37.2853 80.3564 37.265 80.3305C36.948 79.9547 36.6444 79.54 36.3139 79.1124C35.9766 78.6913 35.6595 78.2183 35.3154 77.7519C35.14 77.5186 34.9781 77.266 34.8095 77.0133C34.6408 76.7606 34.4654 76.5079 34.2968 76.2488C34.1281 75.9831 33.9595 75.7175 33.7841 75.4389C33.7031 75.3029 33.6087 75.1668 33.5277 75.0243C33.4468 74.8817 33.3591 74.7392 33.2781 74.5967C33.1095 74.3116 32.9341 74.0265 32.7722 73.7285C32.6103 73.4305 32.4416 73.1324 32.2797 72.8279C32.1111 72.5299 31.9559 72.2124 31.794 71.895C31.6321 71.5775 31.4635 71.2665 31.3151 70.9426C31.1599 70.6186 31.0047 70.2882 30.8428 69.9578C30.6944 69.6209 30.546 69.284 30.3976 68.9471C29.8039 67.5801 29.2508 66.1612 28.7448 64.6905C28.2524 63.2198 27.8206 61.775 27.4496 60.3756C27.3551 60.0257 27.2674 59.6759 27.1797 59.3325C27.0988 58.9891 27.0178 58.6457 26.9369 58.3088C26.8492 57.9719 26.7885 57.635 26.7143 57.3046C26.6468 56.9742 26.5591 56.6502 26.4984 56.3263C26.4377 56.0024 26.3702 55.6784 26.3027 55.3674C26.242 55.05 26.1813 54.739 26.1206 54.428C26.0936 54.2725 26.0599 54.1235 26.0262 53.9745C25.9992 53.819 25.9722 53.67 25.9452 53.521C25.8912 53.2229 25.8373 52.9249 25.7766 52.6398C25.7293 52.3483 25.6754 52.0632 25.6281 51.7846C25.5877 51.5579 25.5405 51.3311 25.5067 51.1108C23.1591 52.0891 20.427 52.2058 17.9984 51.4218C17.9647 51.7458 17.9714 52.0697 17.9714 52.4066Z" fill="#FAA78C"/>
<path d="M33.9392 81.2179C34.1214 81.3345 34.3102 81.4576 34.4924 81.5742C35.6055 82.2869 36.7523 82.9672 38.0003 83.4401C38.7626 83.7252 39.5722 83.9325 40.3817 84.0103C41.1237 84.0815 41.8658 84.0491 42.5876 83.8807C44.1055 83.5243 45.4952 82.5007 46.0079 81.0819C43.2622 80.136 40.2333 79.961 37.319 80.4081C36.1789 80.583 35.0523 80.8486 33.973 81.1985C33.9662 81.2114 33.9527 81.2114 33.9392 81.2179Z" fill="#FAA78C"/>
<path d="M209.376 51.3114C208.681 57.0323 208.621 62.7725 208.668 68.5258C214.267 70.5796 220.366 71.1821 226.329 70.5601C226.95 64.7486 227.57 58.9306 227.827 53.0996C227.962 50.0222 227.982 46.9058 227.199 43.9385C226.498 41.2822 225.068 38.7295 222.868 37.0839C222.612 36.8895 222.349 36.7146 222.072 36.5461C220.689 37.5633 217.843 37.8484 216.325 37.0839C215.475 37.5763 214.712 38.1918 214.031 38.898C212.803 40.1678 211.859 41.7227 211.184 43.3554C210.139 45.8757 209.707 48.6033 209.376 51.3114Z" fill="url(#paint10_linear)"/>
<path d="M214.031 38.8849C215.515 39.3125 217.107 39.3838 218.625 39.0858C219.441 38.9238 220.231 38.6582 220.973 38.2954C221.56 38.0103 222.113 37.6669 222.625 37.2717C222.646 37.1551 222.666 37.0449 222.679 36.9283C222.686 36.883 222.693 36.8376 222.7 36.7858C222.673 36.6238 222.652 36.4618 222.632 36.2999C222.41 34.6672 222.221 33.0151 222.045 31.363C221.883 29.8405 221.728 28.3244 221.58 26.8083C219.772 27.5599 218.099 28.4929 216.399 29.6007C216.331 30.6244 216.237 31.6416 216.102 32.6588C215.987 33.514 215.852 34.3692 215.691 35.2114C215.603 35.6844 215.502 36.1573 215.394 36.6238C215.293 37.0644 215.185 37.4985 215.077 37.9326C214.699 38.2306 214.355 38.548 214.031 38.8849Z" fill="#FAA78C"/>
<path d="M215.677 35.218C217.6 33.6696 219.745 32.3673 222.032 31.3696C221.87 29.847 221.715 28.331 221.566 26.8149C219.758 27.5665 218.085 28.4994 216.385 29.6073C216.318 30.631 216.223 31.6482 216.089 32.6653C215.981 33.5206 215.839 34.3693 215.677 35.218Z" fill="#F17785"/>
<path d="M214.287 21.9555C213.714 23.2254 213.903 24.7933 214.773 25.9012C215.475 25.0071 215.947 23.9122 216.163 22.8107C216.223 22.5192 216.25 22.1823 216.048 21.9555C215.852 21.7352 215.508 21.7029 215.212 21.7288C214.908 21.7482 214.577 22.0268 214.287 21.9555Z" fill="#311649"/>
<path d="M215.266 21.4504C215.502 22.9535 214.739 24.4113 214.065 25.7848C213.39 27.1583 212.783 28.7262 213.309 30.1581C213.856 31.6482 215.61 32.5488 217.242 32.3933C218.875 32.2378 220.325 31.1688 221.148 29.8017C221.971 28.4347 222.221 26.8085 222.147 25.2341C222.072 23.6597 221.688 22.1113 221.303 20.5823C219.367 19.5262 217.013 20.1223 215.266 21.4504Z" fill="#FAA78C"/>
<path d="M221.715 25.6746C221.924 25.4802 222.147 25.2923 222.41 25.1692C222.673 25.0461 222.983 25.0008 223.26 25.0915C223.617 25.2146 223.86 25.5515 223.954 25.9013C224.143 26.5687 223.874 27.3396 223.293 27.7543C222.72 28.1754 221.877 28.2208 221.256 27.8644C221.519 27.1453 221.627 26.4391 221.715 25.6746Z" fill="#F68895"/>
<path d="M204.02 133.509C204.627 136.003 204.364 138.685 203.285 141.024C198.508 140.687 193.543 139.579 189.158 137.726C191.108 135.284 193.881 133.431 196.997 132.725C199.062 132.252 201.915 133.781 204.02 133.509Z" fill="#311649"/>
<path d="M246.473 126.207C248.861 127.386 250.851 129.388 252.045 131.805C248.733 135.362 244.685 138.549 240.408 140.785C239.686 137.616 239.963 134.183 241.373 131.241C242.31 129.291 245.353 128.054 246.473 126.207Z" fill="#311649"/>
<path d="M226.248 79.1833C226.248 79.1833 220.426 105.928 248.098 126.155L240.125 133.878C240.125 133.878 209.127 111.753 213.458 84.8718L226.248 79.1833Z" fill="url(#paint11_linear)"/>
<path d="M209.464 46.4585C207.973 54.6802 207.251 66.8086 207.885 75.1339C207.885 75.1339 191.068 103.997 193.307 133.67L205.106 136.968C205.106 136.968 209.37 98.2505 226.349 79.1897L227.84 59.7661L215.077 57.2717L214.375 46.8084L209.464 46.4585Z" fill="url(#paint12_linear)"/>
<path d="M226.943 61.8847C227.037 61.9042 227.159 61.7811 227.307 61.5219C227.381 61.3923 227.462 61.2304 227.55 61.036C227.638 60.8416 227.719 60.6149 227.806 60.3557C227.847 60.2261 227.894 60.0901 227.941 59.9475C227.982 59.805 228.022 59.6495 228.07 59.494C228.11 59.3321 228.157 59.1701 228.204 58.9951C228.245 58.8202 228.285 58.6388 228.326 58.4509C228.366 58.263 228.407 58.0687 228.447 57.8678C228.481 57.667 228.515 57.4532 228.555 57.2394C228.636 56.8053 228.683 56.3518 228.744 55.8659C228.845 54.9005 228.913 53.838 228.906 52.6912C228.899 51.5445 228.832 50.32 228.677 49.0436C228.522 47.7608 228.279 46.4262 227.941 45.0591C227.591 43.6921 227.125 42.2279 226.262 40.8349C225.83 40.1417 225.29 39.4938 224.676 38.9431C224.056 38.3924 223.341 37.9389 222.551 37.6279C222.16 37.4789 221.749 37.3558 221.33 37.2975C221.229 37.278 221.121 37.2651 221.02 37.2521C220.919 37.2456 220.811 37.2392 220.71 37.2327C220.608 37.2262 220.5 37.2197 220.399 37.2197C220.298 37.2262 220.197 37.2262 220.089 37.2327C219.273 37.2716 218.504 37.4659 217.822 37.751C217.134 38.0361 216.534 38.4118 216.001 38.8265C215.873 38.9366 215.738 39.0338 215.616 39.1439C215.495 39.2541 215.374 39.3642 215.259 39.4809C215.151 39.5975 215.036 39.7141 214.928 39.8307C214.82 39.9473 214.726 40.0704 214.625 40.187C214.24 40.6665 213.91 41.1783 213.66 41.6772C213.41 42.1761 213.208 42.662 213.046 43.1414C212.729 44.0873 212.56 44.962 212.452 45.7265C212.351 46.491 212.311 47.1518 212.297 47.6831C212.277 48.7586 212.345 49.3481 212.459 49.3546C212.581 49.3676 212.729 48.7845 212.965 47.7543C213.087 47.2425 213.228 46.6141 213.424 45.9014C213.626 45.1952 213.883 44.3983 214.26 43.5755C214.645 42.7591 215.144 41.8975 215.846 41.1653C215.94 41.0746 216.021 40.9775 216.122 40.8932C216.217 40.8025 216.318 40.7183 216.412 40.6276C216.514 40.5434 216.622 40.4592 216.723 40.3814C216.831 40.2972 216.945 40.2259 217.053 40.1482C217.505 39.8437 217.998 39.591 218.524 39.4096C219.05 39.2282 219.597 39.1245 220.15 39.131H220.359C220.426 39.1375 220.494 39.1439 220.561 39.1504L220.764 39.1699L220.966 39.2152C221.236 39.2606 221.499 39.3577 221.755 39.4679C222.794 39.9214 223.712 40.822 224.359 41.9234C225.014 43.0377 225.412 44.3011 225.729 45.5774C226.046 46.8603 226.289 48.1172 226.457 49.3157C226.633 50.5208 226.747 51.6676 226.815 52.7495C226.882 53.8315 226.902 54.8422 226.902 55.7687C226.896 56.2287 226.902 56.6757 226.882 57.0904C226.875 57.2977 226.875 57.505 226.869 57.6994C226.862 57.8937 226.855 58.0881 226.842 58.2695C226.835 58.4574 226.828 58.6323 226.822 58.8073C226.815 58.9822 226.808 59.1442 226.795 59.3061C226.788 59.4681 226.781 59.6171 226.781 59.7661C226.774 59.9087 226.768 60.0512 226.761 60.1808C226.747 60.4464 226.754 60.6797 226.747 60.887C226.747 61.0943 226.754 61.2692 226.768 61.4118C226.788 61.6968 226.848 61.8653 226.943 61.8847Z" fill="url(#paint13_linear)"/>
<path d="M212.243 22.312C215.137 22.9339 218.268 22.5193 220.777 21.1717C220.575 21.826 220.561 22.5128 220.723 23.1801C220.946 24.1066 221.499 24.9747 222.329 25.6161C223.26 24.3852 223.84 22.7072 223.631 21.2494C223.604 21.0745 223.57 20.8931 223.523 20.7182C223.226 20.2776 222.882 19.8759 222.491 19.5131C221.883 18.943 221.175 18.47 220.393 18.1461C218.349 17.2909 215.879 17.4399 213.943 18.4894C213.775 18.6125 213.613 18.7486 213.464 18.8911C212.5 19.7917 211.994 21.1004 212.243 22.312Z" fill="url(#paint14_linear)"/>
<path d="M196.147 81.1919C196.235 81.3603 196.471 81.451 196.856 81.464C197.045 81.4705 197.267 81.464 197.53 81.4381C197.659 81.4251 197.8 81.4057 197.949 81.3862C198.097 81.3603 198.245 81.3279 198.407 81.2955C198.731 81.2243 199.082 81.14 199.473 81.0299C199.858 80.9197 200.262 80.7837 200.708 80.6347C201.153 80.4921 201.605 80.2978 202.097 80.1034C202.59 79.909 203.089 79.6758 203.622 79.4231C204.162 79.1834 204.695 78.8854 205.261 78.5874C205.551 78.4384 205.828 78.2699 206.111 78.1079C206.401 77.9395 206.691 77.771 206.988 77.5896C207.278 77.4017 207.575 77.2138 207.872 77.0195C208.02 76.9223 208.176 76.8251 208.324 76.7215C208.472 76.6178 208.621 76.5141 208.769 76.404C209.073 76.1902 209.376 75.9764 209.68 75.7496C209.984 75.5164 210.287 75.2832 210.591 75.0434C210.901 74.8037 211.198 74.551 211.508 74.2919C211.812 74.0327 212.129 73.7736 212.426 73.495C212.729 73.2164 213.033 72.9378 213.336 72.6527C213.633 72.3612 213.93 72.0567 214.234 71.7587C215.421 70.5342 216.568 69.193 217.634 67.7288C218.693 66.2581 219.61 64.7485 220.393 63.239C220.582 62.8567 220.764 62.4809 220.953 62.1052C221.121 61.7229 221.283 61.3472 221.452 60.9714C221.62 60.5956 221.755 60.2198 221.897 59.8441C222.032 59.4683 222.18 59.1055 222.295 58.7362C222.416 58.3669 222.531 57.9976 222.639 57.6412C222.747 57.2784 222.835 56.9156 222.929 56.5593C222.97 56.3779 223.017 56.2029 223.057 56.028C223.098 55.8531 223.132 55.6782 223.165 55.5032C223.233 55.1534 223.3 54.81 223.361 54.4731C223.388 54.3176 223.408 54.1621 223.428 54.0066C220.689 53.1061 218.106 51.7779 215.812 50.0869C215.704 50.359 215.596 50.6376 215.495 50.9227C215.407 51.1754 215.306 51.428 215.205 51.6872C215.11 51.9463 215.016 52.2055 214.915 52.4776C214.814 52.7432 214.712 53.0154 214.605 53.2875C214.557 53.4235 214.503 53.5661 214.449 53.7021C214.395 53.8382 214.341 53.9807 214.287 54.1168C214.18 54.3953 214.072 54.6804 213.964 54.972C213.849 55.257 213.728 55.5486 213.62 55.8466C213.512 56.1446 213.377 56.4362 213.255 56.7342C213.134 57.0322 213.019 57.3432 212.878 57.6412C212.743 57.9457 212.614 58.2503 212.486 58.5612C212.345 58.8658 212.203 59.1767 212.061 59.4942C211.488 60.7446 210.86 62.0274 210.159 63.3232C209.451 64.6125 208.709 65.8564 207.939 67.0421C207.744 67.3401 207.548 67.6316 207.359 67.9232C207.157 68.2082 206.961 68.4933 206.766 68.7719C206.577 69.057 206.368 69.3291 206.165 69.6012C205.963 69.8733 205.774 70.1454 205.565 70.4046C205.362 70.6637 205.16 70.9229 204.964 71.182C204.762 71.4347 204.553 71.6809 204.357 71.9271C204.256 72.0502 204.162 72.1733 204.06 72.2964C203.959 72.4195 203.858 72.5296 203.757 72.6527C203.555 72.886 203.359 73.1192 203.163 73.346C202.961 73.5727 202.765 73.7865 202.57 74.0068C202.374 74.2206 202.185 74.4409 201.989 74.6417C201.598 75.0434 201.234 75.4581 200.863 75.8209C200.499 76.1902 200.155 76.553 199.81 76.8834C199.466 77.2138 199.156 77.5378 198.846 77.8293C198.542 78.1209 198.259 78.4059 197.996 78.6586C197.733 78.9113 197.49 79.151 197.274 79.3778C197.166 79.4879 197.065 79.5981 196.97 79.7017C196.876 79.8054 196.788 79.8961 196.707 79.9933C196.545 80.1811 196.417 80.3496 196.316 80.4986C196.127 80.7772 196.06 81.0234 196.147 81.1919Z" fill="#FAA78C"/>
<path d="M200.863 80.1877C199.999 82.0277 198.077 83.3753 195.992 83.6021C193.901 83.8288 191.715 82.9283 190.447 81.315C192.788 80.6996 195.21 80.1035 197.55 79.4945C198.083 79.352 198.63 79.2159 199.183 79.2548C199.736 79.2872 200.613 79.7083 200.863 80.1877Z" fill="#F68895"/>
<path d="M214.591 28.0459C215.097 28.3958 215.745 28.5448 216.358 28.4735C216.615 28.4411 216.783 28.7197 216.648 28.927C216.514 29.1344 216.318 29.3158 216.089 29.4324C215.677 29.6527 215.151 29.6721 214.719 29.4842C214.416 29.3547 214.159 29.1214 214.045 28.8234C213.977 28.6355 214.018 28.3698 214.119 28.156C214.206 27.9876 214.436 27.9357 214.591 28.0459Z" fill="#FCDEE4"/>
<defs>
<linearGradient id="paint0_linear" x1="212.561" y1="31.0918" x2="228.738" y2="19.6073" gradientUnits="userSpaceOnUse">
<stop stop-color="#371A4F"/>
<stop offset="0.151" stop-color="#3D1D57"/>
<stop offset="0.4544" stop-color="#44215F"/>
<stop offset="1" stop-color="#462261"/>
</linearGradient>
<linearGradient id="paint1_linear" x1="34.2225" y1="65.7764" x2="187.855" y2="3.84204" gradientUnits="userSpaceOnUse">
<stop stop-color="#C5205C"/>
<stop offset="0.0721" stop-color="#D62B61"/>
<stop offset="0.177" stop-color="#E73666"/>
<stop offset="0.3076" stop-color="#F23E69"/>
<stop offset="0.491" stop-color="#F9436B"/>
<stop offset="1" stop-color="#FB446C"/>
</linearGradient>
<linearGradient id="paint2_linear" x1="5.25137" y1="92.6621" x2="198.427" y2="32.9594" gradientUnits="userSpaceOnUse">
<stop stop-color="#C5205C"/>
<stop offset="0.0721" stop-color="#D62B61"/>
<stop offset="0.177" stop-color="#E73666"/>
<stop offset="0.3076" stop-color="#F23E69"/>
<stop offset="0.491" stop-color="#F9436B"/>
<stop offset="1" stop-color="#FB446C"/>
</linearGradient>
<linearGradient id="paint3_linear" x1="25.8113" y1="85.1513" x2="46.6617" y2="15.1474" gradientUnits="userSpaceOnUse">
<stop stop-color="#C5205C"/>
<stop offset="0.0635" stop-color="#D0275F"/>
<stop offset="0.2122" stop-color="#E33465"/>
<stop offset="0.3849" stop-color="#F13D69"/>
<stop offset="0.6013" stop-color="#F9426B"/>
<stop offset="1" stop-color="#FB446C"/>
</linearGradient>
<linearGradient id="paint4_linear" x1="187.636" y1="87.9038" x2="208.431" y2="-2.68524" gradientUnits="userSpaceOnUse">
<stop stop-color="#C5205C"/>
<stop offset="0.0635" stop-color="#D0275F"/>
<stop offset="0.2122" stop-color="#E33465"/>
<stop offset="0.3849" stop-color="#F13D69"/>
<stop offset="0.6013" stop-color="#F9426B"/>
<stop offset="1" stop-color="#FB446C"/>
</linearGradient>
<linearGradient id="paint5_linear" x1="14.4444" y1="78.3281" x2="26.7108" y2="27.2389" gradientUnits="userSpaceOnUse">
<stop stop-color="#0386E9"/>
<stop offset="0.266" stop-color="#118CEF"/>
<stop offset="0.6797" stop-color="#2193F6"/>
<stop offset="1" stop-color="#2795F8"/>
</linearGradient>
<linearGradient id="paint6_linear" x1="20.5973" y1="27.3065" x2="8.44031" y2="14.9117" gradientUnits="userSpaceOnUse">
<stop stop-color="#371A4F"/>
<stop offset="0.151" stop-color="#3D1D57"/>
<stop offset="0.4544" stop-color="#44215F"/>
<stop offset="1" stop-color="#462261"/>
</linearGradient>
<linearGradient id="paint7_linear" x1="17.7726" y1="81.486" x2="58.2744" y2="140.103" gradientUnits="userSpaceOnUse">
<stop stop-color="#371A4F"/>
<stop offset="0.151" stop-color="#3D1D57"/>
<stop offset="0.4544" stop-color="#44215F"/>
<stop offset="1" stop-color="#462261"/>
</linearGradient>
<linearGradient id="paint8_linear" x1="21.4808" y1="51.7394" x2="9.65626" y2="135.927" gradientUnits="userSpaceOnUse">
<stop stop-color="#371A4F"/>
<stop offset="0.151" stop-color="#3D1D57"/>
<stop offset="0.4544" stop-color="#44215F"/>
<stop offset="1" stop-color="#462261"/>
</linearGradient>
<linearGradient id="paint9_linear" x1="28.8217" y1="49.3341" x2="12.5013" y2="51.7824" gradientUnits="userSpaceOnUse">
<stop stop-color="#371A4F"/>
<stop offset="0.151" stop-color="#3D1D57"/>
<stop offset="0.4544" stop-color="#44215F"/>
<stop offset="1" stop-color="#462261"/>
</linearGradient>
<linearGradient id="paint10_linear" x1="210.964" y1="76.5825" x2="229.074" y2="27.1116" gradientUnits="userSpaceOnUse">
<stop stop-color="#0386E9"/>
<stop offset="0.266" stop-color="#118CEF"/>
<stop offset="0.6797" stop-color="#2193F6"/>
<stop offset="1" stop-color="#2795F8"/>
</linearGradient>
<linearGradient id="paint11_linear" x1="214.159" y1="80.1157" x2="246.174" y2="140.492" gradientUnits="userSpaceOnUse">
<stop stop-color="#371A4F"/>
<stop offset="0.151" stop-color="#3D1D57"/>
<stop offset="0.4544" stop-color="#44215F"/>
<stop offset="1" stop-color="#462261"/>
</linearGradient>
<linearGradient id="paint12_linear" x1="221.228" y1="51.0381" x2="199.291" y2="135.406" gradientUnits="userSpaceOnUse">
<stop stop-color="#371A4F"/>
<stop offset="0.151" stop-color="#3D1D57"/>
<stop offset="0.4544" stop-color="#44215F"/>
<stop offset="1" stop-color="#462261"/>
</linearGradient>
<linearGradient id="paint13_linear" x1="228.829" y1="49.4353" x2="212.318" y2="49.8464" gradientUnits="userSpaceOnUse">
<stop stop-color="#371A4F"/>
<stop offset="0.151" stop-color="#3D1D57"/>
<stop offset="0.4544" stop-color="#44215F"/>
<stop offset="1" stop-color="#462261"/>
</linearGradient>
<linearGradient id="paint14_linear" x1="210.425" y1="27.0952" x2="225.944" y2="16.0781" gradientUnits="userSpaceOnUse">
<stop stop-color="#371A4F"/>
<stop offset="0.151" stop-color="#3D1D57"/>
<stop offset="0.4544" stop-color="#44215F"/>
<stop offset="1" stop-color="#462261"/>
</linearGradient>
</defs>
</svg>
