<svg width="142" height="88" viewBox="0 0 142 88" fill="none" xmlns="http://www.w3.org/2000/svg">
<path d="M87.8162 12.8772C87.0934 12.3547 86.1457 12.26 85.3337 12.6291L10.959 54.5762C11.7688 54.2035 12.7163 54.2935 13.4415 54.8119L66.0201 85.1587C67.9403 86.2668 70.3061 86.2668 72.2263 85.1587L141.264 45.0602C141.719 44.7929 141.999 44.3043 141.999 43.7761C141.999 43.248 141.719 42.7593 141.264 42.492L87.8162 12.8772Z" fill="url(#paint0_linear)"/>
<path d="M131.323 41.2147L78.6948 10.8555C77.6576 10.1773 77.0108 9.04122 76.9571 7.8035V3.96983C76.9133 3.52973 77.1072 3.09959 77.466 2.84082L3.10373 46.041C2.74426 46.2945 2.54592 46.7193 2.58241 47.1576V51.0036C2.64877 52.2375 3.29859 53.3661 4.33255 54.0433L56.0672 83.9062C57.9874 85.0143 60.3531 85.0143 62.2733 83.9062L131.323 43.7953C131.778 43.5247 132.057 43.0345 132.057 42.505C132.057 41.9756 131.778 41.4854 131.323 41.2147Z" fill="url(#paint1_linear)"/>
<path d="M77.8884 0.470749C77.1656 -0.0517599 76.2179 -0.146485 75.406 0.222615L1.03125 42.1697C1.84105 41.797 2.78861 41.887 3.51372 42.4054L56.0924 72.7522C58.0126 73.8603 60.3783 73.8603 62.2985 72.7522L131.336 32.6537C131.792 32.3864 132.072 31.8978 132.072 31.3696C132.072 30.8415 131.792 30.3528 131.336 30.0855L77.8884 0.470749Z" fill="url(#paint2_linear)"/>
<path d="M128.653 42.4553C128.639 42.9673 128.362 43.4359 127.921 43.696L62.9797 81.462C61.0595 82.5701 58.6938 82.5701 56.7736 81.462L6.7767 52.6288C5.74507 51.961 5.09472 50.8407 5.02656 49.614V45.7431C4.99622 45.3158 5.18862 44.903 5.53546 44.6513C5.94146 44.4668 6.4153 44.5141 6.7767 44.7754L56.7736 73.5838C58.6938 74.6919 61.0595 74.6919 62.9797 73.5838L127.921 35.8674C128.368 35.6126 128.646 35.1407 128.653 34.6267V42.4553Z" fill="url(#paint3_linear)"/>
<path d="M4.34432 46.1523L56.0913 76.0152C58.0115 77.1234 60.3773 77.1234 62.2975 76.0152L131.335 35.9664C131.785 35.7129 132.067 35.2416 132.08 34.7257V31.3635C132.068 31.8761 131.79 32.3458 131.347 32.6042L62.3099 72.7399C60.3897 73.848 58.0239 73.848 56.1037 72.7399L3.53751 42.4179C1.58878 41.3013 0 42.1698 0 44.4278V50.7552C0.129566 53.2269 1.43554 55.4871 3.51269 56.8345L56.0665 87.1689C57.9867 88.277 60.3525 88.277 62.2727 87.1689L131.298 47.0704C131.746 46.8151 132.028 46.3449 132.042 45.8297V42.5047C132.03 43.0206 131.747 43.4919 131.298 43.7454L62.2975 83.8935C60.3773 85.0016 58.0115 85.0016 56.0913 83.8935L4.3319 54.043C3.29795 53.3658 2.64812 52.2372 2.58177 51.0033V47.1324C2.59418 46.0407 3.38857 45.594 4.34432 46.1523Z" fill="url(#paint4_linear)"/>
<path d="M51.1135 79.1419C50.7177 79.1434 50.3642 78.8946 50.2322 78.5216L48.5442 73.5589C48.2026 72.5563 48.0306 71.5039 48.0352 70.4448V69.3406C48.0338 68.5712 48.4399 67.8585 49.1027 67.4672L122.944 24.5896C123.231 24.3962 123.601 24.378 123.906 24.5422C124.211 24.7063 124.399 25.0259 124.395 25.3718C124.391 25.7177 124.195 26.0329 123.887 26.1901L50.046 69.0801C49.9511 69.1378 49.8942 69.2419 49.8971 69.353V70.4572C49.8985 71.301 50.0369 72.139 50.3067 72.9385L51.9948 77.9012C52.0777 78.1331 52.0639 78.3886 51.9565 78.6102C51.8491 78.8318 51.6572 79.001 51.4238 79.0799C51.3248 79.1186 51.2198 79.1396 51.1135 79.1419Z" fill="url(#paint5_linear)"/>
<path d="M17.6758 41.1772L36.1453 30.4578L63.7628 46.4004L45.3056 57.1198L17.6758 41.1772Z" fill="url(#paint6_linear)"/>
<defs>
<linearGradient id="paint0_linear" x1="84.2856" y1="91.4794" x2="143.099" y2="14.4486" gradientUnits="userSpaceOnUse">
<stop stop-color="#292376"/>
<stop offset="1" stop-color="#5D278F" stop-opacity="0.01"/>
</linearGradient>
<linearGradient id="paint1_linear" x1="56.0561" y1="100.109" x2="140.093" y2="18.9571" gradientUnits="userSpaceOnUse">
<stop stop-color="#41B3E7"/>
<stop offset="1" stop-color="#1F488F"/>
</linearGradient>
<linearGradient id="paint2_linear" x1="59.1094" y1="89.4336" x2="129.127" y2="3.6656" gradientUnits="userSpaceOnUse">
<stop stop-color="#41B3E7"/>
<stop offset="1" stop-color="#0471C3"/>
</linearGradient>
<linearGradient id="paint3_linear" x1="88.2659" y1="16.3148" x2="49.8615" y2="86.5189" gradientUnits="userSpaceOnUse">
<stop stop-color="#FFEDE0"/>
<stop offset="0.97" stop-color="white"/>
</linearGradient>
<linearGradient id="paint4_linear" x1="93.6063" y1="11.8797" x2="40.8525" y2="89.8607" gradientUnits="userSpaceOnUse">
<stop stop-color="#41B3E7"/>
<stop offset="1" stop-color="#1F488F"/>
</linearGradient>
<linearGradient id="paint5_linear" x1="84.4621" y1="-12.1175" x2="7.80119" y2="77.4024" gradientUnits="userSpaceOnUse">
<stop stop-color="#534741"/>
<stop offset="1" stop-color="#D1985C"/>
</linearGradient>
<linearGradient id="paint6_linear" x1="72.7022" y1="27.9097" x2="19.8978" y2="30.6849" gradientUnits="userSpaceOnUse">
<stop stop-color="#FFEDE0"/>
<stop offset="0.97" stop-color="white"/>
</linearGradient>
</defs>
</svg>
