<svg width="32" height="32" viewBox="0 0 32 32" fill="none" xmlns="http://www.w3.org/2000/svg">
<path d="M22.4576 10.2856H9.54688L16.0022 15.8188L22.4576 10.2856Z" fill="#059CE1"/>
<path d="M15.9989 17.1429C15.8624 17.1429 15.7305 17.0941 15.627 17.0051L8.57031 10.9565V21.7144H23.4275V10.9565L16.3708 17.0051C16.2673 17.0941 16.1353 17.1429 15.9989 17.1429Z" fill="#059CE1"/>
<path d="M16 0C7.1635 0 0 7.1635 0 16C0 24.8365 7.1635 32 16 32C24.8365 32 32 24.8365 32 16C31.99 7.16769 24.8323 0.0100446 16 0ZM24.5714 22.2857C24.5714 22.6013 24.3156 22.8571 24 22.8571H8C7.68443 22.8571 7.42857 22.6013 7.42857 22.2857V9.71429C7.42857 9.39872 7.68443 9.14286 8 9.14286H24C24.3156 9.14286 24.5714 9.39872 24.5714 9.71429V22.2857Z" fill="#059CE1"/>
</svg>
