<svg width="32" height="32" viewBox="0 0 32 32" fill="none" xmlns="http://www.w3.org/2000/svg">
<path d="M18.875 18.4325L17.6515 20.7754C17.5176 21.0321 17.2132 21.1482 16.9422 21.0458C14.1797 20 11.9992 17.8189 10.9542 15.0561C10.8518 14.7852 10.9679 14.4807 11.2246 14.3468L13.5675 13.1239L12.8287 8.93777C11.9439 8.43973 10.8613 8.44894 9.98493 8.96149C9.10854 9.47405 8.57003 10.4132 8.57031 11.4286C8.57785 18.0527 13.9461 23.421 20.5703 23.4286C21.5851 23.4286 22.524 22.8903 23.0365 22.0142C23.5491 21.1384 23.5586 20.0561 23.0611 19.1713L18.875 18.4325Z" fill="#059CE1"/>
<path d="M16 0C7.1635 0 0 7.1635 0 16C0 24.8365 7.1635 32 16 32C24.8365 32 32 24.8365 32 16C31.99 7.16769 24.8323 0.0100446 16 0ZM20.5714 24.5714C13.3161 24.5633 7.43666 18.6839 7.42857 11.4286C7.42885 9.94922 8.24554 8.59068 9.5519 7.89648C10.8585 7.20257 12.4414 7.28627 13.6674 8.1144C13.7958 8.20089 13.8834 8.33594 13.9102 8.48856L14.7673 13.3382C14.8105 13.5837 14.69 13.8287 14.469 13.9439L12.2176 15.12C13.1384 17.2015 14.8013 18.8652 16.8823 19.7868L18.0572 17.5326C18.1724 17.3117 18.4174 17.1911 18.6629 17.2344L23.5131 18.0915C23.6655 18.1183 23.8002 18.2056 23.8867 18.3337C24.7143 19.5597 24.7977 21.1426 24.1035 22.4487C23.409 23.755 22.0508 24.5714 20.5714 24.5714Z" fill="#059CE1"/>
</svg>
