<svg width="32" height="32" viewBox="0 0 32 32" fill="none" xmlns="http://www.w3.org/2000/svg">
<path d="M16 32C24.8387 32 32 24.8387 32 16C32 7.16133 24.8387 0 16 0C7.16133 0 0 7.16133 0 16C0 24.8387 7.16133 32 16 32Z" fill="#0471C3"/>
<g clip-path="url(#clip0)">
<path d="M23.7221 8.78802C23.5022 8.51913 23.1729 8.37109 22.7947 8.37109C22.5891 8.37109 22.3713 8.41435 22.1475 8.49991L6.91079 14.3162C6.1022 14.6248 5.9933 15.0879 6.0003 15.3364C6.00731 15.585 6.1423 16.0412 6.9671 16.3036C6.97204 16.3051 6.97699 16.3067 6.98193 16.308L10.1424 17.2125L11.8516 22.1C12.0847 22.7663 12.6078 23.1803 13.2169 23.1803C13.6011 23.1803 13.9788 23.0193 14.3095 22.715L16.2644 20.915L19.0999 23.1981C19.1001 23.1984 19.1005 23.1985 19.1008 23.1988L19.1277 23.2205C19.1302 23.2224 19.1328 23.2245 19.1353 23.2264C19.4505 23.4708 19.7945 23.5999 20.1305 23.6001H20.1306C20.7872 23.6001 21.31 23.1141 21.4623 22.362L23.9588 10.0348C24.0591 9.54004 23.975 9.09729 23.7221 8.78802ZM11.1997 17.0407L17.2973 13.9256L13.5005 17.96C13.4383 18.026 13.3942 18.1069 13.3725 18.1949L12.6404 21.1604L11.1997 17.0407ZM13.595 21.9391C13.5697 21.9623 13.5443 21.983 13.5189 22.0021L14.1982 19.2511L15.4337 20.2461L13.595 21.9391ZM22.9252 9.82541L20.4286 22.1528C20.4046 22.2707 20.3278 22.5452 20.1305 22.5452C20.033 22.5452 19.9105 22.4921 19.7851 22.3956L16.5722 19.8085C16.5718 19.8081 16.5712 19.8077 16.5707 19.8074L14.6589 18.268L20.1495 12.4338C20.3252 12.2471 20.3412 11.961 20.1872 11.7558C20.0331 11.5507 19.7539 11.4861 19.5256 11.6029L10.4951 16.2163L7.29161 15.2998L22.5236 9.48524C22.6523 9.43608 22.7421 9.42578 22.7947 9.42578C22.827 9.42578 22.8844 9.42963 22.9057 9.45586C22.9337 9.49005 22.9694 9.60664 22.9252 9.82541Z" fill="white"/>
</g>
<defs>
<clipPath id="clip0">
<rect width="18" height="18" fill="white" transform="translate(6 7)"/>
</clipPath>
</defs>
</svg>
