<svg width="32" height="32" viewBox="0 0 32 32" fill="none" xmlns="http://www.w3.org/2000/svg">
<circle cx="16" cy="16" r="16" fill="#31BC79"/>
<g clip-path="url(#clip0)">
<path d="M22.4433 9.55666C20.7946 7.90788 18.6029 7 16.2711 7C16.271 7 16.2704 7 16.2703 7C15.117 7.00014 13.9931 7.22343 12.93 7.66385C11.8668 8.10426 10.9143 8.74106 10.0987 9.55666C8.45006 11.2053 7.54218 13.3973 7.54218 15.7289C7.54218 17.1194 7.87767 18.5012 8.51337 19.7323L7.04614 23.9239C6.94274 24.2196 7.01593 24.5409 7.23758 24.7624C7.39263 24.9176 7.5967 25 7.80654 25C7.89649 25 7.9874 24.9849 8.07611 24.9539L12.2677 23.4868C13.4988 24.1225 14.8806 24.458 16.2711 24.458C18.6027 24.458 20.7946 23.5499 22.4433 21.9013C24.092 20.2527 25 18.0606 25 15.729C25 13.3973 24.0921 11.2053 22.4433 9.55666ZM21.6968 21.1548C20.2476 22.6042 18.3206 23.4022 16.2711 23.4022C15.0173 23.4022 13.7717 23.0921 12.6689 22.5051C12.469 22.3988 12.2327 22.3806 12.0205 22.4549L8.21234 23.7877L9.54526 19.9795C9.61955 19.7671 9.60115 19.5307 9.49486 19.3309C8.90805 18.2284 8.59783 16.9829 8.59783 15.7289C8.59783 13.6794 9.39598 11.7524 10.8452 10.3032C12.2943 8.85408 14.221 8.05592 16.2704 8.05565H16.2711C18.3207 8.05565 20.2476 8.85381 21.6968 10.3032C23.1462 11.7524 23.9444 13.6793 23.9444 15.7289C23.9444 17.7785 23.1462 19.7056 21.6968 21.1548Z" fill="white"/>
<path d="M19.5146 16.5087C19.113 16.1071 18.4596 16.1071 18.0581 16.5087L17.6189 16.9478C16.5284 16.3536 15.6459 15.4711 15.0515 14.3806L15.4907 13.9414C15.8924 13.5399 15.8924 12.8865 15.4907 12.4849L14.3072 11.3014C13.9056 10.8999 13.2522 10.8999 12.8507 11.3014L11.9039 12.2482C11.3616 12.7905 11.3346 13.7228 11.8277 14.8735C12.2559 15.8725 13.0395 16.9706 14.0342 17.9653C15.0289 18.96 16.1269 19.7436 17.126 20.1718C17.6727 20.4061 18.17 20.5229 18.5997 20.5229C19.0744 20.5229 19.4666 20.3802 19.7513 20.0956L20.6981 19.1487V19.1488C20.8927 18.9542 20.9998 18.6956 20.9998 18.4205C20.9998 18.1453 20.8927 17.8867 20.6981 17.6923L19.5146 16.5087ZM19.0048 19.349C18.85 19.5038 18.3741 19.558 17.542 19.2015C16.6633 18.825 15.6827 18.1208 14.7807 17.2188C13.8787 16.3168 13.1746 15.3363 12.7981 14.4576C12.4414 13.6256 12.4957 13.1494 12.6505 12.9947L13.5791 12.0661L14.726 13.2132L14.1763 13.763C13.9278 14.0116 13.8677 14.3886 14.0272 14.7011C14.7499 16.1184 15.8811 17.2495 17.2984 17.9723C17.6111 18.1317 17.988 18.0719 18.2366 17.8232L18.7863 17.2734L19.9334 18.4205L19.0048 19.349Z" fill="white"/>
</g>
<defs>
<clipPath id="clip0">
<rect width="18" height="18" fill="white" transform="translate(7 7)"/>
</clipPath>
</defs>
</svg>
