<svg width="418" height="375" viewBox="0 0 418 375" fill="none" xmlns="http://www.w3.org/2000/svg">
<path d="M87.9197 58.89C87.9197 58.89 39.6497 104.63 48.8597 168.09C58.0697 231.55 114.55 280.56 159 321.34C203.45 362.12 266.55 367.72 312.07 336.51C357.59 305.3 333 265.83 358.72 209.56C384.44 153.29 401.21 141.37 387.41 83.14C373.61 24.91 291 -11.88 208.77 3.50998C126.54 18.9 87.9197 58.89 87.9197 58.89Z" fill="#059CE1"/>
<path opacity="0.7" d="M87.9197 58.89C87.9197 58.89 39.6497 104.63 48.8597 168.09C58.0697 231.55 114.55 280.56 159 321.34C203.45 362.12 266.55 367.72 312.07 336.51C357.59 305.3 333 265.83 358.72 209.56C384.44 153.29 401.21 141.37 387.41 83.14C373.61 24.91 291 -11.88 208.77 3.50998C126.54 18.9 87.9197 58.89 87.9197 58.89Z" fill="white"/>
<path d="M295.91 49.1101H223.69L224.42 38.5801H296.64L295.91 49.1101Z" fill="#CCCCCC"/>
<path d="M295.91 63.8601H223.69L224.42 53.3301H296.64L295.91 63.8601Z" fill="#CCCCCC"/>
<path d="M295.91 78.6201H223.69L224.42 68.0801H296.64L295.91 78.6201Z" fill="#CCCCCC"/>
<path d="M295.91 93.3701H223.69L224.42 82.8301H296.64L295.91 93.3701Z" fill="#CCCCCC"/>
<path d="M295.91 108.12H223.69L224.42 97.5801H296.64L295.91 108.12Z" fill="#CCCCCC"/>
<path d="M295.91 122.87H223.69L224.42 112.34H296.64L295.91 122.87Z" fill="#CCCCCC"/>
<path d="M295.91 137.62H223.69L224.42 127.09H296.64L295.91 137.62Z" fill="#CCCCCC"/>
<path d="M295.91 152.38H223.69L224.42 141.84H296.64L295.91 152.38Z" fill="#CCCCCC"/>
<path d="M295.91 167.13H223.69L224.42 156.59H296.64L295.91 167.13Z" fill="#CCCCCC"/>
<path d="M295.91 181.88H223.69L224.42 171.34H296.64L295.91 181.88Z" fill="#CCCCCC"/>
<path d="M295.91 196.63H223.69L224.42 186.09H296.64L295.91 196.63Z" fill="#CCCCCC"/>
<path d="M372.281 49.1101H300.051L300.781 38.5801H373.011L372.281 49.1101Z" fill="#CCCCCC"/>
<path d="M372.281 63.8601H300.051L300.781 53.3301H373.011L372.281 63.8601Z" fill="#CCCCCC"/>
<path d="M372.281 78.6201H300.051L300.781 68.0801H373.011L372.281 78.6201Z" fill="#CCCCCC"/>
<path d="M372.281 93.3701H300.051L300.781 82.8301H373.011L372.281 93.3701Z" fill="#CCCCCC"/>
<path d="M372.281 108.12H300.051L300.781 97.5801H373.011L372.281 108.12Z" fill="#CCCCCC"/>
<path d="M372.281 122.87H300.051L300.781 112.34H373.011L372.281 122.87Z" fill="#CCCCCC"/>
<path d="M372.281 137.62H300.051L300.781 127.09H373.011L372.281 137.62Z" fill="#CCCCCC"/>
<path d="M372.281 152.38H300.051L300.781 141.84H373.011L372.281 152.38Z" fill="#CCCCCC"/>
<path d="M372.281 167.13H300.051L300.781 156.59H373.011L372.281 167.13Z" fill="#CCCCCC"/>
<path d="M372.281 181.88H300.051L300.781 171.34H373.011L372.281 181.88Z" fill="#CCCCCC"/>
<path d="M372.281 196.63H300.051L300.781 186.09H373.011L372.281 196.63Z" fill="#CCCCCC"/>
<path d="M213.56 38H64.3398V166.02H213.56V38Z" fill="#059CE1"/>
<path d="M206.09 44.3999H71.7998V159.62H206.09V44.3999Z" fill="white"/>
<path d="M206.09 79.3301C181.94 96.5101 147.35 107.91 107.22 125.82C94.5747 131.373 82.6753 138.488 71.7998 147V159.63H206.09V79.3301Z" fill="#059CE1"/>
<path d="M206.089 44.3999H152.199C146.199 49.5299 139.109 55.2599 130.729 61.3999C100.059 83.8899 113.349 106.4 150.159 90.0199C169.049 81.6299 190.079 62.1999 206.089 45.2699V44.3999Z" fill="#059CE1"/>
<path d="M94.9996 57.3199C94.9996 47.9299 83.3096 55.3199 71.8496 64.7599V88.4699C82.9996 77.5299 94.9996 65.7199 94.9996 57.3199Z" fill="#059CE1"/>
<path d="M106.2 94.6399C106.2 96.7641 105.57 98.8406 104.39 100.607C103.21 102.373 101.532 103.749 99.5698 104.562C97.6073 105.375 95.4478 105.588 93.3645 105.174C91.2811 104.759 89.3674 103.736 87.8654 102.234C86.3634 100.732 85.3405 98.8185 84.9261 96.7352C84.5117 94.6518 84.7244 92.4924 85.5373 90.5299C86.3502 88.5674 87.7267 86.8901 89.4929 85.7099C91.2591 84.5298 93.3356 83.8999 95.4597 83.8999C98.3082 83.8999 101.04 85.0314 103.054 87.0456C105.068 89.0597 106.2 91.7915 106.2 94.6399Z" fill="#059CE1"/>
<path opacity="0.75" d="M206.09 79.3301C181.94 96.5101 147.35 107.91 107.22 125.82C94.5747 131.373 82.6753 138.488 71.7998 147V159.63H206.09V79.3301Z" fill="white"/>
<path opacity="0.75" d="M206.089 44.3999H152.199C146.199 49.5299 139.109 55.2599 130.729 61.3999C100.059 83.8899 113.349 106.4 150.159 90.0199C169.049 81.6299 190.079 62.1999 206.089 45.2699V44.3999Z" fill="white"/>
<g opacity="0.75">
<path opacity="0.75" d="M94.9996 57.3199C94.9996 47.9299 83.3096 55.3199 71.8496 64.7599V88.4699C82.9996 77.5299 94.9996 65.7199 94.9996 57.3199Z" fill="white"/>
</g>
<path opacity="0.75" d="M106.2 94.6399C106.2 96.7641 105.57 98.8406 104.39 100.607C103.21 102.373 101.532 103.749 99.5698 104.562C97.6073 105.375 95.4478 105.588 93.3645 105.174C91.2811 104.759 89.3674 103.736 87.8654 102.234C86.3634 100.732 85.3405 98.8185 84.9261 96.7352C84.5117 94.6518 84.7244 92.4924 85.5373 90.5299C86.3502 88.5674 87.7267 86.8901 89.4929 85.7099C91.2591 84.5298 93.3356 83.8999 95.4597 83.8999C98.3082 83.8999 101.04 85.0314 103.054 87.0456C105.068 89.0597 106.2 91.7915 106.2 94.6399Z" fill="white"/>
<path d="M182.88 128.89C182.88 131.722 182.04 134.491 180.466 136.847C178.892 139.202 176.655 141.037 174.038 142.121C171.421 143.204 168.541 143.487 165.763 142.934C162.985 142.381 160.433 141.016 158.431 139.012C156.429 137.008 155.066 134.456 154.514 131.677C153.963 128.899 154.248 126.019 155.333 123.403C156.419 120.786 158.256 118.551 160.612 116.978C162.968 115.406 165.738 114.568 168.57 114.57C170.45 114.57 172.312 114.94 174.049 115.66C175.786 116.38 177.364 117.435 178.692 118.765C180.021 120.095 181.075 121.673 181.794 123.411C182.512 125.148 182.882 127.01 182.88 128.89Z" fill="white"/>
<path d="M384.74 301.88C382.145 304.89 380.392 308.534 379.66 312.44L369.47 318.15V291.15L369.67 291.42L385.9 279.54C387.95 279.86 395.83 280.76 403.01 276.89C411.35 272.4 417.44 257.02 417.44 257.02C417.44 257.02 397.56 254.77 390.83 263.11C385.37 269.87 385.18 276.42 385.31 278.65L369.47 290.24V270.29C372.437 268.909 375.059 266.885 377.146 264.365C379.234 261.845 380.735 258.892 381.54 255.72C384.42 244.5 369.04 222.39 369.04 222.39C369.04 222.39 353.04 245.15 356.21 256.69C358.93 266.46 366.21 269.56 368.4 270.28V313.53L357 304C357.26 301.72 357.47 294.59 351.12 287.45C343.42 278.79 322.91 279.45 322.91 279.45C322.91 279.45 331.56 296.76 338.91 302.53C345.35 307.53 354.24 305.53 356.38 304.92L368.38 314.92V328.07H350.53L357.82 373.63H379.69L387 328.08H369.47V319.38L380.67 313.1C383.39 313.86 391 315.42 398.2 311.82C407.2 307.33 414.55 297.71 414.55 297.71C414.55 297.71 393.08 292.26 384.74 301.88Z" fill="#059CE1"/>
<path opacity="0.5" d="M384.74 301.88C382.145 304.89 380.392 308.534 379.66 312.44L369.47 318.15V291.15L369.67 291.42L385.9 279.54C387.95 279.86 395.83 280.76 403.01 276.89C411.35 272.4 417.44 257.02 417.44 257.02C417.44 257.02 397.56 254.77 390.83 263.11C385.37 269.87 385.18 276.42 385.31 278.65L369.47 290.24V270.29C372.437 268.909 375.059 266.885 377.146 264.365C379.234 261.845 380.735 258.892 381.54 255.72C384.42 244.5 369.04 222.39 369.04 222.39C369.04 222.39 353.04 245.15 356.21 256.69C358.93 266.46 366.21 269.56 368.4 270.28V313.53L357 304C357.26 301.72 357.47 294.59 351.12 287.45C343.42 278.79 322.91 279.45 322.91 279.45C322.91 279.45 331.56 296.76 338.91 302.53C345.35 307.53 354.24 305.53 356.38 304.92L368.38 314.92V328.07H350.53L357.82 373.63H379.69L387 328.08H369.47V319.38L380.67 313.1C383.39 313.86 391 315.42 398.2 311.82C407.2 307.33 414.55 297.71 414.55 297.71C414.55 297.71 393.08 292.26 384.74 301.88Z" fill="white"/>
<path d="M364.529 164.23L335.099 164.48C335.099 164.48 333.099 164.23 332.669 165.69C332.669 165.69 327.559 178.59 327.319 183.21C327.079 187.83 328.319 187.1 326.319 193.21C324.319 199.32 318.779 213.64 315.619 225.32C311.369 241.01 310.259 257.67 309.989 273.87C309.989 276.47 308.389 298.87 312.439 298.87C315.799 298.87 346.769 302.98 347.139 297.01C348.629 273.21 344.329 249.96 352.589 226.82C355.799 217.82 359.479 208.34 362.209 198.94C364.939 189.54 365.409 179.76 367.209 170.14C368.419 163.5 364.529 164.23 364.529 164.23Z" fill="#263238"/>
<path d="M367.419 167.15C367.129 163.75 364.529 164.23 364.529 164.23L335.099 164.48C335.099 164.48 333.099 164.23 332.669 165.69C332.669 165.69 327.559 178.59 327.319 183.21C327.247 184.43 327.28 185.655 327.419 186.87L328.039 187.87C328.039 187.87 329.039 196.38 340.689 196.87C352.339 197.36 358.939 192 361.369 186.87C363.799 181.74 364.779 173.49 366.719 168.62C366.928 168.118 367.161 167.628 367.419 167.15Z" fill="#059CE1"/>
<path d="M360.59 176.65C358.59 183.76 359.8 185.73 357.83 197.97C355.86 210.21 348.75 223.97 345.98 236.66C343.21 249.35 344.41 293.9 344.8 295.88C344.955 296.929 345.012 297.99 344.97 299.05C346.3 298.55 347.1 297.87 347.16 296.94C348.65 273.14 344.35 249.89 352.61 226.75C355.82 217.75 359.5 208.27 362.23 198.87C364.96 189.47 365.43 179.69 367.23 170.07C367.98 166.07 366.8 164.76 365.77 164.37C363.534 168.229 361.793 172.355 360.59 176.65Z" fill="#059CE1"/>
<path d="M303.74 356.28L303.54 356.12V328.64H307.49V311.27H292.89V328.64H296.83V356.59L261.89 367.73V370.49C261.89 371.328 262.223 372.132 262.815 372.724C263.408 373.317 264.212 373.65 265.05 373.65C265.888 373.65 266.691 373.317 267.284 372.724C267.877 372.132 268.21 371.328 268.21 370.49V370.1L297.43 366.7V370.89C297.43 371.622 297.72 372.324 298.238 372.841C298.756 373.359 299.458 373.65 300.19 373.65C300.922 373.65 301.624 373.359 302.141 372.841C302.659 372.324 302.95 371.622 302.95 370.89V366.56L333.35 370.1V370.49C333.35 371.328 333.683 372.132 334.275 372.724C334.868 373.317 335.672 373.65 336.51 373.65C337.348 373.65 338.151 373.317 338.744 372.724C339.337 372.132 339.67 371.328 339.67 370.49V367.73L303.74 356.28Z" fill="#263238"/>
<path d="M345.4 294.33H258.63C256.421 294.33 254.63 296.121 254.63 298.33V310.48C254.63 312.689 256.421 314.48 258.63 314.48H345.4C347.609 314.48 349.4 312.689 349.4 310.48V298.33C349.4 296.121 347.609 294.33 345.4 294.33Z" fill="#263238"/>
<path d="M3.83937 164.23L33.2694 164.48C33.2694 164.48 35.2694 164.23 35.7094 165.69C35.7094 165.69 40.8194 178.59 41.0594 183.21C41.2994 187.83 40.0594 187.1 42.0594 193.21C44.0594 199.32 49.5994 213.64 52.7594 225.32C57.0194 241.01 58.1194 257.67 58.3894 273.87C58.3894 276.47 59.9894 298.87 55.9394 298.87C52.5894 298.87 21.6194 302.98 21.2394 297.01C19.7594 273.21 24.0494 249.96 15.7894 226.82C12.5794 217.82 8.89937 208.34 6.17937 198.94C3.45937 189.54 2.97937 179.76 1.17937 170.14C-0.000630021 163.5 3.83937 164.23 3.83937 164.23Z" fill="#263238"/>
<path d="M1 167.15C1.29 163.75 3.88 164.23 3.88 164.23L33.31 164.48C33.31 164.48 35.31 164.23 35.75 165.69C35.75 165.69 40.86 178.59 41.1 183.21C41.1651 184.431 41.1283 185.655 40.99 186.87L40.37 187.87C40.37 187.87 39.37 196.38 27.72 196.87C16.07 197.36 9.44 192 7 186.86C4.56 181.72 3.6 173.48 1.65 168.61C1.46185 168.111 1.24481 167.623 1 167.15Z" fill="#059CE1"/>
<path d="M7.77974 176.65C9.77974 183.76 8.56974 185.73 10.5397 197.97C12.5097 210.21 19.6297 223.97 22.3897 236.66C25.1497 249.35 23.9997 293.9 23.5697 295.88C23.4198 296.929 23.3629 297.99 23.3997 299.05C22.0797 298.55 21.2697 297.87 21.2097 296.94C19.7297 273.14 24.0197 249.89 15.7597 226.75C12.5497 217.75 8.86974 208.27 6.14974 198.87C3.42974 189.47 2.94974 179.69 1.14974 170.07C0.409741 166.07 1.58974 164.76 2.60974 164.37C4.84761 168.227 6.58493 172.353 7.77974 176.65Z" fill="#059CE1"/>
<path d="M64.6296 356.28L64.8296 356.12V328.64H60.8296V311.27H75.4396V328.64H71.4896V356.59L106.43 367.73V370.49C106.43 371.328 106.097 372.132 105.504 372.724C104.911 373.317 104.108 373.65 103.27 373.65C102.431 373.65 101.628 373.317 101.035 372.724C100.442 372.132 100.11 371.328 100.11 370.49V370.1L70.9996 366.7V370.89C70.9572 371.594 70.6474 372.256 70.1335 372.74C69.6196 373.224 68.9404 373.493 68.2346 373.493C67.5287 373.493 66.8495 373.224 66.3356 372.74C65.8217 372.256 65.512 371.594 65.4696 370.89V366.56L34.9996 370.1V370.49C35.0237 370.919 34.9601 371.349 34.8124 371.753C34.6648 372.156 34.4363 372.526 34.141 372.838C33.8457 373.151 33.4897 373.4 33.0948 373.57C32.6999 373.74 32.2745 373.827 31.8446 373.827C31.4146 373.827 30.9892 373.74 30.5943 373.57C30.1995 373.4 29.8435 373.151 29.5481 372.838C29.2528 372.526 29.0243 372.156 28.8767 371.753C28.7291 371.349 28.6654 370.919 28.6896 370.49V367.73L64.6296 356.28Z" fill="#263238"/>
<path d="M22.9702 314.47H109.74C111.949 314.47 113.74 312.679 113.74 310.47V298.32C113.74 296.111 111.949 294.32 109.74 294.32H22.9702C20.7611 294.32 18.9702 296.111 18.9702 298.32V310.47C18.9702 312.679 20.7611 314.47 22.9702 314.47Z" fill="#263238"/>
<path d="M327.999 237.74H90.3994V374.3H327.999V237.74Z" fill="#CCCCCC"/>
<path d="M327.82 241.02H90.5195V244.8H327.82V241.02Z" fill="#263238"/>
<path d="M329.759 235.5H85.1094V241.47H329.759V235.5Z" fill="#CCCCCC"/>
<path d="M153.66 223.64C153.66 223.64 156.46 236.15 156.3 239.64C156.14 243.13 149.55 252.48 149.38 250.34C149.436 248.526 149.829 246.739 150.54 245.07C150.54 245.07 148.23 248.2 147.41 248.07C146.59 247.94 148.07 243.62 148.07 243.62C148.07 243.62 145.6 246.09 144.77 245.62C143.94 245.15 146.58 241.5 146.58 241.5C146.58 241.5 143.58 244.63 143.46 243.64C143.34 242.65 146.09 238.54 146.09 238.54C146.09 238.54 143.29 232.61 143.09 230.14C143.108 228.414 143.683 226.741 144.73 225.37L153.66 223.64Z" fill="white"/>
<path d="M153.66 223.64C153.66 223.64 156.46 236.15 156.3 239.64C156.14 243.13 149.55 252.48 149.38 250.34C149.436 248.526 149.829 246.739 150.54 245.07C150.54 245.07 148.23 248.2 147.41 248.07C146.59 247.94 148.07 243.62 148.07 243.62C148.07 243.62 145.6 246.09 144.77 245.62C143.94 245.15 146.58 241.5 146.58 241.5C146.58 241.5 143.58 244.63 143.46 243.64C143.34 242.65 146.09 238.54 146.09 238.54C146.09 238.54 143.29 232.61 143.09 230.14C143.108 228.414 143.683 226.741 144.73 225.37L153.66 223.64Z" fill="#D9D9D9"/>
<path d="M153.66 223.64C153.66 223.64 156.46 236.15 156.3 239.64C156.14 243.13 149.55 252.48 149.38 250.34C149.436 248.526 149.829 246.739 150.54 245.07C150.54 245.07 148.23 248.2 147.41 248.07C146.59 247.94 148.07 243.62 148.07 243.62C148.07 243.62 145.6 246.09 144.77 245.62C143.94 245.15 146.58 241.5 146.58 241.5C146.58 241.5 143.58 244.63 143.46 243.64C143.34 242.65 146.09 238.54 146.09 238.54C146.09 238.54 143.29 232.61 143.09 230.14C143.108 228.414 143.683 226.741 144.73 225.37L153.66 223.64Z" stroke="#263238" stroke-linecap="round" stroke-linejoin="round"/>
<path d="M153 223.64C153 223.64 155 232.37 154.82 234.84C154.64 237.31 152.18 244.55 150.37 243.23C148.56 241.91 151.52 236.98 151.52 236.98C151.52 236.98 146.44 233.41 145.27 230.06C144.1 226.71 144.77 225.29 144.77 225.29L153 223.64Z" fill="white"/>
<path d="M153 223.64C153 223.64 155 232.37 154.82 234.84C154.64 237.31 152.18 244.55 150.37 243.23C148.56 241.91 151.52 236.98 151.52 236.98C151.52 236.98 146.44 233.41 145.27 230.06C144.1 226.71 144.77 225.29 144.77 225.29L153 223.64Z" fill="#D9D9D9"/>
<path d="M153 223.64C153 223.64 155 232.37 154.82 234.84C154.64 237.31 152.18 244.55 150.37 243.23C148.56 241.91 151.52 236.98 151.52 236.98C151.52 236.98 146.44 233.41 145.27 230.06C144.1 226.71 144.77 225.29 144.77 225.29L153 223.64Z" stroke="#263238" stroke-linecap="round" stroke-linejoin="round"/>
<path d="M146.97 182.73L153.98 224.48L144.1 226.71L134.22 194.52L146.97 182.73Z" fill="#263238" stroke="#263238" stroke-linecap="round" stroke-linejoin="round"/>
<path d="M144.1 203.13C144.1 203.13 144.74 252.85 145.69 266.24C146.64 279.63 143.14 297.48 139.96 302.58C136.78 307.68 122.74 339.58 123.38 341.47C124.02 343.36 126.89 349.12 126.89 350.71V357.4C126.89 357.4 142.82 367.92 144.1 367.92C145.38 367.92 146.97 370.47 143.78 372.39C140.59 374.31 104.89 374.3 103.3 373.02C102.251 372.079 101.48 370.868 101.07 369.52C101.07 369.52 95.9696 371.43 96.2896 366.65C96.6096 361.87 102.34 341.47 102.34 341.47C102.34 341.47 98.8396 319.15 100.11 304.81C101.38 290.47 105.85 273.25 105.85 269.75C105.85 266.25 101.39 242.97 100.75 239.15C100.11 235.33 90.8696 224.48 95.0096 215.88C99.1496 207.28 102.34 193.56 103.62 192.61C104.9 191.66 122.11 191.01 129.12 192.61C136.13 194.21 143.78 194.2 144.1 203.13Z" fill="#263238" stroke="#263238" stroke-linecap="round" stroke-linejoin="round"/>
<path d="M112.5 102.91C112.5 102.91 107.05 107.79 106.11 109.48C105.17 111.17 93.73 127.48 93.54 139.14C93.35 150.8 102 186.06 102 186.06L89 219.13L92.76 220.63L96.51 216.5V222.7C96.51 222.7 100.83 226.64 112.09 230.39C123.35 234.14 137.81 229.83 137.81 229.83L142.12 202.39V229.46L147.19 226.08L147.6 181C147.6 181 151.73 156.79 151.73 150C151.73 143.21 140.28 122 135.21 115.84C130.14 109.68 121.69 104.58 119.21 102.7C116.73 100.82 112.5 102.91 112.5 102.91Z" fill="#263238"/>
<path opacity="0.17" d="M112.5 102.91C112.5 102.91 107.05 107.79 106.11 109.48C105.17 111.17 93.73 127.48 93.54 139.14C93.35 150.8 102 186.06 102 186.06L89 219.13L92.76 220.63L96.51 216.5V222.7C96.51 222.7 100.83 226.64 112.09 230.39C123.35 234.14 137.81 229.83 137.81 229.83L142.12 202.39V229.46L147.19 226.08L147.6 181C147.6 181 151.73 156.79 151.73 150C151.73 143.21 140.28 122 135.21 115.84C130.14 109.68 121.69 104.58 119.21 102.7C116.73 100.82 112.5 102.91 112.5 102.91Z" fill="white"/>
<path d="M96.46 142.88C96.46 142.88 103.28 147.71 107.82 149.41" stroke="#263238" stroke-linecap="round" stroke-linejoin="round"/>
<path d="M98.4502 148C98.4502 148 106.12 150 110.09 150" stroke="#263238" stroke-linecap="round" stroke-linejoin="round"/>
<path d="M109.53 193.42L131.11 195.98L129.69 200.52L109.81 198.25" stroke="#263238" stroke-linecap="round" stroke-linejoin="round"/>
<path d="M112.5 102.91C112.5 102.91 107.05 107.79 106.11 109.48C105.17 111.17 93.73 127.48 93.54 139.14C93.35 150.8 102 186.06 102 186.06L89 219.13L92.76 220.63L96.51 216.5V222.7C96.51 222.7 100.83 226.64 112.09 230.39C123.35 234.14 137.81 229.83 137.81 229.83L142.12 202.39V229.46L147.19 226.08L147.6 181C147.6 181 151.73 156.79 151.73 150C151.73 143.21 140.28 122 135.21 115.84C130.14 109.68 121.69 104.58 119.21 102.7C116.73 100.82 112.5 102.91 112.5 102.91Z" stroke="#263238" stroke-linecap="round" stroke-linejoin="round"/>
<path d="M111.37 104L132.21 126.53L144.41 149.81C144.41 149.81 141.78 132.54 139.53 127.81C137.28 123.08 127.14 111.36 126 108.73C124.86 106.1 111.37 104 111.37 104Z" fill="white" stroke="#263238" stroke-linecap="round" stroke-linejoin="round"/>
<path d="M138.64 138.83L144.41 149.83C144.41 149.83 142.62 138.06 140.72 131.31L139.53 127.86C137.932 125.057 136.12 122.383 134.11 119.86L130.84 119.21L132.21 126.57L136.43 130.02L138.64 138.83Z" fill="#263238" stroke="#263238" stroke-linecap="round" stroke-linejoin="round"/>
<path d="M133.08 112.49L134.16 113.74L137.55 117.74L139.55 127.9L130.86 119.23C130.86 119.23 132 114 133.08 112.49Z" fill="white" stroke="#263238" stroke-linecap="round" stroke-linejoin="round"/>
<path d="M142.91 70.62C142.91 70.62 147.47 74.12 148.04 77.5C148.61 80.88 146.91 84.64 147.1 85.95C147.29 87.26 150.66 90.27 150.48 91.77C150.3 93.27 147.48 93.83 147.48 93.83C147.48 93.83 144.42 104.97 143.67 106.83C142.92 108.69 139.16 108.14 136.35 107.77L131.28 122.77L114.56 103.1L117.19 95.21C117.19 95.21 110.06 86.58 109.49 77.38C108.92 68.18 116.25 61.8 126.76 60.49C137.27 59.18 146.1 64.24 147.22 66.31C148.34 68.38 142.91 70.62 142.91 70.62Z" fill="white"/>
<path d="M142.91 70.62C142.91 70.62 147.47 74.12 148.04 77.5C148.61 80.88 146.91 84.64 147.1 85.95C147.29 87.26 150.66 90.27 150.48 91.77C150.3 93.27 147.48 93.83 147.48 93.83C147.48 93.83 144.42 104.97 143.67 106.83C142.92 108.69 139.16 108.14 136.35 107.77L131.28 122.77L114.56 103.1L117.19 95.21C117.19 95.21 110.06 86.58 109.49 77.38C108.92 68.18 116.25 61.8 126.76 60.49C137.27 59.18 146.1 64.24 147.22 66.31C148.34 68.38 142.91 70.62 142.91 70.62Z" fill="#D9D9D9"/>
<path d="M123.43 113.56C126.25 112.99 130.98 112.01 135.24 111.05L136.34 107.79C138.68 108.1 141.68 108.54 143.04 107.59C139.84 106.27 131.92 103.96 130.3 100.99C128.3 97.2998 135.3 86.5598 135.3 81.1898C135.3 75.8198 128.59 69.7798 128.59 69.7798C125.36 66.7098 119.47 65.7798 114.24 65.7798C112.593 67.2174 111.304 69.0186 110.475 71.0406C109.645 73.0627 109.298 75.2501 109.46 77.4298C110.03 86.6298 117.16 95.2598 117.16 95.2598L114.53 103.15L123.43 113.56Z" fill="#B8B8B8"/>
<path d="M142.91 70.62C142.91 70.62 147.47 74.12 148.04 77.5C148.61 80.88 146.91 84.64 147.1 85.95C147.29 87.26 150.66 90.27 150.48 91.77C150.3 93.27 147.48 93.83 147.48 93.83C147.48 93.83 144.42 104.97 143.67 106.83C142.92 108.69 139.16 108.14 136.35 107.77L131.28 122.77L114.56 103.1L117.19 95.21C117.19 95.21 110.06 86.58 109.49 77.38C108.92 68.18 116.25 61.8 126.76 60.49C137.27 59.18 146.1 64.24 147.22 66.31C148.34 68.38 142.91 70.62 142.91 70.62Z" stroke="#263238" stroke-linecap="round" stroke-linejoin="round"/>
<path d="M142.91 70.6198C142.91 70.6198 148.35 68.3698 147.22 66.3098C146.09 64.2498 137.27 59.1698 126.76 60.4898C116.25 61.8098 108.93 68.1798 109.49 77.3798C110.05 86.5798 117.19 95.2098 117.19 95.2098L116.79 96.4098C120.68 98.3098 124.7 95.2098 124.7 95.2098C123.966 95.58 123.133 95.7069 122.322 95.572C121.512 95.4372 120.765 95.0476 120.19 94.4598C117.94 92.3998 117.75 85.8298 120.57 85.2598C123.39 84.6898 125.26 85.8298 125.26 87.8898C125.26 89.9498 125.82 88.6398 127.33 88.4498C128.84 88.2598 127.51 83.7598 128.45 83.0098C129.97 82.0694 131.305 80.8596 132.39 79.4398C134.08 77.1898 129.2 75.3198 128.64 73.2498C128.08 71.1798 142.91 70.6198 142.91 70.6198Z" fill="#263238" stroke="#263238" stroke-linecap="round" stroke-linejoin="round"/>
<path d="M144.25 85.2798L140.77 86.4398H143.92" stroke="#263238" stroke-linecap="round" stroke-linejoin="round"/>
<path d="M145.58 81.8C145.58 81.8 144.09 79.65 142.43 80.64C140.77 81.63 140.61 82.3 140.61 82.3" stroke="#263238" stroke-linecap="round" stroke-linejoin="round"/>
<path d="M142 96.8799C143.018 97.5757 144.261 97.8614 145.48 97.6799" stroke="#263238" stroke-linecap="round" stroke-linejoin="round"/>
<path d="M113.81 99.5298L134.83 120.18L132.96 129L110.62 104.97L113.81 99.5298Z" fill="white" stroke="#263238" stroke-linecap="round" stroke-linejoin="round"/>
<path d="M194.56 178.48C194.56 178.48 187.16 174.08 185.96 174.48C184.76 174.88 173.16 183.28 173.96 185.28C174.76 187.28 180.96 189.88 184.56 191.28C188.16 192.68 195.56 189.68 195.56 189.68L194.56 178.48Z" fill="white" stroke="#263238" stroke-linecap="round" stroke-linejoin="round"/>
<path d="M173 176.88C173 176.88 179.4 173.28 180.4 173.28C181.4 173.28 187.2 178.48 187.2 178.48L184.8 182.08C184.8 182.08 192.4 185.88 191.6 187.28C190.8 188.68 187.8 190.88 184.6 191.28C181.4 191.68 172.4 185.88 172.4 185.88L173 176.88Z" fill="white"/>
<path d="M173 176.88C173 176.88 179.4 173.28 180.4 173.28C181.4 173.28 187.2 178.48 187.2 178.48L184.8 182.08C184.8 182.08 192.4 185.88 191.6 187.28C190.8 188.68 187.8 190.88 184.6 191.28C181.4 191.68 172.4 185.88 172.4 185.88L173 176.88Z" fill="#D9D9D9"/>
<path d="M173 176.88C173 176.88 179.4 173.28 180.4 173.28C181.4 173.28 187.2 178.48 187.2 178.48L184.8 182.08C184.8 182.08 192.4 185.88 191.6 187.28C190.8 188.68 187.8 190.88 184.6 191.28C181.4 191.68 172.4 185.88 172.4 185.88L173 176.88Z" stroke="#263238" stroke-linecap="round" stroke-linejoin="round"/>
<path d="M168.56 175.28L174.16 176.28L172.36 185.88L167.56 184.28L168.56 175.28Z" fill="white" stroke="#263238" stroke-linecap="round" stroke-linejoin="round"/>
<path d="M103.57 119.48C103.57 119.48 98.1697 129.88 97.5697 135.08C96.9697 140.28 118.97 181.68 120.57 183.08C122.17 184.48 168.96 185.88 168.96 185.88L170.96 175.68L130.96 164.28L117.36 122.48" fill="#263238"/>
<path opacity="0.17" d="M103.57 119.48C103.57 119.48 98.1697 129.88 97.5697 135.08C96.9697 140.28 118.97 181.68 120.57 183.08C122.17 184.48 168.96 185.88 168.96 185.88L170.96 175.68L130.96 164.28L117.36 122.48" fill="white"/>
<path d="M103.57 119.48C103.57 119.48 98.1697 129.88 97.5697 135.08C96.9697 140.28 118.97 181.68 120.57 183.08C122.17 184.48 168.96 185.88 168.96 185.88L170.96 175.68L130.96 164.28L117.36 122.48" stroke="#263238" stroke-linecap="round" stroke-linejoin="round"/>
<path d="M187.56 175.48C187.56 175.48 184.76 173.08 183.76 175.88C182.76 178.68 176.56 185.48 179.36 185.68C182.16 185.88 187.36 180.08 187.36 180.08" fill="white"/>
<path d="M187.56 175.48C187.56 175.48 184.76 173.08 183.76 175.88C182.76 178.68 176.56 185.48 179.36 185.68C182.16 185.88 187.36 180.08 187.36 180.08" stroke="#263238" stroke-linecap="round" stroke-linejoin="round"/>
<path d="M175.16 186.68C175.16 186.68 174.44 190.05 176.16 191.48C177.37 192.48 178.05 189.68 177.76 187.68C177.47 185.68 175.76 185.08 175.16 186.68Z" fill="white" stroke="#263238" stroke-linecap="round" stroke-linejoin="round"/>
<path d="M178 187.48C178 187.48 177.28 190.85 179 192.28C180.21 193.28 180.89 190.48 180.6 188.48C180.31 186.48 178.56 185.88 178 187.48Z" fill="white" stroke="#263238" stroke-linecap="round" stroke-linejoin="round"/>
<path d="M180.76 188.68C180.76 188.68 180.04 192.05 181.76 193.48C182.97 194.48 183.65 191.68 183.36 189.68C183.07 187.68 181.36 187.08 180.76 188.68Z" fill="white" stroke="#263238" stroke-linecap="round" stroke-linejoin="round"/>
<path d="M183.53 190.31C183.53 190.31 182.87 192.58 184.45 193.54C185.56 194.22 186.19 192.33 185.92 190.98C185.65 189.63 184.08 189.23 183.53 190.31Z" fill="white" stroke="#263238" stroke-linecap="round" stroke-linejoin="round"/>
<path d="M194.56 178.48L195.16 191.28L199.56 190.08L198.56 178.28L194.56 178.48Z" stroke="#263238" stroke-linecap="round" stroke-linejoin="round"/>
<path d="M197.56 177.28L199.56 192.48L232.96 188.88L233.76 169.08L197.56 177.28Z" fill="#263238" stroke="#263238" stroke-linecap="round" stroke-linejoin="round"/>
<path d="M139 237.87C139 237.87 132.94 278.35 132.94 292.06C132.94 305.77 123.7 328.72 123.38 341.47" stroke="white" stroke-linecap="round" stroke-linejoin="round"/>
<path d="M103.3 373C104.89 374.28 140.59 374.28 143.78 372.37C146.97 370.46 145.37 367.9 144.1 367.9C142.83 367.9 126.89 357.38 126.89 357.38C126.89 357.38 118.28 364.08 113.5 365.67C108.72 367.26 101.07 367.58 101.07 367.58V369.5C101.48 370.848 102.251 372.059 103.3 373Z" fill="white" stroke="#263238" stroke-linecap="round" stroke-linejoin="round"/>
<path d="M143.78 372.39C145.46 371.39 145.78 370.19 145.58 369.3C140.891 370.227 136.128 370.725 131.35 370.79C121.72 371.05 106.57 370.46 101.35 370.24C101.782 371.314 102.468 372.268 103.35 373.02C104.89 374.3 140.59 374.3 143.78 372.39Z" fill="white" stroke="#263238" stroke-linecap="round" stroke-linejoin="round"/>
<path d="M100.14 369.77L101.07 367.6L102.34 341.47C102.34 341.47 96.5997 361.87 96.2897 366.65C96.0497 370.13 98.6897 370.06 100.14 369.77Z" fill="#263238" stroke="#263238" stroke-linecap="round" stroke-linejoin="round"/>
<path d="M237.81 229.9C237.81 229.9 234.63 277.4 237.81 296.52C240.99 315.64 249 348.8 250.24 352.94C251.021 355.411 251.36 358.001 251.24 360.59L269.09 363.14C269.09 363.14 263.67 300.35 263.67 293.02C263.67 285.69 269.73 230.86 269.73 230.86L237.81 229.9Z" fill="#263238" stroke="#263238" stroke-linecap="round" stroke-linejoin="round"/>
<path d="M251.2 360.59C251.2 360.59 231.76 368.88 229.52 370.47C227.28 372.06 234.31 374.3 242.91 374.3C251.51 374.3 260.13 373.3 260.13 373.3L263.63 371.39L263.95 373.62H273.19C273.19 373.62 274.79 365.97 274.19 364.06C273.736 362.753 273.205 361.474 272.6 360.23L251.2 360.59Z" fill="#263238" stroke="#263238" stroke-linecap="round" stroke-linejoin="round"/>
<path d="M234.94 226.08C234.94 226.08 236.54 271.66 240.36 287.92C244.18 304.18 250.88 343.7 250.88 347.84C250.905 350.207 250.585 352.565 249.93 354.84L248.65 359C248.869 359.993 249.205 360.956 249.65 361.87C249.65 361.87 257.93 363.78 263.35 363.78C266.738 363.749 270.105 363.241 273.35 362.27C273.35 362.27 273.52 352.27 273.84 347.52C274.16 342.77 272.57 312.14 272.57 304.81C272.57 297.48 270.65 293.33 270.65 284.41C270.65 275.49 269.06 251.58 269.38 247.75C269.7 243.92 274.16 239.75 275.12 235C276.08 230.25 277.03 225.12 277.03 225.12L234.94 226.08Z" fill="#263238" stroke="#263238" stroke-linecap="round" stroke-linejoin="round"/>
<path d="M238.76 274C238.76 274 247.67 335.81 249.9 339.71C251.23 342.198 251.586 345.093 250.9 347.83" stroke="white" stroke-linecap="round" stroke-linejoin="round"/>
<path d="M227.29 190.06C227.29 190.06 226.1 202.25 226.1 211.57C226.1 216.77 226.05 223.57 226 228.49C225.986 230.514 226.677 232.481 227.954 234.052C229.231 235.623 231.015 236.7 233 237.1C235.094 237.56 237.227 237.818 239.37 237.87L231.88 191.49C231.88 191.49 228.49 185.76 227.29 190.06Z" fill="#263238" stroke="#263238" stroke-linecap="round" stroke-linejoin="round"/>
<path d="M262.68 107C264.506 107.961 266.173 109.199 267.62 110.67C268.896 112.347 270.027 114.13 271 116C271 116 284.55 131.62 284.87 133.21C285.19 134.8 277.22 185.01 277.22 185.01L286.3 232.5C286.3 232.5 271.64 240.63 260.48 241.11C252.63 241.45 240.82 238.94 234.48 237.42C233.219 237.121 232.083 236.433 231.234 235.453C230.385 234.473 229.866 233.251 229.75 231.96C229.13 225.28 227.97 211.96 227.29 199.35C226.51 184.7 228.73 155.68 230.29 145.48C231.85 135.28 236.83 121.42 240.65 115.68C244.47 109.94 255 104 262.68 107Z" fill="#263238" stroke="#263238" stroke-linecap="round" stroke-linejoin="round"/>
<path d="M271 116C270.036 114.156 268.919 112.397 267.66 110.74C266.213 109.269 264.546 108.031 262.72 107.07C256.36 104.56 248.04 108.2 243.21 112.8C242.57 114.22 237.53 125.72 235.14 135.12C232.59 145.12 232.91 157.76 232.91 157.76C232.91 157.76 241.36 146.92 252.83 134.17C258.558 127.797 264.813 121.919 271.53 116.6L271 116Z" fill="#263238"/>
<path opacity="0.17" d="M271 116C270.036 114.156 268.919 112.397 267.66 110.74C266.213 109.269 264.546 108.031 262.72 107.07C256.36 104.56 248.04 108.2 243.21 112.8C242.57 114.22 237.53 125.72 235.14 135.12C232.59 145.12 232.91 157.76 232.91 157.76C232.91 157.76 241.36 146.92 252.83 134.17C258.558 127.797 264.813 121.919 271.53 116.6L271 116Z" fill="white"/>
<path d="M271 116C270.036 114.156 268.919 112.397 267.66 110.74C266.213 109.269 264.546 108.031 262.72 107.07C256.36 104.56 248.04 108.2 243.21 112.8C242.57 114.22 237.53 125.72 235.14 135.12C232.59 145.12 232.91 157.76 232.91 157.76C232.91 157.76 241.36 146.92 252.83 134.17C258.558 127.797 264.813 121.919 271.53 116.6L271 116Z" stroke="#263238" stroke-linecap="round" stroke-linejoin="round"/>
<path d="M242.12 120.13C242.12 120.13 237.81 133.64 236.5 137.46C235.19 141.28 235.06 147.27 235.06 147.27C235.06 147.27 251.2 123.12 255.14 119.06C259.08 115 264.23 108.66 264.23 108.66L260.76 107.66L242.12 120.13Z" fill="white" stroke="#263238" stroke-linecap="round" stroke-linejoin="round"/>
<path d="M243.31 115.23C243.31 115.23 241.4 120.85 241.4 121.23C241.4 121.61 240.92 126.97 240.92 126.97L247.73 117.76L243.31 115.23Z" fill="white" stroke="#263238" stroke-linecap="round" stroke-linejoin="round"/>
<path d="M260.64 104L242 119.18L244.87 127.54L263.99 108.06L260.64 104Z" fill="white" stroke="#263238" stroke-linecap="round" stroke-linejoin="round"/>
<path d="M258.23 224.4C258.23 224.4 255.58 230.99 254.79 233.15C254 235.31 254.4 243.77 254.5 244.66C254.6 245.55 256.17 245.74 256.17 245.74C256.17 245.74 256.66 252.52 257.25 252.74C257.863 252.893 258.489 252.99 259.12 253.03C259.12 253.03 260.2 256.48 261.58 256.18C261.994 256.053 262.363 255.81 262.642 255.478C262.92 255.146 263.097 254.74 263.15 254.31C263.603 254.352 264.06 254.275 264.474 254.085C264.888 253.896 265.245 253.601 265.51 253.23C266.071 252.403 266.535 251.514 266.89 250.58C266.89 250.58 269.25 249.4 269.44 248.51C269.63 247.62 270.23 244.51 270.23 244.51C270.23 244.51 270.92 244.31 270.92 242.25C270.92 240.19 269.35 227.5 269.35 227.5L258.23 224.4Z" fill="white" stroke="#263238" stroke-linecap="round" stroke-linejoin="round"/>
<path d="M256.17 245.74L256.46 239.76" stroke="#263238" stroke-linecap="round" stroke-linejoin="round"/>
<path d="M259.12 253.01L259.76 244.16" stroke="#263238" stroke-linecap="round" stroke-linejoin="round"/>
<path d="M263.15 254.29L263.61 244.71" stroke="#263238" stroke-linecap="round" stroke-linejoin="round"/>
<path d="M266.89 250.56L267.46 243.89" stroke="#263238" stroke-linecap="round" stroke-linejoin="round"/>
<path d="M277.66 128.86L284.83 133.16L282.44 182.73L269.69 229.58L257.58 226.4L261.4 189.4L259.49 152.11C259.49 152.11 262.2 143.42 268.41 138.64" fill="#263238"/>
<path d="M277.66 128.86L284.83 133.16L282.44 182.73L269.69 229.58L257.58 226.4L261.4 189.4L259.49 152.11C259.49 152.11 262.2 143.42 268.41 138.64" stroke="#263238" stroke-linecap="round" stroke-linejoin="round"/>
<path d="M262.91 137.23C262.91 137.23 259.65 145.51 259.49 152.13" stroke="white" stroke-linecap="round" stroke-linejoin="round"/>
<path d="M265.63 141.17C265.63 141.17 260.05 150.28 260.05 154.4C260.05 158.52 261.52 192.9 261.52 192.9L257.7 222.58" stroke="white" stroke-linecap="round" stroke-linejoin="round"/>
<path d="M231 73.6299C231 73.6299 227.17 84.5099 227.53 86.0699C227.89 87.6299 228.25 90.0098 228.25 90.0098C228.25 90.0098 222.25 97.4198 222.99 98.2598C223.73 99.0998 227.05 100.05 227.05 100.05C227.05 100.05 229.8 111.53 230.88 112.6C231.96 113.67 238.65 111.29 238.65 111.29L245.82 120.37L260.52 106.27L258.73 98.8599C258.73 98.8599 266.5 85.2299 266.38 78.7699C266.26 72.3099 253 63.7099 243.55 63.8299C234.1 63.9499 225.26 67.4198 227.05 69.9298C228.104 71.4164 229.448 72.6749 231 73.6299Z" fill="white"/>
<path d="M261.74 71.2998C259.919 71.5658 258.14 72.0701 256.45 72.7998L242.36 78.5098C242.36 78.5098 235.65 84.2098 236.36 88.5698C237.07 92.9298 243.07 98.9698 241.73 103.33C240.39 107.69 232 112.39 232 112.39L234.63 112.49C236.63 112.02 238.69 111.29 238.69 111.29L239.79 112.68L253.37 113.17L260.56 106.27L258.77 98.8598C258.77 98.8598 266.54 85.2298 266.42 78.7698C266.34 76.3898 264.5 73.7198 261.74 71.2998Z" fill="#B8B8B8"/>
<path d="M231 73.6299C231 73.6299 227.17 84.5099 227.53 86.0699C227.89 87.6299 228.25 90.0098 228.25 90.0098C228.25 90.0098 222.25 97.4198 222.99 98.2598C223.73 99.0998 227.05 100.05 227.05 100.05C227.05 100.05 229.8 111.53 230.88 112.6C231.96 113.67 238.65 111.29 238.65 111.29L245.82 120.37L260.52 106.27L258.73 98.8599C258.73 98.8599 266.5 85.2299 266.38 78.7699C266.26 72.3099 253 63.7099 243.55 63.8299C234.1 63.9499 225.26 67.4198 227.05 69.9298C228.104 71.4164 229.448 72.6749 231 73.6299Z" stroke="#263238" stroke-linecap="round" stroke-linejoin="round"/>
<path d="M258.73 98.8599C258.73 98.8599 266.5 85.2299 266.38 78.7699C266.26 72.3099 253 63.7099 243.55 63.8299C234.1 63.9499 225.26 67.4198 227.05 69.9298C228.104 71.4164 229.448 72.6749 231 73.6299C231 73.6299 236.86 76.3799 236.86 77.0999C236.86 77.8199 233.39 81.6399 234.59 83.3199C235.79 84.9999 241.52 87.0199 241.52 87.0199C241.52 87.0199 240.52 90.2499 242 90.6099C243.48 90.9699 244.15 89.5299 245.1 88.6099C246.05 87.6899 249.41 86.3298 249.89 90.3998C250.172 93.3191 249.407 96.2436 247.73 98.6498C247.26 98.9998 253.83 103.43 256.73 102.11C257.48 101.77 258.36 101.32 259.24 100.85L258.73 98.8599Z" fill="#263238" stroke="#263238" stroke-linecap="round" stroke-linejoin="round"/>
<path d="M230.04 93C230.504 93 230.88 91.5539 230.88 89.7701C230.88 87.9862 230.504 86.54 230.04 86.54C229.576 86.54 229.2 87.9862 229.2 89.7701C229.2 91.5539 229.576 93 230.04 93Z" stroke="#263238" stroke-linecap="round" stroke-linejoin="round"/>
<path d="M231 88.46L245.1 88.58" stroke="#263238" stroke-linecap="round" stroke-linejoin="round"/>
<path d="M228.68 84.5699C228.68 84.5699 230.02 82.4299 231.36 85.0999" stroke="#263238" stroke-linecap="round" stroke-linejoin="round"/>
<path d="M228.41 102C229.86 101.409 231.21 100.596 232.41 99.5898" stroke="#263238" stroke-linecap="round" stroke-linejoin="round"/>
</svg>
